<svg id="Layer_1" data-name="Layer 1" xmlns="http://www.w3.org/2000/svg" xmlns:xlink="http://www.w3.org/1999/xlink" viewBox="0 0 866.63 529.2"><defs><style>.cls-1,.cls-2{fill:#221f20;}.cls-1,.cls-3,.cls-4{stroke:#221f20;stroke-miterlimit:10;}.cls-3,.cls-4{fill:none;}.cls-3{stroke-width:7px;}.cls-4{stroke-width:8px;}</style></defs><image width="4032" height="3024" transform="translate(396.24 0.88) rotate(90) scale(0.13)" xlink:href="../../Desktop/IMG_2394.jpeg"/><polygon class="cls-1" points="437.15 37.26 425.12 37.26 413.09 37.26 413.09 23.71 413.09 10.15 425.12 10.15 437.15 10.15 437.15 23.71 437.15 37.26"/><polygon class="cls-1" points="483.46 37.26 471.43 37.26 459.4 37.26 459.4 23.71 459.4 10.15 471.43 10.15 483.46 10.15 483.46 23.71 483.46 37.26"/><polygon class="cls-1" points="527.76 37.26 515.73 37.26 503.7 37.26 503.7 23.71 503.7 10.15 515.73 10.15 527.76 10.15 527.76 23.71 527.76 37.26"/><polygon class="cls-2" points="576.06 37.26 564.03 37.26 552 37.26 552 23.71 552 10.15 564.03 10.15 576.06 10.15 576.06 23.71 576.06 37.26"/><polygon class="cls-2" points="622.37 37.26 610.34 37.26 598.3 37.26 598.3 23.71 598.3 10.15 610.34 10.15 622.37 10.15 622.37 23.71 622.37 37.26"/><polygon class="cls-2" points="668.67 37.26 656.64 37.26 644.61 37.26 644.61 23.71 644.61 10.15 656.64 10.15 668.67 10.15 668.67 23.71 668.67 37.26"/><polygon class="cls-2" points="714.97 37.26 702.94 37.26 690.91 37.26 690.91 23.71 690.91 10.15 702.94 10.15 714.97 10.15 714.97 23.71 714.97 37.26"/><polygon class="cls-2" points="761.28 37.26 749.25 37.26 737.21 37.26 737.21 23.71 737.21 10.15 749.25 10.15 761.28 10.15 761.28 23.71 761.28 37.26"/><polygon class="cls-2" points="807.58 37.26 795.55 37.26 783.52 37.26 783.52 23.71 783.52 10.15 795.55 10.15 807.58 10.15 807.58 23.71 807.58 37.26"/><polygon class="cls-2" points="865.88 24.79 853.85 24.79 841.82 24.79 841.82 17.47 841.82 10.15 853.85 10.15 865.88 10.15 865.88 17.47 865.88 24.79"/><polyline class="cls-3" points="425.12 13.15 448.27 26.71 471.43 13.15"/><polyline class="cls-3" points="564.03 13.15 587.18 26.71 610.34 13.15"/><line class="cls-3" x1="521.15" y1="10.15" x2="538.88" y2="10.15"/><line class="cls-4" x1="521.15" y1="20.71" x2="538.88" y2="20.71"/><line class="cls-3" x1="521.15" y1="31.57" x2="538.88" y2="31.57"/><circle class="cls-3" cx="666.74" cy="13.6" r="10.1"/><polyline class="cls-3" points="715.97 33.26 715.97 19.71 738.21 19.71"/><line class="cls-3" x1="807.58" y1="19.71" x2="807.58" y2="33.26"/><polygon class="cls-2" points="853.91 38.35 841.88 38.35 829.85 38.35 829.85 31.57 829.85 24.79 841.88 24.79 853.91 24.79 853.91 31.57 853.91 38.35"/><polygon class="cls-1" points="437.91 350.36 425.88 350.36 413.85 350.36 413.85 336.8 413.85 323.25 425.88 323.25 437.91 323.25 437.91 336.8 437.91 350.36"/><polygon class="cls-1" points="484.21 350.36 472.18 350.36 460.15 350.36 460.15 336.8 460.15 323.25 472.18 323.25 484.21 323.25 484.21 336.8 484.21 350.36"/><polygon class="cls-1" points="528.51 350.36 516.48 350.36 504.45 350.36 504.45 336.8 504.45 323.25 516.48 323.25 528.51 323.25 528.51 336.8 528.51 350.36"/><polygon class="cls-2" points="576.82 350.36 564.78 350.36 552.75 350.36 552.75 336.8 552.75 323.25 564.78 323.25 576.82 323.25 576.82 336.8 576.82 350.36"/><polygon class="cls-2" points="623.12 350.36 611.09 350.36 599.06 350.36 599.06 336.8 599.06 323.25 611.09 323.25 623.12 323.25 623.12 336.8 623.12 350.36"/><polygon class="cls-2" points="669.42 350.36 657.39 350.36 645.36 350.36 645.36 336.8 645.36 323.25 657.39 323.25 669.42 323.25 669.42 336.8 669.42 350.36"/><polygon class="cls-2" points="715.73 350.36 703.7 350.36 691.66 350.36 691.66 336.8 691.66 323.25 703.7 323.25 715.73 323.25 715.73 336.8 715.73 350.36"/><polygon class="cls-2" points="762.03 350.36 750 350.36 737.97 350.36 737.97 336.8 737.97 323.25 750 323.25 762.03 323.25 762.03 336.8 762.03 350.36"/><polygon class="cls-2" points="808.33 350.36 796.3 350.36 784.27 350.36 784.27 336.8 784.27 323.25 796.3 323.25 808.33 323.25 808.33 336.8 808.33 350.36"/><polygon class="cls-2" points="866.63 337.88 854.6 337.88 842.57 337.88 842.57 330.56 842.57 323.25 854.6 323.25 866.63 323.25 866.63 330.56 866.63 337.88"/><polyline class="cls-3" points="425.88 326.25 449.03 339.8 472.18 326.25"/><polyline class="cls-3" points="564.78 326.25 587.94 339.8 611.09 326.25"/><line class="cls-3" x1="521.9" y1="323.25" x2="539.63" y2="323.25"/><line class="cls-4" x1="521.9" y1="333.8" x2="539.63" y2="333.8"/><line class="cls-3" x1="521.9" y1="344.66" x2="539.63" y2="344.66"/><circle class="cls-3" cx="667.5" cy="326.7" r="10.1"/><polyline class="cls-3" points="716.73 346.36 716.73 332.8 738.97 332.8"/><line class="cls-3" x1="808.33" y1="332.8" x2="808.33" y2="346.36"/><polygon class="cls-2" points="854.66 351.44 842.63 351.44 830.6 351.44 830.6 344.66 830.6 337.88 842.63 337.88 854.66 337.88 854.66 344.66 854.66 351.44"/></svg>