  0
SECTION
  2
HEADER
  9
$ACADVER
  1
AC1009
  9
$INSBASE
 10
0.0
 20
0.0
 30
0.0
  9
$EXTMIN
 10
0.0
 20
0.0
 30
0.0
  9
$EXTMAX
 10
316.6170000000000755
 20
205.1562000000000126
 30
0.0
  9
$LIMMIN
 10
0.0
 20
0.0
  9
$LIMMAX
 10
12.0
 20
9.0
  9
$ORTHOMODE
 70
     0
  9
$REGENMODE
 70
     1
  9
$FILLMODE
 70
     1
  9
$QTEXTMODE
 70
     0
  9
$MIRRTEXT
 70
     0
  9
$DRAGMODE
 70
     2
  9
$LTSCALE
 40
1.0
  9
$OSMODE
 70
   167
  9
$ATTMODE
 70
     1
  9
$TEXTSIZE
 40
0.2
  9
$TRACEWID
 40
0.05
  9
$TEXTSTYLE
  7
STANDARD
  9
$CLAYER
  8
0
  9
$CELTYPE
  6
BYLAYER
  9
$CECOLOR
 62
   256
  9
$DIMSCALE
 40
1.0
  9
$DIMASZ
 40
0.18
  9
$DIMEXO
 40
0.0625
  9
$DIMDLI
 40
0.38
  9
$DIMRND
 40
0.0
  9
$DIMDLE
 40
0.0
  9
$DIMEXE
 40
0.18
  9
$DIMTP
 40
0.0
  9
$DIMTM
 40
0.0
  9
$DIMTXT
 40
0.18
  9
$DIMCEN
 40
0.09
  9
$DIMTSZ
 40
0.0
  9
$DIMTOL
 70
     0
  9
$DIMLIM
 70
     0
  9
$DIMTIH
 70
     1
  9
$DIMTOH
 70
     1
  9
$DIMSE1
 70
     0
  9
$DIMSE2
 70
     0
  9
$DIMTAD
 70
     0
  9
$DIMZIN
 70
     0
  9
$DIMBLK
  1

  9
$DIMASO
 70
     1
  9
$DIMSHO
 70
     1
  9
$DIMPOST
  1

  9
$DIMAPOST
  1

  9
$DIMALT
 70
     0
  9
$DIMALTD
 70
     2
  9
$DIMALTF
 40
25.3999999999999986
  9
$DIMLFAC
 40
1.0
  9
$DIMTOFL
 70
     0
  9
$DIMTVP
 40
0.0
  9
$DIMTIX
 70
     0
  9
$DIMSOXD
 70
     0
  9
$DIMSAH
 70
     0
  9
$DIMBLK1
  1

  9
$DIMBLK2
  1

  9
$DIMSTYLE
  2
STANDARD
  9
$DIMCLRD
 70
     0
  9
$DIMCLRE
 70
     0
  9
$DIMCLRT
 70
     0
  9
$DIMTFAC
 40
1.0
  9
$DIMGAP
 40
0.09
  9
$LUNITS
 70
     2
  9
$LUPREC
 70
     4
  9
$SKETCHINC
 40
0.1
  9
$FILLETRAD
 40
0.0
  9
$AUNITS
 70
     0
  9
$AUPREC
 70
     0
  9
$MENU
  1
.
  9
$ELEVATION
 40
0.0
  9
$PELEVATION
 40
0.0
  9
$THICKNESS
 40
0.0
  9
$LIMCHECK
 70
     0
  9
$BLIPMODE
 70
     0
  9
$CHAMFERA
 40
0.0
  9
$CHAMFERB
 40
0.0
  9
$SKPOLY
 70
     0
  9
$TDCREATE
 40
2459039.5943287038244307
  9
$TDUPDATE
 40
2459107.4835300929844379
  9
$TDINDWG
 40
0.1194675926
  9
$TDUSRTIMER
 40
0.1194675926
  9
$USRTIMER
 70
     1
  9
$ANGBASE
 50
0.0
  9
$ANGDIR
 70
     0
  9
$PDMODE
 70
     0
  9
$PDSIZE
 40
0.0
  9
$PLINEWID
 40
0.0
  9
$COORDS
 70
     1
  9
$SPLFRAME
 70
     0
  9
$SPLINETYPE
 70
     6
  9
$SPLINESEGS
 70
     8
  9
$ATTDIA
 70
     1
  9
$ATTREQ
 70
     1
  9
$HANDLING
 70
     1
  9
$HANDSEED
  5
CF6
  9
$SURFTAB1
 70
     6
  9
$SURFTAB2
 70
     6
  9
$SURFTYPE
 70
     6
  9
$SURFU
 70
     6
  9
$SURFV
 70
     6
  9
$UCSNAME
  2

  9
$UCSORG
 10
0.0
 20
0.0
 30
0.0
  9
$UCSXDIR
 10
1.0
 20
0.0
 30
0.0
  9
$UCSYDIR
 10
0.0
 20
1.0
 30
0.0
  9
$PUCSNAME
  2

  9
$PUCSORG
 10
0.0
 20
0.0
 30
0.0
  9
$PUCSXDIR
 10
1.0
 20
0.0
 30
0.0
  9
$PUCSYDIR
 10
0.0
 20
1.0
 30
0.0
  9
$USERI1
 70
     0
  9
$USERI2
 70
     0
  9
$USERI3
 70
     0
  9
$USERI4
 70
     0
  9
$USERI5
 70
     0
  9
$USERR1
 40
0.0
  9
$USERR2
 40
0.0
  9
$USERR3
 40
0.0
  9
$USERR4
 40
0.0
  9
$USERR5
 40
0.0
  9
$WORLDVIEW
 70
     1
  9
$SHADEDGE
 70
     3
  9
$SHADEDIF
 70
    70
  9
$TILEMODE
 70
     1
  9
$MAXACTVP
 70
    64
  9
$PLIMCHECK
 70
     0
  9
$PEXTMIN
 10
0.0
 20
0.0
 30
0.0
  9
$PEXTMAX
 10
0.0
 20
0.0
 30
0.0
  9
$PLIMMIN
 10
0.0
 20
0.0
  9
$PLIMMAX
 10
12.0
 20
9.0
  9
$UNITMODE
 70
     0
  9
$VISRETAIN
 70
     1
  9
$PLINEGEN
 70
     0
  9
$PSLTSCALE
 70
     1
  0
ENDSEC
  0
SECTION
  2
TABLES
  0
TABLE
  2
VPORT
 70
     1
  0
VPORT
  2
*ACTIVE
 70
     0
 10
0.0
 20
0.0
 11
1.0
 21
1.0
 12
83.9414488613917769
 22
63.5006917702789409
 13
0.0
 23
0.0
 14
0.5
 24
0.5
 15
0.5
 25
0.5
 16
0.0
 26
0.0
 36
1.0
 17
0.0
 27
0.0
 37
0.0
 40
209.9423974525305994
 41
0.9979079497907951
 42
50.0
 43
0.0
 44
0.0
 50
0.0
 51
0.0
 71
     0
 72
  1000
 73
     1
 74
     3
 75
     0
 76
     1
 77
     0
 78
     0
  0
ENDTAB
  0
TABLE
  2
LTYPE
 70
     1
  0
LTYPE
  2
CONTINUOUS
 70
     0
  3
Solid line
 72
    65
 73
     0
 40
0.0
  0
ENDTAB
  0
TABLE
  2
LAYER
 70
     6
  0
LAYER
  2
0
 70
     0
 62
     7
  6
CONTINUOUS
  0
ENDTAB
  0
TABLE
  2
STYLE
 70
     2
  0
STYLE
  2
STANDARD
 70
     0
 40
0.0
 41
1.0
 50
0.0
 71
     0
 42
0.2
  3
txt
  4

  0
STYLE
  2
ANNOTATIVE
 70
     0
 40
0.0
 41
1.0
 50
0.0
 71
     0
 42
0.2
  3
txt
  4

  0
ENDTAB
  0
TABLE
  2
VIEW
 70
     3
  0
ENDTAB
  0
TABLE
  2
UCS
 70
     0
  0
ENDTAB
  0
TABLE
  2
APPID
 70
    11
  0
APPID
  2
ACAD
 70
     0
  0
APPID
  2
ACADANNOTATIVE
 70
     0
  0
APPID
  2
ACADANNOPO
 70
     0
  0
APPID
  2
ACAD_DSTYLE_DIMJAG
 70
     0
  0
APPID
  2
ACAD_DSTYLE_DIMTALN
 70
     0
  0
APPID
  2
ACAD_MLEADERVER
 70
     0
  0
APPID
  2
ACAD_NAV_VCDISPLAY
 70
     0
  0
APPID
  2
ACAECLAYERSTANDARD
 70
     0
  0
APPID
  2
ACCMTRANSPARENCY
 70
     0
  0
APPID
  2
ACAD_PSEXT
 70
     0
  0
APPID
  2
ACAD_EXEMPT_FROM_CAD_STANDARDS
 70
     0
  0
ENDTAB
  0
TABLE
  2
DIMSTYLE
 70
     2
  0
DIMSTYLE
  2
STANDARD
 70
     0
  3

  4

  5

  6

  7

 40
1.0
 41
0.18
 42
0.0625
 43
0.38
 44
0.18
 45
0.0
 46
0.0
 47
0.0
 48
0.0
140
0.18
141
0.09
142
0.0
143
25.3999999999999986
144
1.0
145
0.0
146
1.0
147
0.09
 71
     0
 72
     0
 73
     1
 74
     1
 75
     0
 76
     0
 77
     0
 78
     0
170
     0
171
     2
172
     0
173
     0
174
     0
175
     0
176
     0
177
     0
178
     0
  0
DIMSTYLE
  2
ANNOTATIVE
 70
     0
  3

  4

  5

  6

  7

 40
0.0
 41
0.18
 42
0.0625
 43
0.38
 44
0.18
 45
0.0
 46
0.0
 47
0.0
 48
0.0
140
0.18
141
0.09
142
0.0
143
25.3999999999999986
144
1.0
145
0.0
146
1.0
147
0.09
 71
     0
 72
     0
 73
     1
 74
     1
 75
     0
 76
     0
 77
     0
 78
     0
170
     0
171
     2
172
     0
173
     0
174
     0
175
     0
176
     0
177
     0
178
     0
  0
ENDTAB
  0
ENDSEC
  0
SECTION
  2
BLOCKS
  0
BLOCK
  8
0
  2
$MODEL_SPACE
 70
     0
 10
0.0
 20
0.0
 30
0.0
  3
$MODEL_SPACE
  1

  0
ENDBLK
  5
9DC
  8
0
  0
BLOCK
 67
     1
  8
0
  2
$PAPER_SPACE
 70
     0
 10
0.0
 20
0.0
 30
0.0
  3
$PAPER_SPACE
  1

  0
ENDBLK
  5
9D8
 67
     1
  8
0
  0
BLOCK
  8
0
  2
*U2
 70
     1
 10
0.0
 20
0.0
 30
0.0
  3
*U2
  1

  0
ARC
  5
48E
  8
0
  6
CONTINUOUS
 10
125.1164493611772031
 20
26.5398023982058717
 30
0.0
 40
15.9999999999999805
 50
102.5585766451006009
 51
201.7908362614242037
  0
ARC
  5
48F
  8
0
  6
CONTINUOUS
 10
111.9066574829967067
 20
17.5119898982058508
 30
0.0
 40
3.499999999999996
 50
310.6287012290745224
 51
118.0701245839744047
  0
ARC
  5
490
  8
0
  6
CONTINUOUS
 10
125.1164493611772031
 20
26.5398023982058291
 30
0.0
 40
15.9999999999999698
 50
226.9079895516250076
 51
313.0920104483748219
  0
ARC
  5
491
  8
0
  6
CONTINUOUS
 10
138.3262412393578131
 20
17.5119898982058615
 30
0.0
 40
3.499999999999996
 50
61.9298754160253324
 51
229.3712987709251934
  0
ARC
  5
492
  8
0
  6
CONTINUOUS
 10
125.1164493611772031
 20
26.5398023982058717
 30
0.0
 40
15.9999999999999805
 50
338.20916373857591
 51
77.4414233548995128
  0
ARC
  5
493
  8
0
  6
CONTINUOUS
 10
125.1164493611772031
 20
42.5398023982058504
 30
0.0
 40
3.5
 50
186.279288322550201
 51
353.720711677449799
  0
ENDBLK
  5
495
  8
0
  0
BLOCK
  8
0
  2
*U3
 70
     1
 10
0.0
 20
0.0
 30
0.0
  3
*U3
  1

  0
CIRCLE
  5
497
  8
0
  6
CONTINUOUS
 10
138.3262412393578131
 20
17.5119898982058508
 30
0.0
 40
2.049999999999998
  0
ENDBLK
  5
499
  8
0
  0
BLOCK
  8
0
  2
*U4
 70
     1
 10
0.0
 20
0.0
 30
0.0
  3
*U4
  1

  0
CIRCLE
  5
49B
  8
0
  6
CONTINUOUS
 10
111.9066574829967067
 20
17.5119898982058508
 30
0.0
 40
2.049999999999998
  0
ENDBLK
  5
49D
  8
0
  0
BLOCK
  8
0
  2
*U5
 70
     1
 10
0.0
 20
0.0
 30
0.0
  3
*U5
  1

  0
CIRCLE
  5
49F
  8
0
  6
CONTINUOUS
 10
125.1164493611772031
 20
42.5398023982058504
 30
0.0
 40
2.049999999999998
  0
ENDBLK
  5
4A1
  8
0
  0
BLOCK
  8
0
  2
*U6
 70
     1
 10
0.0
 20
0.0
 30
0.0
  3
*U6
  1

  0
ARC
  5
4A3
  8
0
  6
CONTINUOUS
 10
125.1164493611772031
 20
26.5398023982058717
 30
0.0
 40
15.9999999999999805
 50
102.5585766451006009
 51
201.7908362614242037
  0
ARC
  5
4A4
  8
0
  6
CONTINUOUS
 10
111.9066574829967067
 20
17.5119898982058508
 30
0.0
 40
3.499999999999996
 50
310.6287012290745224
 51
118.0701245839744047
  0
ARC
  5
4A5
  8
0
  6
CONTINUOUS
 10
125.1164493611772031
 20
26.5398023982058291
 30
0.0
 40
15.9999999999999698
 50
226.9079895516250076
 51
313.0920104483748219
  0
ARC
  5
4A6
  8
0
  6
CONTINUOUS
 10
138.3262412393578131
 20
17.5119898982058615
 30
0.0
 40
3.499999999999996
 50
61.9298754160253324
 51
229.3712987709251934
  0
ARC
  5
4A7
  8
0
  6
CONTINUOUS
 10
125.1164493611772031
 20
26.5398023982058717
 30
0.0
 40
15.9999999999999805
 50
338.20916373857591
 51
77.4414233548995128
  0
ARC
  5
4A8
  8
0
  6
CONTINUOUS
 10
125.1164493611772031
 20
42.5398023982058504
 30
0.0
 40
3.5
 50
186.279288322550201
 51
353.720711677449799
  0
ENDBLK
  5
4AA
  8
0
  0
BLOCK
  8
0
  2
*U7
 70
     1
 10
0.0
 20
0.0
 30
0.0
  3
*U7
  1

  0
CIRCLE
  5
4AC
  8
0
  6
CONTINUOUS
 10
138.3262412393578131
 20
17.5119898982058508
 30
0.0
 40
2.049999999999998
  0
ENDBLK
  5
4AE
  8
0
  0
BLOCK
  8
0
  2
*U8
 70
     1
 10
0.0
 20
0.0
 30
0.0
  3
*U8
  1

  0
CIRCLE
  5
4B0
  8
0
  6
CONTINUOUS
 10
111.9066574829967067
 20
17.5119898982058508
 30
0.0
 40
2.049999999999998
  0
ENDBLK
  5
4B2
  8
0
  0
BLOCK
  8
0
  2
*U9
 70
     1
 10
0.0
 20
0.0
 30
0.0
  3
*U9
  1

  0
CIRCLE
  5
4B4
  8
0
  6
CONTINUOUS
 10
125.1164493611772031
 20
42.5398023982058504
 30
0.0
 40
2.049999999999998
  0
ENDBLK
  5
4B6
  8
0
  0
BLOCK
  8
0
  2
*U10
 70
     1
 10
0.0
 20
0.0
 30
0.0
  3
*U10
  1

  0
ARC
  5
943
  6
CONTINUOUS
 10
125.1164493611772031
 20
26.5398023982058717
 30
0.0
 40
15.9999999999999805
 50
102.5585766451006009
 51
201.7908362614242037
  0
ARC
  5
944
  6
CONTINUOUS
 10
111.9066574829967067
 20
17.5119898982058508
 30
0.0
 40
3.4999999999999969
 50
310.6287012290745224
 51
118.0701245839744047
  0
ARC
  5
945
  6
CONTINUOUS
 10
125.1164493611772031
 20
26.5398023982058291
 30
0.0
 40
15.9999999999999698
 50
226.9079895516250076
 51
313.0920104483748219
  0
ARC
  5
946
  6
CONTINUOUS
 10
138.3262412393578131
 20
17.5119898982058615
 30
0.0
 40
3.4999999999999991
 50
61.9298754160253324
 51
229.3712987709251934
  0
ARC
  5
947
  6
CONTINUOUS
 10
125.1164493611772031
 20
26.5398023982058717
 30
0.0
 40
15.9999999999999805
 50
338.20916373857591
 51
77.4414233548995128
  0
ARC
  5
948
  6
CONTINUOUS
 10
125.1164493611772031
 20
42.5398023982058504
 30
0.0
 40
3.5
 50
186.279288322550201
 51
353.720711677449799
  0
ENDBLK
  5
94A
  8
0
  0
BLOCK
  8
0
  2
*U11
 70
     1
 10
0.0
 20
0.0
 30
0.0
  3
*U11
  1

  0
CIRCLE
  5
94C
  6
CONTINUOUS
 10
138.3262412393578131
 20
17.5119898982058508
 30
0.0
 40
2.049999999999998
  0
ENDBLK
  5
94E
  8
0
  0
BLOCK
  8
0
  2
*U12
 70
     1
 10
0.0
 20
0.0
 30
0.0
  3
*U12
  1

  0
CIRCLE
  5
950
  6
CONTINUOUS
 10
111.9066574829967067
 20
17.5119898982058508
 30
0.0
 40
2.049999999999998
  0
ENDBLK
  5
952
  8
0
  0
BLOCK
  8
0
  2
*U13
 70
     1
 10
0.0
 20
0.0
 30
0.0
  3
*U13
  1

  0
CIRCLE
  5
954
  6
CONTINUOUS
 10
125.1164493611772031
 20
42.5398023982058504
 30
0.0
 40
2.049999999999998
  0
ENDBLK
  5
956
  8
0
  0
BLOCK
  8
0
  2
*U14
 70
     1
 10
0.0
 20
0.0
 30
0.0
  3
*U14
  1

  0
ARC
  5
958
  6
CONTINUOUS
 10
125.1164493611772031
 20
26.5398023982058717
 30
0.0
 40
15.9999999999999805
 50
102.5585766451006009
 51
201.7908362614242037
  0
ARC
  5
959
  6
CONTINUOUS
 10
111.9066574829967067
 20
17.5119898982058508
 30
0.0
 40
3.4999999999999969
 50
310.6287012290745224
 51
118.0701245839744047
  0
ARC
  5
95A
  6
CONTINUOUS
 10
125.1164493611772031
 20
26.5398023982058291
 30
0.0
 40
15.9999999999999698
 50
226.9079895516250076
 51
313.0920104483748219
  0
ARC
  5
95B
  6
CONTINUOUS
 10
138.3262412393578131
 20
17.5119898982058615
 30
0.0
 40
3.4999999999999991
 50
61.9298754160253324
 51
229.3712987709251934
  0
ARC
  5
95C
  6
CONTINUOUS
 10
125.1164493611772031
 20
26.5398023982058717
 30
0.0
 40
15.9999999999999805
 50
338.20916373857591
 51
77.4414233548995128
  0
ARC
  5
95D
  6
CONTINUOUS
 10
125.1164493611772031
 20
42.5398023982058504
 30
0.0
 40
3.5
 50
186.279288322550201
 51
353.720711677449799
  0
ENDBLK
  5
95F
  8
0
  0
BLOCK
  8
0
  2
*U15
 70
     1
 10
0.0
 20
0.0
 30
0.0
  3
*U15
  1

  0
CIRCLE
  5
961
  6
CONTINUOUS
 10
138.3262412393578131
 20
17.5119898982058508
 30
0.0
 40
2.049999999999998
  0
ENDBLK
  5
963
  8
0
  0
BLOCK
  8
0
  2
*U16
 70
     1
 10
0.0
 20
0.0
 30
0.0
  3
*U16
  1

  0
CIRCLE
  5
965
  6
CONTINUOUS
 10
111.9066574829967067
 20
17.5119898982058508
 30
0.0
 40
2.049999999999998
  0
ENDBLK
  5
967
  8
0
  0
BLOCK
  8
0
  2
*U17
 70
     1
 10
0.0
 20
0.0
 30
0.0
  3
*U17
  1

  0
CIRCLE
  5
969
  6
CONTINUOUS
 10
125.1164493611772031
 20
42.5398023982058504
 30
0.0
 40
2.049999999999998
  0
ENDBLK
  5
96B
  8
0
  0
BLOCK
  8
0
  2
*U20
 70
     1
 10
0.0
 20
0.0
 30
0.0
  3
*U20
  1

  0
ARC
  5
CBE
  8
0
  6
CONTINUOUS
 10
132.469499999999897
 20
40.390199999999993
 30
0.0
 40
15.9999999999999893
 50
102.5585766451006009
 51
201.7908362614242037
  0
ARC
  5
CBF
  8
0
  6
CONTINUOUS
 10
119.2597081218194006
 20
31.3623874999999899
 30
0.0
 40
3.4999999999999978
 50
310.6287012290745793
 51
118.0701245839744047
  0
ARC
  5
CC0
  8
0
  6
CONTINUOUS
 10
132.469499999999897
 20
40.3901999999999575
 30
0.0
 40
15.9999999999999698
 50
226.9079895516250076
 51
313.0920104483748219
  0
ARC
  5
CC1
  8
0
  6
CONTINUOUS
 10
145.6792918781804076
 20
31.3623874999999899
 30
0.0
 40
3.4999999999999991
 50
61.9298754160253111
 51
229.3712987709251934
  0
ARC
  5
CC2
  8
0
  6
CONTINUOUS
 10
132.469499999999897
 20
40.390199999999993
 30
0.0
 40
15.9999999999999805
 50
338.20916373857591
 51
77.4414233548995128
  0
ARC
  5
CC3
  8
0
  6
CONTINUOUS
 10
132.469499999999897
 20
56.3901999999999788
 30
0.0
 40
3.5
 50
186.279288322550201
 51
353.720711677449799
  0
ENDBLK
  5
CC5
  8
0
  0
BLOCK
  8
0
  2
*U21
 70
     1
 10
0.0
 20
0.0
 30
0.0
  3
*U21
  1

  0
CIRCLE
  5
CC7
  8
0
  6
CONTINUOUS
 10
145.6792918781804076
 20
31.3623874999999899
 30
0.0
 40
2.0499999999999989
  0
ENDBLK
  5
CC9
  8
0
  0
BLOCK
  8
0
  2
*U22
 70
     1
 10
0.0
 20
0.0
 30
0.0
  3
*U22
  1

  0
CIRCLE
  5
CCB
  8
0
  6
CONTINUOUS
 10
119.2597081218194006
 20
31.3623874999999899
 30
0.0
 40
2.0499999999999989
  0
ENDBLK
  5
CCD
  8
0
  0
BLOCK
  8
0
  2
*U23
 70
     1
 10
0.0
 20
0.0
 30
0.0
  3
*U23
  1

  0
CIRCLE
  5
CCF
  8
0
  6
CONTINUOUS
 10
132.469499999999897
 20
56.3901999999999788
 30
0.0
 40
2.0499999999999989
  0
ENDBLK
  5
CD1
  8
0
  0
BLOCK
  8
0
  2
*U24
 70
     1
 10
0.0
 20
0.0
 30
0.0
  3
*U24
  1

  0
ARC
  5
CDD
  8
0
  6
CONTINUOUS
 10
130.37441539999989
 20
38.1242390000000029
 30
0.0
 40
15.9999999999999893
 50
102.5585766451006009
 51
201.7908362614242037
  0
ARC
  5
CDE
  8
0
  6
CONTINUOUS
 10
117.1646235218193937
 20
29.0964264999999784
 30
0.0
 40
3.4999999999999978
 50
310.6287012290745793
 51
118.0701245839744047
  0
ARC
  5
CDF
  8
0
  6
CONTINUOUS
 10
130.37441539999989
 20
38.1242389999999602
 30
0.0
 40
15.9999999999999698
 50
226.9079895516250076
 51
313.0920104483748219
  0
ARC
  5
CE0
  8
0
  6
CONTINUOUS
 10
143.5842072781804006
 20
29.0964264999999784
 30
0.0
 40
3.4999999999999991
 50
61.9298754160253111
 51
229.3712987709251934
  0
ARC
  5
CE1
  8
0
  6
CONTINUOUS
 10
130.37441539999989
 20
38.1242390000000029
 30
0.0
 40
15.9999999999999805
 50
338.20916373857591
 51
77.4414233548995128
  0
ARC
  5
CE2
  8
0
  6
CONTINUOUS
 10
130.37441539999989
 20
54.1242389999999887
 30
0.0
 40
3.5
 50
186.279288322550201
 51
353.720711677449799
  0
ENDBLK
  5
CE4
  8
0
  0
BLOCK
  8
0
  2
*U25
 70
     1
 10
0.0
 20
0.0
 30
0.0
  3
*U25
  1

  0
CIRCLE
  5
CE6
  8
0
  6
CONTINUOUS
 10
143.5842072781804006
 20
29.0964264999999784
 30
0.0
 40
2.0499999999999989
  0
ENDBLK
  5
CE8
  8
0
  0
BLOCK
  8
0
  2
*U26
 70
     1
 10
0.0
 20
0.0
 30
0.0
  3
*U26
  1

  0
CIRCLE
  5
CEA
  8
0
  6
CONTINUOUS
 10
117.1646235218193937
 20
29.0964264999999784
 30
0.0
 40
2.0499999999999989
  0
ENDBLK
  5
CEC
  8
0
  0
BLOCK
  8
0
  2
*U27
 70
     1
 10
0.0
 20
0.0
 30
0.0
  3
*U27
  1

  0
CIRCLE
  5
CEE
  8
0
  6
CONTINUOUS
 10
130.37441539999989
 20
54.1242389999999887
 30
0.0
 40
2.0499999999999989
  0
ENDBLK
  5
CF0
  8
0
  0
ENDSEC
  0
SECTION
  2
ENTITIES
  0
CIRCLE
  5
C34
  8
0
  6
CONTINUOUS
 10
9.3087914924443371
 20
121.634601931917004
 30
0.0
 40
1.55
  0
CIRCLE
  5
C35
  8
0
  6
CONTINUOUS
 10
9.3241168441477171
 20
8.7285987791695092
 30
0.0
 40
1.55
  0
CIRCLE
  5
C36
  8
0
  6
CONTINUOUS
 10
161.1767985558522014
 20
121.6714402208305046
 30
0.0
 40
1.55
  0
CIRCLE
  5
C37
  8
0
  6
CONTINUOUS
 10
161.1767985558522014
 20
8.7285987791695092
 30
0.0
 40
1.55
  0
ARC
  5
C4E
  8
0
  6
CONTINUOUS
 10
11.2579660388226799
 20
11.1942366017941506
 30
0.0
 40
6.0
 50
180.0
 51
270.0
  0
LINE
  5
C4F
  8
0
  6
CONTINUOUS
 10
159.2579660388225875
 20
5.1942366017941346
 30
0.0
 11
11.2579660388226799
 21
5.1942366017941541
 31
0.0
  0
ARC
  5
C50
  8
0
  6
CONTINUOUS
 10
159.2579660388225875
 20
11.1942366017941204
 30
0.0
 40
5.9999999999999893
 50
270.0
 51
0.0000000000000763
  0
LINE
  5
C51
  8
0
  6
CONTINUOUS
 10
165.2579660388225875
 20
119.1942366017941026
 30
0.0
 11
165.2579660388225875
 21
11.1942366017941293
 31
0.0
  0
ARC
  5
C52
  8
0
  6
CONTINUOUS
 10
159.2579660388225875
 20
119.1942366017941026
 30
0.0
 40
5.9999999999999707
 50
0.0
 51
90.0000000000003837
  0
LINE
  5
C53
  8
0
  6
CONTINUOUS
 10
11.2579660388226603
 20
125.1942366017941026
 30
0.0
 11
159.2579660388225875
 21
125.1942366017941026
 31
0.0
  0
ARC
  5
C54
  8
0
  6
CONTINUOUS
 10
11.2579660388226497
 20
119.1942366017941026
 30
0.0
 40
5.9999999999999849
 50
89.9999999999999147
 51
180.0000000000001137
  0
LINE
  5
C55
  8
0
  6
CONTINUOUS
 10
5.2579660388226674
 20
11.1942366017941506
 30
0.0
 11
5.2579660388226648
 21
119.1942366017941026
 31
0.0
  0
LINE
  5
C5B
  8
0
  6
CONTINUOUS
 10
141.925915400000008
 20
82.2242389999999972
 30
0.0
 11
156.925915400000008
 21
82.2242389999999972
 31
0.0
  0
LINE
  5
C5C
  8
0
  6
CONTINUOUS
 10
156.925915400000008
 20
82.2242389999999972
 30
0.0
 11
156.925915400000008
 21
70.224238999999983
 31
0.0
  0
LINE
  5
C5D
  8
0
  6
CONTINUOUS
 10
156.925915400000008
 20
70.224238999999983
 30
0.0
 11
141.925915400000008
 21
70.224238999999983
 31
0.0
  0
LINE
  5
C5E
  8
0
  6
CONTINUOUS
 10
141.925915400000008
 20
70.224238999999983
 30
0.0
 11
141.925915400000008
 21
82.2242389999999972
 31
0.0
  0
ARC
  5
C5F
  8
0
  6
CONTINUOUS
 10
130.37441539999989
 20
38.1242390000000029
 30
0.0
 40
15.9999999999999893
 50
102.5585766451006009
 51
201.7908362614242037
  0
ARC
  5
C60
  8
0
  6
CONTINUOUS
 10
117.1646235218193937
 20
29.0964264999999784
 30
0.0
 40
3.4999999999999978
 50
310.6287012290745793
 51
118.0701245839744047
  0
ARC
  5
C61
  8
0
  6
CONTINUOUS
 10
130.37441539999989
 20
38.1242389999999602
 30
0.0
 40
15.9999999999999698
 50
226.9079895516250076
 51
313.0920104483748219
  0
ARC
  5
C62
  8
0
  6
CONTINUOUS
 10
143.5842072781804006
 20
29.0964264999999784
 30
0.0
 40
3.4999999999999991
 50
61.9298754160253111
 51
229.3712987709251934
  0
ARC
  5
C63
  8
0
  6
CONTINUOUS
 10
130.37441539999989
 20
38.1242390000000029
 30
0.0
 40
15.9999999999999805
 50
338.20916373857591
 51
77.4414233548995128
  0
ARC
  5
C64
  8
0
  6
CONTINUOUS
 10
130.37441539999989
 20
54.1242389999999887
 30
0.0
 40
3.5
 50
186.279288322550201
 51
353.720711677449799
  0
CIRCLE
  5
C65
  8
0
  6
CONTINUOUS
 10
143.5842072781804006
 20
29.0964264999999784
 30
0.0
 40
2.0499999999999989
  0
CIRCLE
  5
C66
  8
0
  6
CONTINUOUS
 10
117.1646235218193937
 20
29.0964264999999784
 30
0.0
 40
2.0499999999999989
  0
CIRCLE
  5
C67
  8
0
  6
CONTINUOUS
 10
130.37441539999989
 20
54.1242389999999887
 30
0.0
 40
2.0499999999999989
  0
LINE
  5
C68
  8
0
  6
CONTINUOUS
 10
141.925915400000008
 20
82.2242389999999972
 30
0.0
 11
156.925915400000008
 21
82.2242389999999972
 31
0.0
  0
LINE
  5
C69
  8
0
  6
CONTINUOUS
 10
156.925915400000008
 20
82.2242389999999972
 30
0.0
 11
156.925915400000008
 21
70.224238999999983
 31
0.0
  0
LINE
  5
C6A
  8
0
  6
CONTINUOUS
 10
156.925915400000008
 20
70.224238999999983
 30
0.0
 11
141.925915400000008
 21
70.224238999999983
 31
0.0
  0
LINE
  5
C6B
  8
0
  6
CONTINUOUS
 10
141.925915400000008
 20
70.224238999999983
 30
0.0
 11
141.925915400000008
 21
82.2242389999999972
 31
0.0
  0
ENDSEC
  0
EOF
