  0
SECTION
  2
HEADER
  9
$ACADVER
  1
AC1009
  9
$INSBASE
 10
0.0
 20
0.0
 30
0.0
  9
$EXTMIN
 10
0.0000000000000018
 20
0.0000000000000036
 30
0.0
  9
$EXTMAX
 10
147.3499999999999943
 20
109.25
 30
0.0
  9
$LIMMIN
 10
0.0
 20
0.0
  9
$LIMMAX
 10
12.0
 20
9.0
  9
$ORTHOMODE
 70
     0
  9
$REGENMODE
 70
     1
  9
$FILLMODE
 70
     1
  9
$QTEXTMODE
 70
     0
  9
$MIRRTEXT
 70
     0
  9
$DRAGMODE
 70
     2
  9
$LTSCALE
 40
1.0
  9
$OSMODE
 70
   167
  9
$ATTMODE
 70
     1
  9
$TEXTSIZE
 40
0.2
  9
$TRACEWID
 40
0.05
  9
$TEXTSTYLE
  7
STANDARD
  9
$CLAYER
  8
0
  9
$CELTYPE
  6
BYLAYER
  9
$CECOLOR
 62
   256
  9
$DIMSCALE
 40
1.0
  9
$DIMASZ
 40
0.18
  9
$DIMEXO
 40
0.0625
  9
$DIMDLI
 40
0.38
  9
$DIMRND
 40
0.0
  9
$DIMDLE
 40
0.0
  9
$DIMEXE
 40
0.18
  9
$DIMTP
 40
0.0
  9
$DIMTM
 40
0.0
  9
$DIMTXT
 40
0.18
  9
$DIMCEN
 40
0.09
  9
$DIMTSZ
 40
0.0
  9
$DIMTOL
 70
     0
  9
$DIMLIM
 70
     0
  9
$DIMTIH
 70
     1
  9
$DIMTOH
 70
     1
  9
$DIMSE1
 70
     0
  9
$DIMSE2
 70
     0
  9
$DIMTAD
 70
     0
  9
$DIMZIN
 70
     0
  9
$DIMBLK
  1

  9
$DIMASO
 70
     1
  9
$DIMSHO
 70
     1
  9
$DIMPOST
  1

  9
$DIMAPOST
  1

  9
$DIMALT
 70
     0
  9
$DIMALTD
 70
     2
  9
$DIMALTF
 40
25.3999999999999986
  9
$DIMLFAC
 40
1.0
  9
$DIMTOFL
 70
     0
  9
$DIMTVP
 40
0.0
  9
$DIMTIX
 70
     0
  9
$DIMSOXD
 70
     0
  9
$DIMSAH
 70
     0
  9
$DIMBLK1
  1

  9
$DIMBLK2
  1

  9
$DIMSTYLE
  2
STANDARD
  9
$DIMCLRD
 70
     0
  9
$DIMCLRE
 70
     0
  9
$DIMCLRT
 70
     0
  9
$DIMTFAC
 40
1.0
  9
$DIMGAP
 40
0.09
  9
$LUNITS
 70
     2
  9
$LUPREC
 70
     4
  9
$SKETCHINC
 40
0.1
  9
$FILLETRAD
 40
0.0
  9
$AUNITS
 70
     0
  9
$AUPREC
 70
     0
  9
$MENU
  1
.
  9
$ELEVATION
 40
0.0
  9
$PELEVATION
 40
0.0
  9
$THICKNESS
 40
0.0
  9
$LIMCHECK
 70
     0
  9
$BLIPMODE
 70
     0
  9
$CHAMFERA
 40
0.0
  9
$CHAMFERB
 40
0.0
  9
$SKPOLY
 70
     0
  9
$TDCREATE
 40
2459199.547164352145046
  9
$TDUPDATE
 40
2459199.5474537038244307
  9
$TDINDWG
 40
0.0002893519
  9
$TDUSRTIMER
 40
0.0002893519
  9
$USRTIMER
 70
     1
  9
$ANGBASE
 50
0.0
  9
$ANGDIR
 70
     0
  9
$PDMODE
 70
     0
  9
$PDSIZE
 40
0.0
  9
$PLINEWID
 40
0.0
  9
$COORDS
 70
     1
  9
$SPLFRAME
 70
     0
  9
$SPLINETYPE
 70
     6
  9
$SPLINESEGS
 70
     8
  9
$ATTDIA
 70
     1
  9
$ATTREQ
 70
     1
  9
$HANDLING
 70
     1
  9
$HANDSEED
  5
446
  9
$SURFTAB1
 70
     6
  9
$SURFTAB2
 70
     6
  9
$SURFTYPE
 70
     6
  9
$SURFU
 70
     6
  9
$SURFV
 70
     6
  9
$UCSNAME
  2

  9
$UCSORG
 10
0.0
 20
0.0
 30
0.0
  9
$UCSXDIR
 10
1.0
 20
0.0
 30
0.0
  9
$UCSYDIR
 10
0.0
 20
1.0
 30
0.0
  9
$PUCSNAME
  2

  9
$PUCSORG
 10
0.0
 20
0.0
 30
0.0
  9
$PUCSXDIR
 10
1.0
 20
0.0
 30
0.0
  9
$PUCSYDIR
 10
0.0
 20
1.0
 30
0.0
  9
$USERI1
 70
     0
  9
$USERI2
 70
     0
  9
$USERI3
 70
     0
  9
$USERI4
 70
     0
  9
$USERI5
 70
     0
  9
$USERR1
 40
0.0
  9
$USERR2
 40
0.0
  9
$USERR3
 40
0.0
  9
$USERR4
 40
0.0
  9
$USERR5
 40
0.0
  9
$WORLDVIEW
 70
     1
  9
$SHADEDGE
 70
     3
  9
$SHADEDIF
 70
    70
  9
$TILEMODE
 70
     1
  9
$MAXACTVP
 70
    64
  9
$PLIMCHECK
 70
     0
  9
$PEXTMIN
 10
0.0
 20
0.0
 30
0.0
  9
$PEXTMAX
 10
0.0
 20
0.0
 30
0.0
  9
$PLIMMIN
 10
0.0
 20
0.0
  9
$PLIMMAX
 10
12.0
 20
9.0
  9
$UNITMODE
 70
     0
  9
$VISRETAIN
 70
     1
  9
$PLINEGEN
 70
     0
  9
$PSLTSCALE
 70
     1
  0
ENDSEC
  0
SECTION
  2
TABLES
  0
TABLE
  2
VPORT
 70
     1
  0
VPORT
  2
*ACTIVE
 70
     0
 10
0.0
 20
0.0
 11
1.0
 21
1.0
 12
98.0715188062385437
 22
37.6579464662684984
 13
0.0
 23
0.0
 14
0.5
 24
0.5
 15
0.5
 25
0.5
 16
0.0
 26
0.0
 36
1.0
 17
0.0
 27
0.0
 37
0.0
 40
300.8505656155758743
 41
2.111814345991561
 42
50.0
 43
0.0
 44
0.0
 50
0.0
 51
0.0
 71
     0
 72
  1000
 73
     1
 74
     3
 75
     0
 76
     1
 77
     0
 78
     0
  0
ENDTAB
  0
TABLE
  2
LTYPE
 70
     1
  0
LTYPE
  2
CONTINUOUS
 70
     0
  3
Solid line
 72
    65
 73
     0
 40
0.0
  0
ENDTAB
  0
TABLE
  2
LAYER
 70
     2
  0
LAYER
  2
0
 70
     0
 62
     7
  6
CONTINUOUS
  0
LAYER
  2
SWITCH_PLATE
 70
     0
 62
     5
  6
CONTINUOUS
  0
ENDTAB
  0
TABLE
  2
STYLE
 70
     2
  0
STYLE
  2
STANDARD
 70
     0
 40
0.0
 41
1.0
 50
0.0
 71
     0
 42
0.2
  3
txt
  4

  0
STYLE
  2
ANNOTATIVE
 70
     0
 40
0.0
 41
1.0
 50
0.0
 71
     0
 42
0.2
  3
txt
  4

  0
ENDTAB
  0
TABLE
  2
VIEW
 70
     0
  0
ENDTAB
  0
TABLE
  2
UCS
 70
     0
  0
ENDTAB
  0
TABLE
  2
APPID
 70
    10
  0
APPID
  2
ACAD
 70
     0
  0
APPID
  2
ACADANNOPO
 70
     0
  0
APPID
  2
ACADANNOTATIVE
 70
     0
  0
APPID
  2
ACAD_DSTYLE_DIMJAG
 70
     0
  0
APPID
  2
ACAD_DSTYLE_DIMTALN
 70
     0
  0
APPID
  2
ACAD_MLEADERVER
 70
     0
  0
APPID
  2
ACAD_NAV_VCDISPLAY
 70
     0
  0
APPID
  2
ACAECLAYERSTANDARD
 70
     0
  0
APPID
  2
ACCMTRANSPARENCY
 70
     0
  0
APPID
  2
ACAD_PSEXT
 70
     0
  0
ENDTAB
  0
TABLE
  2
DIMSTYLE
 70
     2
  0
DIMSTYLE
  2
STANDARD
 70
     0
  3

  4

  5

  6

  7

 40
1.0
 41
0.18
 42
0.0625
 43
0.38
 44
0.18
 45
0.0
 46
0.0
 47
0.0
 48
0.0
140
0.18
141
0.09
142
0.0
143
25.3999999999999986
144
1.0
145
0.0
146
1.0
147
0.09
 71
     0
 72
     0
 73
     1
 74
     1
 75
     0
 76
     0
 77
     0
 78
     0
170
     0
171
     2
172
     0
173
     0
174
     0
175
     0
176
     0
177
     0
178
     0
  0
DIMSTYLE
  2
ANNOTATIVE
 70
     0
  3

  4

  5

  6

  7

 40
0.0
 41
0.18
 42
0.0625
 43
0.38
 44
0.18
 45
0.0
 46
0.0
 47
0.0
 48
0.0
140
0.18
141
0.09
142
0.0
143
25.3999999999999986
144
1.0
145
0.0
146
1.0
147
0.09
 71
     0
 72
     0
 73
     1
 74
     1
 75
     0
 76
     0
 77
     0
 78
     0
170
     0
171
     2
172
     0
173
     0
174
     0
175
     0
176
     0
177
     0
178
     0
  0
ENDTAB
  0
ENDSEC
  0
SECTION
  2
BLOCKS
  0
BLOCK
  8
0
  2
$MODEL_SPACE
 70
     0
 10
0.0
 20
0.0
 30
0.0
  3
$MODEL_SPACE
  1

  0
ENDBLK
  5
21
  8
0
  0
BLOCK
 67
     1
  8
0
  2
$PAPER_SPACE
 70
     0
 10
0.0
 20
0.0
 30
0.0
  3
$PAPER_SPACE
  1

  0
ENDBLK
  5
5B
 67
     1
  8
0
  0
BLOCK
  8
0
  2
*U2
 70
     1
 10
0.0
 20
0.0
 30
0.0
  3
*U2
  1

  0
ARC
  5
413
  8
SWITCH_PLATE
  6
CONTINUOUS
 10
119.3107426909218987
 20
23.1688297163590597
 30
0.0
 40
26.5
 50
112.3120458863201065
 51
146.2479456966146927
  0
LINE
  5
414
  8
SWITCH_PLATE
  6
CONTINUOUS
 10
109.25
 20
47.6847726210703087
 30
0.0
 11
109.25
 21
48.1499999999999915
 31
0.0
  0
ARC
  5
415
  8
SWITCH_PLATE
  6
CONTINUOUS
 10
118.25
 20
48.1499999999999702
 30
0.0
 40
9.0000000000000213
 50
90.0000000000001847
 51
179.999999999999801
  0
LINE
  5
416
  8
SWITCH_PLATE
  6
CONTINUOUS
 10
118.25
 20
57.1499999999999915
 30
0.0
 11
119.2999999999999972
 21
57.1499999999999915
 31
0.0
  0
ARC
  5
417
  8
SWITCH_PLATE
  6
CONTINUOUS
 10
119.2999999999998977
 20
66.1500000000000057
 30
0.0
 40
9.0000000000000142
 50
270.0000000000002274
 51
360.0
  0
LINE
  5
418
  8
SWITCH_PLATE
  6
CONTINUOUS
 10
128.3000000000000114
 20
66.1499999999999915
 30
0.0
 11
128.3000000000000114
 21
67.1999999999999744
 31
0.0
  0
ARC
  5
419
  8
SWITCH_PLATE
  6
CONTINUOUS
 10
137.3000000000000114
 20
67.1999999999999744
 30
0.0
 40
9.0000000000000142
 50
90.0000000000001847
 51
179.9999999999998863
  0
LINE
  5
41A
  8
SWITCH_PLATE
  6
CONTINUOUS
 10
137.2999999999998977
 20
76.1999999999999886
 30
0.0
 11
138.3499999999999943
 21
76.1999999999999886
 31
0.0
  0
ARC
  5
41B
  8
SWITCH_PLATE
  6
CONTINUOUS
 10
138.3499999999999943
 20
85.1999999999999886
 30
0.0
 40
9.0
 50
270.0
 51
0.0
  0
LINE
  5
41C
  8
SWITCH_PLATE
  6
CONTINUOUS
 10
147.3499999999999943
 20
85.1999999999999886
 30
0.0
 11
147.3499999999999943
 21
100.25
 31
0.0
  0
ARC
  5
41D
  8
SWITCH_PLATE
  6
CONTINUOUS
 10
138.3499999999999091
 20
100.2499999999999005
 30
0.0
 40
9.0000000000000284
 50
0.0
 51
89.99999999999973
  0
LINE
  5
41E
  8
SWITCH_PLATE
  6
CONTINUOUS
 10
9.0000000000000178
 20
109.25
 30
0.0
 11
138.3499999999999943
 21
109.25
 31
0.0
  0
ARC
  5
41F
  8
SWITCH_PLATE
  6
CONTINUOUS
 10
9.0000000000000249
 20
100.25
 30
0.0
 40
9.0
 50
90.0000000000000568
 51
180.0
  0
LINE
  5
420
  8
SWITCH_PLATE
  6
CONTINUOUS
 10
0.0000000000000249
 20
100.25
 30
0.0
 11
0.0000000000000018
 21
9.0000000000000036
 31
0.0
  0
ARC
  5
421
  8
SWITCH_PLATE
  6
CONTINUOUS
 10
8.9999999999999964
 20
8.9999999999999964
 30
0.0
 40
8.9999999999999964
 50
180.0
 51
270.0000000000001137
  0
LINE
  5
422
  8
SWITCH_PLATE
  6
CONTINUOUS
 10
8.9999999999999964
 20
0.0000000000000036
 30
0.0
 11
62.1499999999999915
 21
0.0000000000000036
 31
0.0
  0
ARC
  5
423
  8
SWITCH_PLATE
  6
CONTINUOUS
 10
62.1499999999999773
 20
9.0000000000000071
 30
0.0
 40
9.0000000000000036
 50
270.0000000000001137
 51
0.0
  0
LINE
  5
424
  8
SWITCH_PLATE
  6
CONTINUOUS
 10
71.1499999999999773
 20
9.0000000000000036
 30
0.0
 11
71.1500000000000057
 21
10.0500000000000007
 31
0.0
  0
ARC
  5
425
  8
SWITCH_PLATE
  6
CONTINUOUS
 10
80.1500000000000057
 20
10.0499999999999901
 30
0.0
 40
9.0000000000000036
 50
90.0
 51
180.0
  0
LINE
  5
426
  8
SWITCH_PLATE
  6
CONTINUOUS
 10
80.1500000000000057
 20
19.0500000000000007
 30
0.0
 11
81.2000000000000028
 21
19.0500000000000007
 31
0.0
  0
ARC
  5
427
  8
SWITCH_PLATE
  6
CONTINUOUS
 10
81.1999999999999886
 20
28.0500000000000114
 30
0.0
 40
9.0000000000000071
 50
270.0000000000001137
 51
360.0
  0
LINE
  5
428
  8
SWITCH_PLATE
  6
CONTINUOUS
 10
90.1999999999999886
 20
28.0500000000000007
 30
0.0
 11
90.2000000000000171
 21
29.1000000000000014
 31
0.0
  0
ARC
  5
429
  8
SWITCH_PLATE
  6
CONTINUOUS
 10
99.2000000000000171
 20
29.0999999999999908
 30
0.0
 40
9.0000000000000071
 50
102.3351918767435933
 51
179.9999999999998863
  0
ENDBLK
  5
42B
  8
0
  0
BLOCK
  8
0
  2
*U3
 70
     1
 10
0.0
 20
0.0
 30
0.0
  3
*U3
  1

  0
ARC
  5
42D
  8
SWITCH_PLATE
  6
CONTINUOUS
 10
119.3107426909218987
 20
23.1688297163590597
 30
0.0
 40
26.5
 50
112.3120458863201065
 51
146.2479456966146927
  0
LINE
  5
42E
  8
SWITCH_PLATE
  6
CONTINUOUS
 10
109.25
 20
47.6847726210703087
 30
0.0
 11
109.25
 21
48.1499999999999915
 31
0.0
  0
ARC
  5
42F
  8
SWITCH_PLATE
  6
CONTINUOUS
 10
118.25
 20
48.1499999999999702
 30
0.0
 40
9.0000000000000213
 50
90.0000000000001847
 51
179.999999999999801
  0
LINE
  5
430
  8
SWITCH_PLATE
  6
CONTINUOUS
 10
118.25
 20
57.1499999999999915
 30
0.0
 11
119.2999999999999972
 21
57.1499999999999915
 31
0.0
  0
ARC
  5
431
  8
SWITCH_PLATE
  6
CONTINUOUS
 10
119.2999999999998977
 20
66.1500000000000057
 30
0.0
 40
9.0000000000000142
 50
270.0000000000002274
 51
360.0
  0
LINE
  5
432
  8
SWITCH_PLATE
  6
CONTINUOUS
 10
128.3000000000000114
 20
66.1499999999999915
 30
0.0
 11
128.3000000000000114
 21
67.1999999999999744
 31
0.0
  0
ARC
  5
433
  8
SWITCH_PLATE
  6
CONTINUOUS
 10
137.3000000000000114
 20
67.1999999999999744
 30
0.0
 40
9.0000000000000142
 50
90.0000000000001847
 51
179.9999999999998863
  0
LINE
  5
434
  8
SWITCH_PLATE
  6
CONTINUOUS
 10
137.2999999999998977
 20
76.1999999999999886
 30
0.0
 11
138.3499999999999943
 21
76.1999999999999886
 31
0.0
  0
ARC
  5
435
  8
SWITCH_PLATE
  6
CONTINUOUS
 10
138.3499999999999943
 20
85.1999999999999886
 30
0.0
 40
9.0
 50
270.0
 51
0.0
  0
LINE
  5
436
  8
SWITCH_PLATE
  6
CONTINUOUS
 10
147.3499999999999943
 20
85.1999999999999886
 30
0.0
 11
147.3499999999999943
 21
100.25
 31
0.0
  0
ARC
  5
437
  8
SWITCH_PLATE
  6
CONTINUOUS
 10
138.3499999999999091
 20
100.2499999999999005
 30
0.0
 40
9.0000000000000284
 50
0.0
 51
89.99999999999973
  0
LINE
  5
438
  8
SWITCH_PLATE
  6
CONTINUOUS
 10
9.0000000000000178
 20
109.25
 30
0.0
 11
138.3499999999999943
 21
109.25
 31
0.0
  0
ARC
  5
439
  8
SWITCH_PLATE
  6
CONTINUOUS
 10
9.0000000000000249
 20
100.25
 30
0.0
 40
9.0
 50
90.0000000000000568
 51
180.0
  0
LINE
  5
43A
  8
SWITCH_PLATE
  6
CONTINUOUS
 10
0.0000000000000249
 20
100.25
 30
0.0
 11
0.0000000000000018
 21
9.0000000000000036
 31
0.0
  0
ARC
  5
43B
  8
SWITCH_PLATE
  6
CONTINUOUS
 10
8.9999999999999964
 20
8.9999999999999964
 30
0.0
 40
8.9999999999999964
 50
180.0
 51
270.0000000000001137
  0
LINE
  5
43C
  8
SWITCH_PLATE
  6
CONTINUOUS
 10
8.9999999999999964
 20
0.0000000000000036
 30
0.0
 11
62.1499999999999915
 21
0.0000000000000036
 31
0.0
  0
ARC
  5
43D
  8
SWITCH_PLATE
  6
CONTINUOUS
 10
62.1499999999999773
 20
9.0000000000000071
 30
0.0
 40
9.0000000000000036
 50
270.0000000000001137
 51
0.0
  0
LINE
  5
43E
  8
SWITCH_PLATE
  6
CONTINUOUS
 10
71.1499999999999773
 20
9.0000000000000036
 30
0.0
 11
71.1500000000000057
 21
10.0500000000000007
 31
0.0
  0
ARC
  5
43F
  8
SWITCH_PLATE
  6
CONTINUOUS
 10
80.1500000000000057
 20
10.0499999999999901
 30
0.0
 40
9.0000000000000036
 50
90.0
 51
180.0
  0
LINE
  5
440
  8
SWITCH_PLATE
  6
CONTINUOUS
 10
80.1500000000000057
 20
19.0500000000000007
 30
0.0
 11
81.2000000000000028
 21
19.0500000000000007
 31
0.0
  0
ARC
  5
441
  8
SWITCH_PLATE
  6
CONTINUOUS
 10
81.1999999999999886
 20
28.0500000000000114
 30
0.0
 40
9.0000000000000071
 50
270.0000000000001137
 51
360.0
  0
LINE
  5
442
  8
SWITCH_PLATE
  6
CONTINUOUS
 10
90.1999999999999886
 20
28.0500000000000007
 30
0.0
 11
90.2000000000000171
 21
29.1000000000000014
 31
0.0
  0
ARC
  5
443
  8
SWITCH_PLATE
  6
CONTINUOUS
 10
99.2000000000000171
 20
29.0999999999999908
 30
0.0
 40
9.0000000000000071
 50
102.3351918767435933
 51
179.9999999999998863
  0
ENDBLK
  5
445
  8
0
  0
ENDSEC
  0
SECTION
  2
ENTITIES
  0
LINE
  5
2F6
  8
SWITCH_PLATE
 10
10.0250499999999096
 20
99.7248499999999751
 30
0.0
 11
23.0250499999999114
 21
99.7248499999999751
 31
0.0
  0
LINE
  5
2F7
  8
SWITCH_PLATE
 10
10.0250499999999096
 20
85.7248499999999751
 30
0.0
 11
23.0250499999999114
 21
85.7248499999999751
 31
0.0
  0
LINE
  5
2F8
  8
SWITCH_PLATE
 10
9.5250499999999114
 20
99.2248499999999893
 30
0.0
 11
9.5250499999999114
 21
86.2248499999999893
 31
0.0
  0
LINE
  5
2F9
  8
SWITCH_PLATE
 10
23.5250499999999114
 20
99.2248499999999893
 30
0.0
 11
23.5250499999999114
 21
86.2248499999999893
 31
0.0
  0
ARC
  5
2FA
  8
SWITCH_PLATE
 10
10.0250499999999096
 20
99.2248499999999893
 30
0.0
 40
0.5
 50
90.0
 51
180.0
  0
ARC
  5
2FB
  8
SWITCH_PLATE
 10
23.0250499999999114
 20
99.2248499999999893
 30
0.0
 40
0.5
 50
0.0
 51
90.0
  0
ARC
  5
2FC
  8
SWITCH_PLATE
 10
10.0250499999999096
 20
86.2248499999999893
 30
0.0
 40
0.5
 50
180.0
 51
270.0
  0
ARC
  5
2FD
  8
SWITCH_PLATE
 10
23.0250499999999114
 20
86.2248499999999893
 30
0.0
 40
0.5
 50
270.0
 51
0.0
  0
LINE
  5
2FE
  8
SWITCH_PLATE
 10
29.0750499999999192
 20
99.7248499999999751
 30
0.0
 11
42.0750499999999192
 21
99.7248499999999751
 31
0.0
  0
LINE
  5
2FF
  8
SWITCH_PLATE
 10
29.0750499999999192
 20
85.7248499999999751
 30
0.0
 11
42.0750499999999192
 21
85.7248499999999751
 31
0.0
  0
LINE
  5
300
  8
SWITCH_PLATE
 10
28.5750499999999192
 20
99.2248499999999893
 30
0.0
 11
28.5750499999999192
 21
86.2248499999999893
 31
0.0
  0
LINE
  5
301
  8
SWITCH_PLATE
 10
42.5750499999999192
 20
99.2248499999999893
 30
0.0
 11
42.5750499999999192
 21
86.2248499999999893
 31
0.0
  0
ARC
  5
302
  8
SWITCH_PLATE
 10
29.0750499999999192
 20
99.2248499999999893
 30
0.0
 40
0.5
 50
90.0
 51
180.0
  0
ARC
  5
303
  8
SWITCH_PLATE
 10
42.0750499999999192
 20
99.2248499999999893
 30
0.0
 40
0.5
 50
0.0
 51
90.0
  0
ARC
  5
304
  8
SWITCH_PLATE
 10
29.0750499999999192
 20
86.2248499999999893
 30
0.0
 40
0.5
 50
180.0
 51
270.0
  0
ARC
  5
305
  8
SWITCH_PLATE
 10
42.0750499999999192
 20
86.2248499999999893
 30
0.0
 40
0.5
 50
270.0
 51
0.0
  0
LINE
  5
306
  8
SWITCH_PLATE
 10
48.1250499999999306
 20
99.7248499999999751
 30
0.0
 11
61.1250499999999306
 21
99.7248499999999751
 31
0.0
  0
LINE
  5
307
  8
SWITCH_PLATE
 10
48.1250499999999306
 20
85.7248499999999751
 30
0.0
 11
61.1250499999999306
 21
85.7248499999999751
 31
0.0
  0
LINE
  5
308
  8
SWITCH_PLATE
 10
47.6250499999999235
 20
99.2248499999999893
 30
0.0
 11
47.6250499999999235
 21
86.2248499999999893
 31
0.0
  0
LINE
  5
309
  8
SWITCH_PLATE
 10
61.6250499999999306
 20
99.2248499999999893
 30
0.0
 11
61.6250499999999306
 21
86.2248499999999893
 31
0.0
  0
ARC
  5
30A
  8
SWITCH_PLATE
 10
48.1250499999999306
 20
99.2248499999999893
 30
0.0
 40
0.5
 50
90.0
 51
180.0
  0
ARC
  5
30B
  8
SWITCH_PLATE
 10
61.1250499999999306
 20
99.2248499999999893
 30
0.0
 40
0.5
 50
0.0
 51
90.0
  0
ARC
  5
30C
  8
SWITCH_PLATE
 10
48.1250499999999306
 20
86.2248499999999893
 30
0.0
 40
0.5
 50
180.0
 51
270.0
  0
ARC
  5
30D
  8
SWITCH_PLATE
 10
61.1250499999999306
 20
86.2248499999999893
 30
0.0
 40
0.5
 50
270.0
 51
0.0
  0
LINE
  5
30E
  8
SWITCH_PLATE
 10
67.175049999999942
 20
99.7248499999999751
 30
0.0
 11
80.175049999999942
 21
99.7248499999999751
 31
0.0
  0
LINE
  5
30F
  8
SWITCH_PLATE
 10
67.175049999999942
 20
85.7248499999999751
 30
0.0
 11
80.175049999999942
 21
85.7248499999999751
 31
0.0
  0
LINE
  5
310
  8
SWITCH_PLATE
 10
66.675049999999942
 20
99.2248499999999893
 30
0.0
 11
66.675049999999942
 21
86.2248499999999893
 31
0.0
  0
LINE
  5
311
  8
SWITCH_PLATE
 10
80.6750499999999562
 20
99.2248499999999893
 30
0.0
 11
80.6750499999999562
 21
86.2248499999999893
 31
0.0
  0
ARC
  5
312
  8
SWITCH_PLATE
 10
67.175049999999942
 20
99.2248499999999893
 30
0.0
 40
0.5
 50
90.0
 51
180.0
  0
ARC
  5
313
  8
SWITCH_PLATE
 10
80.175049999999942
 20
99.2248499999999893
 30
0.0
 40
0.5
 50
0.0
 51
90.0
  0
ARC
  5
314
  8
SWITCH_PLATE
 10
67.175049999999942
 20
86.2248499999999893
 30
0.0
 40
0.5
 50
180.0
 51
270.0
  0
ARC
  5
315
  8
SWITCH_PLATE
 10
80.175049999999942
 20
86.2248499999999893
 30
0.0
 40
0.5
 50
270.0
 51
0.0
  0
LINE
  5
316
  8
SWITCH_PLATE
 10
86.2250499999999391
 20
99.7248499999999751
 30
0.0
 11
99.2250499999999533
 21
99.7248499999999751
 31
0.0
  0
LINE
  5
317
  8
SWITCH_PLATE
 10
86.2250499999999391
 20
85.7248499999999751
 30
0.0
 11
99.2250499999999533
 21
85.7248499999999751
 31
0.0
  0
LINE
  5
318
  8
SWITCH_PLATE
 10
85.7250499999999533
 20
99.2248499999999893
 30
0.0
 11
85.7250499999999533
 21
86.2248499999999893
 31
0.0
  0
LINE
  5
319
  8
SWITCH_PLATE
 10
99.7250499999999533
 20
99.2248499999999893
 30
0.0
 11
99.7250499999999533
 21
86.2248499999999893
 31
0.0
  0
ARC
  5
31A
  8
SWITCH_PLATE
 10
86.2250499999999391
 20
99.2248499999999893
 30
0.0
 40
0.5
 50
90.0
 51
180.0
  0
ARC
  5
31B
  8
SWITCH_PLATE
 10
99.2250499999999533
 20
99.2248499999999893
 30
0.0
 40
0.5
 50
0.0
 51
90.0
  0
ARC
  5
31C
  8
SWITCH_PLATE
 10
86.2250499999999391
 20
86.2248499999999893
 30
0.0
 40
0.5
 50
180.0
 51
270.0
  0
ARC
  5
31D
  8
SWITCH_PLATE
 10
99.2250499999999533
 20
86.2248499999999893
 30
0.0
 40
0.5
 50
270.0
 51
0.0
  0
LINE
  5
31E
  8
SWITCH_PLATE
 10
105.2750499999998937
 20
99.7248499999999751
 30
0.0
 11
118.2750499999998937
 21
99.7248499999999751
 31
0.0
  0
LINE
  5
31F
  8
SWITCH_PLATE
 10
105.2750499999998937
 20
85.7248499999999751
 30
0.0
 11
118.2750499999998937
 21
85.7248499999999751
 31
0.0
  0
LINE
  5
320
  8
SWITCH_PLATE
 10
104.7750499999998937
 20
99.2248499999999893
 30
0.0
 11
104.7750499999998937
 21
86.2248499999999893
 31
0.0
  0
LINE
  5
321
  8
SWITCH_PLATE
 10
118.7750499999998937
 20
99.2248499999999893
 30
0.0
 11
118.7750499999998937
 21
86.2248499999999893
 31
0.0
  0
ARC
  5
322
  8
SWITCH_PLATE
 10
105.2750499999998937
 20
99.2248499999999893
 30
0.0
 40
0.5
 50
90.0
 51
180.0
  0
ARC
  5
323
  8
SWITCH_PLATE
 10
118.2750499999998937
 20
99.2248499999999893
 30
0.0
 40
0.5
 50
0.0
 51
90.0
  0
ARC
  5
324
  8
SWITCH_PLATE
 10
105.2750499999998937
 20
86.2248499999999893
 30
0.0
 40
0.5
 50
180.0
 51
270.0
  0
ARC
  5
325
  8
SWITCH_PLATE
 10
118.2750499999998937
 20
86.2248499999999893
 30
0.0
 40
0.5
 50
270.0
 51
0.0
  0
LINE
  5
326
  8
SWITCH_PLATE
 10
124.325049999999905
 20
99.7248499999999751
 30
0.0
 11
137.3250499999998908
 21
99.7248499999999751
 31
0.0
  0
LINE
  5
327
  8
SWITCH_PLATE
 10
124.325049999999905
 20
85.7248499999999751
 30
0.0
 11
137.3250499999998908
 21
85.7248499999999751
 31
0.0
  0
LINE
  5
328
  8
SWITCH_PLATE
 10
123.825049999999905
 20
99.2248499999999893
 30
0.0
 11
123.825049999999905
 21
86.2248499999999893
 31
0.0
  0
LINE
  5
329
  8
SWITCH_PLATE
 10
137.8250499999998908
 20
99.2248499999999893
 30
0.0
 11
137.8250499999998908
 21
86.2248499999999893
 31
0.0
  0
ARC
  5
32A
  8
SWITCH_PLATE
 10
124.325049999999905
 20
99.2248499999999893
 30
0.0
 40
0.5
 50
90.0
 51
180.0
  0
ARC
  5
32B
  8
SWITCH_PLATE
 10
137.3250499999998908
 20
99.2248499999999893
 30
0.0
 40
0.5
 50
0.0
 51
90.0
  0
ARC
  5
32C
  8
SWITCH_PLATE
 10
124.325049999999905
 20
86.2248499999999893
 30
0.0
 40
0.5
 50
180.0
 51
270.0
  0
ARC
  5
32D
  8
SWITCH_PLATE
 10
137.3250499999998908
 20
86.2248499999999893
 30
0.0
 40
0.5
 50
270.0
 51
0.0
  0
LINE
  5
32E
  8
SWITCH_PLATE
 10
10.0250499999999096
 20
80.6748499999999922
 30
0.0
 11
23.0250499999999114
 21
80.6748499999999922
 31
0.0
  0
LINE
  5
32F
  8
SWITCH_PLATE
 10
10.0250499999999096
 20
66.6748499999999922
 30
0.0
 11
23.0250499999999114
 21
66.6748499999999922
 31
0.0
  0
LINE
  5
330
  8
SWITCH_PLATE
 10
9.5250499999999114
 20
80.174849999999978
 30
0.0
 11
9.5250499999999114
 21
67.1748499999999922
 31
0.0
  0
LINE
  5
331
  8
SWITCH_PLATE
 10
23.5250499999999114
 20
80.174849999999978
 30
0.0
 11
23.5250499999999114
 21
67.1748499999999922
 31
0.0
  0
ARC
  5
332
  8
SWITCH_PLATE
 10
10.0250499999999096
 20
80.174849999999978
 30
0.0
 40
0.5
 50
90.0
 51
180.0
  0
ARC
  5
333
  8
SWITCH_PLATE
 10
23.0250499999999114
 20
80.174849999999978
 30
0.0
 40
0.5
 50
0.0
 51
90.0
  0
ARC
  5
334
  8
SWITCH_PLATE
 10
10.0250499999999096
 20
67.1748499999999922
 30
0.0
 40
0.5
 50
180.0
 51
270.0
  0
ARC
  5
335
  8
SWITCH_PLATE
 10
23.0250499999999114
 20
67.1748499999999922
 30
0.0
 40
0.5
 50
270.0
 51
0.0
  0
LINE
  5
336
  8
SWITCH_PLATE
 10
29.0750499999999192
 20
80.6748499999999922
 30
0.0
 11
42.0750499999999192
 21
80.6748499999999922
 31
0.0
  0
LINE
  5
337
  8
SWITCH_PLATE
 10
29.0750499999999192
 20
66.6748499999999922
 30
0.0
 11
42.0750499999999192
 21
66.6748499999999922
 31
0.0
  0
LINE
  5
338
  8
SWITCH_PLATE
 10
28.5750499999999192
 20
80.174849999999978
 30
0.0
 11
28.5750499999999192
 21
67.1748499999999922
 31
0.0
  0
LINE
  5
339
  8
SWITCH_PLATE
 10
42.5750499999999192
 20
80.174849999999978
 30
0.0
 11
42.5750499999999192
 21
67.1748499999999922
 31
0.0
  0
ARC
  5
33A
  8
SWITCH_PLATE
 10
29.0750499999999192
 20
80.174849999999978
 30
0.0
 40
0.5
 50
90.0
 51
180.0
  0
ARC
  5
33B
  8
SWITCH_PLATE
 10
42.0750499999999192
 20
80.174849999999978
 30
0.0
 40
0.5
 50
0.0
 51
90.0
  0
ARC
  5
33C
  8
SWITCH_PLATE
 10
29.0750499999999192
 20
67.1748499999999922
 30
0.0
 40
0.5
 50
180.0
 51
270.0
  0
ARC
  5
33D
  8
SWITCH_PLATE
 10
42.0750499999999192
 20
67.1748499999999922
 30
0.0
 40
0.5
 50
270.0
 51
0.0
  0
LINE
  5
33E
  8
SWITCH_PLATE
 10
48.1250499999999306
 20
80.6748499999999922
 30
0.0
 11
61.1250499999999306
 21
80.6748499999999922
 31
0.0
  0
LINE
  5
33F
  8
SWITCH_PLATE
 10
48.1250499999999306
 20
66.6748499999999922
 30
0.0
 11
61.1250499999999306
 21
66.6748499999999922
 31
0.0
  0
LINE
  5
340
  8
SWITCH_PLATE
 10
47.6250499999999235
 20
80.174849999999978
 30
0.0
 11
47.6250499999999235
 21
67.1748499999999922
 31
0.0
  0
LINE
  5
341
  8
SWITCH_PLATE
 10
61.6250499999999306
 20
80.174849999999978
 30
0.0
 11
61.6250499999999306
 21
67.1748499999999922
 31
0.0
  0
ARC
  5
342
  8
SWITCH_PLATE
 10
48.1250499999999306
 20
80.174849999999978
 30
0.0
 40
0.5
 50
90.0
 51
180.0
  0
ARC
  5
343
  8
SWITCH_PLATE
 10
61.1250499999999306
 20
80.174849999999978
 30
0.0
 40
0.5
 50
0.0
 51
90.0
  0
ARC
  5
344
  8
SWITCH_PLATE
 10
48.1250499999999306
 20
67.1748499999999922
 30
0.0
 40
0.5
 50
180.0
 51
270.0
  0
ARC
  5
345
  8
SWITCH_PLATE
 10
61.1250499999999306
 20
67.1748499999999922
 30
0.0
 40
0.5
 50
270.0
 51
0.0
  0
LINE
  5
346
  8
SWITCH_PLATE
 10
67.175049999999942
 20
80.6748499999999922
 30
0.0
 11
80.175049999999942
 21
80.6748499999999922
 31
0.0
  0
LINE
  5
347
  8
SWITCH_PLATE
 10
67.175049999999942
 20
66.6748499999999922
 30
0.0
 11
80.175049999999942
 21
66.6748499999999922
 31
0.0
  0
LINE
  5
348
  8
SWITCH_PLATE
 10
66.675049999999942
 20
80.174849999999978
 30
0.0
 11
66.675049999999942
 21
67.1748499999999922
 31
0.0
  0
LINE
  5
349
  8
SWITCH_PLATE
 10
80.6750499999999562
 20
80.174849999999978
 30
0.0
 11
80.6750499999999562
 21
67.1748499999999922
 31
0.0
  0
ARC
  5
34A
  8
SWITCH_PLATE
 10
67.175049999999942
 20
80.174849999999978
 30
0.0
 40
0.5
 50
90.0
 51
180.0
  0
ARC
  5
34B
  8
SWITCH_PLATE
 10
80.175049999999942
 20
80.174849999999978
 30
0.0
 40
0.5
 50
0.0
 51
90.0
  0
ARC
  5
34C
  8
SWITCH_PLATE
 10
67.175049999999942
 20
67.1748499999999922
 30
0.0
 40
0.5
 50
180.0
 51
270.0
  0
ARC
  5
34D
  8
SWITCH_PLATE
 10
80.175049999999942
 20
67.1748499999999922
 30
0.0
 40
0.5
 50
270.0
 51
0.0
  0
LINE
  5
34E
  8
SWITCH_PLATE
 10
86.2250499999999391
 20
80.6748499999999922
 30
0.0
 11
99.2250499999999533
 21
80.6748499999999922
 31
0.0
  0
LINE
  5
34F
  8
SWITCH_PLATE
 10
86.2250499999999391
 20
66.6748499999999922
 30
0.0
 11
99.2250499999999533
 21
66.6748499999999922
 31
0.0
  0
LINE
  5
350
  8
SWITCH_PLATE
 10
85.7250499999999533
 20
80.174849999999978
 30
0.0
 11
85.7250499999999533
 21
67.1748499999999922
 31
0.0
  0
LINE
  5
351
  8
SWITCH_PLATE
 10
99.7250499999999533
 20
80.174849999999978
 30
0.0
 11
99.7250499999999533
 21
67.1748499999999922
 31
0.0
  0
ARC
  5
352
  8
SWITCH_PLATE
 10
86.2250499999999391
 20
80.174849999999978
 30
0.0
 40
0.5
 50
90.0
 51
180.0
  0
ARC
  5
353
  8
SWITCH_PLATE
 10
99.2250499999999533
 20
80.174849999999978
 30
0.0
 40
0.5
 50
0.0
 51
90.0
  0
ARC
  5
354
  8
SWITCH_PLATE
 10
86.2250499999999391
 20
67.1748499999999922
 30
0.0
 40
0.5
 50
180.0
 51
270.0
  0
ARC
  5
355
  8
SWITCH_PLATE
 10
99.2250499999999533
 20
67.1748499999999922
 30
0.0
 40
0.5
 50
270.0
 51
0.0
  0
LINE
  5
356
  8
SWITCH_PLATE
 10
105.2750499999998937
 20
80.6748499999999922
 30
0.0
 11
118.2750499999998937
 21
80.6748499999999922
 31
0.0
  0
LINE
  5
357
  8
SWITCH_PLATE
 10
105.2750499999998937
 20
66.6748499999999922
 30
0.0
 11
118.2750499999998937
 21
66.6748499999999922
 31
0.0
  0
LINE
  5
358
  8
SWITCH_PLATE
 10
104.7750499999998937
 20
80.174849999999978
 30
0.0
 11
104.7750499999998937
 21
67.1748499999999922
 31
0.0
  0
LINE
  5
359
  8
SWITCH_PLATE
 10
118.7750499999998937
 20
80.174849999999978
 30
0.0
 11
118.7750499999998937
 21
67.1748499999999922
 31
0.0
  0
ARC
  5
35A
  8
SWITCH_PLATE
 10
105.2750499999998937
 20
80.174849999999978
 30
0.0
 40
0.5
 50
90.0
 51
180.0
  0
ARC
  5
35B
  8
SWITCH_PLATE
 10
118.2750499999998937
 20
80.174849999999978
 30
0.0
 40
0.5
 50
0.0
 51
90.0
  0
ARC
  5
35C
  8
SWITCH_PLATE
 10
105.2750499999998937
 20
67.1748499999999922
 30
0.0
 40
0.5
 50
180.0
 51
270.0
  0
ARC
  5
35D
  8
SWITCH_PLATE
 10
118.2750499999998937
 20
67.1748499999999922
 30
0.0
 40
0.5
 50
270.0
 51
0.0
  0
LINE
  5
35E
  8
SWITCH_PLATE
 10
10.0250499999999096
 20
61.6248500000000021
 30
0.0
 11
23.0250499999999114
 21
61.6248500000000021
 31
0.0
  0
LINE
  5
35F
  8
SWITCH_PLATE
 10
10.0250499999999096
 20
47.6248499999999879
 30
0.0
 11
23.0250499999999114
 21
47.6248499999999879
 31
0.0
  0
LINE
  5
360
  8
SWITCH_PLATE
 10
9.5250499999999114
 20
61.1248499999999879
 30
0.0
 11
9.5250499999999114
 21
48.1248499999999879
 31
0.0
  0
LINE
  5
361
  8
SWITCH_PLATE
 10
23.5250499999999114
 20
61.1248499999999879
 30
0.0
 11
23.5250499999999114
 21
48.1248499999999879
 31
0.0
  0
ARC
  5
362
  8
SWITCH_PLATE
 10
10.0250499999999096
 20
61.1248499999999879
 30
0.0
 40
0.5
 50
90.0
 51
180.0
  0
ARC
  5
363
  8
SWITCH_PLATE
 10
23.0250499999999114
 20
61.1248499999999879
 30
0.0
 40
0.5
 50
0.0
 51
90.0
  0
ARC
  5
364
  8
SWITCH_PLATE
 10
10.0250499999999096
 20
48.1248499999999879
 30
0.0
 40
0.5
 50
180.0
 51
270.0
  0
ARC
  5
365
  8
SWITCH_PLATE
 10
23.0250499999999114
 20
48.1248499999999879
 30
0.0
 40
0.5
 50
270.0
 51
0.0
  0
LINE
  5
366
  8
SWITCH_PLATE
 10
29.0750499999999192
 20
61.6248500000000021
 30
0.0
 11
42.0750499999999192
 21
61.6248500000000021
 31
0.0
  0
LINE
  5
367
  8
SWITCH_PLATE
 10
29.0750499999999192
 20
47.6248499999999879
 30
0.0
 11
42.0750499999999192
 21
47.6248499999999879
 31
0.0
  0
LINE
  5
368
  8
SWITCH_PLATE
 10
28.5750499999999192
 20
61.1248499999999879
 30
0.0
 11
28.5750499999999192
 21
48.1248499999999879
 31
0.0
  0
LINE
  5
369
  8
SWITCH_PLATE
 10
42.5750499999999192
 20
61.1248499999999879
 30
0.0
 11
42.5750499999999192
 21
48.1248499999999879
 31
0.0
  0
ARC
  5
36A
  8
SWITCH_PLATE
 10
29.0750499999999192
 20
61.1248499999999879
 30
0.0
 40
0.5
 50
90.0
 51
180.0
  0
ARC
  5
36B
  8
SWITCH_PLATE
 10
42.0750499999999192
 20
61.1248499999999879
 30
0.0
 40
0.5
 50
0.0
 51
90.0
  0
ARC
  5
36C
  8
SWITCH_PLATE
 10
29.0750499999999192
 20
48.1248499999999879
 30
0.0
 40
0.5
 50
180.0
 51
270.0
  0
ARC
  5
36D
  8
SWITCH_PLATE
 10
42.0750499999999192
 20
48.1248499999999879
 30
0.0
 40
0.5
 50
270.0
 51
0.0
  0
LINE
  5
36E
  8
SWITCH_PLATE
 10
48.1250499999999306
 20
61.6248500000000021
 30
0.0
 11
61.1250499999999306
 21
61.6248500000000021
 31
0.0
  0
LINE
  5
36F
  8
SWITCH_PLATE
 10
48.1250499999999306
 20
47.6248499999999879
 30
0.0
 11
61.1250499999999306
 21
47.6248499999999879
 31
0.0
  0
LINE
  5
370
  8
SWITCH_PLATE
 10
47.6250499999999235
 20
61.1248499999999879
 30
0.0
 11
47.6250499999999235
 21
48.1248499999999879
 31
0.0
  0
LINE
  5
371
  8
SWITCH_PLATE
 10
61.6250499999999306
 20
61.1248499999999879
 30
0.0
 11
61.6250499999999306
 21
48.1248499999999879
 31
0.0
  0
ARC
  5
372
  8
SWITCH_PLATE
 10
48.1250499999999306
 20
61.1248499999999879
 30
0.0
 40
0.5
 50
90.0
 51
180.0
  0
ARC
  5
373
  8
SWITCH_PLATE
 10
61.1250499999999306
 20
61.1248499999999879
 30
0.0
 40
0.5
 50
0.0
 51
90.0
  0
ARC
  5
374
  8
SWITCH_PLATE
 10
48.1250499999999306
 20
48.1248499999999879
 30
0.0
 40
0.5
 50
180.0
 51
270.0
  0
ARC
  5
375
  8
SWITCH_PLATE
 10
61.1250499999999306
 20
48.1248499999999879
 30
0.0
 40
0.5
 50
270.0
 51
0.0
  0
LINE
  5
376
  8
SWITCH_PLATE
 10
67.175049999999942
 20
61.6248500000000021
 30
0.0
 11
80.175049999999942
 21
61.6248500000000021
 31
0.0
  0
LINE
  5
377
  8
SWITCH_PLATE
 10
67.175049999999942
 20
47.6248499999999879
 30
0.0
 11
80.175049999999942
 21
47.6248499999999879
 31
0.0
  0
LINE
  5
378
  8
SWITCH_PLATE
 10
66.675049999999942
 20
61.1248499999999879
 30
0.0
 11
66.675049999999942
 21
48.1248499999999879
 31
0.0
  0
LINE
  5
379
  8
SWITCH_PLATE
 10
80.6750499999999562
 20
61.1248499999999879
 30
0.0
 11
80.6750499999999562
 21
48.1248499999999879
 31
0.0
  0
ARC
  5
37A
  8
SWITCH_PLATE
 10
67.175049999999942
 20
61.1248499999999879
 30
0.0
 40
0.5
 50
90.0
 51
180.0
  0
ARC
  5
37B
  8
SWITCH_PLATE
 10
80.175049999999942
 20
61.1248499999999879
 30
0.0
 40
0.5
 50
0.0
 51
90.0
  0
ARC
  5
37C
  8
SWITCH_PLATE
 10
67.175049999999942
 20
48.1248499999999879
 30
0.0
 40
0.5
 50
180.0
 51
270.0
  0
ARC
  5
37D
  8
SWITCH_PLATE
 10
80.175049999999942
 20
48.1248499999999879
 30
0.0
 40
0.5
 50
270.0
 51
0.0
  0
LINE
  5
37E
  8
SWITCH_PLATE
 10
86.2250499999999391
 20
61.6248500000000021
 30
0.0
 11
99.2250499999999533
 21
61.6248500000000021
 31
0.0
  0
LINE
  5
37F
  8
SWITCH_PLATE
 10
86.2250499999999391
 20
47.6248499999999879
 30
0.0
 11
99.2250499999999533
 21
47.6248499999999879
 31
0.0
  0
LINE
  5
380
  8
SWITCH_PLATE
 10
85.7250499999999533
 20
61.1248499999999879
 30
0.0
 11
85.7250499999999533
 21
48.1248499999999879
 31
0.0
  0
LINE
  5
381
  8
SWITCH_PLATE
 10
99.7250499999999533
 20
61.1248499999999879
 30
0.0
 11
99.7250499999999533
 21
48.1248499999999879
 31
0.0
  0
ARC
  5
382
  8
SWITCH_PLATE
 10
86.2250499999999391
 20
61.1248499999999879
 30
0.0
 40
0.5
 50
90.0
 51
180.0
  0
ARC
  5
383
  8
SWITCH_PLATE
 10
99.2250499999999533
 20
61.1248499999999879
 30
0.0
 40
0.5
 50
0.0
 51
90.0
  0
ARC
  5
384
  8
SWITCH_PLATE
 10
86.2250499999999391
 20
48.1248499999999879
 30
0.0
 40
0.5
 50
180.0
 51
270.0
  0
ARC
  5
385
  8
SWITCH_PLATE
 10
99.2250499999999533
 20
48.1248499999999879
 30
0.0
 40
0.5
 50
270.0
 51
0.0
  0
LINE
  5
386
  8
SWITCH_PLATE
 10
10.0250499999999096
 20
42.5748499999999908
 30
0.0
 11
23.0250499999999114
 21
42.5748499999999908
 31
0.0
  0
LINE
  5
387
  8
SWITCH_PLATE
 10
10.0250499999999096
 20
28.5748500000000014
 30
0.0
 11
23.0250499999999114
 21
28.5748500000000014
 31
0.0
  0
LINE
  5
388
  8
SWITCH_PLATE
 10
9.5250499999999114
 20
42.0748499999999979
 30
0.0
 11
9.5250499999999114
 21
29.0748500000000014
 31
0.0
  0
LINE
  5
389
  8
SWITCH_PLATE
 10
23.5250499999999114
 20
42.0748499999999979
 30
0.0
 11
23.5250499999999114
 21
29.0748500000000014
 31
0.0
  0
ARC
  5
38A
  8
SWITCH_PLATE
 10
10.0250499999999096
 20
42.0748499999999979
 30
0.0
 40
0.5
 50
90.0
 51
180.0
  0
ARC
  5
38B
  8
SWITCH_PLATE
 10
23.0250499999999114
 20
42.0748499999999979
 30
0.0
 40
0.5
 50
0.0
 51
90.0
  0
ARC
  5
38C
  8
SWITCH_PLATE
 10
10.0250499999999096
 20
29.0748500000000014
 30
0.0
 40
0.5
 50
180.0
 51
270.0
  0
ARC
  5
38D
  8
SWITCH_PLATE
 10
23.0250499999999114
 20
29.0748500000000014
 30
0.0
 40
0.5
 50
270.0
 51
0.0
  0
LINE
  5
38E
  8
SWITCH_PLATE
 10
29.0750499999999192
 20
42.5748499999999908
 30
0.0
 11
42.0750499999999192
 21
42.5748499999999908
 31
0.0
  0
LINE
  5
38F
  8
SWITCH_PLATE
 10
29.0750499999999192
 20
28.5748500000000014
 30
0.0
 11
42.0750499999999192
 21
28.5748500000000014
 31
0.0
  0
LINE
  5
390
  8
SWITCH_PLATE
 10
28.5750499999999192
 20
42.0748499999999979
 30
0.0
 11
28.5750499999999192
 21
29.0748500000000014
 31
0.0
  0
LINE
  5
391
  8
SWITCH_PLATE
 10
42.5750499999999192
 20
42.0748499999999979
 30
0.0
 11
42.5750499999999192
 21
29.0748500000000014
 31
0.0
  0
ARC
  5
392
  8
SWITCH_PLATE
 10
29.0750499999999192
 20
42.0748499999999979
 30
0.0
 40
0.5
 50
90.0
 51
180.0
  0
ARC
  5
393
  8
SWITCH_PLATE
 10
42.0750499999999192
 20
42.0748499999999979
 30
0.0
 40
0.5
 50
0.0
 51
90.0
  0
ARC
  5
394
  8
SWITCH_PLATE
 10
29.0750499999999192
 20
29.0748500000000014
 30
0.0
 40
0.5
 50
180.0
 51
270.0
  0
ARC
  5
395
  8
SWITCH_PLATE
 10
42.0750499999999192
 20
29.0748500000000014
 30
0.0
 40
0.5
 50
270.0
 51
0.0
  0
LINE
  5
396
  8
SWITCH_PLATE
 10
48.1250499999999306
 20
42.5748499999999908
 30
0.0
 11
61.1250499999999306
 21
42.5748499999999908
 31
0.0
  0
LINE
  5
397
  8
SWITCH_PLATE
 10
48.1250499999999306
 20
28.5748500000000014
 30
0.0
 11
61.1250499999999306
 21
28.5748500000000014
 31
0.0
  0
LINE
  5
398
  8
SWITCH_PLATE
 10
47.6250499999999235
 20
42.0748499999999979
 30
0.0
 11
47.6250499999999235
 21
29.0748500000000014
 31
0.0
  0
LINE
  5
399
  8
SWITCH_PLATE
 10
61.6250499999999306
 20
42.0748499999999979
 30
0.0
 11
61.6250499999999306
 21
29.0748500000000014
 31
0.0
  0
ARC
  5
39A
  8
SWITCH_PLATE
 10
48.1250499999999306
 20
42.0748499999999979
 30
0.0
 40
0.5
 50
90.0
 51
180.0
  0
ARC
  5
39B
  8
SWITCH_PLATE
 10
61.1250499999999306
 20
42.0748499999999979
 30
0.0
 40
0.5
 50
0.0
 51
90.0
  0
ARC
  5
39C
  8
SWITCH_PLATE
 10
48.1250499999999306
 20
29.0748500000000014
 30
0.0
 40
0.5
 50
180.0
 51
270.0
  0
ARC
  5
39D
  8
SWITCH_PLATE
 10
61.1250499999999306
 20
29.0748500000000014
 30
0.0
 40
0.5
 50
270.0
 51
0.0
  0
LINE
  5
39E
  8
SWITCH_PLATE
 10
67.175049999999942
 20
42.5748499999999908
 30
0.0
 11
80.175049999999942
 21
42.5748499999999908
 31
0.0
  0
LINE
  5
39F
  8
SWITCH_PLATE
 10
67.175049999999942
 20
28.5748500000000014
 30
0.0
 11
80.175049999999942
 21
28.5748500000000014
 31
0.0
  0
LINE
  5
3A0
  8
SWITCH_PLATE
 10
66.675049999999942
 20
42.0748499999999979
 30
0.0
 11
66.675049999999942
 21
29.0748500000000014
 31
0.0
  0
LINE
  5
3A1
  8
SWITCH_PLATE
 10
80.6750499999999562
 20
42.0748499999999979
 30
0.0
 11
80.6750499999999562
 21
29.0748500000000014
 31
0.0
  0
ARC
  5
3A2
  8
SWITCH_PLATE
 10
67.175049999999942
 20
42.0748499999999979
 30
0.0
 40
0.5
 50
90.0
 51
180.0
  0
ARC
  5
3A3
  8
SWITCH_PLATE
 10
80.175049999999942
 20
42.0748499999999979
 30
0.0
 40
0.5
 50
0.0
 51
90.0
  0
ARC
  5
3A4
  8
SWITCH_PLATE
 10
67.175049999999942
 20
29.0748500000000014
 30
0.0
 40
0.5
 50
180.0
 51
270.0
  0
ARC
  5
3A5
  8
SWITCH_PLATE
 10
80.175049999999942
 20
29.0748500000000014
 30
0.0
 40
0.5
 50
270.0
 51
0.0
  0
LINE
  5
3A6
  8
SWITCH_PLATE
 10
10.0250499999999096
 20
23.5248500000000114
 30
0.0
 11
23.0250499999999114
 21
23.5248500000000114
 31
0.0
  0
LINE
  5
3A7
  8
SWITCH_PLATE
 10
10.0250499999999096
 20
9.5248500000000043
 30
0.0
 11
23.0250499999999114
 21
9.5248500000000043
 31
0.0
  0
LINE
  5
3A8
  8
SWITCH_PLATE
 10
9.5250499999999114
 20
23.0248500000000007
 30
0.0
 11
9.5250499999999114
 21
10.0248500000000007
 31
0.0
  0
LINE
  5
3A9
  8
SWITCH_PLATE
 10
23.5250499999999114
 20
23.0248500000000007
 30
0.0
 11
23.5250499999999114
 21
10.0248500000000007
 31
0.0
  0
ARC
  5
3AA
  8
SWITCH_PLATE
 10
10.0250499999999096
 20
23.0248500000000007
 30
0.0
 40
0.5
 50
90.0
 51
180.0
  0
ARC
  5
3AB
  8
SWITCH_PLATE
 10
23.0250499999999114
 20
23.0248500000000007
 30
0.0
 40
0.5
 50
0.0
 51
90.0
  0
ARC
  5
3AC
  8
SWITCH_PLATE
 10
10.0250499999999096
 20
10.0248500000000007
 30
0.0
 40
0.5
 50
180.0
 51
270.0
  0
ARC
  5
3AD
  8
SWITCH_PLATE
 10
23.0250499999999114
 20
10.0248500000000007
 30
0.0
 40
0.5
 50
270.0
 51
0.0
  0
LINE
  5
3AE
  8
SWITCH_PLATE
 10
29.0750499999999192
 20
23.5248500000000114
 30
0.0
 11
42.0750499999999192
 21
23.5248500000000114
 31
0.0
  0
LINE
  5
3AF
  8
SWITCH_PLATE
 10
29.0750499999999192
 20
9.5248500000000043
 30
0.0
 11
42.0750499999999192
 21
9.5248500000000043
 31
0.0
  0
LINE
  5
3B0
  8
SWITCH_PLATE
 10
28.5750499999999192
 20
23.0248500000000007
 30
0.0
 11
28.5750499999999192
 21
10.0248500000000007
 31
0.0
  0
LINE
  5
3B1
  8
SWITCH_PLATE
 10
42.5750499999999192
 20
23.0248500000000007
 30
0.0
 11
42.5750499999999192
 21
10.0248500000000007
 31
0.0
  0
ARC
  5
3B2
  8
SWITCH_PLATE
 10
29.0750499999999192
 20
23.0248500000000007
 30
0.0
 40
0.5
 50
90.0
 51
180.0
  0
ARC
  5
3B3
  8
SWITCH_PLATE
 10
42.0750499999999192
 20
23.0248500000000007
 30
0.0
 40
0.5
 50
0.0
 51
90.0
  0
ARC
  5
3B4
  8
SWITCH_PLATE
 10
29.0750499999999192
 20
10.0248500000000007
 30
0.0
 40
0.5
 50
180.0
 51
270.0
  0
ARC
  5
3B5
  8
SWITCH_PLATE
 10
42.0750499999999192
 20
10.0248500000000007
 30
0.0
 40
0.5
 50
270.0
 51
0.0
  0
LINE
  5
3B6
  8
SWITCH_PLATE
 10
48.1250499999999306
 20
23.5248500000000114
 30
0.0
 11
61.1250499999999306
 21
23.5248500000000114
 31
0.0
  0
LINE
  5
3B7
  8
SWITCH_PLATE
 10
48.1250499999999306
 20
9.5248500000000043
 30
0.0
 11
61.1250499999999306
 21
9.5248500000000043
 31
0.0
  0
LINE
  5
3B8
  8
SWITCH_PLATE
 10
47.6250499999999235
 20
23.0248500000000007
 30
0.0
 11
47.6250499999999235
 21
10.0248500000000007
 31
0.0
  0
LINE
  5
3B9
  8
SWITCH_PLATE
 10
61.6250499999999306
 20
23.0248500000000007
 30
0.0
 11
61.6250499999999306
 21
10.0248500000000007
 31
0.0
  0
ARC
  5
3BA
  8
SWITCH_PLATE
 10
48.1250499999999306
 20
23.0248500000000007
 30
0.0
 40
0.5
 50
90.0
 51
180.0
  0
ARC
  5
3BB
  8
SWITCH_PLATE
 10
61.1250499999999306
 20
23.0248500000000007
 30
0.0
 40
0.5
 50
0.0
 51
90.0
  0
ARC
  5
3BC
  8
SWITCH_PLATE
 10
48.1250499999999306
 20
10.0248500000000007
 30
0.0
 40
0.5
 50
180.0
 51
270.0
  0
ARC
  5
3BD
  8
SWITCH_PLATE
 10
61.1250499999999306
 20
10.0248500000000007
 30
0.0
 40
0.5
 50
270.0
 51
0.0
  0
INSERT
  5
3BE
  8
0
  2
*U3
 10
0.0
 20
0.0
 30
0.0
  0
ENDSEC
  0
EOF
