G04 #@! TF.GenerationSoftware,KiCad,Pcbnew,(5.1.5-0-10_14)*
G04 #@! TF.CreationDate,2020-07-14T10:27:18+02:00*
G04 #@! TF.ProjectId,Trigon,54726967-6f6e-42e6-9b69-6361645f7063,rev?*
G04 #@! TF.SameCoordinates,Original*
G04 #@! TF.FileFunction,Soldermask,Bot*
G04 #@! TF.FilePolarity,Negative*
%FSLAX46Y46*%
G04 Gerber Fmt 4.6, Leading zero omitted, Abs format (unit mm)*
G04 Created by KiCad (PCBNEW (5.1.5-0-10_14)) date 2020-07-14 10:27:18*
%MOMM*%
%LPD*%
G04 APERTURE LIST*
%ADD10C,0.100000*%
G04 APERTURE END LIST*
D10*
G36*
X80819750Y-114069750D02*
G01*
X79517750Y-114069750D01*
X79517750Y-113067750D01*
X80819750Y-113067750D01*
X80819750Y-114069750D01*
G37*
G36*
X61769750Y-114069750D02*
G01*
X60467750Y-114069750D01*
X60467750Y-113067750D01*
X61769750Y-113067750D01*
X61769750Y-114069750D01*
G37*
G36*
X42719750Y-114069750D02*
G01*
X41417750Y-114069750D01*
X41417750Y-113067750D01*
X42719750Y-113067750D01*
X42719750Y-114069750D01*
G37*
G36*
X71240224Y-106777434D02*
G01*
X71458224Y-106867733D01*
X71612373Y-106931583D01*
X71947298Y-107155373D01*
X72232127Y-107440202D01*
X72455917Y-107775127D01*
X72488312Y-107853336D01*
X72610066Y-108147276D01*
X72688650Y-108542344D01*
X72688650Y-108945156D01*
X72610066Y-109340224D01*
X72559201Y-109463022D01*
X72455917Y-109712373D01*
X72232127Y-110047298D01*
X71947298Y-110332127D01*
X71612373Y-110555917D01*
X71458224Y-110619767D01*
X71240224Y-110710066D01*
X70845156Y-110788650D01*
X70442344Y-110788650D01*
X70047276Y-110710066D01*
X69829276Y-110619767D01*
X69675127Y-110555917D01*
X69340202Y-110332127D01*
X69055373Y-110047298D01*
X68831583Y-109712373D01*
X68728299Y-109463022D01*
X68677434Y-109340224D01*
X68598850Y-108945156D01*
X68598850Y-108542344D01*
X68677434Y-108147276D01*
X68799188Y-107853336D01*
X68831583Y-107775127D01*
X69055373Y-107440202D01*
X69340202Y-107155373D01*
X69675127Y-106931583D01*
X69829276Y-106867733D01*
X70047276Y-106777434D01*
X70442344Y-106698850D01*
X70845156Y-106698850D01*
X71240224Y-106777434D01*
G37*
G36*
X52190224Y-106777434D02*
G01*
X52408224Y-106867733D01*
X52562373Y-106931583D01*
X52897298Y-107155373D01*
X53182127Y-107440202D01*
X53405917Y-107775127D01*
X53438312Y-107853336D01*
X53560066Y-108147276D01*
X53638650Y-108542344D01*
X53638650Y-108945156D01*
X53560066Y-109340224D01*
X53509201Y-109463022D01*
X53405917Y-109712373D01*
X53182127Y-110047298D01*
X52897298Y-110332127D01*
X52562373Y-110555917D01*
X52408224Y-110619767D01*
X52190224Y-110710066D01*
X51795156Y-110788650D01*
X51392344Y-110788650D01*
X50997276Y-110710066D01*
X50779276Y-110619767D01*
X50625127Y-110555917D01*
X50290202Y-110332127D01*
X50005373Y-110047298D01*
X49781583Y-109712373D01*
X49678299Y-109463022D01*
X49627434Y-109340224D01*
X49548850Y-108945156D01*
X49548850Y-108542344D01*
X49627434Y-108147276D01*
X49749188Y-107853336D01*
X49781583Y-107775127D01*
X50005373Y-107440202D01*
X50290202Y-107155373D01*
X50625127Y-106931583D01*
X50779276Y-106867733D01*
X50997276Y-106777434D01*
X51392344Y-106698850D01*
X51795156Y-106698850D01*
X52190224Y-106777434D01*
G37*
G36*
X33140224Y-106777434D02*
G01*
X33358224Y-106867733D01*
X33512373Y-106931583D01*
X33847298Y-107155373D01*
X34132127Y-107440202D01*
X34355917Y-107775127D01*
X34388312Y-107853336D01*
X34510066Y-108147276D01*
X34588650Y-108542344D01*
X34588650Y-108945156D01*
X34510066Y-109340224D01*
X34459201Y-109463022D01*
X34355917Y-109712373D01*
X34132127Y-110047298D01*
X33847298Y-110332127D01*
X33512373Y-110555917D01*
X33358224Y-110619767D01*
X33140224Y-110710066D01*
X32745156Y-110788650D01*
X32342344Y-110788650D01*
X31947276Y-110710066D01*
X31729276Y-110619767D01*
X31575127Y-110555917D01*
X31240202Y-110332127D01*
X30955373Y-110047298D01*
X30731583Y-109712373D01*
X30628299Y-109463022D01*
X30577434Y-109340224D01*
X30498850Y-108945156D01*
X30498850Y-108542344D01*
X30577434Y-108147276D01*
X30699188Y-107853336D01*
X30731583Y-107775127D01*
X30955373Y-107440202D01*
X31240202Y-107155373D01*
X31575127Y-106931583D01*
X31729276Y-106867733D01*
X31947276Y-106777434D01*
X32342344Y-106698850D01*
X32745156Y-106698850D01*
X33140224Y-106777434D01*
G37*
G36*
X80819750Y-110769750D02*
G01*
X79517750Y-110769750D01*
X79517750Y-109767750D01*
X80819750Y-109767750D01*
X80819750Y-110769750D01*
G37*
G36*
X61769750Y-110769750D02*
G01*
X60467750Y-110769750D01*
X60467750Y-109767750D01*
X61769750Y-109767750D01*
X61769750Y-110769750D01*
G37*
G36*
X42719750Y-110769750D02*
G01*
X41417750Y-110769750D01*
X41417750Y-109767750D01*
X42719750Y-109767750D01*
X42719750Y-110769750D01*
G37*
G36*
X37893854Y-107853335D02*
G01*
X38062376Y-107923139D01*
X38214041Y-108024478D01*
X38343022Y-108153459D01*
X38444361Y-108305124D01*
X38514165Y-108473646D01*
X38549750Y-108652547D01*
X38549750Y-108834953D01*
X38514165Y-109013854D01*
X38444361Y-109182376D01*
X38343022Y-109334041D01*
X38214041Y-109463022D01*
X38062376Y-109564361D01*
X37893854Y-109634165D01*
X37714953Y-109669750D01*
X37532547Y-109669750D01*
X37353646Y-109634165D01*
X37185124Y-109564361D01*
X37033459Y-109463022D01*
X36904478Y-109334041D01*
X36803139Y-109182376D01*
X36733335Y-109013854D01*
X36697750Y-108834953D01*
X36697750Y-108652547D01*
X36733335Y-108473646D01*
X36803139Y-108305124D01*
X36904478Y-108153459D01*
X37033459Y-108024478D01*
X37185124Y-107923139D01*
X37353646Y-107853335D01*
X37532547Y-107817750D01*
X37714953Y-107817750D01*
X37893854Y-107853335D01*
G37*
G36*
X27733854Y-107853335D02*
G01*
X27902376Y-107923139D01*
X28054041Y-108024478D01*
X28183022Y-108153459D01*
X28284361Y-108305124D01*
X28354165Y-108473646D01*
X28389750Y-108652547D01*
X28389750Y-108834953D01*
X28354165Y-109013854D01*
X28284361Y-109182376D01*
X28183022Y-109334041D01*
X28054041Y-109463022D01*
X27902376Y-109564361D01*
X27733854Y-109634165D01*
X27554953Y-109669750D01*
X27372547Y-109669750D01*
X27193646Y-109634165D01*
X27025124Y-109564361D01*
X26873459Y-109463022D01*
X26744478Y-109334041D01*
X26643139Y-109182376D01*
X26573335Y-109013854D01*
X26537750Y-108834953D01*
X26537750Y-108652547D01*
X26573335Y-108473646D01*
X26643139Y-108305124D01*
X26744478Y-108153459D01*
X26873459Y-108024478D01*
X27025124Y-107923139D01*
X27193646Y-107853335D01*
X27372547Y-107817750D01*
X27554953Y-107817750D01*
X27733854Y-107853335D01*
G37*
G36*
X75993854Y-107853335D02*
G01*
X76162376Y-107923139D01*
X76314041Y-108024478D01*
X76443022Y-108153459D01*
X76544361Y-108305124D01*
X76614165Y-108473646D01*
X76649750Y-108652547D01*
X76649750Y-108834953D01*
X76614165Y-109013854D01*
X76544361Y-109182376D01*
X76443022Y-109334041D01*
X76314041Y-109463022D01*
X76162376Y-109564361D01*
X75993854Y-109634165D01*
X75814953Y-109669750D01*
X75632547Y-109669750D01*
X75453646Y-109634165D01*
X75285124Y-109564361D01*
X75133459Y-109463022D01*
X75004478Y-109334041D01*
X74903139Y-109182376D01*
X74833335Y-109013854D01*
X74797750Y-108834953D01*
X74797750Y-108652547D01*
X74833335Y-108473646D01*
X74903139Y-108305124D01*
X75004478Y-108153459D01*
X75133459Y-108024478D01*
X75285124Y-107923139D01*
X75453646Y-107853335D01*
X75632547Y-107817750D01*
X75814953Y-107817750D01*
X75993854Y-107853335D01*
G37*
G36*
X65833854Y-107853335D02*
G01*
X66002376Y-107923139D01*
X66154041Y-108024478D01*
X66283022Y-108153459D01*
X66384361Y-108305124D01*
X66454165Y-108473646D01*
X66489750Y-108652547D01*
X66489750Y-108834953D01*
X66454165Y-109013854D01*
X66384361Y-109182376D01*
X66283022Y-109334041D01*
X66154041Y-109463022D01*
X66002376Y-109564361D01*
X65833854Y-109634165D01*
X65654953Y-109669750D01*
X65472547Y-109669750D01*
X65293646Y-109634165D01*
X65125124Y-109564361D01*
X64973459Y-109463022D01*
X64844478Y-109334041D01*
X64743139Y-109182376D01*
X64673335Y-109013854D01*
X64637750Y-108834953D01*
X64637750Y-108652547D01*
X64673335Y-108473646D01*
X64743139Y-108305124D01*
X64844478Y-108153459D01*
X64973459Y-108024478D01*
X65125124Y-107923139D01*
X65293646Y-107853335D01*
X65472547Y-107817750D01*
X65654953Y-107817750D01*
X65833854Y-107853335D01*
G37*
G36*
X46783854Y-107853335D02*
G01*
X46952376Y-107923139D01*
X47104041Y-108024478D01*
X47233022Y-108153459D01*
X47334361Y-108305124D01*
X47404165Y-108473646D01*
X47439750Y-108652547D01*
X47439750Y-108834953D01*
X47404165Y-109013854D01*
X47334361Y-109182376D01*
X47233022Y-109334041D01*
X47104041Y-109463022D01*
X46952376Y-109564361D01*
X46783854Y-109634165D01*
X46604953Y-109669750D01*
X46422547Y-109669750D01*
X46243646Y-109634165D01*
X46075124Y-109564361D01*
X45923459Y-109463022D01*
X45794478Y-109334041D01*
X45693139Y-109182376D01*
X45623335Y-109013854D01*
X45587750Y-108834953D01*
X45587750Y-108652547D01*
X45623335Y-108473646D01*
X45693139Y-108305124D01*
X45794478Y-108153459D01*
X45923459Y-108024478D01*
X46075124Y-107923139D01*
X46243646Y-107853335D01*
X46422547Y-107817750D01*
X46604953Y-107817750D01*
X46783854Y-107853335D01*
G37*
G36*
X56943854Y-107853335D02*
G01*
X57112376Y-107923139D01*
X57264041Y-108024478D01*
X57393022Y-108153459D01*
X57494361Y-108305124D01*
X57564165Y-108473646D01*
X57599750Y-108652547D01*
X57599750Y-108834953D01*
X57564165Y-109013854D01*
X57494361Y-109182376D01*
X57393022Y-109334041D01*
X57264041Y-109463022D01*
X57112376Y-109564361D01*
X56943854Y-109634165D01*
X56764953Y-109669750D01*
X56582547Y-109669750D01*
X56403646Y-109634165D01*
X56235124Y-109564361D01*
X56083459Y-109463022D01*
X55954478Y-109334041D01*
X55853139Y-109182376D01*
X55783335Y-109013854D01*
X55747750Y-108834953D01*
X55747750Y-108652547D01*
X55783335Y-108473646D01*
X55853139Y-108305124D01*
X55954478Y-108153459D01*
X56083459Y-108024478D01*
X56235124Y-107923139D01*
X56403646Y-107853335D01*
X56582547Y-107817750D01*
X56764953Y-107817750D01*
X56943854Y-107853335D01*
G37*
G36*
X28925310Y-105042814D02*
G01*
X29076777Y-105072943D01*
X29290795Y-105161592D01*
X29290796Y-105161593D01*
X29483404Y-105290289D01*
X29647211Y-105454096D01*
X29733008Y-105582501D01*
X29775908Y-105646705D01*
X29864557Y-105860723D01*
X29909750Y-106087924D01*
X29909750Y-106319576D01*
X29864557Y-106546777D01*
X29775908Y-106760795D01*
X29775907Y-106760796D01*
X29647211Y-106953404D01*
X29483404Y-107117211D01*
X29426290Y-107155373D01*
X29290795Y-107245908D01*
X29076777Y-107334557D01*
X28925310Y-107364686D01*
X28849577Y-107379750D01*
X28617923Y-107379750D01*
X28542190Y-107364686D01*
X28390723Y-107334557D01*
X28176705Y-107245908D01*
X28041210Y-107155373D01*
X27984096Y-107117211D01*
X27820289Y-106953404D01*
X27691593Y-106760796D01*
X27691592Y-106760795D01*
X27602943Y-106546777D01*
X27557750Y-106319576D01*
X27557750Y-106087924D01*
X27602943Y-105860723D01*
X27691592Y-105646705D01*
X27734492Y-105582501D01*
X27820289Y-105454096D01*
X27984096Y-105290289D01*
X28176704Y-105161593D01*
X28176705Y-105161592D01*
X28390723Y-105072943D01*
X28542190Y-105042814D01*
X28617923Y-105027750D01*
X28849577Y-105027750D01*
X28925310Y-105042814D01*
G37*
G36*
X67025310Y-105042814D02*
G01*
X67176777Y-105072943D01*
X67390795Y-105161592D01*
X67390796Y-105161593D01*
X67583404Y-105290289D01*
X67747211Y-105454096D01*
X67833008Y-105582501D01*
X67875908Y-105646705D01*
X67964557Y-105860723D01*
X68009750Y-106087924D01*
X68009750Y-106319576D01*
X67964557Y-106546777D01*
X67875908Y-106760795D01*
X67875907Y-106760796D01*
X67747211Y-106953404D01*
X67583404Y-107117211D01*
X67526290Y-107155373D01*
X67390795Y-107245908D01*
X67176777Y-107334557D01*
X67025310Y-107364686D01*
X66949577Y-107379750D01*
X66717923Y-107379750D01*
X66642190Y-107364686D01*
X66490723Y-107334557D01*
X66276705Y-107245908D01*
X66141210Y-107155373D01*
X66084096Y-107117211D01*
X65920289Y-106953404D01*
X65791593Y-106760796D01*
X65791592Y-106760795D01*
X65702943Y-106546777D01*
X65657750Y-106319576D01*
X65657750Y-106087924D01*
X65702943Y-105860723D01*
X65791592Y-105646705D01*
X65834492Y-105582501D01*
X65920289Y-105454096D01*
X66084096Y-105290289D01*
X66276704Y-105161593D01*
X66276705Y-105161592D01*
X66490723Y-105072943D01*
X66642190Y-105042814D01*
X66717923Y-105027750D01*
X66949577Y-105027750D01*
X67025310Y-105042814D01*
G37*
G36*
X47975310Y-105042814D02*
G01*
X48126777Y-105072943D01*
X48340795Y-105161592D01*
X48340796Y-105161593D01*
X48533404Y-105290289D01*
X48697211Y-105454096D01*
X48783008Y-105582501D01*
X48825908Y-105646705D01*
X48914557Y-105860723D01*
X48959750Y-106087924D01*
X48959750Y-106319576D01*
X48914557Y-106546777D01*
X48825908Y-106760795D01*
X48825907Y-106760796D01*
X48697211Y-106953404D01*
X48533404Y-107117211D01*
X48476290Y-107155373D01*
X48340795Y-107245908D01*
X48126777Y-107334557D01*
X47975310Y-107364686D01*
X47899577Y-107379750D01*
X47667923Y-107379750D01*
X47592190Y-107364686D01*
X47440723Y-107334557D01*
X47226705Y-107245908D01*
X47091210Y-107155373D01*
X47034096Y-107117211D01*
X46870289Y-106953404D01*
X46741593Y-106760796D01*
X46741592Y-106760795D01*
X46652943Y-106546777D01*
X46607750Y-106319576D01*
X46607750Y-106087924D01*
X46652943Y-105860723D01*
X46741592Y-105646705D01*
X46784492Y-105582501D01*
X46870289Y-105454096D01*
X47034096Y-105290289D01*
X47226704Y-105161593D01*
X47226705Y-105161592D01*
X47440723Y-105072943D01*
X47592190Y-105042814D01*
X47667923Y-105027750D01*
X47899577Y-105027750D01*
X47975310Y-105042814D01*
G37*
G36*
X73375310Y-102502814D02*
G01*
X73526777Y-102532943D01*
X73740795Y-102621592D01*
X73740796Y-102621593D01*
X73933404Y-102750289D01*
X74097211Y-102914096D01*
X74183008Y-103042501D01*
X74225908Y-103106705D01*
X74314557Y-103320723D01*
X74359750Y-103547924D01*
X74359750Y-103779576D01*
X74314557Y-104006777D01*
X74225908Y-104220795D01*
X74225907Y-104220796D01*
X74097211Y-104413404D01*
X73933404Y-104577211D01*
X73804999Y-104663008D01*
X73740795Y-104705908D01*
X73526777Y-104794557D01*
X73375310Y-104824686D01*
X73299577Y-104839750D01*
X73067923Y-104839750D01*
X72992190Y-104824686D01*
X72840723Y-104794557D01*
X72626705Y-104705908D01*
X72562501Y-104663008D01*
X72434096Y-104577211D01*
X72270289Y-104413404D01*
X72141593Y-104220796D01*
X72141592Y-104220795D01*
X72052943Y-104006777D01*
X72007750Y-103779576D01*
X72007750Y-103547924D01*
X72052943Y-103320723D01*
X72141592Y-103106705D01*
X72184492Y-103042501D01*
X72270289Y-102914096D01*
X72434096Y-102750289D01*
X72626704Y-102621593D01*
X72626705Y-102621592D01*
X72840723Y-102532943D01*
X72992190Y-102502814D01*
X73067923Y-102487750D01*
X73299577Y-102487750D01*
X73375310Y-102502814D01*
G37*
G36*
X54325310Y-102502814D02*
G01*
X54476777Y-102532943D01*
X54690795Y-102621592D01*
X54690796Y-102621593D01*
X54883404Y-102750289D01*
X55047211Y-102914096D01*
X55133008Y-103042501D01*
X55175908Y-103106705D01*
X55264557Y-103320723D01*
X55309750Y-103547924D01*
X55309750Y-103779576D01*
X55264557Y-104006777D01*
X55175908Y-104220795D01*
X55175907Y-104220796D01*
X55047211Y-104413404D01*
X54883404Y-104577211D01*
X54754999Y-104663008D01*
X54690795Y-104705908D01*
X54476777Y-104794557D01*
X54325310Y-104824686D01*
X54249577Y-104839750D01*
X54017923Y-104839750D01*
X53942190Y-104824686D01*
X53790723Y-104794557D01*
X53576705Y-104705908D01*
X53512501Y-104663008D01*
X53384096Y-104577211D01*
X53220289Y-104413404D01*
X53091593Y-104220796D01*
X53091592Y-104220795D01*
X53002943Y-104006777D01*
X52957750Y-103779576D01*
X52957750Y-103547924D01*
X53002943Y-103320723D01*
X53091592Y-103106705D01*
X53134492Y-103042501D01*
X53220289Y-102914096D01*
X53384096Y-102750289D01*
X53576704Y-102621593D01*
X53576705Y-102621592D01*
X53790723Y-102532943D01*
X53942190Y-102502814D01*
X54017923Y-102487750D01*
X54249577Y-102487750D01*
X54325310Y-102502814D01*
G37*
G36*
X35275310Y-102502814D02*
G01*
X35426777Y-102532943D01*
X35640795Y-102621592D01*
X35640796Y-102621593D01*
X35833404Y-102750289D01*
X35997211Y-102914096D01*
X36083008Y-103042501D01*
X36125908Y-103106705D01*
X36214557Y-103320723D01*
X36259750Y-103547924D01*
X36259750Y-103779576D01*
X36214557Y-104006777D01*
X36125908Y-104220795D01*
X36125907Y-104220796D01*
X35997211Y-104413404D01*
X35833404Y-104577211D01*
X35704999Y-104663008D01*
X35640795Y-104705908D01*
X35426777Y-104794557D01*
X35275310Y-104824686D01*
X35199577Y-104839750D01*
X34967923Y-104839750D01*
X34892190Y-104824686D01*
X34740723Y-104794557D01*
X34526705Y-104705908D01*
X34462501Y-104663008D01*
X34334096Y-104577211D01*
X34170289Y-104413404D01*
X34041593Y-104220796D01*
X34041592Y-104220795D01*
X33952943Y-104006777D01*
X33907750Y-103779576D01*
X33907750Y-103547924D01*
X33952943Y-103320723D01*
X34041592Y-103106705D01*
X34084492Y-103042501D01*
X34170289Y-102914096D01*
X34334096Y-102750289D01*
X34526704Y-102621593D01*
X34526705Y-102621592D01*
X34740723Y-102532943D01*
X34892190Y-102502814D01*
X34967923Y-102487750D01*
X35199577Y-102487750D01*
X35275310Y-102502814D01*
G37*
G36*
X99869750Y-95019750D02*
G01*
X98567750Y-95019750D01*
X98567750Y-94017750D01*
X99869750Y-94017750D01*
X99869750Y-95019750D01*
G37*
G36*
X80819750Y-95019750D02*
G01*
X79517750Y-95019750D01*
X79517750Y-94017750D01*
X80819750Y-94017750D01*
X80819750Y-95019750D01*
G37*
G36*
X61769750Y-95019750D02*
G01*
X60467750Y-95019750D01*
X60467750Y-94017750D01*
X61769750Y-94017750D01*
X61769750Y-95019750D01*
G37*
G36*
X42719750Y-95019750D02*
G01*
X41417750Y-95019750D01*
X41417750Y-94017750D01*
X42719750Y-94017750D01*
X42719750Y-95019750D01*
G37*
G36*
X33140224Y-87727434D02*
G01*
X33358224Y-87817733D01*
X33512373Y-87881583D01*
X33847298Y-88105373D01*
X34132127Y-88390202D01*
X34355917Y-88725127D01*
X34388312Y-88803336D01*
X34510066Y-89097276D01*
X34588650Y-89492344D01*
X34588650Y-89895156D01*
X34510066Y-90290224D01*
X34459201Y-90413022D01*
X34355917Y-90662373D01*
X34132127Y-90997298D01*
X33847298Y-91282127D01*
X33512373Y-91505917D01*
X33358224Y-91569767D01*
X33140224Y-91660066D01*
X32745156Y-91738650D01*
X32342344Y-91738650D01*
X31947276Y-91660066D01*
X31729276Y-91569767D01*
X31575127Y-91505917D01*
X31240202Y-91282127D01*
X30955373Y-90997298D01*
X30731583Y-90662373D01*
X30628299Y-90413022D01*
X30577434Y-90290224D01*
X30498850Y-89895156D01*
X30498850Y-89492344D01*
X30577434Y-89097276D01*
X30699188Y-88803336D01*
X30731583Y-88725127D01*
X30955373Y-88390202D01*
X31240202Y-88105373D01*
X31575127Y-87881583D01*
X31729276Y-87817733D01*
X31947276Y-87727434D01*
X32342344Y-87648850D01*
X32745156Y-87648850D01*
X33140224Y-87727434D01*
G37*
G36*
X90290224Y-87727434D02*
G01*
X90508224Y-87817733D01*
X90662373Y-87881583D01*
X90997298Y-88105373D01*
X91282127Y-88390202D01*
X91505917Y-88725127D01*
X91538312Y-88803336D01*
X91660066Y-89097276D01*
X91738650Y-89492344D01*
X91738650Y-89895156D01*
X91660066Y-90290224D01*
X91609201Y-90413022D01*
X91505917Y-90662373D01*
X91282127Y-90997298D01*
X90997298Y-91282127D01*
X90662373Y-91505917D01*
X90508224Y-91569767D01*
X90290224Y-91660066D01*
X89895156Y-91738650D01*
X89492344Y-91738650D01*
X89097276Y-91660066D01*
X88879276Y-91569767D01*
X88725127Y-91505917D01*
X88390202Y-91282127D01*
X88105373Y-90997298D01*
X87881583Y-90662373D01*
X87778299Y-90413022D01*
X87727434Y-90290224D01*
X87648850Y-89895156D01*
X87648850Y-89492344D01*
X87727434Y-89097276D01*
X87849188Y-88803336D01*
X87881583Y-88725127D01*
X88105373Y-88390202D01*
X88390202Y-88105373D01*
X88725127Y-87881583D01*
X88879276Y-87817733D01*
X89097276Y-87727434D01*
X89492344Y-87648850D01*
X89895156Y-87648850D01*
X90290224Y-87727434D01*
G37*
G36*
X71240224Y-87727434D02*
G01*
X71458224Y-87817733D01*
X71612373Y-87881583D01*
X71947298Y-88105373D01*
X72232127Y-88390202D01*
X72455917Y-88725127D01*
X72488312Y-88803336D01*
X72610066Y-89097276D01*
X72688650Y-89492344D01*
X72688650Y-89895156D01*
X72610066Y-90290224D01*
X72559201Y-90413022D01*
X72455917Y-90662373D01*
X72232127Y-90997298D01*
X71947298Y-91282127D01*
X71612373Y-91505917D01*
X71458224Y-91569767D01*
X71240224Y-91660066D01*
X70845156Y-91738650D01*
X70442344Y-91738650D01*
X70047276Y-91660066D01*
X69829276Y-91569767D01*
X69675127Y-91505917D01*
X69340202Y-91282127D01*
X69055373Y-90997298D01*
X68831583Y-90662373D01*
X68728299Y-90413022D01*
X68677434Y-90290224D01*
X68598850Y-89895156D01*
X68598850Y-89492344D01*
X68677434Y-89097276D01*
X68799188Y-88803336D01*
X68831583Y-88725127D01*
X69055373Y-88390202D01*
X69340202Y-88105373D01*
X69675127Y-87881583D01*
X69829276Y-87817733D01*
X70047276Y-87727434D01*
X70442344Y-87648850D01*
X70845156Y-87648850D01*
X71240224Y-87727434D01*
G37*
G36*
X52190224Y-87727434D02*
G01*
X52408224Y-87817733D01*
X52562373Y-87881583D01*
X52897298Y-88105373D01*
X53182127Y-88390202D01*
X53405917Y-88725127D01*
X53438312Y-88803336D01*
X53560066Y-89097276D01*
X53638650Y-89492344D01*
X53638650Y-89895156D01*
X53560066Y-90290224D01*
X53509201Y-90413022D01*
X53405917Y-90662373D01*
X53182127Y-90997298D01*
X52897298Y-91282127D01*
X52562373Y-91505917D01*
X52408224Y-91569767D01*
X52190224Y-91660066D01*
X51795156Y-91738650D01*
X51392344Y-91738650D01*
X50997276Y-91660066D01*
X50779276Y-91569767D01*
X50625127Y-91505917D01*
X50290202Y-91282127D01*
X50005373Y-90997298D01*
X49781583Y-90662373D01*
X49678299Y-90413022D01*
X49627434Y-90290224D01*
X49548850Y-89895156D01*
X49548850Y-89492344D01*
X49627434Y-89097276D01*
X49749188Y-88803336D01*
X49781583Y-88725127D01*
X50005373Y-88390202D01*
X50290202Y-88105373D01*
X50625127Y-87881583D01*
X50779276Y-87817733D01*
X50997276Y-87727434D01*
X51392344Y-87648850D01*
X51795156Y-87648850D01*
X52190224Y-87727434D01*
G37*
G36*
X42719750Y-91719750D02*
G01*
X41417750Y-91719750D01*
X41417750Y-90717750D01*
X42719750Y-90717750D01*
X42719750Y-91719750D01*
G37*
G36*
X80819750Y-91719750D02*
G01*
X79517750Y-91719750D01*
X79517750Y-90717750D01*
X80819750Y-90717750D01*
X80819750Y-91719750D01*
G37*
G36*
X61769750Y-91719750D02*
G01*
X60467750Y-91719750D01*
X60467750Y-90717750D01*
X61769750Y-90717750D01*
X61769750Y-91719750D01*
G37*
G36*
X99869750Y-91719750D02*
G01*
X98567750Y-91719750D01*
X98567750Y-90717750D01*
X99869750Y-90717750D01*
X99869750Y-91719750D01*
G37*
G36*
X46783854Y-88803335D02*
G01*
X46952376Y-88873139D01*
X47104041Y-88974478D01*
X47233022Y-89103459D01*
X47334361Y-89255124D01*
X47404165Y-89423646D01*
X47439750Y-89602547D01*
X47439750Y-89784953D01*
X47404165Y-89963854D01*
X47334361Y-90132376D01*
X47233022Y-90284041D01*
X47104041Y-90413022D01*
X46952376Y-90514361D01*
X46783854Y-90584165D01*
X46604953Y-90619750D01*
X46422547Y-90619750D01*
X46243646Y-90584165D01*
X46075124Y-90514361D01*
X45923459Y-90413022D01*
X45794478Y-90284041D01*
X45693139Y-90132376D01*
X45623335Y-89963854D01*
X45587750Y-89784953D01*
X45587750Y-89602547D01*
X45623335Y-89423646D01*
X45693139Y-89255124D01*
X45794478Y-89103459D01*
X45923459Y-88974478D01*
X46075124Y-88873139D01*
X46243646Y-88803335D01*
X46422547Y-88767750D01*
X46604953Y-88767750D01*
X46783854Y-88803335D01*
G37*
G36*
X27733854Y-88803335D02*
G01*
X27902376Y-88873139D01*
X28054041Y-88974478D01*
X28183022Y-89103459D01*
X28284361Y-89255124D01*
X28354165Y-89423646D01*
X28389750Y-89602547D01*
X28389750Y-89784953D01*
X28354165Y-89963854D01*
X28284361Y-90132376D01*
X28183022Y-90284041D01*
X28054041Y-90413022D01*
X27902376Y-90514361D01*
X27733854Y-90584165D01*
X27554953Y-90619750D01*
X27372547Y-90619750D01*
X27193646Y-90584165D01*
X27025124Y-90514361D01*
X26873459Y-90413022D01*
X26744478Y-90284041D01*
X26643139Y-90132376D01*
X26573335Y-89963854D01*
X26537750Y-89784953D01*
X26537750Y-89602547D01*
X26573335Y-89423646D01*
X26643139Y-89255124D01*
X26744478Y-89103459D01*
X26873459Y-88974478D01*
X27025124Y-88873139D01*
X27193646Y-88803335D01*
X27372547Y-88767750D01*
X27554953Y-88767750D01*
X27733854Y-88803335D01*
G37*
G36*
X56943854Y-88803335D02*
G01*
X57112376Y-88873139D01*
X57264041Y-88974478D01*
X57393022Y-89103459D01*
X57494361Y-89255124D01*
X57564165Y-89423646D01*
X57599750Y-89602547D01*
X57599750Y-89784953D01*
X57564165Y-89963854D01*
X57494361Y-90132376D01*
X57393022Y-90284041D01*
X57264041Y-90413022D01*
X57112376Y-90514361D01*
X56943854Y-90584165D01*
X56764953Y-90619750D01*
X56582547Y-90619750D01*
X56403646Y-90584165D01*
X56235124Y-90514361D01*
X56083459Y-90413022D01*
X55954478Y-90284041D01*
X55853139Y-90132376D01*
X55783335Y-89963854D01*
X55747750Y-89784953D01*
X55747750Y-89602547D01*
X55783335Y-89423646D01*
X55853139Y-89255124D01*
X55954478Y-89103459D01*
X56083459Y-88974478D01*
X56235124Y-88873139D01*
X56403646Y-88803335D01*
X56582547Y-88767750D01*
X56764953Y-88767750D01*
X56943854Y-88803335D01*
G37*
G36*
X95043854Y-88803335D02*
G01*
X95212376Y-88873139D01*
X95364041Y-88974478D01*
X95493022Y-89103459D01*
X95594361Y-89255124D01*
X95664165Y-89423646D01*
X95699750Y-89602547D01*
X95699750Y-89784953D01*
X95664165Y-89963854D01*
X95594361Y-90132376D01*
X95493022Y-90284041D01*
X95364041Y-90413022D01*
X95212376Y-90514361D01*
X95043854Y-90584165D01*
X94864953Y-90619750D01*
X94682547Y-90619750D01*
X94503646Y-90584165D01*
X94335124Y-90514361D01*
X94183459Y-90413022D01*
X94054478Y-90284041D01*
X93953139Y-90132376D01*
X93883335Y-89963854D01*
X93847750Y-89784953D01*
X93847750Y-89602547D01*
X93883335Y-89423646D01*
X93953139Y-89255124D01*
X94054478Y-89103459D01*
X94183459Y-88974478D01*
X94335124Y-88873139D01*
X94503646Y-88803335D01*
X94682547Y-88767750D01*
X94864953Y-88767750D01*
X95043854Y-88803335D01*
G37*
G36*
X37893854Y-88803335D02*
G01*
X38062376Y-88873139D01*
X38214041Y-88974478D01*
X38343022Y-89103459D01*
X38444361Y-89255124D01*
X38514165Y-89423646D01*
X38549750Y-89602547D01*
X38549750Y-89784953D01*
X38514165Y-89963854D01*
X38444361Y-90132376D01*
X38343022Y-90284041D01*
X38214041Y-90413022D01*
X38062376Y-90514361D01*
X37893854Y-90584165D01*
X37714953Y-90619750D01*
X37532547Y-90619750D01*
X37353646Y-90584165D01*
X37185124Y-90514361D01*
X37033459Y-90413022D01*
X36904478Y-90284041D01*
X36803139Y-90132376D01*
X36733335Y-89963854D01*
X36697750Y-89784953D01*
X36697750Y-89602547D01*
X36733335Y-89423646D01*
X36803139Y-89255124D01*
X36904478Y-89103459D01*
X37033459Y-88974478D01*
X37185124Y-88873139D01*
X37353646Y-88803335D01*
X37532547Y-88767750D01*
X37714953Y-88767750D01*
X37893854Y-88803335D01*
G37*
G36*
X84883854Y-88803335D02*
G01*
X85052376Y-88873139D01*
X85204041Y-88974478D01*
X85333022Y-89103459D01*
X85434361Y-89255124D01*
X85504165Y-89423646D01*
X85539750Y-89602547D01*
X85539750Y-89784953D01*
X85504165Y-89963854D01*
X85434361Y-90132376D01*
X85333022Y-90284041D01*
X85204041Y-90413022D01*
X85052376Y-90514361D01*
X84883854Y-90584165D01*
X84704953Y-90619750D01*
X84522547Y-90619750D01*
X84343646Y-90584165D01*
X84175124Y-90514361D01*
X84023459Y-90413022D01*
X83894478Y-90284041D01*
X83793139Y-90132376D01*
X83723335Y-89963854D01*
X83687750Y-89784953D01*
X83687750Y-89602547D01*
X83723335Y-89423646D01*
X83793139Y-89255124D01*
X83894478Y-89103459D01*
X84023459Y-88974478D01*
X84175124Y-88873139D01*
X84343646Y-88803335D01*
X84522547Y-88767750D01*
X84704953Y-88767750D01*
X84883854Y-88803335D01*
G37*
G36*
X75993854Y-88803335D02*
G01*
X76162376Y-88873139D01*
X76314041Y-88974478D01*
X76443022Y-89103459D01*
X76544361Y-89255124D01*
X76614165Y-89423646D01*
X76649750Y-89602547D01*
X76649750Y-89784953D01*
X76614165Y-89963854D01*
X76544361Y-90132376D01*
X76443022Y-90284041D01*
X76314041Y-90413022D01*
X76162376Y-90514361D01*
X75993854Y-90584165D01*
X75814953Y-90619750D01*
X75632547Y-90619750D01*
X75453646Y-90584165D01*
X75285124Y-90514361D01*
X75133459Y-90413022D01*
X75004478Y-90284041D01*
X74903139Y-90132376D01*
X74833335Y-89963854D01*
X74797750Y-89784953D01*
X74797750Y-89602547D01*
X74833335Y-89423646D01*
X74903139Y-89255124D01*
X75004478Y-89103459D01*
X75133459Y-88974478D01*
X75285124Y-88873139D01*
X75453646Y-88803335D01*
X75632547Y-88767750D01*
X75814953Y-88767750D01*
X75993854Y-88803335D01*
G37*
G36*
X65833854Y-88803335D02*
G01*
X66002376Y-88873139D01*
X66154041Y-88974478D01*
X66283022Y-89103459D01*
X66384361Y-89255124D01*
X66454165Y-89423646D01*
X66489750Y-89602547D01*
X66489750Y-89784953D01*
X66454165Y-89963854D01*
X66384361Y-90132376D01*
X66283022Y-90284041D01*
X66154041Y-90413022D01*
X66002376Y-90514361D01*
X65833854Y-90584165D01*
X65654953Y-90619750D01*
X65472547Y-90619750D01*
X65293646Y-90584165D01*
X65125124Y-90514361D01*
X64973459Y-90413022D01*
X64844478Y-90284041D01*
X64743139Y-90132376D01*
X64673335Y-89963854D01*
X64637750Y-89784953D01*
X64637750Y-89602547D01*
X64673335Y-89423646D01*
X64743139Y-89255124D01*
X64844478Y-89103459D01*
X64973459Y-88974478D01*
X65125124Y-88873139D01*
X65293646Y-88803335D01*
X65472547Y-88767750D01*
X65654953Y-88767750D01*
X65833854Y-88803335D01*
G37*
G36*
X86075310Y-85992814D02*
G01*
X86226777Y-86022943D01*
X86440795Y-86111592D01*
X86440796Y-86111593D01*
X86633404Y-86240289D01*
X86797211Y-86404096D01*
X86883008Y-86532501D01*
X86925908Y-86596705D01*
X87014557Y-86810723D01*
X87059750Y-87037924D01*
X87059750Y-87269576D01*
X87014557Y-87496777D01*
X86925908Y-87710795D01*
X86925907Y-87710796D01*
X86797211Y-87903404D01*
X86633404Y-88067211D01*
X86576290Y-88105373D01*
X86440795Y-88195908D01*
X86226777Y-88284557D01*
X86075310Y-88314686D01*
X85999577Y-88329750D01*
X85767923Y-88329750D01*
X85692190Y-88314686D01*
X85540723Y-88284557D01*
X85326705Y-88195908D01*
X85191210Y-88105373D01*
X85134096Y-88067211D01*
X84970289Y-87903404D01*
X84841593Y-87710796D01*
X84841592Y-87710795D01*
X84752943Y-87496777D01*
X84707750Y-87269576D01*
X84707750Y-87037924D01*
X84752943Y-86810723D01*
X84841592Y-86596705D01*
X84884492Y-86532501D01*
X84970289Y-86404096D01*
X85134096Y-86240289D01*
X85326704Y-86111593D01*
X85326705Y-86111592D01*
X85540723Y-86022943D01*
X85692190Y-85992814D01*
X85767923Y-85977750D01*
X85999577Y-85977750D01*
X86075310Y-85992814D01*
G37*
G36*
X28925310Y-85992814D02*
G01*
X29076777Y-86022943D01*
X29290795Y-86111592D01*
X29290796Y-86111593D01*
X29483404Y-86240289D01*
X29647211Y-86404096D01*
X29733008Y-86532501D01*
X29775908Y-86596705D01*
X29864557Y-86810723D01*
X29909750Y-87037924D01*
X29909750Y-87269576D01*
X29864557Y-87496777D01*
X29775908Y-87710795D01*
X29775907Y-87710796D01*
X29647211Y-87903404D01*
X29483404Y-88067211D01*
X29426290Y-88105373D01*
X29290795Y-88195908D01*
X29076777Y-88284557D01*
X28925310Y-88314686D01*
X28849577Y-88329750D01*
X28617923Y-88329750D01*
X28542190Y-88314686D01*
X28390723Y-88284557D01*
X28176705Y-88195908D01*
X28041210Y-88105373D01*
X27984096Y-88067211D01*
X27820289Y-87903404D01*
X27691593Y-87710796D01*
X27691592Y-87710795D01*
X27602943Y-87496777D01*
X27557750Y-87269576D01*
X27557750Y-87037924D01*
X27602943Y-86810723D01*
X27691592Y-86596705D01*
X27734492Y-86532501D01*
X27820289Y-86404096D01*
X27984096Y-86240289D01*
X28176704Y-86111593D01*
X28176705Y-86111592D01*
X28390723Y-86022943D01*
X28542190Y-85992814D01*
X28617923Y-85977750D01*
X28849577Y-85977750D01*
X28925310Y-85992814D01*
G37*
G36*
X67025310Y-85992814D02*
G01*
X67176777Y-86022943D01*
X67390795Y-86111592D01*
X67390796Y-86111593D01*
X67583404Y-86240289D01*
X67747211Y-86404096D01*
X67833008Y-86532501D01*
X67875908Y-86596705D01*
X67964557Y-86810723D01*
X68009750Y-87037924D01*
X68009750Y-87269576D01*
X67964557Y-87496777D01*
X67875908Y-87710795D01*
X67875907Y-87710796D01*
X67747211Y-87903404D01*
X67583404Y-88067211D01*
X67526290Y-88105373D01*
X67390795Y-88195908D01*
X67176777Y-88284557D01*
X67025310Y-88314686D01*
X66949577Y-88329750D01*
X66717923Y-88329750D01*
X66642190Y-88314686D01*
X66490723Y-88284557D01*
X66276705Y-88195908D01*
X66141210Y-88105373D01*
X66084096Y-88067211D01*
X65920289Y-87903404D01*
X65791593Y-87710796D01*
X65791592Y-87710795D01*
X65702943Y-87496777D01*
X65657750Y-87269576D01*
X65657750Y-87037924D01*
X65702943Y-86810723D01*
X65791592Y-86596705D01*
X65834492Y-86532501D01*
X65920289Y-86404096D01*
X66084096Y-86240289D01*
X66276704Y-86111593D01*
X66276705Y-86111592D01*
X66490723Y-86022943D01*
X66642190Y-85992814D01*
X66717923Y-85977750D01*
X66949577Y-85977750D01*
X67025310Y-85992814D01*
G37*
G36*
X47975310Y-85992814D02*
G01*
X48126777Y-86022943D01*
X48340795Y-86111592D01*
X48340796Y-86111593D01*
X48533404Y-86240289D01*
X48697211Y-86404096D01*
X48783008Y-86532501D01*
X48825908Y-86596705D01*
X48914557Y-86810723D01*
X48959750Y-87037924D01*
X48959750Y-87269576D01*
X48914557Y-87496777D01*
X48825908Y-87710795D01*
X48825907Y-87710796D01*
X48697211Y-87903404D01*
X48533404Y-88067211D01*
X48476290Y-88105373D01*
X48340795Y-88195908D01*
X48126777Y-88284557D01*
X47975310Y-88314686D01*
X47899577Y-88329750D01*
X47667923Y-88329750D01*
X47592190Y-88314686D01*
X47440723Y-88284557D01*
X47226705Y-88195908D01*
X47091210Y-88105373D01*
X47034096Y-88067211D01*
X46870289Y-87903404D01*
X46741593Y-87710796D01*
X46741592Y-87710795D01*
X46652943Y-87496777D01*
X46607750Y-87269576D01*
X46607750Y-87037924D01*
X46652943Y-86810723D01*
X46741592Y-86596705D01*
X46784492Y-86532501D01*
X46870289Y-86404096D01*
X47034096Y-86240289D01*
X47226704Y-86111593D01*
X47226705Y-86111592D01*
X47440723Y-86022943D01*
X47592190Y-85992814D01*
X47667923Y-85977750D01*
X47899577Y-85977750D01*
X47975310Y-85992814D01*
G37*
G36*
X35275310Y-83452814D02*
G01*
X35426777Y-83482943D01*
X35640795Y-83571592D01*
X35640796Y-83571593D01*
X35833404Y-83700289D01*
X35997211Y-83864096D01*
X36083008Y-83992501D01*
X36125908Y-84056705D01*
X36214557Y-84270723D01*
X36259750Y-84497924D01*
X36259750Y-84729576D01*
X36214557Y-84956777D01*
X36125908Y-85170795D01*
X36125907Y-85170796D01*
X35997211Y-85363404D01*
X35833404Y-85527211D01*
X35704999Y-85613008D01*
X35640795Y-85655908D01*
X35426777Y-85744557D01*
X35275310Y-85774686D01*
X35199577Y-85789750D01*
X34967923Y-85789750D01*
X34892190Y-85774686D01*
X34740723Y-85744557D01*
X34526705Y-85655908D01*
X34462501Y-85613008D01*
X34334096Y-85527211D01*
X34170289Y-85363404D01*
X34041593Y-85170796D01*
X34041592Y-85170795D01*
X33952943Y-84956777D01*
X33907750Y-84729576D01*
X33907750Y-84497924D01*
X33952943Y-84270723D01*
X34041592Y-84056705D01*
X34084492Y-83992501D01*
X34170289Y-83864096D01*
X34334096Y-83700289D01*
X34526704Y-83571593D01*
X34526705Y-83571592D01*
X34740723Y-83482943D01*
X34892190Y-83452814D01*
X34967923Y-83437750D01*
X35199577Y-83437750D01*
X35275310Y-83452814D01*
G37*
G36*
X92425310Y-83452814D02*
G01*
X92576777Y-83482943D01*
X92790795Y-83571592D01*
X92790796Y-83571593D01*
X92983404Y-83700289D01*
X93147211Y-83864096D01*
X93233008Y-83992501D01*
X93275908Y-84056705D01*
X93364557Y-84270723D01*
X93409750Y-84497924D01*
X93409750Y-84729576D01*
X93364557Y-84956777D01*
X93275908Y-85170795D01*
X93275907Y-85170796D01*
X93147211Y-85363404D01*
X92983404Y-85527211D01*
X92854999Y-85613008D01*
X92790795Y-85655908D01*
X92576777Y-85744557D01*
X92425310Y-85774686D01*
X92349577Y-85789750D01*
X92117923Y-85789750D01*
X92042190Y-85774686D01*
X91890723Y-85744557D01*
X91676705Y-85655908D01*
X91612501Y-85613008D01*
X91484096Y-85527211D01*
X91320289Y-85363404D01*
X91191593Y-85170796D01*
X91191592Y-85170795D01*
X91102943Y-84956777D01*
X91057750Y-84729576D01*
X91057750Y-84497924D01*
X91102943Y-84270723D01*
X91191592Y-84056705D01*
X91234492Y-83992501D01*
X91320289Y-83864096D01*
X91484096Y-83700289D01*
X91676704Y-83571593D01*
X91676705Y-83571592D01*
X91890723Y-83482943D01*
X92042190Y-83452814D01*
X92117923Y-83437750D01*
X92349577Y-83437750D01*
X92425310Y-83452814D01*
G37*
G36*
X73375310Y-83452814D02*
G01*
X73526777Y-83482943D01*
X73740795Y-83571592D01*
X73740796Y-83571593D01*
X73933404Y-83700289D01*
X74097211Y-83864096D01*
X74183008Y-83992501D01*
X74225908Y-84056705D01*
X74314557Y-84270723D01*
X74359750Y-84497924D01*
X74359750Y-84729576D01*
X74314557Y-84956777D01*
X74225908Y-85170795D01*
X74225907Y-85170796D01*
X74097211Y-85363404D01*
X73933404Y-85527211D01*
X73804999Y-85613008D01*
X73740795Y-85655908D01*
X73526777Y-85744557D01*
X73375310Y-85774686D01*
X73299577Y-85789750D01*
X73067923Y-85789750D01*
X72992190Y-85774686D01*
X72840723Y-85744557D01*
X72626705Y-85655908D01*
X72562501Y-85613008D01*
X72434096Y-85527211D01*
X72270289Y-85363404D01*
X72141593Y-85170796D01*
X72141592Y-85170795D01*
X72052943Y-84956777D01*
X72007750Y-84729576D01*
X72007750Y-84497924D01*
X72052943Y-84270723D01*
X72141592Y-84056705D01*
X72184492Y-83992501D01*
X72270289Y-83864096D01*
X72434096Y-83700289D01*
X72626704Y-83571593D01*
X72626705Y-83571592D01*
X72840723Y-83482943D01*
X72992190Y-83452814D01*
X73067923Y-83437750D01*
X73299577Y-83437750D01*
X73375310Y-83452814D01*
G37*
G36*
X54325310Y-83452814D02*
G01*
X54476777Y-83482943D01*
X54690795Y-83571592D01*
X54690796Y-83571593D01*
X54883404Y-83700289D01*
X55047211Y-83864096D01*
X55133008Y-83992501D01*
X55175908Y-84056705D01*
X55264557Y-84270723D01*
X55309750Y-84497924D01*
X55309750Y-84729576D01*
X55264557Y-84956777D01*
X55175908Y-85170795D01*
X55175907Y-85170796D01*
X55047211Y-85363404D01*
X54883404Y-85527211D01*
X54754999Y-85613008D01*
X54690795Y-85655908D01*
X54476777Y-85744557D01*
X54325310Y-85774686D01*
X54249577Y-85789750D01*
X54017923Y-85789750D01*
X53942190Y-85774686D01*
X53790723Y-85744557D01*
X53576705Y-85655908D01*
X53512501Y-85613008D01*
X53384096Y-85527211D01*
X53220289Y-85363404D01*
X53091593Y-85170796D01*
X53091592Y-85170795D01*
X53002943Y-84956777D01*
X52957750Y-84729576D01*
X52957750Y-84497924D01*
X53002943Y-84270723D01*
X53091592Y-84056705D01*
X53134492Y-83992501D01*
X53220289Y-83864096D01*
X53384096Y-83700289D01*
X53576704Y-83571593D01*
X53576705Y-83571592D01*
X53790723Y-83482943D01*
X53942190Y-83452814D01*
X54017923Y-83437750D01*
X54249577Y-83437750D01*
X54325310Y-83452814D01*
G37*
G36*
X148038500Y-77426000D02*
G01*
X144936500Y-77426000D01*
X144936500Y-74824000D01*
X148038500Y-74824000D01*
X148038500Y-77426000D01*
G37*
G36*
X118919750Y-75969750D02*
G01*
X117617750Y-75969750D01*
X117617750Y-74967750D01*
X118919750Y-74967750D01*
X118919750Y-75969750D01*
G37*
G36*
X61769750Y-75969750D02*
G01*
X60467750Y-75969750D01*
X60467750Y-74967750D01*
X61769750Y-74967750D01*
X61769750Y-75969750D01*
G37*
G36*
X99869750Y-75969750D02*
G01*
X98567750Y-75969750D01*
X98567750Y-74967750D01*
X99869750Y-74967750D01*
X99869750Y-75969750D01*
G37*
G36*
X80819750Y-75969750D02*
G01*
X79517750Y-75969750D01*
X79517750Y-74967750D01*
X80819750Y-74967750D01*
X80819750Y-75969750D01*
G37*
G36*
X42719750Y-75969750D02*
G01*
X41417750Y-75969750D01*
X41417750Y-74967750D01*
X42719750Y-74967750D01*
X42719750Y-75969750D01*
G37*
G36*
X135588500Y-75907250D02*
G01*
X134286500Y-75907250D01*
X134286500Y-74905250D01*
X135588500Y-74905250D01*
X135588500Y-75907250D01*
G37*
G36*
X155038500Y-74076000D02*
G01*
X152936500Y-74076000D01*
X152936500Y-71974000D01*
X155038500Y-71974000D01*
X155038500Y-74076000D01*
G37*
G36*
X139794064Y-72014389D02*
G01*
X139985333Y-72093615D01*
X139985335Y-72093616D01*
X140157473Y-72208635D01*
X140303865Y-72355027D01*
X140371278Y-72455917D01*
X140418885Y-72527167D01*
X140498111Y-72718436D01*
X140538500Y-72921484D01*
X140538500Y-73128516D01*
X140498111Y-73331564D01*
X140418885Y-73522833D01*
X140418884Y-73522835D01*
X140303865Y-73694973D01*
X140157473Y-73841365D01*
X139985335Y-73956384D01*
X139985334Y-73956385D01*
X139985333Y-73956385D01*
X139794064Y-74035611D01*
X139591016Y-74076000D01*
X139383984Y-74076000D01*
X139180936Y-74035611D01*
X138989667Y-73956385D01*
X138989666Y-73956385D01*
X138989665Y-73956384D01*
X138817527Y-73841365D01*
X138671135Y-73694973D01*
X138556116Y-73522835D01*
X138556115Y-73522833D01*
X138476889Y-73331564D01*
X138436500Y-73128516D01*
X138436500Y-72921484D01*
X138476889Y-72718436D01*
X138556115Y-72527167D01*
X138603723Y-72455917D01*
X138671135Y-72355027D01*
X138817527Y-72208635D01*
X138989665Y-72093616D01*
X138989667Y-72093615D01*
X139180936Y-72014389D01*
X139383984Y-71974000D01*
X139591016Y-71974000D01*
X139794064Y-72014389D01*
G37*
G36*
X33140224Y-68677434D02*
G01*
X33358224Y-68767733D01*
X33512373Y-68831583D01*
X33847298Y-69055373D01*
X34132127Y-69340202D01*
X34355917Y-69675127D01*
X34388312Y-69753336D01*
X34510066Y-70047276D01*
X34588650Y-70442344D01*
X34588650Y-70845156D01*
X34510066Y-71240224D01*
X34459201Y-71363022D01*
X34355917Y-71612373D01*
X34132127Y-71947298D01*
X33847298Y-72232127D01*
X33512373Y-72455917D01*
X33358224Y-72519767D01*
X33140224Y-72610066D01*
X32745156Y-72688650D01*
X32342344Y-72688650D01*
X31947276Y-72610066D01*
X31729276Y-72519767D01*
X31575127Y-72455917D01*
X31240202Y-72232127D01*
X30955373Y-71947298D01*
X30731583Y-71612373D01*
X30628299Y-71363022D01*
X30577434Y-71240224D01*
X30498850Y-70845156D01*
X30498850Y-70442344D01*
X30577434Y-70047276D01*
X30699188Y-69753336D01*
X30731583Y-69675127D01*
X30955373Y-69340202D01*
X31240202Y-69055373D01*
X31575127Y-68831583D01*
X31729276Y-68767733D01*
X31947276Y-68677434D01*
X32342344Y-68598850D01*
X32745156Y-68598850D01*
X33140224Y-68677434D01*
G37*
G36*
X52190224Y-68677434D02*
G01*
X52408224Y-68767733D01*
X52562373Y-68831583D01*
X52897298Y-69055373D01*
X53182127Y-69340202D01*
X53405917Y-69675127D01*
X53438312Y-69753336D01*
X53560066Y-70047276D01*
X53638650Y-70442344D01*
X53638650Y-70845156D01*
X53560066Y-71240224D01*
X53509201Y-71363022D01*
X53405917Y-71612373D01*
X53182127Y-71947298D01*
X52897298Y-72232127D01*
X52562373Y-72455917D01*
X52408224Y-72519767D01*
X52190224Y-72610066D01*
X51795156Y-72688650D01*
X51392344Y-72688650D01*
X50997276Y-72610066D01*
X50779276Y-72519767D01*
X50625127Y-72455917D01*
X50290202Y-72232127D01*
X50005373Y-71947298D01*
X49781583Y-71612373D01*
X49678299Y-71363022D01*
X49627434Y-71240224D01*
X49548850Y-70845156D01*
X49548850Y-70442344D01*
X49627434Y-70047276D01*
X49749188Y-69753336D01*
X49781583Y-69675127D01*
X50005373Y-69340202D01*
X50290202Y-69055373D01*
X50625127Y-68831583D01*
X50779276Y-68767733D01*
X50997276Y-68677434D01*
X51392344Y-68598850D01*
X51795156Y-68598850D01*
X52190224Y-68677434D01*
G37*
G36*
X71240224Y-68677434D02*
G01*
X71458224Y-68767733D01*
X71612373Y-68831583D01*
X71947298Y-69055373D01*
X72232127Y-69340202D01*
X72455917Y-69675127D01*
X72488312Y-69753336D01*
X72610066Y-70047276D01*
X72688650Y-70442344D01*
X72688650Y-70845156D01*
X72610066Y-71240224D01*
X72559201Y-71363022D01*
X72455917Y-71612373D01*
X72232127Y-71947298D01*
X71947298Y-72232127D01*
X71612373Y-72455917D01*
X71458224Y-72519767D01*
X71240224Y-72610066D01*
X70845156Y-72688650D01*
X70442344Y-72688650D01*
X70047276Y-72610066D01*
X69829276Y-72519767D01*
X69675127Y-72455917D01*
X69340202Y-72232127D01*
X69055373Y-71947298D01*
X68831583Y-71612373D01*
X68728299Y-71363022D01*
X68677434Y-71240224D01*
X68598850Y-70845156D01*
X68598850Y-70442344D01*
X68677434Y-70047276D01*
X68799188Y-69753336D01*
X68831583Y-69675127D01*
X69055373Y-69340202D01*
X69340202Y-69055373D01*
X69675127Y-68831583D01*
X69829276Y-68767733D01*
X70047276Y-68677434D01*
X70442344Y-68598850D01*
X70845156Y-68598850D01*
X71240224Y-68677434D01*
G37*
G36*
X109340224Y-68677434D02*
G01*
X109558224Y-68767733D01*
X109712373Y-68831583D01*
X110047298Y-69055373D01*
X110332127Y-69340202D01*
X110555917Y-69675127D01*
X110588312Y-69753336D01*
X110710066Y-70047276D01*
X110788650Y-70442344D01*
X110788650Y-70845156D01*
X110710066Y-71240224D01*
X110659201Y-71363022D01*
X110555917Y-71612373D01*
X110332127Y-71947298D01*
X110047298Y-72232127D01*
X109712373Y-72455917D01*
X109558224Y-72519767D01*
X109340224Y-72610066D01*
X108945156Y-72688650D01*
X108542344Y-72688650D01*
X108147276Y-72610066D01*
X107929276Y-72519767D01*
X107775127Y-72455917D01*
X107440202Y-72232127D01*
X107155373Y-71947298D01*
X106931583Y-71612373D01*
X106828299Y-71363022D01*
X106777434Y-71240224D01*
X106698850Y-70845156D01*
X106698850Y-70442344D01*
X106777434Y-70047276D01*
X106899188Y-69753336D01*
X106931583Y-69675127D01*
X107155373Y-69340202D01*
X107440202Y-69055373D01*
X107775127Y-68831583D01*
X107929276Y-68767733D01*
X108147276Y-68677434D01*
X108542344Y-68598850D01*
X108945156Y-68598850D01*
X109340224Y-68677434D01*
G37*
G36*
X90290224Y-68677434D02*
G01*
X90508224Y-68767733D01*
X90662373Y-68831583D01*
X90997298Y-69055373D01*
X91282127Y-69340202D01*
X91505917Y-69675127D01*
X91538312Y-69753336D01*
X91660066Y-70047276D01*
X91738650Y-70442344D01*
X91738650Y-70845156D01*
X91660066Y-71240224D01*
X91609201Y-71363022D01*
X91505917Y-71612373D01*
X91282127Y-71947298D01*
X90997298Y-72232127D01*
X90662373Y-72455917D01*
X90508224Y-72519767D01*
X90290224Y-72610066D01*
X89895156Y-72688650D01*
X89492344Y-72688650D01*
X89097276Y-72610066D01*
X88879276Y-72519767D01*
X88725127Y-72455917D01*
X88390202Y-72232127D01*
X88105373Y-71947298D01*
X87881583Y-71612373D01*
X87778299Y-71363022D01*
X87727434Y-71240224D01*
X87648850Y-70845156D01*
X87648850Y-70442344D01*
X87727434Y-70047276D01*
X87849188Y-69753336D01*
X87881583Y-69675127D01*
X88105373Y-69340202D01*
X88390202Y-69055373D01*
X88725127Y-68831583D01*
X88879276Y-68767733D01*
X89097276Y-68677434D01*
X89492344Y-68598850D01*
X89895156Y-68598850D01*
X90290224Y-68677434D01*
G37*
G36*
X42719750Y-72669750D02*
G01*
X41417750Y-72669750D01*
X41417750Y-71667750D01*
X42719750Y-71667750D01*
X42719750Y-72669750D01*
G37*
G36*
X61769750Y-72669750D02*
G01*
X60467750Y-72669750D01*
X60467750Y-71667750D01*
X61769750Y-71667750D01*
X61769750Y-72669750D01*
G37*
G36*
X80819750Y-72669750D02*
G01*
X79517750Y-72669750D01*
X79517750Y-71667750D01*
X80819750Y-71667750D01*
X80819750Y-72669750D01*
G37*
G36*
X99869750Y-72669750D02*
G01*
X98567750Y-72669750D01*
X98567750Y-71667750D01*
X99869750Y-71667750D01*
X99869750Y-72669750D01*
G37*
G36*
X118919750Y-72669750D02*
G01*
X117617750Y-72669750D01*
X117617750Y-71667750D01*
X118919750Y-71667750D01*
X118919750Y-72669750D01*
G37*
G36*
X135588500Y-72607250D02*
G01*
X134286500Y-72607250D01*
X134286500Y-71605250D01*
X135588500Y-71605250D01*
X135588500Y-72607250D01*
G37*
G36*
X154294064Y-69514389D02*
G01*
X154485333Y-69593615D01*
X154485335Y-69593616D01*
X154607325Y-69675127D01*
X154657473Y-69708635D01*
X154803865Y-69855027D01*
X154918885Y-70027167D01*
X154998111Y-70218436D01*
X155038500Y-70421484D01*
X155038500Y-70628516D01*
X154998111Y-70831564D01*
X154964025Y-70913854D01*
X154918884Y-71022835D01*
X154803865Y-71194973D01*
X154657473Y-71341365D01*
X154485335Y-71456384D01*
X154485334Y-71456385D01*
X154485333Y-71456385D01*
X154294064Y-71535611D01*
X154091016Y-71576000D01*
X153883984Y-71576000D01*
X153680936Y-71535611D01*
X153489667Y-71456385D01*
X153489666Y-71456385D01*
X153489665Y-71456384D01*
X153317527Y-71341365D01*
X153171135Y-71194973D01*
X153056116Y-71022835D01*
X153010975Y-70913854D01*
X152976889Y-70831564D01*
X152936500Y-70628516D01*
X152936500Y-70421484D01*
X152976889Y-70218436D01*
X153056115Y-70027167D01*
X153171135Y-69855027D01*
X153317527Y-69708635D01*
X153367675Y-69675127D01*
X153489665Y-69593616D01*
X153489667Y-69593615D01*
X153680936Y-69514389D01*
X153883984Y-69474000D01*
X154091016Y-69474000D01*
X154294064Y-69514389D01*
G37*
G36*
X75993854Y-69753335D02*
G01*
X76162376Y-69823139D01*
X76314041Y-69924478D01*
X76443022Y-70053459D01*
X76544361Y-70205124D01*
X76614165Y-70373646D01*
X76649750Y-70552547D01*
X76649750Y-70734953D01*
X76614165Y-70913854D01*
X76544361Y-71082376D01*
X76443022Y-71234041D01*
X76314041Y-71363022D01*
X76162376Y-71464361D01*
X75993854Y-71534165D01*
X75814953Y-71569750D01*
X75632547Y-71569750D01*
X75453646Y-71534165D01*
X75285124Y-71464361D01*
X75133459Y-71363022D01*
X75004478Y-71234041D01*
X74903139Y-71082376D01*
X74833335Y-70913854D01*
X74797750Y-70734953D01*
X74797750Y-70552547D01*
X74833335Y-70373646D01*
X74903139Y-70205124D01*
X75004478Y-70053459D01*
X75133459Y-69924478D01*
X75285124Y-69823139D01*
X75453646Y-69753335D01*
X75632547Y-69717750D01*
X75814953Y-69717750D01*
X75993854Y-69753335D01*
G37*
G36*
X27733854Y-69753335D02*
G01*
X27902376Y-69823139D01*
X28054041Y-69924478D01*
X28183022Y-70053459D01*
X28284361Y-70205124D01*
X28354165Y-70373646D01*
X28389750Y-70552547D01*
X28389750Y-70734953D01*
X28354165Y-70913854D01*
X28284361Y-71082376D01*
X28183022Y-71234041D01*
X28054041Y-71363022D01*
X27902376Y-71464361D01*
X27733854Y-71534165D01*
X27554953Y-71569750D01*
X27372547Y-71569750D01*
X27193646Y-71534165D01*
X27025124Y-71464361D01*
X26873459Y-71363022D01*
X26744478Y-71234041D01*
X26643139Y-71082376D01*
X26573335Y-70913854D01*
X26537750Y-70734953D01*
X26537750Y-70552547D01*
X26573335Y-70373646D01*
X26643139Y-70205124D01*
X26744478Y-70053459D01*
X26873459Y-69924478D01*
X27025124Y-69823139D01*
X27193646Y-69753335D01*
X27372547Y-69717750D01*
X27554953Y-69717750D01*
X27733854Y-69753335D01*
G37*
G36*
X103933854Y-69753335D02*
G01*
X104102376Y-69823139D01*
X104254041Y-69924478D01*
X104383022Y-70053459D01*
X104484361Y-70205124D01*
X104554165Y-70373646D01*
X104589750Y-70552547D01*
X104589750Y-70734953D01*
X104554165Y-70913854D01*
X104484361Y-71082376D01*
X104383022Y-71234041D01*
X104254041Y-71363022D01*
X104102376Y-71464361D01*
X103933854Y-71534165D01*
X103754953Y-71569750D01*
X103572547Y-71569750D01*
X103393646Y-71534165D01*
X103225124Y-71464361D01*
X103073459Y-71363022D01*
X102944478Y-71234041D01*
X102843139Y-71082376D01*
X102773335Y-70913854D01*
X102737750Y-70734953D01*
X102737750Y-70552547D01*
X102773335Y-70373646D01*
X102843139Y-70205124D01*
X102944478Y-70053459D01*
X103073459Y-69924478D01*
X103225124Y-69823139D01*
X103393646Y-69753335D01*
X103572547Y-69717750D01*
X103754953Y-69717750D01*
X103933854Y-69753335D01*
G37*
G36*
X114093854Y-69753335D02*
G01*
X114262376Y-69823139D01*
X114414041Y-69924478D01*
X114543022Y-70053459D01*
X114644361Y-70205124D01*
X114714165Y-70373646D01*
X114749750Y-70552547D01*
X114749750Y-70734953D01*
X114714165Y-70913854D01*
X114644361Y-71082376D01*
X114543022Y-71234041D01*
X114414041Y-71363022D01*
X114262376Y-71464361D01*
X114093854Y-71534165D01*
X113914953Y-71569750D01*
X113732547Y-71569750D01*
X113553646Y-71534165D01*
X113385124Y-71464361D01*
X113233459Y-71363022D01*
X113104478Y-71234041D01*
X113003139Y-71082376D01*
X112933335Y-70913854D01*
X112897750Y-70734953D01*
X112897750Y-70552547D01*
X112933335Y-70373646D01*
X113003139Y-70205124D01*
X113104478Y-70053459D01*
X113233459Y-69924478D01*
X113385124Y-69823139D01*
X113553646Y-69753335D01*
X113732547Y-69717750D01*
X113914953Y-69717750D01*
X114093854Y-69753335D01*
G37*
G36*
X37893854Y-69753335D02*
G01*
X38062376Y-69823139D01*
X38214041Y-69924478D01*
X38343022Y-70053459D01*
X38444361Y-70205124D01*
X38514165Y-70373646D01*
X38549750Y-70552547D01*
X38549750Y-70734953D01*
X38514165Y-70913854D01*
X38444361Y-71082376D01*
X38343022Y-71234041D01*
X38214041Y-71363022D01*
X38062376Y-71464361D01*
X37893854Y-71534165D01*
X37714953Y-71569750D01*
X37532547Y-71569750D01*
X37353646Y-71534165D01*
X37185124Y-71464361D01*
X37033459Y-71363022D01*
X36904478Y-71234041D01*
X36803139Y-71082376D01*
X36733335Y-70913854D01*
X36697750Y-70734953D01*
X36697750Y-70552547D01*
X36733335Y-70373646D01*
X36803139Y-70205124D01*
X36904478Y-70053459D01*
X37033459Y-69924478D01*
X37185124Y-69823139D01*
X37353646Y-69753335D01*
X37532547Y-69717750D01*
X37714953Y-69717750D01*
X37893854Y-69753335D01*
G37*
G36*
X84883854Y-69753335D02*
G01*
X85052376Y-69823139D01*
X85204041Y-69924478D01*
X85333022Y-70053459D01*
X85434361Y-70205124D01*
X85504165Y-70373646D01*
X85539750Y-70552547D01*
X85539750Y-70734953D01*
X85504165Y-70913854D01*
X85434361Y-71082376D01*
X85333022Y-71234041D01*
X85204041Y-71363022D01*
X85052376Y-71464361D01*
X84883854Y-71534165D01*
X84704953Y-71569750D01*
X84522547Y-71569750D01*
X84343646Y-71534165D01*
X84175124Y-71464361D01*
X84023459Y-71363022D01*
X83894478Y-71234041D01*
X83793139Y-71082376D01*
X83723335Y-70913854D01*
X83687750Y-70734953D01*
X83687750Y-70552547D01*
X83723335Y-70373646D01*
X83793139Y-70205124D01*
X83894478Y-70053459D01*
X84023459Y-69924478D01*
X84175124Y-69823139D01*
X84343646Y-69753335D01*
X84522547Y-69717750D01*
X84704953Y-69717750D01*
X84883854Y-69753335D01*
G37*
G36*
X95043854Y-69753335D02*
G01*
X95212376Y-69823139D01*
X95364041Y-69924478D01*
X95493022Y-70053459D01*
X95594361Y-70205124D01*
X95664165Y-70373646D01*
X95699750Y-70552547D01*
X95699750Y-70734953D01*
X95664165Y-70913854D01*
X95594361Y-71082376D01*
X95493022Y-71234041D01*
X95364041Y-71363022D01*
X95212376Y-71464361D01*
X95043854Y-71534165D01*
X94864953Y-71569750D01*
X94682547Y-71569750D01*
X94503646Y-71534165D01*
X94335124Y-71464361D01*
X94183459Y-71363022D01*
X94054478Y-71234041D01*
X93953139Y-71082376D01*
X93883335Y-70913854D01*
X93847750Y-70734953D01*
X93847750Y-70552547D01*
X93883335Y-70373646D01*
X93953139Y-70205124D01*
X94054478Y-70053459D01*
X94183459Y-69924478D01*
X94335124Y-69823139D01*
X94503646Y-69753335D01*
X94682547Y-69717750D01*
X94864953Y-69717750D01*
X95043854Y-69753335D01*
G37*
G36*
X46783854Y-69753335D02*
G01*
X46952376Y-69823139D01*
X47104041Y-69924478D01*
X47233022Y-70053459D01*
X47334361Y-70205124D01*
X47404165Y-70373646D01*
X47439750Y-70552547D01*
X47439750Y-70734953D01*
X47404165Y-70913854D01*
X47334361Y-71082376D01*
X47233022Y-71234041D01*
X47104041Y-71363022D01*
X46952376Y-71464361D01*
X46783854Y-71534165D01*
X46604953Y-71569750D01*
X46422547Y-71569750D01*
X46243646Y-71534165D01*
X46075124Y-71464361D01*
X45923459Y-71363022D01*
X45794478Y-71234041D01*
X45693139Y-71082376D01*
X45623335Y-70913854D01*
X45587750Y-70734953D01*
X45587750Y-70552547D01*
X45623335Y-70373646D01*
X45693139Y-70205124D01*
X45794478Y-70053459D01*
X45923459Y-69924478D01*
X46075124Y-69823139D01*
X46243646Y-69753335D01*
X46422547Y-69717750D01*
X46604953Y-69717750D01*
X46783854Y-69753335D01*
G37*
G36*
X65833854Y-69753335D02*
G01*
X66002376Y-69823139D01*
X66154041Y-69924478D01*
X66283022Y-70053459D01*
X66384361Y-70205124D01*
X66454165Y-70373646D01*
X66489750Y-70552547D01*
X66489750Y-70734953D01*
X66454165Y-70913854D01*
X66384361Y-71082376D01*
X66283022Y-71234041D01*
X66154041Y-71363022D01*
X66002376Y-71464361D01*
X65833854Y-71534165D01*
X65654953Y-71569750D01*
X65472547Y-71569750D01*
X65293646Y-71534165D01*
X65125124Y-71464361D01*
X64973459Y-71363022D01*
X64844478Y-71234041D01*
X64743139Y-71082376D01*
X64673335Y-70913854D01*
X64637750Y-70734953D01*
X64637750Y-70552547D01*
X64673335Y-70373646D01*
X64743139Y-70205124D01*
X64844478Y-70053459D01*
X64973459Y-69924478D01*
X65125124Y-69823139D01*
X65293646Y-69753335D01*
X65472547Y-69717750D01*
X65654953Y-69717750D01*
X65833854Y-69753335D01*
G37*
G36*
X56943854Y-69753335D02*
G01*
X57112376Y-69823139D01*
X57264041Y-69924478D01*
X57393022Y-70053459D01*
X57494361Y-70205124D01*
X57564165Y-70373646D01*
X57599750Y-70552547D01*
X57599750Y-70734953D01*
X57564165Y-70913854D01*
X57494361Y-71082376D01*
X57393022Y-71234041D01*
X57264041Y-71363022D01*
X57112376Y-71464361D01*
X56943854Y-71534165D01*
X56764953Y-71569750D01*
X56582547Y-71569750D01*
X56403646Y-71534165D01*
X56235124Y-71464361D01*
X56083459Y-71363022D01*
X55954478Y-71234041D01*
X55853139Y-71082376D01*
X55783335Y-70913854D01*
X55747750Y-70734953D01*
X55747750Y-70552547D01*
X55783335Y-70373646D01*
X55853139Y-70205124D01*
X55954478Y-70053459D01*
X56083459Y-69924478D01*
X56235124Y-69823139D01*
X56403646Y-69753335D01*
X56582547Y-69717750D01*
X56764953Y-69717750D01*
X56943854Y-69753335D01*
G37*
G36*
X28925310Y-66942814D02*
G01*
X29076777Y-66972943D01*
X29290795Y-67061592D01*
X29290796Y-67061593D01*
X29483404Y-67190289D01*
X29647211Y-67354096D01*
X29733008Y-67482501D01*
X29775908Y-67546705D01*
X29864557Y-67760723D01*
X29909750Y-67987924D01*
X29909750Y-68219576D01*
X29864557Y-68446777D01*
X29775908Y-68660795D01*
X29775907Y-68660796D01*
X29647211Y-68853404D01*
X29483404Y-69017211D01*
X29354999Y-69103008D01*
X29290795Y-69145908D01*
X29076777Y-69234557D01*
X28925310Y-69264686D01*
X28849577Y-69279750D01*
X28617923Y-69279750D01*
X28542190Y-69264686D01*
X28390723Y-69234557D01*
X28176705Y-69145908D01*
X28112501Y-69103008D01*
X27984096Y-69017211D01*
X27820289Y-68853404D01*
X27691593Y-68660796D01*
X27691592Y-68660795D01*
X27602943Y-68446777D01*
X27557750Y-68219576D01*
X27557750Y-67987924D01*
X27602943Y-67760723D01*
X27691592Y-67546705D01*
X27734492Y-67482501D01*
X27820289Y-67354096D01*
X27984096Y-67190289D01*
X28176704Y-67061593D01*
X28176705Y-67061592D01*
X28390723Y-66972943D01*
X28542190Y-66942814D01*
X28617923Y-66927750D01*
X28849577Y-66927750D01*
X28925310Y-66942814D01*
G37*
G36*
X47975310Y-66942814D02*
G01*
X48126777Y-66972943D01*
X48340795Y-67061592D01*
X48340796Y-67061593D01*
X48533404Y-67190289D01*
X48697211Y-67354096D01*
X48783008Y-67482501D01*
X48825908Y-67546705D01*
X48914557Y-67760723D01*
X48959750Y-67987924D01*
X48959750Y-68219576D01*
X48914557Y-68446777D01*
X48825908Y-68660795D01*
X48825907Y-68660796D01*
X48697211Y-68853404D01*
X48533404Y-69017211D01*
X48404999Y-69103008D01*
X48340795Y-69145908D01*
X48126777Y-69234557D01*
X47975310Y-69264686D01*
X47899577Y-69279750D01*
X47667923Y-69279750D01*
X47592190Y-69264686D01*
X47440723Y-69234557D01*
X47226705Y-69145908D01*
X47162501Y-69103008D01*
X47034096Y-69017211D01*
X46870289Y-68853404D01*
X46741593Y-68660796D01*
X46741592Y-68660795D01*
X46652943Y-68446777D01*
X46607750Y-68219576D01*
X46607750Y-67987924D01*
X46652943Y-67760723D01*
X46741592Y-67546705D01*
X46784492Y-67482501D01*
X46870289Y-67354096D01*
X47034096Y-67190289D01*
X47226704Y-67061593D01*
X47226705Y-67061592D01*
X47440723Y-66972943D01*
X47592190Y-66942814D01*
X47667923Y-66927750D01*
X47899577Y-66927750D01*
X47975310Y-66942814D01*
G37*
G36*
X67025310Y-66942814D02*
G01*
X67176777Y-66972943D01*
X67390795Y-67061592D01*
X67390796Y-67061593D01*
X67583404Y-67190289D01*
X67747211Y-67354096D01*
X67833008Y-67482501D01*
X67875908Y-67546705D01*
X67964557Y-67760723D01*
X68009750Y-67987924D01*
X68009750Y-68219576D01*
X67964557Y-68446777D01*
X67875908Y-68660795D01*
X67875907Y-68660796D01*
X67747211Y-68853404D01*
X67583404Y-69017211D01*
X67454999Y-69103008D01*
X67390795Y-69145908D01*
X67176777Y-69234557D01*
X67025310Y-69264686D01*
X66949577Y-69279750D01*
X66717923Y-69279750D01*
X66642190Y-69264686D01*
X66490723Y-69234557D01*
X66276705Y-69145908D01*
X66212501Y-69103008D01*
X66084096Y-69017211D01*
X65920289Y-68853404D01*
X65791593Y-68660796D01*
X65791592Y-68660795D01*
X65702943Y-68446777D01*
X65657750Y-68219576D01*
X65657750Y-67987924D01*
X65702943Y-67760723D01*
X65791592Y-67546705D01*
X65834492Y-67482501D01*
X65920289Y-67354096D01*
X66084096Y-67190289D01*
X66276704Y-67061593D01*
X66276705Y-67061592D01*
X66490723Y-66972943D01*
X66642190Y-66942814D01*
X66717923Y-66927750D01*
X66949577Y-66927750D01*
X67025310Y-66942814D01*
G37*
G36*
X86075310Y-66942814D02*
G01*
X86226777Y-66972943D01*
X86440795Y-67061592D01*
X86440796Y-67061593D01*
X86633404Y-67190289D01*
X86797211Y-67354096D01*
X86883008Y-67482501D01*
X86925908Y-67546705D01*
X87014557Y-67760723D01*
X87059750Y-67987924D01*
X87059750Y-68219576D01*
X87014557Y-68446777D01*
X86925908Y-68660795D01*
X86925907Y-68660796D01*
X86797211Y-68853404D01*
X86633404Y-69017211D01*
X86504999Y-69103008D01*
X86440795Y-69145908D01*
X86226777Y-69234557D01*
X86075310Y-69264686D01*
X85999577Y-69279750D01*
X85767923Y-69279750D01*
X85692190Y-69264686D01*
X85540723Y-69234557D01*
X85326705Y-69145908D01*
X85262501Y-69103008D01*
X85134096Y-69017211D01*
X84970289Y-68853404D01*
X84841593Y-68660796D01*
X84841592Y-68660795D01*
X84752943Y-68446777D01*
X84707750Y-68219576D01*
X84707750Y-67987924D01*
X84752943Y-67760723D01*
X84841592Y-67546705D01*
X84884492Y-67482501D01*
X84970289Y-67354096D01*
X85134096Y-67190289D01*
X85326704Y-67061593D01*
X85326705Y-67061592D01*
X85540723Y-66972943D01*
X85692190Y-66942814D01*
X85767923Y-66927750D01*
X85999577Y-66927750D01*
X86075310Y-66942814D01*
G37*
G36*
X105125310Y-66942814D02*
G01*
X105276777Y-66972943D01*
X105490795Y-67061592D01*
X105490796Y-67061593D01*
X105683404Y-67190289D01*
X105847211Y-67354096D01*
X105933008Y-67482501D01*
X105975908Y-67546705D01*
X106064557Y-67760723D01*
X106109750Y-67987924D01*
X106109750Y-68219576D01*
X106064557Y-68446777D01*
X105975908Y-68660795D01*
X105975907Y-68660796D01*
X105847211Y-68853404D01*
X105683404Y-69017211D01*
X105554999Y-69103008D01*
X105490795Y-69145908D01*
X105276777Y-69234557D01*
X105125310Y-69264686D01*
X105049577Y-69279750D01*
X104817923Y-69279750D01*
X104742190Y-69264686D01*
X104590723Y-69234557D01*
X104376705Y-69145908D01*
X104312501Y-69103008D01*
X104184096Y-69017211D01*
X104020289Y-68853404D01*
X103891593Y-68660796D01*
X103891592Y-68660795D01*
X103802943Y-68446777D01*
X103757750Y-68219576D01*
X103757750Y-67987924D01*
X103802943Y-67760723D01*
X103891592Y-67546705D01*
X103934492Y-67482501D01*
X104020289Y-67354096D01*
X104184096Y-67190289D01*
X104376704Y-67061593D01*
X104376705Y-67061592D01*
X104590723Y-66972943D01*
X104742190Y-66942814D01*
X104817923Y-66927750D01*
X105049577Y-66927750D01*
X105125310Y-66942814D01*
G37*
G36*
X139794064Y-67014389D02*
G01*
X139985333Y-67093615D01*
X139985335Y-67093616D01*
X140130016Y-67190289D01*
X140157473Y-67208635D01*
X140303865Y-67355027D01*
X140418885Y-67527167D01*
X140498111Y-67718436D01*
X140538500Y-67921484D01*
X140538500Y-68128516D01*
X140498111Y-68331564D01*
X140450389Y-68446775D01*
X140418884Y-68522835D01*
X140303865Y-68694973D01*
X140157473Y-68841365D01*
X139985335Y-68956384D01*
X139985334Y-68956385D01*
X139985333Y-68956385D01*
X139794064Y-69035611D01*
X139591016Y-69076000D01*
X139383984Y-69076000D01*
X139180936Y-69035611D01*
X138989667Y-68956385D01*
X138989666Y-68956385D01*
X138989665Y-68956384D01*
X138817527Y-68841365D01*
X138671135Y-68694973D01*
X138556116Y-68522835D01*
X138524611Y-68446775D01*
X138476889Y-68331564D01*
X138436500Y-68128516D01*
X138436500Y-67921484D01*
X138476889Y-67718436D01*
X138556115Y-67527167D01*
X138671135Y-67355027D01*
X138817527Y-67208635D01*
X138844984Y-67190289D01*
X138989665Y-67093616D01*
X138989667Y-67093615D01*
X139180936Y-67014389D01*
X139383984Y-66974000D01*
X139591016Y-66974000D01*
X139794064Y-67014389D01*
G37*
G36*
X154294064Y-67014389D02*
G01*
X154485333Y-67093615D01*
X154485335Y-67093616D01*
X154630016Y-67190289D01*
X154657473Y-67208635D01*
X154803865Y-67355027D01*
X154918885Y-67527167D01*
X154998111Y-67718436D01*
X155038500Y-67921484D01*
X155038500Y-68128516D01*
X154998111Y-68331564D01*
X154950389Y-68446775D01*
X154918884Y-68522835D01*
X154803865Y-68694973D01*
X154657473Y-68841365D01*
X154485335Y-68956384D01*
X154485334Y-68956385D01*
X154485333Y-68956385D01*
X154294064Y-69035611D01*
X154091016Y-69076000D01*
X153883984Y-69076000D01*
X153680936Y-69035611D01*
X153489667Y-68956385D01*
X153489666Y-68956385D01*
X153489665Y-68956384D01*
X153317527Y-68841365D01*
X153171135Y-68694973D01*
X153056116Y-68522835D01*
X153024611Y-68446775D01*
X152976889Y-68331564D01*
X152936500Y-68128516D01*
X152936500Y-67921484D01*
X152976889Y-67718436D01*
X153056115Y-67527167D01*
X153171135Y-67355027D01*
X153317527Y-67208635D01*
X153344984Y-67190289D01*
X153489665Y-67093616D01*
X153489667Y-67093615D01*
X153680936Y-67014389D01*
X153883984Y-66974000D01*
X154091016Y-66974000D01*
X154294064Y-67014389D01*
G37*
G36*
X54325310Y-64402814D02*
G01*
X54476777Y-64432943D01*
X54690795Y-64521592D01*
X54690796Y-64521593D01*
X54883404Y-64650289D01*
X55047211Y-64814096D01*
X55133008Y-64942501D01*
X55175908Y-65006705D01*
X55264557Y-65220723D01*
X55309750Y-65447924D01*
X55309750Y-65679576D01*
X55264557Y-65906777D01*
X55175908Y-66120795D01*
X55175907Y-66120796D01*
X55047211Y-66313404D01*
X54883404Y-66477211D01*
X54754999Y-66563008D01*
X54690795Y-66605908D01*
X54476777Y-66694557D01*
X54325310Y-66724686D01*
X54249577Y-66739750D01*
X54017923Y-66739750D01*
X53942190Y-66724686D01*
X53790723Y-66694557D01*
X53576705Y-66605908D01*
X53512501Y-66563008D01*
X53384096Y-66477211D01*
X53220289Y-66313404D01*
X53091593Y-66120796D01*
X53091592Y-66120795D01*
X53002943Y-65906777D01*
X52957750Y-65679576D01*
X52957750Y-65447924D01*
X53002943Y-65220723D01*
X53091592Y-65006705D01*
X53134492Y-64942501D01*
X53220289Y-64814096D01*
X53384096Y-64650289D01*
X53576704Y-64521593D01*
X53576705Y-64521592D01*
X53790723Y-64432943D01*
X53942190Y-64402814D01*
X54017923Y-64387750D01*
X54249577Y-64387750D01*
X54325310Y-64402814D01*
G37*
G36*
X92425310Y-64402814D02*
G01*
X92576777Y-64432943D01*
X92790795Y-64521592D01*
X92790796Y-64521593D01*
X92983404Y-64650289D01*
X93147211Y-64814096D01*
X93233008Y-64942501D01*
X93275908Y-65006705D01*
X93364557Y-65220723D01*
X93409750Y-65447924D01*
X93409750Y-65679576D01*
X93364557Y-65906777D01*
X93275908Y-66120795D01*
X93275907Y-66120796D01*
X93147211Y-66313404D01*
X92983404Y-66477211D01*
X92854999Y-66563008D01*
X92790795Y-66605908D01*
X92576777Y-66694557D01*
X92425310Y-66724686D01*
X92349577Y-66739750D01*
X92117923Y-66739750D01*
X92042190Y-66724686D01*
X91890723Y-66694557D01*
X91676705Y-66605908D01*
X91612501Y-66563008D01*
X91484096Y-66477211D01*
X91320289Y-66313404D01*
X91191593Y-66120796D01*
X91191592Y-66120795D01*
X91102943Y-65906777D01*
X91057750Y-65679576D01*
X91057750Y-65447924D01*
X91102943Y-65220723D01*
X91191592Y-65006705D01*
X91234492Y-64942501D01*
X91320289Y-64814096D01*
X91484096Y-64650289D01*
X91676704Y-64521593D01*
X91676705Y-64521592D01*
X91890723Y-64432943D01*
X92042190Y-64402814D01*
X92117923Y-64387750D01*
X92349577Y-64387750D01*
X92425310Y-64402814D01*
G37*
G36*
X73375310Y-64402814D02*
G01*
X73526777Y-64432943D01*
X73740795Y-64521592D01*
X73740796Y-64521593D01*
X73933404Y-64650289D01*
X74097211Y-64814096D01*
X74183008Y-64942501D01*
X74225908Y-65006705D01*
X74314557Y-65220723D01*
X74359750Y-65447924D01*
X74359750Y-65679576D01*
X74314557Y-65906777D01*
X74225908Y-66120795D01*
X74225907Y-66120796D01*
X74097211Y-66313404D01*
X73933404Y-66477211D01*
X73804999Y-66563008D01*
X73740795Y-66605908D01*
X73526777Y-66694557D01*
X73375310Y-66724686D01*
X73299577Y-66739750D01*
X73067923Y-66739750D01*
X72992190Y-66724686D01*
X72840723Y-66694557D01*
X72626705Y-66605908D01*
X72562501Y-66563008D01*
X72434096Y-66477211D01*
X72270289Y-66313404D01*
X72141593Y-66120796D01*
X72141592Y-66120795D01*
X72052943Y-65906777D01*
X72007750Y-65679576D01*
X72007750Y-65447924D01*
X72052943Y-65220723D01*
X72141592Y-65006705D01*
X72184492Y-64942501D01*
X72270289Y-64814096D01*
X72434096Y-64650289D01*
X72626704Y-64521593D01*
X72626705Y-64521592D01*
X72840723Y-64432943D01*
X72992190Y-64402814D01*
X73067923Y-64387750D01*
X73299577Y-64387750D01*
X73375310Y-64402814D01*
G37*
G36*
X111475310Y-64402814D02*
G01*
X111626777Y-64432943D01*
X111840795Y-64521592D01*
X111840796Y-64521593D01*
X112033404Y-64650289D01*
X112197211Y-64814096D01*
X112283008Y-64942501D01*
X112325908Y-65006705D01*
X112414557Y-65220723D01*
X112459750Y-65447924D01*
X112459750Y-65679576D01*
X112414557Y-65906777D01*
X112325908Y-66120795D01*
X112325907Y-66120796D01*
X112197211Y-66313404D01*
X112033404Y-66477211D01*
X111904999Y-66563008D01*
X111840795Y-66605908D01*
X111626777Y-66694557D01*
X111475310Y-66724686D01*
X111399577Y-66739750D01*
X111167923Y-66739750D01*
X111092190Y-66724686D01*
X110940723Y-66694557D01*
X110726705Y-66605908D01*
X110662501Y-66563008D01*
X110534096Y-66477211D01*
X110370289Y-66313404D01*
X110241593Y-66120796D01*
X110241592Y-66120795D01*
X110152943Y-65906777D01*
X110107750Y-65679576D01*
X110107750Y-65447924D01*
X110152943Y-65220723D01*
X110241592Y-65006705D01*
X110284492Y-64942501D01*
X110370289Y-64814096D01*
X110534096Y-64650289D01*
X110726704Y-64521593D01*
X110726705Y-64521592D01*
X110940723Y-64432943D01*
X111092190Y-64402814D01*
X111167923Y-64387750D01*
X111399577Y-64387750D01*
X111475310Y-64402814D01*
G37*
G36*
X35275310Y-64402814D02*
G01*
X35426777Y-64432943D01*
X35640795Y-64521592D01*
X35640796Y-64521593D01*
X35833404Y-64650289D01*
X35997211Y-64814096D01*
X36083008Y-64942501D01*
X36125908Y-65006705D01*
X36214557Y-65220723D01*
X36259750Y-65447924D01*
X36259750Y-65679576D01*
X36214557Y-65906777D01*
X36125908Y-66120795D01*
X36125907Y-66120796D01*
X35997211Y-66313404D01*
X35833404Y-66477211D01*
X35704999Y-66563008D01*
X35640795Y-66605908D01*
X35426777Y-66694557D01*
X35275310Y-66724686D01*
X35199577Y-66739750D01*
X34967923Y-66739750D01*
X34892190Y-66724686D01*
X34740723Y-66694557D01*
X34526705Y-66605908D01*
X34462501Y-66563008D01*
X34334096Y-66477211D01*
X34170289Y-66313404D01*
X34041593Y-66120796D01*
X34041592Y-66120795D01*
X33952943Y-65906777D01*
X33907750Y-65679576D01*
X33907750Y-65447924D01*
X33952943Y-65220723D01*
X34041592Y-65006705D01*
X34084492Y-64942501D01*
X34170289Y-64814096D01*
X34334096Y-64650289D01*
X34526704Y-64521593D01*
X34526705Y-64521592D01*
X34740723Y-64432943D01*
X34892190Y-64402814D01*
X34967923Y-64387750D01*
X35199577Y-64387750D01*
X35275310Y-64402814D01*
G37*
G36*
X148038500Y-66226000D02*
G01*
X144936500Y-66226000D01*
X144936500Y-63624000D01*
X148038500Y-63624000D01*
X148038500Y-66226000D01*
G37*
G36*
X150246968Y-61959815D02*
G01*
X150285638Y-61971546D01*
X150321277Y-61990596D01*
X150352517Y-62016233D01*
X150378154Y-62047473D01*
X150397204Y-62083112D01*
X150408935Y-62121782D01*
X150413500Y-62168138D01*
X150413500Y-63244362D01*
X150408935Y-63290718D01*
X150397204Y-63329388D01*
X150378154Y-63365027D01*
X150352517Y-63396267D01*
X150321277Y-63421904D01*
X150285638Y-63440954D01*
X150246968Y-63452685D01*
X150200612Y-63457250D01*
X149549388Y-63457250D01*
X149503032Y-63452685D01*
X149464362Y-63440954D01*
X149428723Y-63421904D01*
X149397483Y-63396267D01*
X149371846Y-63365027D01*
X149352796Y-63329388D01*
X149341065Y-63290718D01*
X149336500Y-63244362D01*
X149336500Y-62168138D01*
X149341065Y-62121782D01*
X149352796Y-62083112D01*
X149371846Y-62047473D01*
X149397483Y-62016233D01*
X149428723Y-61990596D01*
X149464362Y-61971546D01*
X149503032Y-61959815D01*
X149549388Y-61955250D01*
X150200612Y-61955250D01*
X150246968Y-61959815D01*
G37*
G36*
X152121968Y-61959815D02*
G01*
X152160638Y-61971546D01*
X152196277Y-61990596D01*
X152227517Y-62016233D01*
X152253154Y-62047473D01*
X152272204Y-62083112D01*
X152283935Y-62121782D01*
X152288500Y-62168138D01*
X152288500Y-63244362D01*
X152283935Y-63290718D01*
X152272204Y-63329388D01*
X152253154Y-63365027D01*
X152227517Y-63396267D01*
X152196277Y-63421904D01*
X152160638Y-63440954D01*
X152121968Y-63452685D01*
X152075612Y-63457250D01*
X151424388Y-63457250D01*
X151378032Y-63452685D01*
X151339362Y-63440954D01*
X151303723Y-63421904D01*
X151272483Y-63396267D01*
X151246846Y-63365027D01*
X151227796Y-63329388D01*
X151216065Y-63290718D01*
X151211500Y-63244362D01*
X151211500Y-62168138D01*
X151216065Y-62121782D01*
X151227796Y-62083112D01*
X151246846Y-62047473D01*
X151272483Y-62016233D01*
X151303723Y-61990596D01*
X151339362Y-61971546D01*
X151378032Y-61959815D01*
X151424388Y-61955250D01*
X152075612Y-61955250D01*
X152121968Y-61959815D01*
G37*
G36*
X137903218Y-62316065D02*
G01*
X137941888Y-62327796D01*
X137977527Y-62346846D01*
X138008767Y-62372483D01*
X138034404Y-62403723D01*
X138053454Y-62439362D01*
X138065185Y-62478032D01*
X138069750Y-62524388D01*
X138069750Y-63175612D01*
X138065185Y-63221968D01*
X138053454Y-63260638D01*
X138034404Y-63296277D01*
X138008767Y-63327517D01*
X137977527Y-63353154D01*
X137941888Y-63372204D01*
X137903218Y-63383935D01*
X137856862Y-63388500D01*
X136780638Y-63388500D01*
X136734282Y-63383935D01*
X136695612Y-63372204D01*
X136659973Y-63353154D01*
X136628733Y-63327517D01*
X136603096Y-63296277D01*
X136584046Y-63260638D01*
X136572315Y-63221968D01*
X136567750Y-63175612D01*
X136567750Y-62524388D01*
X136572315Y-62478032D01*
X136584046Y-62439362D01*
X136603096Y-62403723D01*
X136628733Y-62372483D01*
X136659973Y-62346846D01*
X136695612Y-62327796D01*
X136734282Y-62316065D01*
X136780638Y-62311500D01*
X137856862Y-62311500D01*
X137903218Y-62316065D01*
G37*
G36*
X137903218Y-60441065D02*
G01*
X137941888Y-60452796D01*
X137977527Y-60471846D01*
X138008767Y-60497483D01*
X138034404Y-60528723D01*
X138053454Y-60564362D01*
X138065185Y-60603032D01*
X138069750Y-60649388D01*
X138069750Y-61300612D01*
X138065185Y-61346968D01*
X138053454Y-61385638D01*
X138034404Y-61421277D01*
X138008767Y-61452517D01*
X137977527Y-61478154D01*
X137941888Y-61497204D01*
X137903218Y-61508935D01*
X137856862Y-61513500D01*
X136780638Y-61513500D01*
X136734282Y-61508935D01*
X136695612Y-61497204D01*
X136659973Y-61478154D01*
X136628733Y-61452517D01*
X136603096Y-61421277D01*
X136584046Y-61385638D01*
X136572315Y-61346968D01*
X136567750Y-61300612D01*
X136567750Y-60649388D01*
X136572315Y-60603032D01*
X136584046Y-60564362D01*
X136603096Y-60528723D01*
X136628733Y-60497483D01*
X136659973Y-60471846D01*
X136695612Y-60452796D01*
X136734282Y-60441065D01*
X136780638Y-60436500D01*
X137856862Y-60436500D01*
X137903218Y-60441065D01*
G37*
G36*
X151169750Y-60476000D02*
G01*
X142517750Y-60476000D01*
X142517750Y-58874000D01*
X151169750Y-58874000D01*
X151169750Y-60476000D01*
G37*
G36*
X156159468Y-59363315D02*
G01*
X156198138Y-59375046D01*
X156233777Y-59394096D01*
X156265017Y-59419733D01*
X156290654Y-59450973D01*
X156309704Y-59486612D01*
X156321435Y-59525282D01*
X156326000Y-59571638D01*
X156326000Y-60222862D01*
X156321435Y-60269218D01*
X156309704Y-60307888D01*
X156290654Y-60343527D01*
X156265017Y-60374767D01*
X156233777Y-60400404D01*
X156198138Y-60419454D01*
X156159468Y-60431185D01*
X156113112Y-60435750D01*
X155036888Y-60435750D01*
X154990532Y-60431185D01*
X154951862Y-60419454D01*
X154916223Y-60400404D01*
X154884983Y-60374767D01*
X154859346Y-60343527D01*
X154840296Y-60307888D01*
X154828565Y-60269218D01*
X154824000Y-60222862D01*
X154824000Y-59571638D01*
X154828565Y-59525282D01*
X154840296Y-59486612D01*
X154859346Y-59450973D01*
X154884983Y-59419733D01*
X154916223Y-59394096D01*
X154951862Y-59375046D01*
X154990532Y-59363315D01*
X155036888Y-59358750D01*
X156113112Y-59358750D01*
X156159468Y-59363315D01*
G37*
G36*
X156159468Y-57488315D02*
G01*
X156198138Y-57500046D01*
X156233777Y-57519096D01*
X156265017Y-57544733D01*
X156290654Y-57575973D01*
X156309704Y-57611612D01*
X156321435Y-57650282D01*
X156326000Y-57696638D01*
X156326000Y-58347862D01*
X156321435Y-58394218D01*
X156309704Y-58432888D01*
X156290654Y-58468527D01*
X156265017Y-58499767D01*
X156233777Y-58525404D01*
X156198138Y-58544454D01*
X156159468Y-58556185D01*
X156113112Y-58560750D01*
X155036888Y-58560750D01*
X154990532Y-58556185D01*
X154951862Y-58544454D01*
X154916223Y-58525404D01*
X154884983Y-58499767D01*
X154859346Y-58468527D01*
X154840296Y-58432888D01*
X154828565Y-58394218D01*
X154824000Y-58347862D01*
X154824000Y-57696638D01*
X154828565Y-57650282D01*
X154840296Y-57611612D01*
X154859346Y-57575973D01*
X154884983Y-57544733D01*
X154916223Y-57519096D01*
X154951862Y-57500046D01*
X154990532Y-57488315D01*
X155036888Y-57483750D01*
X156113112Y-57483750D01*
X156159468Y-57488315D01*
G37*
G36*
X141944750Y-58301000D02*
G01*
X140342750Y-58301000D01*
X140342750Y-49649000D01*
X141944750Y-49649000D01*
X141944750Y-58301000D01*
G37*
G36*
X153344750Y-58301000D02*
G01*
X151742750Y-58301000D01*
X151742750Y-49649000D01*
X153344750Y-49649000D01*
X153344750Y-58301000D01*
G37*
G36*
X137176000Y-57173750D02*
G01*
X135874000Y-57173750D01*
X135874000Y-56171750D01*
X137176000Y-56171750D01*
X137176000Y-57173750D01*
G37*
G36*
X118126000Y-56919750D02*
G01*
X116824000Y-56919750D01*
X116824000Y-55917750D01*
X118126000Y-55917750D01*
X118126000Y-56919750D01*
G37*
G36*
X42719750Y-56919750D02*
G01*
X41417750Y-56919750D01*
X41417750Y-55917750D01*
X42719750Y-55917750D01*
X42719750Y-56919750D01*
G37*
G36*
X61769750Y-56919750D02*
G01*
X60467750Y-56919750D01*
X60467750Y-55917750D01*
X61769750Y-55917750D01*
X61769750Y-56919750D01*
G37*
G36*
X80819750Y-56919750D02*
G01*
X79517750Y-56919750D01*
X79517750Y-55917750D01*
X80819750Y-55917750D01*
X80819750Y-56919750D01*
G37*
G36*
X99869750Y-56919750D02*
G01*
X98567750Y-56919750D01*
X98567750Y-55917750D01*
X99869750Y-55917750D01*
X99869750Y-56919750D01*
G37*
G36*
X137176000Y-53873750D02*
G01*
X135874000Y-53873750D01*
X135874000Y-52871750D01*
X137176000Y-52871750D01*
X137176000Y-53873750D01*
G37*
G36*
X71240224Y-49627434D02*
G01*
X71458224Y-49717733D01*
X71612373Y-49781583D01*
X71947298Y-50005373D01*
X72232127Y-50290202D01*
X72455917Y-50625127D01*
X72488312Y-50703336D01*
X72610066Y-50997276D01*
X72688650Y-51392344D01*
X72688650Y-51795156D01*
X72610066Y-52190224D01*
X72559201Y-52313022D01*
X72455917Y-52562373D01*
X72232127Y-52897298D01*
X71947298Y-53182127D01*
X71612373Y-53405917D01*
X71458224Y-53469767D01*
X71240224Y-53560066D01*
X70845156Y-53638650D01*
X70442344Y-53638650D01*
X70047276Y-53560066D01*
X69829276Y-53469767D01*
X69675127Y-53405917D01*
X69340202Y-53182127D01*
X69055373Y-52897298D01*
X68831583Y-52562373D01*
X68728299Y-52313022D01*
X68677434Y-52190224D01*
X68598850Y-51795156D01*
X68598850Y-51392344D01*
X68677434Y-50997276D01*
X68799188Y-50703336D01*
X68831583Y-50625127D01*
X69055373Y-50290202D01*
X69340202Y-50005373D01*
X69675127Y-49781583D01*
X69829276Y-49717733D01*
X70047276Y-49627434D01*
X70442344Y-49548850D01*
X70845156Y-49548850D01*
X71240224Y-49627434D01*
G37*
G36*
X90290224Y-49627434D02*
G01*
X90508224Y-49717733D01*
X90662373Y-49781583D01*
X90997298Y-50005373D01*
X91282127Y-50290202D01*
X91505917Y-50625127D01*
X91538312Y-50703336D01*
X91660066Y-50997276D01*
X91738650Y-51392344D01*
X91738650Y-51795156D01*
X91660066Y-52190224D01*
X91609201Y-52313022D01*
X91505917Y-52562373D01*
X91282127Y-52897298D01*
X90997298Y-53182127D01*
X90662373Y-53405917D01*
X90508224Y-53469767D01*
X90290224Y-53560066D01*
X89895156Y-53638650D01*
X89492344Y-53638650D01*
X89097276Y-53560066D01*
X88879276Y-53469767D01*
X88725127Y-53405917D01*
X88390202Y-53182127D01*
X88105373Y-52897298D01*
X87881583Y-52562373D01*
X87778299Y-52313022D01*
X87727434Y-52190224D01*
X87648850Y-51795156D01*
X87648850Y-51392344D01*
X87727434Y-50997276D01*
X87849188Y-50703336D01*
X87881583Y-50625127D01*
X88105373Y-50290202D01*
X88390202Y-50005373D01*
X88725127Y-49781583D01*
X88879276Y-49717733D01*
X89097276Y-49627434D01*
X89492344Y-49548850D01*
X89895156Y-49548850D01*
X90290224Y-49627434D01*
G37*
G36*
X52190224Y-49627434D02*
G01*
X52408224Y-49717733D01*
X52562373Y-49781583D01*
X52897298Y-50005373D01*
X53182127Y-50290202D01*
X53405917Y-50625127D01*
X53438312Y-50703336D01*
X53560066Y-50997276D01*
X53638650Y-51392344D01*
X53638650Y-51795156D01*
X53560066Y-52190224D01*
X53509201Y-52313022D01*
X53405917Y-52562373D01*
X53182127Y-52897298D01*
X52897298Y-53182127D01*
X52562373Y-53405917D01*
X52408224Y-53469767D01*
X52190224Y-53560066D01*
X51795156Y-53638650D01*
X51392344Y-53638650D01*
X50997276Y-53560066D01*
X50779276Y-53469767D01*
X50625127Y-53405917D01*
X50290202Y-53182127D01*
X50005373Y-52897298D01*
X49781583Y-52562373D01*
X49678299Y-52313022D01*
X49627434Y-52190224D01*
X49548850Y-51795156D01*
X49548850Y-51392344D01*
X49627434Y-50997276D01*
X49749188Y-50703336D01*
X49781583Y-50625127D01*
X50005373Y-50290202D01*
X50290202Y-50005373D01*
X50625127Y-49781583D01*
X50779276Y-49717733D01*
X50997276Y-49627434D01*
X51392344Y-49548850D01*
X51795156Y-49548850D01*
X52190224Y-49627434D01*
G37*
G36*
X109340224Y-49627434D02*
G01*
X109558224Y-49717733D01*
X109712373Y-49781583D01*
X110047298Y-50005373D01*
X110332127Y-50290202D01*
X110555917Y-50625127D01*
X110588312Y-50703336D01*
X110710066Y-50997276D01*
X110788650Y-51392344D01*
X110788650Y-51795156D01*
X110710066Y-52190224D01*
X110659201Y-52313022D01*
X110555917Y-52562373D01*
X110332127Y-52897298D01*
X110047298Y-53182127D01*
X109712373Y-53405917D01*
X109558224Y-53469767D01*
X109340224Y-53560066D01*
X108945156Y-53638650D01*
X108542344Y-53638650D01*
X108147276Y-53560066D01*
X107929276Y-53469767D01*
X107775127Y-53405917D01*
X107440202Y-53182127D01*
X107155373Y-52897298D01*
X106931583Y-52562373D01*
X106828299Y-52313022D01*
X106777434Y-52190224D01*
X106698850Y-51795156D01*
X106698850Y-51392344D01*
X106777434Y-50997276D01*
X106899188Y-50703336D01*
X106931583Y-50625127D01*
X107155373Y-50290202D01*
X107440202Y-50005373D01*
X107775127Y-49781583D01*
X107929276Y-49717733D01*
X108147276Y-49627434D01*
X108542344Y-49548850D01*
X108945156Y-49548850D01*
X109340224Y-49627434D01*
G37*
G36*
X33140224Y-49627434D02*
G01*
X33358224Y-49717733D01*
X33512373Y-49781583D01*
X33847298Y-50005373D01*
X34132127Y-50290202D01*
X34355917Y-50625127D01*
X34388312Y-50703336D01*
X34510066Y-50997276D01*
X34588650Y-51392344D01*
X34588650Y-51795156D01*
X34510066Y-52190224D01*
X34459201Y-52313022D01*
X34355917Y-52562373D01*
X34132127Y-52897298D01*
X33847298Y-53182127D01*
X33512373Y-53405917D01*
X33358224Y-53469767D01*
X33140224Y-53560066D01*
X32745156Y-53638650D01*
X32342344Y-53638650D01*
X31947276Y-53560066D01*
X31729276Y-53469767D01*
X31575127Y-53405917D01*
X31240202Y-53182127D01*
X30955373Y-52897298D01*
X30731583Y-52562373D01*
X30628299Y-52313022D01*
X30577434Y-52190224D01*
X30498850Y-51795156D01*
X30498850Y-51392344D01*
X30577434Y-50997276D01*
X30699188Y-50703336D01*
X30731583Y-50625127D01*
X30955373Y-50290202D01*
X31240202Y-50005373D01*
X31575127Y-49781583D01*
X31729276Y-49717733D01*
X31947276Y-49627434D01*
X32342344Y-49548850D01*
X32745156Y-49548850D01*
X33140224Y-49627434D01*
G37*
G36*
X128390224Y-49627434D02*
G01*
X128608224Y-49717733D01*
X128762373Y-49781583D01*
X129097298Y-50005373D01*
X129382127Y-50290202D01*
X129605917Y-50625127D01*
X129638312Y-50703336D01*
X129760066Y-50997276D01*
X129838650Y-51392344D01*
X129838650Y-51795156D01*
X129760066Y-52190224D01*
X129709201Y-52313022D01*
X129605917Y-52562373D01*
X129382127Y-52897298D01*
X129097298Y-53182127D01*
X128762373Y-53405917D01*
X128608224Y-53469767D01*
X128390224Y-53560066D01*
X127995156Y-53638650D01*
X127592344Y-53638650D01*
X127197276Y-53560066D01*
X126979276Y-53469767D01*
X126825127Y-53405917D01*
X126490202Y-53182127D01*
X126205373Y-52897298D01*
X125981583Y-52562373D01*
X125878299Y-52313022D01*
X125827434Y-52190224D01*
X125748850Y-51795156D01*
X125748850Y-51392344D01*
X125827434Y-50997276D01*
X125949188Y-50703336D01*
X125981583Y-50625127D01*
X126205373Y-50290202D01*
X126490202Y-50005373D01*
X126825127Y-49781583D01*
X126979276Y-49717733D01*
X127197276Y-49627434D01*
X127592344Y-49548850D01*
X127995156Y-49548850D01*
X128390224Y-49627434D01*
G37*
G36*
X118126000Y-53619750D02*
G01*
X116824000Y-53619750D01*
X116824000Y-52617750D01*
X118126000Y-52617750D01*
X118126000Y-53619750D01*
G37*
G36*
X42719750Y-53619750D02*
G01*
X41417750Y-53619750D01*
X41417750Y-52617750D01*
X42719750Y-52617750D01*
X42719750Y-53619750D01*
G37*
G36*
X61769750Y-53619750D02*
G01*
X60467750Y-53619750D01*
X60467750Y-52617750D01*
X61769750Y-52617750D01*
X61769750Y-53619750D01*
G37*
G36*
X80819750Y-53619750D02*
G01*
X79517750Y-53619750D01*
X79517750Y-52617750D01*
X80819750Y-52617750D01*
X80819750Y-53619750D01*
G37*
G36*
X99869750Y-53619750D02*
G01*
X98567750Y-53619750D01*
X98567750Y-52617750D01*
X99869750Y-52617750D01*
X99869750Y-53619750D01*
G37*
G36*
X75993854Y-50703335D02*
G01*
X76162376Y-50773139D01*
X76314041Y-50874478D01*
X76443022Y-51003459D01*
X76544361Y-51155124D01*
X76614165Y-51323646D01*
X76649750Y-51502547D01*
X76649750Y-51684953D01*
X76614165Y-51863854D01*
X76544361Y-52032376D01*
X76443022Y-52184041D01*
X76314041Y-52313022D01*
X76162376Y-52414361D01*
X75993854Y-52484165D01*
X75814953Y-52519750D01*
X75632547Y-52519750D01*
X75453646Y-52484165D01*
X75285124Y-52414361D01*
X75133459Y-52313022D01*
X75004478Y-52184041D01*
X74903139Y-52032376D01*
X74833335Y-51863854D01*
X74797750Y-51684953D01*
X74797750Y-51502547D01*
X74833335Y-51323646D01*
X74903139Y-51155124D01*
X75004478Y-51003459D01*
X75133459Y-50874478D01*
X75285124Y-50773139D01*
X75453646Y-50703335D01*
X75632547Y-50667750D01*
X75814953Y-50667750D01*
X75993854Y-50703335D01*
G37*
G36*
X27733854Y-50703335D02*
G01*
X27902376Y-50773139D01*
X28054041Y-50874478D01*
X28183022Y-51003459D01*
X28284361Y-51155124D01*
X28354165Y-51323646D01*
X28389750Y-51502547D01*
X28389750Y-51684953D01*
X28354165Y-51863854D01*
X28284361Y-52032376D01*
X28183022Y-52184041D01*
X28054041Y-52313022D01*
X27902376Y-52414361D01*
X27733854Y-52484165D01*
X27554953Y-52519750D01*
X27372547Y-52519750D01*
X27193646Y-52484165D01*
X27025124Y-52414361D01*
X26873459Y-52313022D01*
X26744478Y-52184041D01*
X26643139Y-52032376D01*
X26573335Y-51863854D01*
X26537750Y-51684953D01*
X26537750Y-51502547D01*
X26573335Y-51323646D01*
X26643139Y-51155124D01*
X26744478Y-51003459D01*
X26873459Y-50874478D01*
X27025124Y-50773139D01*
X27193646Y-50703335D01*
X27372547Y-50667750D01*
X27554953Y-50667750D01*
X27733854Y-50703335D01*
G37*
G36*
X114093854Y-50703335D02*
G01*
X114262376Y-50773139D01*
X114414041Y-50874478D01*
X114543022Y-51003459D01*
X114644361Y-51155124D01*
X114714165Y-51323646D01*
X114749750Y-51502547D01*
X114749750Y-51684953D01*
X114714165Y-51863854D01*
X114644361Y-52032376D01*
X114543022Y-52184041D01*
X114414041Y-52313022D01*
X114262376Y-52414361D01*
X114093854Y-52484165D01*
X113914953Y-52519750D01*
X113732547Y-52519750D01*
X113553646Y-52484165D01*
X113385124Y-52414361D01*
X113233459Y-52313022D01*
X113104478Y-52184041D01*
X113003139Y-52032376D01*
X112933335Y-51863854D01*
X112897750Y-51684953D01*
X112897750Y-51502547D01*
X112933335Y-51323646D01*
X113003139Y-51155124D01*
X113104478Y-51003459D01*
X113233459Y-50874478D01*
X113385124Y-50773139D01*
X113553646Y-50703335D01*
X113732547Y-50667750D01*
X113914953Y-50667750D01*
X114093854Y-50703335D01*
G37*
G36*
X37893854Y-50703335D02*
G01*
X38062376Y-50773139D01*
X38214041Y-50874478D01*
X38343022Y-51003459D01*
X38444361Y-51155124D01*
X38514165Y-51323646D01*
X38549750Y-51502547D01*
X38549750Y-51684953D01*
X38514165Y-51863854D01*
X38444361Y-52032376D01*
X38343022Y-52184041D01*
X38214041Y-52313022D01*
X38062376Y-52414361D01*
X37893854Y-52484165D01*
X37714953Y-52519750D01*
X37532547Y-52519750D01*
X37353646Y-52484165D01*
X37185124Y-52414361D01*
X37033459Y-52313022D01*
X36904478Y-52184041D01*
X36803139Y-52032376D01*
X36733335Y-51863854D01*
X36697750Y-51684953D01*
X36697750Y-51502547D01*
X36733335Y-51323646D01*
X36803139Y-51155124D01*
X36904478Y-51003459D01*
X37033459Y-50874478D01*
X37185124Y-50773139D01*
X37353646Y-50703335D01*
X37532547Y-50667750D01*
X37714953Y-50667750D01*
X37893854Y-50703335D01*
G37*
G36*
X103933854Y-50703335D02*
G01*
X104102376Y-50773139D01*
X104254041Y-50874478D01*
X104383022Y-51003459D01*
X104484361Y-51155124D01*
X104554165Y-51323646D01*
X104589750Y-51502547D01*
X104589750Y-51684953D01*
X104554165Y-51863854D01*
X104484361Y-52032376D01*
X104383022Y-52184041D01*
X104254041Y-52313022D01*
X104102376Y-52414361D01*
X103933854Y-52484165D01*
X103754953Y-52519750D01*
X103572547Y-52519750D01*
X103393646Y-52484165D01*
X103225124Y-52414361D01*
X103073459Y-52313022D01*
X102944478Y-52184041D01*
X102843139Y-52032376D01*
X102773335Y-51863854D01*
X102737750Y-51684953D01*
X102737750Y-51502547D01*
X102773335Y-51323646D01*
X102843139Y-51155124D01*
X102944478Y-51003459D01*
X103073459Y-50874478D01*
X103225124Y-50773139D01*
X103393646Y-50703335D01*
X103572547Y-50667750D01*
X103754953Y-50667750D01*
X103933854Y-50703335D01*
G37*
G36*
X46783854Y-50703335D02*
G01*
X46952376Y-50773139D01*
X47104041Y-50874478D01*
X47233022Y-51003459D01*
X47334361Y-51155124D01*
X47404165Y-51323646D01*
X47439750Y-51502547D01*
X47439750Y-51684953D01*
X47404165Y-51863854D01*
X47334361Y-52032376D01*
X47233022Y-52184041D01*
X47104041Y-52313022D01*
X46952376Y-52414361D01*
X46783854Y-52484165D01*
X46604953Y-52519750D01*
X46422547Y-52519750D01*
X46243646Y-52484165D01*
X46075124Y-52414361D01*
X45923459Y-52313022D01*
X45794478Y-52184041D01*
X45693139Y-52032376D01*
X45623335Y-51863854D01*
X45587750Y-51684953D01*
X45587750Y-51502547D01*
X45623335Y-51323646D01*
X45693139Y-51155124D01*
X45794478Y-51003459D01*
X45923459Y-50874478D01*
X46075124Y-50773139D01*
X46243646Y-50703335D01*
X46422547Y-50667750D01*
X46604953Y-50667750D01*
X46783854Y-50703335D01*
G37*
G36*
X122983854Y-50703335D02*
G01*
X123152376Y-50773139D01*
X123304041Y-50874478D01*
X123433022Y-51003459D01*
X123534361Y-51155124D01*
X123604165Y-51323646D01*
X123639750Y-51502547D01*
X123639750Y-51684953D01*
X123604165Y-51863854D01*
X123534361Y-52032376D01*
X123433022Y-52184041D01*
X123304041Y-52313022D01*
X123152376Y-52414361D01*
X122983854Y-52484165D01*
X122804953Y-52519750D01*
X122622547Y-52519750D01*
X122443646Y-52484165D01*
X122275124Y-52414361D01*
X122123459Y-52313022D01*
X121994478Y-52184041D01*
X121893139Y-52032376D01*
X121823335Y-51863854D01*
X121787750Y-51684953D01*
X121787750Y-51502547D01*
X121823335Y-51323646D01*
X121893139Y-51155124D01*
X121994478Y-51003459D01*
X122123459Y-50874478D01*
X122275124Y-50773139D01*
X122443646Y-50703335D01*
X122622547Y-50667750D01*
X122804953Y-50667750D01*
X122983854Y-50703335D01*
G37*
G36*
X56943854Y-50703335D02*
G01*
X57112376Y-50773139D01*
X57264041Y-50874478D01*
X57393022Y-51003459D01*
X57494361Y-51155124D01*
X57564165Y-51323646D01*
X57599750Y-51502547D01*
X57599750Y-51684953D01*
X57564165Y-51863854D01*
X57494361Y-52032376D01*
X57393022Y-52184041D01*
X57264041Y-52313022D01*
X57112376Y-52414361D01*
X56943854Y-52484165D01*
X56764953Y-52519750D01*
X56582547Y-52519750D01*
X56403646Y-52484165D01*
X56235124Y-52414361D01*
X56083459Y-52313022D01*
X55954478Y-52184041D01*
X55853139Y-52032376D01*
X55783335Y-51863854D01*
X55747750Y-51684953D01*
X55747750Y-51502547D01*
X55783335Y-51323646D01*
X55853139Y-51155124D01*
X55954478Y-51003459D01*
X56083459Y-50874478D01*
X56235124Y-50773139D01*
X56403646Y-50703335D01*
X56582547Y-50667750D01*
X56764953Y-50667750D01*
X56943854Y-50703335D01*
G37*
G36*
X133143854Y-50703335D02*
G01*
X133312376Y-50773139D01*
X133464041Y-50874478D01*
X133593022Y-51003459D01*
X133694361Y-51155124D01*
X133764165Y-51323646D01*
X133799750Y-51502547D01*
X133799750Y-51684953D01*
X133764165Y-51863854D01*
X133694361Y-52032376D01*
X133593022Y-52184041D01*
X133464041Y-52313022D01*
X133312376Y-52414361D01*
X133143854Y-52484165D01*
X132964953Y-52519750D01*
X132782547Y-52519750D01*
X132603646Y-52484165D01*
X132435124Y-52414361D01*
X132283459Y-52313022D01*
X132154478Y-52184041D01*
X132053139Y-52032376D01*
X131983335Y-51863854D01*
X131947750Y-51684953D01*
X131947750Y-51502547D01*
X131983335Y-51323646D01*
X132053139Y-51155124D01*
X132154478Y-51003459D01*
X132283459Y-50874478D01*
X132435124Y-50773139D01*
X132603646Y-50703335D01*
X132782547Y-50667750D01*
X132964953Y-50667750D01*
X133143854Y-50703335D01*
G37*
G36*
X65833854Y-50703335D02*
G01*
X66002376Y-50773139D01*
X66154041Y-50874478D01*
X66283022Y-51003459D01*
X66384361Y-51155124D01*
X66454165Y-51323646D01*
X66489750Y-51502547D01*
X66489750Y-51684953D01*
X66454165Y-51863854D01*
X66384361Y-52032376D01*
X66283022Y-52184041D01*
X66154041Y-52313022D01*
X66002376Y-52414361D01*
X65833854Y-52484165D01*
X65654953Y-52519750D01*
X65472547Y-52519750D01*
X65293646Y-52484165D01*
X65125124Y-52414361D01*
X64973459Y-52313022D01*
X64844478Y-52184041D01*
X64743139Y-52032376D01*
X64673335Y-51863854D01*
X64637750Y-51684953D01*
X64637750Y-51502547D01*
X64673335Y-51323646D01*
X64743139Y-51155124D01*
X64844478Y-51003459D01*
X64973459Y-50874478D01*
X65125124Y-50773139D01*
X65293646Y-50703335D01*
X65472547Y-50667750D01*
X65654953Y-50667750D01*
X65833854Y-50703335D01*
G37*
G36*
X84883854Y-50703335D02*
G01*
X85052376Y-50773139D01*
X85204041Y-50874478D01*
X85333022Y-51003459D01*
X85434361Y-51155124D01*
X85504165Y-51323646D01*
X85539750Y-51502547D01*
X85539750Y-51684953D01*
X85504165Y-51863854D01*
X85434361Y-52032376D01*
X85333022Y-52184041D01*
X85204041Y-52313022D01*
X85052376Y-52414361D01*
X84883854Y-52484165D01*
X84704953Y-52519750D01*
X84522547Y-52519750D01*
X84343646Y-52484165D01*
X84175124Y-52414361D01*
X84023459Y-52313022D01*
X83894478Y-52184041D01*
X83793139Y-52032376D01*
X83723335Y-51863854D01*
X83687750Y-51684953D01*
X83687750Y-51502547D01*
X83723335Y-51323646D01*
X83793139Y-51155124D01*
X83894478Y-51003459D01*
X84023459Y-50874478D01*
X84175124Y-50773139D01*
X84343646Y-50703335D01*
X84522547Y-50667750D01*
X84704953Y-50667750D01*
X84883854Y-50703335D01*
G37*
G36*
X95043854Y-50703335D02*
G01*
X95212376Y-50773139D01*
X95364041Y-50874478D01*
X95493022Y-51003459D01*
X95594361Y-51155124D01*
X95664165Y-51323646D01*
X95699750Y-51502547D01*
X95699750Y-51684953D01*
X95664165Y-51863854D01*
X95594361Y-52032376D01*
X95493022Y-52184041D01*
X95364041Y-52313022D01*
X95212376Y-52414361D01*
X95043854Y-52484165D01*
X94864953Y-52519750D01*
X94682547Y-52519750D01*
X94503646Y-52484165D01*
X94335124Y-52414361D01*
X94183459Y-52313022D01*
X94054478Y-52184041D01*
X93953139Y-52032376D01*
X93883335Y-51863854D01*
X93847750Y-51684953D01*
X93847750Y-51502547D01*
X93883335Y-51323646D01*
X93953139Y-51155124D01*
X94054478Y-51003459D01*
X94183459Y-50874478D01*
X94335124Y-50773139D01*
X94503646Y-50703335D01*
X94682547Y-50667750D01*
X94864953Y-50667750D01*
X95043854Y-50703335D01*
G37*
G36*
X137109468Y-50409815D02*
G01*
X137148138Y-50421546D01*
X137183777Y-50440596D01*
X137215017Y-50466233D01*
X137240654Y-50497473D01*
X137259704Y-50533112D01*
X137271435Y-50571782D01*
X137276000Y-50618138D01*
X137276000Y-51269362D01*
X137271435Y-51315718D01*
X137259704Y-51354388D01*
X137240654Y-51390027D01*
X137215017Y-51421267D01*
X137183777Y-51446904D01*
X137148138Y-51465954D01*
X137109468Y-51477685D01*
X137063112Y-51482250D01*
X135986888Y-51482250D01*
X135940532Y-51477685D01*
X135901862Y-51465954D01*
X135866223Y-51446904D01*
X135834983Y-51421267D01*
X135809346Y-51390027D01*
X135790296Y-51354388D01*
X135778565Y-51315718D01*
X135774000Y-51269362D01*
X135774000Y-50618138D01*
X135778565Y-50571782D01*
X135790296Y-50533112D01*
X135809346Y-50497473D01*
X135834983Y-50466233D01*
X135866223Y-50440596D01*
X135901862Y-50421546D01*
X135940532Y-50409815D01*
X135986888Y-50405250D01*
X137063112Y-50405250D01*
X137109468Y-50409815D01*
G37*
G36*
X67020653Y-47891888D02*
G01*
X67176777Y-47922943D01*
X67390795Y-48011592D01*
X67396172Y-48015185D01*
X67583404Y-48140289D01*
X67747211Y-48304096D01*
X67833008Y-48432501D01*
X67875908Y-48496705D01*
X67964557Y-48710723D01*
X67971767Y-48746972D01*
X68009649Y-48937413D01*
X68009750Y-48937924D01*
X68009750Y-49169576D01*
X67964557Y-49396777D01*
X67875908Y-49610795D01*
X67875907Y-49610796D01*
X67747211Y-49803404D01*
X67583404Y-49967211D01*
X67526290Y-50005373D01*
X67390795Y-50095908D01*
X67176777Y-50184557D01*
X67025310Y-50214686D01*
X66949577Y-50229750D01*
X66717923Y-50229750D01*
X66642190Y-50214686D01*
X66490723Y-50184557D01*
X66276705Y-50095908D01*
X66141210Y-50005373D01*
X66084096Y-49967211D01*
X65920289Y-49803404D01*
X65791593Y-49610796D01*
X65791592Y-49610795D01*
X65702943Y-49396777D01*
X65657750Y-49169576D01*
X65657750Y-48937924D01*
X65657852Y-48937413D01*
X65695733Y-48746972D01*
X65702943Y-48710723D01*
X65791592Y-48496705D01*
X65834492Y-48432501D01*
X65920289Y-48304096D01*
X66084096Y-48140289D01*
X66271328Y-48015185D01*
X66276705Y-48011592D01*
X66490723Y-47922943D01*
X66646847Y-47891888D01*
X66717923Y-47877750D01*
X66949577Y-47877750D01*
X67020653Y-47891888D01*
G37*
G36*
X86070653Y-47891888D02*
G01*
X86226777Y-47922943D01*
X86440795Y-48011592D01*
X86446172Y-48015185D01*
X86633404Y-48140289D01*
X86797211Y-48304096D01*
X86883008Y-48432501D01*
X86925908Y-48496705D01*
X87014557Y-48710723D01*
X87021767Y-48746972D01*
X87059649Y-48937413D01*
X87059750Y-48937924D01*
X87059750Y-49169576D01*
X87014557Y-49396777D01*
X86925908Y-49610795D01*
X86925907Y-49610796D01*
X86797211Y-49803404D01*
X86633404Y-49967211D01*
X86576290Y-50005373D01*
X86440795Y-50095908D01*
X86226777Y-50184557D01*
X86075310Y-50214686D01*
X85999577Y-50229750D01*
X85767923Y-50229750D01*
X85692190Y-50214686D01*
X85540723Y-50184557D01*
X85326705Y-50095908D01*
X85191210Y-50005373D01*
X85134096Y-49967211D01*
X84970289Y-49803404D01*
X84841593Y-49610796D01*
X84841592Y-49610795D01*
X84752943Y-49396777D01*
X84707750Y-49169576D01*
X84707750Y-48937924D01*
X84707852Y-48937413D01*
X84745733Y-48746972D01*
X84752943Y-48710723D01*
X84841592Y-48496705D01*
X84884492Y-48432501D01*
X84970289Y-48304096D01*
X85134096Y-48140289D01*
X85321328Y-48015185D01*
X85326705Y-48011592D01*
X85540723Y-47922943D01*
X85696847Y-47891888D01*
X85767923Y-47877750D01*
X85999577Y-47877750D01*
X86070653Y-47891888D01*
G37*
G36*
X47970653Y-47891888D02*
G01*
X48126777Y-47922943D01*
X48340795Y-48011592D01*
X48346172Y-48015185D01*
X48533404Y-48140289D01*
X48697211Y-48304096D01*
X48783008Y-48432501D01*
X48825908Y-48496705D01*
X48914557Y-48710723D01*
X48921767Y-48746972D01*
X48959649Y-48937413D01*
X48959750Y-48937924D01*
X48959750Y-49169576D01*
X48914557Y-49396777D01*
X48825908Y-49610795D01*
X48825907Y-49610796D01*
X48697211Y-49803404D01*
X48533404Y-49967211D01*
X48476290Y-50005373D01*
X48340795Y-50095908D01*
X48126777Y-50184557D01*
X47975310Y-50214686D01*
X47899577Y-50229750D01*
X47667923Y-50229750D01*
X47592190Y-50214686D01*
X47440723Y-50184557D01*
X47226705Y-50095908D01*
X47091210Y-50005373D01*
X47034096Y-49967211D01*
X46870289Y-49803404D01*
X46741593Y-49610796D01*
X46741592Y-49610795D01*
X46652943Y-49396777D01*
X46607750Y-49169576D01*
X46607750Y-48937924D01*
X46607852Y-48937413D01*
X46645733Y-48746972D01*
X46652943Y-48710723D01*
X46741592Y-48496705D01*
X46784492Y-48432501D01*
X46870289Y-48304096D01*
X47034096Y-48140289D01*
X47221328Y-48015185D01*
X47226705Y-48011592D01*
X47440723Y-47922943D01*
X47596847Y-47891888D01*
X47667923Y-47877750D01*
X47899577Y-47877750D01*
X47970653Y-47891888D01*
G37*
G36*
X105120653Y-47891888D02*
G01*
X105276777Y-47922943D01*
X105490795Y-48011592D01*
X105496172Y-48015185D01*
X105683404Y-48140289D01*
X105847211Y-48304096D01*
X105933008Y-48432501D01*
X105975908Y-48496705D01*
X106064557Y-48710723D01*
X106071767Y-48746972D01*
X106109649Y-48937413D01*
X106109750Y-48937924D01*
X106109750Y-49169576D01*
X106064557Y-49396777D01*
X105975908Y-49610795D01*
X105975907Y-49610796D01*
X105847211Y-49803404D01*
X105683404Y-49967211D01*
X105626290Y-50005373D01*
X105490795Y-50095908D01*
X105276777Y-50184557D01*
X105125310Y-50214686D01*
X105049577Y-50229750D01*
X104817923Y-50229750D01*
X104742190Y-50214686D01*
X104590723Y-50184557D01*
X104376705Y-50095908D01*
X104241210Y-50005373D01*
X104184096Y-49967211D01*
X104020289Y-49803404D01*
X103891593Y-49610796D01*
X103891592Y-49610795D01*
X103802943Y-49396777D01*
X103757750Y-49169576D01*
X103757750Y-48937924D01*
X103757852Y-48937413D01*
X103795733Y-48746972D01*
X103802943Y-48710723D01*
X103891592Y-48496705D01*
X103934492Y-48432501D01*
X104020289Y-48304096D01*
X104184096Y-48140289D01*
X104371328Y-48015185D01*
X104376705Y-48011592D01*
X104590723Y-47922943D01*
X104746847Y-47891888D01*
X104817923Y-47877750D01*
X105049577Y-47877750D01*
X105120653Y-47891888D01*
G37*
G36*
X28920653Y-47891888D02*
G01*
X29076777Y-47922943D01*
X29290795Y-48011592D01*
X29296172Y-48015185D01*
X29483404Y-48140289D01*
X29647211Y-48304096D01*
X29733008Y-48432501D01*
X29775908Y-48496705D01*
X29864557Y-48710723D01*
X29871767Y-48746972D01*
X29909649Y-48937413D01*
X29909750Y-48937924D01*
X29909750Y-49169576D01*
X29864557Y-49396777D01*
X29775908Y-49610795D01*
X29775907Y-49610796D01*
X29647211Y-49803404D01*
X29483404Y-49967211D01*
X29426290Y-50005373D01*
X29290795Y-50095908D01*
X29076777Y-50184557D01*
X28925310Y-50214686D01*
X28849577Y-50229750D01*
X28617923Y-50229750D01*
X28542190Y-50214686D01*
X28390723Y-50184557D01*
X28176705Y-50095908D01*
X28041210Y-50005373D01*
X27984096Y-49967211D01*
X27820289Y-49803404D01*
X27691593Y-49610796D01*
X27691592Y-49610795D01*
X27602943Y-49396777D01*
X27557750Y-49169576D01*
X27557750Y-48937924D01*
X27557852Y-48937413D01*
X27595733Y-48746972D01*
X27602943Y-48710723D01*
X27691592Y-48496705D01*
X27734492Y-48432501D01*
X27820289Y-48304096D01*
X27984096Y-48140289D01*
X28171328Y-48015185D01*
X28176705Y-48011592D01*
X28390723Y-47922943D01*
X28546847Y-47891888D01*
X28617923Y-47877750D01*
X28849577Y-47877750D01*
X28920653Y-47891888D01*
G37*
G36*
X124170653Y-47891888D02*
G01*
X124326777Y-47922943D01*
X124540795Y-48011592D01*
X124546172Y-48015185D01*
X124733404Y-48140289D01*
X124897211Y-48304096D01*
X124983008Y-48432501D01*
X125025908Y-48496705D01*
X125114557Y-48710723D01*
X125121767Y-48746972D01*
X125159649Y-48937413D01*
X125159750Y-48937924D01*
X125159750Y-49169576D01*
X125114557Y-49396777D01*
X125025908Y-49610795D01*
X125025907Y-49610796D01*
X124897211Y-49803404D01*
X124733404Y-49967211D01*
X124676290Y-50005373D01*
X124540795Y-50095908D01*
X124326777Y-50184557D01*
X124175310Y-50214686D01*
X124099577Y-50229750D01*
X123867923Y-50229750D01*
X123792190Y-50214686D01*
X123640723Y-50184557D01*
X123426705Y-50095908D01*
X123291210Y-50005373D01*
X123234096Y-49967211D01*
X123070289Y-49803404D01*
X122941593Y-49610796D01*
X122941592Y-49610795D01*
X122852943Y-49396777D01*
X122807750Y-49169576D01*
X122807750Y-48937924D01*
X122807852Y-48937413D01*
X122845733Y-48746972D01*
X122852943Y-48710723D01*
X122941592Y-48496705D01*
X122984492Y-48432501D01*
X123070289Y-48304096D01*
X123234096Y-48140289D01*
X123421328Y-48015185D01*
X123426705Y-48011592D01*
X123640723Y-47922943D01*
X123796847Y-47891888D01*
X123867923Y-47877750D01*
X124099577Y-47877750D01*
X124170653Y-47891888D01*
G37*
G36*
X156159468Y-48822315D02*
G01*
X156198138Y-48834046D01*
X156233777Y-48853096D01*
X156265017Y-48878733D01*
X156290654Y-48909973D01*
X156309704Y-48945612D01*
X156321435Y-48984282D01*
X156326000Y-49030638D01*
X156326000Y-49681862D01*
X156321435Y-49728218D01*
X156309704Y-49766888D01*
X156290654Y-49802527D01*
X156265017Y-49833767D01*
X156233777Y-49859404D01*
X156198138Y-49878454D01*
X156159468Y-49890185D01*
X156113112Y-49894750D01*
X155036888Y-49894750D01*
X154990532Y-49890185D01*
X154951862Y-49878454D01*
X154916223Y-49859404D01*
X154884983Y-49833767D01*
X154859346Y-49802527D01*
X154840296Y-49766888D01*
X154828565Y-49728218D01*
X154824000Y-49681862D01*
X154824000Y-49030638D01*
X154828565Y-48984282D01*
X154840296Y-48945612D01*
X154859346Y-48909973D01*
X154884983Y-48878733D01*
X154916223Y-48853096D01*
X154951862Y-48834046D01*
X154990532Y-48822315D01*
X155036888Y-48817750D01*
X156113112Y-48817750D01*
X156159468Y-48822315D01*
G37*
G36*
X137109468Y-48534815D02*
G01*
X137148138Y-48546546D01*
X137183777Y-48565596D01*
X137215017Y-48591233D01*
X137240654Y-48622473D01*
X137259704Y-48658112D01*
X137271435Y-48696782D01*
X137276000Y-48743138D01*
X137276000Y-49394362D01*
X137271435Y-49440718D01*
X137259704Y-49479388D01*
X137240654Y-49515027D01*
X137215017Y-49546267D01*
X137183777Y-49571904D01*
X137148138Y-49590954D01*
X137109468Y-49602685D01*
X137063112Y-49607250D01*
X135986888Y-49607250D01*
X135940532Y-49602685D01*
X135901862Y-49590954D01*
X135866223Y-49571904D01*
X135834983Y-49546267D01*
X135809346Y-49515027D01*
X135790296Y-49479388D01*
X135778565Y-49440718D01*
X135774000Y-49394362D01*
X135774000Y-48743138D01*
X135778565Y-48696782D01*
X135790296Y-48658112D01*
X135809346Y-48622473D01*
X135834983Y-48591233D01*
X135866223Y-48565596D01*
X135901862Y-48546546D01*
X135940532Y-48534815D01*
X135986888Y-48530250D01*
X137063112Y-48530250D01*
X137109468Y-48534815D01*
G37*
G36*
X151169750Y-49076000D02*
G01*
X142517750Y-49076000D01*
X142517750Y-47474000D01*
X151169750Y-47474000D01*
X151169750Y-49076000D01*
G37*
G36*
X156159468Y-46947315D02*
G01*
X156198138Y-46959046D01*
X156233777Y-46978096D01*
X156265017Y-47003733D01*
X156290654Y-47034973D01*
X156309704Y-47070612D01*
X156321435Y-47109282D01*
X156326000Y-47155638D01*
X156326000Y-47806862D01*
X156321435Y-47853218D01*
X156309704Y-47891888D01*
X156290654Y-47927527D01*
X156265017Y-47958767D01*
X156233777Y-47984404D01*
X156198138Y-48003454D01*
X156159468Y-48015185D01*
X156113112Y-48019750D01*
X155036888Y-48019750D01*
X154990532Y-48015185D01*
X154951862Y-48003454D01*
X154916223Y-47984404D01*
X154884983Y-47958767D01*
X154859346Y-47927527D01*
X154840296Y-47891888D01*
X154828565Y-47853218D01*
X154824000Y-47806862D01*
X154824000Y-47155638D01*
X154828565Y-47109282D01*
X154840296Y-47070612D01*
X154859346Y-47034973D01*
X154884983Y-47003733D01*
X154916223Y-46978096D01*
X154951862Y-46959046D01*
X154990532Y-46947315D01*
X155036888Y-46942750D01*
X156113112Y-46942750D01*
X156159468Y-46947315D01*
G37*
G36*
X35275310Y-45352814D02*
G01*
X35426777Y-45382943D01*
X35640795Y-45471592D01*
X35640796Y-45471593D01*
X35833404Y-45600289D01*
X35997211Y-45764096D01*
X36083008Y-45892501D01*
X36125908Y-45956705D01*
X36214557Y-46170723D01*
X36259750Y-46397924D01*
X36259750Y-46629576D01*
X36214557Y-46856777D01*
X36125908Y-47070795D01*
X36100192Y-47109282D01*
X35997211Y-47263404D01*
X35833404Y-47427211D01*
X35763379Y-47474000D01*
X35640795Y-47555908D01*
X35426777Y-47644557D01*
X35275310Y-47674686D01*
X35199577Y-47689750D01*
X34967923Y-47689750D01*
X34892190Y-47674686D01*
X34740723Y-47644557D01*
X34526705Y-47555908D01*
X34404121Y-47474000D01*
X34334096Y-47427211D01*
X34170289Y-47263404D01*
X34067308Y-47109282D01*
X34041592Y-47070795D01*
X33952943Y-46856777D01*
X33907750Y-46629576D01*
X33907750Y-46397924D01*
X33952943Y-46170723D01*
X34041592Y-45956705D01*
X34084492Y-45892501D01*
X34170289Y-45764096D01*
X34334096Y-45600289D01*
X34526704Y-45471593D01*
X34526705Y-45471592D01*
X34740723Y-45382943D01*
X34892190Y-45352814D01*
X34967923Y-45337750D01*
X35199577Y-45337750D01*
X35275310Y-45352814D01*
G37*
G36*
X54325310Y-45352814D02*
G01*
X54476777Y-45382943D01*
X54690795Y-45471592D01*
X54690796Y-45471593D01*
X54883404Y-45600289D01*
X55047211Y-45764096D01*
X55133008Y-45892501D01*
X55175908Y-45956705D01*
X55264557Y-46170723D01*
X55309750Y-46397924D01*
X55309750Y-46629576D01*
X55264557Y-46856777D01*
X55175908Y-47070795D01*
X55150192Y-47109282D01*
X55047211Y-47263404D01*
X54883404Y-47427211D01*
X54813379Y-47474000D01*
X54690795Y-47555908D01*
X54476777Y-47644557D01*
X54325310Y-47674686D01*
X54249577Y-47689750D01*
X54017923Y-47689750D01*
X53942190Y-47674686D01*
X53790723Y-47644557D01*
X53576705Y-47555908D01*
X53454121Y-47474000D01*
X53384096Y-47427211D01*
X53220289Y-47263404D01*
X53117308Y-47109282D01*
X53091592Y-47070795D01*
X53002943Y-46856777D01*
X52957750Y-46629576D01*
X52957750Y-46397924D01*
X53002943Y-46170723D01*
X53091592Y-45956705D01*
X53134492Y-45892501D01*
X53220289Y-45764096D01*
X53384096Y-45600289D01*
X53576704Y-45471593D01*
X53576705Y-45471592D01*
X53790723Y-45382943D01*
X53942190Y-45352814D01*
X54017923Y-45337750D01*
X54249577Y-45337750D01*
X54325310Y-45352814D01*
G37*
G36*
X130525310Y-45352814D02*
G01*
X130676777Y-45382943D01*
X130890795Y-45471592D01*
X130890796Y-45471593D01*
X131083404Y-45600289D01*
X131247211Y-45764096D01*
X131333008Y-45892501D01*
X131375908Y-45956705D01*
X131464557Y-46170723D01*
X131509750Y-46397924D01*
X131509750Y-46629576D01*
X131464557Y-46856777D01*
X131375908Y-47070795D01*
X131350192Y-47109282D01*
X131247211Y-47263404D01*
X131083404Y-47427211D01*
X131013379Y-47474000D01*
X130890795Y-47555908D01*
X130676777Y-47644557D01*
X130525310Y-47674686D01*
X130449577Y-47689750D01*
X130217923Y-47689750D01*
X130142190Y-47674686D01*
X129990723Y-47644557D01*
X129776705Y-47555908D01*
X129654121Y-47474000D01*
X129584096Y-47427211D01*
X129420289Y-47263404D01*
X129317308Y-47109282D01*
X129291592Y-47070795D01*
X129202943Y-46856777D01*
X129157750Y-46629576D01*
X129157750Y-46397924D01*
X129202943Y-46170723D01*
X129291592Y-45956705D01*
X129334492Y-45892501D01*
X129420289Y-45764096D01*
X129584096Y-45600289D01*
X129776704Y-45471593D01*
X129776705Y-45471592D01*
X129990723Y-45382943D01*
X130142190Y-45352814D01*
X130217923Y-45337750D01*
X130449577Y-45337750D01*
X130525310Y-45352814D01*
G37*
G36*
X111475310Y-45352814D02*
G01*
X111626777Y-45382943D01*
X111840795Y-45471592D01*
X111840796Y-45471593D01*
X112033404Y-45600289D01*
X112197211Y-45764096D01*
X112283008Y-45892501D01*
X112325908Y-45956705D01*
X112414557Y-46170723D01*
X112459750Y-46397924D01*
X112459750Y-46629576D01*
X112414557Y-46856777D01*
X112325908Y-47070795D01*
X112300192Y-47109282D01*
X112197211Y-47263404D01*
X112033404Y-47427211D01*
X111963379Y-47474000D01*
X111840795Y-47555908D01*
X111626777Y-47644557D01*
X111475310Y-47674686D01*
X111399577Y-47689750D01*
X111167923Y-47689750D01*
X111092190Y-47674686D01*
X110940723Y-47644557D01*
X110726705Y-47555908D01*
X110604121Y-47474000D01*
X110534096Y-47427211D01*
X110370289Y-47263404D01*
X110267308Y-47109282D01*
X110241592Y-47070795D01*
X110152943Y-46856777D01*
X110107750Y-46629576D01*
X110107750Y-46397924D01*
X110152943Y-46170723D01*
X110241592Y-45956705D01*
X110284492Y-45892501D01*
X110370289Y-45764096D01*
X110534096Y-45600289D01*
X110726704Y-45471593D01*
X110726705Y-45471592D01*
X110940723Y-45382943D01*
X111092190Y-45352814D01*
X111167923Y-45337750D01*
X111399577Y-45337750D01*
X111475310Y-45352814D01*
G37*
G36*
X92425310Y-45352814D02*
G01*
X92576777Y-45382943D01*
X92790795Y-45471592D01*
X92790796Y-45471593D01*
X92983404Y-45600289D01*
X93147211Y-45764096D01*
X93233008Y-45892501D01*
X93275908Y-45956705D01*
X93364557Y-46170723D01*
X93409750Y-46397924D01*
X93409750Y-46629576D01*
X93364557Y-46856777D01*
X93275908Y-47070795D01*
X93250192Y-47109282D01*
X93147211Y-47263404D01*
X92983404Y-47427211D01*
X92913379Y-47474000D01*
X92790795Y-47555908D01*
X92576777Y-47644557D01*
X92425310Y-47674686D01*
X92349577Y-47689750D01*
X92117923Y-47689750D01*
X92042190Y-47674686D01*
X91890723Y-47644557D01*
X91676705Y-47555908D01*
X91554121Y-47474000D01*
X91484096Y-47427211D01*
X91320289Y-47263404D01*
X91217308Y-47109282D01*
X91191592Y-47070795D01*
X91102943Y-46856777D01*
X91057750Y-46629576D01*
X91057750Y-46397924D01*
X91102943Y-46170723D01*
X91191592Y-45956705D01*
X91234492Y-45892501D01*
X91320289Y-45764096D01*
X91484096Y-45600289D01*
X91676704Y-45471593D01*
X91676705Y-45471592D01*
X91890723Y-45382943D01*
X92042190Y-45352814D01*
X92117923Y-45337750D01*
X92349577Y-45337750D01*
X92425310Y-45352814D01*
G37*
G36*
X73375310Y-45352814D02*
G01*
X73526777Y-45382943D01*
X73740795Y-45471592D01*
X73740796Y-45471593D01*
X73933404Y-45600289D01*
X74097211Y-45764096D01*
X74183008Y-45892501D01*
X74225908Y-45956705D01*
X74314557Y-46170723D01*
X74359750Y-46397924D01*
X74359750Y-46629576D01*
X74314557Y-46856777D01*
X74225908Y-47070795D01*
X74200192Y-47109282D01*
X74097211Y-47263404D01*
X73933404Y-47427211D01*
X73863379Y-47474000D01*
X73740795Y-47555908D01*
X73526777Y-47644557D01*
X73375310Y-47674686D01*
X73299577Y-47689750D01*
X73067923Y-47689750D01*
X72992190Y-47674686D01*
X72840723Y-47644557D01*
X72626705Y-47555908D01*
X72504121Y-47474000D01*
X72434096Y-47427211D01*
X72270289Y-47263404D01*
X72167308Y-47109282D01*
X72141592Y-47070795D01*
X72052943Y-46856777D01*
X72007750Y-46629576D01*
X72007750Y-46397924D01*
X72052943Y-46170723D01*
X72141592Y-45956705D01*
X72184492Y-45892501D01*
X72270289Y-45764096D01*
X72434096Y-45600289D01*
X72626704Y-45471593D01*
X72626705Y-45471592D01*
X72840723Y-45382943D01*
X72992190Y-45352814D01*
X73067923Y-45337750D01*
X73299577Y-45337750D01*
X73375310Y-45352814D01*
G37*
G36*
X143014968Y-44599565D02*
G01*
X143053638Y-44611296D01*
X143089277Y-44630346D01*
X143120517Y-44655983D01*
X143146154Y-44687223D01*
X143165204Y-44722862D01*
X143176935Y-44761532D01*
X143181500Y-44807888D01*
X143181500Y-45459112D01*
X143176935Y-45505468D01*
X143165204Y-45544138D01*
X143146154Y-45579777D01*
X143120517Y-45611017D01*
X143089277Y-45636654D01*
X143053638Y-45655704D01*
X143014968Y-45667435D01*
X142968612Y-45672000D01*
X141892388Y-45672000D01*
X141846032Y-45667435D01*
X141807362Y-45655704D01*
X141771723Y-45636654D01*
X141740483Y-45611017D01*
X141714846Y-45579777D01*
X141695796Y-45544138D01*
X141684065Y-45505468D01*
X141679500Y-45459112D01*
X141679500Y-44807888D01*
X141684065Y-44761532D01*
X141695796Y-44722862D01*
X141714846Y-44687223D01*
X141740483Y-44655983D01*
X141771723Y-44630346D01*
X141807362Y-44611296D01*
X141846032Y-44599565D01*
X141892388Y-44595000D01*
X142968612Y-44595000D01*
X143014968Y-44599565D01*
G37*
G36*
X139839968Y-44599565D02*
G01*
X139878638Y-44611296D01*
X139914277Y-44630346D01*
X139945517Y-44655983D01*
X139971154Y-44687223D01*
X139990204Y-44722862D01*
X140001935Y-44761532D01*
X140006500Y-44807888D01*
X140006500Y-45459112D01*
X140001935Y-45505468D01*
X139990204Y-45544138D01*
X139971154Y-45579777D01*
X139945517Y-45611017D01*
X139914277Y-45636654D01*
X139878638Y-45655704D01*
X139839968Y-45667435D01*
X139793612Y-45672000D01*
X138717388Y-45672000D01*
X138671032Y-45667435D01*
X138632362Y-45655704D01*
X138596723Y-45636654D01*
X138565483Y-45611017D01*
X138539846Y-45579777D01*
X138520796Y-45544138D01*
X138509065Y-45505468D01*
X138504500Y-45459112D01*
X138504500Y-44807888D01*
X138509065Y-44761532D01*
X138520796Y-44722862D01*
X138539846Y-44687223D01*
X138565483Y-44655983D01*
X138596723Y-44630346D01*
X138632362Y-44611296D01*
X138671032Y-44599565D01*
X138717388Y-44595000D01*
X139793612Y-44595000D01*
X139839968Y-44599565D01*
G37*
G36*
X150111417Y-44668424D02*
G01*
X148609417Y-44668424D01*
X148609417Y-43366424D01*
X150111417Y-43366424D01*
X150111417Y-44668424D01*
G37*
G36*
X147911417Y-44668424D02*
G01*
X146409417Y-44668424D01*
X146409417Y-43366424D01*
X147911417Y-43366424D01*
X147911417Y-44668424D01*
G37*
G36*
X153270218Y-43570988D02*
G01*
X153308888Y-43582719D01*
X153344527Y-43601769D01*
X153375767Y-43627406D01*
X153401404Y-43658646D01*
X153420454Y-43694285D01*
X153432185Y-43732955D01*
X153436750Y-43779311D01*
X153436750Y-44430535D01*
X153432185Y-44476891D01*
X153420454Y-44515561D01*
X153401404Y-44551200D01*
X153375767Y-44582440D01*
X153344527Y-44608077D01*
X153308888Y-44627127D01*
X153270218Y-44638858D01*
X153223862Y-44643423D01*
X152147638Y-44643423D01*
X152101282Y-44638858D01*
X152062612Y-44627127D01*
X152026973Y-44608077D01*
X151995733Y-44582440D01*
X151970096Y-44551200D01*
X151951046Y-44515561D01*
X151939315Y-44476891D01*
X151934750Y-44430535D01*
X151934750Y-43779311D01*
X151939315Y-43732955D01*
X151951046Y-43694285D01*
X151970096Y-43658646D01*
X151995733Y-43627406D01*
X152026973Y-43601769D01*
X152062612Y-43582719D01*
X152101282Y-43570988D01*
X152147638Y-43566423D01*
X153223862Y-43566423D01*
X153270218Y-43570988D01*
G37*
G36*
X143014968Y-42724565D02*
G01*
X143053638Y-42736296D01*
X143089277Y-42755346D01*
X143120517Y-42780983D01*
X143146154Y-42812223D01*
X143165204Y-42847862D01*
X143176935Y-42886532D01*
X143181500Y-42932888D01*
X143181500Y-43584112D01*
X143176935Y-43630468D01*
X143165204Y-43669138D01*
X143146154Y-43704777D01*
X143120517Y-43736017D01*
X143089277Y-43761654D01*
X143053638Y-43780704D01*
X143014968Y-43792435D01*
X142968612Y-43797000D01*
X141892388Y-43797000D01*
X141846032Y-43792435D01*
X141807362Y-43780704D01*
X141771723Y-43761654D01*
X141740483Y-43736017D01*
X141714846Y-43704777D01*
X141695796Y-43669138D01*
X141684065Y-43630468D01*
X141679500Y-43584112D01*
X141679500Y-42932888D01*
X141684065Y-42886532D01*
X141695796Y-42847862D01*
X141714846Y-42812223D01*
X141740483Y-42780983D01*
X141771723Y-42755346D01*
X141807362Y-42736296D01*
X141846032Y-42724565D01*
X141892388Y-42720000D01*
X142968612Y-42720000D01*
X143014968Y-42724565D01*
G37*
G36*
X139839968Y-42724565D02*
G01*
X139878638Y-42736296D01*
X139914277Y-42755346D01*
X139945517Y-42780983D01*
X139971154Y-42812223D01*
X139990204Y-42847862D01*
X140001935Y-42886532D01*
X140006500Y-42932888D01*
X140006500Y-43584112D01*
X140001935Y-43630468D01*
X139990204Y-43669138D01*
X139971154Y-43704777D01*
X139945517Y-43736017D01*
X139914277Y-43761654D01*
X139878638Y-43780704D01*
X139839968Y-43792435D01*
X139793612Y-43797000D01*
X138717388Y-43797000D01*
X138671032Y-43792435D01*
X138632362Y-43780704D01*
X138596723Y-43761654D01*
X138565483Y-43736017D01*
X138539846Y-43704777D01*
X138520796Y-43669138D01*
X138509065Y-43630468D01*
X138504500Y-43584112D01*
X138504500Y-42932888D01*
X138509065Y-42886532D01*
X138520796Y-42847862D01*
X138539846Y-42812223D01*
X138565483Y-42780983D01*
X138596723Y-42755346D01*
X138632362Y-42736296D01*
X138671032Y-42724565D01*
X138717388Y-42720000D01*
X139793612Y-42720000D01*
X139839968Y-42724565D01*
G37*
G36*
X150111417Y-42968424D02*
G01*
X148609417Y-42968424D01*
X148609417Y-41666424D01*
X150111417Y-41666424D01*
X150111417Y-42968424D01*
G37*
G36*
X147911417Y-42968424D02*
G01*
X146409417Y-42968424D01*
X146409417Y-41666424D01*
X147911417Y-41666424D01*
X147911417Y-42968424D01*
G37*
G36*
X153270218Y-41695988D02*
G01*
X153308888Y-41707719D01*
X153344527Y-41726769D01*
X153375767Y-41752406D01*
X153401404Y-41783646D01*
X153420454Y-41819285D01*
X153432185Y-41857955D01*
X153436750Y-41904311D01*
X153436750Y-42555535D01*
X153432185Y-42601891D01*
X153420454Y-42640561D01*
X153401404Y-42676200D01*
X153375767Y-42707440D01*
X153344527Y-42733077D01*
X153308888Y-42752127D01*
X153270218Y-42763858D01*
X153223862Y-42768423D01*
X152147638Y-42768423D01*
X152101282Y-42763858D01*
X152062612Y-42752127D01*
X152026973Y-42733077D01*
X151995733Y-42707440D01*
X151970096Y-42676200D01*
X151951046Y-42640561D01*
X151939315Y-42601891D01*
X151934750Y-42555535D01*
X151934750Y-41904311D01*
X151939315Y-41857955D01*
X151951046Y-41819285D01*
X151970096Y-41783646D01*
X151995733Y-41752406D01*
X152026973Y-41726769D01*
X152062612Y-41707719D01*
X152101282Y-41695988D01*
X152147638Y-41691423D01*
X153223862Y-41691423D01*
X153270218Y-41695988D01*
G37*
G36*
X143738218Y-39417315D02*
G01*
X143776888Y-39429046D01*
X143812527Y-39448096D01*
X143843767Y-39473733D01*
X143869404Y-39504973D01*
X143888454Y-39540612D01*
X143900185Y-39579282D01*
X143904750Y-39625638D01*
X143904750Y-40701862D01*
X143900185Y-40748218D01*
X143888454Y-40786888D01*
X143869404Y-40822527D01*
X143843767Y-40853767D01*
X143812527Y-40879404D01*
X143776888Y-40898454D01*
X143738218Y-40910185D01*
X143691862Y-40914750D01*
X143040638Y-40914750D01*
X142994282Y-40910185D01*
X142955612Y-40898454D01*
X142919973Y-40879404D01*
X142888733Y-40853767D01*
X142863096Y-40822527D01*
X142844046Y-40786888D01*
X142832315Y-40748218D01*
X142827750Y-40701862D01*
X142827750Y-39625638D01*
X142832315Y-39579282D01*
X142844046Y-39540612D01*
X142863096Y-39504973D01*
X142888733Y-39473733D01*
X142919973Y-39448096D01*
X142955612Y-39429046D01*
X142994282Y-39417315D01*
X143040638Y-39412750D01*
X143691862Y-39412750D01*
X143738218Y-39417315D01*
G37*
G36*
X145613218Y-39417315D02*
G01*
X145651888Y-39429046D01*
X145687527Y-39448096D01*
X145718767Y-39473733D01*
X145744404Y-39504973D01*
X145763454Y-39540612D01*
X145775185Y-39579282D01*
X145779750Y-39625638D01*
X145779750Y-40701862D01*
X145775185Y-40748218D01*
X145763454Y-40786888D01*
X145744404Y-40822527D01*
X145718767Y-40853767D01*
X145687527Y-40879404D01*
X145651888Y-40898454D01*
X145613218Y-40910185D01*
X145566862Y-40914750D01*
X144915638Y-40914750D01*
X144869282Y-40910185D01*
X144830612Y-40898454D01*
X144794973Y-40879404D01*
X144763733Y-40853767D01*
X144738096Y-40822527D01*
X144719046Y-40786888D01*
X144707315Y-40748218D01*
X144702750Y-40701862D01*
X144702750Y-39625638D01*
X144707315Y-39579282D01*
X144719046Y-39540612D01*
X144738096Y-39504973D01*
X144763733Y-39473733D01*
X144794973Y-39448096D01*
X144830612Y-39429046D01*
X144869282Y-39417315D01*
X144915638Y-39412750D01*
X145566862Y-39412750D01*
X145613218Y-39417315D01*
G37*
G36*
X42719750Y-37869750D02*
G01*
X41417750Y-37869750D01*
X41417750Y-36867750D01*
X42719750Y-36867750D01*
X42719750Y-37869750D01*
G37*
G36*
X61769750Y-37869750D02*
G01*
X60467750Y-37869750D01*
X60467750Y-36867750D01*
X61769750Y-36867750D01*
X61769750Y-37869750D01*
G37*
G36*
X80819750Y-37869750D02*
G01*
X79517750Y-37869750D01*
X79517750Y-36867750D01*
X80819750Y-36867750D01*
X80819750Y-37869750D01*
G37*
G36*
X99869750Y-37869750D02*
G01*
X98567750Y-37869750D01*
X98567750Y-36867750D01*
X99869750Y-36867750D01*
X99869750Y-37869750D01*
G37*
G36*
X137969750Y-37869750D02*
G01*
X136667750Y-37869750D01*
X136667750Y-36867750D01*
X137969750Y-36867750D01*
X137969750Y-37869750D01*
G37*
G36*
X118919750Y-37807250D02*
G01*
X117617750Y-37807250D01*
X117617750Y-36805250D01*
X118919750Y-36805250D01*
X118919750Y-37807250D01*
G37*
G36*
X157019750Y-37807250D02*
G01*
X155717750Y-37807250D01*
X155717750Y-36805250D01*
X157019750Y-36805250D01*
X157019750Y-37807250D01*
G37*
G36*
X90290224Y-30577434D02*
G01*
X90508224Y-30667733D01*
X90662373Y-30731583D01*
X90997298Y-30955373D01*
X91282127Y-31240202D01*
X91505917Y-31575127D01*
X91538312Y-31653336D01*
X91660066Y-31947276D01*
X91738650Y-32342344D01*
X91738650Y-32745156D01*
X91660066Y-33140224D01*
X91609201Y-33263022D01*
X91505917Y-33512373D01*
X91282127Y-33847298D01*
X90997298Y-34132127D01*
X90662373Y-34355917D01*
X90508224Y-34419767D01*
X90290224Y-34510066D01*
X89895156Y-34588650D01*
X89492344Y-34588650D01*
X89097276Y-34510066D01*
X88879276Y-34419767D01*
X88725127Y-34355917D01*
X88390202Y-34132127D01*
X88105373Y-33847298D01*
X87881583Y-33512373D01*
X87778299Y-33263022D01*
X87727434Y-33140224D01*
X87648850Y-32745156D01*
X87648850Y-32342344D01*
X87727434Y-31947276D01*
X87849188Y-31653336D01*
X87881583Y-31575127D01*
X88105373Y-31240202D01*
X88390202Y-30955373D01*
X88725127Y-30731583D01*
X88879276Y-30667733D01*
X89097276Y-30577434D01*
X89492344Y-30498850D01*
X89895156Y-30498850D01*
X90290224Y-30577434D01*
G37*
G36*
X109340224Y-30577434D02*
G01*
X109558224Y-30667733D01*
X109712373Y-30731583D01*
X110047298Y-30955373D01*
X110332127Y-31240202D01*
X110555917Y-31575127D01*
X110588312Y-31653336D01*
X110710066Y-31947276D01*
X110788650Y-32342344D01*
X110788650Y-32745156D01*
X110710066Y-33140224D01*
X110659201Y-33263022D01*
X110555917Y-33512373D01*
X110332127Y-33847298D01*
X110047298Y-34132127D01*
X109712373Y-34355917D01*
X109558224Y-34419767D01*
X109340224Y-34510066D01*
X108945156Y-34588650D01*
X108542344Y-34588650D01*
X108147276Y-34510066D01*
X107929276Y-34419767D01*
X107775127Y-34355917D01*
X107440202Y-34132127D01*
X107155373Y-33847298D01*
X106931583Y-33512373D01*
X106828299Y-33263022D01*
X106777434Y-33140224D01*
X106698850Y-32745156D01*
X106698850Y-32342344D01*
X106777434Y-31947276D01*
X106899188Y-31653336D01*
X106931583Y-31575127D01*
X107155373Y-31240202D01*
X107440202Y-30955373D01*
X107775127Y-30731583D01*
X107929276Y-30667733D01*
X108147276Y-30577434D01*
X108542344Y-30498850D01*
X108945156Y-30498850D01*
X109340224Y-30577434D01*
G37*
G36*
X128390224Y-30577434D02*
G01*
X128608224Y-30667733D01*
X128762373Y-30731583D01*
X129097298Y-30955373D01*
X129382127Y-31240202D01*
X129605917Y-31575127D01*
X129638312Y-31653336D01*
X129760066Y-31947276D01*
X129838650Y-32342344D01*
X129838650Y-32745156D01*
X129760066Y-33140224D01*
X129709201Y-33263022D01*
X129605917Y-33512373D01*
X129382127Y-33847298D01*
X129097298Y-34132127D01*
X128762373Y-34355917D01*
X128608224Y-34419767D01*
X128390224Y-34510066D01*
X127995156Y-34588650D01*
X127592344Y-34588650D01*
X127197276Y-34510066D01*
X126979276Y-34419767D01*
X126825127Y-34355917D01*
X126490202Y-34132127D01*
X126205373Y-33847298D01*
X125981583Y-33512373D01*
X125878299Y-33263022D01*
X125827434Y-33140224D01*
X125748850Y-32745156D01*
X125748850Y-32342344D01*
X125827434Y-31947276D01*
X125949188Y-31653336D01*
X125981583Y-31575127D01*
X126205373Y-31240202D01*
X126490202Y-30955373D01*
X126825127Y-30731583D01*
X126979276Y-30667733D01*
X127197276Y-30577434D01*
X127592344Y-30498850D01*
X127995156Y-30498850D01*
X128390224Y-30577434D01*
G37*
G36*
X71240224Y-30577434D02*
G01*
X71458224Y-30667733D01*
X71612373Y-30731583D01*
X71947298Y-30955373D01*
X72232127Y-31240202D01*
X72455917Y-31575127D01*
X72488312Y-31653336D01*
X72610066Y-31947276D01*
X72688650Y-32342344D01*
X72688650Y-32745156D01*
X72610066Y-33140224D01*
X72559201Y-33263022D01*
X72455917Y-33512373D01*
X72232127Y-33847298D01*
X71947298Y-34132127D01*
X71612373Y-34355917D01*
X71458224Y-34419767D01*
X71240224Y-34510066D01*
X70845156Y-34588650D01*
X70442344Y-34588650D01*
X70047276Y-34510066D01*
X69829276Y-34419767D01*
X69675127Y-34355917D01*
X69340202Y-34132127D01*
X69055373Y-33847298D01*
X68831583Y-33512373D01*
X68728299Y-33263022D01*
X68677434Y-33140224D01*
X68598850Y-32745156D01*
X68598850Y-32342344D01*
X68677434Y-31947276D01*
X68799188Y-31653336D01*
X68831583Y-31575127D01*
X69055373Y-31240202D01*
X69340202Y-30955373D01*
X69675127Y-30731583D01*
X69829276Y-30667733D01*
X70047276Y-30577434D01*
X70442344Y-30498850D01*
X70845156Y-30498850D01*
X71240224Y-30577434D01*
G37*
G36*
X52190224Y-30577434D02*
G01*
X52408224Y-30667733D01*
X52562373Y-30731583D01*
X52897298Y-30955373D01*
X53182127Y-31240202D01*
X53405917Y-31575127D01*
X53438312Y-31653336D01*
X53560066Y-31947276D01*
X53638650Y-32342344D01*
X53638650Y-32745156D01*
X53560066Y-33140224D01*
X53509201Y-33263022D01*
X53405917Y-33512373D01*
X53182127Y-33847298D01*
X52897298Y-34132127D01*
X52562373Y-34355917D01*
X52408224Y-34419767D01*
X52190224Y-34510066D01*
X51795156Y-34588650D01*
X51392344Y-34588650D01*
X50997276Y-34510066D01*
X50779276Y-34419767D01*
X50625127Y-34355917D01*
X50290202Y-34132127D01*
X50005373Y-33847298D01*
X49781583Y-33512373D01*
X49678299Y-33263022D01*
X49627434Y-33140224D01*
X49548850Y-32745156D01*
X49548850Y-32342344D01*
X49627434Y-31947276D01*
X49749188Y-31653336D01*
X49781583Y-31575127D01*
X50005373Y-31240202D01*
X50290202Y-30955373D01*
X50625127Y-30731583D01*
X50779276Y-30667733D01*
X50997276Y-30577434D01*
X51392344Y-30498850D01*
X51795156Y-30498850D01*
X52190224Y-30577434D01*
G37*
G36*
X147440224Y-30577434D02*
G01*
X147658224Y-30667733D01*
X147812373Y-30731583D01*
X148147298Y-30955373D01*
X148432127Y-31240202D01*
X148655917Y-31575127D01*
X148688312Y-31653336D01*
X148810066Y-31947276D01*
X148888650Y-32342344D01*
X148888650Y-32745156D01*
X148810066Y-33140224D01*
X148759201Y-33263022D01*
X148655917Y-33512373D01*
X148432127Y-33847298D01*
X148147298Y-34132127D01*
X147812373Y-34355917D01*
X147658224Y-34419767D01*
X147440224Y-34510066D01*
X147045156Y-34588650D01*
X146642344Y-34588650D01*
X146247276Y-34510066D01*
X146029276Y-34419767D01*
X145875127Y-34355917D01*
X145540202Y-34132127D01*
X145255373Y-33847298D01*
X145031583Y-33512373D01*
X144928299Y-33263022D01*
X144877434Y-33140224D01*
X144798850Y-32745156D01*
X144798850Y-32342344D01*
X144877434Y-31947276D01*
X144999188Y-31653336D01*
X145031583Y-31575127D01*
X145255373Y-31240202D01*
X145540202Y-30955373D01*
X145875127Y-30731583D01*
X146029276Y-30667733D01*
X146247276Y-30577434D01*
X146642344Y-30498850D01*
X147045156Y-30498850D01*
X147440224Y-30577434D01*
G37*
G36*
X33140224Y-30577434D02*
G01*
X33358224Y-30667733D01*
X33512373Y-30731583D01*
X33847298Y-30955373D01*
X34132127Y-31240202D01*
X34355917Y-31575127D01*
X34388312Y-31653336D01*
X34510066Y-31947276D01*
X34588650Y-32342344D01*
X34588650Y-32745156D01*
X34510066Y-33140224D01*
X34459201Y-33263022D01*
X34355917Y-33512373D01*
X34132127Y-33847298D01*
X33847298Y-34132127D01*
X33512373Y-34355917D01*
X33358224Y-34419767D01*
X33140224Y-34510066D01*
X32745156Y-34588650D01*
X32342344Y-34588650D01*
X31947276Y-34510066D01*
X31729276Y-34419767D01*
X31575127Y-34355917D01*
X31240202Y-34132127D01*
X30955373Y-33847298D01*
X30731583Y-33512373D01*
X30628299Y-33263022D01*
X30577434Y-33140224D01*
X30498850Y-32745156D01*
X30498850Y-32342344D01*
X30577434Y-31947276D01*
X30699188Y-31653336D01*
X30731583Y-31575127D01*
X30955373Y-31240202D01*
X31240202Y-30955373D01*
X31575127Y-30731583D01*
X31729276Y-30667733D01*
X31947276Y-30577434D01*
X32342344Y-30498850D01*
X32745156Y-30498850D01*
X33140224Y-30577434D01*
G37*
G36*
X137969750Y-34569750D02*
G01*
X136667750Y-34569750D01*
X136667750Y-33567750D01*
X137969750Y-33567750D01*
X137969750Y-34569750D01*
G37*
G36*
X99869750Y-34569750D02*
G01*
X98567750Y-34569750D01*
X98567750Y-33567750D01*
X99869750Y-33567750D01*
X99869750Y-34569750D01*
G37*
G36*
X80819750Y-34569750D02*
G01*
X79517750Y-34569750D01*
X79517750Y-33567750D01*
X80819750Y-33567750D01*
X80819750Y-34569750D01*
G37*
G36*
X61769750Y-34569750D02*
G01*
X60467750Y-34569750D01*
X60467750Y-33567750D01*
X61769750Y-33567750D01*
X61769750Y-34569750D01*
G37*
G36*
X42719750Y-34569750D02*
G01*
X41417750Y-34569750D01*
X41417750Y-33567750D01*
X42719750Y-33567750D01*
X42719750Y-34569750D01*
G37*
G36*
X157019750Y-34507250D02*
G01*
X155717750Y-34507250D01*
X155717750Y-33505250D01*
X157019750Y-33505250D01*
X157019750Y-34507250D01*
G37*
G36*
X118919750Y-34507250D02*
G01*
X117617750Y-34507250D01*
X117617750Y-33505250D01*
X118919750Y-33505250D01*
X118919750Y-34507250D01*
G37*
G36*
X37893854Y-31653335D02*
G01*
X38062376Y-31723139D01*
X38214041Y-31824478D01*
X38343022Y-31953459D01*
X38444361Y-32105124D01*
X38514165Y-32273646D01*
X38549750Y-32452547D01*
X38549750Y-32634953D01*
X38514165Y-32813854D01*
X38444361Y-32982376D01*
X38343022Y-33134041D01*
X38214041Y-33263022D01*
X38062376Y-33364361D01*
X37893854Y-33434165D01*
X37714953Y-33469750D01*
X37532547Y-33469750D01*
X37353646Y-33434165D01*
X37185124Y-33364361D01*
X37033459Y-33263022D01*
X36904478Y-33134041D01*
X36803139Y-32982376D01*
X36733335Y-32813854D01*
X36697750Y-32634953D01*
X36697750Y-32452547D01*
X36733335Y-32273646D01*
X36803139Y-32105124D01*
X36904478Y-31953459D01*
X37033459Y-31824478D01*
X37185124Y-31723139D01*
X37353646Y-31653335D01*
X37532547Y-31617750D01*
X37714953Y-31617750D01*
X37893854Y-31653335D01*
G37*
G36*
X56943854Y-31653335D02*
G01*
X57112376Y-31723139D01*
X57264041Y-31824478D01*
X57393022Y-31953459D01*
X57494361Y-32105124D01*
X57564165Y-32273646D01*
X57599750Y-32452547D01*
X57599750Y-32634953D01*
X57564165Y-32813854D01*
X57494361Y-32982376D01*
X57393022Y-33134041D01*
X57264041Y-33263022D01*
X57112376Y-33364361D01*
X56943854Y-33434165D01*
X56764953Y-33469750D01*
X56582547Y-33469750D01*
X56403646Y-33434165D01*
X56235124Y-33364361D01*
X56083459Y-33263022D01*
X55954478Y-33134041D01*
X55853139Y-32982376D01*
X55783335Y-32813854D01*
X55747750Y-32634953D01*
X55747750Y-32452547D01*
X55783335Y-32273646D01*
X55853139Y-32105124D01*
X55954478Y-31953459D01*
X56083459Y-31824478D01*
X56235124Y-31723139D01*
X56403646Y-31653335D01*
X56582547Y-31617750D01*
X56764953Y-31617750D01*
X56943854Y-31653335D01*
G37*
G36*
X46783854Y-31653335D02*
G01*
X46952376Y-31723139D01*
X47104041Y-31824478D01*
X47233022Y-31953459D01*
X47334361Y-32105124D01*
X47404165Y-32273646D01*
X47439750Y-32452547D01*
X47439750Y-32634953D01*
X47404165Y-32813854D01*
X47334361Y-32982376D01*
X47233022Y-33134041D01*
X47104041Y-33263022D01*
X46952376Y-33364361D01*
X46783854Y-33434165D01*
X46604953Y-33469750D01*
X46422547Y-33469750D01*
X46243646Y-33434165D01*
X46075124Y-33364361D01*
X45923459Y-33263022D01*
X45794478Y-33134041D01*
X45693139Y-32982376D01*
X45623335Y-32813854D01*
X45587750Y-32634953D01*
X45587750Y-32452547D01*
X45623335Y-32273646D01*
X45693139Y-32105124D01*
X45794478Y-31953459D01*
X45923459Y-31824478D01*
X46075124Y-31723139D01*
X46243646Y-31653335D01*
X46422547Y-31617750D01*
X46604953Y-31617750D01*
X46783854Y-31653335D01*
G37*
G36*
X27733854Y-31653335D02*
G01*
X27902376Y-31723139D01*
X28054041Y-31824478D01*
X28183022Y-31953459D01*
X28284361Y-32105124D01*
X28354165Y-32273646D01*
X28389750Y-32452547D01*
X28389750Y-32634953D01*
X28354165Y-32813854D01*
X28284361Y-32982376D01*
X28183022Y-33134041D01*
X28054041Y-33263022D01*
X27902376Y-33364361D01*
X27733854Y-33434165D01*
X27554953Y-33469750D01*
X27372547Y-33469750D01*
X27193646Y-33434165D01*
X27025124Y-33364361D01*
X26873459Y-33263022D01*
X26744478Y-33134041D01*
X26643139Y-32982376D01*
X26573335Y-32813854D01*
X26537750Y-32634953D01*
X26537750Y-32452547D01*
X26573335Y-32273646D01*
X26643139Y-32105124D01*
X26744478Y-31953459D01*
X26873459Y-31824478D01*
X27025124Y-31723139D01*
X27193646Y-31653335D01*
X27372547Y-31617750D01*
X27554953Y-31617750D01*
X27733854Y-31653335D01*
G37*
G36*
X75993854Y-31653335D02*
G01*
X76162376Y-31723139D01*
X76314041Y-31824478D01*
X76443022Y-31953459D01*
X76544361Y-32105124D01*
X76614165Y-32273646D01*
X76649750Y-32452547D01*
X76649750Y-32634953D01*
X76614165Y-32813854D01*
X76544361Y-32982376D01*
X76443022Y-33134041D01*
X76314041Y-33263022D01*
X76162376Y-33364361D01*
X75993854Y-33434165D01*
X75814953Y-33469750D01*
X75632547Y-33469750D01*
X75453646Y-33434165D01*
X75285124Y-33364361D01*
X75133459Y-33263022D01*
X75004478Y-33134041D01*
X74903139Y-32982376D01*
X74833335Y-32813854D01*
X74797750Y-32634953D01*
X74797750Y-32452547D01*
X74833335Y-32273646D01*
X74903139Y-32105124D01*
X75004478Y-31953459D01*
X75133459Y-31824478D01*
X75285124Y-31723139D01*
X75453646Y-31653335D01*
X75632547Y-31617750D01*
X75814953Y-31617750D01*
X75993854Y-31653335D01*
G37*
G36*
X65833854Y-31653335D02*
G01*
X66002376Y-31723139D01*
X66154041Y-31824478D01*
X66283022Y-31953459D01*
X66384361Y-32105124D01*
X66454165Y-32273646D01*
X66489750Y-32452547D01*
X66489750Y-32634953D01*
X66454165Y-32813854D01*
X66384361Y-32982376D01*
X66283022Y-33134041D01*
X66154041Y-33263022D01*
X66002376Y-33364361D01*
X65833854Y-33434165D01*
X65654953Y-33469750D01*
X65472547Y-33469750D01*
X65293646Y-33434165D01*
X65125124Y-33364361D01*
X64973459Y-33263022D01*
X64844478Y-33134041D01*
X64743139Y-32982376D01*
X64673335Y-32813854D01*
X64637750Y-32634953D01*
X64637750Y-32452547D01*
X64673335Y-32273646D01*
X64743139Y-32105124D01*
X64844478Y-31953459D01*
X64973459Y-31824478D01*
X65125124Y-31723139D01*
X65293646Y-31653335D01*
X65472547Y-31617750D01*
X65654953Y-31617750D01*
X65833854Y-31653335D01*
G37*
G36*
X95043854Y-31653335D02*
G01*
X95212376Y-31723139D01*
X95364041Y-31824478D01*
X95493022Y-31953459D01*
X95594361Y-32105124D01*
X95664165Y-32273646D01*
X95699750Y-32452547D01*
X95699750Y-32634953D01*
X95664165Y-32813854D01*
X95594361Y-32982376D01*
X95493022Y-33134041D01*
X95364041Y-33263022D01*
X95212376Y-33364361D01*
X95043854Y-33434165D01*
X94864953Y-33469750D01*
X94682547Y-33469750D01*
X94503646Y-33434165D01*
X94335124Y-33364361D01*
X94183459Y-33263022D01*
X94054478Y-33134041D01*
X93953139Y-32982376D01*
X93883335Y-32813854D01*
X93847750Y-32634953D01*
X93847750Y-32452547D01*
X93883335Y-32273646D01*
X93953139Y-32105124D01*
X94054478Y-31953459D01*
X94183459Y-31824478D01*
X94335124Y-31723139D01*
X94503646Y-31653335D01*
X94682547Y-31617750D01*
X94864953Y-31617750D01*
X95043854Y-31653335D01*
G37*
G36*
X84883854Y-31653335D02*
G01*
X85052376Y-31723139D01*
X85204041Y-31824478D01*
X85333022Y-31953459D01*
X85434361Y-32105124D01*
X85504165Y-32273646D01*
X85539750Y-32452547D01*
X85539750Y-32634953D01*
X85504165Y-32813854D01*
X85434361Y-32982376D01*
X85333022Y-33134041D01*
X85204041Y-33263022D01*
X85052376Y-33364361D01*
X84883854Y-33434165D01*
X84704953Y-33469750D01*
X84522547Y-33469750D01*
X84343646Y-33434165D01*
X84175124Y-33364361D01*
X84023459Y-33263022D01*
X83894478Y-33134041D01*
X83793139Y-32982376D01*
X83723335Y-32813854D01*
X83687750Y-32634953D01*
X83687750Y-32452547D01*
X83723335Y-32273646D01*
X83793139Y-32105124D01*
X83894478Y-31953459D01*
X84023459Y-31824478D01*
X84175124Y-31723139D01*
X84343646Y-31653335D01*
X84522547Y-31617750D01*
X84704953Y-31617750D01*
X84883854Y-31653335D01*
G37*
G36*
X114093854Y-31653335D02*
G01*
X114262376Y-31723139D01*
X114414041Y-31824478D01*
X114543022Y-31953459D01*
X114644361Y-32105124D01*
X114714165Y-32273646D01*
X114749750Y-32452547D01*
X114749750Y-32634953D01*
X114714165Y-32813854D01*
X114644361Y-32982376D01*
X114543022Y-33134041D01*
X114414041Y-33263022D01*
X114262376Y-33364361D01*
X114093854Y-33434165D01*
X113914953Y-33469750D01*
X113732547Y-33469750D01*
X113553646Y-33434165D01*
X113385124Y-33364361D01*
X113233459Y-33263022D01*
X113104478Y-33134041D01*
X113003139Y-32982376D01*
X112933335Y-32813854D01*
X112897750Y-32634953D01*
X112897750Y-32452547D01*
X112933335Y-32273646D01*
X113003139Y-32105124D01*
X113104478Y-31953459D01*
X113233459Y-31824478D01*
X113385124Y-31723139D01*
X113553646Y-31653335D01*
X113732547Y-31617750D01*
X113914953Y-31617750D01*
X114093854Y-31653335D01*
G37*
G36*
X103933854Y-31653335D02*
G01*
X104102376Y-31723139D01*
X104254041Y-31824478D01*
X104383022Y-31953459D01*
X104484361Y-32105124D01*
X104554165Y-32273646D01*
X104589750Y-32452547D01*
X104589750Y-32634953D01*
X104554165Y-32813854D01*
X104484361Y-32982376D01*
X104383022Y-33134041D01*
X104254041Y-33263022D01*
X104102376Y-33364361D01*
X103933854Y-33434165D01*
X103754953Y-33469750D01*
X103572547Y-33469750D01*
X103393646Y-33434165D01*
X103225124Y-33364361D01*
X103073459Y-33263022D01*
X102944478Y-33134041D01*
X102843139Y-32982376D01*
X102773335Y-32813854D01*
X102737750Y-32634953D01*
X102737750Y-32452547D01*
X102773335Y-32273646D01*
X102843139Y-32105124D01*
X102944478Y-31953459D01*
X103073459Y-31824478D01*
X103225124Y-31723139D01*
X103393646Y-31653335D01*
X103572547Y-31617750D01*
X103754953Y-31617750D01*
X103933854Y-31653335D01*
G37*
G36*
X133143854Y-31653335D02*
G01*
X133312376Y-31723139D01*
X133464041Y-31824478D01*
X133593022Y-31953459D01*
X133694361Y-32105124D01*
X133764165Y-32273646D01*
X133799750Y-32452547D01*
X133799750Y-32634953D01*
X133764165Y-32813854D01*
X133694361Y-32982376D01*
X133593022Y-33134041D01*
X133464041Y-33263022D01*
X133312376Y-33364361D01*
X133143854Y-33434165D01*
X132964953Y-33469750D01*
X132782547Y-33469750D01*
X132603646Y-33434165D01*
X132435124Y-33364361D01*
X132283459Y-33263022D01*
X132154478Y-33134041D01*
X132053139Y-32982376D01*
X131983335Y-32813854D01*
X131947750Y-32634953D01*
X131947750Y-32452547D01*
X131983335Y-32273646D01*
X132053139Y-32105124D01*
X132154478Y-31953459D01*
X132283459Y-31824478D01*
X132435124Y-31723139D01*
X132603646Y-31653335D01*
X132782547Y-31617750D01*
X132964953Y-31617750D01*
X133143854Y-31653335D01*
G37*
G36*
X122983854Y-31653335D02*
G01*
X123152376Y-31723139D01*
X123304041Y-31824478D01*
X123433022Y-31953459D01*
X123534361Y-32105124D01*
X123604165Y-32273646D01*
X123639750Y-32452547D01*
X123639750Y-32634953D01*
X123604165Y-32813854D01*
X123534361Y-32982376D01*
X123433022Y-33134041D01*
X123304041Y-33263022D01*
X123152376Y-33364361D01*
X122983854Y-33434165D01*
X122804953Y-33469750D01*
X122622547Y-33469750D01*
X122443646Y-33434165D01*
X122275124Y-33364361D01*
X122123459Y-33263022D01*
X121994478Y-33134041D01*
X121893139Y-32982376D01*
X121823335Y-32813854D01*
X121787750Y-32634953D01*
X121787750Y-32452547D01*
X121823335Y-32273646D01*
X121893139Y-32105124D01*
X121994478Y-31953459D01*
X122123459Y-31824478D01*
X122275124Y-31723139D01*
X122443646Y-31653335D01*
X122622547Y-31617750D01*
X122804953Y-31617750D01*
X122983854Y-31653335D01*
G37*
G36*
X152193854Y-31653335D02*
G01*
X152362376Y-31723139D01*
X152514041Y-31824478D01*
X152643022Y-31953459D01*
X152744361Y-32105124D01*
X152814165Y-32273646D01*
X152849750Y-32452547D01*
X152849750Y-32634953D01*
X152814165Y-32813854D01*
X152744361Y-32982376D01*
X152643022Y-33134041D01*
X152514041Y-33263022D01*
X152362376Y-33364361D01*
X152193854Y-33434165D01*
X152014953Y-33469750D01*
X151832547Y-33469750D01*
X151653646Y-33434165D01*
X151485124Y-33364361D01*
X151333459Y-33263022D01*
X151204478Y-33134041D01*
X151103139Y-32982376D01*
X151033335Y-32813854D01*
X150997750Y-32634953D01*
X150997750Y-32452547D01*
X151033335Y-32273646D01*
X151103139Y-32105124D01*
X151204478Y-31953459D01*
X151333459Y-31824478D01*
X151485124Y-31723139D01*
X151653646Y-31653335D01*
X151832547Y-31617750D01*
X152014953Y-31617750D01*
X152193854Y-31653335D01*
G37*
G36*
X142033854Y-31653335D02*
G01*
X142202376Y-31723139D01*
X142354041Y-31824478D01*
X142483022Y-31953459D01*
X142584361Y-32105124D01*
X142654165Y-32273646D01*
X142689750Y-32452547D01*
X142689750Y-32634953D01*
X142654165Y-32813854D01*
X142584361Y-32982376D01*
X142483022Y-33134041D01*
X142354041Y-33263022D01*
X142202376Y-33364361D01*
X142033854Y-33434165D01*
X141854953Y-33469750D01*
X141672547Y-33469750D01*
X141493646Y-33434165D01*
X141325124Y-33364361D01*
X141173459Y-33263022D01*
X141044478Y-33134041D01*
X140943139Y-32982376D01*
X140873335Y-32813854D01*
X140837750Y-32634953D01*
X140837750Y-32452547D01*
X140873335Y-32273646D01*
X140943139Y-32105124D01*
X141044478Y-31953459D01*
X141173459Y-31824478D01*
X141325124Y-31723139D01*
X141493646Y-31653335D01*
X141672547Y-31617750D01*
X141854953Y-31617750D01*
X142033854Y-31653335D01*
G37*
G36*
X28925310Y-28842814D02*
G01*
X29076777Y-28872943D01*
X29290795Y-28961592D01*
X29290796Y-28961593D01*
X29483404Y-29090289D01*
X29647211Y-29254096D01*
X29733008Y-29382501D01*
X29775908Y-29446705D01*
X29864557Y-29660723D01*
X29909750Y-29887924D01*
X29909750Y-30119576D01*
X29864557Y-30346777D01*
X29775908Y-30560795D01*
X29775907Y-30560796D01*
X29647211Y-30753404D01*
X29483404Y-30917211D01*
X29426290Y-30955373D01*
X29290795Y-31045908D01*
X29076777Y-31134557D01*
X28925310Y-31164686D01*
X28849577Y-31179750D01*
X28617923Y-31179750D01*
X28542190Y-31164686D01*
X28390723Y-31134557D01*
X28176705Y-31045908D01*
X28041210Y-30955373D01*
X27984096Y-30917211D01*
X27820289Y-30753404D01*
X27691593Y-30560796D01*
X27691592Y-30560795D01*
X27602943Y-30346777D01*
X27557750Y-30119576D01*
X27557750Y-29887924D01*
X27602943Y-29660723D01*
X27691592Y-29446705D01*
X27734492Y-29382501D01*
X27820289Y-29254096D01*
X27984096Y-29090289D01*
X28176704Y-28961593D01*
X28176705Y-28961592D01*
X28390723Y-28872943D01*
X28542190Y-28842814D01*
X28617923Y-28827750D01*
X28849577Y-28827750D01*
X28925310Y-28842814D01*
G37*
G36*
X143225310Y-28842814D02*
G01*
X143376777Y-28872943D01*
X143590795Y-28961592D01*
X143590796Y-28961593D01*
X143783404Y-29090289D01*
X143947211Y-29254096D01*
X144033008Y-29382501D01*
X144075908Y-29446705D01*
X144164557Y-29660723D01*
X144209750Y-29887924D01*
X144209750Y-30119576D01*
X144164557Y-30346777D01*
X144075908Y-30560795D01*
X144075907Y-30560796D01*
X143947211Y-30753404D01*
X143783404Y-30917211D01*
X143726290Y-30955373D01*
X143590795Y-31045908D01*
X143376777Y-31134557D01*
X143225310Y-31164686D01*
X143149577Y-31179750D01*
X142917923Y-31179750D01*
X142842190Y-31164686D01*
X142690723Y-31134557D01*
X142476705Y-31045908D01*
X142341210Y-30955373D01*
X142284096Y-30917211D01*
X142120289Y-30753404D01*
X141991593Y-30560796D01*
X141991592Y-30560795D01*
X141902943Y-30346777D01*
X141857750Y-30119576D01*
X141857750Y-29887924D01*
X141902943Y-29660723D01*
X141991592Y-29446705D01*
X142034492Y-29382501D01*
X142120289Y-29254096D01*
X142284096Y-29090289D01*
X142476704Y-28961593D01*
X142476705Y-28961592D01*
X142690723Y-28872943D01*
X142842190Y-28842814D01*
X142917923Y-28827750D01*
X143149577Y-28827750D01*
X143225310Y-28842814D01*
G37*
G36*
X124175310Y-28842814D02*
G01*
X124326777Y-28872943D01*
X124540795Y-28961592D01*
X124540796Y-28961593D01*
X124733404Y-29090289D01*
X124897211Y-29254096D01*
X124983008Y-29382501D01*
X125025908Y-29446705D01*
X125114557Y-29660723D01*
X125159750Y-29887924D01*
X125159750Y-30119576D01*
X125114557Y-30346777D01*
X125025908Y-30560795D01*
X125025907Y-30560796D01*
X124897211Y-30753404D01*
X124733404Y-30917211D01*
X124676290Y-30955373D01*
X124540795Y-31045908D01*
X124326777Y-31134557D01*
X124175310Y-31164686D01*
X124099577Y-31179750D01*
X123867923Y-31179750D01*
X123792190Y-31164686D01*
X123640723Y-31134557D01*
X123426705Y-31045908D01*
X123291210Y-30955373D01*
X123234096Y-30917211D01*
X123070289Y-30753404D01*
X122941593Y-30560796D01*
X122941592Y-30560795D01*
X122852943Y-30346777D01*
X122807750Y-30119576D01*
X122807750Y-29887924D01*
X122852943Y-29660723D01*
X122941592Y-29446705D01*
X122984492Y-29382501D01*
X123070289Y-29254096D01*
X123234096Y-29090289D01*
X123426704Y-28961593D01*
X123426705Y-28961592D01*
X123640723Y-28872943D01*
X123792190Y-28842814D01*
X123867923Y-28827750D01*
X124099577Y-28827750D01*
X124175310Y-28842814D01*
G37*
G36*
X105125310Y-28842814D02*
G01*
X105276777Y-28872943D01*
X105490795Y-28961592D01*
X105490796Y-28961593D01*
X105683404Y-29090289D01*
X105847211Y-29254096D01*
X105933008Y-29382501D01*
X105975908Y-29446705D01*
X106064557Y-29660723D01*
X106109750Y-29887924D01*
X106109750Y-30119576D01*
X106064557Y-30346777D01*
X105975908Y-30560795D01*
X105975907Y-30560796D01*
X105847211Y-30753404D01*
X105683404Y-30917211D01*
X105626290Y-30955373D01*
X105490795Y-31045908D01*
X105276777Y-31134557D01*
X105125310Y-31164686D01*
X105049577Y-31179750D01*
X104817923Y-31179750D01*
X104742190Y-31164686D01*
X104590723Y-31134557D01*
X104376705Y-31045908D01*
X104241210Y-30955373D01*
X104184096Y-30917211D01*
X104020289Y-30753404D01*
X103891593Y-30560796D01*
X103891592Y-30560795D01*
X103802943Y-30346777D01*
X103757750Y-30119576D01*
X103757750Y-29887924D01*
X103802943Y-29660723D01*
X103891592Y-29446705D01*
X103934492Y-29382501D01*
X104020289Y-29254096D01*
X104184096Y-29090289D01*
X104376704Y-28961593D01*
X104376705Y-28961592D01*
X104590723Y-28872943D01*
X104742190Y-28842814D01*
X104817923Y-28827750D01*
X105049577Y-28827750D01*
X105125310Y-28842814D01*
G37*
G36*
X86075310Y-28842814D02*
G01*
X86226777Y-28872943D01*
X86440795Y-28961592D01*
X86440796Y-28961593D01*
X86633404Y-29090289D01*
X86797211Y-29254096D01*
X86883008Y-29382501D01*
X86925908Y-29446705D01*
X87014557Y-29660723D01*
X87059750Y-29887924D01*
X87059750Y-30119576D01*
X87014557Y-30346777D01*
X86925908Y-30560795D01*
X86925907Y-30560796D01*
X86797211Y-30753404D01*
X86633404Y-30917211D01*
X86576290Y-30955373D01*
X86440795Y-31045908D01*
X86226777Y-31134557D01*
X86075310Y-31164686D01*
X85999577Y-31179750D01*
X85767923Y-31179750D01*
X85692190Y-31164686D01*
X85540723Y-31134557D01*
X85326705Y-31045908D01*
X85191210Y-30955373D01*
X85134096Y-30917211D01*
X84970289Y-30753404D01*
X84841593Y-30560796D01*
X84841592Y-30560795D01*
X84752943Y-30346777D01*
X84707750Y-30119576D01*
X84707750Y-29887924D01*
X84752943Y-29660723D01*
X84841592Y-29446705D01*
X84884492Y-29382501D01*
X84970289Y-29254096D01*
X85134096Y-29090289D01*
X85326704Y-28961593D01*
X85326705Y-28961592D01*
X85540723Y-28872943D01*
X85692190Y-28842814D01*
X85767923Y-28827750D01*
X85999577Y-28827750D01*
X86075310Y-28842814D01*
G37*
G36*
X67025310Y-28842814D02*
G01*
X67176777Y-28872943D01*
X67390795Y-28961592D01*
X67390796Y-28961593D01*
X67583404Y-29090289D01*
X67747211Y-29254096D01*
X67833008Y-29382501D01*
X67875908Y-29446705D01*
X67964557Y-29660723D01*
X68009750Y-29887924D01*
X68009750Y-30119576D01*
X67964557Y-30346777D01*
X67875908Y-30560795D01*
X67875907Y-30560796D01*
X67747211Y-30753404D01*
X67583404Y-30917211D01*
X67526290Y-30955373D01*
X67390795Y-31045908D01*
X67176777Y-31134557D01*
X67025310Y-31164686D01*
X66949577Y-31179750D01*
X66717923Y-31179750D01*
X66642190Y-31164686D01*
X66490723Y-31134557D01*
X66276705Y-31045908D01*
X66141210Y-30955373D01*
X66084096Y-30917211D01*
X65920289Y-30753404D01*
X65791593Y-30560796D01*
X65791592Y-30560795D01*
X65702943Y-30346777D01*
X65657750Y-30119576D01*
X65657750Y-29887924D01*
X65702943Y-29660723D01*
X65791592Y-29446705D01*
X65834492Y-29382501D01*
X65920289Y-29254096D01*
X66084096Y-29090289D01*
X66276704Y-28961593D01*
X66276705Y-28961592D01*
X66490723Y-28872943D01*
X66642190Y-28842814D01*
X66717923Y-28827750D01*
X66949577Y-28827750D01*
X67025310Y-28842814D01*
G37*
G36*
X47975310Y-28842814D02*
G01*
X48126777Y-28872943D01*
X48340795Y-28961592D01*
X48340796Y-28961593D01*
X48533404Y-29090289D01*
X48697211Y-29254096D01*
X48783008Y-29382501D01*
X48825908Y-29446705D01*
X48914557Y-29660723D01*
X48959750Y-29887924D01*
X48959750Y-30119576D01*
X48914557Y-30346777D01*
X48825908Y-30560795D01*
X48825907Y-30560796D01*
X48697211Y-30753404D01*
X48533404Y-30917211D01*
X48476290Y-30955373D01*
X48340795Y-31045908D01*
X48126777Y-31134557D01*
X47975310Y-31164686D01*
X47899577Y-31179750D01*
X47667923Y-31179750D01*
X47592190Y-31164686D01*
X47440723Y-31134557D01*
X47226705Y-31045908D01*
X47091210Y-30955373D01*
X47034096Y-30917211D01*
X46870289Y-30753404D01*
X46741593Y-30560796D01*
X46741592Y-30560795D01*
X46652943Y-30346777D01*
X46607750Y-30119576D01*
X46607750Y-29887924D01*
X46652943Y-29660723D01*
X46741592Y-29446705D01*
X46784492Y-29382501D01*
X46870289Y-29254096D01*
X47034096Y-29090289D01*
X47226704Y-28961593D01*
X47226705Y-28961592D01*
X47440723Y-28872943D01*
X47592190Y-28842814D01*
X47667923Y-28827750D01*
X47899577Y-28827750D01*
X47975310Y-28842814D01*
G37*
G36*
X35275310Y-26302814D02*
G01*
X35426777Y-26332943D01*
X35640795Y-26421592D01*
X35640796Y-26421593D01*
X35833404Y-26550289D01*
X35997211Y-26714096D01*
X36083008Y-26842501D01*
X36125908Y-26906705D01*
X36214557Y-27120723D01*
X36259750Y-27347924D01*
X36259750Y-27579576D01*
X36214557Y-27806777D01*
X36125908Y-28020795D01*
X36125907Y-28020796D01*
X35997211Y-28213404D01*
X35833404Y-28377211D01*
X35704999Y-28463008D01*
X35640795Y-28505908D01*
X35426777Y-28594557D01*
X35275310Y-28624686D01*
X35199577Y-28639750D01*
X34967923Y-28639750D01*
X34892190Y-28624686D01*
X34740723Y-28594557D01*
X34526705Y-28505908D01*
X34462501Y-28463008D01*
X34334096Y-28377211D01*
X34170289Y-28213404D01*
X34041593Y-28020796D01*
X34041592Y-28020795D01*
X33952943Y-27806777D01*
X33907750Y-27579576D01*
X33907750Y-27347924D01*
X33952943Y-27120723D01*
X34041592Y-26906705D01*
X34084492Y-26842501D01*
X34170289Y-26714096D01*
X34334096Y-26550289D01*
X34526704Y-26421593D01*
X34526705Y-26421592D01*
X34740723Y-26332943D01*
X34892190Y-26302814D01*
X34967923Y-26287750D01*
X35199577Y-26287750D01*
X35275310Y-26302814D01*
G37*
G36*
X149575310Y-26302814D02*
G01*
X149726777Y-26332943D01*
X149940795Y-26421592D01*
X149940796Y-26421593D01*
X150133404Y-26550289D01*
X150297211Y-26714096D01*
X150383008Y-26842501D01*
X150425908Y-26906705D01*
X150514557Y-27120723D01*
X150559750Y-27347924D01*
X150559750Y-27579576D01*
X150514557Y-27806777D01*
X150425908Y-28020795D01*
X150425907Y-28020796D01*
X150297211Y-28213404D01*
X150133404Y-28377211D01*
X150004999Y-28463008D01*
X149940795Y-28505908D01*
X149726777Y-28594557D01*
X149575310Y-28624686D01*
X149499577Y-28639750D01*
X149267923Y-28639750D01*
X149192190Y-28624686D01*
X149040723Y-28594557D01*
X148826705Y-28505908D01*
X148762501Y-28463008D01*
X148634096Y-28377211D01*
X148470289Y-28213404D01*
X148341593Y-28020796D01*
X148341592Y-28020795D01*
X148252943Y-27806777D01*
X148207750Y-27579576D01*
X148207750Y-27347924D01*
X148252943Y-27120723D01*
X148341592Y-26906705D01*
X148384492Y-26842501D01*
X148470289Y-26714096D01*
X148634096Y-26550289D01*
X148826704Y-26421593D01*
X148826705Y-26421592D01*
X149040723Y-26332943D01*
X149192190Y-26302814D01*
X149267923Y-26287750D01*
X149499577Y-26287750D01*
X149575310Y-26302814D01*
G37*
G36*
X130525310Y-26302814D02*
G01*
X130676777Y-26332943D01*
X130890795Y-26421592D01*
X130890796Y-26421593D01*
X131083404Y-26550289D01*
X131247211Y-26714096D01*
X131333008Y-26842501D01*
X131375908Y-26906705D01*
X131464557Y-27120723D01*
X131509750Y-27347924D01*
X131509750Y-27579576D01*
X131464557Y-27806777D01*
X131375908Y-28020795D01*
X131375907Y-28020796D01*
X131247211Y-28213404D01*
X131083404Y-28377211D01*
X130954999Y-28463008D01*
X130890795Y-28505908D01*
X130676777Y-28594557D01*
X130525310Y-28624686D01*
X130449577Y-28639750D01*
X130217923Y-28639750D01*
X130142190Y-28624686D01*
X129990723Y-28594557D01*
X129776705Y-28505908D01*
X129712501Y-28463008D01*
X129584096Y-28377211D01*
X129420289Y-28213404D01*
X129291593Y-28020796D01*
X129291592Y-28020795D01*
X129202943Y-27806777D01*
X129157750Y-27579576D01*
X129157750Y-27347924D01*
X129202943Y-27120723D01*
X129291592Y-26906705D01*
X129334492Y-26842501D01*
X129420289Y-26714096D01*
X129584096Y-26550289D01*
X129776704Y-26421593D01*
X129776705Y-26421592D01*
X129990723Y-26332943D01*
X130142190Y-26302814D01*
X130217923Y-26287750D01*
X130449577Y-26287750D01*
X130525310Y-26302814D01*
G37*
G36*
X111475310Y-26302814D02*
G01*
X111626777Y-26332943D01*
X111840795Y-26421592D01*
X111840796Y-26421593D01*
X112033404Y-26550289D01*
X112197211Y-26714096D01*
X112283008Y-26842501D01*
X112325908Y-26906705D01*
X112414557Y-27120723D01*
X112459750Y-27347924D01*
X112459750Y-27579576D01*
X112414557Y-27806777D01*
X112325908Y-28020795D01*
X112325907Y-28020796D01*
X112197211Y-28213404D01*
X112033404Y-28377211D01*
X111904999Y-28463008D01*
X111840795Y-28505908D01*
X111626777Y-28594557D01*
X111475310Y-28624686D01*
X111399577Y-28639750D01*
X111167923Y-28639750D01*
X111092190Y-28624686D01*
X110940723Y-28594557D01*
X110726705Y-28505908D01*
X110662501Y-28463008D01*
X110534096Y-28377211D01*
X110370289Y-28213404D01*
X110241593Y-28020796D01*
X110241592Y-28020795D01*
X110152943Y-27806777D01*
X110107750Y-27579576D01*
X110107750Y-27347924D01*
X110152943Y-27120723D01*
X110241592Y-26906705D01*
X110284492Y-26842501D01*
X110370289Y-26714096D01*
X110534096Y-26550289D01*
X110726704Y-26421593D01*
X110726705Y-26421592D01*
X110940723Y-26332943D01*
X111092190Y-26302814D01*
X111167923Y-26287750D01*
X111399577Y-26287750D01*
X111475310Y-26302814D01*
G37*
G36*
X92425310Y-26302814D02*
G01*
X92576777Y-26332943D01*
X92790795Y-26421592D01*
X92790796Y-26421593D01*
X92983404Y-26550289D01*
X93147211Y-26714096D01*
X93233008Y-26842501D01*
X93275908Y-26906705D01*
X93364557Y-27120723D01*
X93409750Y-27347924D01*
X93409750Y-27579576D01*
X93364557Y-27806777D01*
X93275908Y-28020795D01*
X93275907Y-28020796D01*
X93147211Y-28213404D01*
X92983404Y-28377211D01*
X92854999Y-28463008D01*
X92790795Y-28505908D01*
X92576777Y-28594557D01*
X92425310Y-28624686D01*
X92349577Y-28639750D01*
X92117923Y-28639750D01*
X92042190Y-28624686D01*
X91890723Y-28594557D01*
X91676705Y-28505908D01*
X91612501Y-28463008D01*
X91484096Y-28377211D01*
X91320289Y-28213404D01*
X91191593Y-28020796D01*
X91191592Y-28020795D01*
X91102943Y-27806777D01*
X91057750Y-27579576D01*
X91057750Y-27347924D01*
X91102943Y-27120723D01*
X91191592Y-26906705D01*
X91234492Y-26842501D01*
X91320289Y-26714096D01*
X91484096Y-26550289D01*
X91676704Y-26421593D01*
X91676705Y-26421592D01*
X91890723Y-26332943D01*
X92042190Y-26302814D01*
X92117923Y-26287750D01*
X92349577Y-26287750D01*
X92425310Y-26302814D01*
G37*
G36*
X73375310Y-26302814D02*
G01*
X73526777Y-26332943D01*
X73740795Y-26421592D01*
X73740796Y-26421593D01*
X73933404Y-26550289D01*
X74097211Y-26714096D01*
X74183008Y-26842501D01*
X74225908Y-26906705D01*
X74314557Y-27120723D01*
X74359750Y-27347924D01*
X74359750Y-27579576D01*
X74314557Y-27806777D01*
X74225908Y-28020795D01*
X74225907Y-28020796D01*
X74097211Y-28213404D01*
X73933404Y-28377211D01*
X73804999Y-28463008D01*
X73740795Y-28505908D01*
X73526777Y-28594557D01*
X73375310Y-28624686D01*
X73299577Y-28639750D01*
X73067923Y-28639750D01*
X72992190Y-28624686D01*
X72840723Y-28594557D01*
X72626705Y-28505908D01*
X72562501Y-28463008D01*
X72434096Y-28377211D01*
X72270289Y-28213404D01*
X72141593Y-28020796D01*
X72141592Y-28020795D01*
X72052943Y-27806777D01*
X72007750Y-27579576D01*
X72007750Y-27347924D01*
X72052943Y-27120723D01*
X72141592Y-26906705D01*
X72184492Y-26842501D01*
X72270289Y-26714096D01*
X72434096Y-26550289D01*
X72626704Y-26421593D01*
X72626705Y-26421592D01*
X72840723Y-26332943D01*
X72992190Y-26302814D01*
X73067923Y-26287750D01*
X73299577Y-26287750D01*
X73375310Y-26302814D01*
G37*
G36*
X54325310Y-26302814D02*
G01*
X54476777Y-26332943D01*
X54690795Y-26421592D01*
X54690796Y-26421593D01*
X54883404Y-26550289D01*
X55047211Y-26714096D01*
X55133008Y-26842501D01*
X55175908Y-26906705D01*
X55264557Y-27120723D01*
X55309750Y-27347924D01*
X55309750Y-27579576D01*
X55264557Y-27806777D01*
X55175908Y-28020795D01*
X55175907Y-28020796D01*
X55047211Y-28213404D01*
X54883404Y-28377211D01*
X54754999Y-28463008D01*
X54690795Y-28505908D01*
X54476777Y-28594557D01*
X54325310Y-28624686D01*
X54249577Y-28639750D01*
X54017923Y-28639750D01*
X53942190Y-28624686D01*
X53790723Y-28594557D01*
X53576705Y-28505908D01*
X53512501Y-28463008D01*
X53384096Y-28377211D01*
X53220289Y-28213404D01*
X53091593Y-28020796D01*
X53091592Y-28020795D01*
X53002943Y-27806777D01*
X52957750Y-27579576D01*
X52957750Y-27347924D01*
X53002943Y-27120723D01*
X53091592Y-26906705D01*
X53134492Y-26842501D01*
X53220289Y-26714096D01*
X53384096Y-26550289D01*
X53576704Y-26421593D01*
X53576705Y-26421592D01*
X53790723Y-26332943D01*
X53942190Y-26302814D01*
X54017923Y-26287750D01*
X54249577Y-26287750D01*
X54325310Y-26302814D01*
G37*
G36*
X99860354Y-23747097D02*
G01*
X99896894Y-23758182D01*
X99930571Y-23776183D01*
X99960091Y-23800409D01*
X99984317Y-23829929D01*
X100002318Y-23863606D01*
X100013403Y-23900146D01*
X100017750Y-23944288D01*
X100017750Y-24893212D01*
X100013403Y-24937354D01*
X100002318Y-24973894D01*
X99984317Y-25007571D01*
X99960091Y-25037091D01*
X99930571Y-25061317D01*
X99896894Y-25079318D01*
X99860354Y-25090403D01*
X99816212Y-25094750D01*
X98367288Y-25094750D01*
X98323146Y-25090403D01*
X98286606Y-25079318D01*
X98252929Y-25061317D01*
X98223409Y-25037091D01*
X98199183Y-25007571D01*
X98181182Y-24973894D01*
X98170097Y-24937354D01*
X98165750Y-24893212D01*
X98165750Y-23944288D01*
X98170097Y-23900146D01*
X98181182Y-23863606D01*
X98199183Y-23829929D01*
X98223409Y-23800409D01*
X98252929Y-23776183D01*
X98286606Y-23758182D01*
X98323146Y-23747097D01*
X98367288Y-23742750D01*
X99816212Y-23742750D01*
X99860354Y-23747097D01*
G37*
G36*
X91325968Y-22946065D02*
G01*
X91364638Y-22957796D01*
X91400277Y-22976846D01*
X91431517Y-23002483D01*
X91457154Y-23033723D01*
X91476204Y-23069362D01*
X91487935Y-23108032D01*
X91492500Y-23154388D01*
X91492500Y-23805612D01*
X91487935Y-23851968D01*
X91476204Y-23890638D01*
X91457154Y-23926277D01*
X91431517Y-23957517D01*
X91400277Y-23983154D01*
X91364638Y-24002204D01*
X91325968Y-24013935D01*
X91279612Y-24018500D01*
X90203388Y-24018500D01*
X90157032Y-24013935D01*
X90118362Y-24002204D01*
X90082723Y-23983154D01*
X90051483Y-23957517D01*
X90025846Y-23926277D01*
X90006796Y-23890638D01*
X89995065Y-23851968D01*
X89990500Y-23805612D01*
X89990500Y-23154388D01*
X89995065Y-23108032D01*
X90006796Y-23069362D01*
X90025846Y-23033723D01*
X90051483Y-23002483D01*
X90082723Y-22976846D01*
X90118362Y-22957796D01*
X90157032Y-22946065D01*
X90203388Y-22941500D01*
X91279612Y-22941500D01*
X91325968Y-22946065D01*
G37*
G36*
X89293968Y-22946065D02*
G01*
X89332638Y-22957796D01*
X89368277Y-22976846D01*
X89399517Y-23002483D01*
X89425154Y-23033723D01*
X89444204Y-23069362D01*
X89455935Y-23108032D01*
X89460500Y-23154388D01*
X89460500Y-23805612D01*
X89455935Y-23851968D01*
X89444204Y-23890638D01*
X89425154Y-23926277D01*
X89399517Y-23957517D01*
X89368277Y-23983154D01*
X89332638Y-24002204D01*
X89293968Y-24013935D01*
X89247612Y-24018500D01*
X88171388Y-24018500D01*
X88125032Y-24013935D01*
X88086362Y-24002204D01*
X88050723Y-23983154D01*
X88019483Y-23957517D01*
X87993846Y-23926277D01*
X87974796Y-23890638D01*
X87963065Y-23851968D01*
X87958500Y-23805612D01*
X87958500Y-23154388D01*
X87963065Y-23108032D01*
X87974796Y-23069362D01*
X87993846Y-23033723D01*
X88019483Y-23002483D01*
X88050723Y-22976846D01*
X88086362Y-22957796D01*
X88125032Y-22946065D01*
X88171388Y-22941500D01*
X89247612Y-22941500D01*
X89293968Y-22946065D01*
G37*
G36*
X87230218Y-22914315D02*
G01*
X87268888Y-22926046D01*
X87304527Y-22945096D01*
X87335767Y-22970733D01*
X87361404Y-23001973D01*
X87380454Y-23037612D01*
X87392185Y-23076282D01*
X87396750Y-23122638D01*
X87396750Y-23773862D01*
X87392185Y-23820218D01*
X87380454Y-23858888D01*
X87361404Y-23894527D01*
X87335767Y-23925767D01*
X87304527Y-23951404D01*
X87268888Y-23970454D01*
X87230218Y-23982185D01*
X87183862Y-23986750D01*
X86107638Y-23986750D01*
X86061282Y-23982185D01*
X86022612Y-23970454D01*
X85986973Y-23951404D01*
X85955733Y-23925767D01*
X85930096Y-23894527D01*
X85911046Y-23858888D01*
X85899315Y-23820218D01*
X85894750Y-23773862D01*
X85894750Y-23122638D01*
X85899315Y-23076282D01*
X85911046Y-23037612D01*
X85930096Y-23001973D01*
X85955733Y-22970733D01*
X85986973Y-22945096D01*
X86022612Y-22926046D01*
X86061282Y-22914315D01*
X86107638Y-22909750D01*
X87183862Y-22909750D01*
X87230218Y-22914315D01*
G37*
G36*
X93326218Y-22914315D02*
G01*
X93364888Y-22926046D01*
X93400527Y-22945096D01*
X93431767Y-22970733D01*
X93457404Y-23001973D01*
X93476454Y-23037612D01*
X93488185Y-23076282D01*
X93492750Y-23122638D01*
X93492750Y-23773862D01*
X93488185Y-23820218D01*
X93476454Y-23858888D01*
X93457404Y-23894527D01*
X93431767Y-23925767D01*
X93400527Y-23951404D01*
X93364888Y-23970454D01*
X93326218Y-23982185D01*
X93279862Y-23986750D01*
X92203638Y-23986750D01*
X92157282Y-23982185D01*
X92118612Y-23970454D01*
X92082973Y-23951404D01*
X92051733Y-23925767D01*
X92026096Y-23894527D01*
X92007046Y-23858888D01*
X91995315Y-23820218D01*
X91990750Y-23773862D01*
X91990750Y-23122638D01*
X91995315Y-23076282D01*
X92007046Y-23037612D01*
X92026096Y-23001973D01*
X92051733Y-22970733D01*
X92082973Y-22945096D01*
X92118612Y-22926046D01*
X92157282Y-22914315D01*
X92203638Y-22909750D01*
X93279862Y-22909750D01*
X93326218Y-22914315D01*
G37*
G36*
X99860354Y-20947097D02*
G01*
X99896894Y-20958182D01*
X99930571Y-20976183D01*
X99960091Y-21000409D01*
X99984317Y-21029929D01*
X100002318Y-21063606D01*
X100013403Y-21100146D01*
X100017750Y-21144288D01*
X100017750Y-22093212D01*
X100013403Y-22137354D01*
X100002318Y-22173894D01*
X99984317Y-22207571D01*
X99960091Y-22237091D01*
X99930571Y-22261317D01*
X99896894Y-22279318D01*
X99860354Y-22290403D01*
X99816212Y-22294750D01*
X98367288Y-22294750D01*
X98323146Y-22290403D01*
X98286606Y-22279318D01*
X98252929Y-22261317D01*
X98223409Y-22237091D01*
X98199183Y-22207571D01*
X98181182Y-22173894D01*
X98170097Y-22137354D01*
X98165750Y-22093212D01*
X98165750Y-21144288D01*
X98170097Y-21100146D01*
X98181182Y-21063606D01*
X98199183Y-21029929D01*
X98223409Y-21000409D01*
X98252929Y-20976183D01*
X98286606Y-20958182D01*
X98323146Y-20947097D01*
X98367288Y-20942750D01*
X99816212Y-20942750D01*
X99860354Y-20947097D01*
G37*
G36*
X89293968Y-21071065D02*
G01*
X89332638Y-21082796D01*
X89368277Y-21101846D01*
X89399517Y-21127483D01*
X89425154Y-21158723D01*
X89444204Y-21194362D01*
X89455935Y-21233032D01*
X89460500Y-21279388D01*
X89460500Y-21930612D01*
X89455935Y-21976968D01*
X89444204Y-22015638D01*
X89425154Y-22051277D01*
X89399517Y-22082517D01*
X89368277Y-22108154D01*
X89332638Y-22127204D01*
X89293968Y-22138935D01*
X89247612Y-22143500D01*
X88171388Y-22143500D01*
X88125032Y-22138935D01*
X88086362Y-22127204D01*
X88050723Y-22108154D01*
X88019483Y-22082517D01*
X87993846Y-22051277D01*
X87974796Y-22015638D01*
X87963065Y-21976968D01*
X87958500Y-21930612D01*
X87958500Y-21279388D01*
X87963065Y-21233032D01*
X87974796Y-21194362D01*
X87993846Y-21158723D01*
X88019483Y-21127483D01*
X88050723Y-21101846D01*
X88086362Y-21082796D01*
X88125032Y-21071065D01*
X88171388Y-21066500D01*
X89247612Y-21066500D01*
X89293968Y-21071065D01*
G37*
G36*
X91325968Y-21071065D02*
G01*
X91364638Y-21082796D01*
X91400277Y-21101846D01*
X91431517Y-21127483D01*
X91457154Y-21158723D01*
X91476204Y-21194362D01*
X91487935Y-21233032D01*
X91492500Y-21279388D01*
X91492500Y-21930612D01*
X91487935Y-21976968D01*
X91476204Y-22015638D01*
X91457154Y-22051277D01*
X91431517Y-22082517D01*
X91400277Y-22108154D01*
X91364638Y-22127204D01*
X91325968Y-22138935D01*
X91279612Y-22143500D01*
X90203388Y-22143500D01*
X90157032Y-22138935D01*
X90118362Y-22127204D01*
X90082723Y-22108154D01*
X90051483Y-22082517D01*
X90025846Y-22051277D01*
X90006796Y-22015638D01*
X89995065Y-21976968D01*
X89990500Y-21930612D01*
X89990500Y-21279388D01*
X89995065Y-21233032D01*
X90006796Y-21194362D01*
X90025846Y-21158723D01*
X90051483Y-21127483D01*
X90082723Y-21101846D01*
X90118362Y-21082796D01*
X90157032Y-21071065D01*
X90203388Y-21066500D01*
X91279612Y-21066500D01*
X91325968Y-21071065D01*
G37*
G36*
X87230218Y-21039315D02*
G01*
X87268888Y-21051046D01*
X87304527Y-21070096D01*
X87335767Y-21095733D01*
X87361404Y-21126973D01*
X87380454Y-21162612D01*
X87392185Y-21201282D01*
X87396750Y-21247638D01*
X87396750Y-21898862D01*
X87392185Y-21945218D01*
X87380454Y-21983888D01*
X87361404Y-22019527D01*
X87335767Y-22050767D01*
X87304527Y-22076404D01*
X87268888Y-22095454D01*
X87230218Y-22107185D01*
X87183862Y-22111750D01*
X86107638Y-22111750D01*
X86061282Y-22107185D01*
X86022612Y-22095454D01*
X85986973Y-22076404D01*
X85955733Y-22050767D01*
X85930096Y-22019527D01*
X85911046Y-21983888D01*
X85899315Y-21945218D01*
X85894750Y-21898862D01*
X85894750Y-21247638D01*
X85899315Y-21201282D01*
X85911046Y-21162612D01*
X85930096Y-21126973D01*
X85955733Y-21095733D01*
X85986973Y-21070096D01*
X86022612Y-21051046D01*
X86061282Y-21039315D01*
X86107638Y-21034750D01*
X87183862Y-21034750D01*
X87230218Y-21039315D01*
G37*
G36*
X93326218Y-21039315D02*
G01*
X93364888Y-21051046D01*
X93400527Y-21070096D01*
X93431767Y-21095733D01*
X93457404Y-21126973D01*
X93476454Y-21162612D01*
X93488185Y-21201282D01*
X93492750Y-21247638D01*
X93492750Y-21898862D01*
X93488185Y-21945218D01*
X93476454Y-21983888D01*
X93457404Y-22019527D01*
X93431767Y-22050767D01*
X93400527Y-22076404D01*
X93364888Y-22095454D01*
X93326218Y-22107185D01*
X93279862Y-22111750D01*
X92203638Y-22111750D01*
X92157282Y-22107185D01*
X92118612Y-22095454D01*
X92082973Y-22076404D01*
X92051733Y-22050767D01*
X92026096Y-22019527D01*
X92007046Y-21983888D01*
X91995315Y-21945218D01*
X91990750Y-21898862D01*
X91990750Y-21247638D01*
X91995315Y-21201282D01*
X92007046Y-21162612D01*
X92026096Y-21126973D01*
X92051733Y-21095733D01*
X92082973Y-21070096D01*
X92118612Y-21051046D01*
X92157282Y-21039315D01*
X92203638Y-21034750D01*
X93279862Y-21034750D01*
X93326218Y-21039315D01*
G37*
G36*
X144694750Y-19913500D02*
G01*
X142792750Y-19913500D01*
X142792750Y-18711500D01*
X144694750Y-18711500D01*
X144694750Y-19913500D01*
G37*
G36*
X150894750Y-19913500D02*
G01*
X148992750Y-19913500D01*
X148992750Y-18711500D01*
X150894750Y-18711500D01*
X150894750Y-19913500D01*
G37*
G36*
X94111567Y-17201446D02*
G01*
X94224854Y-17235812D01*
X94329261Y-17291619D01*
X94329263Y-17291620D01*
X94329262Y-17291620D01*
X94420777Y-17366723D01*
X94473691Y-17431200D01*
X94495881Y-17458238D01*
X94551688Y-17562645D01*
X94586054Y-17675932D01*
X94594750Y-17764231D01*
X94594750Y-18923269D01*
X94586054Y-19011568D01*
X94551688Y-19124855D01*
X94495881Y-19229262D01*
X94420777Y-19320777D01*
X94329262Y-19395881D01*
X94224855Y-19451688D01*
X94111568Y-19486054D01*
X93993750Y-19497657D01*
X93875933Y-19486054D01*
X93762646Y-19451688D01*
X93658239Y-19395881D01*
X93566724Y-19320777D01*
X93516374Y-19259425D01*
X93499047Y-19242098D01*
X93478673Y-19228485D01*
X93456034Y-19219107D01*
X93432001Y-19214327D01*
X93407497Y-19214327D01*
X93383464Y-19219107D01*
X93360825Y-19228485D01*
X93340450Y-19242099D01*
X93323123Y-19259426D01*
X93309510Y-19279800D01*
X93300132Y-19302439D01*
X93294750Y-19338724D01*
X93294750Y-19775610D01*
X93291986Y-19803678D01*
X93285590Y-19824759D01*
X93275202Y-19844195D01*
X93261226Y-19861226D01*
X93244195Y-19875202D01*
X93224759Y-19885590D01*
X93203678Y-19891986D01*
X93175610Y-19894750D01*
X92711890Y-19894750D01*
X92683822Y-19891986D01*
X92662741Y-19885590D01*
X92643306Y-19875202D01*
X92623047Y-19858577D01*
X92602673Y-19844964D01*
X92580034Y-19835587D01*
X92556000Y-19830807D01*
X92531496Y-19830807D01*
X92507463Y-19835588D01*
X92484824Y-19844966D01*
X92464453Y-19858577D01*
X92444194Y-19875202D01*
X92424759Y-19885590D01*
X92403678Y-19891986D01*
X92375610Y-19894750D01*
X91911890Y-19894750D01*
X91883822Y-19891986D01*
X91862741Y-19885590D01*
X91843306Y-19875202D01*
X91818298Y-19854679D01*
X91797924Y-19841065D01*
X91775285Y-19831688D01*
X91751252Y-19826907D01*
X91726747Y-19826907D01*
X91702714Y-19831687D01*
X91680075Y-19841064D01*
X91659701Y-19854678D01*
X91642373Y-19872006D01*
X91633193Y-19883192D01*
X91627526Y-19887842D01*
X91621060Y-19891299D01*
X91614045Y-19893427D01*
X91600610Y-19894750D01*
X91286890Y-19894750D01*
X91273455Y-19893427D01*
X91266441Y-19891299D01*
X91252673Y-19883940D01*
X91230034Y-19874563D01*
X91206001Y-19869783D01*
X91181497Y-19869783D01*
X91157464Y-19874564D01*
X91134827Y-19883940D01*
X91121059Y-19891299D01*
X91114045Y-19893427D01*
X91100610Y-19894750D01*
X90786890Y-19894750D01*
X90773455Y-19893427D01*
X90766441Y-19891299D01*
X90752673Y-19883940D01*
X90730034Y-19874563D01*
X90706001Y-19869783D01*
X90681497Y-19869783D01*
X90657464Y-19874564D01*
X90634827Y-19883940D01*
X90621059Y-19891299D01*
X90614045Y-19893427D01*
X90600610Y-19894750D01*
X90286890Y-19894750D01*
X90273455Y-19893427D01*
X90266441Y-19891299D01*
X90252673Y-19883940D01*
X90230034Y-19874563D01*
X90206001Y-19869783D01*
X90181497Y-19869783D01*
X90157464Y-19874564D01*
X90134827Y-19883940D01*
X90121059Y-19891299D01*
X90114045Y-19893427D01*
X90100610Y-19894750D01*
X89786890Y-19894750D01*
X89773455Y-19893427D01*
X89766441Y-19891299D01*
X89750673Y-19882871D01*
X89728034Y-19873494D01*
X89704001Y-19868714D01*
X89679497Y-19868714D01*
X89655464Y-19873495D01*
X89632827Y-19882871D01*
X89617059Y-19891299D01*
X89610045Y-19893427D01*
X89596610Y-19894750D01*
X89282890Y-19894750D01*
X89269455Y-19893427D01*
X89262441Y-19891299D01*
X89250673Y-19885009D01*
X89228034Y-19875632D01*
X89204001Y-19870852D01*
X89179497Y-19870852D01*
X89155464Y-19875633D01*
X89132827Y-19885009D01*
X89121059Y-19891299D01*
X89114045Y-19893427D01*
X89100610Y-19894750D01*
X88786890Y-19894750D01*
X88773455Y-19893427D01*
X88766441Y-19891299D01*
X88752673Y-19883940D01*
X88730034Y-19874563D01*
X88706001Y-19869783D01*
X88681497Y-19869783D01*
X88657464Y-19874564D01*
X88634827Y-19883940D01*
X88621059Y-19891299D01*
X88614045Y-19893427D01*
X88600610Y-19894750D01*
X88286890Y-19894750D01*
X88273455Y-19893427D01*
X88266441Y-19891299D01*
X88252673Y-19883940D01*
X88230034Y-19874563D01*
X88206001Y-19869783D01*
X88181497Y-19869783D01*
X88157464Y-19874564D01*
X88134827Y-19883940D01*
X88121059Y-19891299D01*
X88114045Y-19893427D01*
X88100610Y-19894750D01*
X87786890Y-19894750D01*
X87773455Y-19893427D01*
X87766440Y-19891299D01*
X87759974Y-19887842D01*
X87754307Y-19883192D01*
X87745127Y-19872006D01*
X87727800Y-19854679D01*
X87707426Y-19841065D01*
X87684787Y-19831688D01*
X87660754Y-19826907D01*
X87636250Y-19826907D01*
X87612217Y-19831687D01*
X87589578Y-19841064D01*
X87569202Y-19854679D01*
X87544194Y-19875202D01*
X87524759Y-19885590D01*
X87503678Y-19891986D01*
X87475610Y-19894750D01*
X87011890Y-19894750D01*
X86983822Y-19891986D01*
X86962741Y-19885590D01*
X86943306Y-19875202D01*
X86923047Y-19858577D01*
X86902673Y-19844964D01*
X86880034Y-19835587D01*
X86856000Y-19830807D01*
X86831496Y-19830807D01*
X86807463Y-19835588D01*
X86784824Y-19844966D01*
X86764453Y-19858577D01*
X86744194Y-19875202D01*
X86724759Y-19885590D01*
X86703678Y-19891986D01*
X86675610Y-19894750D01*
X86211890Y-19894750D01*
X86183822Y-19891986D01*
X86162741Y-19885590D01*
X86143305Y-19875202D01*
X86126274Y-19861226D01*
X86112298Y-19844195D01*
X86101910Y-19824759D01*
X86095514Y-19803678D01*
X86092750Y-19775610D01*
X86092750Y-19338725D01*
X86090348Y-19314339D01*
X86083235Y-19290890D01*
X86071684Y-19269279D01*
X86056139Y-19250337D01*
X86037197Y-19234792D01*
X86015586Y-19223241D01*
X85992137Y-19216128D01*
X85967751Y-19213726D01*
X85943365Y-19216128D01*
X85919916Y-19223241D01*
X85898305Y-19234792D01*
X85879363Y-19250337D01*
X85871128Y-19259424D01*
X85820777Y-19320777D01*
X85745673Y-19382413D01*
X85729262Y-19395881D01*
X85624855Y-19451688D01*
X85511568Y-19486054D01*
X85393750Y-19497657D01*
X85275933Y-19486054D01*
X85162646Y-19451688D01*
X85058239Y-19395881D01*
X84966724Y-19320777D01*
X84891620Y-19229262D01*
X84835813Y-19124855D01*
X84801447Y-19011568D01*
X84792751Y-18923269D01*
X84792750Y-17764232D01*
X84801446Y-17675933D01*
X84835812Y-17562646D01*
X84891619Y-17458239D01*
X84925668Y-17416750D01*
X84966723Y-17366723D01*
X85058237Y-17291620D01*
X85058236Y-17291620D01*
X85058238Y-17291619D01*
X85162645Y-17235812D01*
X85275932Y-17201446D01*
X85393750Y-17189843D01*
X85511567Y-17201446D01*
X85624854Y-17235812D01*
X85729261Y-17291619D01*
X85729263Y-17291620D01*
X85729262Y-17291620D01*
X85820777Y-17366723D01*
X85873691Y-17431200D01*
X85895881Y-17458238D01*
X85951688Y-17562645D01*
X85986054Y-17675932D01*
X85994750Y-17764231D01*
X85994750Y-18234328D01*
X85997152Y-18258714D01*
X86004265Y-18282163D01*
X86015816Y-18303774D01*
X86031361Y-18322716D01*
X86050303Y-18338261D01*
X86071914Y-18349812D01*
X86095363Y-18356925D01*
X86119749Y-18359327D01*
X86144135Y-18356925D01*
X86156036Y-18353944D01*
X86183824Y-18345514D01*
X86211890Y-18342750D01*
X86538035Y-18342750D01*
X86562421Y-18340348D01*
X86585870Y-18333235D01*
X86607481Y-18321684D01*
X86626423Y-18306139D01*
X86641968Y-18287197D01*
X86653519Y-18265586D01*
X86660632Y-18242137D01*
X86663034Y-18217751D01*
X86660632Y-18193365D01*
X86653519Y-18169916D01*
X86641968Y-18148305D01*
X86626423Y-18129363D01*
X86607486Y-18113822D01*
X86564064Y-18084808D01*
X86511692Y-18032436D01*
X86470543Y-17970853D01*
X86442200Y-17902425D01*
X86427750Y-17829783D01*
X86427750Y-17755717D01*
X86442200Y-17683075D01*
X86470543Y-17614647D01*
X86511692Y-17553064D01*
X86564064Y-17500692D01*
X86625647Y-17459543D01*
X86694075Y-17431200D01*
X86694076Y-17431200D01*
X86694078Y-17431199D01*
X86766716Y-17416750D01*
X86840784Y-17416750D01*
X86913422Y-17431199D01*
X86913424Y-17431200D01*
X86913425Y-17431200D01*
X86981853Y-17459543D01*
X87043436Y-17500692D01*
X87095808Y-17553064D01*
X87136957Y-17614647D01*
X87165300Y-17683075D01*
X87179750Y-17755717D01*
X87179750Y-17829783D01*
X87165300Y-17902425D01*
X87136957Y-17970853D01*
X87095808Y-18032436D01*
X87043436Y-18084808D01*
X87000014Y-18113822D01*
X86981077Y-18129364D01*
X86965532Y-18148306D01*
X86953981Y-18169916D01*
X86946868Y-18193365D01*
X86944466Y-18217751D01*
X86946868Y-18242137D01*
X86953981Y-18265586D01*
X86965532Y-18287197D01*
X86981078Y-18306139D01*
X87000020Y-18321684D01*
X87021630Y-18333235D01*
X87045079Y-18340348D01*
X87069465Y-18342750D01*
X87475610Y-18342750D01*
X87503678Y-18345514D01*
X87524759Y-18351910D01*
X87544194Y-18362298D01*
X87569202Y-18382821D01*
X87589576Y-18396435D01*
X87612215Y-18405812D01*
X87636248Y-18410593D01*
X87660753Y-18410593D01*
X87684786Y-18405813D01*
X87707425Y-18396436D01*
X87727799Y-18382822D01*
X87745127Y-18365494D01*
X87754307Y-18354308D01*
X87759974Y-18349658D01*
X87766440Y-18346201D01*
X87773455Y-18344073D01*
X87786890Y-18342750D01*
X88100610Y-18342750D01*
X88114045Y-18344073D01*
X88121059Y-18346201D01*
X88134827Y-18353560D01*
X88157466Y-18362937D01*
X88181499Y-18367717D01*
X88206003Y-18367717D01*
X88230036Y-18362936D01*
X88252673Y-18353560D01*
X88266441Y-18346201D01*
X88273455Y-18344073D01*
X88286890Y-18342750D01*
X88600610Y-18342750D01*
X88614045Y-18344073D01*
X88621059Y-18346201D01*
X88634827Y-18353560D01*
X88657466Y-18362937D01*
X88681499Y-18367717D01*
X88706003Y-18367717D01*
X88730036Y-18362936D01*
X88752673Y-18353560D01*
X88766441Y-18346201D01*
X88773455Y-18344073D01*
X88786890Y-18342750D01*
X89100610Y-18342750D01*
X89114045Y-18344073D01*
X89121059Y-18346201D01*
X89132827Y-18352491D01*
X89155466Y-18361868D01*
X89179499Y-18366648D01*
X89204003Y-18366648D01*
X89228036Y-18361867D01*
X89250673Y-18352491D01*
X89262441Y-18346201D01*
X89269455Y-18344073D01*
X89282890Y-18342750D01*
X89596610Y-18342750D01*
X89610045Y-18344073D01*
X89617059Y-18346201D01*
X89632827Y-18354629D01*
X89655466Y-18364006D01*
X89679499Y-18368786D01*
X89704003Y-18368786D01*
X89728036Y-18364005D01*
X89750673Y-18354629D01*
X89766441Y-18346201D01*
X89773455Y-18344073D01*
X89786890Y-18342750D01*
X90100610Y-18342750D01*
X90114045Y-18344073D01*
X90121059Y-18346201D01*
X90134827Y-18353560D01*
X90157466Y-18362937D01*
X90181499Y-18367717D01*
X90206003Y-18367717D01*
X90230036Y-18362936D01*
X90252673Y-18353560D01*
X90266441Y-18346201D01*
X90273455Y-18344073D01*
X90286890Y-18342750D01*
X90600610Y-18342750D01*
X90614045Y-18344073D01*
X90621059Y-18346201D01*
X90634827Y-18353560D01*
X90657466Y-18362937D01*
X90681499Y-18367717D01*
X90706003Y-18367717D01*
X90730036Y-18362936D01*
X90752673Y-18353560D01*
X90766441Y-18346201D01*
X90773455Y-18344073D01*
X90786890Y-18342750D01*
X91100610Y-18342750D01*
X91114045Y-18344073D01*
X91121059Y-18346201D01*
X91134827Y-18353560D01*
X91157466Y-18362937D01*
X91181499Y-18367717D01*
X91206003Y-18367717D01*
X91230036Y-18362936D01*
X91252673Y-18353560D01*
X91266441Y-18346201D01*
X91273455Y-18344073D01*
X91286890Y-18342750D01*
X91600610Y-18342750D01*
X91614045Y-18344073D01*
X91621060Y-18346201D01*
X91627526Y-18349658D01*
X91633193Y-18354308D01*
X91642373Y-18365494D01*
X91659700Y-18382821D01*
X91680074Y-18396435D01*
X91702713Y-18405812D01*
X91726746Y-18410593D01*
X91751250Y-18410593D01*
X91775283Y-18405813D01*
X91797922Y-18396436D01*
X91818298Y-18382821D01*
X91843306Y-18362298D01*
X91862741Y-18351910D01*
X91883822Y-18345514D01*
X91911890Y-18342750D01*
X92318035Y-18342750D01*
X92342421Y-18340348D01*
X92365870Y-18333235D01*
X92387481Y-18321684D01*
X92406423Y-18306139D01*
X92421968Y-18287197D01*
X92433519Y-18265586D01*
X92440632Y-18242137D01*
X92443034Y-18217751D01*
X92440632Y-18193365D01*
X92433519Y-18169916D01*
X92421968Y-18148305D01*
X92406423Y-18129363D01*
X92387486Y-18113822D01*
X92344064Y-18084808D01*
X92291692Y-18032436D01*
X92250543Y-17970853D01*
X92222200Y-17902425D01*
X92207750Y-17829783D01*
X92207750Y-17755717D01*
X92222200Y-17683075D01*
X92250543Y-17614647D01*
X92291692Y-17553064D01*
X92344064Y-17500692D01*
X92405647Y-17459543D01*
X92474075Y-17431200D01*
X92474076Y-17431200D01*
X92474078Y-17431199D01*
X92546716Y-17416750D01*
X92620784Y-17416750D01*
X92693422Y-17431199D01*
X92693424Y-17431200D01*
X92693425Y-17431200D01*
X92761853Y-17459543D01*
X92823436Y-17500692D01*
X92875808Y-17553064D01*
X92916957Y-17614647D01*
X92945300Y-17683075D01*
X92959750Y-17755717D01*
X92959750Y-17829783D01*
X92945300Y-17902425D01*
X92916957Y-17970853D01*
X92875808Y-18032436D01*
X92823436Y-18084808D01*
X92780014Y-18113822D01*
X92761077Y-18129364D01*
X92745532Y-18148306D01*
X92733981Y-18169916D01*
X92726868Y-18193365D01*
X92724466Y-18217751D01*
X92726868Y-18242137D01*
X92733981Y-18265586D01*
X92745532Y-18287197D01*
X92761078Y-18306139D01*
X92780020Y-18321684D01*
X92801630Y-18333235D01*
X92825079Y-18340348D01*
X92849465Y-18342750D01*
X93175610Y-18342750D01*
X93203676Y-18345514D01*
X93231464Y-18353944D01*
X93255497Y-18358725D01*
X93280001Y-18358725D01*
X93304035Y-18353945D01*
X93326674Y-18344568D01*
X93347048Y-18330955D01*
X93364375Y-18313628D01*
X93377989Y-18293254D01*
X93387367Y-18270615D01*
X93392148Y-18246582D01*
X93392750Y-18234328D01*
X93392750Y-17764232D01*
X93401446Y-17675933D01*
X93435812Y-17562646D01*
X93491619Y-17458239D01*
X93525668Y-17416750D01*
X93566723Y-17366723D01*
X93658237Y-17291620D01*
X93658236Y-17291620D01*
X93658238Y-17291619D01*
X93762645Y-17235812D01*
X93875932Y-17201446D01*
X93993750Y-17189843D01*
X94111567Y-17201446D01*
G37*
G36*
X144694750Y-16213500D02*
G01*
X142792750Y-16213500D01*
X142792750Y-15011500D01*
X144694750Y-15011500D01*
X144694750Y-16213500D01*
G37*
G36*
X150894750Y-16213500D02*
G01*
X148992750Y-16213500D01*
X148992750Y-15011500D01*
X150894750Y-15011500D01*
X150894750Y-16213500D01*
G37*
G36*
X94131170Y-13152893D02*
G01*
X94263306Y-13192977D01*
X94263308Y-13192978D01*
X94385088Y-13258070D01*
X94385090Y-13258071D01*
X94385089Y-13258071D01*
X94491830Y-13345670D01*
X94566110Y-13436180D01*
X94579430Y-13452411D01*
X94644522Y-13574191D01*
X94644523Y-13574193D01*
X94684607Y-13706329D01*
X94694750Y-13809318D01*
X94694750Y-14478182D01*
X94684607Y-14581171D01*
X94644523Y-14713307D01*
X94644522Y-14713309D01*
X94579430Y-14835089D01*
X94491830Y-14941830D01*
X94385089Y-15029430D01*
X94263309Y-15094522D01*
X94263307Y-15094523D01*
X94131171Y-15134607D01*
X93993750Y-15148141D01*
X93856330Y-15134607D01*
X93724194Y-15094523D01*
X93724192Y-15094522D01*
X93602412Y-15029430D01*
X93495671Y-14941830D01*
X93408071Y-14835089D01*
X93342978Y-14713309D01*
X93342977Y-14713308D01*
X93302893Y-14581171D01*
X93292750Y-14478182D01*
X93292750Y-13809319D01*
X93302893Y-13706330D01*
X93342977Y-13574194D01*
X93408071Y-13452411D01*
X93495670Y-13345670D01*
X93602410Y-13258071D01*
X93602409Y-13258071D01*
X93602411Y-13258070D01*
X93724191Y-13192978D01*
X93724193Y-13192977D01*
X93856329Y-13152893D01*
X93993750Y-13139359D01*
X94131170Y-13152893D01*
G37*
G36*
X85531170Y-13152893D02*
G01*
X85663306Y-13192977D01*
X85663308Y-13192978D01*
X85785088Y-13258070D01*
X85785090Y-13258071D01*
X85785089Y-13258071D01*
X85891830Y-13345670D01*
X85966110Y-13436180D01*
X85979430Y-13452411D01*
X86044522Y-13574191D01*
X86044523Y-13574193D01*
X86084607Y-13706329D01*
X86094750Y-13809318D01*
X86094750Y-14478182D01*
X86084607Y-14581171D01*
X86044523Y-14713307D01*
X86044522Y-14713309D01*
X85979430Y-14835089D01*
X85891830Y-14941830D01*
X85785089Y-15029430D01*
X85663309Y-15094522D01*
X85663307Y-15094523D01*
X85531171Y-15134607D01*
X85393750Y-15148141D01*
X85256330Y-15134607D01*
X85124194Y-15094523D01*
X85124192Y-15094522D01*
X85002412Y-15029430D01*
X84895671Y-14941830D01*
X84808071Y-14835089D01*
X84742978Y-14713309D01*
X84742977Y-14713308D01*
X84702893Y-14581171D01*
X84692750Y-14478182D01*
X84692750Y-13809319D01*
X84702893Y-13706330D01*
X84742977Y-13574194D01*
X84808071Y-13452411D01*
X84895670Y-13345670D01*
X85002410Y-13258071D01*
X85002409Y-13258071D01*
X85002411Y-13258070D01*
X85124191Y-13192978D01*
X85124193Y-13192977D01*
X85256329Y-13152893D01*
X85393750Y-13139359D01*
X85531170Y-13152893D01*
G37*
M02*
