G04 #@! TF.GenerationSoftware,KiCad,Pcbnew,(5.1.5-0-10_14)*
G04 #@! TF.CreationDate,2020-07-13T12:14:37+02:00*
G04 #@! TF.ProjectId,Trigon,54726967-6f6e-42e6-9b69-6361645f7063,rev?*
G04 #@! TF.SameCoordinates,Original*
G04 #@! TF.FileFunction,Soldermask,Top*
G04 #@! TF.FilePolarity,Negative*
%FSLAX46Y46*%
G04 Gerber Fmt 4.6, Leading zero omitted, Abs format (unit mm)*
G04 Created by KiCad (PCBNEW (5.1.5-0-10_14)) date 2020-07-13 12:14:37*
%MOMM*%
%LPD*%
G04 APERTURE LIST*
%ADD10C,0.100000*%
G04 APERTURE END LIST*
D10*
G36*
X71240224Y-106777434D02*
G01*
X71458224Y-106867733D01*
X71612373Y-106931583D01*
X71947298Y-107155373D01*
X72232127Y-107440202D01*
X72455917Y-107775127D01*
X72488312Y-107853336D01*
X72610066Y-108147276D01*
X72688650Y-108542344D01*
X72688650Y-108945156D01*
X72610066Y-109340224D01*
X72559201Y-109463022D01*
X72455917Y-109712373D01*
X72232127Y-110047298D01*
X71947298Y-110332127D01*
X71612373Y-110555917D01*
X71458224Y-110619767D01*
X71240224Y-110710066D01*
X70845156Y-110788650D01*
X70442344Y-110788650D01*
X70047276Y-110710066D01*
X69829276Y-110619767D01*
X69675127Y-110555917D01*
X69340202Y-110332127D01*
X69055373Y-110047298D01*
X68831583Y-109712373D01*
X68728299Y-109463022D01*
X68677434Y-109340224D01*
X68598850Y-108945156D01*
X68598850Y-108542344D01*
X68677434Y-108147276D01*
X68799188Y-107853336D01*
X68831583Y-107775127D01*
X69055373Y-107440202D01*
X69340202Y-107155373D01*
X69675127Y-106931583D01*
X69829276Y-106867733D01*
X70047276Y-106777434D01*
X70442344Y-106698850D01*
X70845156Y-106698850D01*
X71240224Y-106777434D01*
G37*
G36*
X52190224Y-106777434D02*
G01*
X52408224Y-106867733D01*
X52562373Y-106931583D01*
X52897298Y-107155373D01*
X53182127Y-107440202D01*
X53405917Y-107775127D01*
X53438312Y-107853336D01*
X53560066Y-108147276D01*
X53638650Y-108542344D01*
X53638650Y-108945156D01*
X53560066Y-109340224D01*
X53509201Y-109463022D01*
X53405917Y-109712373D01*
X53182127Y-110047298D01*
X52897298Y-110332127D01*
X52562373Y-110555917D01*
X52408224Y-110619767D01*
X52190224Y-110710066D01*
X51795156Y-110788650D01*
X51392344Y-110788650D01*
X50997276Y-110710066D01*
X50779276Y-110619767D01*
X50625127Y-110555917D01*
X50290202Y-110332127D01*
X50005373Y-110047298D01*
X49781583Y-109712373D01*
X49678299Y-109463022D01*
X49627434Y-109340224D01*
X49548850Y-108945156D01*
X49548850Y-108542344D01*
X49627434Y-108147276D01*
X49749188Y-107853336D01*
X49781583Y-107775127D01*
X50005373Y-107440202D01*
X50290202Y-107155373D01*
X50625127Y-106931583D01*
X50779276Y-106867733D01*
X50997276Y-106777434D01*
X51392344Y-106698850D01*
X51795156Y-106698850D01*
X52190224Y-106777434D01*
G37*
G36*
X33140224Y-106777434D02*
G01*
X33358224Y-106867733D01*
X33512373Y-106931583D01*
X33847298Y-107155373D01*
X34132127Y-107440202D01*
X34355917Y-107775127D01*
X34388312Y-107853336D01*
X34510066Y-108147276D01*
X34588650Y-108542344D01*
X34588650Y-108945156D01*
X34510066Y-109340224D01*
X34459201Y-109463022D01*
X34355917Y-109712373D01*
X34132127Y-110047298D01*
X33847298Y-110332127D01*
X33512373Y-110555917D01*
X33358224Y-110619767D01*
X33140224Y-110710066D01*
X32745156Y-110788650D01*
X32342344Y-110788650D01*
X31947276Y-110710066D01*
X31729276Y-110619767D01*
X31575127Y-110555917D01*
X31240202Y-110332127D01*
X30955373Y-110047298D01*
X30731583Y-109712373D01*
X30628299Y-109463022D01*
X30577434Y-109340224D01*
X30498850Y-108945156D01*
X30498850Y-108542344D01*
X30577434Y-108147276D01*
X30699188Y-107853336D01*
X30731583Y-107775127D01*
X30955373Y-107440202D01*
X31240202Y-107155373D01*
X31575127Y-106931583D01*
X31729276Y-106867733D01*
X31947276Y-106777434D01*
X32342344Y-106698850D01*
X32745156Y-106698850D01*
X33140224Y-106777434D01*
G37*
G36*
X46783854Y-107853335D02*
G01*
X46952376Y-107923139D01*
X47104041Y-108024478D01*
X47233022Y-108153459D01*
X47334361Y-108305124D01*
X47404165Y-108473646D01*
X47439750Y-108652547D01*
X47439750Y-108834953D01*
X47404165Y-109013854D01*
X47334361Y-109182376D01*
X47233022Y-109334041D01*
X47104041Y-109463022D01*
X46952376Y-109564361D01*
X46783854Y-109634165D01*
X46604953Y-109669750D01*
X46422547Y-109669750D01*
X46243646Y-109634165D01*
X46075124Y-109564361D01*
X45923459Y-109463022D01*
X45794478Y-109334041D01*
X45693139Y-109182376D01*
X45623335Y-109013854D01*
X45587750Y-108834953D01*
X45587750Y-108652547D01*
X45623335Y-108473646D01*
X45693139Y-108305124D01*
X45794478Y-108153459D01*
X45923459Y-108024478D01*
X46075124Y-107923139D01*
X46243646Y-107853335D01*
X46422547Y-107817750D01*
X46604953Y-107817750D01*
X46783854Y-107853335D01*
G37*
G36*
X37893854Y-107853335D02*
G01*
X38062376Y-107923139D01*
X38214041Y-108024478D01*
X38343022Y-108153459D01*
X38444361Y-108305124D01*
X38514165Y-108473646D01*
X38549750Y-108652547D01*
X38549750Y-108834953D01*
X38514165Y-109013854D01*
X38444361Y-109182376D01*
X38343022Y-109334041D01*
X38214041Y-109463022D01*
X38062376Y-109564361D01*
X37893854Y-109634165D01*
X37714953Y-109669750D01*
X37532547Y-109669750D01*
X37353646Y-109634165D01*
X37185124Y-109564361D01*
X37033459Y-109463022D01*
X36904478Y-109334041D01*
X36803139Y-109182376D01*
X36733335Y-109013854D01*
X36697750Y-108834953D01*
X36697750Y-108652547D01*
X36733335Y-108473646D01*
X36803139Y-108305124D01*
X36904478Y-108153459D01*
X37033459Y-108024478D01*
X37185124Y-107923139D01*
X37353646Y-107853335D01*
X37532547Y-107817750D01*
X37714953Y-107817750D01*
X37893854Y-107853335D01*
G37*
G36*
X27733854Y-107853335D02*
G01*
X27902376Y-107923139D01*
X28054041Y-108024478D01*
X28183022Y-108153459D01*
X28284361Y-108305124D01*
X28354165Y-108473646D01*
X28389750Y-108652547D01*
X28389750Y-108834953D01*
X28354165Y-109013854D01*
X28284361Y-109182376D01*
X28183022Y-109334041D01*
X28054041Y-109463022D01*
X27902376Y-109564361D01*
X27733854Y-109634165D01*
X27554953Y-109669750D01*
X27372547Y-109669750D01*
X27193646Y-109634165D01*
X27025124Y-109564361D01*
X26873459Y-109463022D01*
X26744478Y-109334041D01*
X26643139Y-109182376D01*
X26573335Y-109013854D01*
X26537750Y-108834953D01*
X26537750Y-108652547D01*
X26573335Y-108473646D01*
X26643139Y-108305124D01*
X26744478Y-108153459D01*
X26873459Y-108024478D01*
X27025124Y-107923139D01*
X27193646Y-107853335D01*
X27372547Y-107817750D01*
X27554953Y-107817750D01*
X27733854Y-107853335D01*
G37*
G36*
X56943854Y-107853335D02*
G01*
X57112376Y-107923139D01*
X57264041Y-108024478D01*
X57393022Y-108153459D01*
X57494361Y-108305124D01*
X57564165Y-108473646D01*
X57599750Y-108652547D01*
X57599750Y-108834953D01*
X57564165Y-109013854D01*
X57494361Y-109182376D01*
X57393022Y-109334041D01*
X57264041Y-109463022D01*
X57112376Y-109564361D01*
X56943854Y-109634165D01*
X56764953Y-109669750D01*
X56582547Y-109669750D01*
X56403646Y-109634165D01*
X56235124Y-109564361D01*
X56083459Y-109463022D01*
X55954478Y-109334041D01*
X55853139Y-109182376D01*
X55783335Y-109013854D01*
X55747750Y-108834953D01*
X55747750Y-108652547D01*
X55783335Y-108473646D01*
X55853139Y-108305124D01*
X55954478Y-108153459D01*
X56083459Y-108024478D01*
X56235124Y-107923139D01*
X56403646Y-107853335D01*
X56582547Y-107817750D01*
X56764953Y-107817750D01*
X56943854Y-107853335D01*
G37*
G36*
X65833854Y-107853335D02*
G01*
X66002376Y-107923139D01*
X66154041Y-108024478D01*
X66283022Y-108153459D01*
X66384361Y-108305124D01*
X66454165Y-108473646D01*
X66489750Y-108652547D01*
X66489750Y-108834953D01*
X66454165Y-109013854D01*
X66384361Y-109182376D01*
X66283022Y-109334041D01*
X66154041Y-109463022D01*
X66002376Y-109564361D01*
X65833854Y-109634165D01*
X65654953Y-109669750D01*
X65472547Y-109669750D01*
X65293646Y-109634165D01*
X65125124Y-109564361D01*
X64973459Y-109463022D01*
X64844478Y-109334041D01*
X64743139Y-109182376D01*
X64673335Y-109013854D01*
X64637750Y-108834953D01*
X64637750Y-108652547D01*
X64673335Y-108473646D01*
X64743139Y-108305124D01*
X64844478Y-108153459D01*
X64973459Y-108024478D01*
X65125124Y-107923139D01*
X65293646Y-107853335D01*
X65472547Y-107817750D01*
X65654953Y-107817750D01*
X65833854Y-107853335D01*
G37*
G36*
X75993854Y-107853335D02*
G01*
X76162376Y-107923139D01*
X76314041Y-108024478D01*
X76443022Y-108153459D01*
X76544361Y-108305124D01*
X76614165Y-108473646D01*
X76649750Y-108652547D01*
X76649750Y-108834953D01*
X76614165Y-109013854D01*
X76544361Y-109182376D01*
X76443022Y-109334041D01*
X76314041Y-109463022D01*
X76162376Y-109564361D01*
X75993854Y-109634165D01*
X75814953Y-109669750D01*
X75632547Y-109669750D01*
X75453646Y-109634165D01*
X75285124Y-109564361D01*
X75133459Y-109463022D01*
X75004478Y-109334041D01*
X74903139Y-109182376D01*
X74833335Y-109013854D01*
X74797750Y-108834953D01*
X74797750Y-108652547D01*
X74833335Y-108473646D01*
X74903139Y-108305124D01*
X75004478Y-108153459D01*
X75133459Y-108024478D01*
X75285124Y-107923139D01*
X75453646Y-107853335D01*
X75632547Y-107817750D01*
X75814953Y-107817750D01*
X75993854Y-107853335D01*
G37*
G36*
X33140224Y-87727434D02*
G01*
X33358224Y-87817733D01*
X33512373Y-87881583D01*
X33847298Y-88105373D01*
X34132127Y-88390202D01*
X34355917Y-88725127D01*
X34388312Y-88803336D01*
X34510066Y-89097276D01*
X34588650Y-89492344D01*
X34588650Y-89895156D01*
X34510066Y-90290224D01*
X34459201Y-90413022D01*
X34355917Y-90662373D01*
X34132127Y-90997298D01*
X33847298Y-91282127D01*
X33512373Y-91505917D01*
X33358224Y-91569767D01*
X33140224Y-91660066D01*
X32745156Y-91738650D01*
X32342344Y-91738650D01*
X31947276Y-91660066D01*
X31729276Y-91569767D01*
X31575127Y-91505917D01*
X31240202Y-91282127D01*
X30955373Y-90997298D01*
X30731583Y-90662373D01*
X30628299Y-90413022D01*
X30577434Y-90290224D01*
X30498850Y-89895156D01*
X30498850Y-89492344D01*
X30577434Y-89097276D01*
X30699188Y-88803336D01*
X30731583Y-88725127D01*
X30955373Y-88390202D01*
X31240202Y-88105373D01*
X31575127Y-87881583D01*
X31729276Y-87817733D01*
X31947276Y-87727434D01*
X32342344Y-87648850D01*
X32745156Y-87648850D01*
X33140224Y-87727434D01*
G37*
G36*
X52190224Y-87727434D02*
G01*
X52408224Y-87817733D01*
X52562373Y-87881583D01*
X52897298Y-88105373D01*
X53182127Y-88390202D01*
X53405917Y-88725127D01*
X53438312Y-88803336D01*
X53560066Y-89097276D01*
X53638650Y-89492344D01*
X53638650Y-89895156D01*
X53560066Y-90290224D01*
X53509201Y-90413022D01*
X53405917Y-90662373D01*
X53182127Y-90997298D01*
X52897298Y-91282127D01*
X52562373Y-91505917D01*
X52408224Y-91569767D01*
X52190224Y-91660066D01*
X51795156Y-91738650D01*
X51392344Y-91738650D01*
X50997276Y-91660066D01*
X50779276Y-91569767D01*
X50625127Y-91505917D01*
X50290202Y-91282127D01*
X50005373Y-90997298D01*
X49781583Y-90662373D01*
X49678299Y-90413022D01*
X49627434Y-90290224D01*
X49548850Y-89895156D01*
X49548850Y-89492344D01*
X49627434Y-89097276D01*
X49749188Y-88803336D01*
X49781583Y-88725127D01*
X50005373Y-88390202D01*
X50290202Y-88105373D01*
X50625127Y-87881583D01*
X50779276Y-87817733D01*
X50997276Y-87727434D01*
X51392344Y-87648850D01*
X51795156Y-87648850D01*
X52190224Y-87727434D01*
G37*
G36*
X71240224Y-87727434D02*
G01*
X71458224Y-87817733D01*
X71612373Y-87881583D01*
X71947298Y-88105373D01*
X72232127Y-88390202D01*
X72455917Y-88725127D01*
X72488312Y-88803336D01*
X72610066Y-89097276D01*
X72688650Y-89492344D01*
X72688650Y-89895156D01*
X72610066Y-90290224D01*
X72559201Y-90413022D01*
X72455917Y-90662373D01*
X72232127Y-90997298D01*
X71947298Y-91282127D01*
X71612373Y-91505917D01*
X71458224Y-91569767D01*
X71240224Y-91660066D01*
X70845156Y-91738650D01*
X70442344Y-91738650D01*
X70047276Y-91660066D01*
X69829276Y-91569767D01*
X69675127Y-91505917D01*
X69340202Y-91282127D01*
X69055373Y-90997298D01*
X68831583Y-90662373D01*
X68728299Y-90413022D01*
X68677434Y-90290224D01*
X68598850Y-89895156D01*
X68598850Y-89492344D01*
X68677434Y-89097276D01*
X68799188Y-88803336D01*
X68831583Y-88725127D01*
X69055373Y-88390202D01*
X69340202Y-88105373D01*
X69675127Y-87881583D01*
X69829276Y-87817733D01*
X70047276Y-87727434D01*
X70442344Y-87648850D01*
X70845156Y-87648850D01*
X71240224Y-87727434D01*
G37*
G36*
X90290224Y-87727434D02*
G01*
X90508224Y-87817733D01*
X90662373Y-87881583D01*
X90997298Y-88105373D01*
X91282127Y-88390202D01*
X91505917Y-88725127D01*
X91538312Y-88803336D01*
X91660066Y-89097276D01*
X91738650Y-89492344D01*
X91738650Y-89895156D01*
X91660066Y-90290224D01*
X91609201Y-90413022D01*
X91505917Y-90662373D01*
X91282127Y-90997298D01*
X90997298Y-91282127D01*
X90662373Y-91505917D01*
X90508224Y-91569767D01*
X90290224Y-91660066D01*
X89895156Y-91738650D01*
X89492344Y-91738650D01*
X89097276Y-91660066D01*
X88879276Y-91569767D01*
X88725127Y-91505917D01*
X88390202Y-91282127D01*
X88105373Y-90997298D01*
X87881583Y-90662373D01*
X87778299Y-90413022D01*
X87727434Y-90290224D01*
X87648850Y-89895156D01*
X87648850Y-89492344D01*
X87727434Y-89097276D01*
X87849188Y-88803336D01*
X87881583Y-88725127D01*
X88105373Y-88390202D01*
X88390202Y-88105373D01*
X88725127Y-87881583D01*
X88879276Y-87817733D01*
X89097276Y-87727434D01*
X89492344Y-87648850D01*
X89895156Y-87648850D01*
X90290224Y-87727434D01*
G37*
G36*
X46783854Y-88803335D02*
G01*
X46952376Y-88873139D01*
X47104041Y-88974478D01*
X47233022Y-89103459D01*
X47334361Y-89255124D01*
X47404165Y-89423646D01*
X47439750Y-89602547D01*
X47439750Y-89784953D01*
X47404165Y-89963854D01*
X47334361Y-90132376D01*
X47233022Y-90284041D01*
X47104041Y-90413022D01*
X46952376Y-90514361D01*
X46783854Y-90584165D01*
X46604953Y-90619750D01*
X46422547Y-90619750D01*
X46243646Y-90584165D01*
X46075124Y-90514361D01*
X45923459Y-90413022D01*
X45794478Y-90284041D01*
X45693139Y-90132376D01*
X45623335Y-89963854D01*
X45587750Y-89784953D01*
X45587750Y-89602547D01*
X45623335Y-89423646D01*
X45693139Y-89255124D01*
X45794478Y-89103459D01*
X45923459Y-88974478D01*
X46075124Y-88873139D01*
X46243646Y-88803335D01*
X46422547Y-88767750D01*
X46604953Y-88767750D01*
X46783854Y-88803335D01*
G37*
G36*
X37893854Y-88803335D02*
G01*
X38062376Y-88873139D01*
X38214041Y-88974478D01*
X38343022Y-89103459D01*
X38444361Y-89255124D01*
X38514165Y-89423646D01*
X38549750Y-89602547D01*
X38549750Y-89784953D01*
X38514165Y-89963854D01*
X38444361Y-90132376D01*
X38343022Y-90284041D01*
X38214041Y-90413022D01*
X38062376Y-90514361D01*
X37893854Y-90584165D01*
X37714953Y-90619750D01*
X37532547Y-90619750D01*
X37353646Y-90584165D01*
X37185124Y-90514361D01*
X37033459Y-90413022D01*
X36904478Y-90284041D01*
X36803139Y-90132376D01*
X36733335Y-89963854D01*
X36697750Y-89784953D01*
X36697750Y-89602547D01*
X36733335Y-89423646D01*
X36803139Y-89255124D01*
X36904478Y-89103459D01*
X37033459Y-88974478D01*
X37185124Y-88873139D01*
X37353646Y-88803335D01*
X37532547Y-88767750D01*
X37714953Y-88767750D01*
X37893854Y-88803335D01*
G37*
G36*
X27733854Y-88803335D02*
G01*
X27902376Y-88873139D01*
X28054041Y-88974478D01*
X28183022Y-89103459D01*
X28284361Y-89255124D01*
X28354165Y-89423646D01*
X28389750Y-89602547D01*
X28389750Y-89784953D01*
X28354165Y-89963854D01*
X28284361Y-90132376D01*
X28183022Y-90284041D01*
X28054041Y-90413022D01*
X27902376Y-90514361D01*
X27733854Y-90584165D01*
X27554953Y-90619750D01*
X27372547Y-90619750D01*
X27193646Y-90584165D01*
X27025124Y-90514361D01*
X26873459Y-90413022D01*
X26744478Y-90284041D01*
X26643139Y-90132376D01*
X26573335Y-89963854D01*
X26537750Y-89784953D01*
X26537750Y-89602547D01*
X26573335Y-89423646D01*
X26643139Y-89255124D01*
X26744478Y-89103459D01*
X26873459Y-88974478D01*
X27025124Y-88873139D01*
X27193646Y-88803335D01*
X27372547Y-88767750D01*
X27554953Y-88767750D01*
X27733854Y-88803335D01*
G37*
G36*
X56943854Y-88803335D02*
G01*
X57112376Y-88873139D01*
X57264041Y-88974478D01*
X57393022Y-89103459D01*
X57494361Y-89255124D01*
X57564165Y-89423646D01*
X57599750Y-89602547D01*
X57599750Y-89784953D01*
X57564165Y-89963854D01*
X57494361Y-90132376D01*
X57393022Y-90284041D01*
X57264041Y-90413022D01*
X57112376Y-90514361D01*
X56943854Y-90584165D01*
X56764953Y-90619750D01*
X56582547Y-90619750D01*
X56403646Y-90584165D01*
X56235124Y-90514361D01*
X56083459Y-90413022D01*
X55954478Y-90284041D01*
X55853139Y-90132376D01*
X55783335Y-89963854D01*
X55747750Y-89784953D01*
X55747750Y-89602547D01*
X55783335Y-89423646D01*
X55853139Y-89255124D01*
X55954478Y-89103459D01*
X56083459Y-88974478D01*
X56235124Y-88873139D01*
X56403646Y-88803335D01*
X56582547Y-88767750D01*
X56764953Y-88767750D01*
X56943854Y-88803335D01*
G37*
G36*
X65833854Y-88803335D02*
G01*
X66002376Y-88873139D01*
X66154041Y-88974478D01*
X66283022Y-89103459D01*
X66384361Y-89255124D01*
X66454165Y-89423646D01*
X66489750Y-89602547D01*
X66489750Y-89784953D01*
X66454165Y-89963854D01*
X66384361Y-90132376D01*
X66283022Y-90284041D01*
X66154041Y-90413022D01*
X66002376Y-90514361D01*
X65833854Y-90584165D01*
X65654953Y-90619750D01*
X65472547Y-90619750D01*
X65293646Y-90584165D01*
X65125124Y-90514361D01*
X64973459Y-90413022D01*
X64844478Y-90284041D01*
X64743139Y-90132376D01*
X64673335Y-89963854D01*
X64637750Y-89784953D01*
X64637750Y-89602547D01*
X64673335Y-89423646D01*
X64743139Y-89255124D01*
X64844478Y-89103459D01*
X64973459Y-88974478D01*
X65125124Y-88873139D01*
X65293646Y-88803335D01*
X65472547Y-88767750D01*
X65654953Y-88767750D01*
X65833854Y-88803335D01*
G37*
G36*
X75993854Y-88803335D02*
G01*
X76162376Y-88873139D01*
X76314041Y-88974478D01*
X76443022Y-89103459D01*
X76544361Y-89255124D01*
X76614165Y-89423646D01*
X76649750Y-89602547D01*
X76649750Y-89784953D01*
X76614165Y-89963854D01*
X76544361Y-90132376D01*
X76443022Y-90284041D01*
X76314041Y-90413022D01*
X76162376Y-90514361D01*
X75993854Y-90584165D01*
X75814953Y-90619750D01*
X75632547Y-90619750D01*
X75453646Y-90584165D01*
X75285124Y-90514361D01*
X75133459Y-90413022D01*
X75004478Y-90284041D01*
X74903139Y-90132376D01*
X74833335Y-89963854D01*
X74797750Y-89784953D01*
X74797750Y-89602547D01*
X74833335Y-89423646D01*
X74903139Y-89255124D01*
X75004478Y-89103459D01*
X75133459Y-88974478D01*
X75285124Y-88873139D01*
X75453646Y-88803335D01*
X75632547Y-88767750D01*
X75814953Y-88767750D01*
X75993854Y-88803335D01*
G37*
G36*
X84883854Y-88803335D02*
G01*
X85052376Y-88873139D01*
X85204041Y-88974478D01*
X85333022Y-89103459D01*
X85434361Y-89255124D01*
X85504165Y-89423646D01*
X85539750Y-89602547D01*
X85539750Y-89784953D01*
X85504165Y-89963854D01*
X85434361Y-90132376D01*
X85333022Y-90284041D01*
X85204041Y-90413022D01*
X85052376Y-90514361D01*
X84883854Y-90584165D01*
X84704953Y-90619750D01*
X84522547Y-90619750D01*
X84343646Y-90584165D01*
X84175124Y-90514361D01*
X84023459Y-90413022D01*
X83894478Y-90284041D01*
X83793139Y-90132376D01*
X83723335Y-89963854D01*
X83687750Y-89784953D01*
X83687750Y-89602547D01*
X83723335Y-89423646D01*
X83793139Y-89255124D01*
X83894478Y-89103459D01*
X84023459Y-88974478D01*
X84175124Y-88873139D01*
X84343646Y-88803335D01*
X84522547Y-88767750D01*
X84704953Y-88767750D01*
X84883854Y-88803335D01*
G37*
G36*
X95043854Y-88803335D02*
G01*
X95212376Y-88873139D01*
X95364041Y-88974478D01*
X95493022Y-89103459D01*
X95594361Y-89255124D01*
X95664165Y-89423646D01*
X95699750Y-89602547D01*
X95699750Y-89784953D01*
X95664165Y-89963854D01*
X95594361Y-90132376D01*
X95493022Y-90284041D01*
X95364041Y-90413022D01*
X95212376Y-90514361D01*
X95043854Y-90584165D01*
X94864953Y-90619750D01*
X94682547Y-90619750D01*
X94503646Y-90584165D01*
X94335124Y-90514361D01*
X94183459Y-90413022D01*
X94054478Y-90284041D01*
X93953139Y-90132376D01*
X93883335Y-89963854D01*
X93847750Y-89784953D01*
X93847750Y-89602547D01*
X93883335Y-89423646D01*
X93953139Y-89255124D01*
X94054478Y-89103459D01*
X94183459Y-88974478D01*
X94335124Y-88873139D01*
X94503646Y-88803335D01*
X94682547Y-88767750D01*
X94864953Y-88767750D01*
X95043854Y-88803335D01*
G37*
G36*
X148038500Y-77426000D02*
G01*
X144936500Y-77426000D01*
X144936500Y-74824000D01*
X148038500Y-74824000D01*
X148038500Y-77426000D01*
G37*
G36*
X155038500Y-74076000D02*
G01*
X152936500Y-74076000D01*
X152936500Y-71974000D01*
X155038500Y-71974000D01*
X155038500Y-74076000D01*
G37*
G36*
X139794064Y-72014389D02*
G01*
X139985333Y-72093615D01*
X139985335Y-72093616D01*
X140157473Y-72208635D01*
X140303865Y-72355027D01*
X140371278Y-72455917D01*
X140418885Y-72527167D01*
X140498111Y-72718436D01*
X140538500Y-72921484D01*
X140538500Y-73128516D01*
X140498111Y-73331564D01*
X140418885Y-73522833D01*
X140418884Y-73522835D01*
X140303865Y-73694973D01*
X140157473Y-73841365D01*
X139985335Y-73956384D01*
X139985334Y-73956385D01*
X139985333Y-73956385D01*
X139794064Y-74035611D01*
X139591016Y-74076000D01*
X139383984Y-74076000D01*
X139180936Y-74035611D01*
X138989667Y-73956385D01*
X138989666Y-73956385D01*
X138989665Y-73956384D01*
X138817527Y-73841365D01*
X138671135Y-73694973D01*
X138556116Y-73522835D01*
X138556115Y-73522833D01*
X138476889Y-73331564D01*
X138436500Y-73128516D01*
X138436500Y-72921484D01*
X138476889Y-72718436D01*
X138556115Y-72527167D01*
X138603723Y-72455917D01*
X138671135Y-72355027D01*
X138817527Y-72208635D01*
X138989665Y-72093616D01*
X138989667Y-72093615D01*
X139180936Y-72014389D01*
X139383984Y-71974000D01*
X139591016Y-71974000D01*
X139794064Y-72014389D01*
G37*
G36*
X33140224Y-68677434D02*
G01*
X33358224Y-68767733D01*
X33512373Y-68831583D01*
X33847298Y-69055373D01*
X34132127Y-69340202D01*
X34355917Y-69675127D01*
X34388312Y-69753336D01*
X34510066Y-70047276D01*
X34588650Y-70442344D01*
X34588650Y-70845156D01*
X34510066Y-71240224D01*
X34459201Y-71363022D01*
X34355917Y-71612373D01*
X34132127Y-71947298D01*
X33847298Y-72232127D01*
X33512373Y-72455917D01*
X33358224Y-72519767D01*
X33140224Y-72610066D01*
X32745156Y-72688650D01*
X32342344Y-72688650D01*
X31947276Y-72610066D01*
X31729276Y-72519767D01*
X31575127Y-72455917D01*
X31240202Y-72232127D01*
X30955373Y-71947298D01*
X30731583Y-71612373D01*
X30628299Y-71363022D01*
X30577434Y-71240224D01*
X30498850Y-70845156D01*
X30498850Y-70442344D01*
X30577434Y-70047276D01*
X30699188Y-69753336D01*
X30731583Y-69675127D01*
X30955373Y-69340202D01*
X31240202Y-69055373D01*
X31575127Y-68831583D01*
X31729276Y-68767733D01*
X31947276Y-68677434D01*
X32342344Y-68598850D01*
X32745156Y-68598850D01*
X33140224Y-68677434D01*
G37*
G36*
X52190224Y-68677434D02*
G01*
X52408224Y-68767733D01*
X52562373Y-68831583D01*
X52897298Y-69055373D01*
X53182127Y-69340202D01*
X53405917Y-69675127D01*
X53438312Y-69753336D01*
X53560066Y-70047276D01*
X53638650Y-70442344D01*
X53638650Y-70845156D01*
X53560066Y-71240224D01*
X53509201Y-71363022D01*
X53405917Y-71612373D01*
X53182127Y-71947298D01*
X52897298Y-72232127D01*
X52562373Y-72455917D01*
X52408224Y-72519767D01*
X52190224Y-72610066D01*
X51795156Y-72688650D01*
X51392344Y-72688650D01*
X50997276Y-72610066D01*
X50779276Y-72519767D01*
X50625127Y-72455917D01*
X50290202Y-72232127D01*
X50005373Y-71947298D01*
X49781583Y-71612373D01*
X49678299Y-71363022D01*
X49627434Y-71240224D01*
X49548850Y-70845156D01*
X49548850Y-70442344D01*
X49627434Y-70047276D01*
X49749188Y-69753336D01*
X49781583Y-69675127D01*
X50005373Y-69340202D01*
X50290202Y-69055373D01*
X50625127Y-68831583D01*
X50779276Y-68767733D01*
X50997276Y-68677434D01*
X51392344Y-68598850D01*
X51795156Y-68598850D01*
X52190224Y-68677434D01*
G37*
G36*
X109340224Y-68677434D02*
G01*
X109558224Y-68767733D01*
X109712373Y-68831583D01*
X110047298Y-69055373D01*
X110332127Y-69340202D01*
X110555917Y-69675127D01*
X110588312Y-69753336D01*
X110710066Y-70047276D01*
X110788650Y-70442344D01*
X110788650Y-70845156D01*
X110710066Y-71240224D01*
X110659201Y-71363022D01*
X110555917Y-71612373D01*
X110332127Y-71947298D01*
X110047298Y-72232127D01*
X109712373Y-72455917D01*
X109558224Y-72519767D01*
X109340224Y-72610066D01*
X108945156Y-72688650D01*
X108542344Y-72688650D01*
X108147276Y-72610066D01*
X107929276Y-72519767D01*
X107775127Y-72455917D01*
X107440202Y-72232127D01*
X107155373Y-71947298D01*
X106931583Y-71612373D01*
X106828299Y-71363022D01*
X106777434Y-71240224D01*
X106698850Y-70845156D01*
X106698850Y-70442344D01*
X106777434Y-70047276D01*
X106899188Y-69753336D01*
X106931583Y-69675127D01*
X107155373Y-69340202D01*
X107440202Y-69055373D01*
X107775127Y-68831583D01*
X107929276Y-68767733D01*
X108147276Y-68677434D01*
X108542344Y-68598850D01*
X108945156Y-68598850D01*
X109340224Y-68677434D01*
G37*
G36*
X90290224Y-68677434D02*
G01*
X90508224Y-68767733D01*
X90662373Y-68831583D01*
X90997298Y-69055373D01*
X91282127Y-69340202D01*
X91505917Y-69675127D01*
X91538312Y-69753336D01*
X91660066Y-70047276D01*
X91738650Y-70442344D01*
X91738650Y-70845156D01*
X91660066Y-71240224D01*
X91609201Y-71363022D01*
X91505917Y-71612373D01*
X91282127Y-71947298D01*
X90997298Y-72232127D01*
X90662373Y-72455917D01*
X90508224Y-72519767D01*
X90290224Y-72610066D01*
X89895156Y-72688650D01*
X89492344Y-72688650D01*
X89097276Y-72610066D01*
X88879276Y-72519767D01*
X88725127Y-72455917D01*
X88390202Y-72232127D01*
X88105373Y-71947298D01*
X87881583Y-71612373D01*
X87778299Y-71363022D01*
X87727434Y-71240224D01*
X87648850Y-70845156D01*
X87648850Y-70442344D01*
X87727434Y-70047276D01*
X87849188Y-69753336D01*
X87881583Y-69675127D01*
X88105373Y-69340202D01*
X88390202Y-69055373D01*
X88725127Y-68831583D01*
X88879276Y-68767733D01*
X89097276Y-68677434D01*
X89492344Y-68598850D01*
X89895156Y-68598850D01*
X90290224Y-68677434D01*
G37*
G36*
X71240224Y-68677434D02*
G01*
X71458224Y-68767733D01*
X71612373Y-68831583D01*
X71947298Y-69055373D01*
X72232127Y-69340202D01*
X72455917Y-69675127D01*
X72488312Y-69753336D01*
X72610066Y-70047276D01*
X72688650Y-70442344D01*
X72688650Y-70845156D01*
X72610066Y-71240224D01*
X72559201Y-71363022D01*
X72455917Y-71612373D01*
X72232127Y-71947298D01*
X71947298Y-72232127D01*
X71612373Y-72455917D01*
X71458224Y-72519767D01*
X71240224Y-72610066D01*
X70845156Y-72688650D01*
X70442344Y-72688650D01*
X70047276Y-72610066D01*
X69829276Y-72519767D01*
X69675127Y-72455917D01*
X69340202Y-72232127D01*
X69055373Y-71947298D01*
X68831583Y-71612373D01*
X68728299Y-71363022D01*
X68677434Y-71240224D01*
X68598850Y-70845156D01*
X68598850Y-70442344D01*
X68677434Y-70047276D01*
X68799188Y-69753336D01*
X68831583Y-69675127D01*
X69055373Y-69340202D01*
X69340202Y-69055373D01*
X69675127Y-68831583D01*
X69829276Y-68767733D01*
X70047276Y-68677434D01*
X70442344Y-68598850D01*
X70845156Y-68598850D01*
X71240224Y-68677434D01*
G37*
G36*
X154294064Y-69514389D02*
G01*
X154485333Y-69593615D01*
X154485335Y-69593616D01*
X154607325Y-69675127D01*
X154657473Y-69708635D01*
X154803865Y-69855027D01*
X154918885Y-70027167D01*
X154998111Y-70218436D01*
X155038500Y-70421484D01*
X155038500Y-70628516D01*
X154998111Y-70831564D01*
X154964025Y-70913854D01*
X154918884Y-71022835D01*
X154803865Y-71194973D01*
X154657473Y-71341365D01*
X154485335Y-71456384D01*
X154485334Y-71456385D01*
X154485333Y-71456385D01*
X154294064Y-71535611D01*
X154091016Y-71576000D01*
X153883984Y-71576000D01*
X153680936Y-71535611D01*
X153489667Y-71456385D01*
X153489666Y-71456385D01*
X153489665Y-71456384D01*
X153317527Y-71341365D01*
X153171135Y-71194973D01*
X153056116Y-71022835D01*
X153010975Y-70913854D01*
X152976889Y-70831564D01*
X152936500Y-70628516D01*
X152936500Y-70421484D01*
X152976889Y-70218436D01*
X153056115Y-70027167D01*
X153171135Y-69855027D01*
X153317527Y-69708635D01*
X153367675Y-69675127D01*
X153489665Y-69593616D01*
X153489667Y-69593615D01*
X153680936Y-69514389D01*
X153883984Y-69474000D01*
X154091016Y-69474000D01*
X154294064Y-69514389D01*
G37*
G36*
X37893854Y-69753335D02*
G01*
X38062376Y-69823139D01*
X38214041Y-69924478D01*
X38343022Y-70053459D01*
X38444361Y-70205124D01*
X38514165Y-70373646D01*
X38549750Y-70552547D01*
X38549750Y-70734953D01*
X38514165Y-70913854D01*
X38444361Y-71082376D01*
X38343022Y-71234041D01*
X38214041Y-71363022D01*
X38062376Y-71464361D01*
X37893854Y-71534165D01*
X37714953Y-71569750D01*
X37532547Y-71569750D01*
X37353646Y-71534165D01*
X37185124Y-71464361D01*
X37033459Y-71363022D01*
X36904478Y-71234041D01*
X36803139Y-71082376D01*
X36733335Y-70913854D01*
X36697750Y-70734953D01*
X36697750Y-70552547D01*
X36733335Y-70373646D01*
X36803139Y-70205124D01*
X36904478Y-70053459D01*
X37033459Y-69924478D01*
X37185124Y-69823139D01*
X37353646Y-69753335D01*
X37532547Y-69717750D01*
X37714953Y-69717750D01*
X37893854Y-69753335D01*
G37*
G36*
X27733854Y-69753335D02*
G01*
X27902376Y-69823139D01*
X28054041Y-69924478D01*
X28183022Y-70053459D01*
X28284361Y-70205124D01*
X28354165Y-70373646D01*
X28389750Y-70552547D01*
X28389750Y-70734953D01*
X28354165Y-70913854D01*
X28284361Y-71082376D01*
X28183022Y-71234041D01*
X28054041Y-71363022D01*
X27902376Y-71464361D01*
X27733854Y-71534165D01*
X27554953Y-71569750D01*
X27372547Y-71569750D01*
X27193646Y-71534165D01*
X27025124Y-71464361D01*
X26873459Y-71363022D01*
X26744478Y-71234041D01*
X26643139Y-71082376D01*
X26573335Y-70913854D01*
X26537750Y-70734953D01*
X26537750Y-70552547D01*
X26573335Y-70373646D01*
X26643139Y-70205124D01*
X26744478Y-70053459D01*
X26873459Y-69924478D01*
X27025124Y-69823139D01*
X27193646Y-69753335D01*
X27372547Y-69717750D01*
X27554953Y-69717750D01*
X27733854Y-69753335D01*
G37*
G36*
X46783854Y-69753335D02*
G01*
X46952376Y-69823139D01*
X47104041Y-69924478D01*
X47233022Y-70053459D01*
X47334361Y-70205124D01*
X47404165Y-70373646D01*
X47439750Y-70552547D01*
X47439750Y-70734953D01*
X47404165Y-70913854D01*
X47334361Y-71082376D01*
X47233022Y-71234041D01*
X47104041Y-71363022D01*
X46952376Y-71464361D01*
X46783854Y-71534165D01*
X46604953Y-71569750D01*
X46422547Y-71569750D01*
X46243646Y-71534165D01*
X46075124Y-71464361D01*
X45923459Y-71363022D01*
X45794478Y-71234041D01*
X45693139Y-71082376D01*
X45623335Y-70913854D01*
X45587750Y-70734953D01*
X45587750Y-70552547D01*
X45623335Y-70373646D01*
X45693139Y-70205124D01*
X45794478Y-70053459D01*
X45923459Y-69924478D01*
X46075124Y-69823139D01*
X46243646Y-69753335D01*
X46422547Y-69717750D01*
X46604953Y-69717750D01*
X46783854Y-69753335D01*
G37*
G36*
X56943854Y-69753335D02*
G01*
X57112376Y-69823139D01*
X57264041Y-69924478D01*
X57393022Y-70053459D01*
X57494361Y-70205124D01*
X57564165Y-70373646D01*
X57599750Y-70552547D01*
X57599750Y-70734953D01*
X57564165Y-70913854D01*
X57494361Y-71082376D01*
X57393022Y-71234041D01*
X57264041Y-71363022D01*
X57112376Y-71464361D01*
X56943854Y-71534165D01*
X56764953Y-71569750D01*
X56582547Y-71569750D01*
X56403646Y-71534165D01*
X56235124Y-71464361D01*
X56083459Y-71363022D01*
X55954478Y-71234041D01*
X55853139Y-71082376D01*
X55783335Y-70913854D01*
X55747750Y-70734953D01*
X55747750Y-70552547D01*
X55783335Y-70373646D01*
X55853139Y-70205124D01*
X55954478Y-70053459D01*
X56083459Y-69924478D01*
X56235124Y-69823139D01*
X56403646Y-69753335D01*
X56582547Y-69717750D01*
X56764953Y-69717750D01*
X56943854Y-69753335D01*
G37*
G36*
X65833854Y-69753335D02*
G01*
X66002376Y-69823139D01*
X66154041Y-69924478D01*
X66283022Y-70053459D01*
X66384361Y-70205124D01*
X66454165Y-70373646D01*
X66489750Y-70552547D01*
X66489750Y-70734953D01*
X66454165Y-70913854D01*
X66384361Y-71082376D01*
X66283022Y-71234041D01*
X66154041Y-71363022D01*
X66002376Y-71464361D01*
X65833854Y-71534165D01*
X65654953Y-71569750D01*
X65472547Y-71569750D01*
X65293646Y-71534165D01*
X65125124Y-71464361D01*
X64973459Y-71363022D01*
X64844478Y-71234041D01*
X64743139Y-71082376D01*
X64673335Y-70913854D01*
X64637750Y-70734953D01*
X64637750Y-70552547D01*
X64673335Y-70373646D01*
X64743139Y-70205124D01*
X64844478Y-70053459D01*
X64973459Y-69924478D01*
X65125124Y-69823139D01*
X65293646Y-69753335D01*
X65472547Y-69717750D01*
X65654953Y-69717750D01*
X65833854Y-69753335D01*
G37*
G36*
X75993854Y-69753335D02*
G01*
X76162376Y-69823139D01*
X76314041Y-69924478D01*
X76443022Y-70053459D01*
X76544361Y-70205124D01*
X76614165Y-70373646D01*
X76649750Y-70552547D01*
X76649750Y-70734953D01*
X76614165Y-70913854D01*
X76544361Y-71082376D01*
X76443022Y-71234041D01*
X76314041Y-71363022D01*
X76162376Y-71464361D01*
X75993854Y-71534165D01*
X75814953Y-71569750D01*
X75632547Y-71569750D01*
X75453646Y-71534165D01*
X75285124Y-71464361D01*
X75133459Y-71363022D01*
X75004478Y-71234041D01*
X74903139Y-71082376D01*
X74833335Y-70913854D01*
X74797750Y-70734953D01*
X74797750Y-70552547D01*
X74833335Y-70373646D01*
X74903139Y-70205124D01*
X75004478Y-70053459D01*
X75133459Y-69924478D01*
X75285124Y-69823139D01*
X75453646Y-69753335D01*
X75632547Y-69717750D01*
X75814953Y-69717750D01*
X75993854Y-69753335D01*
G37*
G36*
X84883854Y-69753335D02*
G01*
X85052376Y-69823139D01*
X85204041Y-69924478D01*
X85333022Y-70053459D01*
X85434361Y-70205124D01*
X85504165Y-70373646D01*
X85539750Y-70552547D01*
X85539750Y-70734953D01*
X85504165Y-70913854D01*
X85434361Y-71082376D01*
X85333022Y-71234041D01*
X85204041Y-71363022D01*
X85052376Y-71464361D01*
X84883854Y-71534165D01*
X84704953Y-71569750D01*
X84522547Y-71569750D01*
X84343646Y-71534165D01*
X84175124Y-71464361D01*
X84023459Y-71363022D01*
X83894478Y-71234041D01*
X83793139Y-71082376D01*
X83723335Y-70913854D01*
X83687750Y-70734953D01*
X83687750Y-70552547D01*
X83723335Y-70373646D01*
X83793139Y-70205124D01*
X83894478Y-70053459D01*
X84023459Y-69924478D01*
X84175124Y-69823139D01*
X84343646Y-69753335D01*
X84522547Y-69717750D01*
X84704953Y-69717750D01*
X84883854Y-69753335D01*
G37*
G36*
X95043854Y-69753335D02*
G01*
X95212376Y-69823139D01*
X95364041Y-69924478D01*
X95493022Y-70053459D01*
X95594361Y-70205124D01*
X95664165Y-70373646D01*
X95699750Y-70552547D01*
X95699750Y-70734953D01*
X95664165Y-70913854D01*
X95594361Y-71082376D01*
X95493022Y-71234041D01*
X95364041Y-71363022D01*
X95212376Y-71464361D01*
X95043854Y-71534165D01*
X94864953Y-71569750D01*
X94682547Y-71569750D01*
X94503646Y-71534165D01*
X94335124Y-71464361D01*
X94183459Y-71363022D01*
X94054478Y-71234041D01*
X93953139Y-71082376D01*
X93883335Y-70913854D01*
X93847750Y-70734953D01*
X93847750Y-70552547D01*
X93883335Y-70373646D01*
X93953139Y-70205124D01*
X94054478Y-70053459D01*
X94183459Y-69924478D01*
X94335124Y-69823139D01*
X94503646Y-69753335D01*
X94682547Y-69717750D01*
X94864953Y-69717750D01*
X95043854Y-69753335D01*
G37*
G36*
X103933854Y-69753335D02*
G01*
X104102376Y-69823139D01*
X104254041Y-69924478D01*
X104383022Y-70053459D01*
X104484361Y-70205124D01*
X104554165Y-70373646D01*
X104589750Y-70552547D01*
X104589750Y-70734953D01*
X104554165Y-70913854D01*
X104484361Y-71082376D01*
X104383022Y-71234041D01*
X104254041Y-71363022D01*
X104102376Y-71464361D01*
X103933854Y-71534165D01*
X103754953Y-71569750D01*
X103572547Y-71569750D01*
X103393646Y-71534165D01*
X103225124Y-71464361D01*
X103073459Y-71363022D01*
X102944478Y-71234041D01*
X102843139Y-71082376D01*
X102773335Y-70913854D01*
X102737750Y-70734953D01*
X102737750Y-70552547D01*
X102773335Y-70373646D01*
X102843139Y-70205124D01*
X102944478Y-70053459D01*
X103073459Y-69924478D01*
X103225124Y-69823139D01*
X103393646Y-69753335D01*
X103572547Y-69717750D01*
X103754953Y-69717750D01*
X103933854Y-69753335D01*
G37*
G36*
X114093854Y-69753335D02*
G01*
X114262376Y-69823139D01*
X114414041Y-69924478D01*
X114543022Y-70053459D01*
X114644361Y-70205124D01*
X114714165Y-70373646D01*
X114749750Y-70552547D01*
X114749750Y-70734953D01*
X114714165Y-70913854D01*
X114644361Y-71082376D01*
X114543022Y-71234041D01*
X114414041Y-71363022D01*
X114262376Y-71464361D01*
X114093854Y-71534165D01*
X113914953Y-71569750D01*
X113732547Y-71569750D01*
X113553646Y-71534165D01*
X113385124Y-71464361D01*
X113233459Y-71363022D01*
X113104478Y-71234041D01*
X113003139Y-71082376D01*
X112933335Y-70913854D01*
X112897750Y-70734953D01*
X112897750Y-70552547D01*
X112933335Y-70373646D01*
X113003139Y-70205124D01*
X113104478Y-70053459D01*
X113233459Y-69924478D01*
X113385124Y-69823139D01*
X113553646Y-69753335D01*
X113732547Y-69717750D01*
X113914953Y-69717750D01*
X114093854Y-69753335D01*
G37*
G36*
X139794064Y-67014389D02*
G01*
X139985333Y-67093615D01*
X139985335Y-67093616D01*
X140157473Y-67208635D01*
X140303865Y-67355027D01*
X140418885Y-67527167D01*
X140498111Y-67718436D01*
X140538500Y-67921484D01*
X140538500Y-68128516D01*
X140498111Y-68331564D01*
X140418885Y-68522833D01*
X140418884Y-68522835D01*
X140303865Y-68694973D01*
X140157473Y-68841365D01*
X139985335Y-68956384D01*
X139985334Y-68956385D01*
X139985333Y-68956385D01*
X139794064Y-69035611D01*
X139591016Y-69076000D01*
X139383984Y-69076000D01*
X139180936Y-69035611D01*
X138989667Y-68956385D01*
X138989666Y-68956385D01*
X138989665Y-68956384D01*
X138817527Y-68841365D01*
X138671135Y-68694973D01*
X138556116Y-68522835D01*
X138556115Y-68522833D01*
X138476889Y-68331564D01*
X138436500Y-68128516D01*
X138436500Y-67921484D01*
X138476889Y-67718436D01*
X138556115Y-67527167D01*
X138671135Y-67355027D01*
X138817527Y-67208635D01*
X138989665Y-67093616D01*
X138989667Y-67093615D01*
X139180936Y-67014389D01*
X139383984Y-66974000D01*
X139591016Y-66974000D01*
X139794064Y-67014389D01*
G37*
G36*
X154294064Y-67014389D02*
G01*
X154485333Y-67093615D01*
X154485335Y-67093616D01*
X154657473Y-67208635D01*
X154803865Y-67355027D01*
X154918885Y-67527167D01*
X154998111Y-67718436D01*
X155038500Y-67921484D01*
X155038500Y-68128516D01*
X154998111Y-68331564D01*
X154918885Y-68522833D01*
X154918884Y-68522835D01*
X154803865Y-68694973D01*
X154657473Y-68841365D01*
X154485335Y-68956384D01*
X154485334Y-68956385D01*
X154485333Y-68956385D01*
X154294064Y-69035611D01*
X154091016Y-69076000D01*
X153883984Y-69076000D01*
X153680936Y-69035611D01*
X153489667Y-68956385D01*
X153489666Y-68956385D01*
X153489665Y-68956384D01*
X153317527Y-68841365D01*
X153171135Y-68694973D01*
X153056116Y-68522835D01*
X153056115Y-68522833D01*
X152976889Y-68331564D01*
X152936500Y-68128516D01*
X152936500Y-67921484D01*
X152976889Y-67718436D01*
X153056115Y-67527167D01*
X153171135Y-67355027D01*
X153317527Y-67208635D01*
X153489665Y-67093616D01*
X153489667Y-67093615D01*
X153680936Y-67014389D01*
X153883984Y-66974000D01*
X154091016Y-66974000D01*
X154294064Y-67014389D01*
G37*
G36*
X148038500Y-66226000D02*
G01*
X144936500Y-66226000D01*
X144936500Y-63624000D01*
X148038500Y-63624000D01*
X148038500Y-66226000D01*
G37*
G36*
X109340224Y-49627434D02*
G01*
X109558224Y-49717733D01*
X109712373Y-49781583D01*
X110047298Y-50005373D01*
X110332127Y-50290202D01*
X110555917Y-50625127D01*
X110588312Y-50703336D01*
X110710066Y-50997276D01*
X110788650Y-51392344D01*
X110788650Y-51795156D01*
X110710066Y-52190224D01*
X110659201Y-52313022D01*
X110555917Y-52562373D01*
X110332127Y-52897298D01*
X110047298Y-53182127D01*
X109712373Y-53405917D01*
X109558224Y-53469767D01*
X109340224Y-53560066D01*
X108945156Y-53638650D01*
X108542344Y-53638650D01*
X108147276Y-53560066D01*
X107929276Y-53469767D01*
X107775127Y-53405917D01*
X107440202Y-53182127D01*
X107155373Y-52897298D01*
X106931583Y-52562373D01*
X106828299Y-52313022D01*
X106777434Y-52190224D01*
X106698850Y-51795156D01*
X106698850Y-51392344D01*
X106777434Y-50997276D01*
X106899188Y-50703336D01*
X106931583Y-50625127D01*
X107155373Y-50290202D01*
X107440202Y-50005373D01*
X107775127Y-49781583D01*
X107929276Y-49717733D01*
X108147276Y-49627434D01*
X108542344Y-49548850D01*
X108945156Y-49548850D01*
X109340224Y-49627434D01*
G37*
G36*
X128390224Y-49627434D02*
G01*
X128608224Y-49717733D01*
X128762373Y-49781583D01*
X129097298Y-50005373D01*
X129382127Y-50290202D01*
X129605917Y-50625127D01*
X129638312Y-50703336D01*
X129760066Y-50997276D01*
X129838650Y-51392344D01*
X129838650Y-51795156D01*
X129760066Y-52190224D01*
X129709201Y-52313022D01*
X129605917Y-52562373D01*
X129382127Y-52897298D01*
X129097298Y-53182127D01*
X128762373Y-53405917D01*
X128608224Y-53469767D01*
X128390224Y-53560066D01*
X127995156Y-53638650D01*
X127592344Y-53638650D01*
X127197276Y-53560066D01*
X126979276Y-53469767D01*
X126825127Y-53405917D01*
X126490202Y-53182127D01*
X126205373Y-52897298D01*
X125981583Y-52562373D01*
X125878299Y-52313022D01*
X125827434Y-52190224D01*
X125748850Y-51795156D01*
X125748850Y-51392344D01*
X125827434Y-50997276D01*
X125949188Y-50703336D01*
X125981583Y-50625127D01*
X126205373Y-50290202D01*
X126490202Y-50005373D01*
X126825127Y-49781583D01*
X126979276Y-49717733D01*
X127197276Y-49627434D01*
X127592344Y-49548850D01*
X127995156Y-49548850D01*
X128390224Y-49627434D01*
G37*
G36*
X33140224Y-49627434D02*
G01*
X33358224Y-49717733D01*
X33512373Y-49781583D01*
X33847298Y-50005373D01*
X34132127Y-50290202D01*
X34355917Y-50625127D01*
X34388312Y-50703336D01*
X34510066Y-50997276D01*
X34588650Y-51392344D01*
X34588650Y-51795156D01*
X34510066Y-52190224D01*
X34459201Y-52313022D01*
X34355917Y-52562373D01*
X34132127Y-52897298D01*
X33847298Y-53182127D01*
X33512373Y-53405917D01*
X33358224Y-53469767D01*
X33140224Y-53560066D01*
X32745156Y-53638650D01*
X32342344Y-53638650D01*
X31947276Y-53560066D01*
X31729276Y-53469767D01*
X31575127Y-53405917D01*
X31240202Y-53182127D01*
X30955373Y-52897298D01*
X30731583Y-52562373D01*
X30628299Y-52313022D01*
X30577434Y-52190224D01*
X30498850Y-51795156D01*
X30498850Y-51392344D01*
X30577434Y-50997276D01*
X30699188Y-50703336D01*
X30731583Y-50625127D01*
X30955373Y-50290202D01*
X31240202Y-50005373D01*
X31575127Y-49781583D01*
X31729276Y-49717733D01*
X31947276Y-49627434D01*
X32342344Y-49548850D01*
X32745156Y-49548850D01*
X33140224Y-49627434D01*
G37*
G36*
X52190224Y-49627434D02*
G01*
X52408224Y-49717733D01*
X52562373Y-49781583D01*
X52897298Y-50005373D01*
X53182127Y-50290202D01*
X53405917Y-50625127D01*
X53438312Y-50703336D01*
X53560066Y-50997276D01*
X53638650Y-51392344D01*
X53638650Y-51795156D01*
X53560066Y-52190224D01*
X53509201Y-52313022D01*
X53405917Y-52562373D01*
X53182127Y-52897298D01*
X52897298Y-53182127D01*
X52562373Y-53405917D01*
X52408224Y-53469767D01*
X52190224Y-53560066D01*
X51795156Y-53638650D01*
X51392344Y-53638650D01*
X50997276Y-53560066D01*
X50779276Y-53469767D01*
X50625127Y-53405917D01*
X50290202Y-53182127D01*
X50005373Y-52897298D01*
X49781583Y-52562373D01*
X49678299Y-52313022D01*
X49627434Y-52190224D01*
X49548850Y-51795156D01*
X49548850Y-51392344D01*
X49627434Y-50997276D01*
X49749188Y-50703336D01*
X49781583Y-50625127D01*
X50005373Y-50290202D01*
X50290202Y-50005373D01*
X50625127Y-49781583D01*
X50779276Y-49717733D01*
X50997276Y-49627434D01*
X51392344Y-49548850D01*
X51795156Y-49548850D01*
X52190224Y-49627434D01*
G37*
G36*
X71240224Y-49627434D02*
G01*
X71458224Y-49717733D01*
X71612373Y-49781583D01*
X71947298Y-50005373D01*
X72232127Y-50290202D01*
X72455917Y-50625127D01*
X72488312Y-50703336D01*
X72610066Y-50997276D01*
X72688650Y-51392344D01*
X72688650Y-51795156D01*
X72610066Y-52190224D01*
X72559201Y-52313022D01*
X72455917Y-52562373D01*
X72232127Y-52897298D01*
X71947298Y-53182127D01*
X71612373Y-53405917D01*
X71458224Y-53469767D01*
X71240224Y-53560066D01*
X70845156Y-53638650D01*
X70442344Y-53638650D01*
X70047276Y-53560066D01*
X69829276Y-53469767D01*
X69675127Y-53405917D01*
X69340202Y-53182127D01*
X69055373Y-52897298D01*
X68831583Y-52562373D01*
X68728299Y-52313022D01*
X68677434Y-52190224D01*
X68598850Y-51795156D01*
X68598850Y-51392344D01*
X68677434Y-50997276D01*
X68799188Y-50703336D01*
X68831583Y-50625127D01*
X69055373Y-50290202D01*
X69340202Y-50005373D01*
X69675127Y-49781583D01*
X69829276Y-49717733D01*
X70047276Y-49627434D01*
X70442344Y-49548850D01*
X70845156Y-49548850D01*
X71240224Y-49627434D01*
G37*
G36*
X90290224Y-49627434D02*
G01*
X90508224Y-49717733D01*
X90662373Y-49781583D01*
X90997298Y-50005373D01*
X91282127Y-50290202D01*
X91505917Y-50625127D01*
X91538312Y-50703336D01*
X91660066Y-50997276D01*
X91738650Y-51392344D01*
X91738650Y-51795156D01*
X91660066Y-52190224D01*
X91609201Y-52313022D01*
X91505917Y-52562373D01*
X91282127Y-52897298D01*
X90997298Y-53182127D01*
X90662373Y-53405917D01*
X90508224Y-53469767D01*
X90290224Y-53560066D01*
X89895156Y-53638650D01*
X89492344Y-53638650D01*
X89097276Y-53560066D01*
X88879276Y-53469767D01*
X88725127Y-53405917D01*
X88390202Y-53182127D01*
X88105373Y-52897298D01*
X87881583Y-52562373D01*
X87778299Y-52313022D01*
X87727434Y-52190224D01*
X87648850Y-51795156D01*
X87648850Y-51392344D01*
X87727434Y-50997276D01*
X87849188Y-50703336D01*
X87881583Y-50625127D01*
X88105373Y-50290202D01*
X88390202Y-50005373D01*
X88725127Y-49781583D01*
X88879276Y-49717733D01*
X89097276Y-49627434D01*
X89492344Y-49548850D01*
X89895156Y-49548850D01*
X90290224Y-49627434D01*
G37*
G36*
X114093854Y-50703335D02*
G01*
X114262376Y-50773139D01*
X114414041Y-50874478D01*
X114543022Y-51003459D01*
X114644361Y-51155124D01*
X114714165Y-51323646D01*
X114749750Y-51502547D01*
X114749750Y-51684953D01*
X114714165Y-51863854D01*
X114644361Y-52032376D01*
X114543022Y-52184041D01*
X114414041Y-52313022D01*
X114262376Y-52414361D01*
X114093854Y-52484165D01*
X113914953Y-52519750D01*
X113732547Y-52519750D01*
X113553646Y-52484165D01*
X113385124Y-52414361D01*
X113233459Y-52313022D01*
X113104478Y-52184041D01*
X113003139Y-52032376D01*
X112933335Y-51863854D01*
X112897750Y-51684953D01*
X112897750Y-51502547D01*
X112933335Y-51323646D01*
X113003139Y-51155124D01*
X113104478Y-51003459D01*
X113233459Y-50874478D01*
X113385124Y-50773139D01*
X113553646Y-50703335D01*
X113732547Y-50667750D01*
X113914953Y-50667750D01*
X114093854Y-50703335D01*
G37*
G36*
X122983854Y-50703335D02*
G01*
X123152376Y-50773139D01*
X123304041Y-50874478D01*
X123433022Y-51003459D01*
X123534361Y-51155124D01*
X123604165Y-51323646D01*
X123639750Y-51502547D01*
X123639750Y-51684953D01*
X123604165Y-51863854D01*
X123534361Y-52032376D01*
X123433022Y-52184041D01*
X123304041Y-52313022D01*
X123152376Y-52414361D01*
X122983854Y-52484165D01*
X122804953Y-52519750D01*
X122622547Y-52519750D01*
X122443646Y-52484165D01*
X122275124Y-52414361D01*
X122123459Y-52313022D01*
X121994478Y-52184041D01*
X121893139Y-52032376D01*
X121823335Y-51863854D01*
X121787750Y-51684953D01*
X121787750Y-51502547D01*
X121823335Y-51323646D01*
X121893139Y-51155124D01*
X121994478Y-51003459D01*
X122123459Y-50874478D01*
X122275124Y-50773139D01*
X122443646Y-50703335D01*
X122622547Y-50667750D01*
X122804953Y-50667750D01*
X122983854Y-50703335D01*
G37*
G36*
X84883854Y-50703335D02*
G01*
X85052376Y-50773139D01*
X85204041Y-50874478D01*
X85333022Y-51003459D01*
X85434361Y-51155124D01*
X85504165Y-51323646D01*
X85539750Y-51502547D01*
X85539750Y-51684953D01*
X85504165Y-51863854D01*
X85434361Y-52032376D01*
X85333022Y-52184041D01*
X85204041Y-52313022D01*
X85052376Y-52414361D01*
X84883854Y-52484165D01*
X84704953Y-52519750D01*
X84522547Y-52519750D01*
X84343646Y-52484165D01*
X84175124Y-52414361D01*
X84023459Y-52313022D01*
X83894478Y-52184041D01*
X83793139Y-52032376D01*
X83723335Y-51863854D01*
X83687750Y-51684953D01*
X83687750Y-51502547D01*
X83723335Y-51323646D01*
X83793139Y-51155124D01*
X83894478Y-51003459D01*
X84023459Y-50874478D01*
X84175124Y-50773139D01*
X84343646Y-50703335D01*
X84522547Y-50667750D01*
X84704953Y-50667750D01*
X84883854Y-50703335D01*
G37*
G36*
X95043854Y-50703335D02*
G01*
X95212376Y-50773139D01*
X95364041Y-50874478D01*
X95493022Y-51003459D01*
X95594361Y-51155124D01*
X95664165Y-51323646D01*
X95699750Y-51502547D01*
X95699750Y-51684953D01*
X95664165Y-51863854D01*
X95594361Y-52032376D01*
X95493022Y-52184041D01*
X95364041Y-52313022D01*
X95212376Y-52414361D01*
X95043854Y-52484165D01*
X94864953Y-52519750D01*
X94682547Y-52519750D01*
X94503646Y-52484165D01*
X94335124Y-52414361D01*
X94183459Y-52313022D01*
X94054478Y-52184041D01*
X93953139Y-52032376D01*
X93883335Y-51863854D01*
X93847750Y-51684953D01*
X93847750Y-51502547D01*
X93883335Y-51323646D01*
X93953139Y-51155124D01*
X94054478Y-51003459D01*
X94183459Y-50874478D01*
X94335124Y-50773139D01*
X94503646Y-50703335D01*
X94682547Y-50667750D01*
X94864953Y-50667750D01*
X95043854Y-50703335D01*
G37*
G36*
X133143854Y-50703335D02*
G01*
X133312376Y-50773139D01*
X133464041Y-50874478D01*
X133593022Y-51003459D01*
X133694361Y-51155124D01*
X133764165Y-51323646D01*
X133799750Y-51502547D01*
X133799750Y-51684953D01*
X133764165Y-51863854D01*
X133694361Y-52032376D01*
X133593022Y-52184041D01*
X133464041Y-52313022D01*
X133312376Y-52414361D01*
X133143854Y-52484165D01*
X132964953Y-52519750D01*
X132782547Y-52519750D01*
X132603646Y-52484165D01*
X132435124Y-52414361D01*
X132283459Y-52313022D01*
X132154478Y-52184041D01*
X132053139Y-52032376D01*
X131983335Y-51863854D01*
X131947750Y-51684953D01*
X131947750Y-51502547D01*
X131983335Y-51323646D01*
X132053139Y-51155124D01*
X132154478Y-51003459D01*
X132283459Y-50874478D01*
X132435124Y-50773139D01*
X132603646Y-50703335D01*
X132782547Y-50667750D01*
X132964953Y-50667750D01*
X133143854Y-50703335D01*
G37*
G36*
X65833854Y-50703335D02*
G01*
X66002376Y-50773139D01*
X66154041Y-50874478D01*
X66283022Y-51003459D01*
X66384361Y-51155124D01*
X66454165Y-51323646D01*
X66489750Y-51502547D01*
X66489750Y-51684953D01*
X66454165Y-51863854D01*
X66384361Y-52032376D01*
X66283022Y-52184041D01*
X66154041Y-52313022D01*
X66002376Y-52414361D01*
X65833854Y-52484165D01*
X65654953Y-52519750D01*
X65472547Y-52519750D01*
X65293646Y-52484165D01*
X65125124Y-52414361D01*
X64973459Y-52313022D01*
X64844478Y-52184041D01*
X64743139Y-52032376D01*
X64673335Y-51863854D01*
X64637750Y-51684953D01*
X64637750Y-51502547D01*
X64673335Y-51323646D01*
X64743139Y-51155124D01*
X64844478Y-51003459D01*
X64973459Y-50874478D01*
X65125124Y-50773139D01*
X65293646Y-50703335D01*
X65472547Y-50667750D01*
X65654953Y-50667750D01*
X65833854Y-50703335D01*
G37*
G36*
X37893854Y-50703335D02*
G01*
X38062376Y-50773139D01*
X38214041Y-50874478D01*
X38343022Y-51003459D01*
X38444361Y-51155124D01*
X38514165Y-51323646D01*
X38549750Y-51502547D01*
X38549750Y-51684953D01*
X38514165Y-51863854D01*
X38444361Y-52032376D01*
X38343022Y-52184041D01*
X38214041Y-52313022D01*
X38062376Y-52414361D01*
X37893854Y-52484165D01*
X37714953Y-52519750D01*
X37532547Y-52519750D01*
X37353646Y-52484165D01*
X37185124Y-52414361D01*
X37033459Y-52313022D01*
X36904478Y-52184041D01*
X36803139Y-52032376D01*
X36733335Y-51863854D01*
X36697750Y-51684953D01*
X36697750Y-51502547D01*
X36733335Y-51323646D01*
X36803139Y-51155124D01*
X36904478Y-51003459D01*
X37033459Y-50874478D01*
X37185124Y-50773139D01*
X37353646Y-50703335D01*
X37532547Y-50667750D01*
X37714953Y-50667750D01*
X37893854Y-50703335D01*
G37*
G36*
X27733854Y-50703335D02*
G01*
X27902376Y-50773139D01*
X28054041Y-50874478D01*
X28183022Y-51003459D01*
X28284361Y-51155124D01*
X28354165Y-51323646D01*
X28389750Y-51502547D01*
X28389750Y-51684953D01*
X28354165Y-51863854D01*
X28284361Y-52032376D01*
X28183022Y-52184041D01*
X28054041Y-52313022D01*
X27902376Y-52414361D01*
X27733854Y-52484165D01*
X27554953Y-52519750D01*
X27372547Y-52519750D01*
X27193646Y-52484165D01*
X27025124Y-52414361D01*
X26873459Y-52313022D01*
X26744478Y-52184041D01*
X26643139Y-52032376D01*
X26573335Y-51863854D01*
X26537750Y-51684953D01*
X26537750Y-51502547D01*
X26573335Y-51323646D01*
X26643139Y-51155124D01*
X26744478Y-51003459D01*
X26873459Y-50874478D01*
X27025124Y-50773139D01*
X27193646Y-50703335D01*
X27372547Y-50667750D01*
X27554953Y-50667750D01*
X27733854Y-50703335D01*
G37*
G36*
X56943854Y-50703335D02*
G01*
X57112376Y-50773139D01*
X57264041Y-50874478D01*
X57393022Y-51003459D01*
X57494361Y-51155124D01*
X57564165Y-51323646D01*
X57599750Y-51502547D01*
X57599750Y-51684953D01*
X57564165Y-51863854D01*
X57494361Y-52032376D01*
X57393022Y-52184041D01*
X57264041Y-52313022D01*
X57112376Y-52414361D01*
X56943854Y-52484165D01*
X56764953Y-52519750D01*
X56582547Y-52519750D01*
X56403646Y-52484165D01*
X56235124Y-52414361D01*
X56083459Y-52313022D01*
X55954478Y-52184041D01*
X55853139Y-52032376D01*
X55783335Y-51863854D01*
X55747750Y-51684953D01*
X55747750Y-51502547D01*
X55783335Y-51323646D01*
X55853139Y-51155124D01*
X55954478Y-51003459D01*
X56083459Y-50874478D01*
X56235124Y-50773139D01*
X56403646Y-50703335D01*
X56582547Y-50667750D01*
X56764953Y-50667750D01*
X56943854Y-50703335D01*
G37*
G36*
X46783854Y-50703335D02*
G01*
X46952376Y-50773139D01*
X47104041Y-50874478D01*
X47233022Y-51003459D01*
X47334361Y-51155124D01*
X47404165Y-51323646D01*
X47439750Y-51502547D01*
X47439750Y-51684953D01*
X47404165Y-51863854D01*
X47334361Y-52032376D01*
X47233022Y-52184041D01*
X47104041Y-52313022D01*
X46952376Y-52414361D01*
X46783854Y-52484165D01*
X46604953Y-52519750D01*
X46422547Y-52519750D01*
X46243646Y-52484165D01*
X46075124Y-52414361D01*
X45923459Y-52313022D01*
X45794478Y-52184041D01*
X45693139Y-52032376D01*
X45623335Y-51863854D01*
X45587750Y-51684953D01*
X45587750Y-51502547D01*
X45623335Y-51323646D01*
X45693139Y-51155124D01*
X45794478Y-51003459D01*
X45923459Y-50874478D01*
X46075124Y-50773139D01*
X46243646Y-50703335D01*
X46422547Y-50667750D01*
X46604953Y-50667750D01*
X46783854Y-50703335D01*
G37*
G36*
X103933854Y-50703335D02*
G01*
X104102376Y-50773139D01*
X104254041Y-50874478D01*
X104383022Y-51003459D01*
X104484361Y-51155124D01*
X104554165Y-51323646D01*
X104589750Y-51502547D01*
X104589750Y-51684953D01*
X104554165Y-51863854D01*
X104484361Y-52032376D01*
X104383022Y-52184041D01*
X104254041Y-52313022D01*
X104102376Y-52414361D01*
X103933854Y-52484165D01*
X103754953Y-52519750D01*
X103572547Y-52519750D01*
X103393646Y-52484165D01*
X103225124Y-52414361D01*
X103073459Y-52313022D01*
X102944478Y-52184041D01*
X102843139Y-52032376D01*
X102773335Y-51863854D01*
X102737750Y-51684953D01*
X102737750Y-51502547D01*
X102773335Y-51323646D01*
X102843139Y-51155124D01*
X102944478Y-51003459D01*
X103073459Y-50874478D01*
X103225124Y-50773139D01*
X103393646Y-50703335D01*
X103572547Y-50667750D01*
X103754953Y-50667750D01*
X103933854Y-50703335D01*
G37*
G36*
X75993854Y-50703335D02*
G01*
X76162376Y-50773139D01*
X76314041Y-50874478D01*
X76443022Y-51003459D01*
X76544361Y-51155124D01*
X76614165Y-51323646D01*
X76649750Y-51502547D01*
X76649750Y-51684953D01*
X76614165Y-51863854D01*
X76544361Y-52032376D01*
X76443022Y-52184041D01*
X76314041Y-52313022D01*
X76162376Y-52414361D01*
X75993854Y-52484165D01*
X75814953Y-52519750D01*
X75632547Y-52519750D01*
X75453646Y-52484165D01*
X75285124Y-52414361D01*
X75133459Y-52313022D01*
X75004478Y-52184041D01*
X74903139Y-52032376D01*
X74833335Y-51863854D01*
X74797750Y-51684953D01*
X74797750Y-51502547D01*
X74833335Y-51323646D01*
X74903139Y-51155124D01*
X75004478Y-51003459D01*
X75133459Y-50874478D01*
X75285124Y-50773139D01*
X75453646Y-50703335D01*
X75632547Y-50667750D01*
X75814953Y-50667750D01*
X75993854Y-50703335D01*
G37*
G36*
X147440224Y-30577434D02*
G01*
X147658224Y-30667733D01*
X147812373Y-30731583D01*
X148147298Y-30955373D01*
X148432127Y-31240202D01*
X148655917Y-31575127D01*
X148688312Y-31653336D01*
X148810066Y-31947276D01*
X148888650Y-32342344D01*
X148888650Y-32745156D01*
X148810066Y-33140224D01*
X148759201Y-33263022D01*
X148655917Y-33512373D01*
X148432127Y-33847298D01*
X148147298Y-34132127D01*
X147812373Y-34355917D01*
X147658224Y-34419767D01*
X147440224Y-34510066D01*
X147045156Y-34588650D01*
X146642344Y-34588650D01*
X146247276Y-34510066D01*
X146029276Y-34419767D01*
X145875127Y-34355917D01*
X145540202Y-34132127D01*
X145255373Y-33847298D01*
X145031583Y-33512373D01*
X144928299Y-33263022D01*
X144877434Y-33140224D01*
X144798850Y-32745156D01*
X144798850Y-32342344D01*
X144877434Y-31947276D01*
X144999188Y-31653336D01*
X145031583Y-31575127D01*
X145255373Y-31240202D01*
X145540202Y-30955373D01*
X145875127Y-30731583D01*
X146029276Y-30667733D01*
X146247276Y-30577434D01*
X146642344Y-30498850D01*
X147045156Y-30498850D01*
X147440224Y-30577434D01*
G37*
G36*
X109340224Y-30577434D02*
G01*
X109558224Y-30667733D01*
X109712373Y-30731583D01*
X110047298Y-30955373D01*
X110332127Y-31240202D01*
X110555917Y-31575127D01*
X110588312Y-31653336D01*
X110710066Y-31947276D01*
X110788650Y-32342344D01*
X110788650Y-32745156D01*
X110710066Y-33140224D01*
X110659201Y-33263022D01*
X110555917Y-33512373D01*
X110332127Y-33847298D01*
X110047298Y-34132127D01*
X109712373Y-34355917D01*
X109558224Y-34419767D01*
X109340224Y-34510066D01*
X108945156Y-34588650D01*
X108542344Y-34588650D01*
X108147276Y-34510066D01*
X107929276Y-34419767D01*
X107775127Y-34355917D01*
X107440202Y-34132127D01*
X107155373Y-33847298D01*
X106931583Y-33512373D01*
X106828299Y-33263022D01*
X106777434Y-33140224D01*
X106698850Y-32745156D01*
X106698850Y-32342344D01*
X106777434Y-31947276D01*
X106899188Y-31653336D01*
X106931583Y-31575127D01*
X107155373Y-31240202D01*
X107440202Y-30955373D01*
X107775127Y-30731583D01*
X107929276Y-30667733D01*
X108147276Y-30577434D01*
X108542344Y-30498850D01*
X108945156Y-30498850D01*
X109340224Y-30577434D01*
G37*
G36*
X90290224Y-30577434D02*
G01*
X90508224Y-30667733D01*
X90662373Y-30731583D01*
X90997298Y-30955373D01*
X91282127Y-31240202D01*
X91505917Y-31575127D01*
X91538312Y-31653336D01*
X91660066Y-31947276D01*
X91738650Y-32342344D01*
X91738650Y-32745156D01*
X91660066Y-33140224D01*
X91609201Y-33263022D01*
X91505917Y-33512373D01*
X91282127Y-33847298D01*
X90997298Y-34132127D01*
X90662373Y-34355917D01*
X90508224Y-34419767D01*
X90290224Y-34510066D01*
X89895156Y-34588650D01*
X89492344Y-34588650D01*
X89097276Y-34510066D01*
X88879276Y-34419767D01*
X88725127Y-34355917D01*
X88390202Y-34132127D01*
X88105373Y-33847298D01*
X87881583Y-33512373D01*
X87778299Y-33263022D01*
X87727434Y-33140224D01*
X87648850Y-32745156D01*
X87648850Y-32342344D01*
X87727434Y-31947276D01*
X87849188Y-31653336D01*
X87881583Y-31575127D01*
X88105373Y-31240202D01*
X88390202Y-30955373D01*
X88725127Y-30731583D01*
X88879276Y-30667733D01*
X89097276Y-30577434D01*
X89492344Y-30498850D01*
X89895156Y-30498850D01*
X90290224Y-30577434D01*
G37*
G36*
X71240224Y-30577434D02*
G01*
X71458224Y-30667733D01*
X71612373Y-30731583D01*
X71947298Y-30955373D01*
X72232127Y-31240202D01*
X72455917Y-31575127D01*
X72488312Y-31653336D01*
X72610066Y-31947276D01*
X72688650Y-32342344D01*
X72688650Y-32745156D01*
X72610066Y-33140224D01*
X72559201Y-33263022D01*
X72455917Y-33512373D01*
X72232127Y-33847298D01*
X71947298Y-34132127D01*
X71612373Y-34355917D01*
X71458224Y-34419767D01*
X71240224Y-34510066D01*
X70845156Y-34588650D01*
X70442344Y-34588650D01*
X70047276Y-34510066D01*
X69829276Y-34419767D01*
X69675127Y-34355917D01*
X69340202Y-34132127D01*
X69055373Y-33847298D01*
X68831583Y-33512373D01*
X68728299Y-33263022D01*
X68677434Y-33140224D01*
X68598850Y-32745156D01*
X68598850Y-32342344D01*
X68677434Y-31947276D01*
X68799188Y-31653336D01*
X68831583Y-31575127D01*
X69055373Y-31240202D01*
X69340202Y-30955373D01*
X69675127Y-30731583D01*
X69829276Y-30667733D01*
X70047276Y-30577434D01*
X70442344Y-30498850D01*
X70845156Y-30498850D01*
X71240224Y-30577434D01*
G37*
G36*
X52190224Y-30577434D02*
G01*
X52408224Y-30667733D01*
X52562373Y-30731583D01*
X52897298Y-30955373D01*
X53182127Y-31240202D01*
X53405917Y-31575127D01*
X53438312Y-31653336D01*
X53560066Y-31947276D01*
X53638650Y-32342344D01*
X53638650Y-32745156D01*
X53560066Y-33140224D01*
X53509201Y-33263022D01*
X53405917Y-33512373D01*
X53182127Y-33847298D01*
X52897298Y-34132127D01*
X52562373Y-34355917D01*
X52408224Y-34419767D01*
X52190224Y-34510066D01*
X51795156Y-34588650D01*
X51392344Y-34588650D01*
X50997276Y-34510066D01*
X50779276Y-34419767D01*
X50625127Y-34355917D01*
X50290202Y-34132127D01*
X50005373Y-33847298D01*
X49781583Y-33512373D01*
X49678299Y-33263022D01*
X49627434Y-33140224D01*
X49548850Y-32745156D01*
X49548850Y-32342344D01*
X49627434Y-31947276D01*
X49749188Y-31653336D01*
X49781583Y-31575127D01*
X50005373Y-31240202D01*
X50290202Y-30955373D01*
X50625127Y-30731583D01*
X50779276Y-30667733D01*
X50997276Y-30577434D01*
X51392344Y-30498850D01*
X51795156Y-30498850D01*
X52190224Y-30577434D01*
G37*
G36*
X33140224Y-30577434D02*
G01*
X33358224Y-30667733D01*
X33512373Y-30731583D01*
X33847298Y-30955373D01*
X34132127Y-31240202D01*
X34355917Y-31575127D01*
X34388312Y-31653336D01*
X34510066Y-31947276D01*
X34588650Y-32342344D01*
X34588650Y-32745156D01*
X34510066Y-33140224D01*
X34459201Y-33263022D01*
X34355917Y-33512373D01*
X34132127Y-33847298D01*
X33847298Y-34132127D01*
X33512373Y-34355917D01*
X33358224Y-34419767D01*
X33140224Y-34510066D01*
X32745156Y-34588650D01*
X32342344Y-34588650D01*
X31947276Y-34510066D01*
X31729276Y-34419767D01*
X31575127Y-34355917D01*
X31240202Y-34132127D01*
X30955373Y-33847298D01*
X30731583Y-33512373D01*
X30628299Y-33263022D01*
X30577434Y-33140224D01*
X30498850Y-32745156D01*
X30498850Y-32342344D01*
X30577434Y-31947276D01*
X30699188Y-31653336D01*
X30731583Y-31575127D01*
X30955373Y-31240202D01*
X31240202Y-30955373D01*
X31575127Y-30731583D01*
X31729276Y-30667733D01*
X31947276Y-30577434D01*
X32342344Y-30498850D01*
X32745156Y-30498850D01*
X33140224Y-30577434D01*
G37*
G36*
X128390224Y-30577434D02*
G01*
X128608224Y-30667733D01*
X128762373Y-30731583D01*
X129097298Y-30955373D01*
X129382127Y-31240202D01*
X129605917Y-31575127D01*
X129638312Y-31653336D01*
X129760066Y-31947276D01*
X129838650Y-32342344D01*
X129838650Y-32745156D01*
X129760066Y-33140224D01*
X129709201Y-33263022D01*
X129605917Y-33512373D01*
X129382127Y-33847298D01*
X129097298Y-34132127D01*
X128762373Y-34355917D01*
X128608224Y-34419767D01*
X128390224Y-34510066D01*
X127995156Y-34588650D01*
X127592344Y-34588650D01*
X127197276Y-34510066D01*
X126979276Y-34419767D01*
X126825127Y-34355917D01*
X126490202Y-34132127D01*
X126205373Y-33847298D01*
X125981583Y-33512373D01*
X125878299Y-33263022D01*
X125827434Y-33140224D01*
X125748850Y-32745156D01*
X125748850Y-32342344D01*
X125827434Y-31947276D01*
X125949188Y-31653336D01*
X125981583Y-31575127D01*
X126205373Y-31240202D01*
X126490202Y-30955373D01*
X126825127Y-30731583D01*
X126979276Y-30667733D01*
X127197276Y-30577434D01*
X127592344Y-30498850D01*
X127995156Y-30498850D01*
X128390224Y-30577434D01*
G37*
G36*
X37893854Y-31653335D02*
G01*
X38062376Y-31723139D01*
X38214041Y-31824478D01*
X38343022Y-31953459D01*
X38444361Y-32105124D01*
X38514165Y-32273646D01*
X38549750Y-32452547D01*
X38549750Y-32634953D01*
X38514165Y-32813854D01*
X38444361Y-32982376D01*
X38343022Y-33134041D01*
X38214041Y-33263022D01*
X38062376Y-33364361D01*
X37893854Y-33434165D01*
X37714953Y-33469750D01*
X37532547Y-33469750D01*
X37353646Y-33434165D01*
X37185124Y-33364361D01*
X37033459Y-33263022D01*
X36904478Y-33134041D01*
X36803139Y-32982376D01*
X36733335Y-32813854D01*
X36697750Y-32634953D01*
X36697750Y-32452547D01*
X36733335Y-32273646D01*
X36803139Y-32105124D01*
X36904478Y-31953459D01*
X37033459Y-31824478D01*
X37185124Y-31723139D01*
X37353646Y-31653335D01*
X37532547Y-31617750D01*
X37714953Y-31617750D01*
X37893854Y-31653335D01*
G37*
G36*
X133143854Y-31653335D02*
G01*
X133312376Y-31723139D01*
X133464041Y-31824478D01*
X133593022Y-31953459D01*
X133694361Y-32105124D01*
X133764165Y-32273646D01*
X133799750Y-32452547D01*
X133799750Y-32634953D01*
X133764165Y-32813854D01*
X133694361Y-32982376D01*
X133593022Y-33134041D01*
X133464041Y-33263022D01*
X133312376Y-33364361D01*
X133143854Y-33434165D01*
X132964953Y-33469750D01*
X132782547Y-33469750D01*
X132603646Y-33434165D01*
X132435124Y-33364361D01*
X132283459Y-33263022D01*
X132154478Y-33134041D01*
X132053139Y-32982376D01*
X131983335Y-32813854D01*
X131947750Y-32634953D01*
X131947750Y-32452547D01*
X131983335Y-32273646D01*
X132053139Y-32105124D01*
X132154478Y-31953459D01*
X132283459Y-31824478D01*
X132435124Y-31723139D01*
X132603646Y-31653335D01*
X132782547Y-31617750D01*
X132964953Y-31617750D01*
X133143854Y-31653335D01*
G37*
G36*
X56943854Y-31653335D02*
G01*
X57112376Y-31723139D01*
X57264041Y-31824478D01*
X57393022Y-31953459D01*
X57494361Y-32105124D01*
X57564165Y-32273646D01*
X57599750Y-32452547D01*
X57599750Y-32634953D01*
X57564165Y-32813854D01*
X57494361Y-32982376D01*
X57393022Y-33134041D01*
X57264041Y-33263022D01*
X57112376Y-33364361D01*
X56943854Y-33434165D01*
X56764953Y-33469750D01*
X56582547Y-33469750D01*
X56403646Y-33434165D01*
X56235124Y-33364361D01*
X56083459Y-33263022D01*
X55954478Y-33134041D01*
X55853139Y-32982376D01*
X55783335Y-32813854D01*
X55747750Y-32634953D01*
X55747750Y-32452547D01*
X55783335Y-32273646D01*
X55853139Y-32105124D01*
X55954478Y-31953459D01*
X56083459Y-31824478D01*
X56235124Y-31723139D01*
X56403646Y-31653335D01*
X56582547Y-31617750D01*
X56764953Y-31617750D01*
X56943854Y-31653335D01*
G37*
G36*
X46783854Y-31653335D02*
G01*
X46952376Y-31723139D01*
X47104041Y-31824478D01*
X47233022Y-31953459D01*
X47334361Y-32105124D01*
X47404165Y-32273646D01*
X47439750Y-32452547D01*
X47439750Y-32634953D01*
X47404165Y-32813854D01*
X47334361Y-32982376D01*
X47233022Y-33134041D01*
X47104041Y-33263022D01*
X46952376Y-33364361D01*
X46783854Y-33434165D01*
X46604953Y-33469750D01*
X46422547Y-33469750D01*
X46243646Y-33434165D01*
X46075124Y-33364361D01*
X45923459Y-33263022D01*
X45794478Y-33134041D01*
X45693139Y-32982376D01*
X45623335Y-32813854D01*
X45587750Y-32634953D01*
X45587750Y-32452547D01*
X45623335Y-32273646D01*
X45693139Y-32105124D01*
X45794478Y-31953459D01*
X45923459Y-31824478D01*
X46075124Y-31723139D01*
X46243646Y-31653335D01*
X46422547Y-31617750D01*
X46604953Y-31617750D01*
X46783854Y-31653335D01*
G37*
G36*
X75993854Y-31653335D02*
G01*
X76162376Y-31723139D01*
X76314041Y-31824478D01*
X76443022Y-31953459D01*
X76544361Y-32105124D01*
X76614165Y-32273646D01*
X76649750Y-32452547D01*
X76649750Y-32634953D01*
X76614165Y-32813854D01*
X76544361Y-32982376D01*
X76443022Y-33134041D01*
X76314041Y-33263022D01*
X76162376Y-33364361D01*
X75993854Y-33434165D01*
X75814953Y-33469750D01*
X75632547Y-33469750D01*
X75453646Y-33434165D01*
X75285124Y-33364361D01*
X75133459Y-33263022D01*
X75004478Y-33134041D01*
X74903139Y-32982376D01*
X74833335Y-32813854D01*
X74797750Y-32634953D01*
X74797750Y-32452547D01*
X74833335Y-32273646D01*
X74903139Y-32105124D01*
X75004478Y-31953459D01*
X75133459Y-31824478D01*
X75285124Y-31723139D01*
X75453646Y-31653335D01*
X75632547Y-31617750D01*
X75814953Y-31617750D01*
X75993854Y-31653335D01*
G37*
G36*
X65833854Y-31653335D02*
G01*
X66002376Y-31723139D01*
X66154041Y-31824478D01*
X66283022Y-31953459D01*
X66384361Y-32105124D01*
X66454165Y-32273646D01*
X66489750Y-32452547D01*
X66489750Y-32634953D01*
X66454165Y-32813854D01*
X66384361Y-32982376D01*
X66283022Y-33134041D01*
X66154041Y-33263022D01*
X66002376Y-33364361D01*
X65833854Y-33434165D01*
X65654953Y-33469750D01*
X65472547Y-33469750D01*
X65293646Y-33434165D01*
X65125124Y-33364361D01*
X64973459Y-33263022D01*
X64844478Y-33134041D01*
X64743139Y-32982376D01*
X64673335Y-32813854D01*
X64637750Y-32634953D01*
X64637750Y-32452547D01*
X64673335Y-32273646D01*
X64743139Y-32105124D01*
X64844478Y-31953459D01*
X64973459Y-31824478D01*
X65125124Y-31723139D01*
X65293646Y-31653335D01*
X65472547Y-31617750D01*
X65654953Y-31617750D01*
X65833854Y-31653335D01*
G37*
G36*
X27733854Y-31653335D02*
G01*
X27902376Y-31723139D01*
X28054041Y-31824478D01*
X28183022Y-31953459D01*
X28284361Y-32105124D01*
X28354165Y-32273646D01*
X28389750Y-32452547D01*
X28389750Y-32634953D01*
X28354165Y-32813854D01*
X28284361Y-32982376D01*
X28183022Y-33134041D01*
X28054041Y-33263022D01*
X27902376Y-33364361D01*
X27733854Y-33434165D01*
X27554953Y-33469750D01*
X27372547Y-33469750D01*
X27193646Y-33434165D01*
X27025124Y-33364361D01*
X26873459Y-33263022D01*
X26744478Y-33134041D01*
X26643139Y-32982376D01*
X26573335Y-32813854D01*
X26537750Y-32634953D01*
X26537750Y-32452547D01*
X26573335Y-32273646D01*
X26643139Y-32105124D01*
X26744478Y-31953459D01*
X26873459Y-31824478D01*
X27025124Y-31723139D01*
X27193646Y-31653335D01*
X27372547Y-31617750D01*
X27554953Y-31617750D01*
X27733854Y-31653335D01*
G37*
G36*
X152193854Y-31653335D02*
G01*
X152362376Y-31723139D01*
X152514041Y-31824478D01*
X152643022Y-31953459D01*
X152744361Y-32105124D01*
X152814165Y-32273646D01*
X152849750Y-32452547D01*
X152849750Y-32634953D01*
X152814165Y-32813854D01*
X152744361Y-32982376D01*
X152643022Y-33134041D01*
X152514041Y-33263022D01*
X152362376Y-33364361D01*
X152193854Y-33434165D01*
X152014953Y-33469750D01*
X151832547Y-33469750D01*
X151653646Y-33434165D01*
X151485124Y-33364361D01*
X151333459Y-33263022D01*
X151204478Y-33134041D01*
X151103139Y-32982376D01*
X151033335Y-32813854D01*
X150997750Y-32634953D01*
X150997750Y-32452547D01*
X151033335Y-32273646D01*
X151103139Y-32105124D01*
X151204478Y-31953459D01*
X151333459Y-31824478D01*
X151485124Y-31723139D01*
X151653646Y-31653335D01*
X151832547Y-31617750D01*
X152014953Y-31617750D01*
X152193854Y-31653335D01*
G37*
G36*
X142033854Y-31653335D02*
G01*
X142202376Y-31723139D01*
X142354041Y-31824478D01*
X142483022Y-31953459D01*
X142584361Y-32105124D01*
X142654165Y-32273646D01*
X142689750Y-32452547D01*
X142689750Y-32634953D01*
X142654165Y-32813854D01*
X142584361Y-32982376D01*
X142483022Y-33134041D01*
X142354041Y-33263022D01*
X142202376Y-33364361D01*
X142033854Y-33434165D01*
X141854953Y-33469750D01*
X141672547Y-33469750D01*
X141493646Y-33434165D01*
X141325124Y-33364361D01*
X141173459Y-33263022D01*
X141044478Y-33134041D01*
X140943139Y-32982376D01*
X140873335Y-32813854D01*
X140837750Y-32634953D01*
X140837750Y-32452547D01*
X140873335Y-32273646D01*
X140943139Y-32105124D01*
X141044478Y-31953459D01*
X141173459Y-31824478D01*
X141325124Y-31723139D01*
X141493646Y-31653335D01*
X141672547Y-31617750D01*
X141854953Y-31617750D01*
X142033854Y-31653335D01*
G37*
G36*
X122983854Y-31653335D02*
G01*
X123152376Y-31723139D01*
X123304041Y-31824478D01*
X123433022Y-31953459D01*
X123534361Y-32105124D01*
X123604165Y-32273646D01*
X123639750Y-32452547D01*
X123639750Y-32634953D01*
X123604165Y-32813854D01*
X123534361Y-32982376D01*
X123433022Y-33134041D01*
X123304041Y-33263022D01*
X123152376Y-33364361D01*
X122983854Y-33434165D01*
X122804953Y-33469750D01*
X122622547Y-33469750D01*
X122443646Y-33434165D01*
X122275124Y-33364361D01*
X122123459Y-33263022D01*
X121994478Y-33134041D01*
X121893139Y-32982376D01*
X121823335Y-32813854D01*
X121787750Y-32634953D01*
X121787750Y-32452547D01*
X121823335Y-32273646D01*
X121893139Y-32105124D01*
X121994478Y-31953459D01*
X122123459Y-31824478D01*
X122275124Y-31723139D01*
X122443646Y-31653335D01*
X122622547Y-31617750D01*
X122804953Y-31617750D01*
X122983854Y-31653335D01*
G37*
G36*
X114093854Y-31653335D02*
G01*
X114262376Y-31723139D01*
X114414041Y-31824478D01*
X114543022Y-31953459D01*
X114644361Y-32105124D01*
X114714165Y-32273646D01*
X114749750Y-32452547D01*
X114749750Y-32634953D01*
X114714165Y-32813854D01*
X114644361Y-32982376D01*
X114543022Y-33134041D01*
X114414041Y-33263022D01*
X114262376Y-33364361D01*
X114093854Y-33434165D01*
X113914953Y-33469750D01*
X113732547Y-33469750D01*
X113553646Y-33434165D01*
X113385124Y-33364361D01*
X113233459Y-33263022D01*
X113104478Y-33134041D01*
X113003139Y-32982376D01*
X112933335Y-32813854D01*
X112897750Y-32634953D01*
X112897750Y-32452547D01*
X112933335Y-32273646D01*
X113003139Y-32105124D01*
X113104478Y-31953459D01*
X113233459Y-31824478D01*
X113385124Y-31723139D01*
X113553646Y-31653335D01*
X113732547Y-31617750D01*
X113914953Y-31617750D01*
X114093854Y-31653335D01*
G37*
G36*
X103933854Y-31653335D02*
G01*
X104102376Y-31723139D01*
X104254041Y-31824478D01*
X104383022Y-31953459D01*
X104484361Y-32105124D01*
X104554165Y-32273646D01*
X104589750Y-32452547D01*
X104589750Y-32634953D01*
X104554165Y-32813854D01*
X104484361Y-32982376D01*
X104383022Y-33134041D01*
X104254041Y-33263022D01*
X104102376Y-33364361D01*
X103933854Y-33434165D01*
X103754953Y-33469750D01*
X103572547Y-33469750D01*
X103393646Y-33434165D01*
X103225124Y-33364361D01*
X103073459Y-33263022D01*
X102944478Y-33134041D01*
X102843139Y-32982376D01*
X102773335Y-32813854D01*
X102737750Y-32634953D01*
X102737750Y-32452547D01*
X102773335Y-32273646D01*
X102843139Y-32105124D01*
X102944478Y-31953459D01*
X103073459Y-31824478D01*
X103225124Y-31723139D01*
X103393646Y-31653335D01*
X103572547Y-31617750D01*
X103754953Y-31617750D01*
X103933854Y-31653335D01*
G37*
G36*
X95043854Y-31653335D02*
G01*
X95212376Y-31723139D01*
X95364041Y-31824478D01*
X95493022Y-31953459D01*
X95594361Y-32105124D01*
X95664165Y-32273646D01*
X95699750Y-32452547D01*
X95699750Y-32634953D01*
X95664165Y-32813854D01*
X95594361Y-32982376D01*
X95493022Y-33134041D01*
X95364041Y-33263022D01*
X95212376Y-33364361D01*
X95043854Y-33434165D01*
X94864953Y-33469750D01*
X94682547Y-33469750D01*
X94503646Y-33434165D01*
X94335124Y-33364361D01*
X94183459Y-33263022D01*
X94054478Y-33134041D01*
X93953139Y-32982376D01*
X93883335Y-32813854D01*
X93847750Y-32634953D01*
X93847750Y-32452547D01*
X93883335Y-32273646D01*
X93953139Y-32105124D01*
X94054478Y-31953459D01*
X94183459Y-31824478D01*
X94335124Y-31723139D01*
X94503646Y-31653335D01*
X94682547Y-31617750D01*
X94864953Y-31617750D01*
X95043854Y-31653335D01*
G37*
G36*
X84883854Y-31653335D02*
G01*
X85052376Y-31723139D01*
X85204041Y-31824478D01*
X85333022Y-31953459D01*
X85434361Y-32105124D01*
X85504165Y-32273646D01*
X85539750Y-32452547D01*
X85539750Y-32634953D01*
X85504165Y-32813854D01*
X85434361Y-32982376D01*
X85333022Y-33134041D01*
X85204041Y-33263022D01*
X85052376Y-33364361D01*
X84883854Y-33434165D01*
X84704953Y-33469750D01*
X84522547Y-33469750D01*
X84343646Y-33434165D01*
X84175124Y-33364361D01*
X84023459Y-33263022D01*
X83894478Y-33134041D01*
X83793139Y-32982376D01*
X83723335Y-32813854D01*
X83687750Y-32634953D01*
X83687750Y-32452547D01*
X83723335Y-32273646D01*
X83793139Y-32105124D01*
X83894478Y-31953459D01*
X84023459Y-31824478D01*
X84175124Y-31723139D01*
X84343646Y-31653335D01*
X84522547Y-31617750D01*
X84704953Y-31617750D01*
X84883854Y-31653335D01*
G37*
G36*
X85511567Y-17201446D02*
G01*
X85624854Y-17235812D01*
X85729261Y-17291619D01*
X85729263Y-17291620D01*
X85729262Y-17291620D01*
X85820777Y-17366723D01*
X85873691Y-17431200D01*
X85895881Y-17458238D01*
X85951688Y-17562645D01*
X85986054Y-17675932D01*
X85994750Y-17764231D01*
X85994750Y-18923269D01*
X85986054Y-19011568D01*
X85951688Y-19124855D01*
X85895881Y-19229262D01*
X85820777Y-19320777D01*
X85729262Y-19395881D01*
X85624855Y-19451688D01*
X85511568Y-19486054D01*
X85393750Y-19497657D01*
X85275933Y-19486054D01*
X85162646Y-19451688D01*
X85058239Y-19395881D01*
X84966724Y-19320777D01*
X84891620Y-19229262D01*
X84835813Y-19124855D01*
X84801447Y-19011568D01*
X84792751Y-18923269D01*
X84792750Y-17764232D01*
X84801446Y-17675933D01*
X84835812Y-17562646D01*
X84891619Y-17458239D01*
X84925668Y-17416750D01*
X84966723Y-17366723D01*
X85058237Y-17291620D01*
X85058236Y-17291620D01*
X85058238Y-17291619D01*
X85162645Y-17235812D01*
X85275932Y-17201446D01*
X85393750Y-17189843D01*
X85511567Y-17201446D01*
G37*
G36*
X94111567Y-17201446D02*
G01*
X94224854Y-17235812D01*
X94329261Y-17291619D01*
X94329263Y-17291620D01*
X94329262Y-17291620D01*
X94420777Y-17366723D01*
X94473691Y-17431200D01*
X94495881Y-17458238D01*
X94551688Y-17562645D01*
X94586054Y-17675932D01*
X94594750Y-17764231D01*
X94594750Y-18923269D01*
X94586054Y-19011568D01*
X94551688Y-19124855D01*
X94495881Y-19229262D01*
X94420777Y-19320777D01*
X94329262Y-19395881D01*
X94224855Y-19451688D01*
X94111568Y-19486054D01*
X93993750Y-19497657D01*
X93875933Y-19486054D01*
X93762646Y-19451688D01*
X93658239Y-19395881D01*
X93566724Y-19320777D01*
X93491620Y-19229262D01*
X93435813Y-19124855D01*
X93401447Y-19011568D01*
X93392751Y-18923269D01*
X93392750Y-17764232D01*
X93401446Y-17675933D01*
X93435812Y-17562646D01*
X93491619Y-17458239D01*
X93525668Y-17416750D01*
X93566723Y-17366723D01*
X93658237Y-17291620D01*
X93658236Y-17291620D01*
X93658238Y-17291619D01*
X93762645Y-17235812D01*
X93875932Y-17201446D01*
X93993750Y-17189843D01*
X94111567Y-17201446D01*
G37*
G36*
X86913422Y-17431199D02*
G01*
X86913424Y-17431200D01*
X86913425Y-17431200D01*
X86981853Y-17459543D01*
X87043436Y-17500692D01*
X87095808Y-17553064D01*
X87136957Y-17614647D01*
X87165300Y-17683075D01*
X87179750Y-17755717D01*
X87179750Y-17829783D01*
X87165300Y-17902425D01*
X87136957Y-17970853D01*
X87095808Y-18032436D01*
X87043436Y-18084808D01*
X86981853Y-18125957D01*
X86913425Y-18154300D01*
X86913424Y-18154300D01*
X86913422Y-18154301D01*
X86840784Y-18168750D01*
X86766716Y-18168750D01*
X86694078Y-18154301D01*
X86694076Y-18154300D01*
X86694075Y-18154300D01*
X86625647Y-18125957D01*
X86564064Y-18084808D01*
X86511692Y-18032436D01*
X86470543Y-17970853D01*
X86442200Y-17902425D01*
X86427750Y-17829783D01*
X86427750Y-17755717D01*
X86442200Y-17683075D01*
X86470543Y-17614647D01*
X86511692Y-17553064D01*
X86564064Y-17500692D01*
X86625647Y-17459543D01*
X86694075Y-17431200D01*
X86694076Y-17431200D01*
X86694078Y-17431199D01*
X86766716Y-17416750D01*
X86840784Y-17416750D01*
X86913422Y-17431199D01*
G37*
G36*
X92693422Y-17431199D02*
G01*
X92693424Y-17431200D01*
X92693425Y-17431200D01*
X92761853Y-17459543D01*
X92823436Y-17500692D01*
X92875808Y-17553064D01*
X92916957Y-17614647D01*
X92945300Y-17683075D01*
X92959750Y-17755717D01*
X92959750Y-17829783D01*
X92945300Y-17902425D01*
X92916957Y-17970853D01*
X92875808Y-18032436D01*
X92823436Y-18084808D01*
X92761853Y-18125957D01*
X92693425Y-18154300D01*
X92693424Y-18154300D01*
X92693422Y-18154301D01*
X92620784Y-18168750D01*
X92546716Y-18168750D01*
X92474078Y-18154301D01*
X92474076Y-18154300D01*
X92474075Y-18154300D01*
X92405647Y-18125957D01*
X92344064Y-18084808D01*
X92291692Y-18032436D01*
X92250543Y-17970853D01*
X92222200Y-17902425D01*
X92207750Y-17829783D01*
X92207750Y-17755717D01*
X92222200Y-17683075D01*
X92250543Y-17614647D01*
X92291692Y-17553064D01*
X92344064Y-17500692D01*
X92405647Y-17459543D01*
X92474075Y-17431200D01*
X92474076Y-17431200D01*
X92474078Y-17431199D01*
X92546716Y-17416750D01*
X92620784Y-17416750D01*
X92693422Y-17431199D01*
G37*
G36*
X85531170Y-13152893D02*
G01*
X85663306Y-13192977D01*
X85663308Y-13192978D01*
X85785088Y-13258070D01*
X85785090Y-13258071D01*
X85785089Y-13258071D01*
X85891830Y-13345670D01*
X85966110Y-13436180D01*
X85979430Y-13452411D01*
X86044522Y-13574191D01*
X86044523Y-13574193D01*
X86084607Y-13706329D01*
X86094750Y-13809318D01*
X86094750Y-14478182D01*
X86084607Y-14581171D01*
X86044523Y-14713307D01*
X86044522Y-14713309D01*
X85979430Y-14835089D01*
X85891830Y-14941830D01*
X85785089Y-15029430D01*
X85663309Y-15094522D01*
X85663307Y-15094523D01*
X85531171Y-15134607D01*
X85393750Y-15148141D01*
X85256330Y-15134607D01*
X85124194Y-15094523D01*
X85124192Y-15094522D01*
X85002412Y-15029430D01*
X84895671Y-14941830D01*
X84808071Y-14835089D01*
X84742978Y-14713309D01*
X84742977Y-14713308D01*
X84702893Y-14581171D01*
X84692750Y-14478182D01*
X84692750Y-13809319D01*
X84702893Y-13706330D01*
X84742977Y-13574194D01*
X84808071Y-13452411D01*
X84895670Y-13345670D01*
X85002410Y-13258071D01*
X85002409Y-13258071D01*
X85002411Y-13258070D01*
X85124191Y-13192978D01*
X85124193Y-13192977D01*
X85256329Y-13152893D01*
X85393750Y-13139359D01*
X85531170Y-13152893D01*
G37*
G36*
X94131170Y-13152893D02*
G01*
X94263306Y-13192977D01*
X94263308Y-13192978D01*
X94385088Y-13258070D01*
X94385090Y-13258071D01*
X94385089Y-13258071D01*
X94491830Y-13345670D01*
X94566110Y-13436180D01*
X94579430Y-13452411D01*
X94644522Y-13574191D01*
X94644523Y-13574193D01*
X94684607Y-13706329D01*
X94694750Y-13809318D01*
X94694750Y-14478182D01*
X94684607Y-14581171D01*
X94644523Y-14713307D01*
X94644522Y-14713309D01*
X94579430Y-14835089D01*
X94491830Y-14941830D01*
X94385089Y-15029430D01*
X94263309Y-15094522D01*
X94263307Y-15094523D01*
X94131171Y-15134607D01*
X93993750Y-15148141D01*
X93856330Y-15134607D01*
X93724194Y-15094523D01*
X93724192Y-15094522D01*
X93602412Y-15029430D01*
X93495671Y-14941830D01*
X93408071Y-14835089D01*
X93342978Y-14713309D01*
X93342977Y-14713308D01*
X93302893Y-14581171D01*
X93292750Y-14478182D01*
X93292750Y-13809319D01*
X93302893Y-13706330D01*
X93342977Y-13574194D01*
X93408071Y-13452411D01*
X93495670Y-13345670D01*
X93602410Y-13258071D01*
X93602409Y-13258071D01*
X93602411Y-13258070D01*
X93724191Y-13192978D01*
X93724193Y-13192977D01*
X93856329Y-13152893D01*
X93993750Y-13139359D01*
X94131170Y-13152893D01*
G37*
M02*
