M48
; DRILL file {KiCad (5.1.5-0-10_14)} date 2020 July 10, Friday 20:48:02
; FORMAT={-:-/ absolute / inch / decimal}
; #@! TF.CreationDate,2020-07-10T20:48:02+02:00
; #@! TF.GenerationSoftware,Kicad,Pcbnew,(5.1.5-0-10_14)
; #@! TF.FileFunction,Plated,1,2,PTH
FMAT,2
INCH
T1C0.0157
T2C0.0236
T3C0.0394
T4C0.0579
T5C0.0787
%
G90
G05
T1
X0.6Y1.06
X1.35Y1.0886
X1.9688Y1.25
X1.9688Y0.5625
X2.1Y1.1172
X2.85Y1.1459
X3.285Y4.2011
X3.285Y4.105
X3.4688Y2.7188
X3.5Y2.75
X3.6019Y1.2431
X3.6987Y2.6562
X4.355Y1.8286
X4.445Y2.36
X4.5938Y2.8125
X4.75Y2.6562
X4.7812Y1.9375
X4.84Y3.865
X4.875Y3.1562
X4.875Y2.75
X4.875Y2.7106
X4.9564Y2.9764
X5.015Y3.31
X5.015Y2.56
X5.2962Y1.9036
X5.3438Y1.875
X5.5Y2.56
X5.615Y4.22
X5.755Y3.05
X5.79Y4.01
X5.825Y2.97
X5.86Y2.94
X5.89Y2.905
X5.92Y2.875
X5.95Y2.845
X5.98Y2.81
T3
X4.9604Y2.3531
X4.9604Y2.1562
X5.5312Y2.3531
X5.5312Y2.2547
X5.5312Y2.1562
T4
X4.35Y3.85
X4.6Y3.95
X0.6Y1.6
X0.85Y1.7
X1.35Y3.85
X1.6Y3.95
X2.85Y1.6
X3.1Y1.7
X2.1Y1.6
X2.35Y1.7
X3.6Y3.85
X3.85Y3.95
X1.35Y0.85
X1.6Y0.95
X0.6Y3.85
X0.85Y3.95
X1.35Y2.35
X1.6Y2.45
X0.6Y3.1
X0.85Y3.2
X2.85Y3.1
X3.1Y3.2
X2.85Y2.35
X3.1Y2.45
X3.6Y2.35
X3.85Y2.45
X1.35Y1.6
X1.6Y1.7
X2.85Y3.85
X3.1Y3.95
X0.6Y2.35
X0.85Y2.45
X5.1Y3.85
X5.35Y3.95
X2.1Y3.1
X2.35Y3.2
X0.6Y0.85
X0.85Y0.95
X2.1Y0.85
X2.35Y0.95
X2.1Y3.85
X2.35Y3.95
X4.35Y3.1
X4.6Y3.2
X2.1Y2.35
X2.35Y2.45
X1.35Y3.1
X1.6Y3.2
X3.6Y3.1
X3.85Y3.2
T2
G00X2.8299Y4.4839
M15
G01X2.8299Y4.4524
M16
G05
G00X2.8299Y4.3257
M15
G01X2.8299Y4.2824
M16
G05
G00X3.1701Y4.4839
M15
G01X3.1701Y4.4524
M16
G05
G00X3.1701Y4.3257
M15
G01X3.1701Y4.2824
M16
G05
T5
G00X5.2458Y2.4751
M15
G01X5.2261Y2.4751
M16
G05
G00X5.2458Y2.0342
M15
G01X5.2261Y2.0342
M16
G05
T0
M30
