G04 #@! TF.GenerationSoftware,KiCad,Pcbnew,(5.1.5-0-10_14)*
G04 #@! TF.CreationDate,2020-07-10T20:47:26+02:00*
G04 #@! TF.ProjectId,Trigon,54726967-6f6e-42e6-9b69-6361645f7063,rev?*
G04 #@! TF.SameCoordinates,Original*
G04 #@! TF.FileFunction,Paste,Bot*
G04 #@! TF.FilePolarity,Positive*
%FSLAX46Y46*%
G04 Gerber Fmt 4.6, Leading zero omitted, Abs format (unit mm)*
G04 Created by KiCad (PCBNEW (5.1.5-0-10_14)) date 2020-07-10 20:47:26*
%MOMM*%
%LPD*%
G04 APERTURE LIST*
%ADD10R,1.400000X1.200000*%
%ADD11R,0.550000X1.500000*%
%ADD12R,1.500000X0.550000*%
%ADD13R,1.800000X1.100000*%
%ADD14C,0.100000*%
%ADD15R,0.600000X1.160000*%
%ADD16R,0.300000X1.160000*%
%ADD17R,1.200000X0.900000*%
G04 APERTURE END LIST*
D10*
X135866667Y83776326D03*
X133666667Y83776326D03*
X133666667Y85476326D03*
X135866667Y85476326D03*
D11*
X129350000Y68118750D03*
X130150000Y68118750D03*
X130950000Y68118750D03*
X131750000Y68118750D03*
X132550000Y68118750D03*
X133350000Y68118750D03*
X134150000Y68118750D03*
X134950000Y68118750D03*
X135750000Y68118750D03*
X136550000Y68118750D03*
X137350000Y68118750D03*
D12*
X139050000Y69818750D03*
X139050000Y70618750D03*
X139050000Y71418750D03*
X139050000Y72218750D03*
X139050000Y73018750D03*
X139050000Y73818750D03*
X139050000Y74618750D03*
X139050000Y75418750D03*
X139050000Y76218750D03*
X139050000Y77018750D03*
X139050000Y77818750D03*
D11*
X137350000Y79518750D03*
X136550000Y79518750D03*
X135750000Y79518750D03*
X134950000Y79518750D03*
X134150000Y79518750D03*
X133350000Y79518750D03*
X132550000Y79518750D03*
X131750000Y79518750D03*
X130950000Y79518750D03*
X130150000Y79518750D03*
X129350000Y79518750D03*
D12*
X127650000Y77818750D03*
X127650000Y77018750D03*
X127650000Y76218750D03*
X127650000Y75418750D03*
X127650000Y74618750D03*
X127650000Y73818750D03*
X127650000Y73018750D03*
X127650000Y72218750D03*
X127650000Y71418750D03*
X127650000Y70618750D03*
X127650000Y69818750D03*
D13*
X130250000Y112181250D03*
X136450000Y108481250D03*
X130250000Y108481250D03*
X136450000Y112181250D03*
D14*
G36*
X144148892Y68382826D02*
G01*
X144172553Y68379316D01*
X144195757Y68373504D01*
X144218279Y68365446D01*
X144239903Y68355218D01*
X144260420Y68342921D01*
X144279633Y68328671D01*
X144297357Y68312607D01*
X144313421Y68294883D01*
X144327671Y68275670D01*
X144339968Y68255153D01*
X144350196Y68233529D01*
X144358254Y68211007D01*
X144364066Y68187803D01*
X144367576Y68164142D01*
X144368750Y68140250D01*
X144368750Y67652750D01*
X144367576Y67628858D01*
X144364066Y67605197D01*
X144358254Y67581993D01*
X144350196Y67559471D01*
X144339968Y67537847D01*
X144327671Y67517330D01*
X144313421Y67498117D01*
X144297357Y67480393D01*
X144279633Y67464329D01*
X144260420Y67450079D01*
X144239903Y67437782D01*
X144218279Y67427554D01*
X144195757Y67419496D01*
X144172553Y67413684D01*
X144148892Y67410174D01*
X144125000Y67409000D01*
X143212500Y67409000D01*
X143188608Y67410174D01*
X143164947Y67413684D01*
X143141743Y67419496D01*
X143119221Y67427554D01*
X143097597Y67437782D01*
X143077080Y67450079D01*
X143057867Y67464329D01*
X143040143Y67480393D01*
X143024079Y67498117D01*
X143009829Y67517330D01*
X142997532Y67537847D01*
X142987304Y67559471D01*
X142979246Y67581993D01*
X142973434Y67605197D01*
X142969924Y67628858D01*
X142968750Y67652750D01*
X142968750Y68140250D01*
X142969924Y68164142D01*
X142973434Y68187803D01*
X142979246Y68211007D01*
X142987304Y68233529D01*
X142997532Y68255153D01*
X143009829Y68275670D01*
X143024079Y68294883D01*
X143040143Y68312607D01*
X143057867Y68328671D01*
X143077080Y68342921D01*
X143097597Y68355218D01*
X143119221Y68365446D01*
X143141743Y68373504D01*
X143164947Y68379316D01*
X143188608Y68382826D01*
X143212500Y68384000D01*
X144125000Y68384000D01*
X144148892Y68382826D01*
G37*
G36*
X144148892Y70257826D02*
G01*
X144172553Y70254316D01*
X144195757Y70248504D01*
X144218279Y70240446D01*
X144239903Y70230218D01*
X144260420Y70217921D01*
X144279633Y70203671D01*
X144297357Y70187607D01*
X144313421Y70169883D01*
X144327671Y70150670D01*
X144339968Y70130153D01*
X144350196Y70108529D01*
X144358254Y70086007D01*
X144364066Y70062803D01*
X144367576Y70039142D01*
X144368750Y70015250D01*
X144368750Y69527750D01*
X144367576Y69503858D01*
X144364066Y69480197D01*
X144358254Y69456993D01*
X144350196Y69434471D01*
X144339968Y69412847D01*
X144327671Y69392330D01*
X144313421Y69373117D01*
X144297357Y69355393D01*
X144279633Y69339329D01*
X144260420Y69325079D01*
X144239903Y69312782D01*
X144218279Y69302554D01*
X144195757Y69294496D01*
X144172553Y69288684D01*
X144148892Y69285174D01*
X144125000Y69284000D01*
X143212500Y69284000D01*
X143188608Y69285174D01*
X143164947Y69288684D01*
X143141743Y69294496D01*
X143119221Y69302554D01*
X143097597Y69312782D01*
X143077080Y69325079D01*
X143057867Y69339329D01*
X143040143Y69355393D01*
X143024079Y69373117D01*
X143009829Y69392330D01*
X142997532Y69412847D01*
X142987304Y69434471D01*
X142979246Y69456993D01*
X142973434Y69480197D01*
X142969924Y69503858D01*
X142968750Y69527750D01*
X142968750Y70015250D01*
X142969924Y70039142D01*
X142973434Y70062803D01*
X142979246Y70086007D01*
X142987304Y70108529D01*
X142997532Y70130153D01*
X143009829Y70150670D01*
X143024079Y70169883D01*
X143040143Y70187607D01*
X143057867Y70203671D01*
X143077080Y70217921D01*
X143097597Y70230218D01*
X143119221Y70240446D01*
X143141743Y70248504D01*
X143164947Y70254316D01*
X143188608Y70257826D01*
X143212500Y70259000D01*
X144125000Y70259000D01*
X144148892Y70257826D01*
G37*
G36*
X80737142Y104965826D02*
G01*
X80760803Y104962316D01*
X80784007Y104956504D01*
X80806529Y104948446D01*
X80828153Y104938218D01*
X80848670Y104925921D01*
X80867883Y104911671D01*
X80885607Y104895607D01*
X80901671Y104877883D01*
X80915921Y104858670D01*
X80928218Y104838153D01*
X80938446Y104816529D01*
X80946504Y104794007D01*
X80952316Y104770803D01*
X80955826Y104747142D01*
X80957000Y104723250D01*
X80957000Y103810750D01*
X80955826Y103786858D01*
X80952316Y103763197D01*
X80946504Y103739993D01*
X80938446Y103717471D01*
X80928218Y103695847D01*
X80915921Y103675330D01*
X80901671Y103656117D01*
X80885607Y103638393D01*
X80867883Y103622329D01*
X80848670Y103608079D01*
X80828153Y103595782D01*
X80806529Y103585554D01*
X80784007Y103577496D01*
X80760803Y103571684D01*
X80737142Y103568174D01*
X80713250Y103567000D01*
X80225750Y103567000D01*
X80201858Y103568174D01*
X80178197Y103571684D01*
X80154993Y103577496D01*
X80132471Y103585554D01*
X80110847Y103595782D01*
X80090330Y103608079D01*
X80071117Y103622329D01*
X80053393Y103638393D01*
X80037329Y103656117D01*
X80023079Y103675330D01*
X80010782Y103695847D01*
X80000554Y103717471D01*
X79992496Y103739993D01*
X79986684Y103763197D01*
X79983174Y103786858D01*
X79982000Y103810750D01*
X79982000Y104723250D01*
X79983174Y104747142D01*
X79986684Y104770803D01*
X79992496Y104794007D01*
X80000554Y104816529D01*
X80010782Y104838153D01*
X80023079Y104858670D01*
X80037329Y104877883D01*
X80053393Y104895607D01*
X80071117Y104911671D01*
X80090330Y104925921D01*
X80110847Y104938218D01*
X80132471Y104948446D01*
X80154993Y104956504D01*
X80178197Y104962316D01*
X80201858Y104965826D01*
X80225750Y104967000D01*
X80713250Y104967000D01*
X80737142Y104965826D01*
G37*
G36*
X82612142Y104965826D02*
G01*
X82635803Y104962316D01*
X82659007Y104956504D01*
X82681529Y104948446D01*
X82703153Y104938218D01*
X82723670Y104925921D01*
X82742883Y104911671D01*
X82760607Y104895607D01*
X82776671Y104877883D01*
X82790921Y104858670D01*
X82803218Y104838153D01*
X82813446Y104816529D01*
X82821504Y104794007D01*
X82827316Y104770803D01*
X82830826Y104747142D01*
X82832000Y104723250D01*
X82832000Y103810750D01*
X82830826Y103786858D01*
X82827316Y103763197D01*
X82821504Y103739993D01*
X82813446Y103717471D01*
X82803218Y103695847D01*
X82790921Y103675330D01*
X82776671Y103656117D01*
X82760607Y103638393D01*
X82742883Y103622329D01*
X82723670Y103608079D01*
X82703153Y103595782D01*
X82681529Y103585554D01*
X82659007Y103577496D01*
X82635803Y103571684D01*
X82612142Y103568174D01*
X82588250Y103567000D01*
X82100750Y103567000D01*
X82076858Y103568174D01*
X82053197Y103571684D01*
X82029993Y103577496D01*
X82007471Y103585554D01*
X81985847Y103595782D01*
X81965330Y103608079D01*
X81946117Y103622329D01*
X81928393Y103638393D01*
X81912329Y103656117D01*
X81898079Y103675330D01*
X81885782Y103695847D01*
X81875554Y103717471D01*
X81867496Y103739993D01*
X81861684Y103763197D01*
X81858174Y103786858D01*
X81857000Y103810750D01*
X81857000Y104723250D01*
X81858174Y104747142D01*
X81861684Y104770803D01*
X81867496Y104794007D01*
X81875554Y104816529D01*
X81885782Y104838153D01*
X81898079Y104858670D01*
X81912329Y104877883D01*
X81928393Y104895607D01*
X81946117Y104911671D01*
X81965330Y104925921D01*
X81985847Y104938218D01*
X82007471Y104948446D01*
X82029993Y104956504D01*
X82053197Y104962316D01*
X82076858Y104965826D01*
X82100750Y104967000D01*
X82588250Y104967000D01*
X82612142Y104965826D01*
G37*
G36*
X71848892Y102298826D02*
G01*
X71872553Y102295316D01*
X71895757Y102289504D01*
X71918279Y102281446D01*
X71939903Y102271218D01*
X71960420Y102258921D01*
X71979633Y102244671D01*
X71997357Y102228607D01*
X72013421Y102210883D01*
X72027671Y102191670D01*
X72039968Y102171153D01*
X72050196Y102149529D01*
X72058254Y102127007D01*
X72064066Y102103803D01*
X72067576Y102080142D01*
X72068750Y102056250D01*
X72068750Y101143750D01*
X72067576Y101119858D01*
X72064066Y101096197D01*
X72058254Y101072993D01*
X72050196Y101050471D01*
X72039968Y101028847D01*
X72027671Y101008330D01*
X72013421Y100989117D01*
X71997357Y100971393D01*
X71979633Y100955329D01*
X71960420Y100941079D01*
X71939903Y100928782D01*
X71918279Y100918554D01*
X71895757Y100910496D01*
X71872553Y100904684D01*
X71848892Y100901174D01*
X71825000Y100900000D01*
X71337500Y100900000D01*
X71313608Y100901174D01*
X71289947Y100904684D01*
X71266743Y100910496D01*
X71244221Y100918554D01*
X71222597Y100928782D01*
X71202080Y100941079D01*
X71182867Y100955329D01*
X71165143Y100971393D01*
X71149079Y100989117D01*
X71134829Y101008330D01*
X71122532Y101028847D01*
X71112304Y101050471D01*
X71104246Y101072993D01*
X71098434Y101096197D01*
X71094924Y101119858D01*
X71093750Y101143750D01*
X71093750Y102056250D01*
X71094924Y102080142D01*
X71098434Y102103803D01*
X71104246Y102127007D01*
X71112304Y102149529D01*
X71122532Y102171153D01*
X71134829Y102191670D01*
X71149079Y102210883D01*
X71165143Y102228607D01*
X71182867Y102244671D01*
X71202080Y102258921D01*
X71222597Y102271218D01*
X71244221Y102281446D01*
X71266743Y102289504D01*
X71289947Y102295316D01*
X71313608Y102298826D01*
X71337500Y102300000D01*
X71825000Y102300000D01*
X71848892Y102298826D01*
G37*
G36*
X69973892Y102298826D02*
G01*
X69997553Y102295316D01*
X70020757Y102289504D01*
X70043279Y102281446D01*
X70064903Y102271218D01*
X70085420Y102258921D01*
X70104633Y102244671D01*
X70122357Y102228607D01*
X70138421Y102210883D01*
X70152671Y102191670D01*
X70164968Y102171153D01*
X70175196Y102149529D01*
X70183254Y102127007D01*
X70189066Y102103803D01*
X70192576Y102080142D01*
X70193750Y102056250D01*
X70193750Y101143750D01*
X70192576Y101119858D01*
X70189066Y101096197D01*
X70183254Y101072993D01*
X70175196Y101050471D01*
X70164968Y101028847D01*
X70152671Y101008330D01*
X70138421Y100989117D01*
X70122357Y100971393D01*
X70104633Y100955329D01*
X70085420Y100941079D01*
X70064903Y100928782D01*
X70043279Y100918554D01*
X70020757Y100910496D01*
X69997553Y100904684D01*
X69973892Y100901174D01*
X69950000Y100900000D01*
X69462500Y100900000D01*
X69438608Y100901174D01*
X69414947Y100904684D01*
X69391743Y100910496D01*
X69369221Y100918554D01*
X69347597Y100928782D01*
X69327080Y100941079D01*
X69307867Y100955329D01*
X69290143Y100971393D01*
X69274079Y100989117D01*
X69259829Y101008330D01*
X69247532Y101028847D01*
X69237304Y101050471D01*
X69229246Y101072993D01*
X69223434Y101096197D01*
X69219924Y101119858D01*
X69218750Y101143750D01*
X69218750Y102056250D01*
X69219924Y102080142D01*
X69223434Y102103803D01*
X69229246Y102127007D01*
X69237304Y102149529D01*
X69247532Y102171153D01*
X69259829Y102191670D01*
X69274079Y102210883D01*
X69290143Y102228607D01*
X69307867Y102244671D01*
X69327080Y102258921D01*
X69347597Y102271218D01*
X69369221Y102281446D01*
X69391743Y102289504D01*
X69414947Y102295316D01*
X69438608Y102298826D01*
X69462500Y102300000D01*
X69950000Y102300000D01*
X69973892Y102298826D01*
G37*
G36*
X126241892Y85021576D02*
G01*
X126265553Y85018066D01*
X126288757Y85012254D01*
X126311279Y85004196D01*
X126332903Y84993968D01*
X126353420Y84981671D01*
X126372633Y84967421D01*
X126390357Y84951357D01*
X126406421Y84933633D01*
X126420671Y84914420D01*
X126432968Y84893903D01*
X126443196Y84872279D01*
X126451254Y84849757D01*
X126457066Y84826553D01*
X126460576Y84802892D01*
X126461750Y84779000D01*
X126461750Y84291500D01*
X126460576Y84267608D01*
X126457066Y84243947D01*
X126451254Y84220743D01*
X126443196Y84198221D01*
X126432968Y84176597D01*
X126420671Y84156080D01*
X126406421Y84136867D01*
X126390357Y84119143D01*
X126372633Y84103079D01*
X126353420Y84088829D01*
X126332903Y84076532D01*
X126311279Y84066304D01*
X126288757Y84058246D01*
X126265553Y84052434D01*
X126241892Y84048924D01*
X126218000Y84047750D01*
X125305500Y84047750D01*
X125281608Y84048924D01*
X125257947Y84052434D01*
X125234743Y84058246D01*
X125212221Y84066304D01*
X125190597Y84076532D01*
X125170080Y84088829D01*
X125150867Y84103079D01*
X125133143Y84119143D01*
X125117079Y84136867D01*
X125102829Y84156080D01*
X125090532Y84176597D01*
X125080304Y84198221D01*
X125072246Y84220743D01*
X125066434Y84243947D01*
X125062924Y84267608D01*
X125061750Y84291500D01*
X125061750Y84779000D01*
X125062924Y84802892D01*
X125066434Y84826553D01*
X125072246Y84849757D01*
X125080304Y84872279D01*
X125090532Y84893903D01*
X125102829Y84914420D01*
X125117079Y84933633D01*
X125133143Y84951357D01*
X125150867Y84967421D01*
X125170080Y84981671D01*
X125190597Y84993968D01*
X125212221Y85004196D01*
X125234743Y85012254D01*
X125257947Y85018066D01*
X125281608Y85021576D01*
X125305500Y85022750D01*
X126218000Y85022750D01*
X126241892Y85021576D01*
G37*
G36*
X126241892Y83146576D02*
G01*
X126265553Y83143066D01*
X126288757Y83137254D01*
X126311279Y83129196D01*
X126332903Y83118968D01*
X126353420Y83106671D01*
X126372633Y83092421D01*
X126390357Y83076357D01*
X126406421Y83058633D01*
X126420671Y83039420D01*
X126432968Y83018903D01*
X126443196Y82997279D01*
X126451254Y82974757D01*
X126457066Y82951553D01*
X126460576Y82927892D01*
X126461750Y82904000D01*
X126461750Y82416500D01*
X126460576Y82392608D01*
X126457066Y82368947D01*
X126451254Y82345743D01*
X126443196Y82323221D01*
X126432968Y82301597D01*
X126420671Y82281080D01*
X126406421Y82261867D01*
X126390357Y82244143D01*
X126372633Y82228079D01*
X126353420Y82213829D01*
X126332903Y82201532D01*
X126311279Y82191304D01*
X126288757Y82183246D01*
X126265553Y82177434D01*
X126241892Y82173924D01*
X126218000Y82172750D01*
X125305500Y82172750D01*
X125281608Y82173924D01*
X125257947Y82177434D01*
X125234743Y82183246D01*
X125212221Y82191304D01*
X125190597Y82201532D01*
X125170080Y82213829D01*
X125150867Y82228079D01*
X125133143Y82244143D01*
X125117079Y82261867D01*
X125102829Y82281080D01*
X125090532Y82301597D01*
X125080304Y82323221D01*
X125072246Y82345743D01*
X125066434Y82368947D01*
X125062924Y82392608D01*
X125061750Y82416500D01*
X125061750Y82904000D01*
X125062924Y82927892D01*
X125066434Y82951553D01*
X125072246Y82974757D01*
X125080304Y82997279D01*
X125090532Y83018903D01*
X125102829Y83039420D01*
X125117079Y83058633D01*
X125133143Y83076357D01*
X125150867Y83092421D01*
X125170080Y83106671D01*
X125190597Y83118968D01*
X125212221Y83129196D01*
X125234743Y83137254D01*
X125257947Y83143066D01*
X125281608Y83146576D01*
X125305500Y83147750D01*
X126218000Y83147750D01*
X126241892Y83146576D01*
G37*
G36*
X85220892Y96672076D02*
G01*
X85244553Y96668566D01*
X85267757Y96662754D01*
X85290279Y96654696D01*
X85311903Y96644468D01*
X85332420Y96632171D01*
X85351633Y96617921D01*
X85369357Y96601857D01*
X85385421Y96584133D01*
X85399671Y96564920D01*
X85411968Y96544403D01*
X85422196Y96522779D01*
X85430254Y96500257D01*
X85436066Y96477053D01*
X85439576Y96453392D01*
X85440750Y96429500D01*
X85440750Y95942000D01*
X85439576Y95918108D01*
X85436066Y95894447D01*
X85430254Y95871243D01*
X85422196Y95848721D01*
X85411968Y95827097D01*
X85399671Y95806580D01*
X85385421Y95787367D01*
X85369357Y95769643D01*
X85351633Y95753579D01*
X85332420Y95739329D01*
X85311903Y95727032D01*
X85290279Y95716804D01*
X85267757Y95708746D01*
X85244553Y95702934D01*
X85220892Y95699424D01*
X85197000Y95698250D01*
X84284500Y95698250D01*
X84260608Y95699424D01*
X84236947Y95702934D01*
X84213743Y95708746D01*
X84191221Y95716804D01*
X84169597Y95727032D01*
X84149080Y95739329D01*
X84129867Y95753579D01*
X84112143Y95769643D01*
X84096079Y95787367D01*
X84081829Y95806580D01*
X84069532Y95827097D01*
X84059304Y95848721D01*
X84051246Y95871243D01*
X84045434Y95894447D01*
X84041924Y95918108D01*
X84040750Y95942000D01*
X84040750Y96429500D01*
X84041924Y96453392D01*
X84045434Y96477053D01*
X84051246Y96500257D01*
X84059304Y96522779D01*
X84069532Y96544403D01*
X84081829Y96564920D01*
X84096079Y96584133D01*
X84112143Y96601857D01*
X84129867Y96617921D01*
X84149080Y96632171D01*
X84169597Y96644468D01*
X84191221Y96654696D01*
X84213743Y96662754D01*
X84236947Y96668566D01*
X84260608Y96672076D01*
X84284500Y96673250D01*
X85197000Y96673250D01*
X85220892Y96672076D01*
G37*
G36*
X85220892Y98547076D02*
G01*
X85244553Y98543566D01*
X85267757Y98537754D01*
X85290279Y98529696D01*
X85311903Y98519468D01*
X85332420Y98507171D01*
X85351633Y98492921D01*
X85369357Y98476857D01*
X85385421Y98459133D01*
X85399671Y98439920D01*
X85411968Y98419403D01*
X85422196Y98397779D01*
X85430254Y98375257D01*
X85436066Y98352053D01*
X85439576Y98328392D01*
X85440750Y98304500D01*
X85440750Y97817000D01*
X85439576Y97793108D01*
X85436066Y97769447D01*
X85430254Y97746243D01*
X85422196Y97723721D01*
X85411968Y97702097D01*
X85399671Y97681580D01*
X85385421Y97662367D01*
X85369357Y97644643D01*
X85351633Y97628579D01*
X85332420Y97614329D01*
X85311903Y97602032D01*
X85290279Y97591804D01*
X85267757Y97583746D01*
X85244553Y97577934D01*
X85220892Y97574424D01*
X85197000Y97573250D01*
X84284500Y97573250D01*
X84260608Y97574424D01*
X84236947Y97577934D01*
X84213743Y97583746D01*
X84191221Y97591804D01*
X84169597Y97602032D01*
X84149080Y97614329D01*
X84129867Y97628579D01*
X84112143Y97644643D01*
X84096079Y97662367D01*
X84081829Y97681580D01*
X84069532Y97702097D01*
X84059304Y97723721D01*
X84051246Y97746243D01*
X84045434Y97769447D01*
X84041924Y97793108D01*
X84040750Y97817000D01*
X84040750Y98304500D01*
X84041924Y98328392D01*
X84045434Y98352053D01*
X84051246Y98375257D01*
X84059304Y98397779D01*
X84069532Y98419403D01*
X84081829Y98439920D01*
X84096079Y98459133D01*
X84112143Y98476857D01*
X84129867Y98492921D01*
X84149080Y98507171D01*
X84169597Y98519468D01*
X84191221Y98529696D01*
X84213743Y98537754D01*
X84236947Y98543566D01*
X84260608Y98547076D01*
X84284500Y98548250D01*
X85197000Y98548250D01*
X85220892Y98547076D01*
G37*
G36*
X87252892Y96672076D02*
G01*
X87276553Y96668566D01*
X87299757Y96662754D01*
X87322279Y96654696D01*
X87343903Y96644468D01*
X87364420Y96632171D01*
X87383633Y96617921D01*
X87401357Y96601857D01*
X87417421Y96584133D01*
X87431671Y96564920D01*
X87443968Y96544403D01*
X87454196Y96522779D01*
X87462254Y96500257D01*
X87468066Y96477053D01*
X87471576Y96453392D01*
X87472750Y96429500D01*
X87472750Y95942000D01*
X87471576Y95918108D01*
X87468066Y95894447D01*
X87462254Y95871243D01*
X87454196Y95848721D01*
X87443968Y95827097D01*
X87431671Y95806580D01*
X87417421Y95787367D01*
X87401357Y95769643D01*
X87383633Y95753579D01*
X87364420Y95739329D01*
X87343903Y95727032D01*
X87322279Y95716804D01*
X87299757Y95708746D01*
X87276553Y95702934D01*
X87252892Y95699424D01*
X87229000Y95698250D01*
X86316500Y95698250D01*
X86292608Y95699424D01*
X86268947Y95702934D01*
X86245743Y95708746D01*
X86223221Y95716804D01*
X86201597Y95727032D01*
X86181080Y95739329D01*
X86161867Y95753579D01*
X86144143Y95769643D01*
X86128079Y95787367D01*
X86113829Y95806580D01*
X86101532Y95827097D01*
X86091304Y95848721D01*
X86083246Y95871243D01*
X86077434Y95894447D01*
X86073924Y95918108D01*
X86072750Y95942000D01*
X86072750Y96429500D01*
X86073924Y96453392D01*
X86077434Y96477053D01*
X86083246Y96500257D01*
X86091304Y96522779D01*
X86101532Y96544403D01*
X86113829Y96564920D01*
X86128079Y96584133D01*
X86144143Y96601857D01*
X86161867Y96617921D01*
X86181080Y96632171D01*
X86201597Y96644468D01*
X86223221Y96654696D01*
X86245743Y96662754D01*
X86268947Y96668566D01*
X86292608Y96672076D01*
X86316500Y96673250D01*
X87229000Y96673250D01*
X87252892Y96672076D01*
G37*
G36*
X87252892Y98547076D02*
G01*
X87276553Y98543566D01*
X87299757Y98537754D01*
X87322279Y98529696D01*
X87343903Y98519468D01*
X87364420Y98507171D01*
X87383633Y98492921D01*
X87401357Y98476857D01*
X87417421Y98459133D01*
X87431671Y98439920D01*
X87443968Y98419403D01*
X87454196Y98397779D01*
X87462254Y98375257D01*
X87468066Y98352053D01*
X87471576Y98328392D01*
X87472750Y98304500D01*
X87472750Y97817000D01*
X87471576Y97793108D01*
X87468066Y97769447D01*
X87462254Y97746243D01*
X87454196Y97723721D01*
X87443968Y97702097D01*
X87431671Y97681580D01*
X87417421Y97662367D01*
X87401357Y97644643D01*
X87383633Y97628579D01*
X87364420Y97614329D01*
X87343903Y97602032D01*
X87322279Y97591804D01*
X87299757Y97583746D01*
X87276553Y97577934D01*
X87252892Y97574424D01*
X87229000Y97573250D01*
X86316500Y97573250D01*
X86292608Y97574424D01*
X86268947Y97577934D01*
X86245743Y97583746D01*
X86223221Y97591804D01*
X86201597Y97602032D01*
X86181080Y97614329D01*
X86161867Y97628579D01*
X86144143Y97644643D01*
X86128079Y97662367D01*
X86113829Y97681580D01*
X86101532Y97702097D01*
X86091304Y97723721D01*
X86083246Y97746243D01*
X86077434Y97769447D01*
X86073924Y97793108D01*
X86072750Y97817000D01*
X86072750Y98304500D01*
X86073924Y98328392D01*
X86077434Y98352053D01*
X86083246Y98375257D01*
X86091304Y98397779D01*
X86101532Y98419403D01*
X86113829Y98439920D01*
X86128079Y98459133D01*
X86144143Y98476857D01*
X86161867Y98492921D01*
X86181080Y98507171D01*
X86201597Y98519468D01*
X86223221Y98529696D01*
X86245743Y98537754D01*
X86268947Y98543566D01*
X86292608Y98547076D01*
X86316500Y98548250D01*
X87229000Y98548250D01*
X87252892Y98547076D01*
G37*
D15*
X79400000Y108742000D03*
X78600000Y108742000D03*
X79400000Y108742000D03*
X78600000Y108742000D03*
X73000000Y108742000D03*
X73000000Y108742000D03*
X73800000Y108742000D03*
X73800000Y108742000D03*
D16*
X77950000Y108742000D03*
X76950000Y108742000D03*
X77450000Y108742000D03*
X74950000Y108742000D03*
X74450000Y108742000D03*
X76450000Y108742000D03*
X75950000Y108742000D03*
X75450000Y108742000D03*
D14*
G36*
X85994504Y106791796D02*
G01*
X86018773Y106788196D01*
X86042571Y106782235D01*
X86065671Y106773970D01*
X86087849Y106763480D01*
X86108893Y106750867D01*
X86128598Y106736253D01*
X86146777Y106719777D01*
X86163253Y106701598D01*
X86177867Y106681893D01*
X86190480Y106660849D01*
X86200970Y106638671D01*
X86209235Y106615571D01*
X86215196Y106591773D01*
X86218796Y106567504D01*
X86220000Y106543000D01*
X86220000Y105293000D01*
X86218796Y105268496D01*
X86215196Y105244227D01*
X86209235Y105220429D01*
X86200970Y105197329D01*
X86190480Y105175151D01*
X86177867Y105154107D01*
X86163253Y105134402D01*
X86146777Y105116223D01*
X86128598Y105099747D01*
X86108893Y105085133D01*
X86087849Y105072520D01*
X86065671Y105062030D01*
X86042571Y105053765D01*
X86018773Y105047804D01*
X85994504Y105044204D01*
X85970000Y105043000D01*
X85220000Y105043000D01*
X85195496Y105044204D01*
X85171227Y105047804D01*
X85147429Y105053765D01*
X85124329Y105062030D01*
X85102151Y105072520D01*
X85081107Y105085133D01*
X85061402Y105099747D01*
X85043223Y105116223D01*
X85026747Y105134402D01*
X85012133Y105154107D01*
X84999520Y105175151D01*
X84989030Y105197329D01*
X84980765Y105220429D01*
X84974804Y105244227D01*
X84971204Y105268496D01*
X84970000Y105293000D01*
X84970000Y106543000D01*
X84971204Y106567504D01*
X84974804Y106591773D01*
X84980765Y106615571D01*
X84989030Y106638671D01*
X84999520Y106660849D01*
X85012133Y106681893D01*
X85026747Y106701598D01*
X85043223Y106719777D01*
X85061402Y106736253D01*
X85081107Y106750867D01*
X85102151Y106763480D01*
X85124329Y106773970D01*
X85147429Y106782235D01*
X85171227Y106788196D01*
X85195496Y106791796D01*
X85220000Y106793000D01*
X85970000Y106793000D01*
X85994504Y106791796D01*
G37*
G36*
X88794504Y106791796D02*
G01*
X88818773Y106788196D01*
X88842571Y106782235D01*
X88865671Y106773970D01*
X88887849Y106763480D01*
X88908893Y106750867D01*
X88928598Y106736253D01*
X88946777Y106719777D01*
X88963253Y106701598D01*
X88977867Y106681893D01*
X88990480Y106660849D01*
X89000970Y106638671D01*
X89009235Y106615571D01*
X89015196Y106591773D01*
X89018796Y106567504D01*
X89020000Y106543000D01*
X89020000Y105293000D01*
X89018796Y105268496D01*
X89015196Y105244227D01*
X89009235Y105220429D01*
X89000970Y105197329D01*
X88990480Y105175151D01*
X88977867Y105154107D01*
X88963253Y105134402D01*
X88946777Y105116223D01*
X88928598Y105099747D01*
X88908893Y105085133D01*
X88887849Y105072520D01*
X88865671Y105062030D01*
X88842571Y105053765D01*
X88818773Y105047804D01*
X88794504Y105044204D01*
X88770000Y105043000D01*
X88020000Y105043000D01*
X87995496Y105044204D01*
X87971227Y105047804D01*
X87947429Y105053765D01*
X87924329Y105062030D01*
X87902151Y105072520D01*
X87881107Y105085133D01*
X87861402Y105099747D01*
X87843223Y105116223D01*
X87826747Y105134402D01*
X87812133Y105154107D01*
X87799520Y105175151D01*
X87789030Y105197329D01*
X87780765Y105220429D01*
X87774804Y105244227D01*
X87771204Y105268496D01*
X87770000Y105293000D01*
X87770000Y106543000D01*
X87771204Y106567504D01*
X87774804Y106591773D01*
X87780765Y106615571D01*
X87789030Y106638671D01*
X87799520Y106660849D01*
X87812133Y106681893D01*
X87826747Y106701598D01*
X87843223Y106719777D01*
X87861402Y106736253D01*
X87881107Y106750867D01*
X87902151Y106763480D01*
X87924329Y106773970D01*
X87947429Y106782235D01*
X87971227Y106788196D01*
X87995496Y106791796D01*
X88020000Y106793000D01*
X88770000Y106793000D01*
X88794504Y106791796D01*
G37*
D17*
X123825000Y67531250D03*
X123825000Y64231250D03*
D14*
G36*
X129416892Y83146576D02*
G01*
X129440553Y83143066D01*
X129463757Y83137254D01*
X129486279Y83129196D01*
X129507903Y83118968D01*
X129528420Y83106671D01*
X129547633Y83092421D01*
X129565357Y83076357D01*
X129581421Y83058633D01*
X129595671Y83039420D01*
X129607968Y83018903D01*
X129618196Y82997279D01*
X129626254Y82974757D01*
X129632066Y82951553D01*
X129635576Y82927892D01*
X129636750Y82904000D01*
X129636750Y82416500D01*
X129635576Y82392608D01*
X129632066Y82368947D01*
X129626254Y82345743D01*
X129618196Y82323221D01*
X129607968Y82301597D01*
X129595671Y82281080D01*
X129581421Y82261867D01*
X129565357Y82244143D01*
X129547633Y82228079D01*
X129528420Y82213829D01*
X129507903Y82201532D01*
X129486279Y82191304D01*
X129463757Y82183246D01*
X129440553Y82177434D01*
X129416892Y82173924D01*
X129393000Y82172750D01*
X128480500Y82172750D01*
X128456608Y82173924D01*
X128432947Y82177434D01*
X128409743Y82183246D01*
X128387221Y82191304D01*
X128365597Y82201532D01*
X128345080Y82213829D01*
X128325867Y82228079D01*
X128308143Y82244143D01*
X128292079Y82261867D01*
X128277829Y82281080D01*
X128265532Y82301597D01*
X128255304Y82323221D01*
X128247246Y82345743D01*
X128241434Y82368947D01*
X128237924Y82392608D01*
X128236750Y82416500D01*
X128236750Y82904000D01*
X128237924Y82927892D01*
X128241434Y82951553D01*
X128247246Y82974757D01*
X128255304Y82997279D01*
X128265532Y83018903D01*
X128277829Y83039420D01*
X128292079Y83058633D01*
X128308143Y83076357D01*
X128325867Y83092421D01*
X128345080Y83106671D01*
X128365597Y83118968D01*
X128387221Y83129196D01*
X128409743Y83137254D01*
X128432947Y83143066D01*
X128456608Y83146576D01*
X128480500Y83147750D01*
X129393000Y83147750D01*
X129416892Y83146576D01*
G37*
G36*
X129416892Y85021576D02*
G01*
X129440553Y85018066D01*
X129463757Y85012254D01*
X129486279Y85004196D01*
X129507903Y84993968D01*
X129528420Y84981671D01*
X129547633Y84967421D01*
X129565357Y84951357D01*
X129581421Y84933633D01*
X129595671Y84914420D01*
X129607968Y84893903D01*
X129618196Y84872279D01*
X129626254Y84849757D01*
X129632066Y84826553D01*
X129635576Y84802892D01*
X129636750Y84779000D01*
X129636750Y84291500D01*
X129635576Y84267608D01*
X129632066Y84243947D01*
X129626254Y84220743D01*
X129618196Y84198221D01*
X129607968Y84176597D01*
X129595671Y84156080D01*
X129581421Y84136867D01*
X129565357Y84119143D01*
X129547633Y84103079D01*
X129528420Y84088829D01*
X129507903Y84076532D01*
X129486279Y84066304D01*
X129463757Y84058246D01*
X129440553Y84052434D01*
X129416892Y84048924D01*
X129393000Y84047750D01*
X128480500Y84047750D01*
X128456608Y84048924D01*
X128432947Y84052434D01*
X128409743Y84058246D01*
X128387221Y84066304D01*
X128365597Y84076532D01*
X128345080Y84088829D01*
X128325867Y84103079D01*
X128308143Y84119143D01*
X128292079Y84136867D01*
X128277829Y84156080D01*
X128265532Y84176597D01*
X128255304Y84198221D01*
X128247246Y84220743D01*
X128241434Y84243947D01*
X128237924Y84267608D01*
X128236750Y84291500D01*
X128236750Y84779000D01*
X128237924Y84802892D01*
X128241434Y84826553D01*
X128247246Y84849757D01*
X128255304Y84872279D01*
X128265532Y84893903D01*
X128277829Y84914420D01*
X128292079Y84933633D01*
X128308143Y84951357D01*
X128325867Y84967421D01*
X128345080Y84981671D01*
X128365597Y84993968D01*
X128387221Y85004196D01*
X128409743Y85012254D01*
X128432947Y85018066D01*
X128456608Y85021576D01*
X128480500Y85022750D01*
X129393000Y85022750D01*
X129416892Y85021576D01*
G37*
G36*
X138523892Y65786326D02*
G01*
X138547553Y65782816D01*
X138570757Y65777004D01*
X138593279Y65768946D01*
X138614903Y65758718D01*
X138635420Y65746421D01*
X138654633Y65732171D01*
X138672357Y65716107D01*
X138688421Y65698383D01*
X138702671Y65679170D01*
X138714968Y65658653D01*
X138725196Y65637029D01*
X138733254Y65614507D01*
X138739066Y65591303D01*
X138742576Y65567642D01*
X138743750Y65543750D01*
X138743750Y64631250D01*
X138742576Y64607358D01*
X138739066Y64583697D01*
X138733254Y64560493D01*
X138725196Y64537971D01*
X138714968Y64516347D01*
X138702671Y64495830D01*
X138688421Y64476617D01*
X138672357Y64458893D01*
X138654633Y64442829D01*
X138635420Y64428579D01*
X138614903Y64416282D01*
X138593279Y64406054D01*
X138570757Y64397996D01*
X138547553Y64392184D01*
X138523892Y64388674D01*
X138500000Y64387500D01*
X138012500Y64387500D01*
X137988608Y64388674D01*
X137964947Y64392184D01*
X137941743Y64397996D01*
X137919221Y64406054D01*
X137897597Y64416282D01*
X137877080Y64428579D01*
X137857867Y64442829D01*
X137840143Y64458893D01*
X137824079Y64476617D01*
X137809829Y64495830D01*
X137797532Y64516347D01*
X137787304Y64537971D01*
X137779246Y64560493D01*
X137773434Y64583697D01*
X137769924Y64607358D01*
X137768750Y64631250D01*
X137768750Y65543750D01*
X137769924Y65567642D01*
X137773434Y65591303D01*
X137779246Y65614507D01*
X137787304Y65637029D01*
X137797532Y65658653D01*
X137809829Y65679170D01*
X137824079Y65698383D01*
X137840143Y65716107D01*
X137857867Y65732171D01*
X137877080Y65746421D01*
X137897597Y65758718D01*
X137919221Y65768946D01*
X137941743Y65777004D01*
X137964947Y65782816D01*
X137988608Y65786326D01*
X138012500Y65787500D01*
X138500000Y65787500D01*
X138523892Y65786326D01*
G37*
G36*
X136648892Y65786326D02*
G01*
X136672553Y65782816D01*
X136695757Y65777004D01*
X136718279Y65768946D01*
X136739903Y65758718D01*
X136760420Y65746421D01*
X136779633Y65732171D01*
X136797357Y65716107D01*
X136813421Y65698383D01*
X136827671Y65679170D01*
X136839968Y65658653D01*
X136850196Y65637029D01*
X136858254Y65614507D01*
X136864066Y65591303D01*
X136867576Y65567642D01*
X136868750Y65543750D01*
X136868750Y64631250D01*
X136867576Y64607358D01*
X136864066Y64583697D01*
X136858254Y64560493D01*
X136850196Y64537971D01*
X136839968Y64516347D01*
X136827671Y64495830D01*
X136813421Y64476617D01*
X136797357Y64458893D01*
X136779633Y64442829D01*
X136760420Y64428579D01*
X136739903Y64416282D01*
X136718279Y64406054D01*
X136695757Y64397996D01*
X136672553Y64392184D01*
X136648892Y64388674D01*
X136625000Y64387500D01*
X136137500Y64387500D01*
X136113608Y64388674D01*
X136089947Y64392184D01*
X136066743Y64397996D01*
X136044221Y64406054D01*
X136022597Y64416282D01*
X136002080Y64428579D01*
X135982867Y64442829D01*
X135965143Y64458893D01*
X135949079Y64476617D01*
X135934829Y64495830D01*
X135922532Y64516347D01*
X135912304Y64537971D01*
X135904246Y64560493D01*
X135898434Y64583697D01*
X135894924Y64607358D01*
X135893750Y64631250D01*
X135893750Y65543750D01*
X135894924Y65567642D01*
X135898434Y65591303D01*
X135904246Y65614507D01*
X135912304Y65637029D01*
X135922532Y65658653D01*
X135934829Y65679170D01*
X135949079Y65698383D01*
X135965143Y65716107D01*
X135982867Y65732171D01*
X136002080Y65746421D01*
X136022597Y65758718D01*
X136044221Y65768946D01*
X136066743Y65777004D01*
X136089947Y65782816D01*
X136113608Y65786326D01*
X136137500Y65787500D01*
X136625000Y65787500D01*
X136648892Y65786326D01*
G37*
G36*
X144148892Y78130076D02*
G01*
X144172553Y78126566D01*
X144195757Y78120754D01*
X144218279Y78112696D01*
X144239903Y78102468D01*
X144260420Y78090171D01*
X144279633Y78075921D01*
X144297357Y78059857D01*
X144313421Y78042133D01*
X144327671Y78022920D01*
X144339968Y78002403D01*
X144350196Y77980779D01*
X144358254Y77958257D01*
X144364066Y77935053D01*
X144367576Y77911392D01*
X144368750Y77887500D01*
X144368750Y77400000D01*
X144367576Y77376108D01*
X144364066Y77352447D01*
X144358254Y77329243D01*
X144350196Y77306721D01*
X144339968Y77285097D01*
X144327671Y77264580D01*
X144313421Y77245367D01*
X144297357Y77227643D01*
X144279633Y77211579D01*
X144260420Y77197329D01*
X144239903Y77185032D01*
X144218279Y77174804D01*
X144195757Y77166746D01*
X144172553Y77160934D01*
X144148892Y77157424D01*
X144125000Y77156250D01*
X143212500Y77156250D01*
X143188608Y77157424D01*
X143164947Y77160934D01*
X143141743Y77166746D01*
X143119221Y77174804D01*
X143097597Y77185032D01*
X143077080Y77197329D01*
X143057867Y77211579D01*
X143040143Y77227643D01*
X143024079Y77245367D01*
X143009829Y77264580D01*
X142997532Y77285097D01*
X142987304Y77306721D01*
X142979246Y77329243D01*
X142973434Y77352447D01*
X142969924Y77376108D01*
X142968750Y77400000D01*
X142968750Y77887500D01*
X142969924Y77911392D01*
X142973434Y77935053D01*
X142979246Y77958257D01*
X142987304Y77980779D01*
X142997532Y78002403D01*
X143009829Y78022920D01*
X143024079Y78042133D01*
X143040143Y78059857D01*
X143057867Y78075921D01*
X143077080Y78090171D01*
X143097597Y78102468D01*
X143119221Y78112696D01*
X143141743Y78120754D01*
X143164947Y78126566D01*
X143188608Y78130076D01*
X143212500Y78131250D01*
X144125000Y78131250D01*
X144148892Y78130076D01*
G37*
G36*
X144148892Y80005076D02*
G01*
X144172553Y80001566D01*
X144195757Y79995754D01*
X144218279Y79987696D01*
X144239903Y79977468D01*
X144260420Y79965171D01*
X144279633Y79950921D01*
X144297357Y79934857D01*
X144313421Y79917133D01*
X144327671Y79897920D01*
X144339968Y79877403D01*
X144350196Y79855779D01*
X144358254Y79833257D01*
X144364066Y79810053D01*
X144367576Y79786392D01*
X144368750Y79762500D01*
X144368750Y79275000D01*
X144367576Y79251108D01*
X144364066Y79227447D01*
X144358254Y79204243D01*
X144350196Y79181721D01*
X144339968Y79160097D01*
X144327671Y79139580D01*
X144313421Y79120367D01*
X144297357Y79102643D01*
X144279633Y79086579D01*
X144260420Y79072329D01*
X144239903Y79060032D01*
X144218279Y79049804D01*
X144195757Y79041746D01*
X144172553Y79035934D01*
X144148892Y79032424D01*
X144125000Y79031250D01*
X143212500Y79031250D01*
X143188608Y79032424D01*
X143164947Y79035934D01*
X143141743Y79041746D01*
X143119221Y79049804D01*
X143097597Y79060032D01*
X143077080Y79072329D01*
X143057867Y79086579D01*
X143040143Y79102643D01*
X143024079Y79120367D01*
X143009829Y79139580D01*
X142997532Y79160097D01*
X142987304Y79181721D01*
X142979246Y79204243D01*
X142973434Y79227447D01*
X142969924Y79251108D01*
X142968750Y79275000D01*
X142968750Y79762500D01*
X142969924Y79786392D01*
X142973434Y79810053D01*
X142979246Y79833257D01*
X142987304Y79855779D01*
X142997532Y79877403D01*
X143009829Y79897920D01*
X143024079Y79917133D01*
X143040143Y79934857D01*
X143057867Y79950921D01*
X143077080Y79965171D01*
X143097597Y79977468D01*
X143119221Y79987696D01*
X143141743Y79995754D01*
X143164947Y80001566D01*
X143188608Y80005076D01*
X143212500Y80006250D01*
X144125000Y80006250D01*
X144148892Y80005076D01*
G37*
G36*
X125030142Y77692576D02*
G01*
X125053803Y77689066D01*
X125077007Y77683254D01*
X125099529Y77675196D01*
X125121153Y77664968D01*
X125141670Y77652671D01*
X125160883Y77638421D01*
X125178607Y77622357D01*
X125194671Y77604633D01*
X125208921Y77585420D01*
X125221218Y77564903D01*
X125231446Y77543279D01*
X125239504Y77520757D01*
X125245316Y77497553D01*
X125248826Y77473892D01*
X125250000Y77450000D01*
X125250000Y76537500D01*
X125248826Y76513608D01*
X125245316Y76489947D01*
X125239504Y76466743D01*
X125231446Y76444221D01*
X125221218Y76422597D01*
X125208921Y76402080D01*
X125194671Y76382867D01*
X125178607Y76365143D01*
X125160883Y76349079D01*
X125141670Y76334829D01*
X125121153Y76322532D01*
X125099529Y76312304D01*
X125077007Y76304246D01*
X125053803Y76298434D01*
X125030142Y76294924D01*
X125006250Y76293750D01*
X124518750Y76293750D01*
X124494858Y76294924D01*
X124471197Y76298434D01*
X124447993Y76304246D01*
X124425471Y76312304D01*
X124403847Y76322532D01*
X124383330Y76334829D01*
X124364117Y76349079D01*
X124346393Y76365143D01*
X124330329Y76382867D01*
X124316079Y76402080D01*
X124303782Y76422597D01*
X124293554Y76444221D01*
X124285496Y76466743D01*
X124279684Y76489947D01*
X124276174Y76513608D01*
X124275000Y76537500D01*
X124275000Y77450000D01*
X124276174Y77473892D01*
X124279684Y77497553D01*
X124285496Y77520757D01*
X124293554Y77543279D01*
X124303782Y77564903D01*
X124316079Y77585420D01*
X124330329Y77604633D01*
X124346393Y77622357D01*
X124364117Y77638421D01*
X124383330Y77652671D01*
X124403847Y77664968D01*
X124425471Y77675196D01*
X124447993Y77683254D01*
X124471197Y77689066D01*
X124494858Y77692576D01*
X124518750Y77693750D01*
X125006250Y77693750D01*
X125030142Y77692576D01*
G37*
G36*
X123155142Y77692576D02*
G01*
X123178803Y77689066D01*
X123202007Y77683254D01*
X123224529Y77675196D01*
X123246153Y77664968D01*
X123266670Y77652671D01*
X123285883Y77638421D01*
X123303607Y77622357D01*
X123319671Y77604633D01*
X123333921Y77585420D01*
X123346218Y77564903D01*
X123356446Y77543279D01*
X123364504Y77520757D01*
X123370316Y77497553D01*
X123373826Y77473892D01*
X123375000Y77450000D01*
X123375000Y76537500D01*
X123373826Y76513608D01*
X123370316Y76489947D01*
X123364504Y76466743D01*
X123356446Y76444221D01*
X123346218Y76422597D01*
X123333921Y76402080D01*
X123319671Y76382867D01*
X123303607Y76365143D01*
X123285883Y76349079D01*
X123266670Y76334829D01*
X123246153Y76322532D01*
X123224529Y76312304D01*
X123202007Y76304246D01*
X123178803Y76298434D01*
X123155142Y76294924D01*
X123131250Y76293750D01*
X122643750Y76293750D01*
X122619858Y76294924D01*
X122596197Y76298434D01*
X122572993Y76304246D01*
X122550471Y76312304D01*
X122528847Y76322532D01*
X122508330Y76334829D01*
X122489117Y76349079D01*
X122471393Y76365143D01*
X122455329Y76382867D01*
X122441079Y76402080D01*
X122428782Y76422597D01*
X122418554Y76444221D01*
X122410496Y76466743D01*
X122404684Y76489947D01*
X122401174Y76513608D01*
X122400000Y76537500D01*
X122400000Y77450000D01*
X122401174Y77473892D01*
X122404684Y77497553D01*
X122410496Y77520757D01*
X122418554Y77543279D01*
X122428782Y77564903D01*
X122441079Y77585420D01*
X122455329Y77604633D01*
X122471393Y77622357D01*
X122489117Y77638421D01*
X122508330Y77652671D01*
X122528847Y77664968D01*
X122550471Y77675196D01*
X122572993Y77683254D01*
X122596197Y77689066D01*
X122619858Y77692576D01*
X122643750Y77693750D01*
X123131250Y77693750D01*
X123155142Y77692576D01*
G37*
G36*
X132015142Y88328826D02*
G01*
X132038803Y88325316D01*
X132062007Y88319504D01*
X132084529Y88311446D01*
X132106153Y88301218D01*
X132126670Y88288921D01*
X132145883Y88274671D01*
X132163607Y88258607D01*
X132179671Y88240883D01*
X132193921Y88221670D01*
X132206218Y88201153D01*
X132216446Y88179529D01*
X132224504Y88157007D01*
X132230316Y88133803D01*
X132233826Y88110142D01*
X132235000Y88086250D01*
X132235000Y87173750D01*
X132233826Y87149858D01*
X132230316Y87126197D01*
X132224504Y87102993D01*
X132216446Y87080471D01*
X132206218Y87058847D01*
X132193921Y87038330D01*
X132179671Y87019117D01*
X132163607Y87001393D01*
X132145883Y86985329D01*
X132126670Y86971079D01*
X132106153Y86958782D01*
X132084529Y86948554D01*
X132062007Y86940496D01*
X132038803Y86934684D01*
X132015142Y86931174D01*
X131991250Y86930000D01*
X131503750Y86930000D01*
X131479858Y86931174D01*
X131456197Y86934684D01*
X131432993Y86940496D01*
X131410471Y86948554D01*
X131388847Y86958782D01*
X131368330Y86971079D01*
X131349117Y86985329D01*
X131331393Y87001393D01*
X131315329Y87019117D01*
X131301079Y87038330D01*
X131288782Y87058847D01*
X131278554Y87080471D01*
X131270496Y87102993D01*
X131264684Y87126197D01*
X131261174Y87149858D01*
X131260000Y87173750D01*
X131260000Y88086250D01*
X131261174Y88110142D01*
X131264684Y88133803D01*
X131270496Y88157007D01*
X131278554Y88179529D01*
X131288782Y88201153D01*
X131301079Y88221670D01*
X131315329Y88240883D01*
X131331393Y88258607D01*
X131349117Y88274671D01*
X131368330Y88288921D01*
X131388847Y88301218D01*
X131410471Y88311446D01*
X131432993Y88319504D01*
X131456197Y88325316D01*
X131479858Y88328826D01*
X131503750Y88330000D01*
X131991250Y88330000D01*
X132015142Y88328826D01*
G37*
G36*
X130140142Y88328826D02*
G01*
X130163803Y88325316D01*
X130187007Y88319504D01*
X130209529Y88311446D01*
X130231153Y88301218D01*
X130251670Y88288921D01*
X130270883Y88274671D01*
X130288607Y88258607D01*
X130304671Y88240883D01*
X130318921Y88221670D01*
X130331218Y88201153D01*
X130341446Y88179529D01*
X130349504Y88157007D01*
X130355316Y88133803D01*
X130358826Y88110142D01*
X130360000Y88086250D01*
X130360000Y87173750D01*
X130358826Y87149858D01*
X130355316Y87126197D01*
X130349504Y87102993D01*
X130341446Y87080471D01*
X130331218Y87058847D01*
X130318921Y87038330D01*
X130304671Y87019117D01*
X130288607Y87001393D01*
X130270883Y86985329D01*
X130251670Y86971079D01*
X130231153Y86958782D01*
X130209529Y86948554D01*
X130187007Y86940496D01*
X130163803Y86934684D01*
X130140142Y86931174D01*
X130116250Y86930000D01*
X129628750Y86930000D01*
X129604858Y86931174D01*
X129581197Y86934684D01*
X129557993Y86940496D01*
X129535471Y86948554D01*
X129513847Y86958782D01*
X129493330Y86971079D01*
X129474117Y86985329D01*
X129456393Y87001393D01*
X129440329Y87019117D01*
X129426079Y87038330D01*
X129413782Y87058847D01*
X129403554Y87080471D01*
X129395496Y87102993D01*
X129389684Y87126197D01*
X129386174Y87149858D01*
X129385000Y87173750D01*
X129385000Y88086250D01*
X129386174Y88110142D01*
X129389684Y88133803D01*
X129395496Y88157007D01*
X129403554Y88179529D01*
X129413782Y88201153D01*
X129426079Y88221670D01*
X129440329Y88240883D01*
X129456393Y88258607D01*
X129474117Y88274671D01*
X129493330Y88288921D01*
X129513847Y88301218D01*
X129535471Y88311446D01*
X129557993Y88319504D01*
X129581197Y88325316D01*
X129604858Y88328826D01*
X129628750Y88330000D01*
X130116250Y88330000D01*
X130140142Y88328826D01*
G37*
G36*
X139672142Y84175153D02*
G01*
X139695803Y84171643D01*
X139719007Y84165831D01*
X139741529Y84157773D01*
X139763153Y84147545D01*
X139783670Y84135248D01*
X139802883Y84120998D01*
X139820607Y84104934D01*
X139836671Y84087210D01*
X139850921Y84067997D01*
X139863218Y84047480D01*
X139873446Y84025856D01*
X139881504Y84003334D01*
X139887316Y83980130D01*
X139890826Y83956469D01*
X139892000Y83932577D01*
X139892000Y83445077D01*
X139890826Y83421185D01*
X139887316Y83397524D01*
X139881504Y83374320D01*
X139873446Y83351798D01*
X139863218Y83330174D01*
X139850921Y83309657D01*
X139836671Y83290444D01*
X139820607Y83272720D01*
X139802883Y83256656D01*
X139783670Y83242406D01*
X139763153Y83230109D01*
X139741529Y83219881D01*
X139719007Y83211823D01*
X139695803Y83206011D01*
X139672142Y83202501D01*
X139648250Y83201327D01*
X138735750Y83201327D01*
X138711858Y83202501D01*
X138688197Y83206011D01*
X138664993Y83211823D01*
X138642471Y83219881D01*
X138620847Y83230109D01*
X138600330Y83242406D01*
X138581117Y83256656D01*
X138563393Y83272720D01*
X138547329Y83290444D01*
X138533079Y83309657D01*
X138520782Y83330174D01*
X138510554Y83351798D01*
X138502496Y83374320D01*
X138496684Y83397524D01*
X138493174Y83421185D01*
X138492000Y83445077D01*
X138492000Y83932577D01*
X138493174Y83956469D01*
X138496684Y83980130D01*
X138502496Y84003334D01*
X138510554Y84025856D01*
X138520782Y84047480D01*
X138533079Y84067997D01*
X138547329Y84087210D01*
X138563393Y84104934D01*
X138581117Y84120998D01*
X138600330Y84135248D01*
X138620847Y84147545D01*
X138642471Y84157773D01*
X138664993Y84165831D01*
X138688197Y84171643D01*
X138711858Y84175153D01*
X138735750Y84176327D01*
X139648250Y84176327D01*
X139672142Y84175153D01*
G37*
G36*
X139672142Y86050153D02*
G01*
X139695803Y86046643D01*
X139719007Y86040831D01*
X139741529Y86032773D01*
X139763153Y86022545D01*
X139783670Y86010248D01*
X139802883Y85995998D01*
X139820607Y85979934D01*
X139836671Y85962210D01*
X139850921Y85942997D01*
X139863218Y85922480D01*
X139873446Y85900856D01*
X139881504Y85878334D01*
X139887316Y85855130D01*
X139890826Y85831469D01*
X139892000Y85807577D01*
X139892000Y85320077D01*
X139890826Y85296185D01*
X139887316Y85272524D01*
X139881504Y85249320D01*
X139873446Y85226798D01*
X139863218Y85205174D01*
X139850921Y85184657D01*
X139836671Y85165444D01*
X139820607Y85147720D01*
X139802883Y85131656D01*
X139783670Y85117406D01*
X139763153Y85105109D01*
X139741529Y85094881D01*
X139719007Y85086823D01*
X139695803Y85081011D01*
X139672142Y85077501D01*
X139648250Y85076327D01*
X138735750Y85076327D01*
X138711858Y85077501D01*
X138688197Y85081011D01*
X138664993Y85086823D01*
X138642471Y85094881D01*
X138620847Y85105109D01*
X138600330Y85117406D01*
X138581117Y85131656D01*
X138563393Y85147720D01*
X138547329Y85165444D01*
X138533079Y85184657D01*
X138520782Y85205174D01*
X138510554Y85226798D01*
X138502496Y85249320D01*
X138496684Y85272524D01*
X138493174Y85296185D01*
X138492000Y85320077D01*
X138492000Y85807577D01*
X138493174Y85831469D01*
X138496684Y85855130D01*
X138502496Y85878334D01*
X138510554Y85900856D01*
X138520782Y85922480D01*
X138533079Y85942997D01*
X138547329Y85962210D01*
X138563393Y85979934D01*
X138581117Y85995998D01*
X138600330Y86010248D01*
X138620847Y86022545D01*
X138642471Y86032773D01*
X138664993Y86040831D01*
X138688197Y86046643D01*
X138711858Y86050153D01*
X138735750Y86051327D01*
X139648250Y86051327D01*
X139672142Y86050153D01*
G37*
M02*
