G04 #@! TF.GenerationSoftware,KiCad,Pcbnew,(5.1.5-0-10_14)*
G04 #@! TF.CreationDate,2020-07-12T14:02:30+02:00*
G04 #@! TF.ProjectId,Trigon,54726967-6f6e-42e6-9b69-6361645f7063,rev?*
G04 #@! TF.SameCoordinates,Original*
G04 #@! TF.FileFunction,Paste,Bot*
G04 #@! TF.FilePolarity,Positive*
%FSLAX46Y46*%
G04 Gerber Fmt 4.6, Leading zero omitted, Abs format (unit mm)*
G04 Created by KiCad (PCBNEW (5.1.5-0-10_14)) date 2020-07-12 14:02:30*
%MOMM*%
%LPD*%
G04 APERTURE LIST*
%ADD10C,0.100000*%
%ADD11R,1.400000X1.200000*%
%ADD12R,0.550000X1.500000*%
%ADD13R,1.500000X0.550000*%
%ADD14R,1.800000X1.100000*%
%ADD15R,0.600000X1.160000*%
%ADD16R,0.300000X1.160000*%
%ADD17R,1.200000X0.900000*%
G04 APERTURE END LIST*
D10*
G36*
X124305142Y65430076D02*
G01*
X124328803Y65426566D01*
X124352007Y65420754D01*
X124374529Y65412696D01*
X124396153Y65402468D01*
X124416670Y65390171D01*
X124435883Y65375921D01*
X124453607Y65359857D01*
X124469671Y65342133D01*
X124483921Y65322920D01*
X124496218Y65302403D01*
X124506446Y65280779D01*
X124514504Y65258257D01*
X124520316Y65235053D01*
X124523826Y65211392D01*
X124525000Y65187500D01*
X124525000Y64700000D01*
X124523826Y64676108D01*
X124520316Y64652447D01*
X124514504Y64629243D01*
X124506446Y64606721D01*
X124496218Y64585097D01*
X124483921Y64564580D01*
X124469671Y64545367D01*
X124453607Y64527643D01*
X124435883Y64511579D01*
X124416670Y64497329D01*
X124396153Y64485032D01*
X124374529Y64474804D01*
X124352007Y64466746D01*
X124328803Y64460934D01*
X124305142Y64457424D01*
X124281250Y64456250D01*
X123368750Y64456250D01*
X123344858Y64457424D01*
X123321197Y64460934D01*
X123297993Y64466746D01*
X123275471Y64474804D01*
X123253847Y64485032D01*
X123233330Y64497329D01*
X123214117Y64511579D01*
X123196393Y64527643D01*
X123180329Y64545367D01*
X123166079Y64564580D01*
X123153782Y64585097D01*
X123143554Y64606721D01*
X123135496Y64629243D01*
X123129684Y64652447D01*
X123126174Y64676108D01*
X123125000Y64700000D01*
X123125000Y65187500D01*
X123126174Y65211392D01*
X123129684Y65235053D01*
X123135496Y65258257D01*
X123143554Y65280779D01*
X123153782Y65302403D01*
X123166079Y65322920D01*
X123180329Y65342133D01*
X123196393Y65359857D01*
X123214117Y65375921D01*
X123233330Y65390171D01*
X123253847Y65402468D01*
X123275471Y65412696D01*
X123297993Y65420754D01*
X123321197Y65426566D01*
X123344858Y65430076D01*
X123368750Y65431250D01*
X124281250Y65431250D01*
X124305142Y65430076D01*
G37*
G36*
X124305142Y67305076D02*
G01*
X124328803Y67301566D01*
X124352007Y67295754D01*
X124374529Y67287696D01*
X124396153Y67277468D01*
X124416670Y67265171D01*
X124435883Y67250921D01*
X124453607Y67234857D01*
X124469671Y67217133D01*
X124483921Y67197920D01*
X124496218Y67177403D01*
X124506446Y67155779D01*
X124514504Y67133257D01*
X124520316Y67110053D01*
X124523826Y67086392D01*
X124525000Y67062500D01*
X124525000Y66575000D01*
X124523826Y66551108D01*
X124520316Y66527447D01*
X124514504Y66504243D01*
X124506446Y66481721D01*
X124496218Y66460097D01*
X124483921Y66439580D01*
X124469671Y66420367D01*
X124453607Y66402643D01*
X124435883Y66386579D01*
X124416670Y66372329D01*
X124396153Y66360032D01*
X124374529Y66349804D01*
X124352007Y66341746D01*
X124328803Y66335934D01*
X124305142Y66332424D01*
X124281250Y66331250D01*
X123368750Y66331250D01*
X123344858Y66332424D01*
X123321197Y66335934D01*
X123297993Y66341746D01*
X123275471Y66349804D01*
X123253847Y66360032D01*
X123233330Y66372329D01*
X123214117Y66386579D01*
X123196393Y66402643D01*
X123180329Y66420367D01*
X123166079Y66439580D01*
X123153782Y66460097D01*
X123143554Y66481721D01*
X123135496Y66504243D01*
X123129684Y66527447D01*
X123126174Y66551108D01*
X123125000Y66575000D01*
X123125000Y67062500D01*
X123126174Y67086392D01*
X123129684Y67110053D01*
X123135496Y67133257D01*
X123143554Y67155779D01*
X123153782Y67177403D01*
X123166079Y67197920D01*
X123180329Y67217133D01*
X123196393Y67234857D01*
X123214117Y67250921D01*
X123233330Y67265171D01*
X123253847Y67277468D01*
X123275471Y67287696D01*
X123297993Y67295754D01*
X123321197Y67301566D01*
X123344858Y67305076D01*
X123368750Y67306250D01*
X124281250Y67306250D01*
X124305142Y67305076D01*
G37*
D11*
X135866667Y83776326D03*
X133666667Y83776326D03*
X133666667Y85476326D03*
X135866667Y85476326D03*
D12*
X129350000Y68118750D03*
X130150000Y68118750D03*
X130950000Y68118750D03*
X131750000Y68118750D03*
X132550000Y68118750D03*
X133350000Y68118750D03*
X134150000Y68118750D03*
X134950000Y68118750D03*
X135750000Y68118750D03*
X136550000Y68118750D03*
X137350000Y68118750D03*
D13*
X139050000Y69818750D03*
X139050000Y70618750D03*
X139050000Y71418750D03*
X139050000Y72218750D03*
X139050000Y73018750D03*
X139050000Y73818750D03*
X139050000Y74618750D03*
X139050000Y75418750D03*
X139050000Y76218750D03*
X139050000Y77018750D03*
X139050000Y77818750D03*
D12*
X137350000Y79518750D03*
X136550000Y79518750D03*
X135750000Y79518750D03*
X134950000Y79518750D03*
X134150000Y79518750D03*
X133350000Y79518750D03*
X132550000Y79518750D03*
X131750000Y79518750D03*
X130950000Y79518750D03*
X130150000Y79518750D03*
X129350000Y79518750D03*
D13*
X127650000Y77818750D03*
X127650000Y77018750D03*
X127650000Y76218750D03*
X127650000Y75418750D03*
X127650000Y74618750D03*
X127650000Y73818750D03*
X127650000Y73018750D03*
X127650000Y72218750D03*
X127650000Y71418750D03*
X127650000Y70618750D03*
X127650000Y69818750D03*
D14*
X130250000Y112181250D03*
X136450000Y108481250D03*
X130250000Y108481250D03*
X136450000Y112181250D03*
D10*
G36*
X142561392Y68382826D02*
G01*
X142585053Y68379316D01*
X142608257Y68373504D01*
X142630779Y68365446D01*
X142652403Y68355218D01*
X142672920Y68342921D01*
X142692133Y68328671D01*
X142709857Y68312607D01*
X142725921Y68294883D01*
X142740171Y68275670D01*
X142752468Y68255153D01*
X142762696Y68233529D01*
X142770754Y68211007D01*
X142776566Y68187803D01*
X142780076Y68164142D01*
X142781250Y68140250D01*
X142781250Y67652750D01*
X142780076Y67628858D01*
X142776566Y67605197D01*
X142770754Y67581993D01*
X142762696Y67559471D01*
X142752468Y67537847D01*
X142740171Y67517330D01*
X142725921Y67498117D01*
X142709857Y67480393D01*
X142692133Y67464329D01*
X142672920Y67450079D01*
X142652403Y67437782D01*
X142630779Y67427554D01*
X142608257Y67419496D01*
X142585053Y67413684D01*
X142561392Y67410174D01*
X142537500Y67409000D01*
X141625000Y67409000D01*
X141601108Y67410174D01*
X141577447Y67413684D01*
X141554243Y67419496D01*
X141531721Y67427554D01*
X141510097Y67437782D01*
X141489580Y67450079D01*
X141470367Y67464329D01*
X141452643Y67480393D01*
X141436579Y67498117D01*
X141422329Y67517330D01*
X141410032Y67537847D01*
X141399804Y67559471D01*
X141391746Y67581993D01*
X141385934Y67605197D01*
X141382424Y67628858D01*
X141381250Y67652750D01*
X141381250Y68140250D01*
X141382424Y68164142D01*
X141385934Y68187803D01*
X141391746Y68211007D01*
X141399804Y68233529D01*
X141410032Y68255153D01*
X141422329Y68275670D01*
X141436579Y68294883D01*
X141452643Y68312607D01*
X141470367Y68328671D01*
X141489580Y68342921D01*
X141510097Y68355218D01*
X141531721Y68365446D01*
X141554243Y68373504D01*
X141577447Y68379316D01*
X141601108Y68382826D01*
X141625000Y68384000D01*
X142537500Y68384000D01*
X142561392Y68382826D01*
G37*
G36*
X142561392Y70257826D02*
G01*
X142585053Y70254316D01*
X142608257Y70248504D01*
X142630779Y70240446D01*
X142652403Y70230218D01*
X142672920Y70217921D01*
X142692133Y70203671D01*
X142709857Y70187607D01*
X142725921Y70169883D01*
X142740171Y70150670D01*
X142752468Y70130153D01*
X142762696Y70108529D01*
X142770754Y70086007D01*
X142776566Y70062803D01*
X142780076Y70039142D01*
X142781250Y70015250D01*
X142781250Y69527750D01*
X142780076Y69503858D01*
X142776566Y69480197D01*
X142770754Y69456993D01*
X142762696Y69434471D01*
X142752468Y69412847D01*
X142740171Y69392330D01*
X142725921Y69373117D01*
X142709857Y69355393D01*
X142692133Y69339329D01*
X142672920Y69325079D01*
X142652403Y69312782D01*
X142630779Y69302554D01*
X142608257Y69294496D01*
X142585053Y69288684D01*
X142561392Y69285174D01*
X142537500Y69284000D01*
X141625000Y69284000D01*
X141601108Y69285174D01*
X141577447Y69288684D01*
X141554243Y69294496D01*
X141531721Y69302554D01*
X141510097Y69312782D01*
X141489580Y69325079D01*
X141470367Y69339329D01*
X141452643Y69355393D01*
X141436579Y69373117D01*
X141422329Y69392330D01*
X141410032Y69412847D01*
X141399804Y69434471D01*
X141391746Y69456993D01*
X141385934Y69480197D01*
X141382424Y69503858D01*
X141381250Y69527750D01*
X141381250Y70015250D01*
X141382424Y70039142D01*
X141385934Y70062803D01*
X141391746Y70086007D01*
X141399804Y70108529D01*
X141410032Y70130153D01*
X141422329Y70150670D01*
X141436579Y70169883D01*
X141452643Y70187607D01*
X141470367Y70203671D01*
X141489580Y70217921D01*
X141510097Y70230218D01*
X141531721Y70240446D01*
X141554243Y70248504D01*
X141577447Y70254316D01*
X141601108Y70257826D01*
X141625000Y70259000D01*
X142537500Y70259000D01*
X142561392Y70257826D01*
G37*
G36*
X75530142Y104680076D02*
G01*
X75553803Y104676566D01*
X75577007Y104670754D01*
X75599529Y104662696D01*
X75621153Y104652468D01*
X75641670Y104640171D01*
X75660883Y104625921D01*
X75678607Y104609857D01*
X75694671Y104592133D01*
X75708921Y104572920D01*
X75721218Y104552403D01*
X75731446Y104530779D01*
X75739504Y104508257D01*
X75745316Y104485053D01*
X75748826Y104461392D01*
X75750000Y104437500D01*
X75750000Y103525000D01*
X75748826Y103501108D01*
X75745316Y103477447D01*
X75739504Y103454243D01*
X75731446Y103431721D01*
X75721218Y103410097D01*
X75708921Y103389580D01*
X75694671Y103370367D01*
X75678607Y103352643D01*
X75660883Y103336579D01*
X75641670Y103322329D01*
X75621153Y103310032D01*
X75599529Y103299804D01*
X75577007Y103291746D01*
X75553803Y103285934D01*
X75530142Y103282424D01*
X75506250Y103281250D01*
X75018750Y103281250D01*
X74994858Y103282424D01*
X74971197Y103285934D01*
X74947993Y103291746D01*
X74925471Y103299804D01*
X74903847Y103310032D01*
X74883330Y103322329D01*
X74864117Y103336579D01*
X74846393Y103352643D01*
X74830329Y103370367D01*
X74816079Y103389580D01*
X74803782Y103410097D01*
X74793554Y103431721D01*
X74785496Y103454243D01*
X74779684Y103477447D01*
X74776174Y103501108D01*
X74775000Y103525000D01*
X74775000Y104437500D01*
X74776174Y104461392D01*
X74779684Y104485053D01*
X74785496Y104508257D01*
X74793554Y104530779D01*
X74803782Y104552403D01*
X74816079Y104572920D01*
X74830329Y104592133D01*
X74846393Y104609857D01*
X74864117Y104625921D01*
X74883330Y104640171D01*
X74903847Y104652468D01*
X74925471Y104662696D01*
X74947993Y104670754D01*
X74971197Y104676566D01*
X74994858Y104680076D01*
X75018750Y104681250D01*
X75506250Y104681250D01*
X75530142Y104680076D01*
G37*
G36*
X77405142Y104680076D02*
G01*
X77428803Y104676566D01*
X77452007Y104670754D01*
X77474529Y104662696D01*
X77496153Y104652468D01*
X77516670Y104640171D01*
X77535883Y104625921D01*
X77553607Y104609857D01*
X77569671Y104592133D01*
X77583921Y104572920D01*
X77596218Y104552403D01*
X77606446Y104530779D01*
X77614504Y104508257D01*
X77620316Y104485053D01*
X77623826Y104461392D01*
X77625000Y104437500D01*
X77625000Y103525000D01*
X77623826Y103501108D01*
X77620316Y103477447D01*
X77614504Y103454243D01*
X77606446Y103431721D01*
X77596218Y103410097D01*
X77583921Y103389580D01*
X77569671Y103370367D01*
X77553607Y103352643D01*
X77535883Y103336579D01*
X77516670Y103322329D01*
X77496153Y103310032D01*
X77474529Y103299804D01*
X77452007Y103291746D01*
X77428803Y103285934D01*
X77405142Y103282424D01*
X77381250Y103281250D01*
X76893750Y103281250D01*
X76869858Y103282424D01*
X76846197Y103285934D01*
X76822993Y103291746D01*
X76800471Y103299804D01*
X76778847Y103310032D01*
X76758330Y103322329D01*
X76739117Y103336579D01*
X76721393Y103352643D01*
X76705329Y103370367D01*
X76691079Y103389580D01*
X76678782Y103410097D01*
X76668554Y103431721D01*
X76660496Y103454243D01*
X76654684Y103477447D01*
X76651174Y103501108D01*
X76650000Y103525000D01*
X76650000Y104437500D01*
X76651174Y104461392D01*
X76654684Y104485053D01*
X76660496Y104508257D01*
X76668554Y104530779D01*
X76678782Y104552403D01*
X76691079Y104572920D01*
X76705329Y104592133D01*
X76721393Y104609857D01*
X76739117Y104625921D01*
X76758330Y104640171D01*
X76778847Y104652468D01*
X76800471Y104662696D01*
X76822993Y104670754D01*
X76846197Y104676566D01*
X76869858Y104680076D01*
X76893750Y104681250D01*
X77381250Y104681250D01*
X77405142Y104680076D01*
G37*
G36*
X72198142Y105981826D02*
G01*
X72221803Y105978316D01*
X72245007Y105972504D01*
X72267529Y105964446D01*
X72289153Y105954218D01*
X72309670Y105941921D01*
X72328883Y105927671D01*
X72346607Y105911607D01*
X72362671Y105893883D01*
X72376921Y105874670D01*
X72389218Y105854153D01*
X72399446Y105832529D01*
X72407504Y105810007D01*
X72413316Y105786803D01*
X72416826Y105763142D01*
X72418000Y105739250D01*
X72418000Y104826750D01*
X72416826Y104802858D01*
X72413316Y104779197D01*
X72407504Y104755993D01*
X72399446Y104733471D01*
X72389218Y104711847D01*
X72376921Y104691330D01*
X72362671Y104672117D01*
X72346607Y104654393D01*
X72328883Y104638329D01*
X72309670Y104624079D01*
X72289153Y104611782D01*
X72267529Y104601554D01*
X72245007Y104593496D01*
X72221803Y104587684D01*
X72198142Y104584174D01*
X72174250Y104583000D01*
X71686750Y104583000D01*
X71662858Y104584174D01*
X71639197Y104587684D01*
X71615993Y104593496D01*
X71593471Y104601554D01*
X71571847Y104611782D01*
X71551330Y104624079D01*
X71532117Y104638329D01*
X71514393Y104654393D01*
X71498329Y104672117D01*
X71484079Y104691330D01*
X71471782Y104711847D01*
X71461554Y104733471D01*
X71453496Y104755993D01*
X71447684Y104779197D01*
X71444174Y104802858D01*
X71443000Y104826750D01*
X71443000Y105739250D01*
X71444174Y105763142D01*
X71447684Y105786803D01*
X71453496Y105810007D01*
X71461554Y105832529D01*
X71471782Y105854153D01*
X71484079Y105874670D01*
X71498329Y105893883D01*
X71514393Y105911607D01*
X71532117Y105927671D01*
X71551330Y105941921D01*
X71571847Y105954218D01*
X71593471Y105964446D01*
X71615993Y105972504D01*
X71639197Y105978316D01*
X71662858Y105981826D01*
X71686750Y105983000D01*
X72174250Y105983000D01*
X72198142Y105981826D01*
G37*
G36*
X70323142Y105981826D02*
G01*
X70346803Y105978316D01*
X70370007Y105972504D01*
X70392529Y105964446D01*
X70414153Y105954218D01*
X70434670Y105941921D01*
X70453883Y105927671D01*
X70471607Y105911607D01*
X70487671Y105893883D01*
X70501921Y105874670D01*
X70514218Y105854153D01*
X70524446Y105832529D01*
X70532504Y105810007D01*
X70538316Y105786803D01*
X70541826Y105763142D01*
X70543000Y105739250D01*
X70543000Y104826750D01*
X70541826Y104802858D01*
X70538316Y104779197D01*
X70532504Y104755993D01*
X70524446Y104733471D01*
X70514218Y104711847D01*
X70501921Y104691330D01*
X70487671Y104672117D01*
X70471607Y104654393D01*
X70453883Y104638329D01*
X70434670Y104624079D01*
X70414153Y104611782D01*
X70392529Y104601554D01*
X70370007Y104593496D01*
X70346803Y104587684D01*
X70323142Y104584174D01*
X70299250Y104583000D01*
X69811750Y104583000D01*
X69787858Y104584174D01*
X69764197Y104587684D01*
X69740993Y104593496D01*
X69718471Y104601554D01*
X69696847Y104611782D01*
X69676330Y104624079D01*
X69657117Y104638329D01*
X69639393Y104654393D01*
X69623329Y104672117D01*
X69609079Y104691330D01*
X69596782Y104711847D01*
X69586554Y104733471D01*
X69578496Y104755993D01*
X69572684Y104779197D01*
X69569174Y104802858D01*
X69568000Y104826750D01*
X69568000Y105739250D01*
X69569174Y105763142D01*
X69572684Y105786803D01*
X69578496Y105810007D01*
X69586554Y105832529D01*
X69596782Y105854153D01*
X69609079Y105874670D01*
X69623329Y105893883D01*
X69639393Y105911607D01*
X69657117Y105927671D01*
X69676330Y105941921D01*
X69696847Y105954218D01*
X69718471Y105964446D01*
X69740993Y105972504D01*
X69764197Y105978316D01*
X69787858Y105981826D01*
X69811750Y105983000D01*
X70299250Y105983000D01*
X70323142Y105981826D01*
G37*
G36*
X126241892Y85021576D02*
G01*
X126265553Y85018066D01*
X126288757Y85012254D01*
X126311279Y85004196D01*
X126332903Y84993968D01*
X126353420Y84981671D01*
X126372633Y84967421D01*
X126390357Y84951357D01*
X126406421Y84933633D01*
X126420671Y84914420D01*
X126432968Y84893903D01*
X126443196Y84872279D01*
X126451254Y84849757D01*
X126457066Y84826553D01*
X126460576Y84802892D01*
X126461750Y84779000D01*
X126461750Y84291500D01*
X126460576Y84267608D01*
X126457066Y84243947D01*
X126451254Y84220743D01*
X126443196Y84198221D01*
X126432968Y84176597D01*
X126420671Y84156080D01*
X126406421Y84136867D01*
X126390357Y84119143D01*
X126372633Y84103079D01*
X126353420Y84088829D01*
X126332903Y84076532D01*
X126311279Y84066304D01*
X126288757Y84058246D01*
X126265553Y84052434D01*
X126241892Y84048924D01*
X126218000Y84047750D01*
X125305500Y84047750D01*
X125281608Y84048924D01*
X125257947Y84052434D01*
X125234743Y84058246D01*
X125212221Y84066304D01*
X125190597Y84076532D01*
X125170080Y84088829D01*
X125150867Y84103079D01*
X125133143Y84119143D01*
X125117079Y84136867D01*
X125102829Y84156080D01*
X125090532Y84176597D01*
X125080304Y84198221D01*
X125072246Y84220743D01*
X125066434Y84243947D01*
X125062924Y84267608D01*
X125061750Y84291500D01*
X125061750Y84779000D01*
X125062924Y84802892D01*
X125066434Y84826553D01*
X125072246Y84849757D01*
X125080304Y84872279D01*
X125090532Y84893903D01*
X125102829Y84914420D01*
X125117079Y84933633D01*
X125133143Y84951357D01*
X125150867Y84967421D01*
X125170080Y84981671D01*
X125190597Y84993968D01*
X125212221Y85004196D01*
X125234743Y85012254D01*
X125257947Y85018066D01*
X125281608Y85021576D01*
X125305500Y85022750D01*
X126218000Y85022750D01*
X126241892Y85021576D01*
G37*
G36*
X126241892Y83146576D02*
G01*
X126265553Y83143066D01*
X126288757Y83137254D01*
X126311279Y83129196D01*
X126332903Y83118968D01*
X126353420Y83106671D01*
X126372633Y83092421D01*
X126390357Y83076357D01*
X126406421Y83058633D01*
X126420671Y83039420D01*
X126432968Y83018903D01*
X126443196Y82997279D01*
X126451254Y82974757D01*
X126457066Y82951553D01*
X126460576Y82927892D01*
X126461750Y82904000D01*
X126461750Y82416500D01*
X126460576Y82392608D01*
X126457066Y82368947D01*
X126451254Y82345743D01*
X126443196Y82323221D01*
X126432968Y82301597D01*
X126420671Y82281080D01*
X126406421Y82261867D01*
X126390357Y82244143D01*
X126372633Y82228079D01*
X126353420Y82213829D01*
X126332903Y82201532D01*
X126311279Y82191304D01*
X126288757Y82183246D01*
X126265553Y82177434D01*
X126241892Y82173924D01*
X126218000Y82172750D01*
X125305500Y82172750D01*
X125281608Y82173924D01*
X125257947Y82177434D01*
X125234743Y82183246D01*
X125212221Y82191304D01*
X125190597Y82201532D01*
X125170080Y82213829D01*
X125150867Y82228079D01*
X125133143Y82244143D01*
X125117079Y82261867D01*
X125102829Y82281080D01*
X125090532Y82301597D01*
X125080304Y82323221D01*
X125072246Y82345743D01*
X125066434Y82368947D01*
X125062924Y82392608D01*
X125061750Y82416500D01*
X125061750Y82904000D01*
X125062924Y82927892D01*
X125066434Y82951553D01*
X125072246Y82974757D01*
X125080304Y82997279D01*
X125090532Y83018903D01*
X125102829Y83039420D01*
X125117079Y83058633D01*
X125133143Y83076357D01*
X125150867Y83092421D01*
X125170080Y83106671D01*
X125190597Y83118968D01*
X125212221Y83129196D01*
X125234743Y83137254D01*
X125257947Y83143066D01*
X125281608Y83146576D01*
X125305500Y83147750D01*
X126218000Y83147750D01*
X126241892Y83146576D01*
G37*
G36*
X85220892Y97434076D02*
G01*
X85244553Y97430566D01*
X85267757Y97424754D01*
X85290279Y97416696D01*
X85311903Y97406468D01*
X85332420Y97394171D01*
X85351633Y97379921D01*
X85369357Y97363857D01*
X85385421Y97346133D01*
X85399671Y97326920D01*
X85411968Y97306403D01*
X85422196Y97284779D01*
X85430254Y97262257D01*
X85436066Y97239053D01*
X85439576Y97215392D01*
X85440750Y97191500D01*
X85440750Y96704000D01*
X85439576Y96680108D01*
X85436066Y96656447D01*
X85430254Y96633243D01*
X85422196Y96610721D01*
X85411968Y96589097D01*
X85399671Y96568580D01*
X85385421Y96549367D01*
X85369357Y96531643D01*
X85351633Y96515579D01*
X85332420Y96501329D01*
X85311903Y96489032D01*
X85290279Y96478804D01*
X85267757Y96470746D01*
X85244553Y96464934D01*
X85220892Y96461424D01*
X85197000Y96460250D01*
X84284500Y96460250D01*
X84260608Y96461424D01*
X84236947Y96464934D01*
X84213743Y96470746D01*
X84191221Y96478804D01*
X84169597Y96489032D01*
X84149080Y96501329D01*
X84129867Y96515579D01*
X84112143Y96531643D01*
X84096079Y96549367D01*
X84081829Y96568580D01*
X84069532Y96589097D01*
X84059304Y96610721D01*
X84051246Y96633243D01*
X84045434Y96656447D01*
X84041924Y96680108D01*
X84040750Y96704000D01*
X84040750Y97191500D01*
X84041924Y97215392D01*
X84045434Y97239053D01*
X84051246Y97262257D01*
X84059304Y97284779D01*
X84069532Y97306403D01*
X84081829Y97326920D01*
X84096079Y97346133D01*
X84112143Y97363857D01*
X84129867Y97379921D01*
X84149080Y97394171D01*
X84169597Y97406468D01*
X84191221Y97416696D01*
X84213743Y97424754D01*
X84236947Y97430566D01*
X84260608Y97434076D01*
X84284500Y97435250D01*
X85197000Y97435250D01*
X85220892Y97434076D01*
G37*
G36*
X85220892Y99309076D02*
G01*
X85244553Y99305566D01*
X85267757Y99299754D01*
X85290279Y99291696D01*
X85311903Y99281468D01*
X85332420Y99269171D01*
X85351633Y99254921D01*
X85369357Y99238857D01*
X85385421Y99221133D01*
X85399671Y99201920D01*
X85411968Y99181403D01*
X85422196Y99159779D01*
X85430254Y99137257D01*
X85436066Y99114053D01*
X85439576Y99090392D01*
X85440750Y99066500D01*
X85440750Y98579000D01*
X85439576Y98555108D01*
X85436066Y98531447D01*
X85430254Y98508243D01*
X85422196Y98485721D01*
X85411968Y98464097D01*
X85399671Y98443580D01*
X85385421Y98424367D01*
X85369357Y98406643D01*
X85351633Y98390579D01*
X85332420Y98376329D01*
X85311903Y98364032D01*
X85290279Y98353804D01*
X85267757Y98345746D01*
X85244553Y98339934D01*
X85220892Y98336424D01*
X85197000Y98335250D01*
X84284500Y98335250D01*
X84260608Y98336424D01*
X84236947Y98339934D01*
X84213743Y98345746D01*
X84191221Y98353804D01*
X84169597Y98364032D01*
X84149080Y98376329D01*
X84129867Y98390579D01*
X84112143Y98406643D01*
X84096079Y98424367D01*
X84081829Y98443580D01*
X84069532Y98464097D01*
X84059304Y98485721D01*
X84051246Y98508243D01*
X84045434Y98531447D01*
X84041924Y98555108D01*
X84040750Y98579000D01*
X84040750Y99066500D01*
X84041924Y99090392D01*
X84045434Y99114053D01*
X84051246Y99137257D01*
X84059304Y99159779D01*
X84069532Y99181403D01*
X84081829Y99201920D01*
X84096079Y99221133D01*
X84112143Y99238857D01*
X84129867Y99254921D01*
X84149080Y99269171D01*
X84169597Y99281468D01*
X84191221Y99291696D01*
X84213743Y99299754D01*
X84236947Y99305566D01*
X84260608Y99309076D01*
X84284500Y99310250D01*
X85197000Y99310250D01*
X85220892Y99309076D01*
G37*
G36*
X87252892Y97434076D02*
G01*
X87276553Y97430566D01*
X87299757Y97424754D01*
X87322279Y97416696D01*
X87343903Y97406468D01*
X87364420Y97394171D01*
X87383633Y97379921D01*
X87401357Y97363857D01*
X87417421Y97346133D01*
X87431671Y97326920D01*
X87443968Y97306403D01*
X87454196Y97284779D01*
X87462254Y97262257D01*
X87468066Y97239053D01*
X87471576Y97215392D01*
X87472750Y97191500D01*
X87472750Y96704000D01*
X87471576Y96680108D01*
X87468066Y96656447D01*
X87462254Y96633243D01*
X87454196Y96610721D01*
X87443968Y96589097D01*
X87431671Y96568580D01*
X87417421Y96549367D01*
X87401357Y96531643D01*
X87383633Y96515579D01*
X87364420Y96501329D01*
X87343903Y96489032D01*
X87322279Y96478804D01*
X87299757Y96470746D01*
X87276553Y96464934D01*
X87252892Y96461424D01*
X87229000Y96460250D01*
X86316500Y96460250D01*
X86292608Y96461424D01*
X86268947Y96464934D01*
X86245743Y96470746D01*
X86223221Y96478804D01*
X86201597Y96489032D01*
X86181080Y96501329D01*
X86161867Y96515579D01*
X86144143Y96531643D01*
X86128079Y96549367D01*
X86113829Y96568580D01*
X86101532Y96589097D01*
X86091304Y96610721D01*
X86083246Y96633243D01*
X86077434Y96656447D01*
X86073924Y96680108D01*
X86072750Y96704000D01*
X86072750Y97191500D01*
X86073924Y97215392D01*
X86077434Y97239053D01*
X86083246Y97262257D01*
X86091304Y97284779D01*
X86101532Y97306403D01*
X86113829Y97326920D01*
X86128079Y97346133D01*
X86144143Y97363857D01*
X86161867Y97379921D01*
X86181080Y97394171D01*
X86201597Y97406468D01*
X86223221Y97416696D01*
X86245743Y97424754D01*
X86268947Y97430566D01*
X86292608Y97434076D01*
X86316500Y97435250D01*
X87229000Y97435250D01*
X87252892Y97434076D01*
G37*
G36*
X87252892Y99309076D02*
G01*
X87276553Y99305566D01*
X87299757Y99299754D01*
X87322279Y99291696D01*
X87343903Y99281468D01*
X87364420Y99269171D01*
X87383633Y99254921D01*
X87401357Y99238857D01*
X87417421Y99221133D01*
X87431671Y99201920D01*
X87443968Y99181403D01*
X87454196Y99159779D01*
X87462254Y99137257D01*
X87468066Y99114053D01*
X87471576Y99090392D01*
X87472750Y99066500D01*
X87472750Y98579000D01*
X87471576Y98555108D01*
X87468066Y98531447D01*
X87462254Y98508243D01*
X87454196Y98485721D01*
X87443968Y98464097D01*
X87431671Y98443580D01*
X87417421Y98424367D01*
X87401357Y98406643D01*
X87383633Y98390579D01*
X87364420Y98376329D01*
X87343903Y98364032D01*
X87322279Y98353804D01*
X87299757Y98345746D01*
X87276553Y98339934D01*
X87252892Y98336424D01*
X87229000Y98335250D01*
X86316500Y98335250D01*
X86292608Y98336424D01*
X86268947Y98339934D01*
X86245743Y98345746D01*
X86223221Y98353804D01*
X86201597Y98364032D01*
X86181080Y98376329D01*
X86161867Y98390579D01*
X86144143Y98406643D01*
X86128079Y98424367D01*
X86113829Y98443580D01*
X86101532Y98464097D01*
X86091304Y98485721D01*
X86083246Y98508243D01*
X86077434Y98531447D01*
X86073924Y98555108D01*
X86072750Y98579000D01*
X86072750Y99066500D01*
X86073924Y99090392D01*
X86077434Y99114053D01*
X86083246Y99137257D01*
X86091304Y99159779D01*
X86101532Y99181403D01*
X86113829Y99201920D01*
X86128079Y99221133D01*
X86144143Y99238857D01*
X86161867Y99254921D01*
X86181080Y99269171D01*
X86201597Y99281468D01*
X86223221Y99291696D01*
X86245743Y99299754D01*
X86268947Y99305566D01*
X86292608Y99309076D01*
X86316500Y99310250D01*
X87229000Y99310250D01*
X87252892Y99309076D01*
G37*
D15*
X79400000Y108742000D03*
X78600000Y108742000D03*
X79400000Y108742000D03*
X78600000Y108742000D03*
X73000000Y108742000D03*
X73000000Y108742000D03*
X73800000Y108742000D03*
X73800000Y108742000D03*
D16*
X77950000Y108742000D03*
X76950000Y108742000D03*
X77450000Y108742000D03*
X74950000Y108742000D03*
X74450000Y108742000D03*
X76450000Y108742000D03*
X75950000Y108742000D03*
X75450000Y108742000D03*
D10*
G36*
X85740504Y108315796D02*
G01*
X85764773Y108312196D01*
X85788571Y108306235D01*
X85811671Y108297970D01*
X85833849Y108287480D01*
X85854893Y108274867D01*
X85874598Y108260253D01*
X85892777Y108243777D01*
X85909253Y108225598D01*
X85923867Y108205893D01*
X85936480Y108184849D01*
X85946970Y108162671D01*
X85955235Y108139571D01*
X85961196Y108115773D01*
X85964796Y108091504D01*
X85966000Y108067000D01*
X85966000Y106817000D01*
X85964796Y106792496D01*
X85961196Y106768227D01*
X85955235Y106744429D01*
X85946970Y106721329D01*
X85936480Y106699151D01*
X85923867Y106678107D01*
X85909253Y106658402D01*
X85892777Y106640223D01*
X85874598Y106623747D01*
X85854893Y106609133D01*
X85833849Y106596520D01*
X85811671Y106586030D01*
X85788571Y106577765D01*
X85764773Y106571804D01*
X85740504Y106568204D01*
X85716000Y106567000D01*
X84966000Y106567000D01*
X84941496Y106568204D01*
X84917227Y106571804D01*
X84893429Y106577765D01*
X84870329Y106586030D01*
X84848151Y106596520D01*
X84827107Y106609133D01*
X84807402Y106623747D01*
X84789223Y106640223D01*
X84772747Y106658402D01*
X84758133Y106678107D01*
X84745520Y106699151D01*
X84735030Y106721329D01*
X84726765Y106744429D01*
X84720804Y106768227D01*
X84717204Y106792496D01*
X84716000Y106817000D01*
X84716000Y108067000D01*
X84717204Y108091504D01*
X84720804Y108115773D01*
X84726765Y108139571D01*
X84735030Y108162671D01*
X84745520Y108184849D01*
X84758133Y108205893D01*
X84772747Y108225598D01*
X84789223Y108243777D01*
X84807402Y108260253D01*
X84827107Y108274867D01*
X84848151Y108287480D01*
X84870329Y108297970D01*
X84893429Y108306235D01*
X84917227Y108312196D01*
X84941496Y108315796D01*
X84966000Y108317000D01*
X85716000Y108317000D01*
X85740504Y108315796D01*
G37*
G36*
X88540504Y108315796D02*
G01*
X88564773Y108312196D01*
X88588571Y108306235D01*
X88611671Y108297970D01*
X88633849Y108287480D01*
X88654893Y108274867D01*
X88674598Y108260253D01*
X88692777Y108243777D01*
X88709253Y108225598D01*
X88723867Y108205893D01*
X88736480Y108184849D01*
X88746970Y108162671D01*
X88755235Y108139571D01*
X88761196Y108115773D01*
X88764796Y108091504D01*
X88766000Y108067000D01*
X88766000Y106817000D01*
X88764796Y106792496D01*
X88761196Y106768227D01*
X88755235Y106744429D01*
X88746970Y106721329D01*
X88736480Y106699151D01*
X88723867Y106678107D01*
X88709253Y106658402D01*
X88692777Y106640223D01*
X88674598Y106623747D01*
X88654893Y106609133D01*
X88633849Y106596520D01*
X88611671Y106586030D01*
X88588571Y106577765D01*
X88564773Y106571804D01*
X88540504Y106568204D01*
X88516000Y106567000D01*
X87766000Y106567000D01*
X87741496Y106568204D01*
X87717227Y106571804D01*
X87693429Y106577765D01*
X87670329Y106586030D01*
X87648151Y106596520D01*
X87627107Y106609133D01*
X87607402Y106623747D01*
X87589223Y106640223D01*
X87572747Y106658402D01*
X87558133Y106678107D01*
X87545520Y106699151D01*
X87535030Y106721329D01*
X87526765Y106744429D01*
X87520804Y106768227D01*
X87517204Y106792496D01*
X87516000Y106817000D01*
X87516000Y108067000D01*
X87517204Y108091504D01*
X87520804Y108115773D01*
X87526765Y108139571D01*
X87535030Y108162671D01*
X87545520Y108184849D01*
X87558133Y108205893D01*
X87572747Y108225598D01*
X87589223Y108243777D01*
X87607402Y108260253D01*
X87627107Y108274867D01*
X87648151Y108287480D01*
X87670329Y108297970D01*
X87693429Y108306235D01*
X87717227Y108312196D01*
X87741496Y108315796D01*
X87766000Y108317000D01*
X88516000Y108317000D01*
X88540504Y108315796D01*
G37*
D17*
X121443750Y55687500D03*
X121443750Y52387500D03*
X66675000Y17525000D03*
X66675000Y14225000D03*
X47625000Y17525000D03*
X47625000Y14225000D03*
X28575000Y17525000D03*
X28575000Y14225000D03*
X85725000Y36575000D03*
X85725000Y33275000D03*
X66675000Y36575000D03*
X66675000Y33275000D03*
X47625000Y36575000D03*
X47625000Y33275000D03*
X28575000Y36575000D03*
X28575000Y33275000D03*
X104775000Y55625000D03*
X104775000Y52325000D03*
X85725000Y55625000D03*
X85725000Y52325000D03*
X66675000Y55625000D03*
X66675000Y52325000D03*
X47625000Y55625000D03*
X47625000Y52325000D03*
X28575000Y55625000D03*
X28575000Y52325000D03*
X123031250Y74421000D03*
X123031250Y71121000D03*
X103981250Y74675000D03*
X103981250Y71375000D03*
X85725000Y74675000D03*
X85725000Y71375000D03*
X66675000Y74675000D03*
X66675000Y71375000D03*
X47625000Y74675000D03*
X47625000Y71375000D03*
X28575000Y74675000D03*
X28575000Y71375000D03*
X142875000Y93787500D03*
X142875000Y90487500D03*
X123825000Y93725000D03*
X123825000Y90425000D03*
X104775000Y93787500D03*
X104775000Y90487500D03*
X85725000Y93725000D03*
X85725000Y90425000D03*
X66675000Y93725000D03*
X66675000Y90425000D03*
X47625000Y93725000D03*
X47625000Y90425000D03*
X28575000Y93725000D03*
X28575000Y90425000D03*
D10*
G36*
X129416892Y83146576D02*
G01*
X129440553Y83143066D01*
X129463757Y83137254D01*
X129486279Y83129196D01*
X129507903Y83118968D01*
X129528420Y83106671D01*
X129547633Y83092421D01*
X129565357Y83076357D01*
X129581421Y83058633D01*
X129595671Y83039420D01*
X129607968Y83018903D01*
X129618196Y82997279D01*
X129626254Y82974757D01*
X129632066Y82951553D01*
X129635576Y82927892D01*
X129636750Y82904000D01*
X129636750Y82416500D01*
X129635576Y82392608D01*
X129632066Y82368947D01*
X129626254Y82345743D01*
X129618196Y82323221D01*
X129607968Y82301597D01*
X129595671Y82281080D01*
X129581421Y82261867D01*
X129565357Y82244143D01*
X129547633Y82228079D01*
X129528420Y82213829D01*
X129507903Y82201532D01*
X129486279Y82191304D01*
X129463757Y82183246D01*
X129440553Y82177434D01*
X129416892Y82173924D01*
X129393000Y82172750D01*
X128480500Y82172750D01*
X128456608Y82173924D01*
X128432947Y82177434D01*
X128409743Y82183246D01*
X128387221Y82191304D01*
X128365597Y82201532D01*
X128345080Y82213829D01*
X128325867Y82228079D01*
X128308143Y82244143D01*
X128292079Y82261867D01*
X128277829Y82281080D01*
X128265532Y82301597D01*
X128255304Y82323221D01*
X128247246Y82345743D01*
X128241434Y82368947D01*
X128237924Y82392608D01*
X128236750Y82416500D01*
X128236750Y82904000D01*
X128237924Y82927892D01*
X128241434Y82951553D01*
X128247246Y82974757D01*
X128255304Y82997279D01*
X128265532Y83018903D01*
X128277829Y83039420D01*
X128292079Y83058633D01*
X128308143Y83076357D01*
X128325867Y83092421D01*
X128345080Y83106671D01*
X128365597Y83118968D01*
X128387221Y83129196D01*
X128409743Y83137254D01*
X128432947Y83143066D01*
X128456608Y83146576D01*
X128480500Y83147750D01*
X129393000Y83147750D01*
X129416892Y83146576D01*
G37*
G36*
X129416892Y85021576D02*
G01*
X129440553Y85018066D01*
X129463757Y85012254D01*
X129486279Y85004196D01*
X129507903Y84993968D01*
X129528420Y84981671D01*
X129547633Y84967421D01*
X129565357Y84951357D01*
X129581421Y84933633D01*
X129595671Y84914420D01*
X129607968Y84893903D01*
X129618196Y84872279D01*
X129626254Y84849757D01*
X129632066Y84826553D01*
X129635576Y84802892D01*
X129636750Y84779000D01*
X129636750Y84291500D01*
X129635576Y84267608D01*
X129632066Y84243947D01*
X129626254Y84220743D01*
X129618196Y84198221D01*
X129607968Y84176597D01*
X129595671Y84156080D01*
X129581421Y84136867D01*
X129565357Y84119143D01*
X129547633Y84103079D01*
X129528420Y84088829D01*
X129507903Y84076532D01*
X129486279Y84066304D01*
X129463757Y84058246D01*
X129440553Y84052434D01*
X129416892Y84048924D01*
X129393000Y84047750D01*
X128480500Y84047750D01*
X128456608Y84048924D01*
X128432947Y84052434D01*
X128409743Y84058246D01*
X128387221Y84066304D01*
X128365597Y84076532D01*
X128345080Y84088829D01*
X128325867Y84103079D01*
X128308143Y84119143D01*
X128292079Y84136867D01*
X128277829Y84156080D01*
X128265532Y84176597D01*
X128255304Y84198221D01*
X128247246Y84220743D01*
X128241434Y84243947D01*
X128237924Y84267608D01*
X128236750Y84291500D01*
X128236750Y84779000D01*
X128237924Y84802892D01*
X128241434Y84826553D01*
X128247246Y84849757D01*
X128255304Y84872279D01*
X128265532Y84893903D01*
X128277829Y84914420D01*
X128292079Y84933633D01*
X128308143Y84951357D01*
X128325867Y84967421D01*
X128345080Y84981671D01*
X128365597Y84993968D01*
X128387221Y85004196D01*
X128409743Y85012254D01*
X128432947Y85018066D01*
X128456608Y85021576D01*
X128480500Y85022750D01*
X129393000Y85022750D01*
X129416892Y85021576D01*
G37*
G36*
X138523892Y65786326D02*
G01*
X138547553Y65782816D01*
X138570757Y65777004D01*
X138593279Y65768946D01*
X138614903Y65758718D01*
X138635420Y65746421D01*
X138654633Y65732171D01*
X138672357Y65716107D01*
X138688421Y65698383D01*
X138702671Y65679170D01*
X138714968Y65658653D01*
X138725196Y65637029D01*
X138733254Y65614507D01*
X138739066Y65591303D01*
X138742576Y65567642D01*
X138743750Y65543750D01*
X138743750Y64631250D01*
X138742576Y64607358D01*
X138739066Y64583697D01*
X138733254Y64560493D01*
X138725196Y64537971D01*
X138714968Y64516347D01*
X138702671Y64495830D01*
X138688421Y64476617D01*
X138672357Y64458893D01*
X138654633Y64442829D01*
X138635420Y64428579D01*
X138614903Y64416282D01*
X138593279Y64406054D01*
X138570757Y64397996D01*
X138547553Y64392184D01*
X138523892Y64388674D01*
X138500000Y64387500D01*
X138012500Y64387500D01*
X137988608Y64388674D01*
X137964947Y64392184D01*
X137941743Y64397996D01*
X137919221Y64406054D01*
X137897597Y64416282D01*
X137877080Y64428579D01*
X137857867Y64442829D01*
X137840143Y64458893D01*
X137824079Y64476617D01*
X137809829Y64495830D01*
X137797532Y64516347D01*
X137787304Y64537971D01*
X137779246Y64560493D01*
X137773434Y64583697D01*
X137769924Y64607358D01*
X137768750Y64631250D01*
X137768750Y65543750D01*
X137769924Y65567642D01*
X137773434Y65591303D01*
X137779246Y65614507D01*
X137787304Y65637029D01*
X137797532Y65658653D01*
X137809829Y65679170D01*
X137824079Y65698383D01*
X137840143Y65716107D01*
X137857867Y65732171D01*
X137877080Y65746421D01*
X137897597Y65758718D01*
X137919221Y65768946D01*
X137941743Y65777004D01*
X137964947Y65782816D01*
X137988608Y65786326D01*
X138012500Y65787500D01*
X138500000Y65787500D01*
X138523892Y65786326D01*
G37*
G36*
X136648892Y65786326D02*
G01*
X136672553Y65782816D01*
X136695757Y65777004D01*
X136718279Y65768946D01*
X136739903Y65758718D01*
X136760420Y65746421D01*
X136779633Y65732171D01*
X136797357Y65716107D01*
X136813421Y65698383D01*
X136827671Y65679170D01*
X136839968Y65658653D01*
X136850196Y65637029D01*
X136858254Y65614507D01*
X136864066Y65591303D01*
X136867576Y65567642D01*
X136868750Y65543750D01*
X136868750Y64631250D01*
X136867576Y64607358D01*
X136864066Y64583697D01*
X136858254Y64560493D01*
X136850196Y64537971D01*
X136839968Y64516347D01*
X136827671Y64495830D01*
X136813421Y64476617D01*
X136797357Y64458893D01*
X136779633Y64442829D01*
X136760420Y64428579D01*
X136739903Y64416282D01*
X136718279Y64406054D01*
X136695757Y64397996D01*
X136672553Y64392184D01*
X136648892Y64388674D01*
X136625000Y64387500D01*
X136137500Y64387500D01*
X136113608Y64388674D01*
X136089947Y64392184D01*
X136066743Y64397996D01*
X136044221Y64406054D01*
X136022597Y64416282D01*
X136002080Y64428579D01*
X135982867Y64442829D01*
X135965143Y64458893D01*
X135949079Y64476617D01*
X135934829Y64495830D01*
X135922532Y64516347D01*
X135912304Y64537971D01*
X135904246Y64560493D01*
X135898434Y64583697D01*
X135894924Y64607358D01*
X135893750Y64631250D01*
X135893750Y65543750D01*
X135894924Y65567642D01*
X135898434Y65591303D01*
X135904246Y65614507D01*
X135912304Y65637029D01*
X135922532Y65658653D01*
X135934829Y65679170D01*
X135949079Y65698383D01*
X135965143Y65716107D01*
X135982867Y65732171D01*
X136002080Y65746421D01*
X136022597Y65758718D01*
X136044221Y65768946D01*
X136066743Y65777004D01*
X136089947Y65782816D01*
X136113608Y65786326D01*
X136137500Y65787500D01*
X136625000Y65787500D01*
X136648892Y65786326D01*
G37*
G36*
X142561392Y78923826D02*
G01*
X142585053Y78920316D01*
X142608257Y78914504D01*
X142630779Y78906446D01*
X142652403Y78896218D01*
X142672920Y78883921D01*
X142692133Y78869671D01*
X142709857Y78853607D01*
X142725921Y78835883D01*
X142740171Y78816670D01*
X142752468Y78796153D01*
X142762696Y78774529D01*
X142770754Y78752007D01*
X142776566Y78728803D01*
X142780076Y78705142D01*
X142781250Y78681250D01*
X142781250Y78193750D01*
X142780076Y78169858D01*
X142776566Y78146197D01*
X142770754Y78122993D01*
X142762696Y78100471D01*
X142752468Y78078847D01*
X142740171Y78058330D01*
X142725921Y78039117D01*
X142709857Y78021393D01*
X142692133Y78005329D01*
X142672920Y77991079D01*
X142652403Y77978782D01*
X142630779Y77968554D01*
X142608257Y77960496D01*
X142585053Y77954684D01*
X142561392Y77951174D01*
X142537500Y77950000D01*
X141625000Y77950000D01*
X141601108Y77951174D01*
X141577447Y77954684D01*
X141554243Y77960496D01*
X141531721Y77968554D01*
X141510097Y77978782D01*
X141489580Y77991079D01*
X141470367Y78005329D01*
X141452643Y78021393D01*
X141436579Y78039117D01*
X141422329Y78058330D01*
X141410032Y78078847D01*
X141399804Y78100471D01*
X141391746Y78122993D01*
X141385934Y78146197D01*
X141382424Y78169858D01*
X141381250Y78193750D01*
X141381250Y78681250D01*
X141382424Y78705142D01*
X141385934Y78728803D01*
X141391746Y78752007D01*
X141399804Y78774529D01*
X141410032Y78796153D01*
X141422329Y78816670D01*
X141436579Y78835883D01*
X141452643Y78853607D01*
X141470367Y78869671D01*
X141489580Y78883921D01*
X141510097Y78896218D01*
X141531721Y78906446D01*
X141554243Y78914504D01*
X141577447Y78920316D01*
X141601108Y78923826D01*
X141625000Y78925000D01*
X142537500Y78925000D01*
X142561392Y78923826D01*
G37*
G36*
X142561392Y80798826D02*
G01*
X142585053Y80795316D01*
X142608257Y80789504D01*
X142630779Y80781446D01*
X142652403Y80771218D01*
X142672920Y80758921D01*
X142692133Y80744671D01*
X142709857Y80728607D01*
X142725921Y80710883D01*
X142740171Y80691670D01*
X142752468Y80671153D01*
X142762696Y80649529D01*
X142770754Y80627007D01*
X142776566Y80603803D01*
X142780076Y80580142D01*
X142781250Y80556250D01*
X142781250Y80068750D01*
X142780076Y80044858D01*
X142776566Y80021197D01*
X142770754Y79997993D01*
X142762696Y79975471D01*
X142752468Y79953847D01*
X142740171Y79933330D01*
X142725921Y79914117D01*
X142709857Y79896393D01*
X142692133Y79880329D01*
X142672920Y79866079D01*
X142652403Y79853782D01*
X142630779Y79843554D01*
X142608257Y79835496D01*
X142585053Y79829684D01*
X142561392Y79826174D01*
X142537500Y79825000D01*
X141625000Y79825000D01*
X141601108Y79826174D01*
X141577447Y79829684D01*
X141554243Y79835496D01*
X141531721Y79843554D01*
X141510097Y79853782D01*
X141489580Y79866079D01*
X141470367Y79880329D01*
X141452643Y79896393D01*
X141436579Y79914117D01*
X141422329Y79933330D01*
X141410032Y79953847D01*
X141399804Y79975471D01*
X141391746Y79997993D01*
X141385934Y80021197D01*
X141382424Y80044858D01*
X141381250Y80068750D01*
X141381250Y80556250D01*
X141382424Y80580142D01*
X141385934Y80603803D01*
X141391746Y80627007D01*
X141399804Y80649529D01*
X141410032Y80671153D01*
X141422329Y80691670D01*
X141436579Y80710883D01*
X141452643Y80728607D01*
X141470367Y80744671D01*
X141489580Y80758921D01*
X141510097Y80771218D01*
X141531721Y80781446D01*
X141554243Y80789504D01*
X141577447Y80795316D01*
X141601108Y80798826D01*
X141625000Y80800000D01*
X142537500Y80800000D01*
X142561392Y80798826D01*
G37*
G36*
X123511392Y77336326D02*
G01*
X123535053Y77332816D01*
X123558257Y77327004D01*
X123580779Y77318946D01*
X123602403Y77308718D01*
X123622920Y77296421D01*
X123642133Y77282171D01*
X123659857Y77266107D01*
X123675921Y77248383D01*
X123690171Y77229170D01*
X123702468Y77208653D01*
X123712696Y77187029D01*
X123720754Y77164507D01*
X123726566Y77141303D01*
X123730076Y77117642D01*
X123731250Y77093750D01*
X123731250Y76606250D01*
X123730076Y76582358D01*
X123726566Y76558697D01*
X123720754Y76535493D01*
X123712696Y76512971D01*
X123702468Y76491347D01*
X123690171Y76470830D01*
X123675921Y76451617D01*
X123659857Y76433893D01*
X123642133Y76417829D01*
X123622920Y76403579D01*
X123602403Y76391282D01*
X123580779Y76381054D01*
X123558257Y76372996D01*
X123535053Y76367184D01*
X123511392Y76363674D01*
X123487500Y76362500D01*
X122575000Y76362500D01*
X122551108Y76363674D01*
X122527447Y76367184D01*
X122504243Y76372996D01*
X122481721Y76381054D01*
X122460097Y76391282D01*
X122439580Y76403579D01*
X122420367Y76417829D01*
X122402643Y76433893D01*
X122386579Y76451617D01*
X122372329Y76470830D01*
X122360032Y76491347D01*
X122349804Y76512971D01*
X122341746Y76535493D01*
X122335934Y76558697D01*
X122332424Y76582358D01*
X122331250Y76606250D01*
X122331250Y77093750D01*
X122332424Y77117642D01*
X122335934Y77141303D01*
X122341746Y77164507D01*
X122349804Y77187029D01*
X122360032Y77208653D01*
X122372329Y77229170D01*
X122386579Y77248383D01*
X122402643Y77266107D01*
X122420367Y77282171D01*
X122439580Y77296421D01*
X122460097Y77308718D01*
X122481721Y77318946D01*
X122504243Y77327004D01*
X122527447Y77332816D01*
X122551108Y77336326D01*
X122575000Y77337500D01*
X123487500Y77337500D01*
X123511392Y77336326D01*
G37*
G36*
X123511392Y79211326D02*
G01*
X123535053Y79207816D01*
X123558257Y79202004D01*
X123580779Y79193946D01*
X123602403Y79183718D01*
X123622920Y79171421D01*
X123642133Y79157171D01*
X123659857Y79141107D01*
X123675921Y79123383D01*
X123690171Y79104170D01*
X123702468Y79083653D01*
X123712696Y79062029D01*
X123720754Y79039507D01*
X123726566Y79016303D01*
X123730076Y78992642D01*
X123731250Y78968750D01*
X123731250Y78481250D01*
X123730076Y78457358D01*
X123726566Y78433697D01*
X123720754Y78410493D01*
X123712696Y78387971D01*
X123702468Y78366347D01*
X123690171Y78345830D01*
X123675921Y78326617D01*
X123659857Y78308893D01*
X123642133Y78292829D01*
X123622920Y78278579D01*
X123602403Y78266282D01*
X123580779Y78256054D01*
X123558257Y78247996D01*
X123535053Y78242184D01*
X123511392Y78238674D01*
X123487500Y78237500D01*
X122575000Y78237500D01*
X122551108Y78238674D01*
X122527447Y78242184D01*
X122504243Y78247996D01*
X122481721Y78256054D01*
X122460097Y78266282D01*
X122439580Y78278579D01*
X122420367Y78292829D01*
X122402643Y78308893D01*
X122386579Y78326617D01*
X122372329Y78345830D01*
X122360032Y78366347D01*
X122349804Y78387971D01*
X122341746Y78410493D01*
X122335934Y78433697D01*
X122332424Y78457358D01*
X122331250Y78481250D01*
X122331250Y78968750D01*
X122332424Y78992642D01*
X122335934Y79016303D01*
X122341746Y79039507D01*
X122349804Y79062029D01*
X122360032Y79083653D01*
X122372329Y79104170D01*
X122386579Y79123383D01*
X122402643Y79141107D01*
X122420367Y79157171D01*
X122439580Y79171421D01*
X122460097Y79183718D01*
X122481721Y79193946D01*
X122504243Y79202004D01*
X122527447Y79207816D01*
X122551108Y79211326D01*
X122575000Y79212500D01*
X123487500Y79212500D01*
X123511392Y79211326D01*
G37*
G36*
X132015142Y88328826D02*
G01*
X132038803Y88325316D01*
X132062007Y88319504D01*
X132084529Y88311446D01*
X132106153Y88301218D01*
X132126670Y88288921D01*
X132145883Y88274671D01*
X132163607Y88258607D01*
X132179671Y88240883D01*
X132193921Y88221670D01*
X132206218Y88201153D01*
X132216446Y88179529D01*
X132224504Y88157007D01*
X132230316Y88133803D01*
X132233826Y88110142D01*
X132235000Y88086250D01*
X132235000Y87173750D01*
X132233826Y87149858D01*
X132230316Y87126197D01*
X132224504Y87102993D01*
X132216446Y87080471D01*
X132206218Y87058847D01*
X132193921Y87038330D01*
X132179671Y87019117D01*
X132163607Y87001393D01*
X132145883Y86985329D01*
X132126670Y86971079D01*
X132106153Y86958782D01*
X132084529Y86948554D01*
X132062007Y86940496D01*
X132038803Y86934684D01*
X132015142Y86931174D01*
X131991250Y86930000D01*
X131503750Y86930000D01*
X131479858Y86931174D01*
X131456197Y86934684D01*
X131432993Y86940496D01*
X131410471Y86948554D01*
X131388847Y86958782D01*
X131368330Y86971079D01*
X131349117Y86985329D01*
X131331393Y87001393D01*
X131315329Y87019117D01*
X131301079Y87038330D01*
X131288782Y87058847D01*
X131278554Y87080471D01*
X131270496Y87102993D01*
X131264684Y87126197D01*
X131261174Y87149858D01*
X131260000Y87173750D01*
X131260000Y88086250D01*
X131261174Y88110142D01*
X131264684Y88133803D01*
X131270496Y88157007D01*
X131278554Y88179529D01*
X131288782Y88201153D01*
X131301079Y88221670D01*
X131315329Y88240883D01*
X131331393Y88258607D01*
X131349117Y88274671D01*
X131368330Y88288921D01*
X131388847Y88301218D01*
X131410471Y88311446D01*
X131432993Y88319504D01*
X131456197Y88325316D01*
X131479858Y88328826D01*
X131503750Y88330000D01*
X131991250Y88330000D01*
X132015142Y88328826D01*
G37*
G36*
X130140142Y88328826D02*
G01*
X130163803Y88325316D01*
X130187007Y88319504D01*
X130209529Y88311446D01*
X130231153Y88301218D01*
X130251670Y88288921D01*
X130270883Y88274671D01*
X130288607Y88258607D01*
X130304671Y88240883D01*
X130318921Y88221670D01*
X130331218Y88201153D01*
X130341446Y88179529D01*
X130349504Y88157007D01*
X130355316Y88133803D01*
X130358826Y88110142D01*
X130360000Y88086250D01*
X130360000Y87173750D01*
X130358826Y87149858D01*
X130355316Y87126197D01*
X130349504Y87102993D01*
X130341446Y87080471D01*
X130331218Y87058847D01*
X130318921Y87038330D01*
X130304671Y87019117D01*
X130288607Y87001393D01*
X130270883Y86985329D01*
X130251670Y86971079D01*
X130231153Y86958782D01*
X130209529Y86948554D01*
X130187007Y86940496D01*
X130163803Y86934684D01*
X130140142Y86931174D01*
X130116250Y86930000D01*
X129628750Y86930000D01*
X129604858Y86931174D01*
X129581197Y86934684D01*
X129557993Y86940496D01*
X129535471Y86948554D01*
X129513847Y86958782D01*
X129493330Y86971079D01*
X129474117Y86985329D01*
X129456393Y87001393D01*
X129440329Y87019117D01*
X129426079Y87038330D01*
X129413782Y87058847D01*
X129403554Y87080471D01*
X129395496Y87102993D01*
X129389684Y87126197D01*
X129386174Y87149858D01*
X129385000Y87173750D01*
X129385000Y88086250D01*
X129386174Y88110142D01*
X129389684Y88133803D01*
X129395496Y88157007D01*
X129403554Y88179529D01*
X129413782Y88201153D01*
X129426079Y88221670D01*
X129440329Y88240883D01*
X129456393Y88258607D01*
X129474117Y88274671D01*
X129493330Y88288921D01*
X129513847Y88301218D01*
X129535471Y88311446D01*
X129557993Y88319504D01*
X129581197Y88325316D01*
X129604858Y88328826D01*
X129628750Y88330000D01*
X130116250Y88330000D01*
X130140142Y88328826D01*
G37*
G36*
X139672142Y84175153D02*
G01*
X139695803Y84171643D01*
X139719007Y84165831D01*
X139741529Y84157773D01*
X139763153Y84147545D01*
X139783670Y84135248D01*
X139802883Y84120998D01*
X139820607Y84104934D01*
X139836671Y84087210D01*
X139850921Y84067997D01*
X139863218Y84047480D01*
X139873446Y84025856D01*
X139881504Y84003334D01*
X139887316Y83980130D01*
X139890826Y83956469D01*
X139892000Y83932577D01*
X139892000Y83445077D01*
X139890826Y83421185D01*
X139887316Y83397524D01*
X139881504Y83374320D01*
X139873446Y83351798D01*
X139863218Y83330174D01*
X139850921Y83309657D01*
X139836671Y83290444D01*
X139820607Y83272720D01*
X139802883Y83256656D01*
X139783670Y83242406D01*
X139763153Y83230109D01*
X139741529Y83219881D01*
X139719007Y83211823D01*
X139695803Y83206011D01*
X139672142Y83202501D01*
X139648250Y83201327D01*
X138735750Y83201327D01*
X138711858Y83202501D01*
X138688197Y83206011D01*
X138664993Y83211823D01*
X138642471Y83219881D01*
X138620847Y83230109D01*
X138600330Y83242406D01*
X138581117Y83256656D01*
X138563393Y83272720D01*
X138547329Y83290444D01*
X138533079Y83309657D01*
X138520782Y83330174D01*
X138510554Y83351798D01*
X138502496Y83374320D01*
X138496684Y83397524D01*
X138493174Y83421185D01*
X138492000Y83445077D01*
X138492000Y83932577D01*
X138493174Y83956469D01*
X138496684Y83980130D01*
X138502496Y84003334D01*
X138510554Y84025856D01*
X138520782Y84047480D01*
X138533079Y84067997D01*
X138547329Y84087210D01*
X138563393Y84104934D01*
X138581117Y84120998D01*
X138600330Y84135248D01*
X138620847Y84147545D01*
X138642471Y84157773D01*
X138664993Y84165831D01*
X138688197Y84171643D01*
X138711858Y84175153D01*
X138735750Y84176327D01*
X139648250Y84176327D01*
X139672142Y84175153D01*
G37*
G36*
X139672142Y86050153D02*
G01*
X139695803Y86046643D01*
X139719007Y86040831D01*
X139741529Y86032773D01*
X139763153Y86022545D01*
X139783670Y86010248D01*
X139802883Y85995998D01*
X139820607Y85979934D01*
X139836671Y85962210D01*
X139850921Y85942997D01*
X139863218Y85922480D01*
X139873446Y85900856D01*
X139881504Y85878334D01*
X139887316Y85855130D01*
X139890826Y85831469D01*
X139892000Y85807577D01*
X139892000Y85320077D01*
X139890826Y85296185D01*
X139887316Y85272524D01*
X139881504Y85249320D01*
X139873446Y85226798D01*
X139863218Y85205174D01*
X139850921Y85184657D01*
X139836671Y85165444D01*
X139820607Y85147720D01*
X139802883Y85131656D01*
X139783670Y85117406D01*
X139763153Y85105109D01*
X139741529Y85094881D01*
X139719007Y85086823D01*
X139695803Y85081011D01*
X139672142Y85077501D01*
X139648250Y85076327D01*
X138735750Y85076327D01*
X138711858Y85077501D01*
X138688197Y85081011D01*
X138664993Y85086823D01*
X138642471Y85094881D01*
X138620847Y85105109D01*
X138600330Y85117406D01*
X138581117Y85131656D01*
X138563393Y85147720D01*
X138547329Y85165444D01*
X138533079Y85184657D01*
X138520782Y85205174D01*
X138510554Y85226798D01*
X138502496Y85249320D01*
X138496684Y85272524D01*
X138493174Y85296185D01*
X138492000Y85320077D01*
X138492000Y85807577D01*
X138493174Y85831469D01*
X138496684Y85855130D01*
X138502496Y85878334D01*
X138510554Y85900856D01*
X138520782Y85922480D01*
X138533079Y85942997D01*
X138547329Y85962210D01*
X138563393Y85979934D01*
X138581117Y85995998D01*
X138600330Y86010248D01*
X138620847Y86022545D01*
X138642471Y86032773D01*
X138664993Y86040831D01*
X138688197Y86046643D01*
X138711858Y86050153D01*
X138735750Y86051327D01*
X139648250Y86051327D01*
X139672142Y86050153D01*
G37*
M02*
