M48
; DRILL file {KiCad (5.1.5-0-10_14)} date 2020 September 15, Tuesday 13:12:46
; FORMAT={-:-/ absolute / inch / decimal}
; #@! TF.CreationDate,2020-09-15T13:12:46+02:00
; #@! TF.GenerationSoftware,Kicad,Pcbnew,(5.1.5-0-10_14)
; #@! TF.FileFunction,Plated,1,2,PTH
FMAT,2
INCH
T1C0.0079
T2C0.0157
T3C0.0236
T4C0.0394
T5C0.0579
T6C0.0591
T7C0.1260
%
G90
G05
T1
X3.8669Y-1.6169
X3.8669Y-1.6562
X3.8669Y-1.6956
X3.9062Y-1.6169
X3.9062Y-1.6562
X3.9062Y-1.6956
X3.9456Y-1.6169
X3.9456Y-1.6562
X3.9456Y-1.6956
T2
X1.13Y-3.15
X1.8812Y-3.1938
X2.6313Y-3.234
X3.1775Y-0.81
X3.205Y-1.525
X3.205Y-3.055
X3.2163Y-0.65
X3.2763Y-0.65
X3.2825Y-0.855
X3.3625Y-0.83
X3.38Y-3.255
X3.3975Y-0.83
X3.4684Y-0.8373
X3.47Y-1.675
X3.5263Y-0.855
X3.5938Y-1.4375
X3.6255Y-0.988
X3.64Y-2.39
X3.6575Y-0.83
X3.67Y-2.4914
X3.6778Y-1.9678
X3.68Y-2.165
X3.735Y-1.75
X3.77Y-1.62
X3.78Y-1.4
X3.805Y-1.75
X3.805Y-2.03
X3.825Y-2.375
X3.965Y-1.375
X4.0391Y-1.5839
X4.045Y-1.44
X4.06Y-1.87
X4.0938Y-2.0938
X4.13Y-3.155
X4.135Y-1.435
X4.15Y-1.86
X4.165Y-1.8
X4.165Y-2.4914
X4.192Y-1.458
X4.2Y-2.0938
X4.205Y-1.61
X4.2188Y-2.4375
X4.335Y-1.455
X4.41Y-1.65
X4.6875Y-2.7812
X4.715Y-2.945
X4.75Y-2.7812
X4.7625Y-3.04
X4.7875Y-2.44
X4.7975Y-3.0938
X4.8438Y-2.4375
X5.095Y-2.495
X5.1725Y-2.405
X5.19Y-3.13
X5.2975Y-3.085
X5.3768Y-2.7894
X5.47Y-0.65
X5.4813Y-2.685
X5.5263Y-2.95
X5.53Y-0.65
X5.5362Y-2.88
X5.5512Y-2.695
X5.5938Y-2.9062
X5.625Y-2.625
X5.655Y-0.835
X5.6562Y-2.9062
X5.7822Y-0.855
X5.91Y-0.835
X5.98Y-1.09
X6.045Y-0.845
T4
X5.8666Y-2.3031
X5.8666Y-2.5
X6.4375Y-2.3031
X6.4375Y-2.4016
X6.4375Y-2.5
T5
X3.3813Y-2.6812
X3.6313Y-2.5812
X1.1312Y-2.6812
X1.3812Y-2.5812
X2.6313Y-1.1812
X2.8813Y-1.0813
X3.3813Y-3.4312
X3.6313Y-3.3312
X2.6313Y-1.9312
X2.8813Y-1.8313
X1.8812Y-4.1812
X2.1313Y-4.0812
X1.1312Y-3.4312
X1.3812Y-3.3312
X1.8812Y-1.1812
X2.1313Y-1.0813
X2.6313Y-3.4312
X2.8813Y-3.3312
X2.6313Y-2.6812
X2.8813Y-2.5812
X1.1312Y-1.9312
X1.3812Y-1.8313
X1.1312Y-1.1812
X1.3812Y-1.0813
X1.8812Y-1.9312
X2.1313Y-1.8313
X1.1312Y-4.1812
X1.3812Y-4.0812
X4.1312Y-1.1812
X4.3812Y-1.0813
X4.8812Y-1.9312
X5.1312Y-1.8313
X4.8812Y-1.1812
X5.1312Y-1.0813
X4.1312Y-1.9312
X4.3812Y-1.8313
X1.8812Y-3.4312
X2.1313Y-3.3312
X1.8812Y-2.6812
X2.1313Y-2.5812
X5.6312Y-1.1812
X5.8812Y-1.0813
X2.6313Y-4.1812
X2.8813Y-4.0812
X4.1312Y-2.6812
X4.3812Y-2.5812
X3.3813Y-1.1812
X3.6313Y-1.0813
X3.3813Y-1.9312
X3.6313Y-1.8313
T7
X6.6189Y-5.0636
X6.6189Y-0.617
X0.6405Y-5.0636
X0.6399Y-0.6185
T3
G00X3.3582Y-0.5763
M15
G01X3.3582Y-0.5999
M16
G05
G00X3.3582Y-0.7318
M15
G01X3.3582Y-0.7751
M16
G05
G00X3.6968Y-0.5763
M15
G01X3.6968Y-0.5999
M16
G05
G00X3.6968Y-0.7318
M15
G01X3.6968Y-0.7751
M16
G05
G00X5.612Y-0.5763
M15
G01X5.612Y-0.5999
M16
G05
G00X5.612Y-0.7318
M15
G01X5.612Y-0.7751
M16
G05
G00X5.9505Y-0.5763
M15
G01X5.9505Y-0.5999
M16
G05
G00X5.9505Y-0.7318
M15
G01X5.9505Y-0.7751
M16
G05
T6
G00X6.1678Y-2.1811
M15
G01X6.1166Y-2.1811
M16
G05
G00X6.1678Y-2.622
M15
G01X6.1166Y-2.622
M16
G05
T0
M30
