G04 #@! TF.GenerationSoftware,KiCad,Pcbnew,(5.1.5-0-10_14)*
G04 #@! TF.CreationDate,2020-07-14T10:27:18+02:00*
G04 #@! TF.ProjectId,Trigon,54726967-6f6e-42e6-9b69-6361645f7063,rev?*
G04 #@! TF.SameCoordinates,Original*
G04 #@! TF.FileFunction,Copper,L1,Top*
G04 #@! TF.FilePolarity,Positive*
%FSLAX46Y46*%
G04 Gerber Fmt 4.6, Leading zero omitted, Abs format (unit mm)*
G04 Created by KiCad (PCBNEW (5.1.5-0-10_14)) date 2020-07-14 10:27:18*
%MOMM*%
%LPD*%
G04 APERTURE LIST*
%ADD10C,2.250000*%
%ADD11O,1.100000X2.200000*%
%ADD12O,1.300000X1.900000*%
%ADD13R,2.000000X2.000000*%
%ADD14C,2.000000*%
%ADD15R,3.000000X2.500000*%
%ADD16C,0.800000*%
%ADD17C,0.254000*%
%ADD18C,0.381000*%
G04 APERTURE END LIST*
D10*
X111283750Y-46513750D03*
X104933750Y-49053750D03*
D11*
X93993750Y-18343750D03*
D12*
X93993750Y-14143750D03*
X85393750Y-14143750D03*
D11*
X85393750Y-18343750D03*
D10*
X35083750Y-27463750D03*
X28733750Y-30003750D03*
X73183750Y-103663750D03*
X66833750Y-106203750D03*
X54133750Y-103663750D03*
X47783750Y-106203750D03*
X35083750Y-103663750D03*
X28733750Y-106203750D03*
X92233750Y-84613750D03*
X85883750Y-87153750D03*
X73183750Y-84613750D03*
X66833750Y-87153750D03*
X54133750Y-84613750D03*
X47783750Y-87153750D03*
X35083750Y-84613750D03*
X28733750Y-87153750D03*
X111283750Y-65563750D03*
X104933750Y-68103750D03*
X92233750Y-65563750D03*
X85883750Y-68103750D03*
X73183750Y-65563750D03*
X66833750Y-68103750D03*
X54133750Y-65563750D03*
X47783750Y-68103750D03*
X35083750Y-65563750D03*
X28733750Y-68103750D03*
X130333750Y-46513750D03*
X123983750Y-49053750D03*
X92233750Y-46513750D03*
X85883750Y-49053750D03*
X73183750Y-46513750D03*
X66833750Y-49053750D03*
X54133750Y-46513750D03*
X47783750Y-49053750D03*
X35083750Y-46513750D03*
X28733750Y-49053750D03*
X149383750Y-27463750D03*
X143033750Y-30003750D03*
X130333750Y-27463750D03*
X123983750Y-30003750D03*
X111283750Y-27463750D03*
X104933750Y-30003750D03*
X92233750Y-27463750D03*
X85883750Y-30003750D03*
X73183750Y-27463750D03*
X66833750Y-30003750D03*
X54133750Y-27463750D03*
X47783750Y-30003750D03*
D13*
X153987500Y-73025000D03*
D14*
X153987500Y-70525000D03*
X153987500Y-68025000D03*
D15*
X146487500Y-76125000D03*
X146487500Y-64925000D03*
D14*
X139487500Y-73025000D03*
X139487500Y-68025000D03*
D16*
X131762500Y-57150000D03*
X131762500Y-66675000D03*
X63277750Y-113569750D03*
X63277750Y-99472750D03*
X28733750Y-100996750D03*
X47783750Y-100234750D03*
X66833750Y-98745750D03*
X85883750Y-98018750D03*
X104933750Y-93791750D03*
X123983750Y-80619721D03*
X101631750Y-61229749D03*
X153320750Y-62769750D03*
X139223750Y-60229750D03*
X142398750Y-46386750D03*
X139223758Y-53117750D03*
X157162500Y-49212500D03*
X101600000Y-25400000D03*
X90185753Y-26066750D03*
X99911969Y-59071674D03*
X89185750Y-26066750D03*
X99948994Y-60071000D03*
X138045750Y-41433750D03*
X141763750Y-21748750D03*
D17*
X131762500Y-57150000D02*
X131762500Y-66675000D01*
X63277750Y-113569750D02*
X63277750Y-99472750D01*
X28733750Y-30003750D02*
X28733750Y-31594740D01*
X28733750Y-31594740D02*
X28733750Y-101123750D01*
X28733750Y-101123750D02*
X28733750Y-100996750D01*
X28733750Y-101123750D02*
X28733750Y-106203750D01*
X47783750Y-30003750D02*
X47783750Y-90202712D01*
X47783750Y-90202712D02*
X47783750Y-100234750D01*
X47783750Y-100234750D02*
X47783750Y-106203750D01*
X66833750Y-99472750D02*
X66833750Y-106203750D01*
X66833750Y-99091750D02*
X66833750Y-98745750D01*
X66833750Y-30003750D02*
X66833750Y-99091750D01*
X66833750Y-99091750D02*
X66833750Y-99472750D01*
X85883750Y-30003750D02*
X85883750Y-87153750D01*
X85883750Y-87153750D02*
X85883750Y-98018750D01*
X104933750Y-30003750D02*
X104933750Y-93791750D01*
X123983750Y-31594740D02*
X123983750Y-49053750D01*
X123983750Y-30003750D02*
X123983750Y-31594740D01*
X123983750Y-60991750D02*
X123983750Y-61342250D01*
X123983750Y-49053750D02*
X123983750Y-60991750D01*
X123983750Y-74834750D02*
X123983750Y-74707750D01*
X124032000Y-68025000D02*
X139487500Y-68025000D01*
X123983750Y-67976750D02*
X124032000Y-68025000D01*
X123983750Y-74834750D02*
X123983750Y-67976750D01*
X123983750Y-67976750D02*
X123983750Y-60991750D01*
X123983750Y-76993750D02*
X123983750Y-76612750D01*
X123983750Y-76612750D02*
X123983750Y-74834750D01*
X123983750Y-76612750D02*
X123983750Y-80168750D01*
X123983750Y-80168750D02*
X123983750Y-80349741D01*
X123983750Y-80349741D02*
X123983750Y-80619721D01*
D18*
X139223750Y-60795435D02*
X141198065Y-62769750D01*
X139223750Y-60229750D02*
X139223750Y-60795435D01*
X147351750Y-62769750D02*
X153320750Y-62769750D01*
X141198065Y-62769750D02*
X147351750Y-62769750D01*
X139223750Y-49561750D02*
X142398750Y-46386750D01*
X139223750Y-60229750D02*
X139223750Y-53117750D01*
X139223750Y-53117750D02*
X139223750Y-49561750D01*
X139223750Y-53117750D02*
X139223758Y-53117750D01*
X153320750Y-62769750D02*
X155511500Y-62769750D01*
X157162500Y-61118750D02*
X157162500Y-49212500D01*
X155511500Y-62769750D02*
X157162500Y-61118750D01*
X101600000Y-61197999D02*
X101631750Y-61229749D01*
X101600000Y-25400000D02*
X101600000Y-61197999D01*
D17*
X99911969Y-58505989D02*
X99911969Y-59071674D01*
X99911969Y-47968969D02*
X99911969Y-58505989D01*
X90185753Y-28527253D02*
X93249750Y-31591250D01*
X93249750Y-41306750D02*
X99911969Y-47968969D01*
X90185753Y-26066750D02*
X90185753Y-28527253D01*
X93249750Y-31591250D02*
X93249750Y-41306750D01*
X92741750Y-31908750D02*
X92741750Y-41624250D01*
X89185750Y-28352750D02*
X92741750Y-31908750D01*
X99383309Y-60071000D02*
X99948994Y-60071000D01*
X99167999Y-48050499D02*
X99167999Y-59855690D01*
X89185750Y-26066750D02*
X89185750Y-28352750D01*
X99167999Y-59855690D02*
X99383309Y-60071000D01*
X92741750Y-41624250D02*
X99167999Y-48050499D01*
X138045750Y-25466750D02*
X141763750Y-21748750D01*
X138045750Y-25593750D02*
X138045750Y-25466750D01*
X138045750Y-41433750D02*
X138045750Y-25593750D01*
M02*
