  0
SECTION
  2
HEADER
  9
$ANGBASE
  50
0.0
  9
$ANGDIR
  70
1
  9
$MEASUREMENT
  70
0
  0
ENDSEC
  0
SECTION
  2
TABLES
  0
TABLE
  2
LTYPE
  70
4
  0
LTYPE
  5
40F
  2
CONTINUOUS
  70
0
  3
Solid line
  72
65
  73
0
  40
0.0
  0
LTYPE
  5
410
  2
DASHDOT
 70
0
  3
Dash Dot ____ _ ____ _
 72
65
 73
4
 40
2.0
 49
1.25
 49
-0.25
 49
0.25
 49
-0.25
  0
LTYPE
  5
411
  2
DASHED
 70
0
  3
Dashed __ __ __ __ __
 72
65
 73
2
 40
0.75
 49
0.5
 49
-0.25
  0
LTYPE
  5
43B
  2
DOTTED
 70
0
  3
Dotted .  .  .  .
 72
65
 73
2
 40
0.2
 49
0.0
 49
-0.2
  0
ENDTAB
  0
TABLE
  2
STYLE
  70
4
  0
STYLE
  2
KICAD
  70
0
  40
0
  41
1
  42
1
  50
0
  71
0
  3
isocp.shx
  0
STYLE
  2
KICADB
  70
0
  40
0
  41
1
  42
1
  50
0
  71
0
  3
isocp.shx
  0
STYLE
  2
KICADI
  70
0
  40
0
  41
1
  42
1
  50
15
  71
0
  3
isocp.shx
  0
STYLE
  2
KICADBI
  70
0
  40
0
  41
1
  42
1
  50
15
  71
0
  3
isocp.shx
  0
ENDTAB
  0
TABLE
  2
LAYER
  70
1
  0
LAYER
  2
BLACK
  70
0
  62
7
  6
CONTINUOUS
  0
ENDTAB
  0
ENDSEC
  0
SECTION
  2
ENTITIES
0
LINE
8
BLACK
6
CONTINUOUS
10
6.54375
20
-0.474427
11
6.5823
21
-0.477597
0
LINE
8
BLACK
6
CONTINUOUS
10
6.5823
20
-0.477597
11
6.5824
21
-0.477606
0
LINE
8
BLACK
6
CONTINUOUS
10
6.5824
20
-0.477606
11
6.58267
21
-0.477657
0
LINE
8
BLACK
6
CONTINUOUS
10
6.58267
20
-0.477657
11
6.58294
21
-0.477702
0
LINE
8
BLACK
6
CONTINUOUS
10
6.58294
20
-0.477702
11
6.62048
21
-0.487133
0
LINE
8
BLACK
6
CONTINUOUS
10
6.62048
20
-0.487133
11
6.62058
21
-0.487157
0
LINE
8
BLACK
6
CONTINUOUS
10
6.62058
20
-0.487157
11
6.62083
21
-0.487252
0
LINE
8
BLACK
6
CONTINUOUS
10
6.62083
20
-0.487252
11
6.62109
21
-0.487341
0
LINE
8
BLACK
6
CONTINUOUS
10
6.62109
20
-0.487341
11
6.65659
21
-0.502777
0
LINE
8
BLACK
6
CONTINUOUS
10
6.65659
20
-0.502777
11
6.65668
21
-0.502816
0
LINE
8
BLACK
6
CONTINUOUS
10
6.65668
20
-0.502816
11
6.65692
21
-0.502952
0
LINE
8
BLACK
6
CONTINUOUS
10
6.65692
20
-0.502952
11
6.65716
21
-0.503081
0
LINE
8
BLACK
6
CONTINUOUS
10
6.65716
20
-0.503081
11
6.68967
21
-0.524108
0
LINE
8
BLACK
6
CONTINUOUS
10
6.68967
20
-0.524108
11
6.68975
21
-0.524162
0
LINE
8
BLACK
6
CONTINUOUS
10
6.68975
20
-0.524162
11
6.68996
21
-0.524335
0
LINE
8
BLACK
6
CONTINUOUS
10
6.68996
20
-0.524335
11
6.69018
21
-0.524502
0
LINE
8
BLACK
6
CONTINUOUS
10
6.69018
20
-0.524502
11
6.71881
21
-0.550555
0
LINE
8
BLACK
6
CONTINUOUS
10
6.71881
20
-0.550555
11
6.71888
21
-0.550621
0
LINE
8
BLACK
6
CONTINUOUS
10
6.71888
20
-0.550621
11
6.71906
21
-0.550826
0
LINE
8
BLACK
6
CONTINUOUS
10
6.71906
20
-0.550826
11
6.71925
21
-0.551027
0
LINE
8
BLACK
6
CONTINUOUS
10
6.71925
20
-0.551027
11
6.74324
21
-0.581406
0
LINE
8
BLACK
6
CONTINUOUS
10
6.74324
20
-0.581406
11
6.7433
21
-0.581483
0
LINE
8
BLACK
6
CONTINUOUS
10
6.7433
20
-0.581483
11
6.74345
21
-0.581715
0
LINE
8
BLACK
6
CONTINUOUS
10
6.74345
20
-0.581715
11
6.7436
21
-0.581944
0
LINE
8
BLACK
6
CONTINUOUS
10
6.7436
20
-0.581944
11
6.76231
21
-0.615834
0
LINE
8
BLACK
6
CONTINUOUS
10
6.76231
20
-0.615834
11
6.76235
21
-0.615919
0
LINE
8
BLACK
6
CONTINUOUS
10
6.76235
20
-0.615919
11
6.76246
21
-0.616172
0
LINE
8
BLACK
6
CONTINUOUS
10
6.76246
20
-0.616172
11
6.76257
21
-0.616423
0
LINE
8
BLACK
6
CONTINUOUS
10
6.76257
20
-0.616423
11
6.77549
21
-0.652913
0
LINE
8
BLACK
6
CONTINUOUS
10
6.77549
20
-0.652913
11
6.77552
21
-0.653004
0
LINE
8
BLACK
6
CONTINUOUS
10
6.77552
20
-0.653004
11
6.77559
21
-0.653272
0
LINE
8
BLACK
6
CONTINUOUS
10
6.77559
20
-0.653272
11
6.77566
21
-0.653537
0
LINE
8
BLACK
6
CONTINUOUS
10
6.77566
20
-0.653537
11
6.78245
21
-0.691648
0
LINE
8
BLACK
6
CONTINUOUS
10
6.78245
20
-0.691648
11
6.78246
21
-0.691743
0
LINE
8
BLACK
6
CONTINUOUS
10
6.78246
20
-0.691743
11
6.78248
21
-0.691949
0
LINE
8
BLACK
6
CONTINUOUS
10
6.78248
20
-0.691949
11
6.7825
21
-0.692153
0
LINE
8
BLACK
6
CONTINUOUS
10
6.7825
20
-0.692153
11
6.78355
21
-0.714284
0
LINE
8
BLACK
6
CONTINUOUS
10
6.78355
20
-0.714284
11
6.78356
21
-0.714376
0
LINE
8
BLACK
6
CONTINUOUS
10
6.78356
20
-0.714376
11
6.78356
21
-4.96673
0
LINE
8
BLACK
6
CONTINUOUS
10
6.78356
20
-4.96673
11
6.78354
21
-4.96689
0
LINE
8
BLACK
6
CONTINUOUS
10
6.78354
20
-4.96689
11
6.78037
21
-5.00544
0
LINE
8
BLACK
6
CONTINUOUS
10
6.78037
20
-5.00544
11
6.78036
21
-5.00554
0
LINE
8
BLACK
6
CONTINUOUS
10
6.78036
20
-5.00554
11
6.78031
21
-5.00581
0
LINE
8
BLACK
6
CONTINUOUS
10
6.78031
20
-5.00581
11
6.78027
21
-5.00608
0
LINE
8
BLACK
6
CONTINUOUS
10
6.78027
20
-5.00608
11
6.77083
21
-5.04362
0
LINE
8
BLACK
6
CONTINUOUS
10
6.77083
20
-5.04362
11
6.77081
21
-5.04372
0
LINE
8
BLACK
6
CONTINUOUS
10
6.77081
20
-5.04372
11
6.77072
21
-5.04397
0
LINE
8
BLACK
6
CONTINUOUS
10
6.77072
20
-5.04397
11
6.77063
21
-5.04423
0
LINE
8
BLACK
6
CONTINUOUS
10
6.77063
20
-5.04423
11
6.75519
21
-5.07973
0
LINE
8
BLACK
6
CONTINUOUS
10
6.75519
20
-5.07973
11
6.75515
21
-5.07982
0
LINE
8
BLACK
6
CONTINUOUS
10
6.75515
20
-5.07982
11
6.75502
21
-5.08006
0
LINE
8
BLACK
6
CONTINUOUS
10
6.75502
20
-5.08006
11
6.75489
21
-5.0803
0
LINE
8
BLACK
6
CONTINUOUS
10
6.75489
20
-5.0803
11
6.73386
21
-5.1128
0
LINE
8
BLACK
6
CONTINUOUS
10
6.73386
20
-5.1128
11
6.73381
21
-5.11288
0
LINE
8
BLACK
6
CONTINUOUS
10
6.73381
20
-5.11288
11
6.73363
21
-5.1131
0
LINE
8
BLACK
6
CONTINUOUS
10
6.73363
20
-5.1131
11
6.73347
21
-5.11332
0
LINE
8
BLACK
6
CONTINUOUS
10
6.73347
20
-5.11332
11
6.70741
21
-5.14195
0
LINE
8
BLACK
6
CONTINUOUS
10
6.70741
20
-5.14195
11
6.70735
21
-5.14202
0
LINE
8
BLACK
6
CONTINUOUS
10
6.70735
20
-5.14202
11
6.70714
21
-5.1422
0
LINE
8
BLACK
6
CONTINUOUS
10
6.70714
20
-5.1422
11
6.70694
21
-5.14239
0
LINE
8
BLACK
6
CONTINUOUS
10
6.70694
20
-5.14239
11
6.67656
21
-5.16638
0
LINE
8
BLACK
6
CONTINUOUS
10
6.67656
20
-5.16638
11
6.67648
21
-5.16644
0
LINE
8
BLACK
6
CONTINUOUS
10
6.67648
20
-5.16644
11
6.67625
21
-5.16659
0
LINE
8
BLACK
6
CONTINUOUS
10
6.67625
20
-5.16659
11
6.67602
21
-5.16674
0
LINE
8
BLACK
6
CONTINUOUS
10
6.67602
20
-5.16674
11
6.64213
21
-5.18545
0
LINE
8
BLACK
6
CONTINUOUS
10
6.64213
20
-5.18545
11
6.64205
21
-5.18549
0
LINE
8
BLACK
6
CONTINUOUS
10
6.64205
20
-5.18549
11
6.64179
21
-5.1856
0
LINE
8
BLACK
6
CONTINUOUS
10
6.64179
20
-5.1856
11
6.64154
21
-5.18571
0
LINE
8
BLACK
6
CONTINUOUS
10
6.64154
20
-5.18571
11
6.60505
21
-5.19863
0
LINE
8
BLACK
6
CONTINUOUS
10
6.60505
20
-5.19863
11
6.60505
21
-5.19863
0
LINE
8
BLACK
6
CONTINUOUS
10
6.60505
20
-5.19863
11
6.60505
21
-5.19863
0
LINE
8
BLACK
6
CONTINUOUS
10
6.60505
20
-5.19863
11
6.60496
21
-5.19866
0
LINE
8
BLACK
6
CONTINUOUS
10
6.60496
20
-5.19866
11
6.6047
21
-5.19873
0
LINE
8
BLACK
6
CONTINUOUS
10
6.6047
20
-5.19873
11
6.60443
21
-5.1988
0
LINE
8
BLACK
6
CONTINUOUS
10
6.60443
20
-5.1988
11
6.56632
21
-5.20559
0
LINE
8
BLACK
6
CONTINUOUS
10
6.56632
20
-5.20559
11
6.56622
21
-5.2056
0
LINE
8
BLACK
6
CONTINUOUS
10
6.56622
20
-5.2056
11
6.56602
21
-5.20562
0
LINE
8
BLACK
6
CONTINUOUS
10
6.56602
20
-5.20562
11
6.56581
21
-5.20564
0
LINE
8
BLACK
6
CONTINUOUS
10
6.56581
20
-5.20564
11
6.54368
21
-5.20669
0
LINE
8
BLACK
6
CONTINUOUS
10
6.54368
20
-5.20669
11
6.54359
21
-5.20669
0
LINE
8
BLACK
6
CONTINUOUS
10
6.54359
20
-5.20669
11
0.716434
21
-5.20669
0
LINE
8
BLACK
6
CONTINUOUS
10
0.716434
20
-5.20669
11
0.716275
21
-5.20668
0
LINE
8
BLACK
6
CONTINUOUS
10
0.716275
20
-5.20668
11
0.677723
21
-5.20351
0
LINE
8
BLACK
6
CONTINUOUS
10
0.677723
20
-5.20351
11
0.677627
21
-5.2035
0
LINE
8
BLACK
6
CONTINUOUS
10
0.677627
20
-5.2035
11
0.677357
21
-5.20345
0
LINE
8
BLACK
6
CONTINUOUS
10
0.677357
20
-5.20345
11
0.677087
21
-5.2034
0
LINE
8
BLACK
6
CONTINUOUS
10
0.677087
20
-5.2034
11
0.639542
21
-5.19397
0
LINE
8
BLACK
6
CONTINUOUS
10
0.639542
20
-5.19397
11
0.639449
21
-5.19395
0
LINE
8
BLACK
6
CONTINUOUS
10
0.639449
20
-5.19395
11
0.639191
21
-5.19385
0
LINE
8
BLACK
6
CONTINUOUS
10
0.639191
20
-5.19385
11
0.638931
21
-5.19377
0
LINE
8
BLACK
6
CONTINUOUS
10
0.638931
20
-5.19377
11
0.603431
21
-5.17833
0
LINE
8
BLACK
6
CONTINUOUS
10
0.603431
20
-5.17833
11
0.603343
21
-5.17829
0
LINE
8
BLACK
6
CONTINUOUS
10
0.603343
20
-5.17829
11
0.603104
21
-5.17815
0
LINE
8
BLACK
6
CONTINUOUS
10
0.603104
20
-5.17815
11
0.602862
21
-5.17802
0
LINE
8
BLACK
6
CONTINUOUS
10
0.602862
20
-5.17802
11
0.570359
21
-5.157
0
LINE
8
BLACK
6
CONTINUOUS
10
0.570359
20
-5.157
11
0.570279
21
-5.15694
0
LINE
8
BLACK
6
CONTINUOUS
10
0.570279
20
-5.15694
11
0.570066
21
-5.15677
0
LINE
8
BLACK
6
CONTINUOUS
10
0.570066
20
-5.15677
11
0.569848
21
-5.1566
0
LINE
8
BLACK
6
CONTINUOUS
10
0.569848
20
-5.1566
11
0.541216
21
-5.13055
0
LINE
8
BLACK
6
CONTINUOUS
10
0.541216
20
-5.13055
11
0.541146
21
-5.13049
0
LINE
8
BLACK
6
CONTINUOUS
10
0.541146
20
-5.13049
11
0.540963
21
-5.13028
0
LINE
8
BLACK
6
CONTINUOUS
10
0.540963
20
-5.13028
11
0.540776
21
-5.13008
0
LINE
8
BLACK
6
CONTINUOUS
10
0.540776
20
-5.13008
11
0.516784
21
-5.0997
0
LINE
8
BLACK
6
CONTINUOUS
10
0.516784
20
-5.0997
11
0.516725
21
-5.09962
0
LINE
8
BLACK
6
CONTINUOUS
10
0.516725
20
-5.09962
11
0.516579
21
-5.09939
0
LINE
8
BLACK
6
CONTINUOUS
10
0.516579
20
-5.09939
11
0.516427
21
-5.09916
0
LINE
8
BLACK
6
CONTINUOUS
10
0.516427
20
-5.09916
11
0.497718
21
-5.06527
0
LINE
8
BLACK
6
CONTINUOUS
10
0.497718
20
-5.06527
11
0.497673
21
-5.06519
0
LINE
8
BLACK
6
CONTINUOUS
10
0.497673
20
-5.06519
11
0.497566
21
-5.06493
0
LINE
8
BLACK
6
CONTINUOUS
10
0.497566
20
-5.06493
11
0.497454
21
-5.06468
0
LINE
8
BLACK
6
CONTINUOUS
10
0.497454
20
-5.06468
11
0.484532
21
-5.02819
0
LINE
8
BLACK
6
CONTINUOUS
10
0.484532
20
-5.02819
11
0.484501
21
-5.0281
0
LINE
8
BLACK
6
CONTINUOUS
10
0.484501
20
-5.0281
11
0.484437
21
-5.02783
0
LINE
8
BLACK
6
CONTINUOUS
10
0.484437
20
-5.02783
11
0.484367
21
-5.02757
0
LINE
8
BLACK
6
CONTINUOUS
10
0.484367
20
-5.02757
11
0.477579
21
-4.98946
0
LINE
8
BLACK
6
CONTINUOUS
10
0.477579
20
-4.98946
11
0.477563
21
-4.98936
0
LINE
8
BLACK
6
CONTINUOUS
10
0.477563
20
-4.98936
11
0.477548
21
-4.98916
0
LINE
8
BLACK
6
CONTINUOUS
10
0.477548
20
-4.98916
11
0.477522
21
-4.98895
0
LINE
8
BLACK
6
CONTINUOUS
10
0.477522
20
-4.98895
11
0.476478
21
-4.96682
0
LINE
8
BLACK
6
CONTINUOUS
10
0.476478
20
-4.96682
11
0.476469
21
-4.96673
0
LINE
8
BLACK
6
CONTINUOUS
10
0.476469
20
-4.96673
11
0.476469
21
-0.714376
0
LINE
8
BLACK
6
CONTINUOUS
10
0.476469
20
-0.714376
11
0.476485
21
-0.71422
0
LINE
8
BLACK
6
CONTINUOUS
10
0.476485
20
-0.71422
11
0.479654
21
-0.675665
0
LINE
8
BLACK
6
CONTINUOUS
10
0.479654
20
-0.675665
11
0.479663
21
-0.67557
0
LINE
8
BLACK
6
CONTINUOUS
10
0.479663
20
-0.67557
11
0.479715
21
-0.6753
0
LINE
8
BLACK
6
CONTINUOUS
10
0.479715
20
-0.6753
11
0.47976
21
-0.675029
0
LINE
8
BLACK
6
CONTINUOUS
10
0.47976
20
-0.675029
11
0.48919
21
-0.637484
0
LINE
8
BLACK
6
CONTINUOUS
10
0.48919
20
-0.637484
11
0.489215
21
-0.637391
0
LINE
8
BLACK
6
CONTINUOUS
10
0.489215
20
-0.637391
11
0.48931
21
-0.637133
0
LINE
8
BLACK
6
CONTINUOUS
10
0.48931
20
-0.637133
11
0.489398
21
-0.636873
0
LINE
8
BLACK
6
CONTINUOUS
10
0.489398
20
-0.636873
11
0.504834
21
-0.601373
0
LINE
8
BLACK
6
CONTINUOUS
10
0.504834
20
-0.601373
11
0.504874
21
-0.601285
0
LINE
8
BLACK
6
CONTINUOUS
10
0.504874
20
-0.601285
11
0.50501
21
-0.601046
0
LINE
8
BLACK
6
CONTINUOUS
10
0.50501
20
-0.601046
11
0.505139
21
-0.600804
0
LINE
8
BLACK
6
CONTINUOUS
10
0.505139
20
-0.600804
11
0.526166
21
-0.568302
0
LINE
8
BLACK
6
CONTINUOUS
10
0.526166
20
-0.568302
11
0.526219
21
-0.568222
0
LINE
8
BLACK
6
CONTINUOUS
10
0.526219
20
-0.568222
11
0.526392
21
-0.568008
0
LINE
8
BLACK
6
CONTINUOUS
10
0.526392
20
-0.568008
11
0.52656
21
-0.567791
0
LINE
8
BLACK
6
CONTINUOUS
10
0.52656
20
-0.567791
11
0.552613
21
-0.539159
0
LINE
8
BLACK
6
CONTINUOUS
10
0.552613
20
-0.539159
11
0.552678
21
-0.539088
0
LINE
8
BLACK
6
CONTINUOUS
10
0.552678
20
-0.539088
11
0.552883
21
-0.538906
0
LINE
8
BLACK
6
CONTINUOUS
10
0.552883
20
-0.538906
11
0.553085
21
-0.538719
0
LINE
8
BLACK
6
CONTINUOUS
10
0.553085
20
-0.538719
11
0.583464
21
-0.514726
0
LINE
8
BLACK
6
CONTINUOUS
10
0.583464
20
-0.514726
11
0.58354
21
-0.514668
0
LINE
8
BLACK
6
CONTINUOUS
10
0.58354
20
-0.514668
11
0.583773
21
-0.514521
0
LINE
8
BLACK
6
CONTINUOUS
10
0.583773
20
-0.514521
11
0.584002
21
-0.514369
0
LINE
8
BLACK
6
CONTINUOUS
10
0.584002
20
-0.514369
11
0.617892
21
-0.495661
0
LINE
8
BLACK
6
CONTINUOUS
10
0.617892
20
-0.495661
11
0.617976
21
-0.495615
0
LINE
8
BLACK
6
CONTINUOUS
10
0.617976
20
-0.495615
11
0.61823
21
-0.495509
0
LINE
8
BLACK
6
CONTINUOUS
10
0.61823
20
-0.495509
11
0.61848
21
-0.495396
0
LINE
8
BLACK
6
CONTINUOUS
10
0.61848
20
-0.495396
11
0.654971
21
-0.482474
0
LINE
8
BLACK
6
CONTINUOUS
10
0.654971
20
-0.482474
11
0.655062
21
-0.482443
0
LINE
8
BLACK
6
CONTINUOUS
10
0.655062
20
-0.482443
11
0.655329
21
-0.48238
0
LINE
8
BLACK
6
CONTINUOUS
10
0.655329
20
-0.48238
11
0.655595
21
-0.48231
0
LINE
8
BLACK
6
CONTINUOUS
10
0.655595
20
-0.48231
11
0.693706
21
-0.475521
0
LINE
8
BLACK
6
CONTINUOUS
10
0.693706
20
-0.475521
11
0.693801
21
-0.475505
0
LINE
8
BLACK
6
CONTINUOUS
10
0.693801
20
-0.475505
11
0.694006
21
-0.475491
0
LINE
8
BLACK
6
CONTINUOUS
10
0.694006
20
-0.475491
11
0.694211
21
-0.475464
0
LINE
8
BLACK
6
CONTINUOUS
10
0.694211
20
-0.475464
11
0.716341
21
-0.474421
0
LINE
8
BLACK
6
CONTINUOUS
10
0.716341
20
-0.474421
11
0.716434
21
-0.474411
0
LINE
8
BLACK
6
CONTINUOUS
10
0.716434
20
-0.474411
11
6.54359
21
-0.474411
0
LINE
8
BLACK
6
CONTINUOUS
10
6.54359
20
-0.474411
11
6.54375
21
-0.474427
0
LINE
8
BLACK
6
CONTINUOUS
10
0.716719
20
-0.482286
11
0.694836
21
-0.483317
0
LINE
8
BLACK
6
CONTINUOUS
10
0.694836
20
-0.483317
11
0.657294
21
-0.490005
0
LINE
8
BLACK
6
CONTINUOUS
10
0.657294
20
-0.490005
11
0.621414
21
-0.502711
0
LINE
8
BLACK
6
CONTINUOUS
10
0.621414
20
-0.502711
11
0.58809
21
-0.521106
0
LINE
8
BLACK
6
CONTINUOUS
10
0.58809
20
-0.521106
11
0.558219
21
-0.544697
0
LINE
8
BLACK
6
CONTINUOUS
10
0.558219
20
-0.544697
11
0.532601
21
-0.57285
0
LINE
8
BLACK
6
CONTINUOUS
10
0.532601
20
-0.57285
11
0.511926
21
-0.604809
0
LINE
8
BLACK
6
CONTINUOUS
10
0.511926
20
-0.604809
11
0.496748
21
-0.639716
0
LINE
8
BLACK
6
CONTINUOUS
10
0.496748
20
-0.639716
11
0.487475
21
-0.676633
0
LINE
8
BLACK
6
CONTINUOUS
10
0.487475
20
-0.676633
11
0.484343
21
-0.714731
0
LINE
8
BLACK
6
CONTINUOUS
10
0.484343
20
-0.714731
11
0.484343
21
-4.96644
0
LINE
8
BLACK
6
CONTINUOUS
10
0.484343
20
-4.96644
11
0.485375
21
-4.98833
0
LINE
8
BLACK
6
CONTINUOUS
10
0.485375
20
-4.98833
11
0.492062
21
-5.02587
0
LINE
8
BLACK
6
CONTINUOUS
10
0.492062
20
-5.02587
11
0.504768
21
-5.06175
0
LINE
8
BLACK
6
CONTINUOUS
10
0.504768
20
-5.06175
11
0.523164
21
-5.09507
0
LINE
8
BLACK
6
CONTINUOUS
10
0.523164
20
-5.09507
11
0.546755
21
-5.12495
0
LINE
8
BLACK
6
CONTINUOUS
10
0.546755
20
-5.12495
11
0.574908
21
-5.15056
0
LINE
8
BLACK
6
CONTINUOUS
10
0.574908
20
-5.15056
11
0.606867
21
-5.17124
0
LINE
8
BLACK
6
CONTINUOUS
10
0.606867
20
-5.17124
11
0.641774
21
-5.18642
0
LINE
8
BLACK
6
CONTINUOUS
10
0.641774
20
-5.18642
11
0.678691
21
-5.19569
0
LINE
8
BLACK
6
CONTINUOUS
10
0.678691
20
-5.19569
11
0.716788
21
-5.19882
0
LINE
8
BLACK
6
CONTINUOUS
10
0.716788
20
-5.19882
11
6.54331
21
-5.19882
0
LINE
8
BLACK
6
CONTINUOUS
10
6.54331
20
-5.19882
11
6.56519
21
-5.19779
0
LINE
8
BLACK
6
CONTINUOUS
10
6.56519
20
-5.19779
11
6.60273
21
-5.1911
0
LINE
8
BLACK
6
CONTINUOUS
10
6.60273
20
-5.1911
11
6.63861
21
-5.1784
0
LINE
8
BLACK
6
CONTINUOUS
10
6.63861
20
-5.1784
11
6.67193
21
-5.16
0
LINE
8
BLACK
6
CONTINUOUS
10
6.67193
20
-5.16
11
6.70181
21
-5.13641
0
LINE
8
BLACK
6
CONTINUOUS
10
6.70181
20
-5.13641
11
6.72742
21
-5.10826
0
LINE
8
BLACK
6
CONTINUOUS
10
6.72742
20
-5.10826
11
6.7481
21
-5.0763
0
LINE
8
BLACK
6
CONTINUOUS
10
6.7481
20
-5.0763
11
6.76328
21
-5.04139
0
LINE
8
BLACK
6
CONTINUOUS
10
6.76328
20
-5.04139
11
6.77255
21
-5.00447
0
LINE
8
BLACK
6
CONTINUOUS
10
6.77255
20
-5.00447
11
6.77568
21
-4.96638
0
LINE
8
BLACK
6
CONTINUOUS
10
6.77568
20
-4.96638
11
6.77568
21
-0.714662
0
LINE
8
BLACK
6
CONTINUOUS
10
6.77568
20
-0.714662
11
6.77465
21
-0.692778
0
LINE
8
BLACK
6
CONTINUOUS
10
6.77465
20
-0.692778
11
6.76796
21
-0.655236
0
LINE
8
BLACK
6
CONTINUOUS
10
6.76796
20
-0.655236
11
6.75526
21
-0.619356
0
LINE
8
BLACK
6
CONTINUOUS
10
6.75526
20
-0.619356
11
6.73686
21
-0.586033
0
LINE
8
BLACK
6
CONTINUOUS
10
6.73686
20
-0.586033
11
6.71327
21
-0.556161
0
LINE
8
BLACK
6
CONTINUOUS
10
6.71327
20
-0.556161
11
6.68512
21
-0.530544
0
LINE
8
BLACK
6
CONTINUOUS
10
6.68512
20
-0.530544
11
6.65316
21
-0.509868
0
LINE
8
BLACK
6
CONTINUOUS
10
6.65316
20
-0.509868
11
6.61825
21
-0.494691
0
LINE
8
BLACK
6
CONTINUOUS
10
6.61825
20
-0.494691
11
6.58133
21
-0.485418
0
LINE
8
BLACK
6
CONTINUOUS
10
6.58133
20
-0.485418
11
6.54324
21
-0.482286
0
LINE
8
BLACK
6
CONTINUOUS
10
6.54324
20
-0.482286
11
0.716719
21
-0.482286
0
LINE
8
BLACK
6
CONTINUOUS
10
5.19099
20
-3.43214
11
5.19103
21
-3.43214
0
LINE
8
BLACK
6
CONTINUOUS
10
5.19103
20
-3.43214
11
5.19142
21
-3.43217
0
LINE
8
BLACK
6
CONTINUOUS
10
5.19142
20
-3.43217
11
5.19168
21
-3.43221
0
LINE
8
BLACK
6
CONTINUOUS
10
5.19168
20
-3.43221
11
5.19173
21
-3.43222
0
LINE
8
BLACK
6
CONTINUOUS
10
5.19173
20
-3.43222
11
5.19175
21
-3.43222
0
LINE
8
BLACK
6
CONTINUOUS
10
5.19175
20
-3.43222
11
5.19181
21
-3.43223
0
LINE
8
BLACK
6
CONTINUOUS
10
5.19181
20
-3.43223
11
5.19219
21
-3.43233
0
LINE
8
BLACK
6
CONTINUOUS
10
5.19219
20
-3.43233
11
5.19242
21
-3.43242
0
LINE
8
BLACK
6
CONTINUOUS
10
5.19242
20
-3.43242
11
5.19247
21
-3.43244
0
LINE
8
BLACK
6
CONTINUOUS
10
5.19247
20
-3.43244
11
5.19249
21
-3.43245
0
LINE
8
BLACK
6
CONTINUOUS
10
5.19249
20
-3.43245
11
5.19255
21
-3.43247
0
LINE
8
BLACK
6
CONTINUOUS
10
5.19255
20
-3.43247
11
5.1929
21
-3.43265
0
LINE
8
BLACK
6
CONTINUOUS
10
5.1929
20
-3.43265
11
5.1931
21
-3.43277
0
LINE
8
BLACK
6
CONTINUOUS
10
5.1931
20
-3.43277
11
5.19314
21
-3.4328
0
LINE
8
BLACK
6
CONTINUOUS
10
5.19314
20
-3.4328
11
5.19317
21
-3.43282
0
LINE
8
BLACK
6
CONTINUOUS
10
5.19317
20
-3.43282
11
5.19323
21
-3.43286
0
LINE
8
BLACK
6
CONTINUOUS
10
5.19323
20
-3.43286
11
5.19354
21
-3.4331
0
LINE
8
BLACK
6
CONTINUOUS
10
5.19354
20
-3.4331
11
5.1937
21
-3.43325
0
LINE
8
BLACK
6
CONTINUOUS
10
5.1937
20
-3.43325
11
5.19374
21
-3.43328
0
LINE
8
BLACK
6
CONTINUOUS
10
5.19374
20
-3.43328
11
5.19376
21
-3.43331
0
LINE
8
BLACK
6
CONTINUOUS
10
5.19376
20
-3.43331
11
5.19382
21
-3.43337
0
LINE
8
BLACK
6
CONTINUOUS
10
5.19382
20
-3.43337
11
5.19408
21
-3.43367
0
LINE
8
BLACK
6
CONTINUOUS
10
5.19408
20
-3.43367
11
5.19419
21
-3.43383
0
LINE
8
BLACK
6
CONTINUOUS
10
5.19419
20
-3.43383
11
5.19423
21
-3.43388
0
LINE
8
BLACK
6
CONTINUOUS
10
5.19423
20
-3.43388
11
5.19425
21
-3.43391
0
LINE
8
BLACK
6
CONTINUOUS
10
5.19425
20
-3.43391
11
5.1943
21
-3.43399
0
LINE
8
BLACK
6
CONTINUOUS
10
5.1943
20
-3.43399
11
5.19449
21
-3.43433
0
LINE
8
BLACK
6
CONTINUOUS
10
5.19449
20
-3.43433
11
5.19457
21
-3.4345
0
LINE
8
BLACK
6
CONTINUOUS
10
5.19457
20
-3.4345
11
5.19459
21
-3.43455
0
LINE
8
BLACK
6
CONTINUOUS
10
5.19459
20
-3.43455
11
5.19461
21
-3.43459
0
LINE
8
BLACK
6
CONTINUOUS
10
5.19461
20
-3.43459
11
5.19465
21
-3.43469
0
LINE
8
BLACK
6
CONTINUOUS
10
5.19465
20
-3.43469
11
5.19477
21
-3.43506
0
LINE
8
BLACK
6
CONTINUOUS
10
5.19477
20
-3.43506
11
5.19481
21
-3.43523
0
LINE
8
BLACK
6
CONTINUOUS
10
5.19481
20
-3.43523
11
5.19482
21
-3.43529
0
LINE
8
BLACK
6
CONTINUOUS
10
5.19482
20
-3.43529
11
5.19988
21
-3.45995
0
LINE
8
BLACK
6
CONTINUOUS
10
5.19988
20
-3.45995
11
5.20989
21
-3.48409
0
LINE
8
BLACK
6
CONTINUOUS
10
5.20989
20
-3.48409
11
5.22439
21
-3.50581
0
LINE
8
BLACK
6
CONTINUOUS
10
5.22439
20
-3.50581
11
5.24284
21
-3.52431
0
LINE
8
BLACK
6
CONTINUOUS
10
5.24284
20
-3.52431
11
5.26452
21
-3.53887
0
LINE
8
BLACK
6
CONTINUOUS
10
5.26452
20
-3.53887
11
5.28863
21
-3.54894
0
LINE
8
BLACK
6
CONTINUOUS
10
5.28863
20
-3.54894
11
5.31422
21
-3.55414
0
LINE
8
BLACK
6
CONTINUOUS
10
5.31422
20
-3.55414
11
5.34034
21
-3.55427
0
LINE
8
BLACK
6
CONTINUOUS
10
5.34034
20
-3.55427
11
5.36599
21
-3.54932
0
LINE
8
BLACK
6
CONTINUOUS
10
5.36599
20
-3.54932
11
5.39019
21
-3.53948
0
LINE
8
BLACK
6
CONTINUOUS
10
5.39019
20
-3.53948
11
5.41202
21
-3.52514
0
LINE
8
BLACK
6
CONTINUOUS
10
5.41202
20
-3.52514
11
5.43064
21
-3.50682
0
LINE
8
BLACK
6
CONTINUOUS
10
5.43064
20
-3.50682
11
5.44535
21
-3.48524
0
LINE
8
BLACK
6
CONTINUOUS
10
5.44535
20
-3.48524
11
5.45559
21
-3.46121
0
LINE
8
BLACK
6
CONTINUOUS
10
5.45559
20
-3.46121
11
5.46105
21
-3.43527
0
LINE
8
BLACK
6
CONTINUOUS
10
5.46105
20
-3.43527
11
5.46106
21
-3.43521
0
LINE
8
BLACK
6
CONTINUOUS
10
5.46106
20
-3.43521
11
5.46107
21
-3.43518
0
LINE
8
BLACK
6
CONTINUOUS
10
5.46107
20
-3.43518
11
5.46109
21
-3.43511
0
LINE
8
BLACK
6
CONTINUOUS
10
5.46109
20
-3.43511
11
5.4612
21
-3.43474
0
LINE
8
BLACK
6
CONTINUOUS
10
5.4612
20
-3.43474
11
5.46129
21
-3.43453
0
LINE
8
BLACK
6
CONTINUOUS
10
5.46129
20
-3.43453
11
5.4613
21
-3.43448
0
LINE
8
BLACK
6
CONTINUOUS
10
5.4613
20
-3.43448
11
5.46132
21
-3.43445
0
LINE
8
BLACK
6
CONTINUOUS
10
5.46132
20
-3.43445
11
5.46135
21
-3.43438
0
LINE
8
BLACK
6
CONTINUOUS
10
5.46135
20
-3.43438
11
5.46154
21
-3.43403
0
LINE
8
BLACK
6
CONTINUOUS
10
5.46154
20
-3.43403
11
5.46165
21
-3.43386
0
LINE
8
BLACK
6
CONTINUOUS
10
5.46165
20
-3.43386
11
5.46168
21
-3.43381
0
LINE
8
BLACK
6
CONTINUOUS
10
5.46168
20
-3.43381
11
5.46171
21
-3.43379
0
LINE
8
BLACK
6
CONTINUOUS
10
5.46171
20
-3.43379
11
5.46176
21
-3.43371
0
LINE
8
BLACK
6
CONTINUOUS
10
5.46176
20
-3.43371
11
5.46201
21
-3.43341
0
LINE
8
BLACK
6
CONTINUOUS
10
5.46201
20
-3.43341
11
5.46215
21
-3.43327
0
LINE
8
BLACK
6
CONTINUOUS
10
5.46215
20
-3.43327
11
5.46218
21
-3.43323
0
LINE
8
BLACK
6
CONTINUOUS
10
5.46218
20
-3.43323
11
5.46221
21
-3.43321
0
LINE
8
BLACK
6
CONTINUOUS
10
5.46221
20
-3.43321
11
5.46229
21
-3.43313
0
LINE
8
BLACK
6
CONTINUOUS
10
5.46229
20
-3.43313
11
5.46259
21
-3.43289
0
LINE
8
BLACK
6
CONTINUOUS
10
5.46259
20
-3.43289
11
5.46274
21
-3.43279
0
LINE
8
BLACK
6
CONTINUOUS
10
5.46274
20
-3.43279
11
5.46279
21
-3.43276
0
LINE
8
BLACK
6
CONTINUOUS
10
5.46279
20
-3.43276
11
5.46282
21
-3.43274
0
LINE
8
BLACK
6
CONTINUOUS
10
5.46282
20
-3.43274
11
5.46292
21
-3.43267
0
LINE
8
BLACK
6
CONTINUOUS
10
5.46292
20
-3.43267
11
5.46327
21
-3.43249
0
LINE
8
BLACK
6
CONTINUOUS
10
5.46327
20
-3.43249
11
5.46342
21
-3.43243
0
LINE
8
BLACK
6
CONTINUOUS
10
5.46342
20
-3.43243
11
5.46347
21
-3.43241
0
LINE
8
BLACK
6
CONTINUOUS
10
5.46347
20
-3.43241
11
5.46352
21
-3.4324
0
LINE
8
BLACK
6
CONTINUOUS
10
5.46352
20
-3.4324
11
5.46363
21
-3.43235
0
LINE
8
BLACK
6
CONTINUOUS
10
5.46363
20
-3.43235
11
5.46401
21
-3.43224
0
LINE
8
BLACK
6
CONTINUOUS
10
5.46401
20
-3.43224
11
5.46416
21
-3.43222
0
LINE
8
BLACK
6
CONTINUOUS
10
5.46416
20
-3.43222
11
5.46421
21
-3.4322
0
LINE
8
BLACK
6
CONTINUOUS
10
5.46421
20
-3.4322
11
5.46426
21
-3.4322
0
LINE
8
BLACK
6
CONTINUOUS
10
5.46426
20
-3.4322
11
5.4644
21
-3.43217
0
LINE
8
BLACK
6
CONTINUOUS
10
5.4644
20
-3.43217
11
5.46479
21
-3.43214
0
LINE
8
BLACK
6
CONTINUOUS
10
5.46479
20
-3.43214
11
5.46493
21
-3.43214
0
LINE
8
BLACK
6
CONTINUOUS
10
5.46493
20
-3.43214
11
5.46498
21
-3.43214
0
LINE
8
BLACK
6
CONTINUOUS
10
5.46498
20
-3.43214
11
5.46503
21
-3.43215
0
LINE
8
BLACK
6
CONTINUOUS
10
5.46503
20
-3.43215
11
5.46518
21
-3.43215
0
LINE
8
BLACK
6
CONTINUOUS
10
5.46518
20
-3.43215
11
5.46557
21
-3.4322
0
LINE
8
BLACK
6
CONTINUOUS
10
5.46557
20
-3.4322
11
5.46569
21
-3.43222
0
LINE
8
BLACK
6
CONTINUOUS
10
5.46569
20
-3.43222
11
5.46574
21
-3.43223
0
LINE
8
BLACK
6
CONTINUOUS
10
5.46574
20
-3.43223
11
5.46579
21
-3.43225
0
LINE
8
BLACK
6
CONTINUOUS
10
5.46579
20
-3.43225
11
5.46595
21
-3.43228
0
LINE
8
BLACK
6
CONTINUOUS
10
5.46595
20
-3.43228
11
5.52634
21
-3.44893
0
LINE
8
BLACK
6
CONTINUOUS
10
5.52634
20
-3.44893
11
5.52634
21
-3.44893
0
LINE
8
BLACK
6
CONTINUOUS
10
5.52634
20
-3.44893
11
5.52634
21
-3.44893
0
LINE
8
BLACK
6
CONTINUOUS
10
5.52634
20
-3.44893
11
5.52655
21
-3.44899
0
LINE
8
BLACK
6
CONTINUOUS
10
5.52655
20
-3.44899
11
5.52663
21
-3.44902
0
LINE
8
BLACK
6
CONTINUOUS
10
5.52663
20
-3.44902
11
5.52671
21
-3.44905
0
LINE
8
BLACK
6
CONTINUOUS
10
5.52671
20
-3.44905
11
5.58515
21
-3.47161
0
LINE
8
BLACK
6
CONTINUOUS
10
5.58515
20
-3.47161
11
5.58515
21
-3.47161
0
LINE
8
BLACK
6
CONTINUOUS
10
5.58515
20
-3.47161
11
5.58515
21
-3.47161
0
LINE
8
BLACK
6
CONTINUOUS
10
5.58515
20
-3.47161
11
5.58536
21
-3.4717
0
LINE
8
BLACK
6
CONTINUOUS
10
5.58536
20
-3.4717
11
5.58543
21
-3.47173
0
LINE
8
BLACK
6
CONTINUOUS
10
5.58543
20
-3.47173
11
5.58551
21
-3.47177
0
LINE
8
BLACK
6
CONTINUOUS
10
5.58551
20
-3.47177
11
5.64141
21
-3.50002
0
LINE
8
BLACK
6
CONTINUOUS
10
5.64141
20
-3.50002
11
5.64161
21
-3.50013
0
LINE
8
BLACK
6
CONTINUOUS
10
5.64161
20
-3.50013
11
5.64168
21
-3.50017
0
LINE
8
BLACK
6
CONTINUOUS
10
5.64168
20
-3.50017
11
5.64175
21
-3.50021
0
LINE
8
BLACK
6
CONTINUOUS
10
5.64175
20
-3.50021
11
5.69458
21
-3.53388
0
LINE
8
BLACK
6
CONTINUOUS
10
5.69458
20
-3.53388
11
5.69477
21
-3.534
0
LINE
8
BLACK
6
CONTINUOUS
10
5.69477
20
-3.534
11
5.69483
21
-3.53406
0
LINE
8
BLACK
6
CONTINUOUS
10
5.69483
20
-3.53406
11
5.6949
21
-3.5341
0
LINE
8
BLACK
6
CONTINUOUS
10
5.6949
20
-3.5341
11
5.74412
21
-3.57285
0
LINE
8
BLACK
6
CONTINUOUS
10
5.74412
20
-3.57285
11
5.74412
21
-3.57285
0
LINE
8
BLACK
6
CONTINUOUS
10
5.74412
20
-3.57285
11
5.74412
21
-3.57285
0
LINE
8
BLACK
6
CONTINUOUS
10
5.74412
20
-3.57285
11
5.74429
21
-3.57299
0
LINE
8
BLACK
6
CONTINUOUS
10
5.74429
20
-3.57299
11
5.74435
21
-3.57305
0
LINE
8
BLACK
6
CONTINUOUS
10
5.74435
20
-3.57305
11
5.74442
21
-3.57311
0
LINE
8
BLACK
6
CONTINUOUS
10
5.74442
20
-3.57311
11
5.78954
21
-3.61655
0
LINE
8
BLACK
6
CONTINUOUS
10
5.78954
20
-3.61655
11
5.7897
21
-3.61671
0
LINE
8
BLACK
6
CONTINUOUS
10
5.7897
20
-3.61671
11
5.78976
21
-3.61677
0
LINE
8
BLACK
6
CONTINUOUS
10
5.78976
20
-3.61677
11
5.78981
21
-3.61683
0
LINE
8
BLACK
6
CONTINUOUS
10
5.78981
20
-3.61683
11
5.8304
21
-3.66454
0
LINE
8
BLACK
6
CONTINUOUS
10
5.8304
20
-3.66454
11
5.83041
21
-3.66454
0
LINE
8
BLACK
6
CONTINUOUS
10
5.83041
20
-3.66454
11
5.83041
21
-3.66454
0
LINE
8
BLACK
6
CONTINUOUS
10
5.83041
20
-3.66454
11
5.83055
21
-3.66472
0
LINE
8
BLACK
6
CONTINUOUS
10
5.83055
20
-3.66472
11
5.83059
21
-3.66479
0
LINE
8
BLACK
6
CONTINUOUS
10
5.83059
20
-3.66479
11
5.83064
21
-3.66485
0
LINE
8
BLACK
6
CONTINUOUS
10
5.83064
20
-3.66485
11
5.8663
21
-3.71636
0
LINE
8
BLACK
6
CONTINUOUS
10
5.8663
20
-3.71636
11
5.86642
21
-3.71655
0
LINE
8
BLACK
6
CONTINUOUS
10
5.86642
20
-3.71655
11
5.86646
21
-3.71662
0
LINE
8
BLACK
6
CONTINUOUS
10
5.86646
20
-3.71662
11
5.8665
21
-3.71669
0
LINE
8
BLACK
6
CONTINUOUS
10
5.8665
20
-3.71669
11
5.89686
21
-3.77148
0
LINE
8
BLACK
6
CONTINUOUS
10
5.89686
20
-3.77148
11
5.89686
21
-3.77148
0
LINE
8
BLACK
6
CONTINUOUS
10
5.89686
20
-3.77148
11
5.89686
21
-3.77148
0
LINE
8
BLACK
6
CONTINUOUS
10
5.89686
20
-3.77148
11
5.89697
21
-3.77168
0
LINE
8
BLACK
6
CONTINUOUS
10
5.89697
20
-3.77168
11
5.897
21
-3.77176
0
LINE
8
BLACK
6
CONTINUOUS
10
5.897
20
-3.77176
11
5.89704
21
-3.77183
0
LINE
8
BLACK
6
CONTINUOUS
10
5.89704
20
-3.77183
11
5.9218
21
-3.82937
0
LINE
8
BLACK
6
CONTINUOUS
10
5.9218
20
-3.82937
11
5.9218
21
-3.82937
0
LINE
8
BLACK
6
CONTINUOUS
10
5.9218
20
-3.82937
11
5.92181
21
-3.82937
0
LINE
8
BLACK
6
CONTINUOUS
10
5.92181
20
-3.82937
11
5.92189
21
-3.82958
0
LINE
8
BLACK
6
CONTINUOUS
10
5.92189
20
-3.82958
11
5.92191
21
-3.82966
0
LINE
8
BLACK
6
CONTINUOUS
10
5.92191
20
-3.82966
11
5.92194
21
-3.82974
0
LINE
8
BLACK
6
CONTINUOUS
10
5.92194
20
-3.82974
11
5.94087
21
-3.88945
0
LINE
8
BLACK
6
CONTINUOUS
10
5.94087
20
-3.88945
11
5.94094
21
-3.88967
0
LINE
8
BLACK
6
CONTINUOUS
10
5.94094
20
-3.88967
11
5.94095
21
-3.88975
0
LINE
8
BLACK
6
CONTINUOUS
10
5.94095
20
-3.88975
11
5.94097
21
-3.88983
0
LINE
8
BLACK
6
CONTINUOUS
10
5.94097
20
-3.88983
11
5.95388
21
-3.95112
0
LINE
8
BLACK
6
CONTINUOUS
10
5.95388
20
-3.95112
11
5.95392
21
-3.95135
0
LINE
8
BLACK
6
CONTINUOUS
10
5.95392
20
-3.95135
11
5.95393
21
-3.95143
0
LINE
8
BLACK
6
CONTINUOUS
10
5.95393
20
-3.95143
11
5.95394
21
-3.95151
0
LINE
8
BLACK
6
CONTINUOUS
10
5.95394
20
-3.95151
11
5.9607
21
-4.01379
0
LINE
8
BLACK
6
CONTINUOUS
10
5.9607
20
-4.01379
11
5.96072
21
-4.01401
0
LINE
8
BLACK
6
CONTINUOUS
10
5.96072
20
-4.01401
11
5.96072
21
-4.0141
0
LINE
8
BLACK
6
CONTINUOUS
10
5.96072
20
-4.0141
11
5.96072
21
-4.01418
0
LINE
8
BLACK
6
CONTINUOUS
10
5.96072
20
-4.01418
11
5.96126
21
-4.07682
0
LINE
8
BLACK
6
CONTINUOUS
10
5.96126
20
-4.07682
11
5.96126
21
-4.07682
0
LINE
8
BLACK
6
CONTINUOUS
10
5.96126
20
-4.07682
11
5.96126
21
-4.07682
0
LINE
8
BLACK
6
CONTINUOUS
10
5.96126
20
-4.07682
11
5.96125
21
-4.07704
0
LINE
8
BLACK
6
CONTINUOUS
10
5.96125
20
-4.07704
11
5.96125
21
-4.07713
0
LINE
8
BLACK
6
CONTINUOUS
10
5.96125
20
-4.07713
11
5.96124
21
-4.07721
0
LINE
8
BLACK
6
CONTINUOUS
10
5.96124
20
-4.07721
11
5.95556
21
-4.13959
0
LINE
8
BLACK
6
CONTINUOUS
10
5.95556
20
-4.13959
11
5.95553
21
-4.13982
0
LINE
8
BLACK
6
CONTINUOUS
10
5.95553
20
-4.13982
11
5.95551
21
-4.1399
0
LINE
8
BLACK
6
CONTINUOUS
10
5.95551
20
-4.1399
11
5.9555
21
-4.13998
0
LINE
8
BLACK
6
CONTINUOUS
10
5.9555
20
-4.13998
11
5.94365
21
-4.20149
0
LINE
8
BLACK
6
CONTINUOUS
10
5.94365
20
-4.20149
11
5.9436
21
-4.20171
0
LINE
8
BLACK
6
CONTINUOUS
10
5.9436
20
-4.20171
11
5.94357
21
-4.20179
0
LINE
8
BLACK
6
CONTINUOUS
10
5.94357
20
-4.20179
11
5.94355
21
-4.20187
0
LINE
8
BLACK
6
CONTINUOUS
10
5.94355
20
-4.20187
11
5.92565
21
-4.2619
0
LINE
8
BLACK
6
CONTINUOUS
10
5.92565
20
-4.2619
11
5.92558
21
-4.26211
0
LINE
8
BLACK
6
CONTINUOUS
10
5.92558
20
-4.26211
11
5.92557
21
-4.26213
0
LINE
8
BLACK
6
CONTINUOUS
10
5.92557
20
-4.26213
11
5.92556
21
-4.26216
0
LINE
8
BLACK
6
CONTINUOUS
10
5.92556
20
-4.26216
11
5.91653
21
-4.28615
0
LINE
8
BLACK
6
CONTINUOUS
10
5.91653
20
-4.28615
11
5.91647
21
-4.2863
0
LINE
8
BLACK
6
CONTINUOUS
10
5.91647
20
-4.2863
11
5.91646
21
-4.28631
0
LINE
8
BLACK
6
CONTINUOUS
10
5.91646
20
-4.28631
11
5.91646
21
-4.28632
0
LINE
8
BLACK
6
CONTINUOUS
10
5.91646
20
-4.28632
11
5.91644
21
-4.28636
0
LINE
8
BLACK
6
CONTINUOUS
10
5.91644
20
-4.28636
11
5.91627
21
-4.28671
0
LINE
8
BLACK
6
CONTINUOUS
10
5.91627
20
-4.28671
11
5.91612
21
-4.28695
0
LINE
8
BLACK
6
CONTINUOUS
10
5.91612
20
-4.28695
11
5.91609
21
-4.28699
0
LINE
8
BLACK
6
CONTINUOUS
10
5.91609
20
-4.28699
11
5.91608
21
-4.287
0
LINE
8
BLACK
6
CONTINUOUS
10
5.91608
20
-4.287
11
5.91606
21
-4.28704
0
LINE
8
BLACK
6
CONTINUOUS
10
5.91606
20
-4.28704
11
5.91581
21
-4.28735
0
LINE
8
BLACK
6
CONTINUOUS
10
5.91581
20
-4.28735
11
5.91563
21
-4.28754
0
LINE
8
BLACK
6
CONTINUOUS
10
5.91563
20
-4.28754
11
5.9156
21
-4.28758
0
LINE
8
BLACK
6
CONTINUOUS
10
5.9156
20
-4.28758
11
5.91558
21
-4.28759
0
LINE
8
BLACK
6
CONTINUOUS
10
5.91558
20
-4.28759
11
5.91554
21
-4.28763
0
LINE
8
BLACK
6
CONTINUOUS
10
5.91554
20
-4.28763
11
5.91524
21
-4.28789
0
LINE
8
BLACK
6
CONTINUOUS
10
5.91524
20
-4.28789
11
5.91504
21
-4.28803
0
LINE
8
BLACK
6
CONTINUOUS
10
5.91504
20
-4.28803
11
5.915
21
-4.28806
0
LINE
8
BLACK
6
CONTINUOUS
10
5.915
20
-4.28806
11
5.91498
21
-4.28807
0
LINE
8
BLACK
6
CONTINUOUS
10
5.91498
20
-4.28807
11
5.91492
21
-4.28811
0
LINE
8
BLACK
6
CONTINUOUS
10
5.91492
20
-4.28811
11
5.91458
21
-4.2883
0
LINE
8
BLACK
6
CONTINUOUS
10
5.91458
20
-4.2883
11
5.91437
21
-4.28839
0
LINE
8
BLACK
6
CONTINUOUS
10
5.91437
20
-4.28839
11
5.91432
21
-4.28842
0
LINE
8
BLACK
6
CONTINUOUS
10
5.91432
20
-4.28842
11
5.91429
21
-4.28842
0
LINE
8
BLACK
6
CONTINUOUS
10
5.91429
20
-4.28842
11
5.91422
21
-4.28845
0
LINE
8
BLACK
6
CONTINUOUS
10
5.91422
20
-4.28845
11
5.91385
21
-4.28857
0
LINE
8
BLACK
6
CONTINUOUS
10
5.91385
20
-4.28857
11
5.91364
21
-4.28862
0
LINE
8
BLACK
6
CONTINUOUS
10
5.91364
20
-4.28862
11
5.91359
21
-4.28863
0
LINE
8
BLACK
6
CONTINUOUS
10
5.91359
20
-4.28863
11
5.91355
21
-4.28864
0
LINE
8
BLACK
6
CONTINUOUS
10
5.91355
20
-4.28864
11
5.91346
21
-4.28865
0
LINE
8
BLACK
6
CONTINUOUS
10
5.91346
20
-4.28865
11
5.91308
21
-4.2887
0
LINE
8
BLACK
6
CONTINUOUS
10
5.91308
20
-4.2887
11
5.91287
21
-4.2887
0
LINE
8
BLACK
6
CONTINUOUS
10
5.91287
20
-4.2887
11
5.91282
21
-4.2887
0
LINE
8
BLACK
6
CONTINUOUS
10
5.91282
20
-4.2887
11
5.91278
21
-4.2887
0
LINE
8
BLACK
6
CONTINUOUS
10
5.91278
20
-4.2887
11
5.91268
21
-4.2887
0
LINE
8
BLACK
6
CONTINUOUS
10
5.91268
20
-4.2887
11
5.91229
21
-4.28866
0
LINE
8
BLACK
6
CONTINUOUS
10
5.91229
20
-4.28866
11
5.91211
21
-4.28863
0
LINE
8
BLACK
6
CONTINUOUS
10
5.91211
20
-4.28863
11
5.91206
21
-4.28862
0
LINE
8
BLACK
6
CONTINUOUS
10
5.91206
20
-4.28862
11
5.91202
21
-4.28861
0
LINE
8
BLACK
6
CONTINUOUS
10
5.91202
20
-4.28861
11
5.91191
21
-4.28859
0
LINE
8
BLACK
6
CONTINUOUS
10
5.91191
20
-4.28859
11
5.91153
21
-4.28848
0
LINE
8
BLACK
6
CONTINUOUS
10
5.91153
20
-4.28848
11
5.91137
21
-4.28841
0
LINE
8
BLACK
6
CONTINUOUS
10
5.91137
20
-4.28841
11
5.91132
21
-4.2884
0
LINE
8
BLACK
6
CONTINUOUS
10
5.91132
20
-4.2884
11
5.8881
21
-4.27866
0
LINE
8
BLACK
6
CONTINUOUS
10
5.8881
20
-4.27866
11
5.86253
21
-4.2733
0
LINE
8
BLACK
6
CONTINUOUS
10
5.86253
20
-4.2733
11
5.83641
21
-4.27302
0
LINE
8
BLACK
6
CONTINUOUS
10
5.83641
20
-4.27302
11
5.81073
21
-4.27781
0
LINE
8
BLACK
6
CONTINUOUS
10
5.81073
20
-4.27781
11
5.78647
21
-4.2875
0
LINE
8
BLACK
6
CONTINUOUS
10
5.78647
20
-4.2875
11
5.76456
21
-4.30171
0
LINE
8
BLACK
6
CONTINUOUS
10
5.76456
20
-4.30171
11
5.74582
21
-4.31991
0
LINE
8
BLACK
6
CONTINUOUS
10
5.74582
20
-4.31991
11
5.73098
21
-4.34141
0
LINE
8
BLACK
6
CONTINUOUS
10
5.73098
20
-4.34141
11
5.72059
21
-4.36538
0
LINE
8
BLACK
6
CONTINUOUS
10
5.72059
20
-4.36538
11
5.71506
21
-4.3909
0
LINE
8
BLACK
6
CONTINUOUS
10
5.71506
20
-4.3909
11
5.71459
21
-4.41702
0
LINE
8
BLACK
6
CONTINUOUS
10
5.71459
20
-4.41702
11
5.7192
21
-4.44273
0
LINE
8
BLACK
6
CONTINUOUS
10
5.7192
20
-4.44273
11
5.72872
21
-4.46705
0
LINE
8
BLACK
6
CONTINUOUS
10
5.72872
20
-4.46705
11
5.74278
21
-4.48907
0
LINE
8
BLACK
6
CONTINUOUS
10
5.74278
20
-4.48907
11
5.76112
21
-4.50821
0
LINE
8
BLACK
6
CONTINUOUS
10
5.76112
20
-4.50821
11
5.76116
21
-4.50825
0
LINE
8
BLACK
6
CONTINUOUS
10
5.76116
20
-4.50825
11
5.76118
21
-4.50827
0
LINE
8
BLACK
6
CONTINUOUS
10
5.76118
20
-4.50827
11
5.76123
21
-4.50833
0
LINE
8
BLACK
6
CONTINUOUS
10
5.76123
20
-4.50833
11
5.76147
21
-4.50863
0
LINE
8
BLACK
6
CONTINUOUS
10
5.76147
20
-4.50863
11
5.76159
21
-4.50882
0
LINE
8
BLACK
6
CONTINUOUS
10
5.76159
20
-4.50882
11
5.76163
21
-4.50886
0
LINE
8
BLACK
6
CONTINUOUS
10
5.76163
20
-4.50886
11
5.76164
21
-4.50889
0
LINE
8
BLACK
6
CONTINUOUS
10
5.76164
20
-4.50889
11
5.76169
21
-4.50896
0
LINE
8
BLACK
6
CONTINUOUS
10
5.76169
20
-4.50896
11
5.76187
21
-4.50931
0
LINE
8
BLACK
6
CONTINUOUS
10
5.76187
20
-4.50931
11
5.76194
21
-4.5095
0
LINE
8
BLACK
6
CONTINUOUS
10
5.76194
20
-4.5095
11
5.76196
21
-4.50955
0
LINE
8
BLACK
6
CONTINUOUS
10
5.76196
20
-4.50955
11
5.76197
21
-4.50959
0
LINE
8
BLACK
6
CONTINUOUS
10
5.76197
20
-4.50959
11
5.76201
21
-4.50967
0
LINE
8
BLACK
6
CONTINUOUS
10
5.76201
20
-4.50967
11
5.76212
21
-4.51005
0
LINE
8
BLACK
6
CONTINUOUS
10
5.76212
20
-4.51005
11
5.76215
21
-4.51024
0
LINE
8
BLACK
6
CONTINUOUS
10
5.76215
20
-4.51024
11
5.76216
21
-4.51029
0
LINE
8
BLACK
6
CONTINUOUS
10
5.76216
20
-4.51029
11
5.76217
21
-4.51033
0
LINE
8
BLACK
6
CONTINUOUS
10
5.76217
20
-4.51033
11
5.76218
21
-4.51044
0
LINE
8
BLACK
6
CONTINUOUS
10
5.76218
20
-4.51044
11
5.76221
21
-4.51083
0
LINE
8
BLACK
6
CONTINUOUS
10
5.76221
20
-4.51083
11
5.76221
21
-4.511
0
LINE
8
BLACK
6
CONTINUOUS
10
5.76221
20
-4.511
11
5.76221
21
-4.51106
0
LINE
8
BLACK
6
CONTINUOUS
10
5.76221
20
-4.51106
11
5.76221
21
-4.5111
0
LINE
8
BLACK
6
CONTINUOUS
10
5.76221
20
-4.5111
11
5.7622
21
-4.51122
0
LINE
8
BLACK
6
CONTINUOUS
10
5.7622
20
-4.51122
11
5.76216
21
-4.51161
0
LINE
8
BLACK
6
CONTINUOUS
10
5.76216
20
-4.51161
11
5.76212
21
-4.51177
0
LINE
8
BLACK
6
CONTINUOUS
10
5.76212
20
-4.51177
11
5.76211
21
-4.51182
0
LINE
8
BLACK
6
CONTINUOUS
10
5.76211
20
-4.51182
11
5.7621
21
-4.51186
0
LINE
8
BLACK
6
CONTINUOUS
10
5.7621
20
-4.51186
11
5.76207
21
-4.51199
0
LINE
8
BLACK
6
CONTINUOUS
10
5.76207
20
-4.51199
11
5.76195
21
-4.51236
0
LINE
8
BLACK
6
CONTINUOUS
10
5.76195
20
-4.51236
11
5.76188
21
-4.5125
0
LINE
8
BLACK
6
CONTINUOUS
10
5.76188
20
-4.5125
11
5.76187
21
-4.51255
0
LINE
8
BLACK
6
CONTINUOUS
10
5.76187
20
-4.51255
11
5.76184
21
-4.51259
0
LINE
8
BLACK
6
CONTINUOUS
10
5.76184
20
-4.51259
11
5.76179
21
-4.51272
0
LINE
8
BLACK
6
CONTINUOUS
10
5.76179
20
-4.51272
11
5.76159
21
-4.51306
0
LINE
8
BLACK
6
CONTINUOUS
10
5.76159
20
-4.51306
11
5.76151
21
-4.51317
0
LINE
8
BLACK
6
CONTINUOUS
10
5.76151
20
-4.51317
11
5.76149
21
-4.51321
0
LINE
8
BLACK
6
CONTINUOUS
10
5.76149
20
-4.51321
11
5.76145
21
-4.51325
0
LINE
8
BLACK
6
CONTINUOUS
10
5.76145
20
-4.51325
11
5.76137
21
-4.51338
0
LINE
8
BLACK
6
CONTINUOUS
10
5.76137
20
-4.51338
11
5.76111
21
-4.51367
0
LINE
8
BLACK
6
CONTINUOUS
10
5.76111
20
-4.51367
11
5.76101
21
-4.51376
0
LINE
8
BLACK
6
CONTINUOUS
10
5.76101
20
-4.51376
11
5.76098
21
-4.51379
0
LINE
8
BLACK
6
CONTINUOUS
10
5.76098
20
-4.51379
11
5.76094
21
-4.51383
0
LINE
8
BLACK
6
CONTINUOUS
10
5.76094
20
-4.51383
11
5.76082
21
-4.51394
0
LINE
8
BLACK
6
CONTINUOUS
10
5.76082
20
-4.51394
11
5.71301
21
-4.5544
0
LINE
8
BLACK
6
CONTINUOUS
10
5.71301
20
-4.5544
11
5.71301
21
-4.5544
0
LINE
8
BLACK
6
CONTINUOUS
10
5.71301
20
-4.5544
11
5.713
21
-4.55441
0
LINE
8
BLACK
6
CONTINUOUS
10
5.713
20
-4.55441
11
5.71283
21
-4.55455
0
LINE
8
BLACK
6
CONTINUOUS
10
5.71283
20
-4.55455
11
5.71276
21
-4.55459
0
LINE
8
BLACK
6
CONTINUOUS
10
5.71276
20
-4.55459
11
5.7127
21
-4.55464
0
LINE
8
BLACK
6
CONTINUOUS
10
5.7127
20
-4.55464
11
5.6611
21
-4.59016
0
LINE
8
BLACK
6
CONTINUOUS
10
5.6611
20
-4.59016
11
5.66091
21
-4.59028
0
LINE
8
BLACK
6
CONTINUOUS
10
5.66091
20
-4.59028
11
5.66083
21
-4.59032
0
LINE
8
BLACK
6
CONTINUOUS
10
5.66083
20
-4.59032
11
5.66076
21
-4.59037
0
LINE
8
BLACK
6
CONTINUOUS
10
5.66076
20
-4.59037
11
5.60589
21
-4.62058
0
LINE
8
BLACK
6
CONTINUOUS
10
5.60589
20
-4.62058
11
5.60589
21
-4.62058
0
LINE
8
BLACK
6
CONTINUOUS
10
5.60589
20
-4.62058
11
5.60589
21
-4.62058
0
LINE
8
BLACK
6
CONTINUOUS
10
5.60589
20
-4.62058
11
5.60569
21
-4.62069
0
LINE
8
BLACK
6
CONTINUOUS
10
5.60569
20
-4.62069
11
5.60562
21
-4.62072
0
LINE
8
BLACK
6
CONTINUOUS
10
5.60562
20
-4.62072
11
5.60554
21
-4.62076
0
LINE
8
BLACK
6
CONTINUOUS
10
5.60554
20
-4.62076
11
5.54794
21
-4.64537
0
LINE
8
BLACK
6
CONTINUOUS
10
5.54794
20
-4.64537
11
5.54794
21
-4.64537
0
LINE
8
BLACK
6
CONTINUOUS
10
5.54794
20
-4.64537
11
5.54794
21
-4.64537
0
LINE
8
BLACK
6
CONTINUOUS
10
5.54794
20
-4.64537
11
5.54773
21
-4.64546
0
LINE
8
BLACK
6
CONTINUOUS
10
5.54773
20
-4.64546
11
5.54765
21
-4.64548
0
LINE
8
BLACK
6
CONTINUOUS
10
5.54765
20
-4.64548
11
5.54757
21
-4.64551
0
LINE
8
BLACK
6
CONTINUOUS
10
5.54757
20
-4.64551
11
5.48781
21
-4.66429
0
LINE
8
BLACK
6
CONTINUOUS
10
5.48781
20
-4.66429
11
5.48781
21
-4.66429
0
LINE
8
BLACK
6
CONTINUOUS
10
5.48781
20
-4.66429
11
5.48781
21
-4.66429
0
LINE
8
BLACK
6
CONTINUOUS
10
5.48781
20
-4.66429
11
5.48759
21
-4.66435
0
LINE
8
BLACK
6
CONTINUOUS
10
5.48759
20
-4.66435
11
5.48751
21
-4.66436
0
LINE
8
BLACK
6
CONTINUOUS
10
5.48751
20
-4.66436
11
5.48743
21
-4.66438
0
LINE
8
BLACK
6
CONTINUOUS
10
5.48743
20
-4.66438
11
5.4261
21
-4.67713
0
LINE
8
BLACK
6
CONTINUOUS
10
5.4261
20
-4.67713
11
5.4261
21
-4.67713
0
LINE
8
BLACK
6
CONTINUOUS
10
5.4261
20
-4.67713
11
5.4261
21
-4.67713
0
LINE
8
BLACK
6
CONTINUOUS
10
5.4261
20
-4.67713
11
5.42588
21
-4.67717
0
LINE
8
BLACK
6
CONTINUOUS
10
5.42588
20
-4.67717
11
5.4258
21
-4.67718
0
LINE
8
BLACK
6
CONTINUOUS
10
5.4258
20
-4.67718
11
5.42572
21
-4.67719
0
LINE
8
BLACK
6
CONTINUOUS
10
5.42572
20
-4.67719
11
5.36342
21
-4.68379
0
LINE
8
BLACK
6
CONTINUOUS
10
5.36342
20
-4.68379
11
5.36342
21
-4.68379
0
LINE
8
BLACK
6
CONTINUOUS
10
5.36342
20
-4.68379
11
5.36342
21
-4.68379
0
LINE
8
BLACK
6
CONTINUOUS
10
5.36342
20
-4.68379
11
5.3632
21
-4.6838
0
LINE
8
BLACK
6
CONTINUOUS
10
5.3632
20
-4.6838
11
5.36312
21
-4.6838
0
LINE
8
BLACK
6
CONTINUOUS
10
5.36312
20
-4.6838
11
5.36303
21
-4.68381
0
LINE
8
BLACK
6
CONTINUOUS
10
5.36303
20
-4.68381
11
5.30039
21
-4.68418
0
LINE
8
BLACK
6
CONTINUOUS
10
5.30039
20
-4.68418
11
5.30039
21
-4.68418
0
LINE
8
BLACK
6
CONTINUOUS
10
5.30039
20
-4.68418
11
5.30039
21
-4.68418
0
LINE
8
BLACK
6
CONTINUOUS
10
5.30039
20
-4.68418
11
5.30017
21
-4.68418
0
LINE
8
BLACK
6
CONTINUOUS
10
5.30017
20
-4.68418
11
5.30008
21
-4.68417
0
LINE
8
BLACK
6
CONTINUOUS
10
5.30008
20
-4.68417
11
5.3
21
-4.68416
0
LINE
8
BLACK
6
CONTINUOUS
10
5.3
20
-4.68416
11
5.23763
21
-4.67832
0
LINE
8
BLACK
6
CONTINUOUS
10
5.23763
20
-4.67832
11
5.23763
21
-4.67832
0
LINE
8
BLACK
6
CONTINUOUS
10
5.23763
20
-4.67832
11
5.23763
21
-4.67832
0
LINE
8
BLACK
6
CONTINUOUS
10
5.23763
20
-4.67832
11
5.23741
21
-4.67829
0
LINE
8
BLACK
6
CONTINUOUS
10
5.23741
20
-4.67829
11
5.23733
21
-4.67827
0
LINE
8
BLACK
6
CONTINUOUS
10
5.23733
20
-4.67827
11
5.23725
21
-4.67826
0
LINE
8
BLACK
6
CONTINUOUS
10
5.23725
20
-4.67826
11
5.17577
21
-4.66625
0
LINE
8
BLACK
6
CONTINUOUS
10
5.17577
20
-4.66625
11
5.17577
21
-4.66624
0
LINE
8
BLACK
6
CONTINUOUS
10
5.17577
20
-4.66624
11
5.17577
21
-4.66624
0
LINE
8
BLACK
6
CONTINUOUS
10
5.17577
20
-4.66624
11
5.17555
21
-4.6662
0
LINE
8
BLACK
6
CONTINUOUS
10
5.17555
20
-4.6662
11
5.17547
21
-4.66617
0
LINE
8
BLACK
6
CONTINUOUS
10
5.17547
20
-4.66617
11
5.17539
21
-4.66615
0
LINE
8
BLACK
6
CONTINUOUS
10
5.17539
20
-4.66615
11
5.11541
21
-4.64809
0
LINE
8
BLACK
6
CONTINUOUS
10
5.11541
20
-4.64809
11
5.11519
21
-4.64802
0
LINE
8
BLACK
6
CONTINUOUS
10
5.11519
20
-4.64802
11
5.11512
21
-4.64799
0
LINE
8
BLACK
6
CONTINUOUS
10
5.11512
20
-4.64799
11
5.11504
21
-4.64796
0
LINE
8
BLACK
6
CONTINUOUS
10
5.11504
20
-4.64796
11
5.05715
21
-4.62403
0
LINE
8
BLACK
6
CONTINUOUS
10
5.05715
20
-4.62403
11
5.05715
21
-4.62403
0
LINE
8
BLACK
6
CONTINUOUS
10
5.05715
20
-4.62403
11
5.05715
21
-4.62403
0
LINE
8
BLACK
6
CONTINUOUS
10
5.05715
20
-4.62403
11
5.05694
21
-4.62394
0
LINE
8
BLACK
6
CONTINUOUS
10
5.05694
20
-4.62394
11
5.05687
21
-4.6239
0
LINE
8
BLACK
6
CONTINUOUS
10
5.05687
20
-4.6239
11
5.05679
21
-4.62386
0
LINE
8
BLACK
6
CONTINUOUS
10
5.05679
20
-4.62386
11
5.00157
21
-4.5943
0
LINE
8
BLACK
6
CONTINUOUS
10
5.00157
20
-4.5943
11
5.00157
21
-4.5943
0
LINE
8
BLACK
6
CONTINUOUS
10
5.00157
20
-4.5943
11
5.00157
21
-4.5943
0
LINE
8
BLACK
6
CONTINUOUS
10
5.00157
20
-4.5943
11
5.00137
21
-4.59419
0
LINE
8
BLACK
6
CONTINUOUS
10
5.00137
20
-4.59419
11
5.0013
21
-4.59414
0
LINE
8
BLACK
6
CONTINUOUS
10
5.0013
20
-4.59414
11
5.00123
21
-4.5941
0
LINE
8
BLACK
6
CONTINUOUS
10
5.00123
20
-4.5941
11
4.94921
21
-4.5592
0
LINE
8
BLACK
6
CONTINUOUS
10
4.94921
20
-4.5592
11
4.94921
21
-4.5592
0
LINE
8
BLACK
6
CONTINUOUS
10
4.94921
20
-4.5592
11
4.94921
21
-4.5592
0
LINE
8
BLACK
6
CONTINUOUS
10
4.94921
20
-4.5592
11
4.94903
21
-4.55907
0
LINE
8
BLACK
6
CONTINUOUS
10
4.94903
20
-4.55907
11
4.94897
21
-4.55902
0
LINE
8
BLACK
6
CONTINUOUS
10
4.94897
20
-4.55902
11
4.9489
21
-4.55897
0
LINE
8
BLACK
6
CONTINUOUS
10
4.9489
20
-4.55897
11
4.9006
21
-4.51907
0
LINE
8
BLACK
6
CONTINUOUS
10
4.9006
20
-4.51907
11
4.90045
21
-4.51893
0
LINE
8
BLACK
6
CONTINUOUS
10
4.90045
20
-4.51893
11
4.90044
21
-4.51893
0
LINE
8
BLACK
6
CONTINUOUS
10
4.90044
20
-4.51893
11
4.89492
21
-4.51382
0
LINE
8
BLACK
6
CONTINUOUS
10
4.89492
20
-4.51382
11
4.89485
21
-4.51375
0
LINE
8
BLACK
6
CONTINUOUS
10
4.89485
20
-4.51375
11
4.89483
21
-4.51374
0
LINE
8
BLACK
6
CONTINUOUS
10
4.89483
20
-4.51374
11
4.89482
21
-4.51373
0
LINE
8
BLACK
6
CONTINUOUS
10
4.89482
20
-4.51373
11
4.89475
21
-4.51366
0
LINE
8
BLACK
6
CONTINUOUS
10
4.89475
20
-4.51366
11
4.8945
21
-4.51337
0
LINE
8
BLACK
6
CONTINUOUS
10
4.8945
20
-4.51337
11
4.89437
21
-4.51319
0
LINE
8
BLACK
6
CONTINUOUS
10
4.89437
20
-4.51319
11
4.89434
21
-4.51315
0
LINE
8
BLACK
6
CONTINUOUS
10
4.89434
20
-4.51315
11
4.89432
21
-4.51312
0
LINE
8
BLACK
6
CONTINUOUS
10
4.89432
20
-4.51312
11
4.89427
21
-4.51305
0
LINE
8
BLACK
6
CONTINUOUS
10
4.89427
20
-4.51305
11
4.89408
21
-4.51271
0
LINE
8
BLACK
6
CONTINUOUS
10
4.89408
20
-4.51271
11
4.89399
21
-4.51253
0
LINE
8
BLACK
6
CONTINUOUS
10
4.89399
20
-4.51253
11
4.89397
21
-4.51248
0
LINE
8
BLACK
6
CONTINUOUS
10
4.89397
20
-4.51248
11
4.89396
21
-4.51244
0
LINE
8
BLACK
6
CONTINUOUS
10
4.89396
20
-4.51244
11
4.89392
21
-4.51235
0
LINE
8
BLACK
6
CONTINUOUS
10
4.89392
20
-4.51235
11
4.89379
21
-4.51198
0
LINE
8
BLACK
6
CONTINUOUS
10
4.89379
20
-4.51198
11
4.89375
21
-4.5118
0
LINE
8
BLACK
6
CONTINUOUS
10
4.89375
20
-4.5118
11
4.89374
21
-4.51175
0
LINE
8
BLACK
6
CONTINUOUS
10
4.89374
20
-4.51175
11
4.89373
21
-4.5117
0
LINE
8
BLACK
6
CONTINUOUS
10
4.89373
20
-4.5117
11
4.89371
21
-4.5116
0
LINE
8
BLACK
6
CONTINUOUS
10
4.89371
20
-4.5116
11
4.89366
21
-4.51121
0
LINE
8
BLACK
6
CONTINUOUS
10
4.89366
20
-4.51121
11
4.89366
21
-4.51104
0
LINE
8
BLACK
6
CONTINUOUS
10
4.89366
20
-4.51104
11
4.89365
21
-4.51098
0
LINE
8
BLACK
6
CONTINUOUS
10
4.89365
20
-4.51098
11
4.89366
21
-4.51094
0
LINE
8
BLACK
6
CONTINUOUS
10
4.89366
20
-4.51094
11
4.89365
21
-4.51082
0
LINE
8
BLACK
6
CONTINUOUS
10
4.89365
20
-4.51082
11
4.89368
21
-4.51043
0
LINE
8
BLACK
6
CONTINUOUS
10
4.89368
20
-4.51043
11
4.89371
21
-4.51027
0
LINE
8
BLACK
6
CONTINUOUS
10
4.89371
20
-4.51027
11
4.89372
21
-4.51022
0
LINE
8
BLACK
6
CONTINUOUS
10
4.89372
20
-4.51022
11
4.89373
21
-4.51017
0
LINE
8
BLACK
6
CONTINUOUS
10
4.89373
20
-4.51017
11
4.89375
21
-4.51004
0
LINE
8
BLACK
6
CONTINUOUS
10
4.89375
20
-4.51004
11
4.89386
21
-4.50967
0
LINE
8
BLACK
6
CONTINUOUS
10
4.89386
20
-4.50967
11
4.89392
21
-4.50953
0
LINE
8
BLACK
6
CONTINUOUS
10
4.89392
20
-4.50953
11
4.89393
21
-4.50948
0
LINE
8
BLACK
6
CONTINUOUS
10
4.89393
20
-4.50948
11
4.89395
21
-4.50944
0
LINE
8
BLACK
6
CONTINUOUS
10
4.89395
20
-4.50944
11
4.89401
21
-4.5093
0
LINE
8
BLACK
6
CONTINUOUS
10
4.89401
20
-4.5093
11
4.89418
21
-4.50895
0
LINE
8
BLACK
6
CONTINUOUS
10
4.89418
20
-4.50895
11
4.89426
21
-4.50884
0
LINE
8
BLACK
6
CONTINUOUS
10
4.89426
20
-4.50884
11
4.89428
21
-4.5088
0
LINE
8
BLACK
6
CONTINUOUS
10
4.89428
20
-4.5088
11
4.89431
21
-4.50876
0
LINE
8
BLACK
6
CONTINUOUS
10
4.89431
20
-4.50876
11
4.8944
21
-4.50863
0
LINE
8
BLACK
6
CONTINUOUS
10
4.8944
20
-4.50863
11
4.89464
21
-4.50832
0
LINE
8
BLACK
6
CONTINUOUS
10
4.89464
20
-4.50832
11
4.89473
21
-4.50823
0
LINE
8
BLACK
6
CONTINUOUS
10
4.89473
20
-4.50823
11
4.89476
21
-4.50819
0
LINE
8
BLACK
6
CONTINUOUS
10
4.89476
20
-4.50819
11
4.91227
21
-4.4901
0
LINE
8
BLACK
6
CONTINUOUS
10
4.91227
20
-4.4901
11
4.92655
21
-4.46821
0
LINE
8
BLACK
6
CONTINUOUS
10
4.92655
20
-4.46821
11
4.9363
21
-4.44398
0
LINE
8
BLACK
6
CONTINUOUS
10
4.9363
20
-4.44398
11
4.94117
21
-4.41832
0
LINE
8
BLACK
6
CONTINUOUS
10
4.94117
20
-4.41832
11
4.94095
21
-4.3922
0
LINE
8
BLACK
6
CONTINUOUS
10
4.94095
20
-4.3922
11
4.93567
21
-4.36662
0
LINE
8
BLACK
6
CONTINUOUS
10
4.93567
20
-4.36662
11
4.92552
21
-4.34255
0
LINE
8
BLACK
6
CONTINUOUS
10
4.92552
20
-4.34255
11
4.91088
21
-4.32091
0
LINE
8
BLACK
6
CONTINUOUS
10
4.91088
20
-4.32091
11
4.89233
21
-4.30253
0
LINE
8
BLACK
6
CONTINUOUS
10
4.89233
20
-4.30253
11
4.87055
21
-4.2881
0
LINE
8
BLACK
6
CONTINUOUS
10
4.87055
20
-4.2881
11
4.84639
21
-4.27818
0
LINE
8
BLACK
6
CONTINUOUS
10
4.84639
20
-4.27818
11
4.82076
21
-4.27314
0
LINE
8
BLACK
6
CONTINUOUS
10
4.82076
20
-4.27314
11
4.79464
21
-4.27317
0
LINE
8
BLACK
6
CONTINUOUS
10
4.79464
20
-4.27317
11
4.76902
21
-4.27827
0
LINE
8
BLACK
6
CONTINUOUS
10
4.76902
20
-4.27827
11
4.74453
21
-4.2884
0
LINE
8
BLACK
6
CONTINUOUS
10
4.74453
20
-4.2884
11
4.74448
21
-4.28842
0
LINE
8
BLACK
6
CONTINUOUS
10
4.74448
20
-4.28842
11
4.74445
21
-4.28843
0
LINE
8
BLACK
6
CONTINUOUS
10
4.74445
20
-4.28843
11
4.74438
21
-4.28846
0
LINE
8
BLACK
6
CONTINUOUS
10
4.74438
20
-4.28846
11
4.74401
21
-4.28858
0
LINE
8
BLACK
6
CONTINUOUS
10
4.74401
20
-4.28858
11
4.74379
21
-4.28862
0
LINE
8
BLACK
6
CONTINUOUS
10
4.74379
20
-4.28862
11
4.74374
21
-4.28864
0
LINE
8
BLACK
6
CONTINUOUS
10
4.74374
20
-4.28864
11
4.7437
21
-4.28864
0
LINE
8
BLACK
6
CONTINUOUS
10
4.7437
20
-4.28864
11
4.74362
21
-4.28866
0
LINE
8
BLACK
6
CONTINUOUS
10
4.74362
20
-4.28866
11
4.74323
21
-4.2887
0
LINE
8
BLACK
6
CONTINUOUS
10
4.74323
20
-4.2887
11
4.74303
21
-4.2887
0
LINE
8
BLACK
6
CONTINUOUS
10
4.74303
20
-4.2887
11
4.74297
21
-4.2887
0
LINE
8
BLACK
6
CONTINUOUS
10
4.74297
20
-4.2887
11
4.74293
21
-4.2887
0
LINE
8
BLACK
6
CONTINUOUS
10
4.74293
20
-4.2887
11
4.74284
21
-4.2887
0
LINE
8
BLACK
6
CONTINUOUS
10
4.74284
20
-4.2887
11
4.74245
21
-4.28866
0
LINE
8
BLACK
6
CONTINUOUS
10
4.74245
20
-4.28866
11
4.74226
21
-4.28862
0
LINE
8
BLACK
6
CONTINUOUS
10
4.74226
20
-4.28862
11
4.74221
21
-4.28862
0
LINE
8
BLACK
6
CONTINUOUS
10
4.74221
20
-4.28862
11
4.74217
21
-4.28861
0
LINE
8
BLACK
6
CONTINUOUS
10
4.74217
20
-4.28861
11
4.74207
21
-4.28859
0
LINE
8
BLACK
6
CONTINUOUS
10
4.74207
20
-4.28859
11
4.74169
21
-4.28847
0
LINE
8
BLACK
6
CONTINUOUS
10
4.74169
20
-4.28847
11
4.74153
21
-4.2884
0
LINE
8
BLACK
6
CONTINUOUS
10
4.74153
20
-4.2884
11
4.74148
21
-4.28839
0
LINE
8
BLACK
6
CONTINUOUS
10
4.74148
20
-4.28839
11
4.74144
21
-4.28837
0
LINE
8
BLACK
6
CONTINUOUS
10
4.74144
20
-4.28837
11
4.74133
21
-4.28832
0
LINE
8
BLACK
6
CONTINUOUS
10
4.74133
20
-4.28832
11
4.74099
21
-4.28814
0
LINE
8
BLACK
6
CONTINUOUS
10
4.74099
20
-4.28814
11
4.74085
21
-4.28804
0
LINE
8
BLACK
6
CONTINUOUS
10
4.74085
20
-4.28804
11
4.7408
21
-4.28802
0
LINE
8
BLACK
6
CONTINUOUS
10
4.7408
20
-4.28802
11
4.74077
21
-4.28799
0
LINE
8
BLACK
6
CONTINUOUS
10
4.74077
20
-4.28799
11
4.74066
21
-4.28792
0
LINE
8
BLACK
6
CONTINUOUS
10
4.74066
20
-4.28792
11
4.74036
21
-4.28767
0
LINE
8
BLACK
6
CONTINUOUS
10
4.74036
20
-4.28767
11
4.74025
21
-4.28756
0
LINE
8
BLACK
6
CONTINUOUS
10
4.74025
20
-4.28756
11
4.74021
21
-4.28752
0
LINE
8
BLACK
6
CONTINUOUS
10
4.74021
20
-4.28752
11
4.74018
21
-4.28749
0
LINE
8
BLACK
6
CONTINUOUS
10
4.74018
20
-4.28749
11
4.74009
21
-4.28739
0
LINE
8
BLACK
6
CONTINUOUS
10
4.74009
20
-4.28739
11
4.73984
21
-4.28708
0
LINE
8
BLACK
6
CONTINUOUS
10
4.73984
20
-4.28708
11
4.73976
21
-4.28696
0
LINE
8
BLACK
6
CONTINUOUS
10
4.73976
20
-4.28696
11
4.73973
21
-4.28693
0
LINE
8
BLACK
6
CONTINUOUS
10
4.73973
20
-4.28693
11
4.73971
21
-4.28688
0
LINE
8
BLACK
6
CONTINUOUS
10
4.73971
20
-4.28688
11
4.73963
21
-4.28675
0
LINE
8
BLACK
6
CONTINUOUS
10
4.73963
20
-4.28675
11
4.73944
21
-4.28641
0
LINE
8
BLACK
6
CONTINUOUS
10
4.73944
20
-4.28641
11
4.7394
21
-4.28629
0
LINE
8
BLACK
6
CONTINUOUS
10
4.7394
20
-4.28629
11
4.73937
21
-4.28625
0
LINE
8
BLACK
6
CONTINUOUS
10
4.73937
20
-4.28625
11
4.73936
21
-4.28619
0
LINE
8
BLACK
6
CONTINUOUS
10
4.73936
20
-4.28619
11
4.7393
21
-4.28604
0
LINE
8
BLACK
6
CONTINUOUS
10
4.7393
20
-4.28604
11
4.71897
21
-4.2268
0
LINE
8
BLACK
6
CONTINUOUS
10
4.71897
20
-4.2268
11
4.71897
21
-4.22679
0
LINE
8
BLACK
6
CONTINUOUS
10
4.71897
20
-4.22679
11
4.71897
21
-4.22679
0
LINE
8
BLACK
6
CONTINUOUS
10
4.71897
20
-4.22679
11
4.7189
21
-4.22658
0
LINE
8
BLACK
6
CONTINUOUS
10
4.7189
20
-4.22658
11
4.71888
21
-4.2265
0
LINE
8
BLACK
6
CONTINUOUS
10
4.71888
20
-4.2265
11
4.71886
21
-4.22642
0
LINE
8
BLACK
6
CONTINUOUS
10
4.71886
20
-4.22642
11
4.70451
21
-4.16544
0
LINE
8
BLACK
6
CONTINUOUS
10
4.70451
20
-4.16544
11
4.70447
21
-4.16522
0
LINE
8
BLACK
6
CONTINUOUS
10
4.70447
20
-4.16522
11
4.70445
21
-4.16514
0
LINE
8
BLACK
6
CONTINUOUS
10
4.70445
20
-4.16514
11
4.70444
21
-4.16506
0
LINE
8
BLACK
6
CONTINUOUS
10
4.70444
20
-4.16506
11
4.69622
21
-4.10296
0
LINE
8
BLACK
6
CONTINUOUS
10
4.69622
20
-4.10296
11
4.69622
21
-4.10296
0
LINE
8
BLACK
6
CONTINUOUS
10
4.69622
20
-4.10296
11
4.69622
21
-4.10296
0
LINE
8
BLACK
6
CONTINUOUS
10
4.69622
20
-4.10296
11
4.6962
21
-4.10273
0
LINE
8
BLACK
6
CONTINUOUS
10
4.6962
20
-4.10273
11
4.69619
21
-4.10265
0
LINE
8
BLACK
6
CONTINUOUS
10
4.69619
20
-4.10265
11
4.69619
21
-4.10257
0
LINE
8
BLACK
6
CONTINUOUS
10
4.69619
20
-4.10257
11
4.69418
21
-4.03996
0
LINE
8
BLACK
6
CONTINUOUS
10
4.69418
20
-4.03996
11
4.69418
21
-4.03996
0
LINE
8
BLACK
6
CONTINUOUS
10
4.69418
20
-4.03996
11
4.69418
21
-4.03996
0
LINE
8
BLACK
6
CONTINUOUS
10
4.69418
20
-4.03996
11
4.69417
21
-4.03973
0
LINE
8
BLACK
6
CONTINUOUS
10
4.69417
20
-4.03973
11
4.69418
21
-4.03965
0
LINE
8
BLACK
6
CONTINUOUS
10
4.69418
20
-4.03965
11
4.69418
21
-4.03957
0
LINE
8
BLACK
6
CONTINUOUS
10
4.69418
20
-4.03957
11
4.6984
21
-3.97707
0
LINE
8
BLACK
6
CONTINUOUS
10
4.6984
20
-3.97707
11
4.6984
21
-3.97707
0
LINE
8
BLACK
6
CONTINUOUS
10
4.6984
20
-3.97707
11
4.6984
21
-3.97707
0
LINE
8
BLACK
6
CONTINUOUS
10
4.6984
20
-3.97707
11
4.69842
21
-3.97684
0
LINE
8
BLACK
6
CONTINUOUS
10
4.69842
20
-3.97684
11
4.69843
21
-3.97676
0
LINE
8
BLACK
6
CONTINUOUS
10
4.69843
20
-3.97676
11
4.69844
21
-3.97668
0
LINE
8
BLACK
6
CONTINUOUS
10
4.69844
20
-3.97668
11
4.70885
21
-3.91491
0
LINE
8
BLACK
6
CONTINUOUS
10
4.70885
20
-3.91491
11
4.70885
21
-3.91491
0
LINE
8
BLACK
6
CONTINUOUS
10
4.70885
20
-3.91491
11
4.70885
21
-3.91491
0
LINE
8
BLACK
6
CONTINUOUS
10
4.70885
20
-3.91491
11
4.70889
21
-3.91469
0
LINE
8
BLACK
6
CONTINUOUS
10
4.70889
20
-3.91469
11
4.70891
21
-3.91461
0
LINE
8
BLACK
6
CONTINUOUS
10
4.70891
20
-3.91461
11
4.70893
21
-3.91453
0
LINE
8
BLACK
6
CONTINUOUS
10
4.70893
20
-3.91453
11
4.72542
21
-3.85409
0
LINE
8
BLACK
6
CONTINUOUS
10
4.72542
20
-3.85409
11
4.72548
21
-3.85388
0
LINE
8
BLACK
6
CONTINUOUS
10
4.72548
20
-3.85388
11
4.72551
21
-3.8538
0
LINE
8
BLACK
6
CONTINUOUS
10
4.72551
20
-3.8538
11
4.72554
21
-3.85372
0
LINE
8
BLACK
6
CONTINUOUS
10
4.72554
20
-3.85372
11
4.74795
21
-3.79522
0
LINE
8
BLACK
6
CONTINUOUS
10
4.74795
20
-3.79522
11
4.74803
21
-3.79502
0
LINE
8
BLACK
6
CONTINUOUS
10
4.74803
20
-3.79502
11
4.74807
21
-3.79494
0
LINE
8
BLACK
6
CONTINUOUS
10
4.74807
20
-3.79494
11
4.7481
21
-3.79487
0
LINE
8
BLACK
6
CONTINUOUS
10
4.7481
20
-3.79487
11
4.77621
21
-3.73889
0
LINE
8
BLACK
6
CONTINUOUS
10
4.77621
20
-3.73889
11
4.77621
21
-3.73888
0
LINE
8
BLACK
6
CONTINUOUS
10
4.77621
20
-3.73888
11
4.77621
21
-3.73888
0
LINE
8
BLACK
6
CONTINUOUS
10
4.77621
20
-3.73888
11
4.77632
21
-3.73869
0
LINE
8
BLACK
6
CONTINUOUS
10
4.77632
20
-3.73869
11
4.77636
21
-3.73862
0
LINE
8
BLACK
6
CONTINUOUS
10
4.77636
20
-3.73862
11
4.7764
21
-3.73854
0
LINE
8
BLACK
6
CONTINUOUS
10
4.7764
20
-3.73854
11
4.80993
21
-3.68563
0
LINE
8
BLACK
6
CONTINUOUS
10
4.80993
20
-3.68563
11
4.81006
21
-3.68544
0
LINE
8
BLACK
6
CONTINUOUS
10
4.81006
20
-3.68544
11
4.81011
21
-3.68538
0
LINE
8
BLACK
6
CONTINUOUS
10
4.81011
20
-3.68538
11
4.81015
21
-3.68531
0
LINE
8
BLACK
6
CONTINUOUS
10
4.81015
20
-3.68531
11
4.84877
21
-3.63599
0
LINE
8
BLACK
6
CONTINUOUS
10
4.84877
20
-3.63599
11
4.84877
21
-3.63599
0
LINE
8
BLACK
6
CONTINUOUS
10
4.84877
20
-3.63599
11
4.84877
21
-3.63599
0
LINE
8
BLACK
6
CONTINUOUS
10
4.84877
20
-3.63599
11
4.84892
21
-3.63581
0
LINE
8
BLACK
6
CONTINUOUS
10
4.84892
20
-3.63581
11
4.84897
21
-3.63576
0
LINE
8
BLACK
6
CONTINUOUS
10
4.84897
20
-3.63576
11
4.84903
21
-3.63569
0
LINE
8
BLACK
6
CONTINUOUS
10
4.84903
20
-3.63569
11
4.89235
21
-3.59045
0
LINE
8
BLACK
6
CONTINUOUS
10
4.89235
20
-3.59045
11
4.89235
21
-3.59045
0
LINE
8
BLACK
6
CONTINUOUS
10
4.89235
20
-3.59045
11
4.89235
21
-3.59045
0
LINE
8
BLACK
6
CONTINUOUS
10
4.89235
20
-3.59045
11
4.89251
21
-3.59029
0
LINE
8
BLACK
6
CONTINUOUS
10
4.89251
20
-3.59029
11
4.89258
21
-3.59024
0
LINE
8
BLACK
6
CONTINUOUS
10
4.89258
20
-3.59024
11
4.89264
21
-3.59018
0
LINE
8
BLACK
6
CONTINUOUS
10
4.89264
20
-3.59018
11
4.94024
21
-3.54947
0
LINE
8
BLACK
6
CONTINUOUS
10
4.94024
20
-3.54947
11
4.94024
21
-3.54947
0
LINE
8
BLACK
6
CONTINUOUS
10
4.94024
20
-3.54947
11
4.94024
21
-3.54946
0
LINE
8
BLACK
6
CONTINUOUS
10
4.94024
20
-3.54946
11
4.94042
21
-3.54932
0
LINE
8
BLACK
6
CONTINUOUS
10
4.94042
20
-3.54932
11
4.94049
21
-3.54928
0
LINE
8
BLACK
6
CONTINUOUS
10
4.94049
20
-3.54928
11
4.94055
21
-3.54923
0
LINE
8
BLACK
6
CONTINUOUS
10
4.94055
20
-3.54923
11
4.99196
21
-3.51344
0
LINE
8
BLACK
6
CONTINUOUS
10
4.99196
20
-3.51344
11
4.99196
21
-3.51344
0
LINE
8
BLACK
6
CONTINUOUS
10
4.99196
20
-3.51344
11
4.99196
21
-3.51344
0
LINE
8
BLACK
6
CONTINUOUS
10
4.99196
20
-3.51344
11
4.99215
21
-3.51331
0
LINE
8
BLACK
6
CONTINUOUS
10
4.99215
20
-3.51331
11
4.99222
21
-3.51328
0
LINE
8
BLACK
6
CONTINUOUS
10
4.99222
20
-3.51328
11
4.99229
21
-3.51323
0
LINE
8
BLACK
6
CONTINUOUS
10
4.99229
20
-3.51323
11
5.04701
21
-3.48273
0
LINE
8
BLACK
6
CONTINUOUS
10
5.04701
20
-3.48273
11
5.04721
21
-3.48262
0
LINE
8
BLACK
6
CONTINUOUS
10
5.04721
20
-3.48262
11
5.04728
21
-3.48259
0
LINE
8
BLACK
6
CONTINUOUS
10
5.04728
20
-3.48259
11
5.04736
21
-3.48255
0
LINE
8
BLACK
6
CONTINUOUS
10
5.04736
20
-3.48255
11
5.10483
21
-3.45764
0
LINE
8
BLACK
6
CONTINUOUS
10
5.10483
20
-3.45764
11
5.10483
21
-3.45764
0
LINE
8
BLACK
6
CONTINUOUS
10
5.10483
20
-3.45764
11
5.10483
21
-3.45764
0
LINE
8
BLACK
6
CONTINUOUS
10
5.10483
20
-3.45764
11
5.10504
21
-3.45755
0
LINE
8
BLACK
6
CONTINUOUS
10
5.10504
20
-3.45755
11
5.10512
21
-3.45753
0
LINE
8
BLACK
6
CONTINUOUS
10
5.10512
20
-3.45753
11
5.1052
21
-3.4575
0
LINE
8
BLACK
6
CONTINUOUS
10
5.1052
20
-3.4575
11
5.16486
21
-3.43841
0
LINE
8
BLACK
6
CONTINUOUS
10
5.16486
20
-3.43841
11
5.16508
21
-3.43835
0
LINE
8
BLACK
6
CONTINUOUS
10
5.16508
20
-3.43835
11
5.1651
21
-3.43834
0
LINE
8
BLACK
6
CONTINUOUS
10
5.1651
20
-3.43834
11
5.16512
21
-3.43834
0
LINE
8
BLACK
6
CONTINUOUS
10
5.16512
20
-3.43834
11
5.19003
21
-3.43225
0
LINE
8
BLACK
6
CONTINUOUS
10
5.19003
20
-3.43225
11
5.19019
21
-3.43222
0
LINE
8
BLACK
6
CONTINUOUS
10
5.19019
20
-3.43222
11
5.1902
21
-3.43222
0
LINE
8
BLACK
6
CONTINUOUS
10
5.1902
20
-3.43222
11
5.19021
21
-3.43221
0
LINE
8
BLACK
6
CONTINUOUS
10
5.19021
20
-3.43221
11
5.19025
21
-3.43221
0
LINE
8
BLACK
6
CONTINUOUS
10
5.19025
20
-3.43221
11
5.19064
21
-3.43215
0
LINE
8
BLACK
6
CONTINUOUS
10
5.19064
20
-3.43215
11
5.19092
21
-3.43214
0
LINE
8
BLACK
6
CONTINUOUS
10
5.19092
20
-3.43214
11
5.19097
21
-3.43214
0
LINE
8
BLACK
6
CONTINUOUS
10
5.19097
20
-3.43214
11
5.19099
21
-3.43214
0
LINE
8
BLACK
6
CONTINUOUS
10
4.82155
20
-4.2653
11
4.8219
21
-4.26534
0
LINE
8
BLACK
6
CONTINUOUS
10
4.8219
20
-4.26534
11
4.84829
21
-4.27053
0
LINE
8
BLACK
6
CONTINUOUS
10
4.84829
20
-4.27053
11
4.84829
21
-4.27053
0
LINE
8
BLACK
6
CONTINUOUS
10
4.84829
20
-4.27053
11
4.84829
21
-4.27053
0
LINE
8
BLACK
6
CONTINUOUS
10
4.84829
20
-4.27053
11
4.84834
21
-4.27054
0
LINE
8
BLACK
6
CONTINUOUS
10
4.84834
20
-4.27054
11
4.84868
21
-4.27065
0
LINE
8
BLACK
6
CONTINUOUS
10
4.84868
20
-4.27065
11
4.84902
21
-4.27075
0
LINE
8
BLACK
6
CONTINUOUS
10
4.84902
20
-4.27075
11
4.8739
21
-4.28097
0
LINE
8
BLACK
6
CONTINUOUS
10
4.8739
20
-4.28097
11
4.8739
21
-4.28097
0
LINE
8
BLACK
6
CONTINUOUS
10
4.8739
20
-4.28097
11
4.8739
21
-4.28097
0
LINE
8
BLACK
6
CONTINUOUS
10
4.8739
20
-4.28097
11
4.87395
21
-4.28099
0
LINE
8
BLACK
6
CONTINUOUS
10
4.87395
20
-4.28099
11
4.87426
21
-4.28116
0
LINE
8
BLACK
6
CONTINUOUS
10
4.87426
20
-4.28116
11
4.87458
21
-4.28133
0
LINE
8
BLACK
6
CONTINUOUS
10
4.87458
20
-4.28133
11
4.897
21
-4.29618
0
LINE
8
BLACK
6
CONTINUOUS
10
4.897
20
-4.29618
11
4.897
21
-4.29618
0
LINE
8
BLACK
6
CONTINUOUS
10
4.897
20
-4.29618
11
4.897
21
-4.29618
0
LINE
8
BLACK
6
CONTINUOUS
10
4.897
20
-4.29618
11
4.89704
21
-4.29621
0
LINE
8
BLACK
6
CONTINUOUS
10
4.89704
20
-4.29621
11
4.89732
21
-4.29644
0
LINE
8
BLACK
6
CONTINUOUS
10
4.89732
20
-4.29644
11
4.89759
21
-4.29667
0
LINE
8
BLACK
6
CONTINUOUS
10
4.89759
20
-4.29667
11
4.9167
21
-4.31559
0
LINE
8
BLACK
6
CONTINUOUS
10
4.9167
20
-4.31559
11
4.91674
21
-4.31563
0
LINE
8
BLACK
6
CONTINUOUS
10
4.91674
20
-4.31563
11
4.91696
21
-4.31591
0
LINE
8
BLACK
6
CONTINUOUS
10
4.91696
20
-4.31591
11
4.91719
21
-4.31618
0
LINE
8
BLACK
6
CONTINUOUS
10
4.91719
20
-4.31618
11
4.93226
21
-4.33846
0
LINE
8
BLACK
6
CONTINUOUS
10
4.93226
20
-4.33846
11
4.93226
21
-4.33846
0
LINE
8
BLACK
6
CONTINUOUS
10
4.93226
20
-4.33846
11
4.93226
21
-4.33846
0
LINE
8
BLACK
6
CONTINUOUS
10
4.93226
20
-4.33846
11
4.93229
21
-4.33851
0
LINE
8
BLACK
6
CONTINUOUS
10
4.93229
20
-4.33851
11
4.93245
21
-4.33882
0
LINE
8
BLACK
6
CONTINUOUS
10
4.93245
20
-4.33882
11
4.93262
21
-4.33914
0
LINE
8
BLACK
6
CONTINUOUS
10
4.93262
20
-4.33914
11
4.94307
21
-4.36391
0
LINE
8
BLACK
6
CONTINUOUS
10
4.94307
20
-4.36391
11
4.94309
21
-4.36397
0
LINE
8
BLACK
6
CONTINUOUS
10
4.94309
20
-4.36397
11
4.9432
21
-4.36431
0
LINE
8
BLACK
6
CONTINUOUS
10
4.9432
20
-4.36431
11
4.9433
21
-4.36465
0
LINE
8
BLACK
6
CONTINUOUS
10
4.9433
20
-4.36465
11
4.94874
21
-4.39099
0
LINE
8
BLACK
6
CONTINUOUS
10
4.94874
20
-4.39099
11
4.94875
21
-4.39104
0
LINE
8
BLACK
6
CONTINUOUS
10
4.94875
20
-4.39104
11
4.94878
21
-4.39139
0
LINE
8
BLACK
6
CONTINUOUS
10
4.94878
20
-4.39139
11
4.94882
21
-4.39175
0
LINE
8
BLACK
6
CONTINUOUS
10
4.94882
20
-4.39175
11
4.94904
21
-4.41864
0
LINE
8
BLACK
6
CONTINUOUS
10
4.94904
20
-4.41864
11
4.94904
21
-4.4187
0
LINE
8
BLACK
6
CONTINUOUS
10
4.94904
20
-4.4187
11
4.94901
21
-4.41905
0
LINE
8
BLACK
6
CONTINUOUS
10
4.94901
20
-4.41905
11
4.94897
21
-4.41941
0
LINE
8
BLACK
6
CONTINUOUS
10
4.94897
20
-4.41941
11
4.94397
21
-4.44583
0
LINE
8
BLACK
6
CONTINUOUS
10
4.94397
20
-4.44583
11
4.94396
21
-4.44588
0
LINE
8
BLACK
6
CONTINUOUS
10
4.94396
20
-4.44588
11
4.94385
21
-4.44622
0
LINE
8
BLACK
6
CONTINUOUS
10
4.94385
20
-4.44622
11
4.94375
21
-4.44657
0
LINE
8
BLACK
6
CONTINUOUS
10
4.94375
20
-4.44657
11
4.93371
21
-4.47151
0
LINE
8
BLACK
6
CONTINUOUS
10
4.93371
20
-4.47151
11
4.93369
21
-4.47156
0
LINE
8
BLACK
6
CONTINUOUS
10
4.93369
20
-4.47156
11
4.93352
21
-4.47188
0
LINE
8
BLACK
6
CONTINUOUS
10
4.93352
20
-4.47188
11
4.93335
21
-4.4722
0
LINE
8
BLACK
6
CONTINUOUS
10
4.93335
20
-4.4722
11
4.91865
21
-4.49472
0
LINE
8
BLACK
6
CONTINUOUS
10
4.91865
20
-4.49472
11
4.91862
21
-4.49476
0
LINE
8
BLACK
6
CONTINUOUS
10
4.91862
20
-4.49476
11
4.9184
21
-4.49503
0
LINE
8
BLACK
6
CONTINUOUS
10
4.9184
20
-4.49503
11
4.91819
21
-4.4953
0
LINE
8
BLACK
6
CONTINUOUS
10
4.91819
20
-4.4953
11
4.90322
21
-4.51077
0
LINE
8
BLACK
6
CONTINUOUS
10
4.90322
20
-4.51077
11
4.9057
21
-4.51307
0
LINE
8
BLACK
6
CONTINUOUS
10
4.9057
20
-4.51307
11
4.95376
21
-4.55277
0
LINE
8
BLACK
6
CONTINUOUS
10
4.95376
20
-4.55277
11
5.00546
21
-4.58745
0
LINE
8
BLACK
6
CONTINUOUS
10
5.00546
20
-4.58745
11
5.06034
21
-4.61683
0
LINE
8
BLACK
6
CONTINUOUS
10
5.06034
20
-4.61683
11
5.11787
21
-4.64061
0
LINE
8
BLACK
6
CONTINUOUS
10
5.11787
20
-4.64061
11
5.17747
21
-4.65855
0
LINE
8
BLACK
6
CONTINUOUS
10
5.17747
20
-4.65855
11
5.23856
21
-4.67049
0
LINE
8
BLACK
6
CONTINUOUS
10
5.23856
20
-4.67049
11
5.30054
21
-4.67631
0
LINE
8
BLACK
6
CONTINUOUS
10
5.30054
20
-4.67631
11
5.36279
21
-4.67594
0
LINE
8
BLACK
6
CONTINUOUS
10
5.36279
20
-4.67594
11
5.42469
21
-4.66938
0
LINE
8
BLACK
6
CONTINUOUS
10
5.42469
20
-4.66938
11
5.48564
21
-4.65672
0
LINE
8
BLACK
6
CONTINUOUS
10
5.48564
20
-4.65672
11
5.54503
21
-4.63806
0
LINE
8
BLACK
6
CONTINUOUS
10
5.54503
20
-4.63806
11
5.60227
21
-4.61359
0
LINE
8
BLACK
6
CONTINUOUS
10
5.60227
20
-4.61359
11
5.65679
21
-4.58356
0
LINE
8
BLACK
6
CONTINUOUS
10
5.65679
20
-4.58356
11
5.70807
21
-4.54827
0
LINE
8
BLACK
6
CONTINUOUS
10
5.70807
20
-4.54827
11
5.75254
21
-4.51063
0
LINE
8
BLACK
6
CONTINUOUS
10
5.75254
20
-4.51063
11
5.73683
21
-4.49424
0
LINE
8
BLACK
6
CONTINUOUS
10
5.73683
20
-4.49424
11
5.73679
21
-4.4942
0
LINE
8
BLACK
6
CONTINUOUS
10
5.73679
20
-4.4942
11
5.73658
21
-4.49391
0
LINE
8
BLACK
6
CONTINUOUS
10
5.73658
20
-4.49391
11
5.73636
21
-4.49363
0
LINE
8
BLACK
6
CONTINUOUS
10
5.73636
20
-4.49363
11
5.72188
21
-4.47097
0
LINE
8
BLACK
6
CONTINUOUS
10
5.72188
20
-4.47097
11
5.72185
21
-4.47092
0
LINE
8
BLACK
6
CONTINUOUS
10
5.72185
20
-4.47092
11
5.72169
21
-4.4706
0
LINE
8
BLACK
6
CONTINUOUS
10
5.72169
20
-4.4706
11
5.72153
21
-4.47028
0
LINE
8
BLACK
6
CONTINUOUS
10
5.72153
20
-4.47028
11
5.71173
21
-4.44524
0
LINE
8
BLACK
6
CONTINUOUS
10
5.71173
20
-4.44524
11
5.71171
21
-4.44519
0
LINE
8
BLACK
6
CONTINUOUS
10
5.71171
20
-4.44519
11
5.71162
21
-4.44484
0
LINE
8
BLACK
6
CONTINUOUS
10
5.71162
20
-4.44484
11
5.71152
21
-4.4445
0
LINE
8
BLACK
6
CONTINUOUS
10
5.71152
20
-4.4445
11
5.70677
21
-4.41803
0
LINE
8
BLACK
6
CONTINUOUS
10
5.70677
20
-4.41803
11
5.70677
21
-4.41803
0
LINE
8
BLACK
6
CONTINUOUS
10
5.70677
20
-4.41803
11
5.70677
21
-4.41803
0
LINE
8
BLACK
6
CONTINUOUS
10
5.70677
20
-4.41803
11
5.70676
21
-4.41798
0
LINE
8
BLACK
6
CONTINUOUS
10
5.70676
20
-4.41798
11
5.70674
21
-4.41762
0
LINE
8
BLACK
6
CONTINUOUS
10
5.70674
20
-4.41762
11
5.70671
21
-4.41726
0
LINE
8
BLACK
6
CONTINUOUS
10
5.70671
20
-4.41726
11
5.70719
21
-4.39038
0
LINE
8
BLACK
6
CONTINUOUS
10
5.70719
20
-4.39038
11
5.7072
21
-4.39032
0
LINE
8
BLACK
6
CONTINUOUS
10
5.7072
20
-4.39032
11
5.70724
21
-4.38997
0
LINE
8
BLACK
6
CONTINUOUS
10
5.70724
20
-4.38997
11
5.70728
21
-4.38961
0
LINE
8
BLACK
6
CONTINUOUS
10
5.70728
20
-4.38961
11
5.71298
21
-4.36333
0
LINE
8
BLACK
6
CONTINUOUS
10
5.71298
20
-4.36333
11
5.71299
21
-4.36328
0
LINE
8
BLACK
6
CONTINUOUS
10
5.71299
20
-4.36328
11
5.7131
21
-4.36294
0
LINE
8
BLACK
6
CONTINUOUS
10
5.7131
20
-4.36294
11
5.71321
21
-4.3626
0
LINE
8
BLACK
6
CONTINUOUS
10
5.71321
20
-4.3626
11
5.72391
21
-4.33792
0
LINE
8
BLACK
6
CONTINUOUS
10
5.72391
20
-4.33792
11
5.72393
21
-4.33787
0
LINE
8
BLACK
6
CONTINUOUS
10
5.72393
20
-4.33787
11
5.72411
21
-4.33756
0
LINE
8
BLACK
6
CONTINUOUS
10
5.72411
20
-4.33756
11
5.72428
21
-4.33725
0
LINE
8
BLACK
6
CONTINUOUS
10
5.72428
20
-4.33725
11
5.73956
21
-4.31512
0
LINE
8
BLACK
6
CONTINUOUS
10
5.73956
20
-4.31512
11
5.73956
21
-4.31512
0
LINE
8
BLACK
6
CONTINUOUS
10
5.73956
20
-4.31512
11
5.73956
21
-4.31512
0
LINE
8
BLACK
6
CONTINUOUS
10
5.73956
20
-4.31512
11
5.73959
21
-4.31508
0
LINE
8
BLACK
6
CONTINUOUS
10
5.73959
20
-4.31508
11
5.73983
21
-4.31481
0
LINE
8
BLACK
6
CONTINUOUS
10
5.73983
20
-4.31481
11
5.74006
21
-4.31454
0
LINE
8
BLACK
6
CONTINUOUS
10
5.74006
20
-4.31454
11
5.75935
21
-4.2958
0
LINE
8
BLACK
6
CONTINUOUS
10
5.75935
20
-4.2958
11
5.75935
21
-4.2958
0
LINE
8
BLACK
6
CONTINUOUS
10
5.75935
20
-4.2958
11
5.75935
21
-4.2958
0
LINE
8
BLACK
6
CONTINUOUS
10
5.75935
20
-4.2958
11
5.75939
21
-4.29576
0
LINE
8
BLACK
6
CONTINUOUS
10
5.75939
20
-4.29576
11
5.75967
21
-4.29554
0
LINE
8
BLACK
6
CONTINUOUS
10
5.75967
20
-4.29554
11
5.75995
21
-4.29532
0
LINE
8
BLACK
6
CONTINUOUS
10
5.75995
20
-4.29532
11
5.78251
21
-4.28068
0
LINE
8
BLACK
6
CONTINUOUS
10
5.78251
20
-4.28068
11
5.78251
21
-4.28068
0
LINE
8
BLACK
6
CONTINUOUS
10
5.78251
20
-4.28068
11
5.78251
21
-4.28068
0
LINE
8
BLACK
6
CONTINUOUS
10
5.78251
20
-4.28068
11
5.78256
21
-4.28065
0
LINE
8
BLACK
6
CONTINUOUS
10
5.78256
20
-4.28065
11
5.78287
21
-4.28049
0
LINE
8
BLACK
6
CONTINUOUS
10
5.78287
20
-4.28049
11
5.78319
21
-4.28033
0
LINE
8
BLACK
6
CONTINUOUS
10
5.78319
20
-4.28033
11
5.80817
21
-4.27035
0
LINE
8
BLACK
6
CONTINUOUS
10
5.80817
20
-4.27035
11
5.80817
21
-4.27035
0
LINE
8
BLACK
6
CONTINUOUS
10
5.80817
20
-4.27035
11
5.80817
21
-4.27035
0
LINE
8
BLACK
6
CONTINUOUS
10
5.80817
20
-4.27035
11
5.80822
21
-4.27033
0
LINE
8
BLACK
6
CONTINUOUS
10
5.80822
20
-4.27033
11
5.80856
21
-4.27024
0
LINE
8
BLACK
6
CONTINUOUS
10
5.80856
20
-4.27024
11
5.8089
21
-4.27014
0
LINE
8
BLACK
6
CONTINUOUS
10
5.8089
20
-4.27014
11
5.83534
21
-4.26521
0
LINE
8
BLACK
6
CONTINUOUS
10
5.83534
20
-4.26521
11
5.8354
21
-4.2652
0
LINE
8
BLACK
6
CONTINUOUS
10
5.8354
20
-4.2652
11
5.83575
21
-4.26517
0
LINE
8
BLACK
6
CONTINUOUS
10
5.83575
20
-4.26517
11
5.83611
21
-4.26514
0
LINE
8
BLACK
6
CONTINUOUS
10
5.83611
20
-4.26514
11
5.863
21
-4.26543
0
LINE
8
BLACK
6
CONTINUOUS
10
5.863
20
-4.26543
11
5.863
21
-4.26543
0
LINE
8
BLACK
6
CONTINUOUS
10
5.863
20
-4.26543
11
5.86305
21
-4.26544
0
LINE
8
BLACK
6
CONTINUOUS
10
5.86305
20
-4.26544
11
5.86341
21
-4.26548
0
LINE
8
BLACK
6
CONTINUOUS
10
5.86341
20
-4.26548
11
5.86376
21
-4.26552
0
LINE
8
BLACK
6
CONTINUOUS
10
5.86376
20
-4.26552
11
5.89008
21
-4.27103
0
LINE
8
BLACK
6
CONTINUOUS
10
5.89008
20
-4.27103
11
5.89014
21
-4.27104
0
LINE
8
BLACK
6
CONTINUOUS
10
5.89014
20
-4.27104
11
5.89047
21
-4.27115
0
LINE
8
BLACK
6
CONTINUOUS
10
5.89047
20
-4.27115
11
5.8908
21
-4.27125
0
LINE
8
BLACK
6
CONTINUOUS
10
5.8908
20
-4.27125
11
5.9106
21
-4.27956
0
LINE
8
BLACK
6
CONTINUOUS
10
5.9106
20
-4.27956
11
5.91814
21
-4.25951
0
LINE
8
BLACK
6
CONTINUOUS
10
5.91814
20
-4.25951
11
5.93595
21
-4.1998
0
LINE
8
BLACK
6
CONTINUOUS
10
5.93595
20
-4.1998
11
5.94773
21
-4.13868
0
LINE
8
BLACK
6
CONTINUOUS
10
5.94773
20
-4.13868
11
5.95338
21
-4.07669
0
LINE
8
BLACK
6
CONTINUOUS
10
5.95338
20
-4.07669
11
5.95285
21
-4.01444
0
LINE
8
BLACK
6
CONTINUOUS
10
5.95285
20
-4.01444
11
5.94614
21
-3.95256
0
LINE
8
BLACK
6
CONTINUOUS
10
5.94614
20
-3.95256
11
5.93331
21
-3.89164
0
LINE
8
BLACK
6
CONTINUOUS
10
5.93331
20
-3.89164
11
5.91449
21
-3.8323
0
LINE
8
BLACK
6
CONTINUOUS
10
5.91449
20
-3.8323
11
5.88988
21
-3.77513
0
LINE
8
BLACK
6
CONTINUOUS
10
5.88988
20
-3.77513
11
5.85971
21
-3.72068
0
LINE
8
BLACK
6
CONTINUOUS
10
5.85971
20
-3.72068
11
5.82428
21
-3.6695
0
LINE
8
BLACK
6
CONTINUOUS
10
5.82428
20
-3.6695
11
5.78394
21
-3.62208
0
LINE
8
BLACK
6
CONTINUOUS
10
5.78394
20
-3.62208
11
5.7391
21
-3.57891
0
LINE
8
BLACK
6
CONTINUOUS
10
5.7391
20
-3.57891
11
5.69018
21
-3.54041
0
LINE
8
BLACK
6
CONTINUOUS
10
5.69018
20
-3.54041
11
5.63769
21
-3.50696
0
LINE
8
BLACK
6
CONTINUOUS
10
5.63769
20
-3.50696
11
5.58213
21
-3.47888
0
LINE
8
BLACK
6
CONTINUOUS
10
5.58213
20
-3.47888
11
5.52406
21
-3.45646
0
LINE
8
BLACK
6
CONTINUOUS
10
5.52406
20
-3.45646
11
5.46789
21
-3.44099
0
LINE
8
BLACK
6
CONTINUOUS
10
5.46789
20
-3.44099
11
5.46322
21
-3.4632
0
LINE
8
BLACK
6
CONTINUOUS
10
5.46322
20
-3.4632
11
5.46322
21
-3.4632
0
LINE
8
BLACK
6
CONTINUOUS
10
5.46322
20
-3.4632
11
5.46322
21
-3.46321
0
LINE
8
BLACK
6
CONTINUOUS
10
5.46322
20
-3.46321
11
5.46321
21
-3.46326
0
LINE
8
BLACK
6
CONTINUOUS
10
5.46321
20
-3.46326
11
5.4631
21
-3.4636
0
LINE
8
BLACK
6
CONTINUOUS
10
5.4631
20
-3.4636
11
5.46299
21
-3.46394
0
LINE
8
BLACK
6
CONTINUOUS
10
5.46299
20
-3.46394
11
5.45245
21
-3.48868
0
LINE
8
BLACK
6
CONTINUOUS
10
5.45245
20
-3.48868
11
5.45242
21
-3.48873
0
LINE
8
BLACK
6
CONTINUOUS
10
5.45242
20
-3.48873
11
5.45225
21
-3.48904
0
LINE
8
BLACK
6
CONTINUOUS
10
5.45225
20
-3.48904
11
5.45208
21
-3.48935
0
LINE
8
BLACK
6
CONTINUOUS
10
5.45208
20
-3.48935
11
5.43693
21
-3.51157
0
LINE
8
BLACK
6
CONTINUOUS
10
5.43693
20
-3.51157
11
5.43693
21
-3.51157
0
LINE
8
BLACK
6
CONTINUOUS
10
5.43693
20
-3.51157
11
5.43693
21
-3.51157
0
LINE
8
BLACK
6
CONTINUOUS
10
5.43693
20
-3.51157
11
5.4369
21
-3.51162
0
LINE
8
BLACK
6
CONTINUOUS
10
5.4369
20
-3.51162
11
5.43667
21
-3.51189
0
LINE
8
BLACK
6
CONTINUOUS
10
5.43667
20
-3.51189
11
5.43644
21
-3.51216
0
LINE
8
BLACK
6
CONTINUOUS
10
5.43644
20
-3.51216
11
5.41726
21
-3.53102
0
LINE
8
BLACK
6
CONTINUOUS
10
5.41726
20
-3.53102
11
5.41722
21
-3.53106
0
LINE
8
BLACK
6
CONTINUOUS
10
5.41722
20
-3.53106
11
5.41694
21
-3.53128
0
LINE
8
BLACK
6
CONTINUOUS
10
5.41694
20
-3.53128
11
5.41667
21
-3.5315
0
LINE
8
BLACK
6
CONTINUOUS
10
5.41667
20
-3.5315
11
5.39419
21
-3.54628
0
LINE
8
BLACK
6
CONTINUOUS
10
5.39419
20
-3.54628
11
5.39419
21
-3.54628
0
LINE
8
BLACK
6
CONTINUOUS
10
5.39419
20
-3.54628
11
5.39419
21
-3.54628
0
LINE
8
BLACK
6
CONTINUOUS
10
5.39419
20
-3.54628
11
5.39415
21
-3.54631
0
LINE
8
BLACK
6
CONTINUOUS
10
5.39415
20
-3.54631
11
5.39383
21
-3.54647
0
LINE
8
BLACK
6
CONTINUOUS
10
5.39383
20
-3.54647
11
5.39351
21
-3.54663
0
LINE
8
BLACK
6
CONTINUOUS
10
5.39351
20
-3.54663
11
5.3686
21
-3.55676
0
LINE
8
BLACK
6
CONTINUOUS
10
5.3686
20
-3.55676
11
5.3686
21
-3.55676
0
LINE
8
BLACK
6
CONTINUOUS
10
5.3686
20
-3.55676
11
5.3686
21
-3.55676
0
LINE
8
BLACK
6
CONTINUOUS
10
5.3686
20
-3.55676
11
5.36855
21
-3.55678
0
LINE
8
BLACK
6
CONTINUOUS
10
5.36855
20
-3.55678
11
5.36821
21
-3.55688
0
LINE
8
BLACK
6
CONTINUOUS
10
5.36821
20
-3.55688
11
5.36786
21
-3.55698
0
LINE
8
BLACK
6
CONTINUOUS
10
5.36786
20
-3.55698
11
5.34146
21
-3.56207
0
LINE
8
BLACK
6
CONTINUOUS
10
5.34146
20
-3.56207
11
5.3414
21
-3.56208
0
LINE
8
BLACK
6
CONTINUOUS
10
5.3414
20
-3.56208
11
5.34105
21
-3.56211
0
LINE
8
BLACK
6
CONTINUOUS
10
5.34105
20
-3.56211
11
5.34069
21
-3.56214
0
LINE
8
BLACK
6
CONTINUOUS
10
5.34069
20
-3.56214
11
5.3138
21
-3.56201
0
LINE
8
BLACK
6
CONTINUOUS
10
5.3138
20
-3.56201
11
5.3138
21
-3.56201
0
LINE
8
BLACK
6
CONTINUOUS
10
5.3138
20
-3.56201
11
5.31374
21
-3.56201
0
LINE
8
BLACK
6
CONTINUOUS
10
5.31374
20
-3.56201
11
5.31339
21
-3.56197
0
LINE
8
BLACK
6
CONTINUOUS
10
5.31339
20
-3.56197
11
5.31304
21
-3.56193
0
LINE
8
BLACK
6
CONTINUOUS
10
5.31304
20
-3.56193
11
5.28668
21
-3.55658
0
LINE
8
BLACK
6
CONTINUOUS
10
5.28668
20
-3.55658
11
5.28668
21
-3.55658
0
LINE
8
BLACK
6
CONTINUOUS
10
5.28668
20
-3.55658
11
5.28668
21
-3.55658
0
LINE
8
BLACK
6
CONTINUOUS
10
5.28668
20
-3.55658
11
5.28663
21
-3.55657
0
LINE
8
BLACK
6
CONTINUOUS
10
5.28663
20
-3.55657
11
5.28629
21
-3.55646
0
LINE
8
BLACK
6
CONTINUOUS
10
5.28629
20
-3.55646
11
5.28595
21
-3.55636
0
LINE
8
BLACK
6
CONTINUOUS
10
5.28595
20
-3.55636
11
5.26113
21
-3.54599
0
LINE
8
BLACK
6
CONTINUOUS
10
5.26113
20
-3.54599
11
5.26113
21
-3.54599
0
LINE
8
BLACK
6
CONTINUOUS
10
5.26113
20
-3.54599
11
5.26113
21
-3.54599
0
LINE
8
BLACK
6
CONTINUOUS
10
5.26113
20
-3.54599
11
5.26108
21
-3.54597
0
LINE
8
BLACK
6
CONTINUOUS
10
5.26108
20
-3.54597
11
5.26077
21
-3.54579
0
LINE
8
BLACK
6
CONTINUOUS
10
5.26077
20
-3.54579
11
5.26046
21
-3.54562
0
LINE
8
BLACK
6
CONTINUOUS
10
5.26046
20
-3.54562
11
5.23813
21
-3.53063
0
LINE
8
BLACK
6
CONTINUOUS
10
5.23813
20
-3.53063
11
5.23813
21
-3.53063
0
LINE
8
BLACK
6
CONTINUOUS
10
5.23813
20
-3.53063
11
5.23813
21
-3.53063
0
LINE
8
BLACK
6
CONTINUOUS
10
5.23813
20
-3.53063
11
5.23808
21
-3.5306
0
LINE
8
BLACK
6
CONTINUOUS
10
5.23808
20
-3.5306
11
5.23781
21
-3.53037
0
LINE
8
BLACK
6
CONTINUOUS
10
5.23781
20
-3.53037
11
5.23754
21
-3.53014
0
LINE
8
BLACK
6
CONTINUOUS
10
5.23754
20
-3.53014
11
5.21855
21
-3.5111
0
LINE
8
BLACK
6
CONTINUOUS
10
5.21855
20
-3.5111
11
5.21851
21
-3.51106
0
LINE
8
BLACK
6
CONTINUOUS
10
5.21851
20
-3.51106
11
5.21829
21
-3.51078
0
LINE
8
BLACK
6
CONTINUOUS
10
5.21829
20
-3.51078
11
5.21806
21
-3.51051
0
LINE
8
BLACK
6
CONTINUOUS
10
5.21806
20
-3.51051
11
5.20313
21
-3.48814
0
LINE
8
BLACK
6
CONTINUOUS
10
5.20313
20
-3.48814
11
5.20313
21
-3.48814
0
LINE
8
BLACK
6
CONTINUOUS
10
5.20313
20
-3.48814
11
5.20313
21
-3.48814
0
LINE
8
BLACK
6
CONTINUOUS
10
5.20313
20
-3.48814
11
5.2031
21
-3.48809
0
LINE
8
BLACK
6
CONTINUOUS
10
5.2031
20
-3.48809
11
5.20294
21
-3.48778
0
LINE
8
BLACK
6
CONTINUOUS
10
5.20294
20
-3.48778
11
5.20277
21
-3.48746
0
LINE
8
BLACK
6
CONTINUOUS
10
5.20277
20
-3.48746
11
5.19247
21
-3.46262
0
LINE
8
BLACK
6
CONTINUOUS
10
5.19247
20
-3.46262
11
5.19245
21
-3.46257
0
LINE
8
BLACK
6
CONTINUOUS
10
5.19245
20
-3.46257
11
5.19235
21
-3.46224
0
LINE
8
BLACK
6
CONTINUOUS
10
5.19235
20
-3.46224
11
5.19225
21
-3.4619
0
LINE
8
BLACK
6
CONTINUOUS
10
5.19225
20
-3.4619
11
5.18793
21
-3.44087
0
LINE
8
BLACK
6
CONTINUOUS
10
5.18793
20
-3.44087
11
5.16713
21
-3.44595
0
LINE
8
BLACK
6
CONTINUOUS
10
5.16713
20
-3.44595
11
5.10778
21
-3.46494
0
LINE
8
BLACK
6
CONTINUOUS
10
5.10778
20
-3.46494
11
5.05067
21
-3.4897
0
LINE
8
BLACK
6
CONTINUOUS
10
5.05067
20
-3.4897
11
4.9963
21
-3.52001
0
LINE
8
BLACK
6
CONTINUOUS
10
4.9963
20
-3.52001
11
4.94521
21
-3.55558
0
LINE
8
BLACK
6
CONTINUOUS
10
4.94521
20
-3.55558
11
4.8979
21
-3.59604
0
LINE
8
BLACK
6
CONTINUOUS
10
4.8979
20
-3.59604
11
4.85485
21
-3.641
0
LINE
8
BLACK
6
CONTINUOUS
10
4.85485
20
-3.641
11
4.81648
21
-3.69001
0
LINE
8
BLACK
6
CONTINUOUS
10
4.81648
20
-3.69001
11
4.78316
21
-3.74259
0
LINE
8
BLACK
6
CONTINUOUS
10
4.78316
20
-3.74259
11
4.75523
21
-3.79822
0
LINE
8
BLACK
6
CONTINUOUS
10
4.75523
20
-3.79822
11
4.73296
21
-3.85636
0
LINE
8
BLACK
6
CONTINUOUS
10
4.73296
20
-3.85636
11
4.71658
21
-3.91641
0
LINE
8
BLACK
6
CONTINUOUS
10
4.71658
20
-3.91641
11
4.70624
21
-3.97779
0
LINE
8
BLACK
6
CONTINUOUS
10
4.70624
20
-3.97779
11
4.70205
21
-4.0399
0
LINE
8
BLACK
6
CONTINUOUS
10
4.70205
20
-4.0399
11
4.70405
21
-4.10212
0
LINE
8
BLACK
6
CONTINUOUS
10
4.70405
20
-4.10212
11
4.71222
21
-4.16383
0
LINE
8
BLACK
6
CONTINUOUS
10
4.71222
20
-4.16383
11
4.72648
21
-4.22442
0
LINE
8
BLACK
6
CONTINUOUS
10
4.72648
20
-4.22442
11
4.74539
21
-4.27953
0
LINE
8
BLACK
6
CONTINUOUS
10
4.74539
20
-4.27953
11
4.76637
21
-4.27085
0
LINE
8
BLACK
6
CONTINUOUS
10
4.76637
20
-4.27085
11
4.76642
21
-4.27083
0
LINE
8
BLACK
6
CONTINUOUS
10
4.76642
20
-4.27083
11
4.76676
21
-4.27073
0
LINE
8
BLACK
6
CONTINUOUS
10
4.76676
20
-4.27073
11
4.76711
21
-4.27063
0
LINE
8
BLACK
6
CONTINUOUS
10
4.76711
20
-4.27063
11
4.79348
21
-4.26537
0
LINE
8
BLACK
6
CONTINUOUS
10
4.79348
20
-4.26537
11
4.79353
21
-4.26536
0
LINE
8
BLACK
6
CONTINUOUS
10
4.79353
20
-4.26536
11
4.79389
21
-4.26533
0
LINE
8
BLACK
6
CONTINUOUS
10
4.79389
20
-4.26533
11
4.79424
21
-4.26529
0
LINE
8
BLACK
6
CONTINUOUS
10
4.79424
20
-4.26529
11
4.82114
21
-4.26526
0
LINE
8
BLACK
6
CONTINUOUS
10
4.82114
20
-4.26526
11
4.82119
21
-4.26526
0
LINE
8
BLACK
6
CONTINUOUS
10
4.82119
20
-4.26526
11
4.82155
21
-4.2653
0
LINE
8
BLACK
6
CONTINUOUS
10
5.76625
20
-4.38155
11
5.77266
21
-4.36608
0
LINE
8
BLACK
6
CONTINUOUS
10
5.77266
20
-4.36608
11
5.78196
21
-4.35215
0
LINE
8
BLACK
6
CONTINUOUS
10
5.78196
20
-4.35215
11
5.79381
21
-4.34031
0
LINE
8
BLACK
6
CONTINUOUS
10
5.79381
20
-4.34031
11
5.80773
21
-4.33101
0
LINE
8
BLACK
6
CONTINUOUS
10
5.80773
20
-4.33101
11
5.8232
21
-4.3246
0
LINE
8
BLACK
6
CONTINUOUS
10
5.8232
20
-4.3246
11
5.83963
21
-4.32133
0
LINE
8
BLACK
6
CONTINUOUS
10
5.83963
20
-4.32133
11
5.85638
21
-4.32133
0
LINE
8
BLACK
6
CONTINUOUS
10
5.85638
20
-4.32133
11
5.8728
21
-4.3246
0
LINE
8
BLACK
6
CONTINUOUS
10
5.8728
20
-4.3246
11
5.88828
21
-4.33101
0
LINE
8
BLACK
6
CONTINUOUS
10
5.88828
20
-4.33101
11
5.9022
21
-4.34031
0
LINE
8
BLACK
6
CONTINUOUS
10
5.9022
20
-4.34031
11
5.91404
21
-4.35215
0
LINE
8
BLACK
6
CONTINUOUS
10
5.91404
20
-4.35215
11
5.92335
21
-4.36608
0
LINE
8
BLACK
6
CONTINUOUS
10
5.92335
20
-4.36608
11
5.92976
21
-4.38155
0
LINE
8
BLACK
6
CONTINUOUS
10
5.92976
20
-4.38155
11
5.93303
21
-4.39798
0
LINE
8
BLACK
6
CONTINUOUS
10
5.93303
20
-4.39798
11
5.93303
21
-4.41473
0
LINE
8
BLACK
6
CONTINUOUS
10
5.93303
20
-4.41473
11
5.92976
21
-4.43115
0
LINE
8
BLACK
6
CONTINUOUS
10
5.92976
20
-4.43115
11
5.92335
21
-4.44663
0
LINE
8
BLACK
6
CONTINUOUS
10
5.92335
20
-4.44663
11
5.91404
21
-4.46055
0
LINE
8
BLACK
6
CONTINUOUS
10
5.91404
20
-4.46055
11
5.9022
21
-4.47239
0
LINE
8
BLACK
6
CONTINUOUS
10
5.9022
20
-4.47239
11
5.88828
21
-4.4817
0
LINE
8
BLACK
6
CONTINUOUS
10
5.88828
20
-4.4817
11
5.8728
21
-4.48811
0
LINE
8
BLACK
6
CONTINUOUS
10
5.8728
20
-4.48811
11
5.85638
21
-4.49137
0
LINE
8
BLACK
6
CONTINUOUS
10
5.85638
20
-4.49137
11
5.83963
21
-4.49137
0
LINE
8
BLACK
6
CONTINUOUS
10
5.83963
20
-4.49137
11
5.8232
21
-4.48811
0
LINE
8
BLACK
6
CONTINUOUS
10
5.8232
20
-4.48811
11
5.80773
21
-4.4817
0
LINE
8
BLACK
6
CONTINUOUS
10
5.80773
20
-4.4817
11
5.79381
21
-4.47239
0
LINE
8
BLACK
6
CONTINUOUS
10
5.79381
20
-4.47239
11
5.78196
21
-4.46055
0
LINE
8
BLACK
6
CONTINUOUS
10
5.78196
20
-4.46055
11
5.77266
21
-4.44663
0
LINE
8
BLACK
6
CONTINUOUS
10
5.77266
20
-4.44663
11
5.76625
21
-4.43115
0
LINE
8
BLACK
6
CONTINUOUS
10
5.76625
20
-4.43115
11
5.76298
21
-4.41473
0
LINE
8
BLACK
6
CONTINUOUS
10
5.76298
20
-4.41473
11
5.76298
21
-4.39798
0
LINE
8
BLACK
6
CONTINUOUS
10
5.76298
20
-4.39798
11
5.76625
21
-4.38155
0
LINE
8
BLACK
6
CONTINUOUS
10
5.77454
20
-4.42864
11
5.7803
21
-4.44254
0
LINE
8
BLACK
6
CONTINUOUS
10
5.7803
20
-4.44254
11
5.78866
21
-4.45506
0
LINE
8
BLACK
6
CONTINUOUS
10
5.78866
20
-4.45506
11
5.7993
21
-4.4657
0
LINE
8
BLACK
6
CONTINUOUS
10
5.7993
20
-4.4657
11
5.81181
21
-4.47406
0
LINE
8
BLACK
6
CONTINUOUS
10
5.81181
20
-4.47406
11
5.82572
21
-4.47982
0
LINE
8
BLACK
6
CONTINUOUS
10
5.82572
20
-4.47982
11
5.84048
21
-4.48275
0
LINE
8
BLACK
6
CONTINUOUS
10
5.84048
20
-4.48275
11
5.85553
21
-4.48275
0
LINE
8
BLACK
6
CONTINUOUS
10
5.85553
20
-4.48275
11
5.87029
21
-4.47982
0
LINE
8
BLACK
6
CONTINUOUS
10
5.87029
20
-4.47982
11
5.88419
21
-4.47406
0
LINE
8
BLACK
6
CONTINUOUS
10
5.88419
20
-4.47406
11
5.89671
21
-4.4657
0
LINE
8
BLACK
6
CONTINUOUS
10
5.89671
20
-4.4657
11
5.90735
21
-4.45506
0
LINE
8
BLACK
6
CONTINUOUS
10
5.90735
20
-4.45506
11
5.91571
21
-4.44254
0
LINE
8
BLACK
6
CONTINUOUS
10
5.91571
20
-4.44254
11
5.92147
21
-4.42864
0
LINE
8
BLACK
6
CONTINUOUS
10
5.92147
20
-4.42864
11
5.92441
21
-4.41388
0
LINE
8
BLACK
6
CONTINUOUS
10
5.92441
20
-4.41388
11
5.92441
21
-4.39883
0
LINE
8
BLACK
6
CONTINUOUS
10
5.92441
20
-4.39883
11
5.92147
21
-4.38407
0
LINE
8
BLACK
6
CONTINUOUS
10
5.92147
20
-4.38407
11
5.91571
21
-4.37016
0
LINE
8
BLACK
6
CONTINUOUS
10
5.91571
20
-4.37016
11
5.90735
21
-4.35765
0
LINE
8
BLACK
6
CONTINUOUS
10
5.90735
20
-4.35765
11
5.89671
21
-4.34701
0
LINE
8
BLACK
6
CONTINUOUS
10
5.89671
20
-4.34701
11
5.88419
21
-4.33865
0
LINE
8
BLACK
6
CONTINUOUS
10
5.88419
20
-4.33865
11
5.87029
21
-4.33289
0
LINE
8
BLACK
6
CONTINUOUS
10
5.87029
20
-4.33289
11
5.85553
21
-4.32995
0
LINE
8
BLACK
6
CONTINUOUS
10
5.85553
20
-4.32995
11
5.84048
21
-4.32995
0
LINE
8
BLACK
6
CONTINUOUS
10
5.84048
20
-4.32995
11
5.82572
21
-4.33289
0
LINE
8
BLACK
6
CONTINUOUS
10
5.82572
20
-4.33289
11
5.81181
21
-4.33865
0
LINE
8
BLACK
6
CONTINUOUS
10
5.81181
20
-4.33865
11
5.7993
21
-4.34701
0
LINE
8
BLACK
6
CONTINUOUS
10
5.7993
20
-4.34701
11
5.78866
21
-4.35765
0
LINE
8
BLACK
6
CONTINUOUS
10
5.78866
20
-4.35765
11
5.7803
21
-4.37016
0
LINE
8
BLACK
6
CONTINUOUS
10
5.7803
20
-4.37016
11
5.77454
21
-4.38407
0
LINE
8
BLACK
6
CONTINUOUS
10
5.77454
20
-4.38407
11
5.7716
21
-4.39883
0
LINE
8
BLACK
6
CONTINUOUS
10
5.7716
20
-4.39883
11
5.7716
21
-4.41388
0
LINE
8
BLACK
6
CONTINUOUS
10
5.7716
20
-4.41388
11
5.77454
21
-4.42864
0
LINE
8
BLACK
6
CONTINUOUS
10
4.72611
20
-4.38155
11
4.73252
21
-4.36608
0
LINE
8
BLACK
6
CONTINUOUS
10
4.73252
20
-4.36608
11
4.74182
21
-4.35215
0
LINE
8
BLACK
6
CONTINUOUS
10
4.74182
20
-4.35215
11
4.75366
21
-4.34031
0
LINE
8
BLACK
6
CONTINUOUS
10
4.75366
20
-4.34031
11
4.76759
21
-4.33101
0
LINE
8
BLACK
6
CONTINUOUS
10
4.76759
20
-4.33101
11
4.78306
21
-4.3246
0
LINE
8
BLACK
6
CONTINUOUS
10
4.78306
20
-4.3246
11
4.79949
21
-4.32133
0
LINE
8
BLACK
6
CONTINUOUS
10
4.79949
20
-4.32133
11
4.81624
21
-4.32133
0
LINE
8
BLACK
6
CONTINUOUS
10
4.81624
20
-4.32133
11
4.83266
21
-4.3246
0
LINE
8
BLACK
6
CONTINUOUS
10
4.83266
20
-4.3246
11
4.84814
21
-4.33101
0
LINE
8
BLACK
6
CONTINUOUS
10
4.84814
20
-4.33101
11
4.86206
21
-4.34031
0
LINE
8
BLACK
6
CONTINUOUS
10
4.86206
20
-4.34031
11
4.8739
21
-4.35215
0
LINE
8
BLACK
6
CONTINUOUS
10
4.8739
20
-4.35215
11
4.88321
21
-4.36608
0
LINE
8
BLACK
6
CONTINUOUS
10
4.88321
20
-4.36608
11
4.88962
21
-4.38155
0
LINE
8
BLACK
6
CONTINUOUS
10
4.88962
20
-4.38155
11
4.89288
21
-4.39798
0
LINE
8
BLACK
6
CONTINUOUS
10
4.89288
20
-4.39798
11
4.89288
21
-4.41473
0
LINE
8
BLACK
6
CONTINUOUS
10
4.89288
20
-4.41473
11
4.88962
21
-4.43115
0
LINE
8
BLACK
6
CONTINUOUS
10
4.88962
20
-4.43115
11
4.88321
21
-4.44663
0
LINE
8
BLACK
6
CONTINUOUS
10
4.88321
20
-4.44663
11
4.8739
21
-4.46055
0
LINE
8
BLACK
6
CONTINUOUS
10
4.8739
20
-4.46055
11
4.86206
21
-4.47239
0
LINE
8
BLACK
6
CONTINUOUS
10
4.86206
20
-4.47239
11
4.84814
21
-4.4817
0
LINE
8
BLACK
6
CONTINUOUS
10
4.84814
20
-4.4817
11
4.83266
21
-4.48811
0
LINE
8
BLACK
6
CONTINUOUS
10
4.83266
20
-4.48811
11
4.81624
21
-4.49137
0
LINE
8
BLACK
6
CONTINUOUS
10
4.81624
20
-4.49137
11
4.79949
21
-4.49137
0
LINE
8
BLACK
6
CONTINUOUS
10
4.79949
20
-4.49137
11
4.78306
21
-4.48811
0
LINE
8
BLACK
6
CONTINUOUS
10
4.78306
20
-4.48811
11
4.76759
21
-4.4817
0
LINE
8
BLACK
6
CONTINUOUS
10
4.76759
20
-4.4817
11
4.75366
21
-4.47239
0
LINE
8
BLACK
6
CONTINUOUS
10
4.75366
20
-4.47239
11
4.74182
21
-4.46055
0
LINE
8
BLACK
6
CONTINUOUS
10
4.74182
20
-4.46055
11
4.73252
21
-4.44663
0
LINE
8
BLACK
6
CONTINUOUS
10
4.73252
20
-4.44663
11
4.72611
21
-4.43115
0
LINE
8
BLACK
6
CONTINUOUS
10
4.72611
20
-4.43115
11
4.72284
21
-4.41473
0
LINE
8
BLACK
6
CONTINUOUS
10
4.72284
20
-4.41473
11
4.72284
21
-4.39798
0
LINE
8
BLACK
6
CONTINUOUS
10
4.72284
20
-4.39798
11
4.72611
21
-4.38155
0
LINE
8
BLACK
6
CONTINUOUS
10
4.7344
20
-4.42864
11
4.74016
21
-4.44254
0
LINE
8
BLACK
6
CONTINUOUS
10
4.74016
20
-4.44254
11
4.74852
21
-4.45506
0
LINE
8
BLACK
6
CONTINUOUS
10
4.74852
20
-4.45506
11
4.75916
21
-4.4657
0
LINE
8
BLACK
6
CONTINUOUS
10
4.75916
20
-4.4657
11
4.77167
21
-4.47406
0
LINE
8
BLACK
6
CONTINUOUS
10
4.77167
20
-4.47406
11
4.78558
21
-4.47982
0
LINE
8
BLACK
6
CONTINUOUS
10
4.78558
20
-4.47982
11
4.80034
21
-4.48275
0
LINE
8
BLACK
6
CONTINUOUS
10
4.80034
20
-4.48275
11
4.81539
21
-4.48275
0
LINE
8
BLACK
6
CONTINUOUS
10
4.81539
20
-4.48275
11
4.83015
21
-4.47982
0
LINE
8
BLACK
6
CONTINUOUS
10
4.83015
20
-4.47982
11
4.84405
21
-4.47406
0
LINE
8
BLACK
6
CONTINUOUS
10
4.84405
20
-4.47406
11
4.85657
21
-4.4657
0
LINE
8
BLACK
6
CONTINUOUS
10
4.85657
20
-4.4657
11
4.86721
21
-4.45506
0
LINE
8
BLACK
6
CONTINUOUS
10
4.86721
20
-4.45506
11
4.87557
21
-4.44254
0
LINE
8
BLACK
6
CONTINUOUS
10
4.87557
20
-4.44254
11
4.88133
21
-4.42864
0
LINE
8
BLACK
6
CONTINUOUS
10
4.88133
20
-4.42864
11
4.88427
21
-4.41388
0
LINE
8
BLACK
6
CONTINUOUS
10
4.88427
20
-4.41388
11
4.88427
21
-4.39883
0
LINE
8
BLACK
6
CONTINUOUS
10
4.88427
20
-4.39883
11
4.88133
21
-4.38407
0
LINE
8
BLACK
6
CONTINUOUS
10
4.88133
20
-4.38407
11
4.87557
21
-4.37016
0
LINE
8
BLACK
6
CONTINUOUS
10
4.87557
20
-4.37016
11
4.86721
21
-4.35765
0
LINE
8
BLACK
6
CONTINUOUS
10
4.86721
20
-4.35765
11
4.85657
21
-4.34701
0
LINE
8
BLACK
6
CONTINUOUS
10
4.85657
20
-4.34701
11
4.84405
21
-4.33865
0
LINE
8
BLACK
6
CONTINUOUS
10
4.84405
20
-4.33865
11
4.83015
21
-4.33289
0
LINE
8
BLACK
6
CONTINUOUS
10
4.83015
20
-4.33289
11
4.81539
21
-4.32995
0
LINE
8
BLACK
6
CONTINUOUS
10
4.81539
20
-4.32995
11
4.80034
21
-4.32995
0
LINE
8
BLACK
6
CONTINUOUS
10
4.80034
20
-4.32995
11
4.78558
21
-4.33289
0
LINE
8
BLACK
6
CONTINUOUS
10
4.78558
20
-4.33289
11
4.77167
21
-4.33865
0
LINE
8
BLACK
6
CONTINUOUS
10
4.77167
20
-4.33865
11
4.75916
21
-4.34701
0
LINE
8
BLACK
6
CONTINUOUS
10
4.75916
20
-4.34701
11
4.74852
21
-4.35765
0
LINE
8
BLACK
6
CONTINUOUS
10
4.74852
20
-4.35765
11
4.74016
21
-4.37016
0
LINE
8
BLACK
6
CONTINUOUS
10
4.74016
20
-4.37016
11
4.7344
21
-4.38407
0
LINE
8
BLACK
6
CONTINUOUS
10
4.7344
20
-4.38407
11
4.73146
21
-4.39883
0
LINE
8
BLACK
6
CONTINUOUS
10
4.73146
20
-4.39883
11
4.73146
21
-4.41388
0
LINE
8
BLACK
6
CONTINUOUS
10
4.73146
20
-4.41388
11
4.7344
21
-4.42864
0
LINE
8
BLACK
6
CONTINUOUS
10
5.24618
20
-3.39621
11
5.25259
21
-3.38073
0
LINE
8
BLACK
6
CONTINUOUS
10
5.25259
20
-3.38073
11
5.26189
21
-3.36681
0
LINE
8
BLACK
6
CONTINUOUS
10
5.26189
20
-3.36681
11
5.27374
21
-3.35497
0
LINE
8
BLACK
6
CONTINUOUS
10
5.27374
20
-3.35497
11
5.28766
21
-3.34566
0
LINE
8
BLACK
6
CONTINUOUS
10
5.28766
20
-3.34566
11
5.30313
21
-3.33925
0
LINE
8
BLACK
6
CONTINUOUS
10
5.30313
20
-3.33925
11
5.31956
21
-3.33598
0
LINE
8
BLACK
6
CONTINUOUS
10
5.31956
20
-3.33598
11
5.33631
21
-3.33598
0
LINE
8
BLACK
6
CONTINUOUS
10
5.33631
20
-3.33598
11
5.35273
21
-3.33925
0
LINE
8
BLACK
6
CONTINUOUS
10
5.35273
20
-3.33925
11
5.36821
21
-3.34566
0
LINE
8
BLACK
6
CONTINUOUS
10
5.36821
20
-3.34566
11
5.38213
21
-3.35497
0
LINE
8
BLACK
6
CONTINUOUS
10
5.38213
20
-3.35497
11
5.39397
21
-3.36681
0
LINE
8
BLACK
6
CONTINUOUS
10
5.39397
20
-3.36681
11
5.40328
21
-3.38073
0
LINE
8
BLACK
6
CONTINUOUS
10
5.40328
20
-3.38073
11
5.40969
21
-3.39621
0
LINE
8
BLACK
6
CONTINUOUS
10
5.40969
20
-3.39621
11
5.41296
21
-3.41263
0
LINE
8
BLACK
6
CONTINUOUS
10
5.41296
20
-3.41263
11
5.41296
21
-3.42938
0
LINE
8
BLACK
6
CONTINUOUS
10
5.41296
20
-3.42938
11
5.40969
21
-3.44581
0
LINE
8
BLACK
6
CONTINUOUS
10
5.40969
20
-3.44581
11
5.40328
21
-3.46128
0
LINE
8
BLACK
6
CONTINUOUS
10
5.40328
20
-3.46128
11
5.39397
21
-3.4752
0
LINE
8
BLACK
6
CONTINUOUS
10
5.39397
20
-3.4752
11
5.38213
21
-3.48705
0
LINE
8
BLACK
6
CONTINUOUS
10
5.38213
20
-3.48705
11
5.36821
21
-3.49635
0
LINE
8
BLACK
6
CONTINUOUS
10
5.36821
20
-3.49635
11
5.35273
21
-3.50276
0
LINE
8
BLACK
6
CONTINUOUS
10
5.35273
20
-3.50276
11
5.33631
21
-3.50603
0
LINE
8
BLACK
6
CONTINUOUS
10
5.33631
20
-3.50603
11
5.31956
21
-3.50603
0
LINE
8
BLACK
6
CONTINUOUS
10
5.31956
20
-3.50603
11
5.30313
21
-3.50276
0
LINE
8
BLACK
6
CONTINUOUS
10
5.30313
20
-3.50276
11
5.28766
21
-3.49635
0
LINE
8
BLACK
6
CONTINUOUS
10
5.28766
20
-3.49635
11
5.27374
21
-3.48705
0
LINE
8
BLACK
6
CONTINUOUS
10
5.27374
20
-3.48705
11
5.26189
21
-3.4752
0
LINE
8
BLACK
6
CONTINUOUS
10
5.26189
20
-3.4752
11
5.25259
21
-3.46128
0
LINE
8
BLACK
6
CONTINUOUS
10
5.25259
20
-3.46128
11
5.24618
21
-3.44581
0
LINE
8
BLACK
6
CONTINUOUS
10
5.24618
20
-3.44581
11
5.24291
21
-3.42938
0
LINE
8
BLACK
6
CONTINUOUS
10
5.24291
20
-3.42938
11
5.24291
21
-3.41263
0
LINE
8
BLACK
6
CONTINUOUS
10
5.24291
20
-3.41263
11
5.24618
21
-3.39621
0
LINE
8
BLACK
6
CONTINUOUS
10
5.25447
20
-3.44329
11
5.26023
21
-3.4572
0
LINE
8
BLACK
6
CONTINUOUS
10
5.26023
20
-3.4572
11
5.26859
21
-3.46971
0
LINE
8
BLACK
6
CONTINUOUS
10
5.26859
20
-3.46971
11
5.27923
21
-3.48035
0
LINE
8
BLACK
6
CONTINUOUS
10
5.27923
20
-3.48035
11
5.29174
21
-3.48871
0
LINE
8
BLACK
6
CONTINUOUS
10
5.29174
20
-3.48871
11
5.30565
21
-3.49447
0
LINE
8
BLACK
6
CONTINUOUS
10
5.30565
20
-3.49447
11
5.32041
21
-3.49741
0
LINE
8
BLACK
6
CONTINUOUS
10
5.32041
20
-3.49741
11
5.33546
21
-3.49741
0
LINE
8
BLACK
6
CONTINUOUS
10
5.33546
20
-3.49741
11
5.35022
21
-3.49447
0
LINE
8
BLACK
6
CONTINUOUS
10
5.35022
20
-3.49447
11
5.36412
21
-3.48871
0
LINE
8
BLACK
6
CONTINUOUS
10
5.36412
20
-3.48871
11
5.37664
21
-3.48035
0
LINE
8
BLACK
6
CONTINUOUS
10
5.37664
20
-3.48035
11
5.38728
21
-3.46971
0
LINE
8
BLACK
6
CONTINUOUS
10
5.38728
20
-3.46971
11
5.39564
21
-3.4572
0
LINE
8
BLACK
6
CONTINUOUS
10
5.39564
20
-3.4572
11
5.4014
21
-3.44329
0
LINE
8
BLACK
6
CONTINUOUS
10
5.4014
20
-3.44329
11
5.40434
21
-3.42853
0
LINE
8
BLACK
6
CONTINUOUS
10
5.40434
20
-3.42853
11
5.40434
21
-3.41348
0
LINE
8
BLACK
6
CONTINUOUS
10
5.40434
20
-3.41348
11
5.4014
21
-3.39872
0
LINE
8
BLACK
6
CONTINUOUS
10
5.4014
20
-3.39872
11
5.39564
21
-3.38482
0
LINE
8
BLACK
6
CONTINUOUS
10
5.39564
20
-3.38482
11
5.38728
21
-3.3723
0
LINE
8
BLACK
6
CONTINUOUS
10
5.38728
20
-3.3723
11
5.37664
21
-3.36166
0
LINE
8
BLACK
6
CONTINUOUS
10
5.37664
20
-3.36166
11
5.36412
21
-3.3533
0
LINE
8
BLACK
6
CONTINUOUS
10
5.36412
20
-3.3533
11
5.35022
21
-3.34754
0
LINE
8
BLACK
6
CONTINUOUS
10
5.35022
20
-3.34754
11
5.33546
21
-3.3446
0
LINE
8
BLACK
6
CONTINUOUS
10
5.33546
20
-3.3446
11
5.32041
21
-3.3446
0
LINE
8
BLACK
6
CONTINUOUS
10
5.32041
20
-3.3446
11
5.30565
21
-3.34754
0
LINE
8
BLACK
6
CONTINUOUS
10
5.30565
20
-3.34754
11
5.29174
21
-3.3533
0
LINE
8
BLACK
6
CONTINUOUS
10
5.29174
20
-3.3533
11
5.27923
21
-3.36166
0
LINE
8
BLACK
6
CONTINUOUS
10
5.27923
20
-3.36166
11
5.26859
21
-3.3723
0
LINE
8
BLACK
6
CONTINUOUS
10
5.26859
20
-3.3723
11
5.26023
21
-3.38482
0
LINE
8
BLACK
6
CONTINUOUS
10
5.26023
20
-3.38482
11
5.25447
21
-3.39872
0
LINE
8
BLACK
6
CONTINUOUS
10
5.25447
20
-3.39872
11
5.25153
21
-3.41348
0
LINE
8
BLACK
6
CONTINUOUS
10
5.25153
20
-3.41348
11
5.25153
21
-3.42853
0
LINE
8
BLACK
6
CONTINUOUS
10
5.25153
20
-3.42853
11
5.25447
21
-3.44329
  0
ENDSEC
  0
EOF
