M48
; DRILL file {KiCad (5.1.5-0-10_14)} date 2020 July 14, Tuesday 10:28:31
; FORMAT={-:-/ absolute / inch / decimal}
; #@! TF.CreationDate,2020-07-14T10:28:31+02:00
; #@! TF.GenerationSoftware,Kicad,Pcbnew,(5.1.5-0-10_14)
; #@! TF.FileFunction,Plated,1,2,PTH
FMAT,2
INCH
T1C0.0157
T2C0.0236
T3C0.0394
T4C0.0579
T5C0.0787
%
G90
G05
T1
X1.1312Y-3.9762
X1.8812Y-3.9463
X2.4912Y-3.9162
X2.4912Y-4.4712
X2.6313Y-3.8876
X3.3813Y-3.859
X3.5112Y-1.0262
X3.5506Y-1.0262
X3.9335Y-2.3257
X3.935Y-2.365
X4.0Y-1.0
X4.0012Y-2.4106
X4.1312Y-3.6926
X4.8812Y-3.174
X5.1875Y-2.25
X5.1875Y-2.625
X5.4349Y-1.6312
X5.4813Y-2.3712
X5.4813Y-2.0913
X5.5812Y-0.8562
X5.6063Y-1.8262
X6.0362Y-2.4712
X6.1875Y-1.9375
T3
X5.4916Y-2.6781
X5.4916Y-2.875
X6.0625Y-2.6781
X6.0625Y-2.7766
X6.0625Y-2.875
T4
X5.6312Y-1.1812
X5.8812Y-1.0813
X2.6313Y-3.4312
X2.8813Y-3.3312
X4.1312Y-1.9312
X4.3812Y-1.8313
X2.6313Y-1.1812
X2.8813Y-1.0813
X1.1312Y-2.6812
X1.3812Y-2.5812
X3.3813Y-2.6812
X3.6313Y-2.5812
X2.6313Y-1.9312
X2.8813Y-1.8313
X4.8812Y-1.1812
X5.1312Y-1.0813
X1.1312Y-1.1812
X1.3812Y-1.0813
X1.8812Y-3.4312
X2.1313Y-3.3312
X1.8812Y-1.1812
X2.1313Y-1.0813
X4.8812Y-1.9312
X5.1312Y-1.8313
X1.8812Y-4.1812
X2.1313Y-4.0812
X4.1312Y-1.1812
X4.3812Y-1.0813
X2.6313Y-2.6812
X2.8813Y-2.5812
X3.3813Y-3.4312
X3.6313Y-3.3312
X1.8812Y-1.9312
X2.1313Y-1.8313
X1.1312Y-1.9312
X1.3812Y-1.8313
X1.1312Y-3.4312
X1.3812Y-3.3312
X3.3813Y-1.9312
X3.6313Y-1.8313
X1.1312Y-4.1812
X1.3812Y-4.0812
X3.3813Y-1.1812
X3.6313Y-1.0813
X1.8812Y-2.6812
X2.1313Y-2.5812
X4.1312Y-2.6812
X4.3812Y-2.5812
X2.6313Y-4.1812
X2.8813Y-4.0812
T2
G00X3.362Y-0.545
M15
G01X3.362Y-0.5687
M16
G05
G00X3.362Y-0.7005
M15
G01X3.362Y-0.7438
M16
G05
G00X3.7005Y-0.545
M15
G01X3.7005Y-0.5687
M16
G05
G00X3.7005Y-0.7005
M15
G01X3.7005Y-0.7438
M16
G05
T5
G00X5.7771Y-2.5561
M15
G01X5.7574Y-2.5561
M16
G05
G00X5.7771Y-2.997
M15
G01X5.7574Y-2.997
M16
G05
T0
M30
