M48
; DRILL file {KiCad (5.1.5-0-10_14)} date 2020 July 14, Tuesday 10:28:31
; FORMAT={-:-/ absolute / inch / decimal}
; #@! TF.CreationDate,2020-07-14T10:28:31+02:00
; #@! TF.GenerationSoftware,Kicad,Pcbnew,(5.1.5-0-10_14)
; #@! TF.FileFunction,NonPlated,1,2,NPTH
FMAT,2
INCH
T1C0.0256
T2C0.0689
T3C0.1570
%
G90
G05
T1
X3.4175Y-0.7005
X3.645Y-0.7005
T2
X5.5812Y-1.2812
X5.9813Y-1.2812
X2.5812Y-3.5312
X2.9812Y-3.5312
X4.0812Y-2.0312
X4.4813Y-2.0312
X2.5812Y-1.2812
X2.9812Y-1.2812
X1.0813Y-2.7812
X1.4812Y-2.7812
X3.3312Y-2.7812
X3.7312Y-2.7812
X2.5812Y-2.0312
X2.9812Y-2.0312
X4.8312Y-1.2812
X5.2313Y-1.2812
X1.0813Y-1.2812
X1.4812Y-1.2812
X1.8313Y-3.5312
X2.2312Y-3.5312
X1.8313Y-1.2812
X2.2312Y-1.2812
X4.8312Y-2.0312
X5.2313Y-2.0312
X1.8313Y-4.2812
X2.2312Y-4.2812
X4.0812Y-1.2812
X4.4813Y-1.2812
X2.5812Y-2.7812
X2.9812Y-2.7812
X3.3312Y-3.5312
X3.7312Y-3.5312
X1.8313Y-2.0312
X2.2312Y-2.0312
X1.0813Y-2.0312
X1.4812Y-2.0312
X1.0813Y-3.5312
X1.4812Y-3.5312
X3.3312Y-2.0312
X3.7312Y-2.0312
X1.0813Y-4.2812
X1.4812Y-4.2812
X3.3312Y-1.2812
X3.7312Y-1.2812
X1.8313Y-2.7812
X2.2312Y-2.7812
X4.0812Y-2.7812
X4.4813Y-2.7812
X2.5812Y-4.2812
X2.9812Y-4.2812
T3
X5.0312Y-1.2812
X1.2812Y-1.2812
X2.0312Y-3.5312
X2.0312Y-1.2812
X5.0312Y-2.0312
X2.0312Y-4.2812
X4.2812Y-1.2812
X2.7812Y-2.7812
X3.5312Y-3.5312
X2.0312Y-2.0312
X1.2812Y-2.0312
X1.2812Y-3.5312
X3.5312Y-2.0312
X1.2812Y-4.2812
X3.5312Y-1.2812
X2.0312Y-2.7812
X4.2812Y-2.7812
X2.7812Y-4.2812
X5.7812Y-1.2812
X2.7812Y-3.5312
X4.2812Y-2.0312
X2.7812Y-1.2812
X1.2812Y-2.7812
X3.5312Y-2.7812
X2.7812Y-2.0312
T0
M30
