M48
; DRILL file {KiCad (5.1.5-0-10_14)} date 2021 April 20, Tuesday 13:47:56
; FORMAT={-:-/ absolute / inch / decimal}
; #@! TF.CreationDate,2021-04-20T13:47:56+02:00
; #@! TF.GenerationSoftware,Kicad,Pcbnew,(5.1.5-0-10_14)
; #@! TF.FileFunction,NonPlated,1,2,NPTH
FMAT,2
INCH
T1C0.0256
T2C0.0670
T3C0.1181
T4C0.1570
%
G90
G05
T1
X5.6675Y-0.7318
X5.895Y-0.7318
X4.9137Y-0.7318
X5.1413Y-0.7318
T2
X2.5812Y-2.8125
X2.9812Y-2.8125
X1.0813Y-3.5625
X1.4812Y-3.5625
X3.3312Y-3.5625
X3.7312Y-3.5625
X4.8312Y-1.3125
X5.2313Y-1.3125
X1.0813Y-1.3125
X1.4812Y-1.3125
X4.0812Y-2.0625
X4.4813Y-2.0625
X2.5812Y-1.3125
X2.9812Y-1.3125
X1.8313Y-4.3125
X2.2312Y-4.3125
X1.0813Y-4.3125
X1.4812Y-4.3125
X3.3312Y-2.8125
X3.7312Y-2.8125
X1.8313Y-2.0625
X2.2312Y-2.0625
X4.8312Y-2.0625
X5.2313Y-2.0625
X1.8313Y-3.5625
X2.2312Y-3.5625
X3.3312Y-1.3125
X3.7312Y-1.3125
X1.8313Y-1.3125
X2.2312Y-1.3125
X2.5812Y-4.3125
X2.9812Y-4.3125
X1.0813Y-2.8125
X1.4812Y-2.8125
X1.8313Y-2.8125
X2.2312Y-2.8125
X5.5812Y-1.3125
X5.9813Y-1.3125
X4.0812Y-2.8125
X4.4813Y-2.8125
X2.5812Y-2.0625
X2.9812Y-2.0625
X2.5812Y-3.5625
X2.9812Y-3.5625
X4.0812Y-1.3125
X4.4813Y-1.3125
X1.0813Y-2.0625
X1.4812Y-2.0625
X3.3312Y-2.0625
X3.7312Y-2.0625
T3
X4.8812Y-1.9625
X5.1312Y-1.8625
X1.8812Y-3.4625
X2.1313Y-3.3625
X3.3813Y-1.2125
X3.6313Y-1.1125
X1.8812Y-1.2125
X2.1313Y-1.1125
X2.6313Y-4.2125
X2.8813Y-4.1125
X1.1312Y-2.7125
X1.3812Y-2.6125
X1.8812Y-2.7125
X2.1313Y-2.6125
X5.6312Y-1.2125
X5.8812Y-1.1125
X4.1312Y-2.7125
X4.3812Y-2.6125
X2.6313Y-1.9625
X2.8813Y-1.8625
X2.6313Y-3.4625
X2.8813Y-3.3625
X4.1312Y-1.2125
X4.3812Y-1.1125
X1.1312Y-1.9625
X1.3812Y-1.8625
X3.3813Y-1.9625
X3.6313Y-1.8625
X2.6313Y-2.7125
X2.8813Y-2.6125
X1.1312Y-3.4625
X1.3812Y-3.3625
X3.3813Y-3.4625
X3.6313Y-3.3625
X4.8812Y-1.2125
X5.1312Y-1.1125
X1.1312Y-1.2125
X1.3812Y-1.1125
X4.1312Y-1.9625
X4.3812Y-1.8625
X2.6313Y-1.2125
X2.8813Y-1.1125
X1.8812Y-4.2125
X2.1313Y-4.1125
X1.1312Y-4.2125
X1.3812Y-4.1125
X3.3813Y-2.7125
X3.6313Y-2.6125
X1.8812Y-1.9625
X2.1313Y-1.8625
T4
X4.2812Y-2.0625
X2.7812Y-1.3125
X2.0312Y-4.3125
X1.2812Y-4.3125
X3.5312Y-2.8125
X2.0312Y-2.0625
X5.0312Y-2.0625
X2.0312Y-3.5625
X3.5312Y-1.3125
X2.0312Y-1.3125
X2.7812Y-4.3125
X1.2812Y-2.8125
X2.0312Y-2.8125
X5.7812Y-1.3125
X4.2812Y-2.8125
X2.7812Y-2.0625
X2.7812Y-3.5625
X4.2812Y-1.3125
X1.2812Y-2.0625
X3.5312Y-2.0625
X2.7812Y-2.8125
X1.2812Y-3.5625
X3.5312Y-3.5625
X5.0312Y-1.3125
X1.2812Y-1.3125
T0
M30
