M48
; DRILL file {KiCad (5.1.5-0-10_14)} date 2020 July 12, Sunday 23:00:34
; FORMAT={-:-/ absolute / inch / decimal}
; #@! TF.CreationDate,2020-07-12T23:00:34+02:00
; #@! TF.GenerationSoftware,Kicad,Pcbnew,(5.1.5-0-10_14)
; #@! TF.FileFunction,Plated,1,2,PTH
FMAT,2
INCH
T1C0.0157
T2C0.0236
T3C0.0394
T4C0.0579
T5C0.0787
%
G90
G05
T1
X0.6Y1.055
X1.35Y1.085
X1.96Y1.115
X1.96Y0.56
X2.1Y1.1436
X2.85Y1.1722
X2.98Y4.005
X3.0194Y4.005
X3.355Y2.65
X3.395Y2.675
X3.4688Y4.0312
X3.47Y2.6206
X3.6Y1.3387
X4.35Y1.8572
X4.6562Y2.7812
X4.6562Y2.4062
X4.9036Y3.4
X4.95Y2.66
X4.95Y2.94
X5.05Y4.175
X5.075Y3.205
X5.505Y2.56
X5.6562Y3.0938
T3
X4.9604Y2.3531
X4.9604Y2.1562
X5.5312Y2.3531
X5.5312Y2.2547
X5.5312Y2.1562
T4
X0.6Y2.35
X0.85Y2.45
X1.35Y0.85
X1.6Y0.95
X0.6Y3.1
X0.85Y3.2
X3.6Y2.35
X3.85Y2.45
X2.85Y3.85
X3.1Y3.95
X5.1Y3.85
X5.35Y3.95
X2.1Y1.6
X2.35Y1.7
X4.35Y3.1
X4.6Y3.2
X2.85Y2.35
X3.1Y2.45
X2.1Y3.1
X2.35Y3.2
X1.35Y1.6
X1.6Y1.7
X2.1Y3.85
X2.35Y3.95
X4.35Y3.85
X4.6Y3.95
X3.6Y3.1
X3.85Y3.2
X0.6Y0.85
X0.85Y0.95
X3.6Y3.85
X3.85Y3.95
X2.1Y2.35
X2.35Y2.45
X0.6Y3.85
X0.85Y3.95
X2.1Y0.85
X2.35Y0.95
X1.35Y3.1
X1.6Y3.2
X0.6Y1.6
X0.85Y1.7
X1.35Y3.85
X1.6Y3.95
X1.35Y2.35
X1.6Y2.45
X2.85Y3.1
X3.1Y3.2
X2.85Y1.6
X3.1Y1.7
T2
G00X2.8307Y4.4862
M15
G01X2.8307Y4.4626
M16
G05
G00X2.8307Y4.3307
M15
G01X2.8307Y4.2874
M16
G05
G00X3.1693Y4.4862
M15
G01X3.1693Y4.4626
M16
G05
G00X3.1693Y4.3307
M15
G01X3.1693Y4.2874
M16
G05
T5
G00X5.2458Y2.4751
M15
G01X5.2261Y2.4751
M16
G05
G00X5.2458Y2.0342
M15
G01X5.2261Y2.0342
M16
G05
T0
M30
