M48
; DRILL file {KiCad (5.1.5-0-10_14)} date 2020 August 15, Saturday 16:02:48
; FORMAT={-:-/ absolute / inch / decimal}
; #@! TF.CreationDate,2020-08-15T16:02:48+02:00
; #@! TF.GenerationSoftware,Kicad,Pcbnew,(5.1.5-0-10_14)
; #@! TF.FileFunction,Plated,1,2,PTH
FMAT,2
INCH
T1C0.0118
T2C0.0157
T3C0.0236
T4C0.0394
T5C0.0579
T6C0.0591
T7C0.0866
%
G90
G05
T1
X3.8669Y-1.6169
X3.8669Y-1.6562
X3.8669Y-1.6956
X3.9062Y-1.6169
X3.9062Y-1.6562
X3.9062Y-1.6956
X3.9456Y-1.6169
X3.9456Y-1.6562
X3.9456Y-1.6956
T2
X1.1312Y-3.9762
X1.8812Y-3.9463
X2.4912Y-3.9162
X2.4912Y-4.4712
X2.6313Y-3.8876
X3.2Y-4.01
X3.205Y-1.53
X3.265Y-2.22
X3.265Y-2.445
X3.3813Y-3.859
X3.445Y-1.725
X3.445Y-1.885
X3.55Y-1.54
X3.55Y-1.635
X3.61Y-1.675
X3.615Y-0.81
X3.62Y-1.53
X3.62Y-1.73
X3.6538Y-0.65
X3.705Y-1.94
X3.7138Y-0.65
X3.72Y-0.855
X3.76Y-1.55
X3.7611Y-1.6433
X3.7623Y-1.6849
X3.784Y-1.099
X3.8Y-0.83
X3.835Y-0.83
X3.9059Y-0.8373
X3.9638Y-0.855
X3.985Y-1.51
X4.005Y-1.545
X4.063Y-0.988
X4.0738Y-1.8091
X4.085Y-1.435
X4.09Y-1.565
X4.095Y-1.655
X4.12Y-0.825
X4.13Y-3.6926
X4.1315Y-3.9715
X4.145Y-1.43
X4.1775Y-1.465
X4.21Y-1.78
X4.21Y-1.84
X4.24Y-1.4825
X4.3Y-1.4825
X4.3523Y-1.4827
X4.61Y-2.27
X4.61Y-2.445
X4.88Y-3.3786
X4.8812Y-3.174
X4.9688Y-2.2188
X4.9688Y-2.625
X5.21Y-0.64
X5.355Y-2.41
X5.415Y-1.97
X5.47Y-0.65
X5.495Y-2.09
X5.53Y-0.65
X5.545Y-1.565
X5.545Y-1.67
X5.655Y-0.835
X5.69Y-1.6
X5.7822Y-0.855
X5.7894Y-1.7794
X5.88Y-1.62
X5.91Y-0.835
X5.94Y-1.84
X5.95Y-1.63
X5.9688Y-2.5312
X6.045Y-0.845
X6.095Y-1.84
X6.105Y-2.47
X6.125Y-2.39
X6.125Y-2.7812
X6.1465Y-0.5355
X6.15Y-1.53
X6.19Y-0.535
X6.19Y-1.945
X6.215Y-1.57
X6.2586Y-1.09
T4
X5.4916Y-2.6781
X5.4916Y-2.875
X6.0625Y-2.6781
X6.0625Y-2.7766
X6.0625Y-2.875
T5
X3.3813Y-1.1812
X3.6313Y-1.0813
X1.1312Y-2.6812
X1.3812Y-2.5812
X1.8812Y-4.1812
X2.1313Y-4.0812
X4.1312Y-1.9312
X4.3812Y-1.8313
X4.8812Y-1.1812
X5.1312Y-1.0813
X4.1312Y-2.6812
X4.3812Y-2.5812
X2.6313Y-3.4312
X2.8813Y-3.3312
X5.6312Y-1.1812
X5.8812Y-1.0813
X2.6313Y-2.6812
X2.8813Y-2.5812
X1.1312Y-1.9312
X1.3812Y-1.8313
X2.6313Y-1.1812
X2.8813Y-1.0813
X4.8812Y-1.9312
X5.1312Y-1.8313
X1.1312Y-4.1812
X1.3812Y-4.0812
X1.1312Y-1.1812
X1.3812Y-1.0813
X3.3813Y-2.6812
X3.6313Y-2.5812
X1.8812Y-3.4312
X2.1313Y-3.3312
X1.8812Y-1.1812
X2.1313Y-1.0813
X3.3813Y-1.9312
X3.6313Y-1.8313
X4.1312Y-1.1812
X4.3812Y-1.0813
X1.8812Y-2.6812
X2.1313Y-2.5812
X2.6313Y-4.1812
X2.8813Y-4.0812
X3.3813Y-3.4312
X3.6313Y-3.3312
X1.8812Y-1.9312
X2.1313Y-1.8313
X2.6313Y-1.9312
X2.8813Y-1.8313
X1.1312Y-3.4312
X1.3812Y-3.3312
T7
X6.6189Y-0.617
X0.6399Y-0.6185
X0.6405Y-5.0636
X6.6189Y-5.0636
T3
G00X3.7957Y-0.5763
M15
G01X3.7957Y-0.5999
M16
G05
G00X3.7957Y-0.7318
M15
G01X3.7957Y-0.7751
M16
G05
G00X4.1343Y-0.5763
M15
G01X4.1343Y-0.5999
M16
G05
G00X4.1343Y-0.7318
M15
G01X4.1343Y-0.7751
M16
G05
G00X5.612Y-0.5763
M15
G01X5.612Y-0.5999
M16
G05
G00X5.612Y-0.7318
M15
G01X5.612Y-0.7751
M16
G05
G00X5.9505Y-0.5763
M15
G01X5.9505Y-0.5999
M16
G05
G00X5.9505Y-0.7318
M15
G01X5.9505Y-0.7751
M16
G05
T6
G00X5.7928Y-2.5561
M15
G01X5.7416Y-2.5561
M16
G05
G00X5.7928Y-2.997
M15
G01X5.7416Y-2.997
M16
G05
T0
M30
