M48
; DRILL file {KiCad (5.1.5-0-10_14)} date 2021 April 20, Tuesday 13:47:56
; FORMAT={-:-/ absolute / inch / decimal}
; #@! TF.CreationDate,2021-04-20T13:47:56+02:00
; #@! TF.GenerationSoftware,Kicad,Pcbnew,(5.1.5-0-10_14)
; #@! TF.FileFunction,Plated,1,2,PTH
FMAT,2
INCH
T1C0.0079
T2C0.0118
T3C0.0157
T4C0.0236
T5C0.0394
T6C0.0591
T7C0.1260
%
G90
G05
T1
X3.8669Y-1.4919
X3.8669Y-1.5312
X3.8669Y-1.5706
X3.9062Y-1.4919
X3.9062Y-1.5312
X3.9062Y-1.5706
X3.9456Y-1.4919
X3.9456Y-1.5312
X3.9456Y-1.5706
T2
X1.6966Y-1.1757
X1.6966Y-1.2111
X1.6966Y-1.2466
X1.7714Y-1.1757
X1.7714Y-1.2111
X1.7714Y-1.2466
X2.2419Y-1.0773
X2.2419Y-1.1127
X2.2419Y-1.1481
X2.3167Y-1.0773
X2.3167Y-1.1127
X2.3167Y-1.1481
X2.4466Y-4.1757
X2.4466Y-4.2111
X2.4466Y-4.2466
X2.5214Y-4.1757
X2.5214Y-4.2111
X2.5214Y-4.2466
X2.9919Y-4.0773
X2.9919Y-4.1127
X2.9919Y-4.1481
X3.0667Y-4.0773
X3.0667Y-4.1127
X3.0667Y-4.1481
X0.9466Y-2.6757
X0.9466Y-2.7111
X0.9466Y-2.7466
X1.0214Y-2.6757
X1.0214Y-2.7111
X1.0214Y-2.7466
X1.4919Y-2.5773
X1.4919Y-2.6127
X1.4919Y-2.6481
X1.5667Y-2.5773
X1.5667Y-2.6127
X1.5667Y-2.6481
X1.6966Y-2.6757
X1.6966Y-2.7111
X1.6966Y-2.7466
X1.7714Y-2.6757
X1.7714Y-2.7111
X1.7714Y-2.7466
X2.2419Y-2.5773
X2.2419Y-2.6127
X2.2419Y-2.6481
X2.3167Y-2.5773
X2.3167Y-2.6127
X2.3167Y-2.6481
X5.4466Y-1.1757
X5.4466Y-1.2111
X5.4466Y-1.2466
X5.5214Y-1.1757
X5.5214Y-1.2111
X5.5214Y-1.2466
X5.9919Y-1.0773
X5.9919Y-1.1127
X5.9919Y-1.1481
X6.0667Y-1.0773
X6.0667Y-1.1127
X6.0667Y-1.1481
X3.9466Y-2.6757
X3.9466Y-2.7111
X3.9466Y-2.7466
X4.0214Y-2.6757
X4.0214Y-2.7111
X4.0214Y-2.7466
X4.4919Y-2.5773
X4.4919Y-2.6127
X4.4919Y-2.6481
X4.5667Y-2.5773
X4.5667Y-2.6127
X4.5667Y-2.6481
X2.4466Y-1.9257
X2.4466Y-1.9611
X2.4466Y-1.9966
X2.5214Y-1.9257
X2.5214Y-1.9611
X2.5214Y-1.9966
X2.9919Y-1.8273
X2.9919Y-1.8627
X2.9919Y-1.8981
X3.0667Y-1.8273
X3.0667Y-1.8627
X3.0667Y-1.8981
X2.4466Y-3.4257
X2.4466Y-3.4611
X2.4466Y-3.4966
X2.5214Y-3.4257
X2.5214Y-3.4611
X2.5214Y-3.4966
X2.9919Y-3.3273
X2.9919Y-3.3627
X2.9919Y-3.3981
X3.0667Y-3.3273
X3.0667Y-3.3627
X3.0667Y-3.3981
X3.9466Y-1.1757
X3.9466Y-1.2111
X3.9466Y-1.2466
X4.0214Y-1.1757
X4.0214Y-1.2111
X4.0214Y-1.2466
X4.4919Y-1.0773
X4.4919Y-1.1127
X4.4919Y-1.1481
X4.5667Y-1.0773
X4.5667Y-1.1127
X4.5667Y-1.1481
X0.9466Y-1.9257
X0.9466Y-1.9611
X0.9466Y-1.9966
X1.0214Y-1.9257
X1.0214Y-1.9611
X1.0214Y-1.9966
X1.4919Y-1.8273
X1.4919Y-1.8627
X1.4919Y-1.8981
X1.5667Y-1.8273
X1.5667Y-1.8627
X1.5667Y-1.8981
X3.1966Y-1.9257
X3.1966Y-1.9611
X3.1966Y-1.9966
X3.2714Y-1.9257
X3.2714Y-1.9611
X3.2714Y-1.9966
X3.7419Y-1.8273
X3.7419Y-1.8627
X3.7419Y-1.8981
X3.8167Y-1.8273
X3.8167Y-1.8627
X3.8167Y-1.8981
X2.4466Y-2.6757
X2.4466Y-2.7111
X2.4466Y-2.7466
X2.5214Y-2.6757
X2.5214Y-2.7111
X2.5214Y-2.7466
X2.9919Y-2.5773
X2.9919Y-2.6127
X2.9919Y-2.6481
X3.0667Y-2.5773
X3.0667Y-2.6127
X3.0667Y-2.6481
X0.9466Y-3.4257
X0.9466Y-3.4611
X0.9466Y-3.4966
X1.0214Y-3.4257
X1.0214Y-3.4611
X1.0214Y-3.4966
X1.4919Y-3.3273
X1.4919Y-3.3627
X1.4919Y-3.3981
X1.5667Y-3.3273
X1.5667Y-3.3627
X1.5667Y-3.3981
X3.1966Y-3.4257
X3.1966Y-3.4611
X3.1966Y-3.4966
X3.2714Y-3.4257
X3.2714Y-3.4611
X3.2714Y-3.4966
X3.7419Y-3.3273
X3.7419Y-3.3627
X3.7419Y-3.3981
X3.8167Y-3.3273
X3.8167Y-3.3627
X3.8167Y-3.3981
X4.6966Y-1.1757
X4.6966Y-1.2111
X4.6966Y-1.2466
X4.7714Y-1.1757
X4.7714Y-1.2111
X4.7714Y-1.2466
X5.2419Y-1.0773
X5.2419Y-1.1127
X5.2419Y-1.1481
X5.3167Y-1.0773
X5.3167Y-1.1127
X5.3167Y-1.1481
X0.9466Y-1.1757
X0.9466Y-1.2111
X0.9466Y-1.2466
X1.0214Y-1.1757
X1.0214Y-1.2111
X1.0214Y-1.2466
X1.4919Y-1.0773
X1.4919Y-1.1127
X1.4919Y-1.1481
X1.5667Y-1.0773
X1.5667Y-1.1127
X1.5667Y-1.1481
X3.9466Y-1.9257
X3.9466Y-1.9611
X3.9466Y-1.9966
X4.0214Y-1.9257
X4.0214Y-1.9611
X4.0214Y-1.9966
X4.4919Y-1.8273
X4.4919Y-1.8627
X4.4919Y-1.8981
X4.5667Y-1.8273
X4.5667Y-1.8627
X4.5667Y-1.8981
X2.4466Y-1.1757
X2.4466Y-1.2111
X2.4466Y-1.2466
X2.5214Y-1.1757
X2.5214Y-1.2111
X2.5214Y-1.2466
X2.9919Y-1.0773
X2.9919Y-1.1127
X2.9919Y-1.1481
X3.0667Y-1.0773
X3.0667Y-1.1127
X3.0667Y-1.1481
X1.6966Y-4.1757
X1.6966Y-4.2111
X1.6966Y-4.2466
X1.7714Y-4.1757
X1.7714Y-4.2111
X1.7714Y-4.2466
X2.2419Y-4.0773
X2.2419Y-4.1127
X2.2419Y-4.1481
X2.3167Y-4.0773
X2.3167Y-4.1127
X2.3167Y-4.1481
X0.9466Y-4.1757
X0.9466Y-4.2111
X0.9466Y-4.2466
X1.0214Y-4.1757
X1.0214Y-4.2111
X1.0214Y-4.2466
X1.4919Y-4.0773
X1.4919Y-4.1127
X1.4919Y-4.1481
X1.5667Y-4.0773
X1.5667Y-4.1127
X1.5667Y-4.1481
X3.1966Y-2.6757
X3.1966Y-2.7111
X3.1966Y-2.7466
X3.2714Y-2.6757
X3.2714Y-2.7111
X3.2714Y-2.7466
X3.7419Y-2.5773
X3.7419Y-2.6127
X3.7419Y-2.6481
X3.8167Y-2.5773
X3.8167Y-2.6127
X3.8167Y-2.6481
X1.6966Y-1.9257
X1.6966Y-1.9611
X1.6966Y-1.9966
X1.7714Y-1.9257
X1.7714Y-1.9611
X1.7714Y-1.9966
X2.2419Y-1.8273
X2.2419Y-1.8627
X2.2419Y-1.8981
X2.3167Y-1.8273
X2.3167Y-1.8627
X2.3167Y-1.8981
X4.6966Y-1.9257
X4.6966Y-1.9611
X4.6966Y-1.9966
X4.7714Y-1.9257
X4.7714Y-1.9611
X4.7714Y-1.9966
X5.2419Y-1.8273
X5.2419Y-1.8627
X5.2419Y-1.8981
X5.3167Y-1.8273
X5.3167Y-1.8627
X5.3167Y-1.8981
X1.6966Y-3.4257
X1.6966Y-3.4611
X1.6966Y-3.4966
X1.7714Y-3.4257
X1.7714Y-3.4611
X1.7714Y-3.4966
X2.2419Y-3.3273
X2.2419Y-3.3627
X2.2419Y-3.3981
X2.3167Y-3.3273
X2.3167Y-3.3627
X2.3167Y-3.3981
X3.1966Y-1.1757
X3.1966Y-1.2111
X3.1966Y-1.2466
X3.2714Y-1.1757
X3.2714Y-1.2111
X3.2714Y-1.2466
X3.7419Y-1.0773
X3.7419Y-1.1127
X3.7419Y-1.1481
X3.8167Y-1.0773
X3.8167Y-1.1127
X3.8167Y-1.1481
T3
X3.205Y-1.5562
X3.205Y-3.0862
X3.4Y-1.735
X3.4684Y-1.625
X3.52Y-2.22
X3.5861Y-2.22
X3.59Y-1.77
X3.64Y-2.4213
X3.65Y-1.325
X3.65Y-1.49
X3.6621Y-1.6961
X3.674Y-1.628
X3.71Y-1.405
X3.76Y-2.285
X3.763Y-1.628
X3.8364Y-1.7908
X3.875Y-2.44
X3.98Y-1.305
X4.0Y-1.365
X4.025Y-1.43
X4.115Y-1.715
X4.115Y-1.7544
X4.165Y-1.385
X4.165Y-1.445
X4.185Y-2.125
X4.185Y-2.185
X4.195Y-1.52
X4.195Y-1.555
X4.21Y-2.44
X4.265Y-2.485
X4.265Y-2.396
X4.301Y-1.488
X4.407Y-2.11
X4.407Y-2.196
X4.408Y-1.618
X4.4164Y-1.4136
X4.565Y-3.2234
X4.57Y-2.409
X4.57Y-2.4712
X4.6775Y-0.81
X4.6875Y-2.8125
X4.715Y-2.9762
X4.7162Y-0.65
X4.75Y-2.8125
X4.7625Y-3.0713
X4.7763Y-0.65
X4.7825Y-0.855
X4.7875Y-2.4712
X4.7975Y-3.125
X4.8438Y-2.4688
X4.8625Y-0.83
X4.8975Y-0.83
X4.9684Y-0.8373
X5.0263Y-0.855
X5.095Y-2.5263
X5.1575Y-0.83
X5.165Y-0.955
X5.1725Y-2.4362
X5.19Y-3.1612
X5.2975Y-3.1162
X5.3125Y-2.19
X5.3768Y-2.8207
X5.47Y-0.65
X5.4813Y-2.7163
X5.5263Y-2.9812
X5.53Y-0.65
X5.5362Y-2.9112
X5.5512Y-2.7262
X5.5938Y-2.9375
X5.625Y-2.6562
X5.655Y-0.835
X5.6562Y-2.9375
X5.7822Y-0.855
X5.91Y-0.8289
X6.01Y-1.03
X6.075Y-0.795
T5
X5.7729Y-2.4281
X5.7729Y-2.625
X6.3438Y-2.4281
X6.3438Y-2.5266
X6.3438Y-2.625
T7
X0.6399Y-0.6185
X6.6189Y-5.0636
X6.6189Y-0.617
X0.6405Y-5.0636
T4
G00X5.612Y-0.5763
M15
G01X5.612Y-0.5999
M16
G05
G00X5.612Y-0.7318
M15
G01X5.612Y-0.7751
M16
G05
G00X5.9505Y-0.5763
M15
G01X5.9505Y-0.5999
M16
G05
G00X5.9505Y-0.7318
M15
G01X5.9505Y-0.7751
M16
G05
G00X4.8582Y-0.5763
M15
G01X4.8582Y-0.5999
M16
G05
G00X4.8582Y-0.7318
M15
G01X4.8582Y-0.7751
M16
G05
G00X5.1968Y-0.5763
M15
G01X5.1968Y-0.5999
M16
G05
G00X5.1968Y-0.7318
M15
G01X5.1968Y-0.7751
M16
G05
T6
G00X6.0741Y-2.3061
M15
G01X6.0229Y-2.3061
M16
G05
G00X6.0741Y-2.747
M15
G01X6.0229Y-2.747
M16
G05
T0
M30
