G04 #@! TF.GenerationSoftware,KiCad,Pcbnew,(5.1.5-0-10_14)*
G04 #@! TF.CreationDate,2020-07-14T10:27:18+02:00*
G04 #@! TF.ProjectId,Trigon,54726967-6f6e-42e6-9b69-6361645f7063,rev?*
G04 #@! TF.SameCoordinates,Original*
G04 #@! TF.FileFunction,Paste,Bot*
G04 #@! TF.FilePolarity,Positive*
%FSLAX46Y46*%
G04 Gerber Fmt 4.6, Leading zero omitted, Abs format (unit mm)*
G04 Created by KiCad (PCBNEW (5.1.5-0-10_14)) date 2020-07-14 10:27:18*
%MOMM*%
%LPD*%
G04 APERTURE LIST*
%ADD10C,0.100000*%
%ADD11R,1.400000X1.200000*%
%ADD12R,0.550000X1.500000*%
%ADD13R,1.500000X0.550000*%
%ADD14R,1.800000X1.100000*%
%ADD15R,1.200000X0.900000*%
G04 APERTURE END LIST*
D10*
G36*
X86608453Y-18394472D02*
G01*
X86623014Y-18396632D01*
X86637293Y-18400209D01*
X86651153Y-18405168D01*
X86664460Y-18411462D01*
X86677086Y-18419030D01*
X86688909Y-18427798D01*
X86699816Y-18437684D01*
X86709702Y-18448591D01*
X86718470Y-18460414D01*
X86726038Y-18473040D01*
X86732332Y-18486347D01*
X86737291Y-18500207D01*
X86740868Y-18514486D01*
X86743028Y-18529047D01*
X86743750Y-18543750D01*
X86743750Y-19693750D01*
X86743028Y-19708453D01*
X86740868Y-19723014D01*
X86737291Y-19737293D01*
X86732332Y-19751153D01*
X86726038Y-19764460D01*
X86718470Y-19777086D01*
X86709702Y-19788909D01*
X86699816Y-19799816D01*
X86688909Y-19809702D01*
X86677086Y-19818470D01*
X86664460Y-19826038D01*
X86651153Y-19832332D01*
X86637293Y-19837291D01*
X86623014Y-19840868D01*
X86608453Y-19843028D01*
X86593750Y-19843750D01*
X86293750Y-19843750D01*
X86279047Y-19843028D01*
X86264486Y-19840868D01*
X86250207Y-19837291D01*
X86236347Y-19832332D01*
X86223040Y-19826038D01*
X86210414Y-19818470D01*
X86198591Y-19809702D01*
X86187684Y-19799816D01*
X86177798Y-19788909D01*
X86169030Y-19777086D01*
X86161462Y-19764460D01*
X86155168Y-19751153D01*
X86150209Y-19737293D01*
X86146632Y-19723014D01*
X86144472Y-19708453D01*
X86143750Y-19693750D01*
X86143750Y-18543750D01*
X86144472Y-18529047D01*
X86146632Y-18514486D01*
X86150209Y-18500207D01*
X86155168Y-18486347D01*
X86161462Y-18473040D01*
X86169030Y-18460414D01*
X86177798Y-18448591D01*
X86187684Y-18437684D01*
X86198591Y-18427798D01*
X86210414Y-18419030D01*
X86223040Y-18411462D01*
X86236347Y-18405168D01*
X86250207Y-18400209D01*
X86264486Y-18396632D01*
X86279047Y-18394472D01*
X86293750Y-18393750D01*
X86593750Y-18393750D01*
X86608453Y-18394472D01*
G37*
G36*
X88026101Y-18394111D02*
G01*
X88033382Y-18395191D01*
X88040521Y-18396979D01*
X88047451Y-18399459D01*
X88054105Y-18402606D01*
X88060418Y-18406390D01*
X88066329Y-18410774D01*
X88071783Y-18415717D01*
X88076726Y-18421171D01*
X88081110Y-18427082D01*
X88084894Y-18433395D01*
X88088041Y-18440049D01*
X88090521Y-18446979D01*
X88092309Y-18454118D01*
X88093389Y-18461399D01*
X88093750Y-18468750D01*
X88093750Y-19768750D01*
X88093389Y-19776101D01*
X88092309Y-19783382D01*
X88090521Y-19790521D01*
X88088041Y-19797451D01*
X88084894Y-19804105D01*
X88081110Y-19810418D01*
X88076726Y-19816329D01*
X88071783Y-19821783D01*
X88066329Y-19826726D01*
X88060418Y-19831110D01*
X88054105Y-19834894D01*
X88047451Y-19838041D01*
X88040521Y-19840521D01*
X88033382Y-19842309D01*
X88026101Y-19843389D01*
X88018750Y-19843750D01*
X87868750Y-19843750D01*
X87861399Y-19843389D01*
X87854118Y-19842309D01*
X87846979Y-19840521D01*
X87840049Y-19838041D01*
X87833395Y-19834894D01*
X87827082Y-19831110D01*
X87821171Y-19826726D01*
X87815717Y-19821783D01*
X87810774Y-19816329D01*
X87806390Y-19810418D01*
X87802606Y-19804105D01*
X87799459Y-19797451D01*
X87796979Y-19790521D01*
X87795191Y-19783382D01*
X87794111Y-19776101D01*
X87793750Y-19768750D01*
X87793750Y-18468750D01*
X87794111Y-18461399D01*
X87795191Y-18454118D01*
X87796979Y-18446979D01*
X87799459Y-18440049D01*
X87802606Y-18433395D01*
X87806390Y-18427082D01*
X87810774Y-18421171D01*
X87815717Y-18415717D01*
X87821171Y-18410774D01*
X87827082Y-18406390D01*
X87833395Y-18402606D01*
X87840049Y-18399459D01*
X87846979Y-18396979D01*
X87854118Y-18395191D01*
X87861399Y-18394111D01*
X87868750Y-18393750D01*
X88018750Y-18393750D01*
X88026101Y-18394111D01*
G37*
G36*
X88526101Y-18394111D02*
G01*
X88533382Y-18395191D01*
X88540521Y-18396979D01*
X88547451Y-18399459D01*
X88554105Y-18402606D01*
X88560418Y-18406390D01*
X88566329Y-18410774D01*
X88571783Y-18415717D01*
X88576726Y-18421171D01*
X88581110Y-18427082D01*
X88584894Y-18433395D01*
X88588041Y-18440049D01*
X88590521Y-18446979D01*
X88592309Y-18454118D01*
X88593389Y-18461399D01*
X88593750Y-18468750D01*
X88593750Y-19768750D01*
X88593389Y-19776101D01*
X88592309Y-19783382D01*
X88590521Y-19790521D01*
X88588041Y-19797451D01*
X88584894Y-19804105D01*
X88581110Y-19810418D01*
X88576726Y-19816329D01*
X88571783Y-19821783D01*
X88566329Y-19826726D01*
X88560418Y-19831110D01*
X88554105Y-19834894D01*
X88547451Y-19838041D01*
X88540521Y-19840521D01*
X88533382Y-19842309D01*
X88526101Y-19843389D01*
X88518750Y-19843750D01*
X88368750Y-19843750D01*
X88361399Y-19843389D01*
X88354118Y-19842309D01*
X88346979Y-19840521D01*
X88340049Y-19838041D01*
X88333395Y-19834894D01*
X88327082Y-19831110D01*
X88321171Y-19826726D01*
X88315717Y-19821783D01*
X88310774Y-19816329D01*
X88306390Y-19810418D01*
X88302606Y-19804105D01*
X88299459Y-19797451D01*
X88296979Y-19790521D01*
X88295191Y-19783382D01*
X88294111Y-19776101D01*
X88293750Y-19768750D01*
X88293750Y-18468750D01*
X88294111Y-18461399D01*
X88295191Y-18454118D01*
X88296979Y-18446979D01*
X88299459Y-18440049D01*
X88302606Y-18433395D01*
X88306390Y-18427082D01*
X88310774Y-18421171D01*
X88315717Y-18415717D01*
X88321171Y-18410774D01*
X88327082Y-18406390D01*
X88333395Y-18402606D01*
X88340049Y-18399459D01*
X88346979Y-18396979D01*
X88354118Y-18395191D01*
X88361399Y-18394111D01*
X88368750Y-18393750D01*
X88518750Y-18393750D01*
X88526101Y-18394111D01*
G37*
G36*
X89026101Y-18394111D02*
G01*
X89033382Y-18395191D01*
X89040521Y-18396979D01*
X89047451Y-18399459D01*
X89054105Y-18402606D01*
X89060418Y-18406390D01*
X89066329Y-18410774D01*
X89071783Y-18415717D01*
X89076726Y-18421171D01*
X89081110Y-18427082D01*
X89084894Y-18433395D01*
X89088041Y-18440049D01*
X89090521Y-18446979D01*
X89092309Y-18454118D01*
X89093389Y-18461399D01*
X89093750Y-18468750D01*
X89093750Y-19768750D01*
X89093389Y-19776101D01*
X89092309Y-19783382D01*
X89090521Y-19790521D01*
X89088041Y-19797451D01*
X89084894Y-19804105D01*
X89081110Y-19810418D01*
X89076726Y-19816329D01*
X89071783Y-19821783D01*
X89066329Y-19826726D01*
X89060418Y-19831110D01*
X89054105Y-19834894D01*
X89047451Y-19838041D01*
X89040521Y-19840521D01*
X89033382Y-19842309D01*
X89026101Y-19843389D01*
X89018750Y-19843750D01*
X88868750Y-19843750D01*
X88861399Y-19843389D01*
X88854118Y-19842309D01*
X88846979Y-19840521D01*
X88840049Y-19838041D01*
X88833395Y-19834894D01*
X88827082Y-19831110D01*
X88821171Y-19826726D01*
X88815717Y-19821783D01*
X88810774Y-19816329D01*
X88806390Y-19810418D01*
X88802606Y-19804105D01*
X88799459Y-19797451D01*
X88796979Y-19790521D01*
X88795191Y-19783382D01*
X88794111Y-19776101D01*
X88793750Y-19768750D01*
X88793750Y-18468750D01*
X88794111Y-18461399D01*
X88795191Y-18454118D01*
X88796979Y-18446979D01*
X88799459Y-18440049D01*
X88802606Y-18433395D01*
X88806390Y-18427082D01*
X88810774Y-18421171D01*
X88815717Y-18415717D01*
X88821171Y-18410774D01*
X88827082Y-18406390D01*
X88833395Y-18402606D01*
X88840049Y-18399459D01*
X88846979Y-18396979D01*
X88854118Y-18395191D01*
X88861399Y-18394111D01*
X88868750Y-18393750D01*
X89018750Y-18393750D01*
X89026101Y-18394111D01*
G37*
G36*
X89522101Y-18394111D02*
G01*
X89529382Y-18395191D01*
X89536521Y-18396979D01*
X89543451Y-18399459D01*
X89550105Y-18402606D01*
X89556418Y-18406390D01*
X89562329Y-18410774D01*
X89567783Y-18415717D01*
X89572726Y-18421171D01*
X89577110Y-18427082D01*
X89580894Y-18433395D01*
X89584041Y-18440049D01*
X89586521Y-18446979D01*
X89588309Y-18454118D01*
X89589389Y-18461399D01*
X89589750Y-18468750D01*
X89589750Y-19768750D01*
X89589389Y-19776101D01*
X89588309Y-19783382D01*
X89586521Y-19790521D01*
X89584041Y-19797451D01*
X89580894Y-19804105D01*
X89577110Y-19810418D01*
X89572726Y-19816329D01*
X89567783Y-19821783D01*
X89562329Y-19826726D01*
X89556418Y-19831110D01*
X89550105Y-19834894D01*
X89543451Y-19838041D01*
X89536521Y-19840521D01*
X89529382Y-19842309D01*
X89522101Y-19843389D01*
X89514750Y-19843750D01*
X89364750Y-19843750D01*
X89357399Y-19843389D01*
X89350118Y-19842309D01*
X89342979Y-19840521D01*
X89336049Y-19838041D01*
X89329395Y-19834894D01*
X89323082Y-19831110D01*
X89317171Y-19826726D01*
X89311717Y-19821783D01*
X89306774Y-19816329D01*
X89302390Y-19810418D01*
X89298606Y-19804105D01*
X89295459Y-19797451D01*
X89292979Y-19790521D01*
X89291191Y-19783382D01*
X89290111Y-19776101D01*
X89289750Y-19768750D01*
X89289750Y-18468750D01*
X89290111Y-18461399D01*
X89291191Y-18454118D01*
X89292979Y-18446979D01*
X89295459Y-18440049D01*
X89298606Y-18433395D01*
X89302390Y-18427082D01*
X89306774Y-18421171D01*
X89311717Y-18415717D01*
X89317171Y-18410774D01*
X89323082Y-18406390D01*
X89329395Y-18402606D01*
X89336049Y-18399459D01*
X89342979Y-18396979D01*
X89350118Y-18395191D01*
X89357399Y-18394111D01*
X89364750Y-18393750D01*
X89514750Y-18393750D01*
X89522101Y-18394111D01*
G37*
G36*
X91526101Y-18394111D02*
G01*
X91533382Y-18395191D01*
X91540521Y-18396979D01*
X91547451Y-18399459D01*
X91554105Y-18402606D01*
X91560418Y-18406390D01*
X91566329Y-18410774D01*
X91571783Y-18415717D01*
X91576726Y-18421171D01*
X91581110Y-18427082D01*
X91584894Y-18433395D01*
X91588041Y-18440049D01*
X91590521Y-18446979D01*
X91592309Y-18454118D01*
X91593389Y-18461399D01*
X91593750Y-18468750D01*
X91593750Y-19768750D01*
X91593389Y-19776101D01*
X91592309Y-19783382D01*
X91590521Y-19790521D01*
X91588041Y-19797451D01*
X91584894Y-19804105D01*
X91581110Y-19810418D01*
X91576726Y-19816329D01*
X91571783Y-19821783D01*
X91566329Y-19826726D01*
X91560418Y-19831110D01*
X91554105Y-19834894D01*
X91547451Y-19838041D01*
X91540521Y-19840521D01*
X91533382Y-19842309D01*
X91526101Y-19843389D01*
X91518750Y-19843750D01*
X91368750Y-19843750D01*
X91361399Y-19843389D01*
X91354118Y-19842309D01*
X91346979Y-19840521D01*
X91340049Y-19838041D01*
X91333395Y-19834894D01*
X91327082Y-19831110D01*
X91321171Y-19826726D01*
X91315717Y-19821783D01*
X91310774Y-19816329D01*
X91306390Y-19810418D01*
X91302606Y-19804105D01*
X91299459Y-19797451D01*
X91296979Y-19790521D01*
X91295191Y-19783382D01*
X91294111Y-19776101D01*
X91293750Y-19768750D01*
X91293750Y-18468750D01*
X91294111Y-18461399D01*
X91295191Y-18454118D01*
X91296979Y-18446979D01*
X91299459Y-18440049D01*
X91302606Y-18433395D01*
X91306390Y-18427082D01*
X91310774Y-18421171D01*
X91315717Y-18415717D01*
X91321171Y-18410774D01*
X91327082Y-18406390D01*
X91333395Y-18402606D01*
X91340049Y-18399459D01*
X91346979Y-18396979D01*
X91354118Y-18395191D01*
X91361399Y-18394111D01*
X91368750Y-18393750D01*
X91518750Y-18393750D01*
X91526101Y-18394111D01*
G37*
G36*
X91026101Y-18394111D02*
G01*
X91033382Y-18395191D01*
X91040521Y-18396979D01*
X91047451Y-18399459D01*
X91054105Y-18402606D01*
X91060418Y-18406390D01*
X91066329Y-18410774D01*
X91071783Y-18415717D01*
X91076726Y-18421171D01*
X91081110Y-18427082D01*
X91084894Y-18433395D01*
X91088041Y-18440049D01*
X91090521Y-18446979D01*
X91092309Y-18454118D01*
X91093389Y-18461399D01*
X91093750Y-18468750D01*
X91093750Y-19768750D01*
X91093389Y-19776101D01*
X91092309Y-19783382D01*
X91090521Y-19790521D01*
X91088041Y-19797451D01*
X91084894Y-19804105D01*
X91081110Y-19810418D01*
X91076726Y-19816329D01*
X91071783Y-19821783D01*
X91066329Y-19826726D01*
X91060418Y-19831110D01*
X91054105Y-19834894D01*
X91047451Y-19838041D01*
X91040521Y-19840521D01*
X91033382Y-19842309D01*
X91026101Y-19843389D01*
X91018750Y-19843750D01*
X90868750Y-19843750D01*
X90861399Y-19843389D01*
X90854118Y-19842309D01*
X90846979Y-19840521D01*
X90840049Y-19838041D01*
X90833395Y-19834894D01*
X90827082Y-19831110D01*
X90821171Y-19826726D01*
X90815717Y-19821783D01*
X90810774Y-19816329D01*
X90806390Y-19810418D01*
X90802606Y-19804105D01*
X90799459Y-19797451D01*
X90796979Y-19790521D01*
X90795191Y-19783382D01*
X90794111Y-19776101D01*
X90793750Y-19768750D01*
X90793750Y-18468750D01*
X90794111Y-18461399D01*
X90795191Y-18454118D01*
X90796979Y-18446979D01*
X90799459Y-18440049D01*
X90802606Y-18433395D01*
X90806390Y-18427082D01*
X90810774Y-18421171D01*
X90815717Y-18415717D01*
X90821171Y-18410774D01*
X90827082Y-18406390D01*
X90833395Y-18402606D01*
X90840049Y-18399459D01*
X90846979Y-18396979D01*
X90854118Y-18395191D01*
X90861399Y-18394111D01*
X90868750Y-18393750D01*
X91018750Y-18393750D01*
X91026101Y-18394111D01*
G37*
G36*
X90526101Y-18394111D02*
G01*
X90533382Y-18395191D01*
X90540521Y-18396979D01*
X90547451Y-18399459D01*
X90554105Y-18402606D01*
X90560418Y-18406390D01*
X90566329Y-18410774D01*
X90571783Y-18415717D01*
X90576726Y-18421171D01*
X90581110Y-18427082D01*
X90584894Y-18433395D01*
X90588041Y-18440049D01*
X90590521Y-18446979D01*
X90592309Y-18454118D01*
X90593389Y-18461399D01*
X90593750Y-18468750D01*
X90593750Y-19768750D01*
X90593389Y-19776101D01*
X90592309Y-19783382D01*
X90590521Y-19790521D01*
X90588041Y-19797451D01*
X90584894Y-19804105D01*
X90581110Y-19810418D01*
X90576726Y-19816329D01*
X90571783Y-19821783D01*
X90566329Y-19826726D01*
X90560418Y-19831110D01*
X90554105Y-19834894D01*
X90547451Y-19838041D01*
X90540521Y-19840521D01*
X90533382Y-19842309D01*
X90526101Y-19843389D01*
X90518750Y-19843750D01*
X90368750Y-19843750D01*
X90361399Y-19843389D01*
X90354118Y-19842309D01*
X90346979Y-19840521D01*
X90340049Y-19838041D01*
X90333395Y-19834894D01*
X90327082Y-19831110D01*
X90321171Y-19826726D01*
X90315717Y-19821783D01*
X90310774Y-19816329D01*
X90306390Y-19810418D01*
X90302606Y-19804105D01*
X90299459Y-19797451D01*
X90296979Y-19790521D01*
X90295191Y-19783382D01*
X90294111Y-19776101D01*
X90293750Y-19768750D01*
X90293750Y-18468750D01*
X90294111Y-18461399D01*
X90295191Y-18454118D01*
X90296979Y-18446979D01*
X90299459Y-18440049D01*
X90302606Y-18433395D01*
X90306390Y-18427082D01*
X90310774Y-18421171D01*
X90315717Y-18415717D01*
X90321171Y-18410774D01*
X90327082Y-18406390D01*
X90333395Y-18402606D01*
X90340049Y-18399459D01*
X90346979Y-18396979D01*
X90354118Y-18395191D01*
X90361399Y-18394111D01*
X90368750Y-18393750D01*
X90518750Y-18393750D01*
X90526101Y-18394111D01*
G37*
G36*
X90026101Y-18394111D02*
G01*
X90033382Y-18395191D01*
X90040521Y-18396979D01*
X90047451Y-18399459D01*
X90054105Y-18402606D01*
X90060418Y-18406390D01*
X90066329Y-18410774D01*
X90071783Y-18415717D01*
X90076726Y-18421171D01*
X90081110Y-18427082D01*
X90084894Y-18433395D01*
X90088041Y-18440049D01*
X90090521Y-18446979D01*
X90092309Y-18454118D01*
X90093389Y-18461399D01*
X90093750Y-18468750D01*
X90093750Y-19768750D01*
X90093389Y-19776101D01*
X90092309Y-19783382D01*
X90090521Y-19790521D01*
X90088041Y-19797451D01*
X90084894Y-19804105D01*
X90081110Y-19810418D01*
X90076726Y-19816329D01*
X90071783Y-19821783D01*
X90066329Y-19826726D01*
X90060418Y-19831110D01*
X90054105Y-19834894D01*
X90047451Y-19838041D01*
X90040521Y-19840521D01*
X90033382Y-19842309D01*
X90026101Y-19843389D01*
X90018750Y-19843750D01*
X89868750Y-19843750D01*
X89861399Y-19843389D01*
X89854118Y-19842309D01*
X89846979Y-19840521D01*
X89840049Y-19838041D01*
X89833395Y-19834894D01*
X89827082Y-19831110D01*
X89821171Y-19826726D01*
X89815717Y-19821783D01*
X89810774Y-19816329D01*
X89806390Y-19810418D01*
X89802606Y-19804105D01*
X89799459Y-19797451D01*
X89796979Y-19790521D01*
X89795191Y-19783382D01*
X89794111Y-19776101D01*
X89793750Y-19768750D01*
X89793750Y-18468750D01*
X89794111Y-18461399D01*
X89795191Y-18454118D01*
X89796979Y-18446979D01*
X89799459Y-18440049D01*
X89802606Y-18433395D01*
X89806390Y-18427082D01*
X89810774Y-18421171D01*
X89815717Y-18415717D01*
X89821171Y-18410774D01*
X89827082Y-18406390D01*
X89833395Y-18402606D01*
X89840049Y-18399459D01*
X89846979Y-18396979D01*
X89854118Y-18395191D01*
X89861399Y-18394111D01*
X89868750Y-18393750D01*
X90018750Y-18393750D01*
X90026101Y-18394111D01*
G37*
G36*
X87408453Y-18394472D02*
G01*
X87423014Y-18396632D01*
X87437293Y-18400209D01*
X87451153Y-18405168D01*
X87464460Y-18411462D01*
X87477086Y-18419030D01*
X87488909Y-18427798D01*
X87499816Y-18437684D01*
X87509702Y-18448591D01*
X87518470Y-18460414D01*
X87526038Y-18473040D01*
X87532332Y-18486347D01*
X87537291Y-18500207D01*
X87540868Y-18514486D01*
X87543028Y-18529047D01*
X87543750Y-18543750D01*
X87543750Y-19693750D01*
X87543028Y-19708453D01*
X87540868Y-19723014D01*
X87537291Y-19737293D01*
X87532332Y-19751153D01*
X87526038Y-19764460D01*
X87518470Y-19777086D01*
X87509702Y-19788909D01*
X87499816Y-19799816D01*
X87488909Y-19809702D01*
X87477086Y-19818470D01*
X87464460Y-19826038D01*
X87451153Y-19832332D01*
X87437293Y-19837291D01*
X87423014Y-19840868D01*
X87408453Y-19843028D01*
X87393750Y-19843750D01*
X87093750Y-19843750D01*
X87079047Y-19843028D01*
X87064486Y-19840868D01*
X87050207Y-19837291D01*
X87036347Y-19832332D01*
X87023040Y-19826038D01*
X87010414Y-19818470D01*
X86998591Y-19809702D01*
X86987684Y-19799816D01*
X86977798Y-19788909D01*
X86969030Y-19777086D01*
X86961462Y-19764460D01*
X86955168Y-19751153D01*
X86950209Y-19737293D01*
X86946632Y-19723014D01*
X86944472Y-19708453D01*
X86943750Y-19693750D01*
X86943750Y-18543750D01*
X86944472Y-18529047D01*
X86946632Y-18514486D01*
X86950209Y-18500207D01*
X86955168Y-18486347D01*
X86961462Y-18473040D01*
X86969030Y-18460414D01*
X86977798Y-18448591D01*
X86987684Y-18437684D01*
X86998591Y-18427798D01*
X87010414Y-18419030D01*
X87023040Y-18411462D01*
X87036347Y-18405168D01*
X87050207Y-18400209D01*
X87064486Y-18396632D01*
X87079047Y-18394472D01*
X87093750Y-18393750D01*
X87393750Y-18393750D01*
X87408453Y-18394472D01*
G37*
G36*
X93108453Y-18394472D02*
G01*
X93123014Y-18396632D01*
X93137293Y-18400209D01*
X93151153Y-18405168D01*
X93164460Y-18411462D01*
X93177086Y-18419030D01*
X93188909Y-18427798D01*
X93199816Y-18437684D01*
X93209702Y-18448591D01*
X93218470Y-18460414D01*
X93226038Y-18473040D01*
X93232332Y-18486347D01*
X93237291Y-18500207D01*
X93240868Y-18514486D01*
X93243028Y-18529047D01*
X93243750Y-18543750D01*
X93243750Y-19693750D01*
X93243028Y-19708453D01*
X93240868Y-19723014D01*
X93237291Y-19737293D01*
X93232332Y-19751153D01*
X93226038Y-19764460D01*
X93218470Y-19777086D01*
X93209702Y-19788909D01*
X93199816Y-19799816D01*
X93188909Y-19809702D01*
X93177086Y-19818470D01*
X93164460Y-19826038D01*
X93151153Y-19832332D01*
X93137293Y-19837291D01*
X93123014Y-19840868D01*
X93108453Y-19843028D01*
X93093750Y-19843750D01*
X92793750Y-19843750D01*
X92779047Y-19843028D01*
X92764486Y-19840868D01*
X92750207Y-19837291D01*
X92736347Y-19832332D01*
X92723040Y-19826038D01*
X92710414Y-19818470D01*
X92698591Y-19809702D01*
X92687684Y-19799816D01*
X92677798Y-19788909D01*
X92669030Y-19777086D01*
X92661462Y-19764460D01*
X92655168Y-19751153D01*
X92650209Y-19737293D01*
X92646632Y-19723014D01*
X92644472Y-19708453D01*
X92643750Y-19693750D01*
X92643750Y-18543750D01*
X92644472Y-18529047D01*
X92646632Y-18514486D01*
X92650209Y-18500207D01*
X92655168Y-18486347D01*
X92661462Y-18473040D01*
X92669030Y-18460414D01*
X92677798Y-18448591D01*
X92687684Y-18437684D01*
X92698591Y-18427798D01*
X92710414Y-18419030D01*
X92723040Y-18411462D01*
X92736347Y-18405168D01*
X92750207Y-18400209D01*
X92764486Y-18396632D01*
X92779047Y-18394472D01*
X92793750Y-18393750D01*
X93093750Y-18393750D01*
X93108453Y-18394472D01*
G37*
G36*
X92308453Y-18394472D02*
G01*
X92323014Y-18396632D01*
X92337293Y-18400209D01*
X92351153Y-18405168D01*
X92364460Y-18411462D01*
X92377086Y-18419030D01*
X92388909Y-18427798D01*
X92399816Y-18437684D01*
X92409702Y-18448591D01*
X92418470Y-18460414D01*
X92426038Y-18473040D01*
X92432332Y-18486347D01*
X92437291Y-18500207D01*
X92440868Y-18514486D01*
X92443028Y-18529047D01*
X92443750Y-18543750D01*
X92443750Y-19693750D01*
X92443028Y-19708453D01*
X92440868Y-19723014D01*
X92437291Y-19737293D01*
X92432332Y-19751153D01*
X92426038Y-19764460D01*
X92418470Y-19777086D01*
X92409702Y-19788909D01*
X92399816Y-19799816D01*
X92388909Y-19809702D01*
X92377086Y-19818470D01*
X92364460Y-19826038D01*
X92351153Y-19832332D01*
X92337293Y-19837291D01*
X92323014Y-19840868D01*
X92308453Y-19843028D01*
X92293750Y-19843750D01*
X91993750Y-19843750D01*
X91979047Y-19843028D01*
X91964486Y-19840868D01*
X91950207Y-19837291D01*
X91936347Y-19832332D01*
X91923040Y-19826038D01*
X91910414Y-19818470D01*
X91898591Y-19809702D01*
X91887684Y-19799816D01*
X91877798Y-19788909D01*
X91869030Y-19777086D01*
X91861462Y-19764460D01*
X91855168Y-19751153D01*
X91850209Y-19737293D01*
X91846632Y-19723014D01*
X91844472Y-19708453D01*
X91843750Y-19693750D01*
X91843750Y-18543750D01*
X91844472Y-18529047D01*
X91846632Y-18514486D01*
X91850209Y-18500207D01*
X91855168Y-18486347D01*
X91861462Y-18473040D01*
X91869030Y-18460414D01*
X91877798Y-18448591D01*
X91887684Y-18437684D01*
X91898591Y-18427798D01*
X91910414Y-18419030D01*
X91923040Y-18411462D01*
X91936347Y-18405168D01*
X91950207Y-18400209D01*
X91964486Y-18396632D01*
X91979047Y-18394472D01*
X91993750Y-18393750D01*
X92293750Y-18393750D01*
X92308453Y-18394472D01*
G37*
G36*
X137798892Y-62363674D02*
G01*
X137822553Y-62367184D01*
X137845757Y-62372996D01*
X137868279Y-62381054D01*
X137889903Y-62391282D01*
X137910420Y-62403579D01*
X137929633Y-62417829D01*
X137947357Y-62433893D01*
X137963421Y-62451617D01*
X137977671Y-62470830D01*
X137989968Y-62491347D01*
X138000196Y-62512971D01*
X138008254Y-62535493D01*
X138014066Y-62558697D01*
X138017576Y-62582358D01*
X138018750Y-62606250D01*
X138018750Y-63093750D01*
X138017576Y-63117642D01*
X138014066Y-63141303D01*
X138008254Y-63164507D01*
X138000196Y-63187029D01*
X137989968Y-63208653D01*
X137977671Y-63229170D01*
X137963421Y-63248383D01*
X137947357Y-63266107D01*
X137929633Y-63282171D01*
X137910420Y-63296421D01*
X137889903Y-63308718D01*
X137868279Y-63318946D01*
X137845757Y-63327004D01*
X137822553Y-63332816D01*
X137798892Y-63336326D01*
X137775000Y-63337500D01*
X136862500Y-63337500D01*
X136838608Y-63336326D01*
X136814947Y-63332816D01*
X136791743Y-63327004D01*
X136769221Y-63318946D01*
X136747597Y-63308718D01*
X136727080Y-63296421D01*
X136707867Y-63282171D01*
X136690143Y-63266107D01*
X136674079Y-63248383D01*
X136659829Y-63229170D01*
X136647532Y-63208653D01*
X136637304Y-63187029D01*
X136629246Y-63164507D01*
X136623434Y-63141303D01*
X136619924Y-63117642D01*
X136618750Y-63093750D01*
X136618750Y-62606250D01*
X136619924Y-62582358D01*
X136623434Y-62558697D01*
X136629246Y-62535493D01*
X136637304Y-62512971D01*
X136647532Y-62491347D01*
X136659829Y-62470830D01*
X136674079Y-62451617D01*
X136690143Y-62433893D01*
X136707867Y-62417829D01*
X136727080Y-62403579D01*
X136747597Y-62391282D01*
X136769221Y-62381054D01*
X136791743Y-62372996D01*
X136814947Y-62367184D01*
X136838608Y-62363674D01*
X136862500Y-62362500D01*
X137775000Y-62362500D01*
X137798892Y-62363674D01*
G37*
G36*
X137798892Y-60488674D02*
G01*
X137822553Y-60492184D01*
X137845757Y-60497996D01*
X137868279Y-60506054D01*
X137889903Y-60516282D01*
X137910420Y-60528579D01*
X137929633Y-60542829D01*
X137947357Y-60558893D01*
X137963421Y-60576617D01*
X137977671Y-60595830D01*
X137989968Y-60616347D01*
X138000196Y-60637971D01*
X138008254Y-60660493D01*
X138014066Y-60683697D01*
X138017576Y-60707358D01*
X138018750Y-60731250D01*
X138018750Y-61218750D01*
X138017576Y-61242642D01*
X138014066Y-61266303D01*
X138008254Y-61289507D01*
X138000196Y-61312029D01*
X137989968Y-61333653D01*
X137977671Y-61354170D01*
X137963421Y-61373383D01*
X137947357Y-61391107D01*
X137929633Y-61407171D01*
X137910420Y-61421421D01*
X137889903Y-61433718D01*
X137868279Y-61443946D01*
X137845757Y-61452004D01*
X137822553Y-61457816D01*
X137798892Y-61461326D01*
X137775000Y-61462500D01*
X136862500Y-61462500D01*
X136838608Y-61461326D01*
X136814947Y-61457816D01*
X136791743Y-61452004D01*
X136769221Y-61443946D01*
X136747597Y-61433718D01*
X136727080Y-61421421D01*
X136707867Y-61407171D01*
X136690143Y-61391107D01*
X136674079Y-61373383D01*
X136659829Y-61354170D01*
X136647532Y-61333653D01*
X136637304Y-61312029D01*
X136629246Y-61289507D01*
X136623434Y-61266303D01*
X136619924Y-61242642D01*
X136618750Y-61218750D01*
X136618750Y-60731250D01*
X136619924Y-60707358D01*
X136623434Y-60683697D01*
X136629246Y-60660493D01*
X136637304Y-60637971D01*
X136647532Y-60616347D01*
X136659829Y-60595830D01*
X136674079Y-60576617D01*
X136690143Y-60558893D01*
X136707867Y-60542829D01*
X136727080Y-60528579D01*
X136747597Y-60516282D01*
X136769221Y-60506054D01*
X136791743Y-60497996D01*
X136814947Y-60492184D01*
X136838608Y-60488674D01*
X136862500Y-60487500D01*
X137775000Y-60487500D01*
X137798892Y-60488674D01*
G37*
D11*
X149360417Y-44017424D03*
X147160417Y-44017424D03*
X147160417Y-42317424D03*
X149360417Y-42317424D03*
D12*
X142843750Y-59675000D03*
X143643750Y-59675000D03*
X144443750Y-59675000D03*
X145243750Y-59675000D03*
X146043750Y-59675000D03*
X146843750Y-59675000D03*
X147643750Y-59675000D03*
X148443750Y-59675000D03*
X149243750Y-59675000D03*
X150043750Y-59675000D03*
X150843750Y-59675000D03*
D13*
X152543750Y-57975000D03*
X152543750Y-57175000D03*
X152543750Y-56375000D03*
X152543750Y-55575000D03*
X152543750Y-54775000D03*
X152543750Y-53975000D03*
X152543750Y-53175000D03*
X152543750Y-52375000D03*
X152543750Y-51575000D03*
X152543750Y-50775000D03*
X152543750Y-49975000D03*
D12*
X150843750Y-48275000D03*
X150043750Y-48275000D03*
X149243750Y-48275000D03*
X148443750Y-48275000D03*
X147643750Y-48275000D03*
X146843750Y-48275000D03*
X146043750Y-48275000D03*
X145243750Y-48275000D03*
X144443750Y-48275000D03*
X143643750Y-48275000D03*
X142843750Y-48275000D03*
D13*
X141143750Y-49975000D03*
X141143750Y-50775000D03*
X141143750Y-51575000D03*
X141143750Y-52375000D03*
X141143750Y-53175000D03*
X141143750Y-53975000D03*
X141143750Y-54775000D03*
X141143750Y-55575000D03*
X141143750Y-56375000D03*
X141143750Y-57175000D03*
X141143750Y-57975000D03*
D14*
X143743750Y-15612500D03*
X149943750Y-19312500D03*
X143743750Y-19312500D03*
X149943750Y-15612500D03*
D10*
G36*
X156055142Y-59410924D02*
G01*
X156078803Y-59414434D01*
X156102007Y-59420246D01*
X156124529Y-59428304D01*
X156146153Y-59438532D01*
X156166670Y-59450829D01*
X156185883Y-59465079D01*
X156203607Y-59481143D01*
X156219671Y-59498867D01*
X156233921Y-59518080D01*
X156246218Y-59538597D01*
X156256446Y-59560221D01*
X156264504Y-59582743D01*
X156270316Y-59605947D01*
X156273826Y-59629608D01*
X156275000Y-59653500D01*
X156275000Y-60141000D01*
X156273826Y-60164892D01*
X156270316Y-60188553D01*
X156264504Y-60211757D01*
X156256446Y-60234279D01*
X156246218Y-60255903D01*
X156233921Y-60276420D01*
X156219671Y-60295633D01*
X156203607Y-60313357D01*
X156185883Y-60329421D01*
X156166670Y-60343671D01*
X156146153Y-60355968D01*
X156124529Y-60366196D01*
X156102007Y-60374254D01*
X156078803Y-60380066D01*
X156055142Y-60383576D01*
X156031250Y-60384750D01*
X155118750Y-60384750D01*
X155094858Y-60383576D01*
X155071197Y-60380066D01*
X155047993Y-60374254D01*
X155025471Y-60366196D01*
X155003847Y-60355968D01*
X154983330Y-60343671D01*
X154964117Y-60329421D01*
X154946393Y-60313357D01*
X154930329Y-60295633D01*
X154916079Y-60276420D01*
X154903782Y-60255903D01*
X154893554Y-60234279D01*
X154885496Y-60211757D01*
X154879684Y-60188553D01*
X154876174Y-60164892D01*
X154875000Y-60141000D01*
X154875000Y-59653500D01*
X154876174Y-59629608D01*
X154879684Y-59605947D01*
X154885496Y-59582743D01*
X154893554Y-59560221D01*
X154903782Y-59538597D01*
X154916079Y-59518080D01*
X154930329Y-59498867D01*
X154946393Y-59481143D01*
X154964117Y-59465079D01*
X154983330Y-59450829D01*
X155003847Y-59438532D01*
X155025471Y-59428304D01*
X155047993Y-59420246D01*
X155071197Y-59414434D01*
X155094858Y-59410924D01*
X155118750Y-59409750D01*
X156031250Y-59409750D01*
X156055142Y-59410924D01*
G37*
G36*
X156055142Y-57535924D02*
G01*
X156078803Y-57539434D01*
X156102007Y-57545246D01*
X156124529Y-57553304D01*
X156146153Y-57563532D01*
X156166670Y-57575829D01*
X156185883Y-57590079D01*
X156203607Y-57606143D01*
X156219671Y-57623867D01*
X156233921Y-57643080D01*
X156246218Y-57663597D01*
X156256446Y-57685221D01*
X156264504Y-57707743D01*
X156270316Y-57730947D01*
X156273826Y-57754608D01*
X156275000Y-57778500D01*
X156275000Y-58266000D01*
X156273826Y-58289892D01*
X156270316Y-58313553D01*
X156264504Y-58336757D01*
X156256446Y-58359279D01*
X156246218Y-58380903D01*
X156233921Y-58401420D01*
X156219671Y-58420633D01*
X156203607Y-58438357D01*
X156185883Y-58454421D01*
X156166670Y-58468671D01*
X156146153Y-58480968D01*
X156124529Y-58491196D01*
X156102007Y-58499254D01*
X156078803Y-58505066D01*
X156055142Y-58508576D01*
X156031250Y-58509750D01*
X155118750Y-58509750D01*
X155094858Y-58508576D01*
X155071197Y-58505066D01*
X155047993Y-58499254D01*
X155025471Y-58491196D01*
X155003847Y-58480968D01*
X154983330Y-58468671D01*
X154964117Y-58454421D01*
X154946393Y-58438357D01*
X154930329Y-58420633D01*
X154916079Y-58401420D01*
X154903782Y-58380903D01*
X154893554Y-58359279D01*
X154885496Y-58336757D01*
X154879684Y-58313553D01*
X154876174Y-58289892D01*
X154875000Y-58266000D01*
X154875000Y-57778500D01*
X154876174Y-57754608D01*
X154879684Y-57730947D01*
X154885496Y-57707743D01*
X154893554Y-57685221D01*
X154903782Y-57663597D01*
X154916079Y-57643080D01*
X154930329Y-57623867D01*
X154946393Y-57606143D01*
X154964117Y-57590079D01*
X154983330Y-57575829D01*
X155003847Y-57563532D01*
X155025471Y-57553304D01*
X155047993Y-57545246D01*
X155071197Y-57539434D01*
X155094858Y-57535924D01*
X155118750Y-57534750D01*
X156031250Y-57534750D01*
X156055142Y-57535924D01*
G37*
G36*
X93221892Y-21086924D02*
G01*
X93245553Y-21090434D01*
X93268757Y-21096246D01*
X93291279Y-21104304D01*
X93312903Y-21114532D01*
X93333420Y-21126829D01*
X93352633Y-21141079D01*
X93370357Y-21157143D01*
X93386421Y-21174867D01*
X93400671Y-21194080D01*
X93412968Y-21214597D01*
X93423196Y-21236221D01*
X93431254Y-21258743D01*
X93437066Y-21281947D01*
X93440576Y-21305608D01*
X93441750Y-21329500D01*
X93441750Y-21817000D01*
X93440576Y-21840892D01*
X93437066Y-21864553D01*
X93431254Y-21887757D01*
X93423196Y-21910279D01*
X93412968Y-21931903D01*
X93400671Y-21952420D01*
X93386421Y-21971633D01*
X93370357Y-21989357D01*
X93352633Y-22005421D01*
X93333420Y-22019671D01*
X93312903Y-22031968D01*
X93291279Y-22042196D01*
X93268757Y-22050254D01*
X93245553Y-22056066D01*
X93221892Y-22059576D01*
X93198000Y-22060750D01*
X92285500Y-22060750D01*
X92261608Y-22059576D01*
X92237947Y-22056066D01*
X92214743Y-22050254D01*
X92192221Y-22042196D01*
X92170597Y-22031968D01*
X92150080Y-22019671D01*
X92130867Y-22005421D01*
X92113143Y-21989357D01*
X92097079Y-21971633D01*
X92082829Y-21952420D01*
X92070532Y-21931903D01*
X92060304Y-21910279D01*
X92052246Y-21887757D01*
X92046434Y-21864553D01*
X92042924Y-21840892D01*
X92041750Y-21817000D01*
X92041750Y-21329500D01*
X92042924Y-21305608D01*
X92046434Y-21281947D01*
X92052246Y-21258743D01*
X92060304Y-21236221D01*
X92070532Y-21214597D01*
X92082829Y-21194080D01*
X92097079Y-21174867D01*
X92113143Y-21157143D01*
X92130867Y-21141079D01*
X92150080Y-21126829D01*
X92170597Y-21114532D01*
X92192221Y-21104304D01*
X92214743Y-21096246D01*
X92237947Y-21090434D01*
X92261608Y-21086924D01*
X92285500Y-21085750D01*
X93198000Y-21085750D01*
X93221892Y-21086924D01*
G37*
G36*
X93221892Y-22961924D02*
G01*
X93245553Y-22965434D01*
X93268757Y-22971246D01*
X93291279Y-22979304D01*
X93312903Y-22989532D01*
X93333420Y-23001829D01*
X93352633Y-23016079D01*
X93370357Y-23032143D01*
X93386421Y-23049867D01*
X93400671Y-23069080D01*
X93412968Y-23089597D01*
X93423196Y-23111221D01*
X93431254Y-23133743D01*
X93437066Y-23156947D01*
X93440576Y-23180608D01*
X93441750Y-23204500D01*
X93441750Y-23692000D01*
X93440576Y-23715892D01*
X93437066Y-23739553D01*
X93431254Y-23762757D01*
X93423196Y-23785279D01*
X93412968Y-23806903D01*
X93400671Y-23827420D01*
X93386421Y-23846633D01*
X93370357Y-23864357D01*
X93352633Y-23880421D01*
X93333420Y-23894671D01*
X93312903Y-23906968D01*
X93291279Y-23917196D01*
X93268757Y-23925254D01*
X93245553Y-23931066D01*
X93221892Y-23934576D01*
X93198000Y-23935750D01*
X92285500Y-23935750D01*
X92261608Y-23934576D01*
X92237947Y-23931066D01*
X92214743Y-23925254D01*
X92192221Y-23917196D01*
X92170597Y-23906968D01*
X92150080Y-23894671D01*
X92130867Y-23880421D01*
X92113143Y-23864357D01*
X92097079Y-23846633D01*
X92082829Y-23827420D01*
X92070532Y-23806903D01*
X92060304Y-23785279D01*
X92052246Y-23762757D01*
X92046434Y-23739553D01*
X92042924Y-23715892D01*
X92041750Y-23692000D01*
X92041750Y-23204500D01*
X92042924Y-23180608D01*
X92046434Y-23156947D01*
X92052246Y-23133743D01*
X92060304Y-23111221D01*
X92070532Y-23089597D01*
X92082829Y-23069080D01*
X92097079Y-23049867D01*
X92113143Y-23032143D01*
X92130867Y-23016079D01*
X92150080Y-23001829D01*
X92170597Y-22989532D01*
X92192221Y-22979304D01*
X92214743Y-22971246D01*
X92237947Y-22965434D01*
X92261608Y-22961924D01*
X92285500Y-22960750D01*
X93198000Y-22960750D01*
X93221892Y-22961924D01*
G37*
G36*
X87125892Y-21086924D02*
G01*
X87149553Y-21090434D01*
X87172757Y-21096246D01*
X87195279Y-21104304D01*
X87216903Y-21114532D01*
X87237420Y-21126829D01*
X87256633Y-21141079D01*
X87274357Y-21157143D01*
X87290421Y-21174867D01*
X87304671Y-21194080D01*
X87316968Y-21214597D01*
X87327196Y-21236221D01*
X87335254Y-21258743D01*
X87341066Y-21281947D01*
X87344576Y-21305608D01*
X87345750Y-21329500D01*
X87345750Y-21817000D01*
X87344576Y-21840892D01*
X87341066Y-21864553D01*
X87335254Y-21887757D01*
X87327196Y-21910279D01*
X87316968Y-21931903D01*
X87304671Y-21952420D01*
X87290421Y-21971633D01*
X87274357Y-21989357D01*
X87256633Y-22005421D01*
X87237420Y-22019671D01*
X87216903Y-22031968D01*
X87195279Y-22042196D01*
X87172757Y-22050254D01*
X87149553Y-22056066D01*
X87125892Y-22059576D01*
X87102000Y-22060750D01*
X86189500Y-22060750D01*
X86165608Y-22059576D01*
X86141947Y-22056066D01*
X86118743Y-22050254D01*
X86096221Y-22042196D01*
X86074597Y-22031968D01*
X86054080Y-22019671D01*
X86034867Y-22005421D01*
X86017143Y-21989357D01*
X86001079Y-21971633D01*
X85986829Y-21952420D01*
X85974532Y-21931903D01*
X85964304Y-21910279D01*
X85956246Y-21887757D01*
X85950434Y-21864553D01*
X85946924Y-21840892D01*
X85945750Y-21817000D01*
X85945750Y-21329500D01*
X85946924Y-21305608D01*
X85950434Y-21281947D01*
X85956246Y-21258743D01*
X85964304Y-21236221D01*
X85974532Y-21214597D01*
X85986829Y-21194080D01*
X86001079Y-21174867D01*
X86017143Y-21157143D01*
X86034867Y-21141079D01*
X86054080Y-21126829D01*
X86074597Y-21114532D01*
X86096221Y-21104304D01*
X86118743Y-21096246D01*
X86141947Y-21090434D01*
X86165608Y-21086924D01*
X86189500Y-21085750D01*
X87102000Y-21085750D01*
X87125892Y-21086924D01*
G37*
G36*
X87125892Y-22961924D02*
G01*
X87149553Y-22965434D01*
X87172757Y-22971246D01*
X87195279Y-22979304D01*
X87216903Y-22989532D01*
X87237420Y-23001829D01*
X87256633Y-23016079D01*
X87274357Y-23032143D01*
X87290421Y-23049867D01*
X87304671Y-23069080D01*
X87316968Y-23089597D01*
X87327196Y-23111221D01*
X87335254Y-23133743D01*
X87341066Y-23156947D01*
X87344576Y-23180608D01*
X87345750Y-23204500D01*
X87345750Y-23692000D01*
X87344576Y-23715892D01*
X87341066Y-23739553D01*
X87335254Y-23762757D01*
X87327196Y-23785279D01*
X87316968Y-23806903D01*
X87304671Y-23827420D01*
X87290421Y-23846633D01*
X87274357Y-23864357D01*
X87256633Y-23880421D01*
X87237420Y-23894671D01*
X87216903Y-23906968D01*
X87195279Y-23917196D01*
X87172757Y-23925254D01*
X87149553Y-23931066D01*
X87125892Y-23934576D01*
X87102000Y-23935750D01*
X86189500Y-23935750D01*
X86165608Y-23934576D01*
X86141947Y-23931066D01*
X86118743Y-23925254D01*
X86096221Y-23917196D01*
X86074597Y-23906968D01*
X86054080Y-23894671D01*
X86034867Y-23880421D01*
X86017143Y-23864357D01*
X86001079Y-23846633D01*
X85986829Y-23827420D01*
X85974532Y-23806903D01*
X85964304Y-23785279D01*
X85956246Y-23762757D01*
X85950434Y-23739553D01*
X85946924Y-23715892D01*
X85945750Y-23692000D01*
X85945750Y-23204500D01*
X85946924Y-23180608D01*
X85950434Y-23156947D01*
X85956246Y-23133743D01*
X85964304Y-23111221D01*
X85974532Y-23089597D01*
X85986829Y-23069080D01*
X86001079Y-23049867D01*
X86017143Y-23032143D01*
X86034867Y-23016079D01*
X86054080Y-23001829D01*
X86074597Y-22989532D01*
X86096221Y-22979304D01*
X86118743Y-22971246D01*
X86141947Y-22965434D01*
X86165608Y-22961924D01*
X86189500Y-22960750D01*
X87102000Y-22960750D01*
X87125892Y-22961924D01*
G37*
G36*
X139735642Y-42772174D02*
G01*
X139759303Y-42775684D01*
X139782507Y-42781496D01*
X139805029Y-42789554D01*
X139826653Y-42799782D01*
X139847170Y-42812079D01*
X139866383Y-42826329D01*
X139884107Y-42842393D01*
X139900171Y-42860117D01*
X139914421Y-42879330D01*
X139926718Y-42899847D01*
X139936946Y-42921471D01*
X139945004Y-42943993D01*
X139950816Y-42967197D01*
X139954326Y-42990858D01*
X139955500Y-43014750D01*
X139955500Y-43502250D01*
X139954326Y-43526142D01*
X139950816Y-43549803D01*
X139945004Y-43573007D01*
X139936946Y-43595529D01*
X139926718Y-43617153D01*
X139914421Y-43637670D01*
X139900171Y-43656883D01*
X139884107Y-43674607D01*
X139866383Y-43690671D01*
X139847170Y-43704921D01*
X139826653Y-43717218D01*
X139805029Y-43727446D01*
X139782507Y-43735504D01*
X139759303Y-43741316D01*
X139735642Y-43744826D01*
X139711750Y-43746000D01*
X138799250Y-43746000D01*
X138775358Y-43744826D01*
X138751697Y-43741316D01*
X138728493Y-43735504D01*
X138705971Y-43727446D01*
X138684347Y-43717218D01*
X138663830Y-43704921D01*
X138644617Y-43690671D01*
X138626893Y-43674607D01*
X138610829Y-43656883D01*
X138596579Y-43637670D01*
X138584282Y-43617153D01*
X138574054Y-43595529D01*
X138565996Y-43573007D01*
X138560184Y-43549803D01*
X138556674Y-43526142D01*
X138555500Y-43502250D01*
X138555500Y-43014750D01*
X138556674Y-42990858D01*
X138560184Y-42967197D01*
X138565996Y-42943993D01*
X138574054Y-42921471D01*
X138584282Y-42899847D01*
X138596579Y-42879330D01*
X138610829Y-42860117D01*
X138626893Y-42842393D01*
X138644617Y-42826329D01*
X138663830Y-42812079D01*
X138684347Y-42799782D01*
X138705971Y-42789554D01*
X138728493Y-42781496D01*
X138751697Y-42775684D01*
X138775358Y-42772174D01*
X138799250Y-42771000D01*
X139711750Y-42771000D01*
X139735642Y-42772174D01*
G37*
G36*
X139735642Y-44647174D02*
G01*
X139759303Y-44650684D01*
X139782507Y-44656496D01*
X139805029Y-44664554D01*
X139826653Y-44674782D01*
X139847170Y-44687079D01*
X139866383Y-44701329D01*
X139884107Y-44717393D01*
X139900171Y-44735117D01*
X139914421Y-44754330D01*
X139926718Y-44774847D01*
X139936946Y-44796471D01*
X139945004Y-44818993D01*
X139950816Y-44842197D01*
X139954326Y-44865858D01*
X139955500Y-44889750D01*
X139955500Y-45377250D01*
X139954326Y-45401142D01*
X139950816Y-45424803D01*
X139945004Y-45448007D01*
X139936946Y-45470529D01*
X139926718Y-45492153D01*
X139914421Y-45512670D01*
X139900171Y-45531883D01*
X139884107Y-45549607D01*
X139866383Y-45565671D01*
X139847170Y-45579921D01*
X139826653Y-45592218D01*
X139805029Y-45602446D01*
X139782507Y-45610504D01*
X139759303Y-45616316D01*
X139735642Y-45619826D01*
X139711750Y-45621000D01*
X138799250Y-45621000D01*
X138775358Y-45619826D01*
X138751697Y-45616316D01*
X138728493Y-45610504D01*
X138705971Y-45602446D01*
X138684347Y-45592218D01*
X138663830Y-45579921D01*
X138644617Y-45565671D01*
X138626893Y-45549607D01*
X138610829Y-45531883D01*
X138596579Y-45512670D01*
X138584282Y-45492153D01*
X138574054Y-45470529D01*
X138565996Y-45448007D01*
X138560184Y-45424803D01*
X138556674Y-45401142D01*
X138555500Y-45377250D01*
X138555500Y-44889750D01*
X138556674Y-44865858D01*
X138560184Y-44842197D01*
X138565996Y-44818993D01*
X138574054Y-44796471D01*
X138584282Y-44774847D01*
X138596579Y-44754330D01*
X138610829Y-44735117D01*
X138626893Y-44717393D01*
X138644617Y-44701329D01*
X138663830Y-44687079D01*
X138684347Y-44674782D01*
X138705971Y-44664554D01*
X138728493Y-44656496D01*
X138751697Y-44650684D01*
X138775358Y-44647174D01*
X138799250Y-44646000D01*
X139711750Y-44646000D01*
X139735642Y-44647174D01*
G37*
G36*
X89189642Y-22993674D02*
G01*
X89213303Y-22997184D01*
X89236507Y-23002996D01*
X89259029Y-23011054D01*
X89280653Y-23021282D01*
X89301170Y-23033579D01*
X89320383Y-23047829D01*
X89338107Y-23063893D01*
X89354171Y-23081617D01*
X89368421Y-23100830D01*
X89380718Y-23121347D01*
X89390946Y-23142971D01*
X89399004Y-23165493D01*
X89404816Y-23188697D01*
X89408326Y-23212358D01*
X89409500Y-23236250D01*
X89409500Y-23723750D01*
X89408326Y-23747642D01*
X89404816Y-23771303D01*
X89399004Y-23794507D01*
X89390946Y-23817029D01*
X89380718Y-23838653D01*
X89368421Y-23859170D01*
X89354171Y-23878383D01*
X89338107Y-23896107D01*
X89320383Y-23912171D01*
X89301170Y-23926421D01*
X89280653Y-23938718D01*
X89259029Y-23948946D01*
X89236507Y-23957004D01*
X89213303Y-23962816D01*
X89189642Y-23966326D01*
X89165750Y-23967500D01*
X88253250Y-23967500D01*
X88229358Y-23966326D01*
X88205697Y-23962816D01*
X88182493Y-23957004D01*
X88159971Y-23948946D01*
X88138347Y-23938718D01*
X88117830Y-23926421D01*
X88098617Y-23912171D01*
X88080893Y-23896107D01*
X88064829Y-23878383D01*
X88050579Y-23859170D01*
X88038282Y-23838653D01*
X88028054Y-23817029D01*
X88019996Y-23794507D01*
X88014184Y-23771303D01*
X88010674Y-23747642D01*
X88009500Y-23723750D01*
X88009500Y-23236250D01*
X88010674Y-23212358D01*
X88014184Y-23188697D01*
X88019996Y-23165493D01*
X88028054Y-23142971D01*
X88038282Y-23121347D01*
X88050579Y-23100830D01*
X88064829Y-23081617D01*
X88080893Y-23063893D01*
X88098617Y-23047829D01*
X88117830Y-23033579D01*
X88138347Y-23021282D01*
X88159971Y-23011054D01*
X88182493Y-23002996D01*
X88205697Y-22997184D01*
X88229358Y-22993674D01*
X88253250Y-22992500D01*
X89165750Y-22992500D01*
X89189642Y-22993674D01*
G37*
G36*
X89189642Y-21118674D02*
G01*
X89213303Y-21122184D01*
X89236507Y-21127996D01*
X89259029Y-21136054D01*
X89280653Y-21146282D01*
X89301170Y-21158579D01*
X89320383Y-21172829D01*
X89338107Y-21188893D01*
X89354171Y-21206617D01*
X89368421Y-21225830D01*
X89380718Y-21246347D01*
X89390946Y-21267971D01*
X89399004Y-21290493D01*
X89404816Y-21313697D01*
X89408326Y-21337358D01*
X89409500Y-21361250D01*
X89409500Y-21848750D01*
X89408326Y-21872642D01*
X89404816Y-21896303D01*
X89399004Y-21919507D01*
X89390946Y-21942029D01*
X89380718Y-21963653D01*
X89368421Y-21984170D01*
X89354171Y-22003383D01*
X89338107Y-22021107D01*
X89320383Y-22037171D01*
X89301170Y-22051421D01*
X89280653Y-22063718D01*
X89259029Y-22073946D01*
X89236507Y-22082004D01*
X89213303Y-22087816D01*
X89189642Y-22091326D01*
X89165750Y-22092500D01*
X88253250Y-22092500D01*
X88229358Y-22091326D01*
X88205697Y-22087816D01*
X88182493Y-22082004D01*
X88159971Y-22073946D01*
X88138347Y-22063718D01*
X88117830Y-22051421D01*
X88098617Y-22037171D01*
X88080893Y-22021107D01*
X88064829Y-22003383D01*
X88050579Y-21984170D01*
X88038282Y-21963653D01*
X88028054Y-21942029D01*
X88019996Y-21919507D01*
X88014184Y-21896303D01*
X88010674Y-21872642D01*
X88009500Y-21848750D01*
X88009500Y-21361250D01*
X88010674Y-21337358D01*
X88014184Y-21313697D01*
X88019996Y-21290493D01*
X88028054Y-21267971D01*
X88038282Y-21246347D01*
X88050579Y-21225830D01*
X88064829Y-21206617D01*
X88080893Y-21188893D01*
X88098617Y-21172829D01*
X88117830Y-21158579D01*
X88138347Y-21146282D01*
X88159971Y-21136054D01*
X88182493Y-21127996D01*
X88205697Y-21122184D01*
X88229358Y-21118674D01*
X88253250Y-21117500D01*
X89165750Y-21117500D01*
X89189642Y-21118674D01*
G37*
G36*
X91221642Y-22993674D02*
G01*
X91245303Y-22997184D01*
X91268507Y-23002996D01*
X91291029Y-23011054D01*
X91312653Y-23021282D01*
X91333170Y-23033579D01*
X91352383Y-23047829D01*
X91370107Y-23063893D01*
X91386171Y-23081617D01*
X91400421Y-23100830D01*
X91412718Y-23121347D01*
X91422946Y-23142971D01*
X91431004Y-23165493D01*
X91436816Y-23188697D01*
X91440326Y-23212358D01*
X91441500Y-23236250D01*
X91441500Y-23723750D01*
X91440326Y-23747642D01*
X91436816Y-23771303D01*
X91431004Y-23794507D01*
X91422946Y-23817029D01*
X91412718Y-23838653D01*
X91400421Y-23859170D01*
X91386171Y-23878383D01*
X91370107Y-23896107D01*
X91352383Y-23912171D01*
X91333170Y-23926421D01*
X91312653Y-23938718D01*
X91291029Y-23948946D01*
X91268507Y-23957004D01*
X91245303Y-23962816D01*
X91221642Y-23966326D01*
X91197750Y-23967500D01*
X90285250Y-23967500D01*
X90261358Y-23966326D01*
X90237697Y-23962816D01*
X90214493Y-23957004D01*
X90191971Y-23948946D01*
X90170347Y-23938718D01*
X90149830Y-23926421D01*
X90130617Y-23912171D01*
X90112893Y-23896107D01*
X90096829Y-23878383D01*
X90082579Y-23859170D01*
X90070282Y-23838653D01*
X90060054Y-23817029D01*
X90051996Y-23794507D01*
X90046184Y-23771303D01*
X90042674Y-23747642D01*
X90041500Y-23723750D01*
X90041500Y-23236250D01*
X90042674Y-23212358D01*
X90046184Y-23188697D01*
X90051996Y-23165493D01*
X90060054Y-23142971D01*
X90070282Y-23121347D01*
X90082579Y-23100830D01*
X90096829Y-23081617D01*
X90112893Y-23063893D01*
X90130617Y-23047829D01*
X90149830Y-23033579D01*
X90170347Y-23021282D01*
X90191971Y-23011054D01*
X90214493Y-23002996D01*
X90237697Y-22997184D01*
X90261358Y-22993674D01*
X90285250Y-22992500D01*
X91197750Y-22992500D01*
X91221642Y-22993674D01*
G37*
G36*
X91221642Y-21118674D02*
G01*
X91245303Y-21122184D01*
X91268507Y-21127996D01*
X91291029Y-21136054D01*
X91312653Y-21146282D01*
X91333170Y-21158579D01*
X91352383Y-21172829D01*
X91370107Y-21188893D01*
X91386171Y-21206617D01*
X91400421Y-21225830D01*
X91412718Y-21246347D01*
X91422946Y-21267971D01*
X91431004Y-21290493D01*
X91436816Y-21313697D01*
X91440326Y-21337358D01*
X91441500Y-21361250D01*
X91441500Y-21848750D01*
X91440326Y-21872642D01*
X91436816Y-21896303D01*
X91431004Y-21919507D01*
X91422946Y-21942029D01*
X91412718Y-21963653D01*
X91400421Y-21984170D01*
X91386171Y-22003383D01*
X91370107Y-22021107D01*
X91352383Y-22037171D01*
X91333170Y-22051421D01*
X91312653Y-22063718D01*
X91291029Y-22073946D01*
X91268507Y-22082004D01*
X91245303Y-22087816D01*
X91221642Y-22091326D01*
X91197750Y-22092500D01*
X90285250Y-22092500D01*
X90261358Y-22091326D01*
X90237697Y-22087816D01*
X90214493Y-22082004D01*
X90191971Y-22073946D01*
X90170347Y-22063718D01*
X90149830Y-22051421D01*
X90130617Y-22037171D01*
X90112893Y-22021107D01*
X90096829Y-22003383D01*
X90082579Y-21984170D01*
X90070282Y-21963653D01*
X90060054Y-21942029D01*
X90051996Y-21919507D01*
X90046184Y-21896303D01*
X90042674Y-21872642D01*
X90041500Y-21848750D01*
X90041500Y-21361250D01*
X90042674Y-21337358D01*
X90046184Y-21313697D01*
X90051996Y-21290493D01*
X90060054Y-21267971D01*
X90070282Y-21246347D01*
X90082579Y-21225830D01*
X90096829Y-21206617D01*
X90112893Y-21188893D01*
X90130617Y-21172829D01*
X90149830Y-21158579D01*
X90170347Y-21146282D01*
X90191971Y-21136054D01*
X90214493Y-21127996D01*
X90237697Y-21122184D01*
X90261358Y-21118674D01*
X90285250Y-21117500D01*
X91197750Y-21117500D01*
X91221642Y-21118674D01*
G37*
G36*
X99741254Y-20994954D02*
G01*
X99765523Y-20998554D01*
X99789321Y-21004515D01*
X99812421Y-21012780D01*
X99834599Y-21023270D01*
X99855643Y-21035883D01*
X99875348Y-21050497D01*
X99893527Y-21066973D01*
X99910003Y-21085152D01*
X99924617Y-21104857D01*
X99937230Y-21125901D01*
X99947720Y-21148079D01*
X99955985Y-21171179D01*
X99961946Y-21194977D01*
X99965546Y-21219246D01*
X99966750Y-21243750D01*
X99966750Y-21993750D01*
X99965546Y-22018254D01*
X99961946Y-22042523D01*
X99955985Y-22066321D01*
X99947720Y-22089421D01*
X99937230Y-22111599D01*
X99924617Y-22132643D01*
X99910003Y-22152348D01*
X99893527Y-22170527D01*
X99875348Y-22187003D01*
X99855643Y-22201617D01*
X99834599Y-22214230D01*
X99812421Y-22224720D01*
X99789321Y-22232985D01*
X99765523Y-22238946D01*
X99741254Y-22242546D01*
X99716750Y-22243750D01*
X98466750Y-22243750D01*
X98442246Y-22242546D01*
X98417977Y-22238946D01*
X98394179Y-22232985D01*
X98371079Y-22224720D01*
X98348901Y-22214230D01*
X98327857Y-22201617D01*
X98308152Y-22187003D01*
X98289973Y-22170527D01*
X98273497Y-22152348D01*
X98258883Y-22132643D01*
X98246270Y-22111599D01*
X98235780Y-22089421D01*
X98227515Y-22066321D01*
X98221554Y-22042523D01*
X98217954Y-22018254D01*
X98216750Y-21993750D01*
X98216750Y-21243750D01*
X98217954Y-21219246D01*
X98221554Y-21194977D01*
X98227515Y-21171179D01*
X98235780Y-21148079D01*
X98246270Y-21125901D01*
X98258883Y-21104857D01*
X98273497Y-21085152D01*
X98289973Y-21066973D01*
X98308152Y-21050497D01*
X98327857Y-21035883D01*
X98348901Y-21023270D01*
X98371079Y-21012780D01*
X98394179Y-21004515D01*
X98417977Y-20998554D01*
X98442246Y-20994954D01*
X98466750Y-20993750D01*
X99716750Y-20993750D01*
X99741254Y-20994954D01*
G37*
G36*
X99741254Y-23794954D02*
G01*
X99765523Y-23798554D01*
X99789321Y-23804515D01*
X99812421Y-23812780D01*
X99834599Y-23823270D01*
X99855643Y-23835883D01*
X99875348Y-23850497D01*
X99893527Y-23866973D01*
X99910003Y-23885152D01*
X99924617Y-23904857D01*
X99937230Y-23925901D01*
X99947720Y-23948079D01*
X99955985Y-23971179D01*
X99961946Y-23994977D01*
X99965546Y-24019246D01*
X99966750Y-24043750D01*
X99966750Y-24793750D01*
X99965546Y-24818254D01*
X99961946Y-24842523D01*
X99955985Y-24866321D01*
X99947720Y-24889421D01*
X99937230Y-24911599D01*
X99924617Y-24932643D01*
X99910003Y-24952348D01*
X99893527Y-24970527D01*
X99875348Y-24987003D01*
X99855643Y-25001617D01*
X99834599Y-25014230D01*
X99812421Y-25024720D01*
X99789321Y-25032985D01*
X99765523Y-25038946D01*
X99741254Y-25042546D01*
X99716750Y-25043750D01*
X98466750Y-25043750D01*
X98442246Y-25042546D01*
X98417977Y-25038946D01*
X98394179Y-25032985D01*
X98371079Y-25024720D01*
X98348901Y-25014230D01*
X98327857Y-25001617D01*
X98308152Y-24987003D01*
X98289973Y-24970527D01*
X98273497Y-24952348D01*
X98258883Y-24932643D01*
X98246270Y-24911599D01*
X98235780Y-24889421D01*
X98227515Y-24866321D01*
X98221554Y-24842523D01*
X98217954Y-24818254D01*
X98216750Y-24793750D01*
X98216750Y-24043750D01*
X98217954Y-24019246D01*
X98221554Y-23994977D01*
X98227515Y-23971179D01*
X98235780Y-23948079D01*
X98246270Y-23925901D01*
X98258883Y-23904857D01*
X98273497Y-23885152D01*
X98289973Y-23866973D01*
X98308152Y-23850497D01*
X98327857Y-23835883D01*
X98348901Y-23823270D01*
X98371079Y-23812780D01*
X98394179Y-23804515D01*
X98417977Y-23798554D01*
X98442246Y-23794954D01*
X98466750Y-23793750D01*
X99716750Y-23793750D01*
X99741254Y-23794954D01*
G37*
D15*
X134937500Y-72106250D03*
X134937500Y-75406250D03*
X80168750Y-110268750D03*
X80168750Y-113568750D03*
X61118750Y-110268750D03*
X61118750Y-113568750D03*
X42068750Y-110268750D03*
X42068750Y-113568750D03*
X99218750Y-91218750D03*
X99218750Y-94518750D03*
X80168750Y-91218750D03*
X80168750Y-94518750D03*
X61118750Y-91218750D03*
X61118750Y-94518750D03*
X42068750Y-91218750D03*
X42068750Y-94518750D03*
X118268750Y-72168750D03*
X118268750Y-75468750D03*
X99218750Y-72168750D03*
X99218750Y-75468750D03*
X80168750Y-72168750D03*
X80168750Y-75468750D03*
X61118750Y-72168750D03*
X61118750Y-75468750D03*
X42068750Y-72168750D03*
X42068750Y-75468750D03*
X136525000Y-53372750D03*
X136525000Y-56672750D03*
X117475000Y-53118750D03*
X117475000Y-56418750D03*
X99218750Y-53118750D03*
X99218750Y-56418750D03*
X80168750Y-53118750D03*
X80168750Y-56418750D03*
X61118750Y-53118750D03*
X61118750Y-56418750D03*
X42068750Y-53118750D03*
X42068750Y-56418750D03*
X156368750Y-34006250D03*
X156368750Y-37306250D03*
X137318750Y-34068750D03*
X137318750Y-37368750D03*
X118268750Y-34006250D03*
X118268750Y-37306250D03*
X99218750Y-34068750D03*
X99218750Y-37368750D03*
X80168750Y-34068750D03*
X80168750Y-37368750D03*
X61118750Y-34068750D03*
X61118750Y-37368750D03*
X42068750Y-34068750D03*
X42068750Y-37368750D03*
D10*
G36*
X142910642Y-44647174D02*
G01*
X142934303Y-44650684D01*
X142957507Y-44656496D01*
X142980029Y-44664554D01*
X143001653Y-44674782D01*
X143022170Y-44687079D01*
X143041383Y-44701329D01*
X143059107Y-44717393D01*
X143075171Y-44735117D01*
X143089421Y-44754330D01*
X143101718Y-44774847D01*
X143111946Y-44796471D01*
X143120004Y-44818993D01*
X143125816Y-44842197D01*
X143129326Y-44865858D01*
X143130500Y-44889750D01*
X143130500Y-45377250D01*
X143129326Y-45401142D01*
X143125816Y-45424803D01*
X143120004Y-45448007D01*
X143111946Y-45470529D01*
X143101718Y-45492153D01*
X143089421Y-45512670D01*
X143075171Y-45531883D01*
X143059107Y-45549607D01*
X143041383Y-45565671D01*
X143022170Y-45579921D01*
X143001653Y-45592218D01*
X142980029Y-45602446D01*
X142957507Y-45610504D01*
X142934303Y-45616316D01*
X142910642Y-45619826D01*
X142886750Y-45621000D01*
X141974250Y-45621000D01*
X141950358Y-45619826D01*
X141926697Y-45616316D01*
X141903493Y-45610504D01*
X141880971Y-45602446D01*
X141859347Y-45592218D01*
X141838830Y-45579921D01*
X141819617Y-45565671D01*
X141801893Y-45549607D01*
X141785829Y-45531883D01*
X141771579Y-45512670D01*
X141759282Y-45492153D01*
X141749054Y-45470529D01*
X141740996Y-45448007D01*
X141735184Y-45424803D01*
X141731674Y-45401142D01*
X141730500Y-45377250D01*
X141730500Y-44889750D01*
X141731674Y-44865858D01*
X141735184Y-44842197D01*
X141740996Y-44818993D01*
X141749054Y-44796471D01*
X141759282Y-44774847D01*
X141771579Y-44754330D01*
X141785829Y-44735117D01*
X141801893Y-44717393D01*
X141819617Y-44701329D01*
X141838830Y-44687079D01*
X141859347Y-44674782D01*
X141880971Y-44664554D01*
X141903493Y-44656496D01*
X141926697Y-44650684D01*
X141950358Y-44647174D01*
X141974250Y-44646000D01*
X142886750Y-44646000D01*
X142910642Y-44647174D01*
G37*
G36*
X142910642Y-42772174D02*
G01*
X142934303Y-42775684D01*
X142957507Y-42781496D01*
X142980029Y-42789554D01*
X143001653Y-42799782D01*
X143022170Y-42812079D01*
X143041383Y-42826329D01*
X143059107Y-42842393D01*
X143075171Y-42860117D01*
X143089421Y-42879330D01*
X143101718Y-42899847D01*
X143111946Y-42921471D01*
X143120004Y-42943993D01*
X143125816Y-42967197D01*
X143129326Y-42990858D01*
X143130500Y-43014750D01*
X143130500Y-43502250D01*
X143129326Y-43526142D01*
X143125816Y-43549803D01*
X143120004Y-43573007D01*
X143111946Y-43595529D01*
X143101718Y-43617153D01*
X143089421Y-43637670D01*
X143075171Y-43656883D01*
X143059107Y-43674607D01*
X143041383Y-43690671D01*
X143022170Y-43704921D01*
X143001653Y-43717218D01*
X142980029Y-43727446D01*
X142957507Y-43735504D01*
X142934303Y-43741316D01*
X142910642Y-43744826D01*
X142886750Y-43746000D01*
X141974250Y-43746000D01*
X141950358Y-43744826D01*
X141926697Y-43741316D01*
X141903493Y-43735504D01*
X141880971Y-43727446D01*
X141859347Y-43717218D01*
X141838830Y-43704921D01*
X141819617Y-43690671D01*
X141801893Y-43674607D01*
X141785829Y-43656883D01*
X141771579Y-43637670D01*
X141759282Y-43617153D01*
X141749054Y-43595529D01*
X141740996Y-43573007D01*
X141735184Y-43549803D01*
X141731674Y-43526142D01*
X141730500Y-43502250D01*
X141730500Y-43014750D01*
X141731674Y-42990858D01*
X141735184Y-42967197D01*
X141740996Y-42943993D01*
X141749054Y-42921471D01*
X141759282Y-42899847D01*
X141771579Y-42879330D01*
X141785829Y-42860117D01*
X141801893Y-42842393D01*
X141819617Y-42826329D01*
X141838830Y-42812079D01*
X141859347Y-42799782D01*
X141880971Y-42789554D01*
X141903493Y-42781496D01*
X141926697Y-42775684D01*
X141950358Y-42772174D01*
X141974250Y-42771000D01*
X142886750Y-42771000D01*
X142910642Y-42772174D01*
G37*
G36*
X152017642Y-62007424D02*
G01*
X152041303Y-62010934D01*
X152064507Y-62016746D01*
X152087029Y-62024804D01*
X152108653Y-62035032D01*
X152129170Y-62047329D01*
X152148383Y-62061579D01*
X152166107Y-62077643D01*
X152182171Y-62095367D01*
X152196421Y-62114580D01*
X152208718Y-62135097D01*
X152218946Y-62156721D01*
X152227004Y-62179243D01*
X152232816Y-62202447D01*
X152236326Y-62226108D01*
X152237500Y-62250000D01*
X152237500Y-63162500D01*
X152236326Y-63186392D01*
X152232816Y-63210053D01*
X152227004Y-63233257D01*
X152218946Y-63255779D01*
X152208718Y-63277403D01*
X152196421Y-63297920D01*
X152182171Y-63317133D01*
X152166107Y-63334857D01*
X152148383Y-63350921D01*
X152129170Y-63365171D01*
X152108653Y-63377468D01*
X152087029Y-63387696D01*
X152064507Y-63395754D01*
X152041303Y-63401566D01*
X152017642Y-63405076D01*
X151993750Y-63406250D01*
X151506250Y-63406250D01*
X151482358Y-63405076D01*
X151458697Y-63401566D01*
X151435493Y-63395754D01*
X151412971Y-63387696D01*
X151391347Y-63377468D01*
X151370830Y-63365171D01*
X151351617Y-63350921D01*
X151333893Y-63334857D01*
X151317829Y-63317133D01*
X151303579Y-63297920D01*
X151291282Y-63277403D01*
X151281054Y-63255779D01*
X151272996Y-63233257D01*
X151267184Y-63210053D01*
X151263674Y-63186392D01*
X151262500Y-63162500D01*
X151262500Y-62250000D01*
X151263674Y-62226108D01*
X151267184Y-62202447D01*
X151272996Y-62179243D01*
X151281054Y-62156721D01*
X151291282Y-62135097D01*
X151303579Y-62114580D01*
X151317829Y-62095367D01*
X151333893Y-62077643D01*
X151351617Y-62061579D01*
X151370830Y-62047329D01*
X151391347Y-62035032D01*
X151412971Y-62024804D01*
X151435493Y-62016746D01*
X151458697Y-62010934D01*
X151482358Y-62007424D01*
X151506250Y-62006250D01*
X151993750Y-62006250D01*
X152017642Y-62007424D01*
G37*
G36*
X150142642Y-62007424D02*
G01*
X150166303Y-62010934D01*
X150189507Y-62016746D01*
X150212029Y-62024804D01*
X150233653Y-62035032D01*
X150254170Y-62047329D01*
X150273383Y-62061579D01*
X150291107Y-62077643D01*
X150307171Y-62095367D01*
X150321421Y-62114580D01*
X150333718Y-62135097D01*
X150343946Y-62156721D01*
X150352004Y-62179243D01*
X150357816Y-62202447D01*
X150361326Y-62226108D01*
X150362500Y-62250000D01*
X150362500Y-63162500D01*
X150361326Y-63186392D01*
X150357816Y-63210053D01*
X150352004Y-63233257D01*
X150343946Y-63255779D01*
X150333718Y-63277403D01*
X150321421Y-63297920D01*
X150307171Y-63317133D01*
X150291107Y-63334857D01*
X150273383Y-63350921D01*
X150254170Y-63365171D01*
X150233653Y-63377468D01*
X150212029Y-63387696D01*
X150189507Y-63395754D01*
X150166303Y-63401566D01*
X150142642Y-63405076D01*
X150118750Y-63406250D01*
X149631250Y-63406250D01*
X149607358Y-63405076D01*
X149583697Y-63401566D01*
X149560493Y-63395754D01*
X149537971Y-63387696D01*
X149516347Y-63377468D01*
X149495830Y-63365171D01*
X149476617Y-63350921D01*
X149458893Y-63334857D01*
X149442829Y-63317133D01*
X149428579Y-63297920D01*
X149416282Y-63277403D01*
X149406054Y-63255779D01*
X149397996Y-63233257D01*
X149392184Y-63210053D01*
X149388674Y-63186392D01*
X149387500Y-63162500D01*
X149387500Y-62250000D01*
X149388674Y-62226108D01*
X149392184Y-62202447D01*
X149397996Y-62179243D01*
X149406054Y-62156721D01*
X149416282Y-62135097D01*
X149428579Y-62114580D01*
X149442829Y-62095367D01*
X149458893Y-62077643D01*
X149476617Y-62061579D01*
X149495830Y-62047329D01*
X149516347Y-62035032D01*
X149537971Y-62024804D01*
X149560493Y-62016746D01*
X149583697Y-62010934D01*
X149607358Y-62007424D01*
X149631250Y-62006250D01*
X150118750Y-62006250D01*
X150142642Y-62007424D01*
G37*
G36*
X156055142Y-48869924D02*
G01*
X156078803Y-48873434D01*
X156102007Y-48879246D01*
X156124529Y-48887304D01*
X156146153Y-48897532D01*
X156166670Y-48909829D01*
X156185883Y-48924079D01*
X156203607Y-48940143D01*
X156219671Y-48957867D01*
X156233921Y-48977080D01*
X156246218Y-48997597D01*
X156256446Y-49019221D01*
X156264504Y-49041743D01*
X156270316Y-49064947D01*
X156273826Y-49088608D01*
X156275000Y-49112500D01*
X156275000Y-49600000D01*
X156273826Y-49623892D01*
X156270316Y-49647553D01*
X156264504Y-49670757D01*
X156256446Y-49693279D01*
X156246218Y-49714903D01*
X156233921Y-49735420D01*
X156219671Y-49754633D01*
X156203607Y-49772357D01*
X156185883Y-49788421D01*
X156166670Y-49802671D01*
X156146153Y-49814968D01*
X156124529Y-49825196D01*
X156102007Y-49833254D01*
X156078803Y-49839066D01*
X156055142Y-49842576D01*
X156031250Y-49843750D01*
X155118750Y-49843750D01*
X155094858Y-49842576D01*
X155071197Y-49839066D01*
X155047993Y-49833254D01*
X155025471Y-49825196D01*
X155003847Y-49814968D01*
X154983330Y-49802671D01*
X154964117Y-49788421D01*
X154946393Y-49772357D01*
X154930329Y-49754633D01*
X154916079Y-49735420D01*
X154903782Y-49714903D01*
X154893554Y-49693279D01*
X154885496Y-49670757D01*
X154879684Y-49647553D01*
X154876174Y-49623892D01*
X154875000Y-49600000D01*
X154875000Y-49112500D01*
X154876174Y-49088608D01*
X154879684Y-49064947D01*
X154885496Y-49041743D01*
X154893554Y-49019221D01*
X154903782Y-48997597D01*
X154916079Y-48977080D01*
X154930329Y-48957867D01*
X154946393Y-48940143D01*
X154964117Y-48924079D01*
X154983330Y-48909829D01*
X155003847Y-48897532D01*
X155025471Y-48887304D01*
X155047993Y-48879246D01*
X155071197Y-48873434D01*
X155094858Y-48869924D01*
X155118750Y-48868750D01*
X156031250Y-48868750D01*
X156055142Y-48869924D01*
G37*
G36*
X156055142Y-46994924D02*
G01*
X156078803Y-46998434D01*
X156102007Y-47004246D01*
X156124529Y-47012304D01*
X156146153Y-47022532D01*
X156166670Y-47034829D01*
X156185883Y-47049079D01*
X156203607Y-47065143D01*
X156219671Y-47082867D01*
X156233921Y-47102080D01*
X156246218Y-47122597D01*
X156256446Y-47144221D01*
X156264504Y-47166743D01*
X156270316Y-47189947D01*
X156273826Y-47213608D01*
X156275000Y-47237500D01*
X156275000Y-47725000D01*
X156273826Y-47748892D01*
X156270316Y-47772553D01*
X156264504Y-47795757D01*
X156256446Y-47818279D01*
X156246218Y-47839903D01*
X156233921Y-47860420D01*
X156219671Y-47879633D01*
X156203607Y-47897357D01*
X156185883Y-47913421D01*
X156166670Y-47927671D01*
X156146153Y-47939968D01*
X156124529Y-47950196D01*
X156102007Y-47958254D01*
X156078803Y-47964066D01*
X156055142Y-47967576D01*
X156031250Y-47968750D01*
X155118750Y-47968750D01*
X155094858Y-47967576D01*
X155071197Y-47964066D01*
X155047993Y-47958254D01*
X155025471Y-47950196D01*
X155003847Y-47939968D01*
X154983330Y-47927671D01*
X154964117Y-47913421D01*
X154946393Y-47897357D01*
X154930329Y-47879633D01*
X154916079Y-47860420D01*
X154903782Y-47839903D01*
X154893554Y-47818279D01*
X154885496Y-47795757D01*
X154879684Y-47772553D01*
X154876174Y-47748892D01*
X154875000Y-47725000D01*
X154875000Y-47237500D01*
X154876174Y-47213608D01*
X154879684Y-47189947D01*
X154885496Y-47166743D01*
X154893554Y-47144221D01*
X154903782Y-47122597D01*
X154916079Y-47102080D01*
X154930329Y-47082867D01*
X154946393Y-47065143D01*
X154964117Y-47049079D01*
X154983330Y-47034829D01*
X155003847Y-47022532D01*
X155025471Y-47012304D01*
X155047993Y-47004246D01*
X155071197Y-46998434D01*
X155094858Y-46994924D01*
X155118750Y-46993750D01*
X156031250Y-46993750D01*
X156055142Y-46994924D01*
G37*
G36*
X137005142Y-50457424D02*
G01*
X137028803Y-50460934D01*
X137052007Y-50466746D01*
X137074529Y-50474804D01*
X137096153Y-50485032D01*
X137116670Y-50497329D01*
X137135883Y-50511579D01*
X137153607Y-50527643D01*
X137169671Y-50545367D01*
X137183921Y-50564580D01*
X137196218Y-50585097D01*
X137206446Y-50606721D01*
X137214504Y-50629243D01*
X137220316Y-50652447D01*
X137223826Y-50676108D01*
X137225000Y-50700000D01*
X137225000Y-51187500D01*
X137223826Y-51211392D01*
X137220316Y-51235053D01*
X137214504Y-51258257D01*
X137206446Y-51280779D01*
X137196218Y-51302403D01*
X137183921Y-51322920D01*
X137169671Y-51342133D01*
X137153607Y-51359857D01*
X137135883Y-51375921D01*
X137116670Y-51390171D01*
X137096153Y-51402468D01*
X137074529Y-51412696D01*
X137052007Y-51420754D01*
X137028803Y-51426566D01*
X137005142Y-51430076D01*
X136981250Y-51431250D01*
X136068750Y-51431250D01*
X136044858Y-51430076D01*
X136021197Y-51426566D01*
X135997993Y-51420754D01*
X135975471Y-51412696D01*
X135953847Y-51402468D01*
X135933330Y-51390171D01*
X135914117Y-51375921D01*
X135896393Y-51359857D01*
X135880329Y-51342133D01*
X135866079Y-51322920D01*
X135853782Y-51302403D01*
X135843554Y-51280779D01*
X135835496Y-51258257D01*
X135829684Y-51235053D01*
X135826174Y-51211392D01*
X135825000Y-51187500D01*
X135825000Y-50700000D01*
X135826174Y-50676108D01*
X135829684Y-50652447D01*
X135835496Y-50629243D01*
X135843554Y-50606721D01*
X135853782Y-50585097D01*
X135866079Y-50564580D01*
X135880329Y-50545367D01*
X135896393Y-50527643D01*
X135914117Y-50511579D01*
X135933330Y-50497329D01*
X135953847Y-50485032D01*
X135975471Y-50474804D01*
X135997993Y-50466746D01*
X136021197Y-50460934D01*
X136044858Y-50457424D01*
X136068750Y-50456250D01*
X136981250Y-50456250D01*
X137005142Y-50457424D01*
G37*
G36*
X137005142Y-48582424D02*
G01*
X137028803Y-48585934D01*
X137052007Y-48591746D01*
X137074529Y-48599804D01*
X137096153Y-48610032D01*
X137116670Y-48622329D01*
X137135883Y-48636579D01*
X137153607Y-48652643D01*
X137169671Y-48670367D01*
X137183921Y-48689580D01*
X137196218Y-48710097D01*
X137206446Y-48731721D01*
X137214504Y-48754243D01*
X137220316Y-48777447D01*
X137223826Y-48801108D01*
X137225000Y-48825000D01*
X137225000Y-49312500D01*
X137223826Y-49336392D01*
X137220316Y-49360053D01*
X137214504Y-49383257D01*
X137206446Y-49405779D01*
X137196218Y-49427403D01*
X137183921Y-49447920D01*
X137169671Y-49467133D01*
X137153607Y-49484857D01*
X137135883Y-49500921D01*
X137116670Y-49515171D01*
X137096153Y-49527468D01*
X137074529Y-49537696D01*
X137052007Y-49545754D01*
X137028803Y-49551566D01*
X137005142Y-49555076D01*
X136981250Y-49556250D01*
X136068750Y-49556250D01*
X136044858Y-49555076D01*
X136021197Y-49551566D01*
X135997993Y-49545754D01*
X135975471Y-49537696D01*
X135953847Y-49527468D01*
X135933330Y-49515171D01*
X135914117Y-49500921D01*
X135896393Y-49484857D01*
X135880329Y-49467133D01*
X135866079Y-49447920D01*
X135853782Y-49427403D01*
X135843554Y-49405779D01*
X135835496Y-49383257D01*
X135829684Y-49360053D01*
X135826174Y-49336392D01*
X135825000Y-49312500D01*
X135825000Y-48825000D01*
X135826174Y-48801108D01*
X135829684Y-48777447D01*
X135835496Y-48754243D01*
X135843554Y-48731721D01*
X135853782Y-48710097D01*
X135866079Y-48689580D01*
X135880329Y-48670367D01*
X135896393Y-48652643D01*
X135914117Y-48636579D01*
X135933330Y-48622329D01*
X135953847Y-48610032D01*
X135975471Y-48599804D01*
X135997993Y-48591746D01*
X136021197Y-48585934D01*
X136044858Y-48582424D01*
X136068750Y-48581250D01*
X136981250Y-48581250D01*
X137005142Y-48582424D01*
G37*
G36*
X145508892Y-39464924D02*
G01*
X145532553Y-39468434D01*
X145555757Y-39474246D01*
X145578279Y-39482304D01*
X145599903Y-39492532D01*
X145620420Y-39504829D01*
X145639633Y-39519079D01*
X145657357Y-39535143D01*
X145673421Y-39552867D01*
X145687671Y-39572080D01*
X145699968Y-39592597D01*
X145710196Y-39614221D01*
X145718254Y-39636743D01*
X145724066Y-39659947D01*
X145727576Y-39683608D01*
X145728750Y-39707500D01*
X145728750Y-40620000D01*
X145727576Y-40643892D01*
X145724066Y-40667553D01*
X145718254Y-40690757D01*
X145710196Y-40713279D01*
X145699968Y-40734903D01*
X145687671Y-40755420D01*
X145673421Y-40774633D01*
X145657357Y-40792357D01*
X145639633Y-40808421D01*
X145620420Y-40822671D01*
X145599903Y-40834968D01*
X145578279Y-40845196D01*
X145555757Y-40853254D01*
X145532553Y-40859066D01*
X145508892Y-40862576D01*
X145485000Y-40863750D01*
X144997500Y-40863750D01*
X144973608Y-40862576D01*
X144949947Y-40859066D01*
X144926743Y-40853254D01*
X144904221Y-40845196D01*
X144882597Y-40834968D01*
X144862080Y-40822671D01*
X144842867Y-40808421D01*
X144825143Y-40792357D01*
X144809079Y-40774633D01*
X144794829Y-40755420D01*
X144782532Y-40734903D01*
X144772304Y-40713279D01*
X144764246Y-40690757D01*
X144758434Y-40667553D01*
X144754924Y-40643892D01*
X144753750Y-40620000D01*
X144753750Y-39707500D01*
X144754924Y-39683608D01*
X144758434Y-39659947D01*
X144764246Y-39636743D01*
X144772304Y-39614221D01*
X144782532Y-39592597D01*
X144794829Y-39572080D01*
X144809079Y-39552867D01*
X144825143Y-39535143D01*
X144842867Y-39519079D01*
X144862080Y-39504829D01*
X144882597Y-39492532D01*
X144904221Y-39482304D01*
X144926743Y-39474246D01*
X144949947Y-39468434D01*
X144973608Y-39464924D01*
X144997500Y-39463750D01*
X145485000Y-39463750D01*
X145508892Y-39464924D01*
G37*
G36*
X143633892Y-39464924D02*
G01*
X143657553Y-39468434D01*
X143680757Y-39474246D01*
X143703279Y-39482304D01*
X143724903Y-39492532D01*
X143745420Y-39504829D01*
X143764633Y-39519079D01*
X143782357Y-39535143D01*
X143798421Y-39552867D01*
X143812671Y-39572080D01*
X143824968Y-39592597D01*
X143835196Y-39614221D01*
X143843254Y-39636743D01*
X143849066Y-39659947D01*
X143852576Y-39683608D01*
X143853750Y-39707500D01*
X143853750Y-40620000D01*
X143852576Y-40643892D01*
X143849066Y-40667553D01*
X143843254Y-40690757D01*
X143835196Y-40713279D01*
X143824968Y-40734903D01*
X143812671Y-40755420D01*
X143798421Y-40774633D01*
X143782357Y-40792357D01*
X143764633Y-40808421D01*
X143745420Y-40822671D01*
X143724903Y-40834968D01*
X143703279Y-40845196D01*
X143680757Y-40853254D01*
X143657553Y-40859066D01*
X143633892Y-40862576D01*
X143610000Y-40863750D01*
X143122500Y-40863750D01*
X143098608Y-40862576D01*
X143074947Y-40859066D01*
X143051743Y-40853254D01*
X143029221Y-40845196D01*
X143007597Y-40834968D01*
X142987080Y-40822671D01*
X142967867Y-40808421D01*
X142950143Y-40792357D01*
X142934079Y-40774633D01*
X142919829Y-40755420D01*
X142907532Y-40734903D01*
X142897304Y-40713279D01*
X142889246Y-40690757D01*
X142883434Y-40667553D01*
X142879924Y-40643892D01*
X142878750Y-40620000D01*
X142878750Y-39707500D01*
X142879924Y-39683608D01*
X142883434Y-39659947D01*
X142889246Y-39636743D01*
X142897304Y-39614221D01*
X142907532Y-39592597D01*
X142919829Y-39572080D01*
X142934079Y-39552867D01*
X142950143Y-39535143D01*
X142967867Y-39519079D01*
X142987080Y-39504829D01*
X143007597Y-39492532D01*
X143029221Y-39482304D01*
X143051743Y-39474246D01*
X143074947Y-39468434D01*
X143098608Y-39464924D01*
X143122500Y-39463750D01*
X143610000Y-39463750D01*
X143633892Y-39464924D01*
G37*
G36*
X153165892Y-43618597D02*
G01*
X153189553Y-43622107D01*
X153212757Y-43627919D01*
X153235279Y-43635977D01*
X153256903Y-43646205D01*
X153277420Y-43658502D01*
X153296633Y-43672752D01*
X153314357Y-43688816D01*
X153330421Y-43706540D01*
X153344671Y-43725753D01*
X153356968Y-43746270D01*
X153367196Y-43767894D01*
X153375254Y-43790416D01*
X153381066Y-43813620D01*
X153384576Y-43837281D01*
X153385750Y-43861173D01*
X153385750Y-44348673D01*
X153384576Y-44372565D01*
X153381066Y-44396226D01*
X153375254Y-44419430D01*
X153367196Y-44441952D01*
X153356968Y-44463576D01*
X153344671Y-44484093D01*
X153330421Y-44503306D01*
X153314357Y-44521030D01*
X153296633Y-44537094D01*
X153277420Y-44551344D01*
X153256903Y-44563641D01*
X153235279Y-44573869D01*
X153212757Y-44581927D01*
X153189553Y-44587739D01*
X153165892Y-44591249D01*
X153142000Y-44592423D01*
X152229500Y-44592423D01*
X152205608Y-44591249D01*
X152181947Y-44587739D01*
X152158743Y-44581927D01*
X152136221Y-44573869D01*
X152114597Y-44563641D01*
X152094080Y-44551344D01*
X152074867Y-44537094D01*
X152057143Y-44521030D01*
X152041079Y-44503306D01*
X152026829Y-44484093D01*
X152014532Y-44463576D01*
X152004304Y-44441952D01*
X151996246Y-44419430D01*
X151990434Y-44396226D01*
X151986924Y-44372565D01*
X151985750Y-44348673D01*
X151985750Y-43861173D01*
X151986924Y-43837281D01*
X151990434Y-43813620D01*
X151996246Y-43790416D01*
X152004304Y-43767894D01*
X152014532Y-43746270D01*
X152026829Y-43725753D01*
X152041079Y-43706540D01*
X152057143Y-43688816D01*
X152074867Y-43672752D01*
X152094080Y-43658502D01*
X152114597Y-43646205D01*
X152136221Y-43635977D01*
X152158743Y-43627919D01*
X152181947Y-43622107D01*
X152205608Y-43618597D01*
X152229500Y-43617423D01*
X153142000Y-43617423D01*
X153165892Y-43618597D01*
G37*
G36*
X153165892Y-41743597D02*
G01*
X153189553Y-41747107D01*
X153212757Y-41752919D01*
X153235279Y-41760977D01*
X153256903Y-41771205D01*
X153277420Y-41783502D01*
X153296633Y-41797752D01*
X153314357Y-41813816D01*
X153330421Y-41831540D01*
X153344671Y-41850753D01*
X153356968Y-41871270D01*
X153367196Y-41892894D01*
X153375254Y-41915416D01*
X153381066Y-41938620D01*
X153384576Y-41962281D01*
X153385750Y-41986173D01*
X153385750Y-42473673D01*
X153384576Y-42497565D01*
X153381066Y-42521226D01*
X153375254Y-42544430D01*
X153367196Y-42566952D01*
X153356968Y-42588576D01*
X153344671Y-42609093D01*
X153330421Y-42628306D01*
X153314357Y-42646030D01*
X153296633Y-42662094D01*
X153277420Y-42676344D01*
X153256903Y-42688641D01*
X153235279Y-42698869D01*
X153212757Y-42706927D01*
X153189553Y-42712739D01*
X153165892Y-42716249D01*
X153142000Y-42717423D01*
X152229500Y-42717423D01*
X152205608Y-42716249D01*
X152181947Y-42712739D01*
X152158743Y-42706927D01*
X152136221Y-42698869D01*
X152114597Y-42688641D01*
X152094080Y-42676344D01*
X152074867Y-42662094D01*
X152057143Y-42646030D01*
X152041079Y-42628306D01*
X152026829Y-42609093D01*
X152014532Y-42588576D01*
X152004304Y-42566952D01*
X151996246Y-42544430D01*
X151990434Y-42521226D01*
X151986924Y-42497565D01*
X151985750Y-42473673D01*
X151985750Y-41986173D01*
X151986924Y-41962281D01*
X151990434Y-41938620D01*
X151996246Y-41915416D01*
X152004304Y-41892894D01*
X152014532Y-41871270D01*
X152026829Y-41850753D01*
X152041079Y-41831540D01*
X152057143Y-41813816D01*
X152074867Y-41797752D01*
X152094080Y-41783502D01*
X152114597Y-41771205D01*
X152136221Y-41760977D01*
X152158743Y-41752919D01*
X152181947Y-41747107D01*
X152205608Y-41743597D01*
X152229500Y-41742423D01*
X153142000Y-41742423D01*
X153165892Y-41743597D01*
G37*
M02*
