G04 #@! TF.GenerationSoftware,KiCad,Pcbnew,(5.1.5-0-10_14)*
G04 #@! TF.CreationDate,2020-07-12T17:44:48+02:00*
G04 #@! TF.ProjectId,Trigon,54726967-6f6e-42e6-9b69-6361645f7063,rev?*
G04 #@! TF.SameCoordinates,Original*
G04 #@! TF.FileFunction,Soldermask,Top*
G04 #@! TF.FilePolarity,Negative*
%FSLAX46Y46*%
G04 Gerber Fmt 4.6, Leading zero omitted, Abs format (unit mm)*
G04 Created by KiCad (PCBNEW (5.1.5-0-10_14)) date 2020-07-12 17:44:48*
%MOMM*%
%LPD*%
G04 APERTURE LIST*
%ADD10C,0.100000*%
G04 APERTURE END LIST*
D10*
G36*
X57746474Y21016316D02*
G01*
X57964474Y20926017D01*
X58118623Y20862167D01*
X58453548Y20638377D01*
X58738377Y20353548D01*
X58962167Y20018623D01*
X58994562Y19940414D01*
X59116316Y19646474D01*
X59194900Y19251406D01*
X59194900Y18848594D01*
X59116316Y18453526D01*
X59065451Y18330728D01*
X58962167Y18081377D01*
X58738377Y17746452D01*
X58453548Y17461623D01*
X58118623Y17237833D01*
X57964474Y17173983D01*
X57746474Y17083684D01*
X57351406Y17005100D01*
X56948594Y17005100D01*
X56553526Y17083684D01*
X56335526Y17173983D01*
X56181377Y17237833D01*
X55846452Y17461623D01*
X55561623Y17746452D01*
X55337833Y18081377D01*
X55234549Y18330728D01*
X55183684Y18453526D01*
X55105100Y18848594D01*
X55105100Y19251406D01*
X55183684Y19646474D01*
X55305438Y19940414D01*
X55337833Y20018623D01*
X55561623Y20353548D01*
X55846452Y20638377D01*
X56181377Y20862167D01*
X56335526Y20926017D01*
X56553526Y21016316D01*
X56948594Y21094900D01*
X57351406Y21094900D01*
X57746474Y21016316D01*
G37*
G36*
X38696474Y21016316D02*
G01*
X38914474Y20926017D01*
X39068623Y20862167D01*
X39403548Y20638377D01*
X39688377Y20353548D01*
X39912167Y20018623D01*
X39944562Y19940414D01*
X40066316Y19646474D01*
X40144900Y19251406D01*
X40144900Y18848594D01*
X40066316Y18453526D01*
X40015451Y18330728D01*
X39912167Y18081377D01*
X39688377Y17746452D01*
X39403548Y17461623D01*
X39068623Y17237833D01*
X38914474Y17173983D01*
X38696474Y17083684D01*
X38301406Y17005100D01*
X37898594Y17005100D01*
X37503526Y17083684D01*
X37285526Y17173983D01*
X37131377Y17237833D01*
X36796452Y17461623D01*
X36511623Y17746452D01*
X36287833Y18081377D01*
X36184549Y18330728D01*
X36133684Y18453526D01*
X36055100Y18848594D01*
X36055100Y19251406D01*
X36133684Y19646474D01*
X36255438Y19940414D01*
X36287833Y20018623D01*
X36511623Y20353548D01*
X36796452Y20638377D01*
X37131377Y20862167D01*
X37285526Y20926017D01*
X37503526Y21016316D01*
X37898594Y21094900D01*
X38301406Y21094900D01*
X38696474Y21016316D01*
G37*
G36*
X19646474Y21016316D02*
G01*
X19864474Y20926017D01*
X20018623Y20862167D01*
X20353548Y20638377D01*
X20638377Y20353548D01*
X20862167Y20018623D01*
X20894562Y19940414D01*
X21016316Y19646474D01*
X21094900Y19251406D01*
X21094900Y18848594D01*
X21016316Y18453526D01*
X20965451Y18330728D01*
X20862167Y18081377D01*
X20638377Y17746452D01*
X20353548Y17461623D01*
X20018623Y17237833D01*
X19864474Y17173983D01*
X19646474Y17083684D01*
X19251406Y17005100D01*
X18848594Y17005100D01*
X18453526Y17083684D01*
X18235526Y17173983D01*
X18081377Y17237833D01*
X17746452Y17461623D01*
X17461623Y17746452D01*
X17237833Y18081377D01*
X17134549Y18330728D01*
X17083684Y18453526D01*
X17005100Y18848594D01*
X17005100Y19251406D01*
X17083684Y19646474D01*
X17205438Y19940414D01*
X17237833Y20018623D01*
X17461623Y20353548D01*
X17746452Y20638377D01*
X18081377Y20862167D01*
X18235526Y20926017D01*
X18453526Y21016316D01*
X18848594Y21094900D01*
X19251406Y21094900D01*
X19646474Y21016316D01*
G37*
G36*
X62500104Y19940415D02*
G01*
X62668626Y19870611D01*
X62820291Y19769272D01*
X62949272Y19640291D01*
X63050611Y19488626D01*
X63120415Y19320104D01*
X63156000Y19141203D01*
X63156000Y18958797D01*
X63120415Y18779896D01*
X63050611Y18611374D01*
X62949272Y18459709D01*
X62820291Y18330728D01*
X62668626Y18229389D01*
X62500104Y18159585D01*
X62321203Y18124000D01*
X62138797Y18124000D01*
X61959896Y18159585D01*
X61791374Y18229389D01*
X61639709Y18330728D01*
X61510728Y18459709D01*
X61409389Y18611374D01*
X61339585Y18779896D01*
X61304000Y18958797D01*
X61304000Y19141203D01*
X61339585Y19320104D01*
X61409389Y19488626D01*
X61510728Y19640291D01*
X61639709Y19769272D01*
X61791374Y19870611D01*
X61959896Y19940415D01*
X62138797Y19976000D01*
X62321203Y19976000D01*
X62500104Y19940415D01*
G37*
G36*
X52340104Y19940415D02*
G01*
X52508626Y19870611D01*
X52660291Y19769272D01*
X52789272Y19640291D01*
X52890611Y19488626D01*
X52960415Y19320104D01*
X52996000Y19141203D01*
X52996000Y18958797D01*
X52960415Y18779896D01*
X52890611Y18611374D01*
X52789272Y18459709D01*
X52660291Y18330728D01*
X52508626Y18229389D01*
X52340104Y18159585D01*
X52161203Y18124000D01*
X51978797Y18124000D01*
X51799896Y18159585D01*
X51631374Y18229389D01*
X51479709Y18330728D01*
X51350728Y18459709D01*
X51249389Y18611374D01*
X51179585Y18779896D01*
X51144000Y18958797D01*
X51144000Y19141203D01*
X51179585Y19320104D01*
X51249389Y19488626D01*
X51350728Y19640291D01*
X51479709Y19769272D01*
X51631374Y19870611D01*
X51799896Y19940415D01*
X51978797Y19976000D01*
X52161203Y19976000D01*
X52340104Y19940415D01*
G37*
G36*
X43450104Y19940415D02*
G01*
X43618626Y19870611D01*
X43770291Y19769272D01*
X43899272Y19640291D01*
X44000611Y19488626D01*
X44070415Y19320104D01*
X44106000Y19141203D01*
X44106000Y18958797D01*
X44070415Y18779896D01*
X44000611Y18611374D01*
X43899272Y18459709D01*
X43770291Y18330728D01*
X43618626Y18229389D01*
X43450104Y18159585D01*
X43271203Y18124000D01*
X43088797Y18124000D01*
X42909896Y18159585D01*
X42741374Y18229389D01*
X42589709Y18330728D01*
X42460728Y18459709D01*
X42359389Y18611374D01*
X42289585Y18779896D01*
X42254000Y18958797D01*
X42254000Y19141203D01*
X42289585Y19320104D01*
X42359389Y19488626D01*
X42460728Y19640291D01*
X42589709Y19769272D01*
X42741374Y19870611D01*
X42909896Y19940415D01*
X43088797Y19976000D01*
X43271203Y19976000D01*
X43450104Y19940415D01*
G37*
G36*
X33290104Y19940415D02*
G01*
X33458626Y19870611D01*
X33610291Y19769272D01*
X33739272Y19640291D01*
X33840611Y19488626D01*
X33910415Y19320104D01*
X33946000Y19141203D01*
X33946000Y18958797D01*
X33910415Y18779896D01*
X33840611Y18611374D01*
X33739272Y18459709D01*
X33610291Y18330728D01*
X33458626Y18229389D01*
X33290104Y18159585D01*
X33111203Y18124000D01*
X32928797Y18124000D01*
X32749896Y18159585D01*
X32581374Y18229389D01*
X32429709Y18330728D01*
X32300728Y18459709D01*
X32199389Y18611374D01*
X32129585Y18779896D01*
X32094000Y18958797D01*
X32094000Y19141203D01*
X32129585Y19320104D01*
X32199389Y19488626D01*
X32300728Y19640291D01*
X32429709Y19769272D01*
X32581374Y19870611D01*
X32749896Y19940415D01*
X32928797Y19976000D01*
X33111203Y19976000D01*
X33290104Y19940415D01*
G37*
G36*
X24400104Y19940415D02*
G01*
X24568626Y19870611D01*
X24720291Y19769272D01*
X24849272Y19640291D01*
X24950611Y19488626D01*
X25020415Y19320104D01*
X25056000Y19141203D01*
X25056000Y18958797D01*
X25020415Y18779896D01*
X24950611Y18611374D01*
X24849272Y18459709D01*
X24720291Y18330728D01*
X24568626Y18229389D01*
X24400104Y18159585D01*
X24221203Y18124000D01*
X24038797Y18124000D01*
X23859896Y18159585D01*
X23691374Y18229389D01*
X23539709Y18330728D01*
X23410728Y18459709D01*
X23309389Y18611374D01*
X23239585Y18779896D01*
X23204000Y18958797D01*
X23204000Y19141203D01*
X23239585Y19320104D01*
X23309389Y19488626D01*
X23410728Y19640291D01*
X23539709Y19769272D01*
X23691374Y19870611D01*
X23859896Y19940415D01*
X24038797Y19976000D01*
X24221203Y19976000D01*
X24400104Y19940415D01*
G37*
G36*
X14240104Y19940415D02*
G01*
X14408626Y19870611D01*
X14560291Y19769272D01*
X14689272Y19640291D01*
X14790611Y19488626D01*
X14860415Y19320104D01*
X14896000Y19141203D01*
X14896000Y18958797D01*
X14860415Y18779896D01*
X14790611Y18611374D01*
X14689272Y18459709D01*
X14560291Y18330728D01*
X14408626Y18229389D01*
X14240104Y18159585D01*
X14061203Y18124000D01*
X13878797Y18124000D01*
X13699896Y18159585D01*
X13531374Y18229389D01*
X13379709Y18330728D01*
X13250728Y18459709D01*
X13149389Y18611374D01*
X13079585Y18779896D01*
X13044000Y18958797D01*
X13044000Y19141203D01*
X13079585Y19320104D01*
X13149389Y19488626D01*
X13250728Y19640291D01*
X13379709Y19769272D01*
X13531374Y19870611D01*
X13699896Y19940415D01*
X13878797Y19976000D01*
X14061203Y19976000D01*
X14240104Y19940415D01*
G37*
G36*
X76796474Y40066316D02*
G01*
X77014474Y39976017D01*
X77168623Y39912167D01*
X77503548Y39688377D01*
X77788377Y39403548D01*
X78012167Y39068623D01*
X78044562Y38990414D01*
X78166316Y38696474D01*
X78244900Y38301406D01*
X78244900Y37898594D01*
X78166316Y37503526D01*
X78115451Y37380728D01*
X78012167Y37131377D01*
X77788377Y36796452D01*
X77503548Y36511623D01*
X77168623Y36287833D01*
X77014474Y36223983D01*
X76796474Y36133684D01*
X76401406Y36055100D01*
X75998594Y36055100D01*
X75603526Y36133684D01*
X75385526Y36223983D01*
X75231377Y36287833D01*
X74896452Y36511623D01*
X74611623Y36796452D01*
X74387833Y37131377D01*
X74284549Y37380728D01*
X74233684Y37503526D01*
X74155100Y37898594D01*
X74155100Y38301406D01*
X74233684Y38696474D01*
X74355438Y38990414D01*
X74387833Y39068623D01*
X74611623Y39403548D01*
X74896452Y39688377D01*
X75231377Y39912167D01*
X75385526Y39976017D01*
X75603526Y40066316D01*
X75998594Y40144900D01*
X76401406Y40144900D01*
X76796474Y40066316D01*
G37*
G36*
X57746474Y40066316D02*
G01*
X57964474Y39976017D01*
X58118623Y39912167D01*
X58453548Y39688377D01*
X58738377Y39403548D01*
X58962167Y39068623D01*
X58994562Y38990414D01*
X59116316Y38696474D01*
X59194900Y38301406D01*
X59194900Y37898594D01*
X59116316Y37503526D01*
X59065451Y37380728D01*
X58962167Y37131377D01*
X58738377Y36796452D01*
X58453548Y36511623D01*
X58118623Y36287833D01*
X57964474Y36223983D01*
X57746474Y36133684D01*
X57351406Y36055100D01*
X56948594Y36055100D01*
X56553526Y36133684D01*
X56335526Y36223983D01*
X56181377Y36287833D01*
X55846452Y36511623D01*
X55561623Y36796452D01*
X55337833Y37131377D01*
X55234549Y37380728D01*
X55183684Y37503526D01*
X55105100Y37898594D01*
X55105100Y38301406D01*
X55183684Y38696474D01*
X55305438Y38990414D01*
X55337833Y39068623D01*
X55561623Y39403548D01*
X55846452Y39688377D01*
X56181377Y39912167D01*
X56335526Y39976017D01*
X56553526Y40066316D01*
X56948594Y40144900D01*
X57351406Y40144900D01*
X57746474Y40066316D01*
G37*
G36*
X38696474Y40066316D02*
G01*
X38914474Y39976017D01*
X39068623Y39912167D01*
X39403548Y39688377D01*
X39688377Y39403548D01*
X39912167Y39068623D01*
X39944562Y38990414D01*
X40066316Y38696474D01*
X40144900Y38301406D01*
X40144900Y37898594D01*
X40066316Y37503526D01*
X40015451Y37380728D01*
X39912167Y37131377D01*
X39688377Y36796452D01*
X39403548Y36511623D01*
X39068623Y36287833D01*
X38914474Y36223983D01*
X38696474Y36133684D01*
X38301406Y36055100D01*
X37898594Y36055100D01*
X37503526Y36133684D01*
X37285526Y36223983D01*
X37131377Y36287833D01*
X36796452Y36511623D01*
X36511623Y36796452D01*
X36287833Y37131377D01*
X36184549Y37380728D01*
X36133684Y37503526D01*
X36055100Y37898594D01*
X36055100Y38301406D01*
X36133684Y38696474D01*
X36255438Y38990414D01*
X36287833Y39068623D01*
X36511623Y39403548D01*
X36796452Y39688377D01*
X37131377Y39912167D01*
X37285526Y39976017D01*
X37503526Y40066316D01*
X37898594Y40144900D01*
X38301406Y40144900D01*
X38696474Y40066316D01*
G37*
G36*
X19646474Y40066316D02*
G01*
X19864474Y39976017D01*
X20018623Y39912167D01*
X20353548Y39688377D01*
X20638377Y39403548D01*
X20862167Y39068623D01*
X20894562Y38990414D01*
X21016316Y38696474D01*
X21094900Y38301406D01*
X21094900Y37898594D01*
X21016316Y37503526D01*
X20965451Y37380728D01*
X20862167Y37131377D01*
X20638377Y36796452D01*
X20353548Y36511623D01*
X20018623Y36287833D01*
X19864474Y36223983D01*
X19646474Y36133684D01*
X19251406Y36055100D01*
X18848594Y36055100D01*
X18453526Y36133684D01*
X18235526Y36223983D01*
X18081377Y36287833D01*
X17746452Y36511623D01*
X17461623Y36796452D01*
X17237833Y37131377D01*
X17134549Y37380728D01*
X17083684Y37503526D01*
X17005100Y37898594D01*
X17005100Y38301406D01*
X17083684Y38696474D01*
X17205438Y38990414D01*
X17237833Y39068623D01*
X17461623Y39403548D01*
X17746452Y39688377D01*
X18081377Y39912167D01*
X18235526Y39976017D01*
X18453526Y40066316D01*
X18848594Y40144900D01*
X19251406Y40144900D01*
X19646474Y40066316D01*
G37*
G36*
X14240104Y38990415D02*
G01*
X14408626Y38920611D01*
X14560291Y38819272D01*
X14689272Y38690291D01*
X14790611Y38538626D01*
X14860415Y38370104D01*
X14896000Y38191203D01*
X14896000Y38008797D01*
X14860415Y37829896D01*
X14790611Y37661374D01*
X14689272Y37509709D01*
X14560291Y37380728D01*
X14408626Y37279389D01*
X14240104Y37209585D01*
X14061203Y37174000D01*
X13878797Y37174000D01*
X13699896Y37209585D01*
X13531374Y37279389D01*
X13379709Y37380728D01*
X13250728Y37509709D01*
X13149389Y37661374D01*
X13079585Y37829896D01*
X13044000Y38008797D01*
X13044000Y38191203D01*
X13079585Y38370104D01*
X13149389Y38538626D01*
X13250728Y38690291D01*
X13379709Y38819272D01*
X13531374Y38920611D01*
X13699896Y38990415D01*
X13878797Y39026000D01*
X14061203Y39026000D01*
X14240104Y38990415D01*
G37*
G36*
X43450104Y38990415D02*
G01*
X43618626Y38920611D01*
X43770291Y38819272D01*
X43899272Y38690291D01*
X44000611Y38538626D01*
X44070415Y38370104D01*
X44106000Y38191203D01*
X44106000Y38008797D01*
X44070415Y37829896D01*
X44000611Y37661374D01*
X43899272Y37509709D01*
X43770291Y37380728D01*
X43618626Y37279389D01*
X43450104Y37209585D01*
X43271203Y37174000D01*
X43088797Y37174000D01*
X42909896Y37209585D01*
X42741374Y37279389D01*
X42589709Y37380728D01*
X42460728Y37509709D01*
X42359389Y37661374D01*
X42289585Y37829896D01*
X42254000Y38008797D01*
X42254000Y38191203D01*
X42289585Y38370104D01*
X42359389Y38538626D01*
X42460728Y38690291D01*
X42589709Y38819272D01*
X42741374Y38920611D01*
X42909896Y38990415D01*
X43088797Y39026000D01*
X43271203Y39026000D01*
X43450104Y38990415D01*
G37*
G36*
X33290104Y38990415D02*
G01*
X33458626Y38920611D01*
X33610291Y38819272D01*
X33739272Y38690291D01*
X33840611Y38538626D01*
X33910415Y38370104D01*
X33946000Y38191203D01*
X33946000Y38008797D01*
X33910415Y37829896D01*
X33840611Y37661374D01*
X33739272Y37509709D01*
X33610291Y37380728D01*
X33458626Y37279389D01*
X33290104Y37209585D01*
X33111203Y37174000D01*
X32928797Y37174000D01*
X32749896Y37209585D01*
X32581374Y37279389D01*
X32429709Y37380728D01*
X32300728Y37509709D01*
X32199389Y37661374D01*
X32129585Y37829896D01*
X32094000Y38008797D01*
X32094000Y38191203D01*
X32129585Y38370104D01*
X32199389Y38538626D01*
X32300728Y38690291D01*
X32429709Y38819272D01*
X32581374Y38920611D01*
X32749896Y38990415D01*
X32928797Y39026000D01*
X33111203Y39026000D01*
X33290104Y38990415D01*
G37*
G36*
X24400104Y38990415D02*
G01*
X24568626Y38920611D01*
X24720291Y38819272D01*
X24849272Y38690291D01*
X24950611Y38538626D01*
X25020415Y38370104D01*
X25056000Y38191203D01*
X25056000Y38008797D01*
X25020415Y37829896D01*
X24950611Y37661374D01*
X24849272Y37509709D01*
X24720291Y37380728D01*
X24568626Y37279389D01*
X24400104Y37209585D01*
X24221203Y37174000D01*
X24038797Y37174000D01*
X23859896Y37209585D01*
X23691374Y37279389D01*
X23539709Y37380728D01*
X23410728Y37509709D01*
X23309389Y37661374D01*
X23239585Y37829896D01*
X23204000Y38008797D01*
X23204000Y38191203D01*
X23239585Y38370104D01*
X23309389Y38538626D01*
X23410728Y38690291D01*
X23539709Y38819272D01*
X23691374Y38920611D01*
X23859896Y38990415D01*
X24038797Y39026000D01*
X24221203Y39026000D01*
X24400104Y38990415D01*
G37*
G36*
X62500104Y38990415D02*
G01*
X62668626Y38920611D01*
X62820291Y38819272D01*
X62949272Y38690291D01*
X63050611Y38538626D01*
X63120415Y38370104D01*
X63156000Y38191203D01*
X63156000Y38008797D01*
X63120415Y37829896D01*
X63050611Y37661374D01*
X62949272Y37509709D01*
X62820291Y37380728D01*
X62668626Y37279389D01*
X62500104Y37209585D01*
X62321203Y37174000D01*
X62138797Y37174000D01*
X61959896Y37209585D01*
X61791374Y37279389D01*
X61639709Y37380728D01*
X61510728Y37509709D01*
X61409389Y37661374D01*
X61339585Y37829896D01*
X61304000Y38008797D01*
X61304000Y38191203D01*
X61339585Y38370104D01*
X61409389Y38538626D01*
X61510728Y38690291D01*
X61639709Y38819272D01*
X61791374Y38920611D01*
X61959896Y38990415D01*
X62138797Y39026000D01*
X62321203Y39026000D01*
X62500104Y38990415D01*
G37*
G36*
X52340104Y38990415D02*
G01*
X52508626Y38920611D01*
X52660291Y38819272D01*
X52789272Y38690291D01*
X52890611Y38538626D01*
X52960415Y38370104D01*
X52996000Y38191203D01*
X52996000Y38008797D01*
X52960415Y37829896D01*
X52890611Y37661374D01*
X52789272Y37509709D01*
X52660291Y37380728D01*
X52508626Y37279389D01*
X52340104Y37209585D01*
X52161203Y37174000D01*
X51978797Y37174000D01*
X51799896Y37209585D01*
X51631374Y37279389D01*
X51479709Y37380728D01*
X51350728Y37509709D01*
X51249389Y37661374D01*
X51179585Y37829896D01*
X51144000Y38008797D01*
X51144000Y38191203D01*
X51179585Y38370104D01*
X51249389Y38538626D01*
X51350728Y38690291D01*
X51479709Y38819272D01*
X51631374Y38920611D01*
X51799896Y38990415D01*
X51978797Y39026000D01*
X52161203Y39026000D01*
X52340104Y38990415D01*
G37*
G36*
X81550104Y38990415D02*
G01*
X81718626Y38920611D01*
X81870291Y38819272D01*
X81999272Y38690291D01*
X82100611Y38538626D01*
X82170415Y38370104D01*
X82206000Y38191203D01*
X82206000Y38008797D01*
X82170415Y37829896D01*
X82100611Y37661374D01*
X81999272Y37509709D01*
X81870291Y37380728D01*
X81718626Y37279389D01*
X81550104Y37209585D01*
X81371203Y37174000D01*
X81188797Y37174000D01*
X81009896Y37209585D01*
X80841374Y37279389D01*
X80689709Y37380728D01*
X80560728Y37509709D01*
X80459389Y37661374D01*
X80389585Y37829896D01*
X80354000Y38008797D01*
X80354000Y38191203D01*
X80389585Y38370104D01*
X80459389Y38538626D01*
X80560728Y38690291D01*
X80689709Y38819272D01*
X80841374Y38920611D01*
X81009896Y38990415D01*
X81188797Y39026000D01*
X81371203Y39026000D01*
X81550104Y38990415D01*
G37*
G36*
X71390104Y38990415D02*
G01*
X71558626Y38920611D01*
X71710291Y38819272D01*
X71839272Y38690291D01*
X71940611Y38538626D01*
X72010415Y38370104D01*
X72046000Y38191203D01*
X72046000Y38008797D01*
X72010415Y37829896D01*
X71940611Y37661374D01*
X71839272Y37509709D01*
X71710291Y37380728D01*
X71558626Y37279389D01*
X71390104Y37209585D01*
X71211203Y37174000D01*
X71028797Y37174000D01*
X70849896Y37209585D01*
X70681374Y37279389D01*
X70529709Y37380728D01*
X70400728Y37509709D01*
X70299389Y37661374D01*
X70229585Y37829896D01*
X70194000Y38008797D01*
X70194000Y38191203D01*
X70229585Y38370104D01*
X70299389Y38538626D01*
X70400728Y38690291D01*
X70529709Y38819272D01*
X70681374Y38920611D01*
X70849896Y38990415D01*
X71028797Y39026000D01*
X71211203Y39026000D01*
X71390104Y38990415D01*
G37*
G36*
X134544750Y50367750D02*
G01*
X131442750Y50367750D01*
X131442750Y52969750D01*
X134544750Y52969750D01*
X134544750Y50367750D01*
G37*
G36*
X126300314Y55779361D02*
G01*
X126491583Y55700135D01*
X126491585Y55700134D01*
X126663723Y55585115D01*
X126810115Y55438723D01*
X126877528Y55337833D01*
X126925135Y55266583D01*
X127004361Y55075314D01*
X127044750Y54872266D01*
X127044750Y54665234D01*
X127004361Y54462186D01*
X126925135Y54270917D01*
X126925134Y54270915D01*
X126810115Y54098777D01*
X126663723Y53952385D01*
X126491585Y53837366D01*
X126491584Y53837365D01*
X126491583Y53837365D01*
X126300314Y53758139D01*
X126097266Y53717750D01*
X125890234Y53717750D01*
X125687186Y53758139D01*
X125495917Y53837365D01*
X125495916Y53837365D01*
X125495915Y53837366D01*
X125323777Y53952385D01*
X125177385Y54098777D01*
X125062366Y54270915D01*
X125062365Y54270917D01*
X124983139Y54462186D01*
X124942750Y54665234D01*
X124942750Y54872266D01*
X124983139Y55075314D01*
X125062365Y55266583D01*
X125109973Y55337833D01*
X125177385Y55438723D01*
X125323777Y55585115D01*
X125495915Y55700134D01*
X125495917Y55700135D01*
X125687186Y55779361D01*
X125890234Y55819750D01*
X126097266Y55819750D01*
X126300314Y55779361D01*
G37*
G36*
X141544750Y53717750D02*
G01*
X139442750Y53717750D01*
X139442750Y55819750D01*
X141544750Y55819750D01*
X141544750Y53717750D01*
G37*
G36*
X38696474Y59116316D02*
G01*
X38914474Y59026017D01*
X39068623Y58962167D01*
X39403548Y58738377D01*
X39688377Y58453548D01*
X39912167Y58118623D01*
X39944562Y58040414D01*
X40066316Y57746474D01*
X40144900Y57351406D01*
X40144900Y56948594D01*
X40066316Y56553526D01*
X40015451Y56430728D01*
X39912167Y56181377D01*
X39688377Y55846452D01*
X39403548Y55561623D01*
X39068623Y55337833D01*
X38914474Y55273983D01*
X38696474Y55183684D01*
X38301406Y55105100D01*
X37898594Y55105100D01*
X37503526Y55183684D01*
X37285526Y55273983D01*
X37131377Y55337833D01*
X36796452Y55561623D01*
X36511623Y55846452D01*
X36287833Y56181377D01*
X36184549Y56430728D01*
X36133684Y56553526D01*
X36055100Y56948594D01*
X36055100Y57351406D01*
X36133684Y57746474D01*
X36255438Y58040414D01*
X36287833Y58118623D01*
X36511623Y58453548D01*
X36796452Y58738377D01*
X37131377Y58962167D01*
X37285526Y59026017D01*
X37503526Y59116316D01*
X37898594Y59194900D01*
X38301406Y59194900D01*
X38696474Y59116316D01*
G37*
G36*
X19646474Y59116316D02*
G01*
X19864474Y59026017D01*
X20018623Y58962167D01*
X20353548Y58738377D01*
X20638377Y58453548D01*
X20862167Y58118623D01*
X20894562Y58040414D01*
X21016316Y57746474D01*
X21094900Y57351406D01*
X21094900Y56948594D01*
X21016316Y56553526D01*
X20965451Y56430728D01*
X20862167Y56181377D01*
X20638377Y55846452D01*
X20353548Y55561623D01*
X20018623Y55337833D01*
X19864474Y55273983D01*
X19646474Y55183684D01*
X19251406Y55105100D01*
X18848594Y55105100D01*
X18453526Y55183684D01*
X18235526Y55273983D01*
X18081377Y55337833D01*
X17746452Y55561623D01*
X17461623Y55846452D01*
X17237833Y56181377D01*
X17134549Y56430728D01*
X17083684Y56553526D01*
X17005100Y56948594D01*
X17005100Y57351406D01*
X17083684Y57746474D01*
X17205438Y58040414D01*
X17237833Y58118623D01*
X17461623Y58453548D01*
X17746452Y58738377D01*
X18081377Y58962167D01*
X18235526Y59026017D01*
X18453526Y59116316D01*
X18848594Y59194900D01*
X19251406Y59194900D01*
X19646474Y59116316D01*
G37*
G36*
X57746474Y59116316D02*
G01*
X57964474Y59026017D01*
X58118623Y58962167D01*
X58453548Y58738377D01*
X58738377Y58453548D01*
X58962167Y58118623D01*
X58994562Y58040414D01*
X59116316Y57746474D01*
X59194900Y57351406D01*
X59194900Y56948594D01*
X59116316Y56553526D01*
X59065451Y56430728D01*
X58962167Y56181377D01*
X58738377Y55846452D01*
X58453548Y55561623D01*
X58118623Y55337833D01*
X57964474Y55273983D01*
X57746474Y55183684D01*
X57351406Y55105100D01*
X56948594Y55105100D01*
X56553526Y55183684D01*
X56335526Y55273983D01*
X56181377Y55337833D01*
X55846452Y55561623D01*
X55561623Y55846452D01*
X55337833Y56181377D01*
X55234549Y56430728D01*
X55183684Y56553526D01*
X55105100Y56948594D01*
X55105100Y57351406D01*
X55183684Y57746474D01*
X55305438Y58040414D01*
X55337833Y58118623D01*
X55561623Y58453548D01*
X55846452Y58738377D01*
X56181377Y58962167D01*
X56335526Y59026017D01*
X56553526Y59116316D01*
X56948594Y59194900D01*
X57351406Y59194900D01*
X57746474Y59116316D01*
G37*
G36*
X76796474Y59116316D02*
G01*
X77014474Y59026017D01*
X77168623Y58962167D01*
X77503548Y58738377D01*
X77788377Y58453548D01*
X78012167Y58118623D01*
X78044562Y58040414D01*
X78166316Y57746474D01*
X78244900Y57351406D01*
X78244900Y56948594D01*
X78166316Y56553526D01*
X78115451Y56430728D01*
X78012167Y56181377D01*
X77788377Y55846452D01*
X77503548Y55561623D01*
X77168623Y55337833D01*
X77014474Y55273983D01*
X76796474Y55183684D01*
X76401406Y55105100D01*
X75998594Y55105100D01*
X75603526Y55183684D01*
X75385526Y55273983D01*
X75231377Y55337833D01*
X74896452Y55561623D01*
X74611623Y55846452D01*
X74387833Y56181377D01*
X74284549Y56430728D01*
X74233684Y56553526D01*
X74155100Y56948594D01*
X74155100Y57351406D01*
X74233684Y57746474D01*
X74355438Y58040414D01*
X74387833Y58118623D01*
X74611623Y58453548D01*
X74896452Y58738377D01*
X75231377Y58962167D01*
X75385526Y59026017D01*
X75603526Y59116316D01*
X75998594Y59194900D01*
X76401406Y59194900D01*
X76796474Y59116316D01*
G37*
G36*
X95846474Y59116316D02*
G01*
X96064474Y59026017D01*
X96218623Y58962167D01*
X96553548Y58738377D01*
X96838377Y58453548D01*
X97062167Y58118623D01*
X97094562Y58040414D01*
X97216316Y57746474D01*
X97294900Y57351406D01*
X97294900Y56948594D01*
X97216316Y56553526D01*
X97165451Y56430728D01*
X97062167Y56181377D01*
X96838377Y55846452D01*
X96553548Y55561623D01*
X96218623Y55337833D01*
X96064474Y55273983D01*
X95846474Y55183684D01*
X95451406Y55105100D01*
X95048594Y55105100D01*
X94653526Y55183684D01*
X94435526Y55273983D01*
X94281377Y55337833D01*
X93946452Y55561623D01*
X93661623Y55846452D01*
X93437833Y56181377D01*
X93334549Y56430728D01*
X93283684Y56553526D01*
X93205100Y56948594D01*
X93205100Y57351406D01*
X93283684Y57746474D01*
X93405438Y58040414D01*
X93437833Y58118623D01*
X93661623Y58453548D01*
X93946452Y58738377D01*
X94281377Y58962167D01*
X94435526Y59026017D01*
X94653526Y59116316D01*
X95048594Y59194900D01*
X95451406Y59194900D01*
X95846474Y59116316D01*
G37*
G36*
X140800314Y58279361D02*
G01*
X140991583Y58200135D01*
X140991585Y58200134D01*
X141113575Y58118623D01*
X141163723Y58085115D01*
X141310115Y57938723D01*
X141425135Y57766583D01*
X141504361Y57575314D01*
X141544750Y57372266D01*
X141544750Y57165234D01*
X141504361Y56962186D01*
X141470275Y56879896D01*
X141425134Y56770915D01*
X141310115Y56598777D01*
X141163723Y56452385D01*
X140991585Y56337366D01*
X140991584Y56337365D01*
X140991583Y56337365D01*
X140800314Y56258139D01*
X140597266Y56217750D01*
X140390234Y56217750D01*
X140187186Y56258139D01*
X139995917Y56337365D01*
X139995916Y56337365D01*
X139995915Y56337366D01*
X139823777Y56452385D01*
X139677385Y56598777D01*
X139562366Y56770915D01*
X139517225Y56879896D01*
X139483139Y56962186D01*
X139442750Y57165234D01*
X139442750Y57372266D01*
X139483139Y57575314D01*
X139562365Y57766583D01*
X139677385Y57938723D01*
X139823777Y58085115D01*
X139873925Y58118623D01*
X139995915Y58200134D01*
X139995917Y58200135D01*
X140187186Y58279361D01*
X140390234Y58319750D01*
X140597266Y58319750D01*
X140800314Y58279361D01*
G37*
G36*
X90440104Y58040415D02*
G01*
X90608626Y57970611D01*
X90760291Y57869272D01*
X90889272Y57740291D01*
X90990611Y57588626D01*
X91060415Y57420104D01*
X91096000Y57241203D01*
X91096000Y57058797D01*
X91060415Y56879896D01*
X90990611Y56711374D01*
X90889272Y56559709D01*
X90760291Y56430728D01*
X90608626Y56329389D01*
X90440104Y56259585D01*
X90261203Y56224000D01*
X90078797Y56224000D01*
X89899896Y56259585D01*
X89731374Y56329389D01*
X89579709Y56430728D01*
X89450728Y56559709D01*
X89349389Y56711374D01*
X89279585Y56879896D01*
X89244000Y57058797D01*
X89244000Y57241203D01*
X89279585Y57420104D01*
X89349389Y57588626D01*
X89450728Y57740291D01*
X89579709Y57869272D01*
X89731374Y57970611D01*
X89899896Y58040415D01*
X90078797Y58076000D01*
X90261203Y58076000D01*
X90440104Y58040415D01*
G37*
G36*
X100600104Y58040415D02*
G01*
X100768626Y57970611D01*
X100920291Y57869272D01*
X101049272Y57740291D01*
X101150611Y57588626D01*
X101220415Y57420104D01*
X101256000Y57241203D01*
X101256000Y57058797D01*
X101220415Y56879896D01*
X101150611Y56711374D01*
X101049272Y56559709D01*
X100920291Y56430728D01*
X100768626Y56329389D01*
X100600104Y56259585D01*
X100421203Y56224000D01*
X100238797Y56224000D01*
X100059896Y56259585D01*
X99891374Y56329389D01*
X99739709Y56430728D01*
X99610728Y56559709D01*
X99509389Y56711374D01*
X99439585Y56879896D01*
X99404000Y57058797D01*
X99404000Y57241203D01*
X99439585Y57420104D01*
X99509389Y57588626D01*
X99610728Y57740291D01*
X99739709Y57869272D01*
X99891374Y57970611D01*
X100059896Y58040415D01*
X100238797Y58076000D01*
X100421203Y58076000D01*
X100600104Y58040415D01*
G37*
G36*
X71390104Y58040415D02*
G01*
X71558626Y57970611D01*
X71710291Y57869272D01*
X71839272Y57740291D01*
X71940611Y57588626D01*
X72010415Y57420104D01*
X72046000Y57241203D01*
X72046000Y57058797D01*
X72010415Y56879896D01*
X71940611Y56711374D01*
X71839272Y56559709D01*
X71710291Y56430728D01*
X71558626Y56329389D01*
X71390104Y56259585D01*
X71211203Y56224000D01*
X71028797Y56224000D01*
X70849896Y56259585D01*
X70681374Y56329389D01*
X70529709Y56430728D01*
X70400728Y56559709D01*
X70299389Y56711374D01*
X70229585Y56879896D01*
X70194000Y57058797D01*
X70194000Y57241203D01*
X70229585Y57420104D01*
X70299389Y57588626D01*
X70400728Y57740291D01*
X70529709Y57869272D01*
X70681374Y57970611D01*
X70849896Y58040415D01*
X71028797Y58076000D01*
X71211203Y58076000D01*
X71390104Y58040415D01*
G37*
G36*
X81550104Y58040415D02*
G01*
X81718626Y57970611D01*
X81870291Y57869272D01*
X81999272Y57740291D01*
X82100611Y57588626D01*
X82170415Y57420104D01*
X82206000Y57241203D01*
X82206000Y57058797D01*
X82170415Y56879896D01*
X82100611Y56711374D01*
X81999272Y56559709D01*
X81870291Y56430728D01*
X81718626Y56329389D01*
X81550104Y56259585D01*
X81371203Y56224000D01*
X81188797Y56224000D01*
X81009896Y56259585D01*
X80841374Y56329389D01*
X80689709Y56430728D01*
X80560728Y56559709D01*
X80459389Y56711374D01*
X80389585Y56879896D01*
X80354000Y57058797D01*
X80354000Y57241203D01*
X80389585Y57420104D01*
X80459389Y57588626D01*
X80560728Y57740291D01*
X80689709Y57869272D01*
X80841374Y57970611D01*
X81009896Y58040415D01*
X81188797Y58076000D01*
X81371203Y58076000D01*
X81550104Y58040415D01*
G37*
G36*
X52340104Y58040415D02*
G01*
X52508626Y57970611D01*
X52660291Y57869272D01*
X52789272Y57740291D01*
X52890611Y57588626D01*
X52960415Y57420104D01*
X52996000Y57241203D01*
X52996000Y57058797D01*
X52960415Y56879896D01*
X52890611Y56711374D01*
X52789272Y56559709D01*
X52660291Y56430728D01*
X52508626Y56329389D01*
X52340104Y56259585D01*
X52161203Y56224000D01*
X51978797Y56224000D01*
X51799896Y56259585D01*
X51631374Y56329389D01*
X51479709Y56430728D01*
X51350728Y56559709D01*
X51249389Y56711374D01*
X51179585Y56879896D01*
X51144000Y57058797D01*
X51144000Y57241203D01*
X51179585Y57420104D01*
X51249389Y57588626D01*
X51350728Y57740291D01*
X51479709Y57869272D01*
X51631374Y57970611D01*
X51799896Y58040415D01*
X51978797Y58076000D01*
X52161203Y58076000D01*
X52340104Y58040415D01*
G37*
G36*
X24400104Y58040415D02*
G01*
X24568626Y57970611D01*
X24720291Y57869272D01*
X24849272Y57740291D01*
X24950611Y57588626D01*
X25020415Y57420104D01*
X25056000Y57241203D01*
X25056000Y57058797D01*
X25020415Y56879896D01*
X24950611Y56711374D01*
X24849272Y56559709D01*
X24720291Y56430728D01*
X24568626Y56329389D01*
X24400104Y56259585D01*
X24221203Y56224000D01*
X24038797Y56224000D01*
X23859896Y56259585D01*
X23691374Y56329389D01*
X23539709Y56430728D01*
X23410728Y56559709D01*
X23309389Y56711374D01*
X23239585Y56879896D01*
X23204000Y57058797D01*
X23204000Y57241203D01*
X23239585Y57420104D01*
X23309389Y57588626D01*
X23410728Y57740291D01*
X23539709Y57869272D01*
X23691374Y57970611D01*
X23859896Y58040415D01*
X24038797Y58076000D01*
X24221203Y58076000D01*
X24400104Y58040415D01*
G37*
G36*
X62500104Y58040415D02*
G01*
X62668626Y57970611D01*
X62820291Y57869272D01*
X62949272Y57740291D01*
X63050611Y57588626D01*
X63120415Y57420104D01*
X63156000Y57241203D01*
X63156000Y57058797D01*
X63120415Y56879896D01*
X63050611Y56711374D01*
X62949272Y56559709D01*
X62820291Y56430728D01*
X62668626Y56329389D01*
X62500104Y56259585D01*
X62321203Y56224000D01*
X62138797Y56224000D01*
X61959896Y56259585D01*
X61791374Y56329389D01*
X61639709Y56430728D01*
X61510728Y56559709D01*
X61409389Y56711374D01*
X61339585Y56879896D01*
X61304000Y57058797D01*
X61304000Y57241203D01*
X61339585Y57420104D01*
X61409389Y57588626D01*
X61510728Y57740291D01*
X61639709Y57869272D01*
X61791374Y57970611D01*
X61959896Y58040415D01*
X62138797Y58076000D01*
X62321203Y58076000D01*
X62500104Y58040415D01*
G37*
G36*
X43450104Y58040415D02*
G01*
X43618626Y57970611D01*
X43770291Y57869272D01*
X43899272Y57740291D01*
X44000611Y57588626D01*
X44070415Y57420104D01*
X44106000Y57241203D01*
X44106000Y57058797D01*
X44070415Y56879896D01*
X44000611Y56711374D01*
X43899272Y56559709D01*
X43770291Y56430728D01*
X43618626Y56329389D01*
X43450104Y56259585D01*
X43271203Y56224000D01*
X43088797Y56224000D01*
X42909896Y56259585D01*
X42741374Y56329389D01*
X42589709Y56430728D01*
X42460728Y56559709D01*
X42359389Y56711374D01*
X42289585Y56879896D01*
X42254000Y57058797D01*
X42254000Y57241203D01*
X42289585Y57420104D01*
X42359389Y57588626D01*
X42460728Y57740291D01*
X42589709Y57869272D01*
X42741374Y57970611D01*
X42909896Y58040415D01*
X43088797Y58076000D01*
X43271203Y58076000D01*
X43450104Y58040415D01*
G37*
G36*
X33290104Y58040415D02*
G01*
X33458626Y57970611D01*
X33610291Y57869272D01*
X33739272Y57740291D01*
X33840611Y57588626D01*
X33910415Y57420104D01*
X33946000Y57241203D01*
X33946000Y57058797D01*
X33910415Y56879896D01*
X33840611Y56711374D01*
X33739272Y56559709D01*
X33610291Y56430728D01*
X33458626Y56329389D01*
X33290104Y56259585D01*
X33111203Y56224000D01*
X32928797Y56224000D01*
X32749896Y56259585D01*
X32581374Y56329389D01*
X32429709Y56430728D01*
X32300728Y56559709D01*
X32199389Y56711374D01*
X32129585Y56879896D01*
X32094000Y57058797D01*
X32094000Y57241203D01*
X32129585Y57420104D01*
X32199389Y57588626D01*
X32300728Y57740291D01*
X32429709Y57869272D01*
X32581374Y57970611D01*
X32749896Y58040415D01*
X32928797Y58076000D01*
X33111203Y58076000D01*
X33290104Y58040415D01*
G37*
G36*
X14240104Y58040415D02*
G01*
X14408626Y57970611D01*
X14560291Y57869272D01*
X14689272Y57740291D01*
X14790611Y57588626D01*
X14860415Y57420104D01*
X14896000Y57241203D01*
X14896000Y57058797D01*
X14860415Y56879896D01*
X14790611Y56711374D01*
X14689272Y56559709D01*
X14560291Y56430728D01*
X14408626Y56329389D01*
X14240104Y56259585D01*
X14061203Y56224000D01*
X13878797Y56224000D01*
X13699896Y56259585D01*
X13531374Y56329389D01*
X13379709Y56430728D01*
X13250728Y56559709D01*
X13149389Y56711374D01*
X13079585Y56879896D01*
X13044000Y57058797D01*
X13044000Y57241203D01*
X13079585Y57420104D01*
X13149389Y57588626D01*
X13250728Y57740291D01*
X13379709Y57869272D01*
X13531374Y57970611D01*
X13699896Y58040415D01*
X13878797Y58076000D01*
X14061203Y58076000D01*
X14240104Y58040415D01*
G37*
G36*
X140800314Y60779361D02*
G01*
X140991583Y60700135D01*
X140991585Y60700134D01*
X141163723Y60585115D01*
X141310115Y60438723D01*
X141425135Y60266583D01*
X141504361Y60075314D01*
X141544750Y59872266D01*
X141544750Y59665234D01*
X141504361Y59462186D01*
X141425135Y59270917D01*
X141425134Y59270915D01*
X141310115Y59098777D01*
X141163723Y58952385D01*
X140991585Y58837366D01*
X140991584Y58837365D01*
X140991583Y58837365D01*
X140800314Y58758139D01*
X140597266Y58717750D01*
X140390234Y58717750D01*
X140187186Y58758139D01*
X139995917Y58837365D01*
X139995916Y58837365D01*
X139995915Y58837366D01*
X139823777Y58952385D01*
X139677385Y59098777D01*
X139562366Y59270915D01*
X139562365Y59270917D01*
X139483139Y59462186D01*
X139442750Y59665234D01*
X139442750Y59872266D01*
X139483139Y60075314D01*
X139562365Y60266583D01*
X139677385Y60438723D01*
X139823777Y60585115D01*
X139995915Y60700134D01*
X139995917Y60700135D01*
X140187186Y60779361D01*
X140390234Y60819750D01*
X140597266Y60819750D01*
X140800314Y60779361D01*
G37*
G36*
X126300314Y60779361D02*
G01*
X126491583Y60700135D01*
X126491585Y60700134D01*
X126663723Y60585115D01*
X126810115Y60438723D01*
X126925135Y60266583D01*
X127004361Y60075314D01*
X127044750Y59872266D01*
X127044750Y59665234D01*
X127004361Y59462186D01*
X126925135Y59270917D01*
X126925134Y59270915D01*
X126810115Y59098777D01*
X126663723Y58952385D01*
X126491585Y58837366D01*
X126491584Y58837365D01*
X126491583Y58837365D01*
X126300314Y58758139D01*
X126097266Y58717750D01*
X125890234Y58717750D01*
X125687186Y58758139D01*
X125495917Y58837365D01*
X125495916Y58837365D01*
X125495915Y58837366D01*
X125323777Y58952385D01*
X125177385Y59098777D01*
X125062366Y59270915D01*
X125062365Y59270917D01*
X124983139Y59462186D01*
X124942750Y59665234D01*
X124942750Y59872266D01*
X124983139Y60075314D01*
X125062365Y60266583D01*
X125177385Y60438723D01*
X125323777Y60585115D01*
X125495915Y60700134D01*
X125495917Y60700135D01*
X125687186Y60779361D01*
X125890234Y60819750D01*
X126097266Y60819750D01*
X126300314Y60779361D01*
G37*
G36*
X134544750Y61567750D02*
G01*
X131442750Y61567750D01*
X131442750Y64169750D01*
X134544750Y64169750D01*
X134544750Y61567750D01*
G37*
G36*
X114896474Y78166316D02*
G01*
X115114474Y78076017D01*
X115268623Y78012167D01*
X115603548Y77788377D01*
X115888377Y77503548D01*
X116112167Y77168623D01*
X116144562Y77090414D01*
X116266316Y76796474D01*
X116344900Y76401406D01*
X116344900Y75998594D01*
X116266316Y75603526D01*
X116215451Y75480728D01*
X116112167Y75231377D01*
X115888377Y74896452D01*
X115603548Y74611623D01*
X115268623Y74387833D01*
X115114474Y74323983D01*
X114896474Y74233684D01*
X114501406Y74155100D01*
X114098594Y74155100D01*
X113703526Y74233684D01*
X113485526Y74323983D01*
X113331377Y74387833D01*
X112996452Y74611623D01*
X112711623Y74896452D01*
X112487833Y75231377D01*
X112384549Y75480728D01*
X112333684Y75603526D01*
X112255100Y75998594D01*
X112255100Y76401406D01*
X112333684Y76796474D01*
X112455438Y77090414D01*
X112487833Y77168623D01*
X112711623Y77503548D01*
X112996452Y77788377D01*
X113331377Y78012167D01*
X113485526Y78076017D01*
X113703526Y78166316D01*
X114098594Y78244900D01*
X114501406Y78244900D01*
X114896474Y78166316D01*
G37*
G36*
X19646474Y78166316D02*
G01*
X19864474Y78076017D01*
X20018623Y78012167D01*
X20353548Y77788377D01*
X20638377Y77503548D01*
X20862167Y77168623D01*
X20894562Y77090414D01*
X21016316Y76796474D01*
X21094900Y76401406D01*
X21094900Y75998594D01*
X21016316Y75603526D01*
X20965451Y75480728D01*
X20862167Y75231377D01*
X20638377Y74896452D01*
X20353548Y74611623D01*
X20018623Y74387833D01*
X19864474Y74323983D01*
X19646474Y74233684D01*
X19251406Y74155100D01*
X18848594Y74155100D01*
X18453526Y74233684D01*
X18235526Y74323983D01*
X18081377Y74387833D01*
X17746452Y74611623D01*
X17461623Y74896452D01*
X17237833Y75231377D01*
X17134549Y75480728D01*
X17083684Y75603526D01*
X17005100Y75998594D01*
X17005100Y76401406D01*
X17083684Y76796474D01*
X17205438Y77090414D01*
X17237833Y77168623D01*
X17461623Y77503548D01*
X17746452Y77788377D01*
X18081377Y78012167D01*
X18235526Y78076017D01*
X18453526Y78166316D01*
X18848594Y78244900D01*
X19251406Y78244900D01*
X19646474Y78166316D01*
G37*
G36*
X38696474Y78166316D02*
G01*
X38914474Y78076017D01*
X39068623Y78012167D01*
X39403548Y77788377D01*
X39688377Y77503548D01*
X39912167Y77168623D01*
X39944562Y77090414D01*
X40066316Y76796474D01*
X40144900Y76401406D01*
X40144900Y75998594D01*
X40066316Y75603526D01*
X40015451Y75480728D01*
X39912167Y75231377D01*
X39688377Y74896452D01*
X39403548Y74611623D01*
X39068623Y74387833D01*
X38914474Y74323983D01*
X38696474Y74233684D01*
X38301406Y74155100D01*
X37898594Y74155100D01*
X37503526Y74233684D01*
X37285526Y74323983D01*
X37131377Y74387833D01*
X36796452Y74611623D01*
X36511623Y74896452D01*
X36287833Y75231377D01*
X36184549Y75480728D01*
X36133684Y75603526D01*
X36055100Y75998594D01*
X36055100Y76401406D01*
X36133684Y76796474D01*
X36255438Y77090414D01*
X36287833Y77168623D01*
X36511623Y77503548D01*
X36796452Y77788377D01*
X37131377Y78012167D01*
X37285526Y78076017D01*
X37503526Y78166316D01*
X37898594Y78244900D01*
X38301406Y78244900D01*
X38696474Y78166316D01*
G37*
G36*
X95846474Y78166316D02*
G01*
X96064474Y78076017D01*
X96218623Y78012167D01*
X96553548Y77788377D01*
X96838377Y77503548D01*
X97062167Y77168623D01*
X97094562Y77090414D01*
X97216316Y76796474D01*
X97294900Y76401406D01*
X97294900Y75998594D01*
X97216316Y75603526D01*
X97165451Y75480728D01*
X97062167Y75231377D01*
X96838377Y74896452D01*
X96553548Y74611623D01*
X96218623Y74387833D01*
X96064474Y74323983D01*
X95846474Y74233684D01*
X95451406Y74155100D01*
X95048594Y74155100D01*
X94653526Y74233684D01*
X94435526Y74323983D01*
X94281377Y74387833D01*
X93946452Y74611623D01*
X93661623Y74896452D01*
X93437833Y75231377D01*
X93334549Y75480728D01*
X93283684Y75603526D01*
X93205100Y75998594D01*
X93205100Y76401406D01*
X93283684Y76796474D01*
X93405438Y77090414D01*
X93437833Y77168623D01*
X93661623Y77503548D01*
X93946452Y77788377D01*
X94281377Y78012167D01*
X94435526Y78076017D01*
X94653526Y78166316D01*
X95048594Y78244900D01*
X95451406Y78244900D01*
X95846474Y78166316D01*
G37*
G36*
X57746474Y78166316D02*
G01*
X57964474Y78076017D01*
X58118623Y78012167D01*
X58453548Y77788377D01*
X58738377Y77503548D01*
X58962167Y77168623D01*
X58994562Y77090414D01*
X59116316Y76796474D01*
X59194900Y76401406D01*
X59194900Y75998594D01*
X59116316Y75603526D01*
X59065451Y75480728D01*
X58962167Y75231377D01*
X58738377Y74896452D01*
X58453548Y74611623D01*
X58118623Y74387833D01*
X57964474Y74323983D01*
X57746474Y74233684D01*
X57351406Y74155100D01*
X56948594Y74155100D01*
X56553526Y74233684D01*
X56335526Y74323983D01*
X56181377Y74387833D01*
X55846452Y74611623D01*
X55561623Y74896452D01*
X55337833Y75231377D01*
X55234549Y75480728D01*
X55183684Y75603526D01*
X55105100Y75998594D01*
X55105100Y76401406D01*
X55183684Y76796474D01*
X55305438Y77090414D01*
X55337833Y77168623D01*
X55561623Y77503548D01*
X55846452Y77788377D01*
X56181377Y78012167D01*
X56335526Y78076017D01*
X56553526Y78166316D01*
X56948594Y78244900D01*
X57351406Y78244900D01*
X57746474Y78166316D01*
G37*
G36*
X76796474Y78166316D02*
G01*
X77014474Y78076017D01*
X77168623Y78012167D01*
X77503548Y77788377D01*
X77788377Y77503548D01*
X78012167Y77168623D01*
X78044562Y77090414D01*
X78166316Y76796474D01*
X78244900Y76401406D01*
X78244900Y75998594D01*
X78166316Y75603526D01*
X78115451Y75480728D01*
X78012167Y75231377D01*
X77788377Y74896452D01*
X77503548Y74611623D01*
X77168623Y74387833D01*
X77014474Y74323983D01*
X76796474Y74233684D01*
X76401406Y74155100D01*
X75998594Y74155100D01*
X75603526Y74233684D01*
X75385526Y74323983D01*
X75231377Y74387833D01*
X74896452Y74611623D01*
X74611623Y74896452D01*
X74387833Y75231377D01*
X74284549Y75480728D01*
X74233684Y75603526D01*
X74155100Y75998594D01*
X74155100Y76401406D01*
X74233684Y76796474D01*
X74355438Y77090414D01*
X74387833Y77168623D01*
X74611623Y77503548D01*
X74896452Y77788377D01*
X75231377Y78012167D01*
X75385526Y78076017D01*
X75603526Y78166316D01*
X75998594Y78244900D01*
X76401406Y78244900D01*
X76796474Y78166316D01*
G37*
G36*
X52340104Y77090415D02*
G01*
X52508626Y77020611D01*
X52660291Y76919272D01*
X52789272Y76790291D01*
X52890611Y76638626D01*
X52960415Y76470104D01*
X52996000Y76291203D01*
X52996000Y76108797D01*
X52960415Y75929896D01*
X52890611Y75761374D01*
X52789272Y75609709D01*
X52660291Y75480728D01*
X52508626Y75379389D01*
X52340104Y75309585D01*
X52161203Y75274000D01*
X51978797Y75274000D01*
X51799896Y75309585D01*
X51631374Y75379389D01*
X51479709Y75480728D01*
X51350728Y75609709D01*
X51249389Y75761374D01*
X51179585Y75929896D01*
X51144000Y76108797D01*
X51144000Y76291203D01*
X51179585Y76470104D01*
X51249389Y76638626D01*
X51350728Y76790291D01*
X51479709Y76919272D01*
X51631374Y77020611D01*
X51799896Y77090415D01*
X51978797Y77126000D01*
X52161203Y77126000D01*
X52340104Y77090415D01*
G37*
G36*
X62500104Y77090415D02*
G01*
X62668626Y77020611D01*
X62820291Y76919272D01*
X62949272Y76790291D01*
X63050611Y76638626D01*
X63120415Y76470104D01*
X63156000Y76291203D01*
X63156000Y76108797D01*
X63120415Y75929896D01*
X63050611Y75761374D01*
X62949272Y75609709D01*
X62820291Y75480728D01*
X62668626Y75379389D01*
X62500104Y75309585D01*
X62321203Y75274000D01*
X62138797Y75274000D01*
X61959896Y75309585D01*
X61791374Y75379389D01*
X61639709Y75480728D01*
X61510728Y75609709D01*
X61409389Y75761374D01*
X61339585Y75929896D01*
X61304000Y76108797D01*
X61304000Y76291203D01*
X61339585Y76470104D01*
X61409389Y76638626D01*
X61510728Y76790291D01*
X61639709Y76919272D01*
X61791374Y77020611D01*
X61959896Y77090415D01*
X62138797Y77126000D01*
X62321203Y77126000D01*
X62500104Y77090415D01*
G37*
G36*
X81550104Y77090415D02*
G01*
X81718626Y77020611D01*
X81870291Y76919272D01*
X81999272Y76790291D01*
X82100611Y76638626D01*
X82170415Y76470104D01*
X82206000Y76291203D01*
X82206000Y76108797D01*
X82170415Y75929896D01*
X82100611Y75761374D01*
X81999272Y75609709D01*
X81870291Y75480728D01*
X81718626Y75379389D01*
X81550104Y75309585D01*
X81371203Y75274000D01*
X81188797Y75274000D01*
X81009896Y75309585D01*
X80841374Y75379389D01*
X80689709Y75480728D01*
X80560728Y75609709D01*
X80459389Y75761374D01*
X80389585Y75929896D01*
X80354000Y76108797D01*
X80354000Y76291203D01*
X80389585Y76470104D01*
X80459389Y76638626D01*
X80560728Y76790291D01*
X80689709Y76919272D01*
X80841374Y77020611D01*
X81009896Y77090415D01*
X81188797Y77126000D01*
X81371203Y77126000D01*
X81550104Y77090415D01*
G37*
G36*
X33290104Y77090415D02*
G01*
X33458626Y77020611D01*
X33610291Y76919272D01*
X33739272Y76790291D01*
X33840611Y76638626D01*
X33910415Y76470104D01*
X33946000Y76291203D01*
X33946000Y76108797D01*
X33910415Y75929896D01*
X33840611Y75761374D01*
X33739272Y75609709D01*
X33610291Y75480728D01*
X33458626Y75379389D01*
X33290104Y75309585D01*
X33111203Y75274000D01*
X32928797Y75274000D01*
X32749896Y75309585D01*
X32581374Y75379389D01*
X32429709Y75480728D01*
X32300728Y75609709D01*
X32199389Y75761374D01*
X32129585Y75929896D01*
X32094000Y76108797D01*
X32094000Y76291203D01*
X32129585Y76470104D01*
X32199389Y76638626D01*
X32300728Y76790291D01*
X32429709Y76919272D01*
X32581374Y77020611D01*
X32749896Y77090415D01*
X32928797Y77126000D01*
X33111203Y77126000D01*
X33290104Y77090415D01*
G37*
G36*
X43450104Y77090415D02*
G01*
X43618626Y77020611D01*
X43770291Y76919272D01*
X43899272Y76790291D01*
X44000611Y76638626D01*
X44070415Y76470104D01*
X44106000Y76291203D01*
X44106000Y76108797D01*
X44070415Y75929896D01*
X44000611Y75761374D01*
X43899272Y75609709D01*
X43770291Y75480728D01*
X43618626Y75379389D01*
X43450104Y75309585D01*
X43271203Y75274000D01*
X43088797Y75274000D01*
X42909896Y75309585D01*
X42741374Y75379389D01*
X42589709Y75480728D01*
X42460728Y75609709D01*
X42359389Y75761374D01*
X42289585Y75929896D01*
X42254000Y76108797D01*
X42254000Y76291203D01*
X42289585Y76470104D01*
X42359389Y76638626D01*
X42460728Y76790291D01*
X42589709Y76919272D01*
X42741374Y77020611D01*
X42909896Y77090415D01*
X43088797Y77126000D01*
X43271203Y77126000D01*
X43450104Y77090415D01*
G37*
G36*
X71390104Y77090415D02*
G01*
X71558626Y77020611D01*
X71710291Y76919272D01*
X71839272Y76790291D01*
X71940611Y76638626D01*
X72010415Y76470104D01*
X72046000Y76291203D01*
X72046000Y76108797D01*
X72010415Y75929896D01*
X71940611Y75761374D01*
X71839272Y75609709D01*
X71710291Y75480728D01*
X71558626Y75379389D01*
X71390104Y75309585D01*
X71211203Y75274000D01*
X71028797Y75274000D01*
X70849896Y75309585D01*
X70681374Y75379389D01*
X70529709Y75480728D01*
X70400728Y75609709D01*
X70299389Y75761374D01*
X70229585Y75929896D01*
X70194000Y76108797D01*
X70194000Y76291203D01*
X70229585Y76470104D01*
X70299389Y76638626D01*
X70400728Y76790291D01*
X70529709Y76919272D01*
X70681374Y77020611D01*
X70849896Y77090415D01*
X71028797Y77126000D01*
X71211203Y77126000D01*
X71390104Y77090415D01*
G37*
G36*
X14240104Y77090415D02*
G01*
X14408626Y77020611D01*
X14560291Y76919272D01*
X14689272Y76790291D01*
X14790611Y76638626D01*
X14860415Y76470104D01*
X14896000Y76291203D01*
X14896000Y76108797D01*
X14860415Y75929896D01*
X14790611Y75761374D01*
X14689272Y75609709D01*
X14560291Y75480728D01*
X14408626Y75379389D01*
X14240104Y75309585D01*
X14061203Y75274000D01*
X13878797Y75274000D01*
X13699896Y75309585D01*
X13531374Y75379389D01*
X13379709Y75480728D01*
X13250728Y75609709D01*
X13149389Y75761374D01*
X13079585Y75929896D01*
X13044000Y76108797D01*
X13044000Y76291203D01*
X13079585Y76470104D01*
X13149389Y76638626D01*
X13250728Y76790291D01*
X13379709Y76919272D01*
X13531374Y77020611D01*
X13699896Y77090415D01*
X13878797Y77126000D01*
X14061203Y77126000D01*
X14240104Y77090415D01*
G37*
G36*
X24400104Y77090415D02*
G01*
X24568626Y77020611D01*
X24720291Y76919272D01*
X24849272Y76790291D01*
X24950611Y76638626D01*
X25020415Y76470104D01*
X25056000Y76291203D01*
X25056000Y76108797D01*
X25020415Y75929896D01*
X24950611Y75761374D01*
X24849272Y75609709D01*
X24720291Y75480728D01*
X24568626Y75379389D01*
X24400104Y75309585D01*
X24221203Y75274000D01*
X24038797Y75274000D01*
X23859896Y75309585D01*
X23691374Y75379389D01*
X23539709Y75480728D01*
X23410728Y75609709D01*
X23309389Y75761374D01*
X23239585Y75929896D01*
X23204000Y76108797D01*
X23204000Y76291203D01*
X23239585Y76470104D01*
X23309389Y76638626D01*
X23410728Y76790291D01*
X23539709Y76919272D01*
X23691374Y77020611D01*
X23859896Y77090415D01*
X24038797Y77126000D01*
X24221203Y77126000D01*
X24400104Y77090415D01*
G37*
G36*
X100600104Y77090415D02*
G01*
X100768626Y77020611D01*
X100920291Y76919272D01*
X101049272Y76790291D01*
X101150611Y76638626D01*
X101220415Y76470104D01*
X101256000Y76291203D01*
X101256000Y76108797D01*
X101220415Y75929896D01*
X101150611Y75761374D01*
X101049272Y75609709D01*
X100920291Y75480728D01*
X100768626Y75379389D01*
X100600104Y75309585D01*
X100421203Y75274000D01*
X100238797Y75274000D01*
X100059896Y75309585D01*
X99891374Y75379389D01*
X99739709Y75480728D01*
X99610728Y75609709D01*
X99509389Y75761374D01*
X99439585Y75929896D01*
X99404000Y76108797D01*
X99404000Y76291203D01*
X99439585Y76470104D01*
X99509389Y76638626D01*
X99610728Y76790291D01*
X99739709Y76919272D01*
X99891374Y77020611D01*
X100059896Y77090415D01*
X100238797Y77126000D01*
X100421203Y77126000D01*
X100600104Y77090415D01*
G37*
G36*
X90440104Y77090415D02*
G01*
X90608626Y77020611D01*
X90760291Y76919272D01*
X90889272Y76790291D01*
X90990611Y76638626D01*
X91060415Y76470104D01*
X91096000Y76291203D01*
X91096000Y76108797D01*
X91060415Y75929896D01*
X90990611Y75761374D01*
X90889272Y75609709D01*
X90760291Y75480728D01*
X90608626Y75379389D01*
X90440104Y75309585D01*
X90261203Y75274000D01*
X90078797Y75274000D01*
X89899896Y75309585D01*
X89731374Y75379389D01*
X89579709Y75480728D01*
X89450728Y75609709D01*
X89349389Y75761374D01*
X89279585Y75929896D01*
X89244000Y76108797D01*
X89244000Y76291203D01*
X89279585Y76470104D01*
X89349389Y76638626D01*
X89450728Y76790291D01*
X89579709Y76919272D01*
X89731374Y77020611D01*
X89899896Y77090415D01*
X90078797Y77126000D01*
X90261203Y77126000D01*
X90440104Y77090415D01*
G37*
G36*
X119650104Y77090415D02*
G01*
X119818626Y77020611D01*
X119970291Y76919272D01*
X120099272Y76790291D01*
X120200611Y76638626D01*
X120270415Y76470104D01*
X120306000Y76291203D01*
X120306000Y76108797D01*
X120270415Y75929896D01*
X120200611Y75761374D01*
X120099272Y75609709D01*
X119970291Y75480728D01*
X119818626Y75379389D01*
X119650104Y75309585D01*
X119471203Y75274000D01*
X119288797Y75274000D01*
X119109896Y75309585D01*
X118941374Y75379389D01*
X118789709Y75480728D01*
X118660728Y75609709D01*
X118559389Y75761374D01*
X118489585Y75929896D01*
X118454000Y76108797D01*
X118454000Y76291203D01*
X118489585Y76470104D01*
X118559389Y76638626D01*
X118660728Y76790291D01*
X118789709Y76919272D01*
X118941374Y77020611D01*
X119109896Y77090415D01*
X119288797Y77126000D01*
X119471203Y77126000D01*
X119650104Y77090415D01*
G37*
G36*
X109490104Y77090415D02*
G01*
X109658626Y77020611D01*
X109810291Y76919272D01*
X109939272Y76790291D01*
X110040611Y76638626D01*
X110110415Y76470104D01*
X110146000Y76291203D01*
X110146000Y76108797D01*
X110110415Y75929896D01*
X110040611Y75761374D01*
X109939272Y75609709D01*
X109810291Y75480728D01*
X109658626Y75379389D01*
X109490104Y75309585D01*
X109311203Y75274000D01*
X109128797Y75274000D01*
X108949896Y75309585D01*
X108781374Y75379389D01*
X108629709Y75480728D01*
X108500728Y75609709D01*
X108399389Y75761374D01*
X108329585Y75929896D01*
X108294000Y76108797D01*
X108294000Y76291203D01*
X108329585Y76470104D01*
X108399389Y76638626D01*
X108500728Y76790291D01*
X108629709Y76919272D01*
X108781374Y77020611D01*
X108949896Y77090415D01*
X109128797Y77126000D01*
X109311203Y77126000D01*
X109490104Y77090415D01*
G37*
G36*
X19646474Y97216316D02*
G01*
X19864474Y97126017D01*
X20018623Y97062167D01*
X20353548Y96838377D01*
X20638377Y96553548D01*
X20862167Y96218623D01*
X20894562Y96140414D01*
X21016316Y95846474D01*
X21094900Y95451406D01*
X21094900Y95048594D01*
X21016316Y94653526D01*
X20965451Y94530728D01*
X20862167Y94281377D01*
X20638377Y93946452D01*
X20353548Y93661623D01*
X20018623Y93437833D01*
X19864474Y93373983D01*
X19646474Y93283684D01*
X19251406Y93205100D01*
X18848594Y93205100D01*
X18453526Y93283684D01*
X18235526Y93373983D01*
X18081377Y93437833D01*
X17746452Y93661623D01*
X17461623Y93946452D01*
X17237833Y94281377D01*
X17134549Y94530728D01*
X17083684Y94653526D01*
X17005100Y95048594D01*
X17005100Y95451406D01*
X17083684Y95846474D01*
X17205438Y96140414D01*
X17237833Y96218623D01*
X17461623Y96553548D01*
X17746452Y96838377D01*
X18081377Y97062167D01*
X18235526Y97126017D01*
X18453526Y97216316D01*
X18848594Y97294900D01*
X19251406Y97294900D01*
X19646474Y97216316D01*
G37*
G36*
X133946474Y97216316D02*
G01*
X134164474Y97126017D01*
X134318623Y97062167D01*
X134653548Y96838377D01*
X134938377Y96553548D01*
X135162167Y96218623D01*
X135194562Y96140414D01*
X135316316Y95846474D01*
X135394900Y95451406D01*
X135394900Y95048594D01*
X135316316Y94653526D01*
X135265451Y94530728D01*
X135162167Y94281377D01*
X134938377Y93946452D01*
X134653548Y93661623D01*
X134318623Y93437833D01*
X134164474Y93373983D01*
X133946474Y93283684D01*
X133551406Y93205100D01*
X133148594Y93205100D01*
X132753526Y93283684D01*
X132535526Y93373983D01*
X132381377Y93437833D01*
X132046452Y93661623D01*
X131761623Y93946452D01*
X131537833Y94281377D01*
X131434549Y94530728D01*
X131383684Y94653526D01*
X131305100Y95048594D01*
X131305100Y95451406D01*
X131383684Y95846474D01*
X131505438Y96140414D01*
X131537833Y96218623D01*
X131761623Y96553548D01*
X132046452Y96838377D01*
X132381377Y97062167D01*
X132535526Y97126017D01*
X132753526Y97216316D01*
X133148594Y97294900D01*
X133551406Y97294900D01*
X133946474Y97216316D01*
G37*
G36*
X114896474Y97216316D02*
G01*
X115114474Y97126017D01*
X115268623Y97062167D01*
X115603548Y96838377D01*
X115888377Y96553548D01*
X116112167Y96218623D01*
X116144562Y96140414D01*
X116266316Y95846474D01*
X116344900Y95451406D01*
X116344900Y95048594D01*
X116266316Y94653526D01*
X116215451Y94530728D01*
X116112167Y94281377D01*
X115888377Y93946452D01*
X115603548Y93661623D01*
X115268623Y93437833D01*
X115114474Y93373983D01*
X114896474Y93283684D01*
X114501406Y93205100D01*
X114098594Y93205100D01*
X113703526Y93283684D01*
X113485526Y93373983D01*
X113331377Y93437833D01*
X112996452Y93661623D01*
X112711623Y93946452D01*
X112487833Y94281377D01*
X112384549Y94530728D01*
X112333684Y94653526D01*
X112255100Y95048594D01*
X112255100Y95451406D01*
X112333684Y95846474D01*
X112455438Y96140414D01*
X112487833Y96218623D01*
X112711623Y96553548D01*
X112996452Y96838377D01*
X113331377Y97062167D01*
X113485526Y97126017D01*
X113703526Y97216316D01*
X114098594Y97294900D01*
X114501406Y97294900D01*
X114896474Y97216316D01*
G37*
G36*
X95846474Y97216316D02*
G01*
X96064474Y97126017D01*
X96218623Y97062167D01*
X96553548Y96838377D01*
X96838377Y96553548D01*
X97062167Y96218623D01*
X97094562Y96140414D01*
X97216316Y95846474D01*
X97294900Y95451406D01*
X97294900Y95048594D01*
X97216316Y94653526D01*
X97165451Y94530728D01*
X97062167Y94281377D01*
X96838377Y93946452D01*
X96553548Y93661623D01*
X96218623Y93437833D01*
X96064474Y93373983D01*
X95846474Y93283684D01*
X95451406Y93205100D01*
X95048594Y93205100D01*
X94653526Y93283684D01*
X94435526Y93373983D01*
X94281377Y93437833D01*
X93946452Y93661623D01*
X93661623Y93946452D01*
X93437833Y94281377D01*
X93334549Y94530728D01*
X93283684Y94653526D01*
X93205100Y95048594D01*
X93205100Y95451406D01*
X93283684Y95846474D01*
X93405438Y96140414D01*
X93437833Y96218623D01*
X93661623Y96553548D01*
X93946452Y96838377D01*
X94281377Y97062167D01*
X94435526Y97126017D01*
X94653526Y97216316D01*
X95048594Y97294900D01*
X95451406Y97294900D01*
X95846474Y97216316D01*
G37*
G36*
X76796474Y97216316D02*
G01*
X77014474Y97126017D01*
X77168623Y97062167D01*
X77503548Y96838377D01*
X77788377Y96553548D01*
X78012167Y96218623D01*
X78044562Y96140414D01*
X78166316Y95846474D01*
X78244900Y95451406D01*
X78244900Y95048594D01*
X78166316Y94653526D01*
X78115451Y94530728D01*
X78012167Y94281377D01*
X77788377Y93946452D01*
X77503548Y93661623D01*
X77168623Y93437833D01*
X77014474Y93373983D01*
X76796474Y93283684D01*
X76401406Y93205100D01*
X75998594Y93205100D01*
X75603526Y93283684D01*
X75385526Y93373983D01*
X75231377Y93437833D01*
X74896452Y93661623D01*
X74611623Y93946452D01*
X74387833Y94281377D01*
X74284549Y94530728D01*
X74233684Y94653526D01*
X74155100Y95048594D01*
X74155100Y95451406D01*
X74233684Y95846474D01*
X74355438Y96140414D01*
X74387833Y96218623D01*
X74611623Y96553548D01*
X74896452Y96838377D01*
X75231377Y97062167D01*
X75385526Y97126017D01*
X75603526Y97216316D01*
X75998594Y97294900D01*
X76401406Y97294900D01*
X76796474Y97216316D01*
G37*
G36*
X57746474Y97216316D02*
G01*
X57964474Y97126017D01*
X58118623Y97062167D01*
X58453548Y96838377D01*
X58738377Y96553548D01*
X58962167Y96218623D01*
X58994562Y96140414D01*
X59116316Y95846474D01*
X59194900Y95451406D01*
X59194900Y95048594D01*
X59116316Y94653526D01*
X59065451Y94530728D01*
X58962167Y94281377D01*
X58738377Y93946452D01*
X58453548Y93661623D01*
X58118623Y93437833D01*
X57964474Y93373983D01*
X57746474Y93283684D01*
X57351406Y93205100D01*
X56948594Y93205100D01*
X56553526Y93283684D01*
X56335526Y93373983D01*
X56181377Y93437833D01*
X55846452Y93661623D01*
X55561623Y93946452D01*
X55337833Y94281377D01*
X55234549Y94530728D01*
X55183684Y94653526D01*
X55105100Y95048594D01*
X55105100Y95451406D01*
X55183684Y95846474D01*
X55305438Y96140414D01*
X55337833Y96218623D01*
X55561623Y96553548D01*
X55846452Y96838377D01*
X56181377Y97062167D01*
X56335526Y97126017D01*
X56553526Y97216316D01*
X56948594Y97294900D01*
X57351406Y97294900D01*
X57746474Y97216316D01*
G37*
G36*
X38696474Y97216316D02*
G01*
X38914474Y97126017D01*
X39068623Y97062167D01*
X39403548Y96838377D01*
X39688377Y96553548D01*
X39912167Y96218623D01*
X39944562Y96140414D01*
X40066316Y95846474D01*
X40144900Y95451406D01*
X40144900Y95048594D01*
X40066316Y94653526D01*
X40015451Y94530728D01*
X39912167Y94281377D01*
X39688377Y93946452D01*
X39403548Y93661623D01*
X39068623Y93437833D01*
X38914474Y93373983D01*
X38696474Y93283684D01*
X38301406Y93205100D01*
X37898594Y93205100D01*
X37503526Y93283684D01*
X37285526Y93373983D01*
X37131377Y93437833D01*
X36796452Y93661623D01*
X36511623Y93946452D01*
X36287833Y94281377D01*
X36184549Y94530728D01*
X36133684Y94653526D01*
X36055100Y95048594D01*
X36055100Y95451406D01*
X36133684Y95846474D01*
X36255438Y96140414D01*
X36287833Y96218623D01*
X36511623Y96553548D01*
X36796452Y96838377D01*
X37131377Y97062167D01*
X37285526Y97126017D01*
X37503526Y97216316D01*
X37898594Y97294900D01*
X38301406Y97294900D01*
X38696474Y97216316D01*
G37*
G36*
X62500104Y96140415D02*
G01*
X62668626Y96070611D01*
X62820291Y95969272D01*
X62949272Y95840291D01*
X63050611Y95688626D01*
X63120415Y95520104D01*
X63156000Y95341203D01*
X63156000Y95158797D01*
X63120415Y94979896D01*
X63050611Y94811374D01*
X62949272Y94659709D01*
X62820291Y94530728D01*
X62668626Y94429389D01*
X62500104Y94359585D01*
X62321203Y94324000D01*
X62138797Y94324000D01*
X61959896Y94359585D01*
X61791374Y94429389D01*
X61639709Y94530728D01*
X61510728Y94659709D01*
X61409389Y94811374D01*
X61339585Y94979896D01*
X61304000Y95158797D01*
X61304000Y95341203D01*
X61339585Y95520104D01*
X61409389Y95688626D01*
X61510728Y95840291D01*
X61639709Y95969272D01*
X61791374Y96070611D01*
X61959896Y96140415D01*
X62138797Y96176000D01*
X62321203Y96176000D01*
X62500104Y96140415D01*
G37*
G36*
X71390104Y96140415D02*
G01*
X71558626Y96070611D01*
X71710291Y95969272D01*
X71839272Y95840291D01*
X71940611Y95688626D01*
X72010415Y95520104D01*
X72046000Y95341203D01*
X72046000Y95158797D01*
X72010415Y94979896D01*
X71940611Y94811374D01*
X71839272Y94659709D01*
X71710291Y94530728D01*
X71558626Y94429389D01*
X71390104Y94359585D01*
X71211203Y94324000D01*
X71028797Y94324000D01*
X70849896Y94359585D01*
X70681374Y94429389D01*
X70529709Y94530728D01*
X70400728Y94659709D01*
X70299389Y94811374D01*
X70229585Y94979896D01*
X70194000Y95158797D01*
X70194000Y95341203D01*
X70229585Y95520104D01*
X70299389Y95688626D01*
X70400728Y95840291D01*
X70529709Y95969272D01*
X70681374Y96070611D01*
X70849896Y96140415D01*
X71028797Y96176000D01*
X71211203Y96176000D01*
X71390104Y96140415D01*
G37*
G36*
X81550104Y96140415D02*
G01*
X81718626Y96070611D01*
X81870291Y95969272D01*
X81999272Y95840291D01*
X82100611Y95688626D01*
X82170415Y95520104D01*
X82206000Y95341203D01*
X82206000Y95158797D01*
X82170415Y94979896D01*
X82100611Y94811374D01*
X81999272Y94659709D01*
X81870291Y94530728D01*
X81718626Y94429389D01*
X81550104Y94359585D01*
X81371203Y94324000D01*
X81188797Y94324000D01*
X81009896Y94359585D01*
X80841374Y94429389D01*
X80689709Y94530728D01*
X80560728Y94659709D01*
X80459389Y94811374D01*
X80389585Y94979896D01*
X80354000Y95158797D01*
X80354000Y95341203D01*
X80389585Y95520104D01*
X80459389Y95688626D01*
X80560728Y95840291D01*
X80689709Y95969272D01*
X80841374Y96070611D01*
X81009896Y96140415D01*
X81188797Y96176000D01*
X81371203Y96176000D01*
X81550104Y96140415D01*
G37*
G36*
X90440104Y96140415D02*
G01*
X90608626Y96070611D01*
X90760291Y95969272D01*
X90889272Y95840291D01*
X90990611Y95688626D01*
X91060415Y95520104D01*
X91096000Y95341203D01*
X91096000Y95158797D01*
X91060415Y94979896D01*
X90990611Y94811374D01*
X90889272Y94659709D01*
X90760291Y94530728D01*
X90608626Y94429389D01*
X90440104Y94359585D01*
X90261203Y94324000D01*
X90078797Y94324000D01*
X89899896Y94359585D01*
X89731374Y94429389D01*
X89579709Y94530728D01*
X89450728Y94659709D01*
X89349389Y94811374D01*
X89279585Y94979896D01*
X89244000Y95158797D01*
X89244000Y95341203D01*
X89279585Y95520104D01*
X89349389Y95688626D01*
X89450728Y95840291D01*
X89579709Y95969272D01*
X89731374Y96070611D01*
X89899896Y96140415D01*
X90078797Y96176000D01*
X90261203Y96176000D01*
X90440104Y96140415D01*
G37*
G36*
X100600104Y96140415D02*
G01*
X100768626Y96070611D01*
X100920291Y95969272D01*
X101049272Y95840291D01*
X101150611Y95688626D01*
X101220415Y95520104D01*
X101256000Y95341203D01*
X101256000Y95158797D01*
X101220415Y94979896D01*
X101150611Y94811374D01*
X101049272Y94659709D01*
X100920291Y94530728D01*
X100768626Y94429389D01*
X100600104Y94359585D01*
X100421203Y94324000D01*
X100238797Y94324000D01*
X100059896Y94359585D01*
X99891374Y94429389D01*
X99739709Y94530728D01*
X99610728Y94659709D01*
X99509389Y94811374D01*
X99439585Y94979896D01*
X99404000Y95158797D01*
X99404000Y95341203D01*
X99439585Y95520104D01*
X99509389Y95688626D01*
X99610728Y95840291D01*
X99739709Y95969272D01*
X99891374Y96070611D01*
X100059896Y96140415D01*
X100238797Y96176000D01*
X100421203Y96176000D01*
X100600104Y96140415D01*
G37*
G36*
X109490104Y96140415D02*
G01*
X109658626Y96070611D01*
X109810291Y95969272D01*
X109939272Y95840291D01*
X110040611Y95688626D01*
X110110415Y95520104D01*
X110146000Y95341203D01*
X110146000Y95158797D01*
X110110415Y94979896D01*
X110040611Y94811374D01*
X109939272Y94659709D01*
X109810291Y94530728D01*
X109658626Y94429389D01*
X109490104Y94359585D01*
X109311203Y94324000D01*
X109128797Y94324000D01*
X108949896Y94359585D01*
X108781374Y94429389D01*
X108629709Y94530728D01*
X108500728Y94659709D01*
X108399389Y94811374D01*
X108329585Y94979896D01*
X108294000Y95158797D01*
X108294000Y95341203D01*
X108329585Y95520104D01*
X108399389Y95688626D01*
X108500728Y95840291D01*
X108629709Y95969272D01*
X108781374Y96070611D01*
X108949896Y96140415D01*
X109128797Y96176000D01*
X109311203Y96176000D01*
X109490104Y96140415D01*
G37*
G36*
X119650104Y96140415D02*
G01*
X119818626Y96070611D01*
X119970291Y95969272D01*
X120099272Y95840291D01*
X120200611Y95688626D01*
X120270415Y95520104D01*
X120306000Y95341203D01*
X120306000Y95158797D01*
X120270415Y94979896D01*
X120200611Y94811374D01*
X120099272Y94659709D01*
X119970291Y94530728D01*
X119818626Y94429389D01*
X119650104Y94359585D01*
X119471203Y94324000D01*
X119288797Y94324000D01*
X119109896Y94359585D01*
X118941374Y94429389D01*
X118789709Y94530728D01*
X118660728Y94659709D01*
X118559389Y94811374D01*
X118489585Y94979896D01*
X118454000Y95158797D01*
X118454000Y95341203D01*
X118489585Y95520104D01*
X118559389Y95688626D01*
X118660728Y95840291D01*
X118789709Y95969272D01*
X118941374Y96070611D01*
X119109896Y96140415D01*
X119288797Y96176000D01*
X119471203Y96176000D01*
X119650104Y96140415D01*
G37*
G36*
X128540104Y96140415D02*
G01*
X128708626Y96070611D01*
X128860291Y95969272D01*
X128989272Y95840291D01*
X129090611Y95688626D01*
X129160415Y95520104D01*
X129196000Y95341203D01*
X129196000Y95158797D01*
X129160415Y94979896D01*
X129090611Y94811374D01*
X128989272Y94659709D01*
X128860291Y94530728D01*
X128708626Y94429389D01*
X128540104Y94359585D01*
X128361203Y94324000D01*
X128178797Y94324000D01*
X127999896Y94359585D01*
X127831374Y94429389D01*
X127679709Y94530728D01*
X127550728Y94659709D01*
X127449389Y94811374D01*
X127379585Y94979896D01*
X127344000Y95158797D01*
X127344000Y95341203D01*
X127379585Y95520104D01*
X127449389Y95688626D01*
X127550728Y95840291D01*
X127679709Y95969272D01*
X127831374Y96070611D01*
X127999896Y96140415D01*
X128178797Y96176000D01*
X128361203Y96176000D01*
X128540104Y96140415D01*
G37*
G36*
X138700104Y96140415D02*
G01*
X138868626Y96070611D01*
X139020291Y95969272D01*
X139149272Y95840291D01*
X139250611Y95688626D01*
X139320415Y95520104D01*
X139356000Y95341203D01*
X139356000Y95158797D01*
X139320415Y94979896D01*
X139250611Y94811374D01*
X139149272Y94659709D01*
X139020291Y94530728D01*
X138868626Y94429389D01*
X138700104Y94359585D01*
X138521203Y94324000D01*
X138338797Y94324000D01*
X138159896Y94359585D01*
X137991374Y94429389D01*
X137839709Y94530728D01*
X137710728Y94659709D01*
X137609389Y94811374D01*
X137539585Y94979896D01*
X137504000Y95158797D01*
X137504000Y95341203D01*
X137539585Y95520104D01*
X137609389Y95688626D01*
X137710728Y95840291D01*
X137839709Y95969272D01*
X137991374Y96070611D01*
X138159896Y96140415D01*
X138338797Y96176000D01*
X138521203Y96176000D01*
X138700104Y96140415D01*
G37*
G36*
X52340104Y96140415D02*
G01*
X52508626Y96070611D01*
X52660291Y95969272D01*
X52789272Y95840291D01*
X52890611Y95688626D01*
X52960415Y95520104D01*
X52996000Y95341203D01*
X52996000Y95158797D01*
X52960415Y94979896D01*
X52890611Y94811374D01*
X52789272Y94659709D01*
X52660291Y94530728D01*
X52508626Y94429389D01*
X52340104Y94359585D01*
X52161203Y94324000D01*
X51978797Y94324000D01*
X51799896Y94359585D01*
X51631374Y94429389D01*
X51479709Y94530728D01*
X51350728Y94659709D01*
X51249389Y94811374D01*
X51179585Y94979896D01*
X51144000Y95158797D01*
X51144000Y95341203D01*
X51179585Y95520104D01*
X51249389Y95688626D01*
X51350728Y95840291D01*
X51479709Y95969272D01*
X51631374Y96070611D01*
X51799896Y96140415D01*
X51978797Y96176000D01*
X52161203Y96176000D01*
X52340104Y96140415D01*
G37*
G36*
X43450104Y96140415D02*
G01*
X43618626Y96070611D01*
X43770291Y95969272D01*
X43899272Y95840291D01*
X44000611Y95688626D01*
X44070415Y95520104D01*
X44106000Y95341203D01*
X44106000Y95158797D01*
X44070415Y94979896D01*
X44000611Y94811374D01*
X43899272Y94659709D01*
X43770291Y94530728D01*
X43618626Y94429389D01*
X43450104Y94359585D01*
X43271203Y94324000D01*
X43088797Y94324000D01*
X42909896Y94359585D01*
X42741374Y94429389D01*
X42589709Y94530728D01*
X42460728Y94659709D01*
X42359389Y94811374D01*
X42289585Y94979896D01*
X42254000Y95158797D01*
X42254000Y95341203D01*
X42289585Y95520104D01*
X42359389Y95688626D01*
X42460728Y95840291D01*
X42589709Y95969272D01*
X42741374Y96070611D01*
X42909896Y96140415D01*
X43088797Y96176000D01*
X43271203Y96176000D01*
X43450104Y96140415D01*
G37*
G36*
X33290104Y96140415D02*
G01*
X33458626Y96070611D01*
X33610291Y95969272D01*
X33739272Y95840291D01*
X33840611Y95688626D01*
X33910415Y95520104D01*
X33946000Y95341203D01*
X33946000Y95158797D01*
X33910415Y94979896D01*
X33840611Y94811374D01*
X33739272Y94659709D01*
X33610291Y94530728D01*
X33458626Y94429389D01*
X33290104Y94359585D01*
X33111203Y94324000D01*
X32928797Y94324000D01*
X32749896Y94359585D01*
X32581374Y94429389D01*
X32429709Y94530728D01*
X32300728Y94659709D01*
X32199389Y94811374D01*
X32129585Y94979896D01*
X32094000Y95158797D01*
X32094000Y95341203D01*
X32129585Y95520104D01*
X32199389Y95688626D01*
X32300728Y95840291D01*
X32429709Y95969272D01*
X32581374Y96070611D01*
X32749896Y96140415D01*
X32928797Y96176000D01*
X33111203Y96176000D01*
X33290104Y96140415D01*
G37*
G36*
X24400104Y96140415D02*
G01*
X24568626Y96070611D01*
X24720291Y95969272D01*
X24849272Y95840291D01*
X24950611Y95688626D01*
X25020415Y95520104D01*
X25056000Y95341203D01*
X25056000Y95158797D01*
X25020415Y94979896D01*
X24950611Y94811374D01*
X24849272Y94659709D01*
X24720291Y94530728D01*
X24568626Y94429389D01*
X24400104Y94359585D01*
X24221203Y94324000D01*
X24038797Y94324000D01*
X23859896Y94359585D01*
X23691374Y94429389D01*
X23539709Y94530728D01*
X23410728Y94659709D01*
X23309389Y94811374D01*
X23239585Y94979896D01*
X23204000Y95158797D01*
X23204000Y95341203D01*
X23239585Y95520104D01*
X23309389Y95688626D01*
X23410728Y95840291D01*
X23539709Y95969272D01*
X23691374Y96070611D01*
X23859896Y96140415D01*
X24038797Y96176000D01*
X24221203Y96176000D01*
X24400104Y96140415D01*
G37*
G36*
X14240104Y96140415D02*
G01*
X14408626Y96070611D01*
X14560291Y95969272D01*
X14689272Y95840291D01*
X14790611Y95688626D01*
X14860415Y95520104D01*
X14896000Y95341203D01*
X14896000Y95158797D01*
X14860415Y94979896D01*
X14790611Y94811374D01*
X14689272Y94659709D01*
X14560291Y94530728D01*
X14408626Y94429389D01*
X14240104Y94359585D01*
X14061203Y94324000D01*
X13878797Y94324000D01*
X13699896Y94359585D01*
X13531374Y94429389D01*
X13379709Y94530728D01*
X13250728Y94659709D01*
X13149389Y94811374D01*
X13079585Y94979896D01*
X13044000Y95158797D01*
X13044000Y95341203D01*
X13079585Y95520104D01*
X13149389Y95688626D01*
X13250728Y95840291D01*
X13379709Y95969272D01*
X13531374Y96070611D01*
X13699896Y96140415D01*
X13878797Y96176000D01*
X14061203Y96176000D01*
X14240104Y96140415D01*
G37*
G36*
X80618213Y110365751D02*
G01*
X80712652Y110337103D01*
X80799687Y110290582D01*
X80875975Y110227975D01*
X80938582Y110151687D01*
X80985103Y110064652D01*
X81013751Y109970213D01*
X81021000Y109896612D01*
X81021000Y108747388D01*
X81013751Y108673787D01*
X80985103Y108579348D01*
X80938582Y108492313D01*
X80875975Y108416025D01*
X80799687Y108353418D01*
X80712651Y108306897D01*
X80618212Y108278249D01*
X80520000Y108268576D01*
X80421787Y108278249D01*
X80327348Y108306897D01*
X80240313Y108353418D01*
X80164025Y108416025D01*
X80101418Y108492313D01*
X80054897Y108579349D01*
X80026249Y108673788D01*
X80019000Y108747389D01*
X80019001Y109896612D01*
X80026250Y109970213D01*
X80054898Y110064652D01*
X80101419Y110151687D01*
X80164026Y110227975D01*
X80240314Y110290582D01*
X80327349Y110337103D01*
X80421788Y110365751D01*
X80520000Y110375424D01*
X80618213Y110365751D01*
G37*
G36*
X71978213Y110365751D02*
G01*
X72072652Y110337103D01*
X72159687Y110290582D01*
X72235975Y110227975D01*
X72298582Y110151687D01*
X72345103Y110064652D01*
X72373751Y109970213D01*
X72381000Y109896612D01*
X72381000Y108747388D01*
X72373751Y108673787D01*
X72345103Y108579348D01*
X72298582Y108492313D01*
X72235975Y108416025D01*
X72159687Y108353418D01*
X72072651Y108306897D01*
X71978212Y108278249D01*
X71880000Y108268576D01*
X71781787Y108278249D01*
X71687348Y108306897D01*
X71600313Y108353418D01*
X71524025Y108416025D01*
X71461418Y108492313D01*
X71414897Y108579349D01*
X71386249Y108673788D01*
X71379000Y108747389D01*
X71379001Y109896612D01*
X71386250Y109970213D01*
X71414898Y110064652D01*
X71461419Y110151687D01*
X71524026Y110227975D01*
X71600314Y110290582D01*
X71687349Y110337103D01*
X71781788Y110365751D01*
X71880000Y110375424D01*
X71978213Y110365751D01*
G37*
G36*
X79192383Y110139511D02*
G01*
X79192386Y110139510D01*
X79192385Y110139510D01*
X79256258Y110113054D01*
X79313748Y110074640D01*
X79362640Y110025748D01*
X79401054Y109968258D01*
X79422624Y109916182D01*
X79427511Y109904383D01*
X79441000Y109836570D01*
X79441000Y109767430D01*
X79427511Y109699617D01*
X79427510Y109699615D01*
X79401054Y109635742D01*
X79362640Y109578252D01*
X79313748Y109529360D01*
X79256258Y109490946D01*
X79204182Y109469376D01*
X79192383Y109464489D01*
X79124570Y109451000D01*
X79055430Y109451000D01*
X78987617Y109464489D01*
X78975818Y109469376D01*
X78923742Y109490946D01*
X78866252Y109529360D01*
X78817360Y109578252D01*
X78778946Y109635742D01*
X78752490Y109699615D01*
X78752489Y109699617D01*
X78739000Y109767430D01*
X78739000Y109836570D01*
X78752489Y109904383D01*
X78757376Y109916182D01*
X78778946Y109968258D01*
X78817360Y110025748D01*
X78866252Y110074640D01*
X78923742Y110113054D01*
X78987615Y110139510D01*
X78987614Y110139510D01*
X78987617Y110139511D01*
X79055430Y110153000D01*
X79124570Y110153000D01*
X79192383Y110139511D01*
G37*
G36*
X73412383Y110139511D02*
G01*
X73412386Y110139510D01*
X73412385Y110139510D01*
X73476258Y110113054D01*
X73533748Y110074640D01*
X73582640Y110025748D01*
X73621054Y109968258D01*
X73642624Y109916182D01*
X73647511Y109904383D01*
X73661000Y109836570D01*
X73661000Y109767430D01*
X73647511Y109699617D01*
X73647510Y109699615D01*
X73621054Y109635742D01*
X73582640Y109578252D01*
X73533748Y109529360D01*
X73476258Y109490946D01*
X73424182Y109469376D01*
X73412383Y109464489D01*
X73344570Y109451000D01*
X73275430Y109451000D01*
X73207617Y109464489D01*
X73195818Y109469376D01*
X73143742Y109490946D01*
X73086252Y109529360D01*
X73037360Y109578252D01*
X72998946Y109635742D01*
X72972490Y109699615D01*
X72972489Y109699617D01*
X72959000Y109767430D01*
X72959000Y109836570D01*
X72972489Y109904383D01*
X72977376Y109916182D01*
X72998946Y109968258D01*
X73037360Y110025748D01*
X73086252Y110074640D01*
X73143742Y110113054D01*
X73207615Y110139510D01*
X73207614Y110139510D01*
X73207617Y110139511D01*
X73275430Y110153000D01*
X73344570Y110153000D01*
X73412383Y110139511D01*
G37*
G36*
X80618213Y114385751D02*
G01*
X80712652Y114357103D01*
X80799687Y114310582D01*
X80875975Y114247975D01*
X80938582Y114171687D01*
X80985103Y114084652D01*
X81013751Y113990213D01*
X81021000Y113916612D01*
X81021000Y113067388D01*
X81013751Y112993787D01*
X80985103Y112899348D01*
X80938582Y112812313D01*
X80875975Y112736025D01*
X80799687Y112673418D01*
X80712651Y112626897D01*
X80618212Y112598249D01*
X80520000Y112588576D01*
X80421787Y112598249D01*
X80327348Y112626897D01*
X80240313Y112673418D01*
X80164025Y112736025D01*
X80101418Y112812313D01*
X80054897Y112899349D01*
X80026249Y112993788D01*
X80019000Y113067389D01*
X80019000Y113916602D01*
X80026250Y113990214D01*
X80036846Y114025144D01*
X80054898Y114084652D01*
X80101419Y114171687D01*
X80164026Y114247975D01*
X80240314Y114310582D01*
X80327349Y114357103D01*
X80421788Y114385751D01*
X80520000Y114395424D01*
X80618213Y114385751D01*
G37*
G36*
X71978213Y114385751D02*
G01*
X72072652Y114357103D01*
X72159687Y114310582D01*
X72235975Y114247975D01*
X72298582Y114171687D01*
X72345103Y114084652D01*
X72373751Y113990213D01*
X72381000Y113916612D01*
X72381000Y113067388D01*
X72373751Y112993787D01*
X72345103Y112899348D01*
X72298582Y112812313D01*
X72235975Y112736025D01*
X72159687Y112673418D01*
X72072651Y112626897D01*
X71978212Y112598249D01*
X71880000Y112588576D01*
X71781787Y112598249D01*
X71687348Y112626897D01*
X71600313Y112673418D01*
X71524025Y112736025D01*
X71461418Y112812313D01*
X71414897Y112899349D01*
X71386249Y112993788D01*
X71379000Y113067389D01*
X71379000Y113916602D01*
X71386250Y113990214D01*
X71396846Y114025144D01*
X71414898Y114084652D01*
X71461419Y114171687D01*
X71524026Y114247975D01*
X71600314Y114310582D01*
X71687349Y114357103D01*
X71781788Y114385751D01*
X71880000Y114395424D01*
X71978213Y114385751D01*
G37*
M02*
