G04 #@! TF.GenerationSoftware,KiCad,Pcbnew,(5.1.5-0-10_14)*
G04 #@! TF.CreationDate,2020-10-09T17:38:30+02:00*
G04 #@! TF.ProjectId,Trigon,54726967-6f6e-42e6-9b69-6361645f7063,rev?*
G04 #@! TF.SameCoordinates,Original*
G04 #@! TF.FileFunction,Soldermask,Top*
G04 #@! TF.FilePolarity,Negative*
%FSLAX46Y46*%
G04 Gerber Fmt 4.6, Leading zero omitted, Abs format (unit mm)*
G04 Created by KiCad (PCBNEW (5.1.5-0-10_14)) date 2020-10-09 17:38:30*
%MOMM*%
%LPD*%
G04 APERTURE LIST*
%ADD10C,0.100000*%
G04 APERTURE END LIST*
D10*
G36*
X168777484Y-126452157D02*
G01*
X169186958Y-126621767D01*
X169555475Y-126868002D01*
X169868872Y-127181399D01*
X170115107Y-127549916D01*
X170284717Y-127959390D01*
X170371183Y-128394085D01*
X170371183Y-128837297D01*
X170284717Y-129271992D01*
X170115107Y-129681466D01*
X169868872Y-130049983D01*
X169555475Y-130363380D01*
X169186958Y-130609615D01*
X168777484Y-130779225D01*
X168342789Y-130865691D01*
X167899577Y-130865691D01*
X167464882Y-130779225D01*
X167055408Y-130609615D01*
X166686891Y-130363380D01*
X166373494Y-130049983D01*
X166127259Y-129681466D01*
X165957649Y-129271992D01*
X165871183Y-128837297D01*
X165871183Y-128394085D01*
X165957649Y-127959390D01*
X166127259Y-127549916D01*
X166373494Y-127181399D01*
X166686891Y-126868002D01*
X167055408Y-126621767D01*
X167464882Y-126452157D01*
X167899577Y-126365691D01*
X168342789Y-126365691D01*
X168777484Y-126452157D01*
G37*
G36*
X16924802Y-126452157D02*
G01*
X17334276Y-126621767D01*
X17702793Y-126868002D01*
X18016190Y-127181399D01*
X18262425Y-127549916D01*
X18432035Y-127959390D01*
X18518501Y-128394085D01*
X18518501Y-128837297D01*
X18432035Y-129271992D01*
X18262425Y-129681466D01*
X18016190Y-130049983D01*
X17702793Y-130363380D01*
X17334276Y-130609615D01*
X16924802Y-130779225D01*
X16490107Y-130865691D01*
X16046895Y-130865691D01*
X15612200Y-130779225D01*
X15202726Y-130609615D01*
X14834209Y-130363380D01*
X14520812Y-130049983D01*
X14274577Y-129681466D01*
X14104967Y-129271992D01*
X14018501Y-128837297D01*
X14018501Y-128394085D01*
X14104967Y-127959390D01*
X14274577Y-127549916D01*
X14520812Y-127181399D01*
X14834209Y-126868002D01*
X15202726Y-126621767D01*
X15612200Y-126452157D01*
X16046895Y-126365691D01*
X16490107Y-126365691D01*
X16924802Y-126452157D01*
G37*
G36*
X71239934Y-107572146D02*
G01*
X71611900Y-107726219D01*
X71946661Y-107949899D01*
X72231351Y-108234589D01*
X72455031Y-108569350D01*
X72609104Y-108941316D01*
X72687650Y-109336193D01*
X72687650Y-109738807D01*
X72609104Y-110133684D01*
X72455031Y-110505650D01*
X72231351Y-110840411D01*
X71946661Y-111125101D01*
X71611900Y-111348781D01*
X71239934Y-111502854D01*
X70845057Y-111581400D01*
X70442443Y-111581400D01*
X70047566Y-111502854D01*
X69675600Y-111348781D01*
X69340839Y-111125101D01*
X69056149Y-110840411D01*
X68832469Y-110505650D01*
X68678396Y-110133684D01*
X68599850Y-109738807D01*
X68599850Y-109336193D01*
X68678396Y-108941316D01*
X68832469Y-108569350D01*
X69056149Y-108234589D01*
X69340839Y-107949899D01*
X69675600Y-107726219D01*
X70047566Y-107572146D01*
X70442443Y-107493600D01*
X70845057Y-107493600D01*
X71239934Y-107572146D01*
G37*
G36*
X52189934Y-107572146D02*
G01*
X52561900Y-107726219D01*
X52896661Y-107949899D01*
X53181351Y-108234589D01*
X53405031Y-108569350D01*
X53559104Y-108941316D01*
X53637650Y-109336193D01*
X53637650Y-109738807D01*
X53559104Y-110133684D01*
X53405031Y-110505650D01*
X53181351Y-110840411D01*
X52896661Y-111125101D01*
X52561900Y-111348781D01*
X52189934Y-111502854D01*
X51795057Y-111581400D01*
X51392443Y-111581400D01*
X50997566Y-111502854D01*
X50625600Y-111348781D01*
X50290839Y-111125101D01*
X50006149Y-110840411D01*
X49782469Y-110505650D01*
X49628396Y-110133684D01*
X49549850Y-109738807D01*
X49549850Y-109336193D01*
X49628396Y-108941316D01*
X49782469Y-108569350D01*
X50006149Y-108234589D01*
X50290839Y-107949899D01*
X50625600Y-107726219D01*
X50997566Y-107572146D01*
X51392443Y-107493600D01*
X51795057Y-107493600D01*
X52189934Y-107572146D01*
G37*
G36*
X33139934Y-107572146D02*
G01*
X33511900Y-107726219D01*
X33846661Y-107949899D01*
X34131351Y-108234589D01*
X34355031Y-108569350D01*
X34509104Y-108941316D01*
X34587650Y-109336193D01*
X34587650Y-109738807D01*
X34509104Y-110133684D01*
X34355031Y-110505650D01*
X34131351Y-110840411D01*
X33846661Y-111125101D01*
X33511900Y-111348781D01*
X33139934Y-111502854D01*
X32745057Y-111581400D01*
X32342443Y-111581400D01*
X31947566Y-111502854D01*
X31575600Y-111348781D01*
X31240839Y-111125101D01*
X30956149Y-110840411D01*
X30732469Y-110505650D01*
X30578396Y-110133684D01*
X30499850Y-109738807D01*
X30499850Y-109336193D01*
X30578396Y-108941316D01*
X30732469Y-108569350D01*
X30956149Y-108234589D01*
X31240839Y-107949899D01*
X31575600Y-107726219D01*
X31947566Y-107572146D01*
X32342443Y-107493600D01*
X32745057Y-107493600D01*
X33139934Y-107572146D01*
G37*
G36*
X27639507Y-108653911D02*
G01*
X27726534Y-108671221D01*
X27890486Y-108739132D01*
X28038041Y-108837725D01*
X28163525Y-108963209D01*
X28262118Y-109110764D01*
X28330029Y-109274716D01*
X28364650Y-109448770D01*
X28364650Y-109626230D01*
X28330029Y-109800284D01*
X28262118Y-109964236D01*
X28163525Y-110111791D01*
X28038041Y-110237275D01*
X27890486Y-110335868D01*
X27726534Y-110403779D01*
X27639507Y-110421090D01*
X27552481Y-110438400D01*
X27375019Y-110438400D01*
X27287993Y-110421090D01*
X27200966Y-110403779D01*
X27037014Y-110335868D01*
X26889459Y-110237275D01*
X26763975Y-110111791D01*
X26665382Y-109964236D01*
X26597471Y-109800284D01*
X26562850Y-109626230D01*
X26562850Y-109448770D01*
X26597471Y-109274716D01*
X26665382Y-109110764D01*
X26763975Y-108963209D01*
X26889459Y-108837725D01*
X27037014Y-108739132D01*
X27200966Y-108671221D01*
X27287993Y-108653911D01*
X27375019Y-108636600D01*
X27552481Y-108636600D01*
X27639507Y-108653911D01*
G37*
G36*
X46689507Y-108653911D02*
G01*
X46776534Y-108671221D01*
X46940486Y-108739132D01*
X47088041Y-108837725D01*
X47213525Y-108963209D01*
X47312118Y-109110764D01*
X47380029Y-109274716D01*
X47414650Y-109448770D01*
X47414650Y-109626230D01*
X47380029Y-109800284D01*
X47312118Y-109964236D01*
X47213525Y-110111791D01*
X47088041Y-110237275D01*
X46940486Y-110335868D01*
X46776534Y-110403779D01*
X46689507Y-110421090D01*
X46602481Y-110438400D01*
X46425019Y-110438400D01*
X46337993Y-110421090D01*
X46250966Y-110403779D01*
X46087014Y-110335868D01*
X45939459Y-110237275D01*
X45813975Y-110111791D01*
X45715382Y-109964236D01*
X45647471Y-109800284D01*
X45612850Y-109626230D01*
X45612850Y-109448770D01*
X45647471Y-109274716D01*
X45715382Y-109110764D01*
X45813975Y-108963209D01*
X45939459Y-108837725D01*
X46087014Y-108739132D01*
X46250966Y-108671221D01*
X46337993Y-108653911D01*
X46425019Y-108636600D01*
X46602481Y-108636600D01*
X46689507Y-108653911D01*
G37*
G36*
X75899507Y-108653911D02*
G01*
X75986534Y-108671221D01*
X76150486Y-108739132D01*
X76298041Y-108837725D01*
X76423525Y-108963209D01*
X76522118Y-109110764D01*
X76590029Y-109274716D01*
X76624650Y-109448770D01*
X76624650Y-109626230D01*
X76590029Y-109800284D01*
X76522118Y-109964236D01*
X76423525Y-110111791D01*
X76298041Y-110237275D01*
X76150486Y-110335868D01*
X75986534Y-110403779D01*
X75899507Y-110421090D01*
X75812481Y-110438400D01*
X75635019Y-110438400D01*
X75547993Y-110421090D01*
X75460966Y-110403779D01*
X75297014Y-110335868D01*
X75149459Y-110237275D01*
X75023975Y-110111791D01*
X74925382Y-109964236D01*
X74857471Y-109800284D01*
X74822850Y-109626230D01*
X74822850Y-109448770D01*
X74857471Y-109274716D01*
X74925382Y-109110764D01*
X75023975Y-108963209D01*
X75149459Y-108837725D01*
X75297014Y-108739132D01*
X75460966Y-108671221D01*
X75547993Y-108653911D01*
X75635019Y-108636600D01*
X75812481Y-108636600D01*
X75899507Y-108653911D01*
G37*
G36*
X65739507Y-108653911D02*
G01*
X65826534Y-108671221D01*
X65990486Y-108739132D01*
X66138041Y-108837725D01*
X66263525Y-108963209D01*
X66362118Y-109110764D01*
X66430029Y-109274716D01*
X66464650Y-109448770D01*
X66464650Y-109626230D01*
X66430029Y-109800284D01*
X66362118Y-109964236D01*
X66263525Y-110111791D01*
X66138041Y-110237275D01*
X65990486Y-110335868D01*
X65826534Y-110403779D01*
X65739507Y-110421090D01*
X65652481Y-110438400D01*
X65475019Y-110438400D01*
X65387993Y-110421090D01*
X65300966Y-110403779D01*
X65137014Y-110335868D01*
X64989459Y-110237275D01*
X64863975Y-110111791D01*
X64765382Y-109964236D01*
X64697471Y-109800284D01*
X64662850Y-109626230D01*
X64662850Y-109448770D01*
X64697471Y-109274716D01*
X64765382Y-109110764D01*
X64863975Y-108963209D01*
X64989459Y-108837725D01*
X65137014Y-108739132D01*
X65300966Y-108671221D01*
X65387993Y-108653911D01*
X65475019Y-108636600D01*
X65652481Y-108636600D01*
X65739507Y-108653911D01*
G37*
G36*
X56849507Y-108653911D02*
G01*
X56936534Y-108671221D01*
X57100486Y-108739132D01*
X57248041Y-108837725D01*
X57373525Y-108963209D01*
X57472118Y-109110764D01*
X57540029Y-109274716D01*
X57574650Y-109448770D01*
X57574650Y-109626230D01*
X57540029Y-109800284D01*
X57472118Y-109964236D01*
X57373525Y-110111791D01*
X57248041Y-110237275D01*
X57100486Y-110335868D01*
X56936534Y-110403779D01*
X56849507Y-110421090D01*
X56762481Y-110438400D01*
X56585019Y-110438400D01*
X56497993Y-110421090D01*
X56410966Y-110403779D01*
X56247014Y-110335868D01*
X56099459Y-110237275D01*
X55973975Y-110111791D01*
X55875382Y-109964236D01*
X55807471Y-109800284D01*
X55772850Y-109626230D01*
X55772850Y-109448770D01*
X55807471Y-109274716D01*
X55875382Y-109110764D01*
X55973975Y-108963209D01*
X56099459Y-108837725D01*
X56247014Y-108739132D01*
X56410966Y-108671221D01*
X56497993Y-108653911D01*
X56585019Y-108636600D01*
X56762481Y-108636600D01*
X56849507Y-108653911D01*
G37*
G36*
X37799507Y-108653911D02*
G01*
X37886534Y-108671221D01*
X38050486Y-108739132D01*
X38198041Y-108837725D01*
X38323525Y-108963209D01*
X38422118Y-109110764D01*
X38490029Y-109274716D01*
X38524650Y-109448770D01*
X38524650Y-109626230D01*
X38490029Y-109800284D01*
X38422118Y-109964236D01*
X38323525Y-110111791D01*
X38198041Y-110237275D01*
X38050486Y-110335868D01*
X37886534Y-110403779D01*
X37799507Y-110421090D01*
X37712481Y-110438400D01*
X37535019Y-110438400D01*
X37447993Y-110421090D01*
X37360966Y-110403779D01*
X37197014Y-110335868D01*
X37049459Y-110237275D01*
X36923975Y-110111791D01*
X36825382Y-109964236D01*
X36757471Y-109800284D01*
X36722850Y-109626230D01*
X36722850Y-109448770D01*
X36757471Y-109274716D01*
X36825382Y-109110764D01*
X36923975Y-108963209D01*
X37049459Y-108837725D01*
X37197014Y-108739132D01*
X37360966Y-108671221D01*
X37447993Y-108653911D01*
X37535019Y-108636600D01*
X37712481Y-108636600D01*
X37799507Y-108653911D01*
G37*
G36*
X67285868Y-105507065D02*
G01*
X67567950Y-105623908D01*
X67821818Y-105793536D01*
X68037714Y-106009432D01*
X68207342Y-106263300D01*
X68324185Y-106545382D01*
X68383750Y-106844838D01*
X68383750Y-107150162D01*
X68324185Y-107449618D01*
X68207342Y-107731700D01*
X68037714Y-107985568D01*
X67821818Y-108201464D01*
X67567950Y-108371092D01*
X67285868Y-108487935D01*
X66986412Y-108547500D01*
X66681088Y-108547500D01*
X66381632Y-108487935D01*
X66099550Y-108371092D01*
X65845682Y-108201464D01*
X65629786Y-107985568D01*
X65460158Y-107731700D01*
X65343315Y-107449618D01*
X65283750Y-107150162D01*
X65283750Y-106844838D01*
X65343315Y-106545382D01*
X65460158Y-106263300D01*
X65629786Y-106009432D01*
X65845682Y-105793536D01*
X66099550Y-105623908D01*
X66381632Y-105507065D01*
X66681088Y-105447500D01*
X66986412Y-105447500D01*
X67285868Y-105507065D01*
G37*
G36*
X48235868Y-105507065D02*
G01*
X48517950Y-105623908D01*
X48771818Y-105793536D01*
X48987714Y-106009432D01*
X49157342Y-106263300D01*
X49274185Y-106545382D01*
X49333750Y-106844838D01*
X49333750Y-107150162D01*
X49274185Y-107449618D01*
X49157342Y-107731700D01*
X48987714Y-107985568D01*
X48771818Y-108201464D01*
X48517950Y-108371092D01*
X48235868Y-108487935D01*
X47936412Y-108547500D01*
X47631088Y-108547500D01*
X47331632Y-108487935D01*
X47049550Y-108371092D01*
X46795682Y-108201464D01*
X46579786Y-107985568D01*
X46410158Y-107731700D01*
X46293315Y-107449618D01*
X46233750Y-107150162D01*
X46233750Y-106844838D01*
X46293315Y-106545382D01*
X46410158Y-106263300D01*
X46579786Y-106009432D01*
X46795682Y-105793536D01*
X47049550Y-105623908D01*
X47331632Y-105507065D01*
X47631088Y-105447500D01*
X47936412Y-105447500D01*
X48235868Y-105507065D01*
G37*
G36*
X29185868Y-105507065D02*
G01*
X29467950Y-105623908D01*
X29721818Y-105793536D01*
X29937714Y-106009432D01*
X30107342Y-106263300D01*
X30224185Y-106545382D01*
X30283750Y-106844838D01*
X30283750Y-107150162D01*
X30224185Y-107449618D01*
X30107342Y-107731700D01*
X29937714Y-107985568D01*
X29721818Y-108201464D01*
X29467950Y-108371092D01*
X29185868Y-108487935D01*
X28886412Y-108547500D01*
X28581088Y-108547500D01*
X28281632Y-108487935D01*
X27999550Y-108371092D01*
X27745682Y-108201464D01*
X27529786Y-107985568D01*
X27360158Y-107731700D01*
X27243315Y-107449618D01*
X27183750Y-107150162D01*
X27183750Y-106844838D01*
X27243315Y-106545382D01*
X27360158Y-106263300D01*
X27529786Y-106009432D01*
X27745682Y-105793536D01*
X27999550Y-105623908D01*
X28281632Y-105507065D01*
X28581088Y-105447500D01*
X28886412Y-105447500D01*
X29185868Y-105507065D01*
G37*
G36*
X54585868Y-102967065D02*
G01*
X54867950Y-103083908D01*
X55121818Y-103253536D01*
X55337714Y-103469432D01*
X55507342Y-103723300D01*
X55624185Y-104005382D01*
X55683750Y-104304838D01*
X55683750Y-104610162D01*
X55624185Y-104909618D01*
X55507342Y-105191700D01*
X55337714Y-105445568D01*
X55121818Y-105661464D01*
X54867950Y-105831092D01*
X54585868Y-105947935D01*
X54286412Y-106007500D01*
X53981088Y-106007500D01*
X53681632Y-105947935D01*
X53399550Y-105831092D01*
X53145682Y-105661464D01*
X52929786Y-105445568D01*
X52760158Y-105191700D01*
X52643315Y-104909618D01*
X52583750Y-104610162D01*
X52583750Y-104304838D01*
X52643315Y-104005382D01*
X52760158Y-103723300D01*
X52929786Y-103469432D01*
X53145682Y-103253536D01*
X53399550Y-103083908D01*
X53681632Y-102967065D01*
X53981088Y-102907500D01*
X54286412Y-102907500D01*
X54585868Y-102967065D01*
G37*
G36*
X35535868Y-102967065D02*
G01*
X35817950Y-103083908D01*
X36071818Y-103253536D01*
X36287714Y-103469432D01*
X36457342Y-103723300D01*
X36574185Y-104005382D01*
X36633750Y-104304838D01*
X36633750Y-104610162D01*
X36574185Y-104909618D01*
X36457342Y-105191700D01*
X36287714Y-105445568D01*
X36071818Y-105661464D01*
X35817950Y-105831092D01*
X35535868Y-105947935D01*
X35236412Y-106007500D01*
X34931088Y-106007500D01*
X34631632Y-105947935D01*
X34349550Y-105831092D01*
X34095682Y-105661464D01*
X33879786Y-105445568D01*
X33710158Y-105191700D01*
X33593315Y-104909618D01*
X33533750Y-104610162D01*
X33533750Y-104304838D01*
X33593315Y-104005382D01*
X33710158Y-103723300D01*
X33879786Y-103469432D01*
X34095682Y-103253536D01*
X34349550Y-103083908D01*
X34631632Y-102967065D01*
X34931088Y-102907500D01*
X35236412Y-102907500D01*
X35535868Y-102967065D01*
G37*
G36*
X73635868Y-102967065D02*
G01*
X73917950Y-103083908D01*
X74171818Y-103253536D01*
X74387714Y-103469432D01*
X74557342Y-103723300D01*
X74674185Y-104005382D01*
X74733750Y-104304838D01*
X74733750Y-104610162D01*
X74674185Y-104909618D01*
X74557342Y-105191700D01*
X74387714Y-105445568D01*
X74171818Y-105661464D01*
X73917950Y-105831092D01*
X73635868Y-105947935D01*
X73336412Y-106007500D01*
X73031088Y-106007500D01*
X72731632Y-105947935D01*
X72449550Y-105831092D01*
X72195682Y-105661464D01*
X71979786Y-105445568D01*
X71810158Y-105191700D01*
X71693315Y-104909618D01*
X71633750Y-104610162D01*
X71633750Y-104304838D01*
X71693315Y-104005382D01*
X71810158Y-103723300D01*
X71979786Y-103469432D01*
X72195682Y-103253536D01*
X72449550Y-103083908D01*
X72731632Y-102967065D01*
X73031088Y-102907500D01*
X73336412Y-102907500D01*
X73635868Y-102967065D01*
G37*
G36*
X33139934Y-88522146D02*
G01*
X33511900Y-88676219D01*
X33846661Y-88899899D01*
X34131351Y-89184589D01*
X34355031Y-89519350D01*
X34509104Y-89891316D01*
X34587650Y-90286193D01*
X34587650Y-90688807D01*
X34509104Y-91083684D01*
X34355031Y-91455650D01*
X34131351Y-91790411D01*
X33846661Y-92075101D01*
X33511900Y-92298781D01*
X33139934Y-92452854D01*
X32745057Y-92531400D01*
X32342443Y-92531400D01*
X31947566Y-92452854D01*
X31575600Y-92298781D01*
X31240839Y-92075101D01*
X30956149Y-91790411D01*
X30732469Y-91455650D01*
X30578396Y-91083684D01*
X30499850Y-90688807D01*
X30499850Y-90286193D01*
X30578396Y-89891316D01*
X30732469Y-89519350D01*
X30956149Y-89184589D01*
X31240839Y-88899899D01*
X31575600Y-88676219D01*
X31947566Y-88522146D01*
X32342443Y-88443600D01*
X32745057Y-88443600D01*
X33139934Y-88522146D01*
G37*
G36*
X52189934Y-88522146D02*
G01*
X52561900Y-88676219D01*
X52896661Y-88899899D01*
X53181351Y-89184589D01*
X53405031Y-89519350D01*
X53559104Y-89891316D01*
X53637650Y-90286193D01*
X53637650Y-90688807D01*
X53559104Y-91083684D01*
X53405031Y-91455650D01*
X53181351Y-91790411D01*
X52896661Y-92075101D01*
X52561900Y-92298781D01*
X52189934Y-92452854D01*
X51795057Y-92531400D01*
X51392443Y-92531400D01*
X50997566Y-92452854D01*
X50625600Y-92298781D01*
X50290839Y-92075101D01*
X50006149Y-91790411D01*
X49782469Y-91455650D01*
X49628396Y-91083684D01*
X49549850Y-90688807D01*
X49549850Y-90286193D01*
X49628396Y-89891316D01*
X49782469Y-89519350D01*
X50006149Y-89184589D01*
X50290839Y-88899899D01*
X50625600Y-88676219D01*
X50997566Y-88522146D01*
X51392443Y-88443600D01*
X51795057Y-88443600D01*
X52189934Y-88522146D01*
G37*
G36*
X71239934Y-88522146D02*
G01*
X71611900Y-88676219D01*
X71946661Y-88899899D01*
X72231351Y-89184589D01*
X72455031Y-89519350D01*
X72609104Y-89891316D01*
X72687650Y-90286193D01*
X72687650Y-90688807D01*
X72609104Y-91083684D01*
X72455031Y-91455650D01*
X72231351Y-91790411D01*
X71946661Y-92075101D01*
X71611900Y-92298781D01*
X71239934Y-92452854D01*
X70845057Y-92531400D01*
X70442443Y-92531400D01*
X70047566Y-92452854D01*
X69675600Y-92298781D01*
X69340839Y-92075101D01*
X69056149Y-91790411D01*
X68832469Y-91455650D01*
X68678396Y-91083684D01*
X68599850Y-90688807D01*
X68599850Y-90286193D01*
X68678396Y-89891316D01*
X68832469Y-89519350D01*
X69056149Y-89184589D01*
X69340839Y-88899899D01*
X69675600Y-88676219D01*
X70047566Y-88522146D01*
X70442443Y-88443600D01*
X70845057Y-88443600D01*
X71239934Y-88522146D01*
G37*
G36*
X90289934Y-88522146D02*
G01*
X90661900Y-88676219D01*
X90996661Y-88899899D01*
X91281351Y-89184589D01*
X91505031Y-89519350D01*
X91659104Y-89891316D01*
X91737650Y-90286193D01*
X91737650Y-90688807D01*
X91659104Y-91083684D01*
X91505031Y-91455650D01*
X91281351Y-91790411D01*
X90996661Y-92075101D01*
X90661900Y-92298781D01*
X90289934Y-92452854D01*
X89895057Y-92531400D01*
X89492443Y-92531400D01*
X89097566Y-92452854D01*
X88725600Y-92298781D01*
X88390839Y-92075101D01*
X88106149Y-91790411D01*
X87882469Y-91455650D01*
X87728396Y-91083684D01*
X87649850Y-90688807D01*
X87649850Y-90286193D01*
X87728396Y-89891316D01*
X87882469Y-89519350D01*
X88106149Y-89184589D01*
X88390839Y-88899899D01*
X88725600Y-88676219D01*
X89097566Y-88522146D01*
X89492443Y-88443600D01*
X89895057Y-88443600D01*
X90289934Y-88522146D01*
G37*
G36*
X75899507Y-89603910D02*
G01*
X75986534Y-89621221D01*
X76150486Y-89689132D01*
X76298041Y-89787725D01*
X76423525Y-89913209D01*
X76522118Y-90060764D01*
X76590029Y-90224716D01*
X76624650Y-90398770D01*
X76624650Y-90576230D01*
X76590029Y-90750284D01*
X76522118Y-90914236D01*
X76423525Y-91061791D01*
X76298041Y-91187275D01*
X76150486Y-91285868D01*
X75986534Y-91353779D01*
X75899507Y-91371089D01*
X75812481Y-91388400D01*
X75635019Y-91388400D01*
X75547993Y-91371089D01*
X75460966Y-91353779D01*
X75297014Y-91285868D01*
X75149459Y-91187275D01*
X75023975Y-91061791D01*
X74925382Y-90914236D01*
X74857471Y-90750284D01*
X74822850Y-90576230D01*
X74822850Y-90398770D01*
X74857471Y-90224716D01*
X74925382Y-90060764D01*
X75023975Y-89913209D01*
X75149459Y-89787725D01*
X75297014Y-89689132D01*
X75460966Y-89621221D01*
X75547993Y-89603910D01*
X75635019Y-89586600D01*
X75812481Y-89586600D01*
X75899507Y-89603910D01*
G37*
G36*
X65739507Y-89603910D02*
G01*
X65826534Y-89621221D01*
X65990486Y-89689132D01*
X66138041Y-89787725D01*
X66263525Y-89913209D01*
X66362118Y-90060764D01*
X66430029Y-90224716D01*
X66464650Y-90398770D01*
X66464650Y-90576230D01*
X66430029Y-90750284D01*
X66362118Y-90914236D01*
X66263525Y-91061791D01*
X66138041Y-91187275D01*
X65990486Y-91285868D01*
X65826534Y-91353779D01*
X65739507Y-91371089D01*
X65652481Y-91388400D01*
X65475019Y-91388400D01*
X65387993Y-91371089D01*
X65300966Y-91353779D01*
X65137014Y-91285868D01*
X64989459Y-91187275D01*
X64863975Y-91061791D01*
X64765382Y-90914236D01*
X64697471Y-90750284D01*
X64662850Y-90576230D01*
X64662850Y-90398770D01*
X64697471Y-90224716D01*
X64765382Y-90060764D01*
X64863975Y-89913209D01*
X64989459Y-89787725D01*
X65137014Y-89689132D01*
X65300966Y-89621221D01*
X65387993Y-89603910D01*
X65475019Y-89586600D01*
X65652481Y-89586600D01*
X65739507Y-89603910D01*
G37*
G36*
X56849507Y-89603910D02*
G01*
X56936534Y-89621221D01*
X57100486Y-89689132D01*
X57248041Y-89787725D01*
X57373525Y-89913209D01*
X57472118Y-90060764D01*
X57540029Y-90224716D01*
X57574650Y-90398770D01*
X57574650Y-90576230D01*
X57540029Y-90750284D01*
X57472118Y-90914236D01*
X57373525Y-91061791D01*
X57248041Y-91187275D01*
X57100486Y-91285868D01*
X56936534Y-91353779D01*
X56849507Y-91371089D01*
X56762481Y-91388400D01*
X56585019Y-91388400D01*
X56497993Y-91371089D01*
X56410966Y-91353779D01*
X56247014Y-91285868D01*
X56099459Y-91187275D01*
X55973975Y-91061791D01*
X55875382Y-90914236D01*
X55807471Y-90750284D01*
X55772850Y-90576230D01*
X55772850Y-90398770D01*
X55807471Y-90224716D01*
X55875382Y-90060764D01*
X55973975Y-89913209D01*
X56099459Y-89787725D01*
X56247014Y-89689132D01*
X56410966Y-89621221D01*
X56497993Y-89603910D01*
X56585019Y-89586600D01*
X56762481Y-89586600D01*
X56849507Y-89603910D01*
G37*
G36*
X94949507Y-89603910D02*
G01*
X95036534Y-89621221D01*
X95200486Y-89689132D01*
X95348041Y-89787725D01*
X95473525Y-89913209D01*
X95572118Y-90060764D01*
X95640029Y-90224716D01*
X95674650Y-90398770D01*
X95674650Y-90576230D01*
X95640029Y-90750284D01*
X95572118Y-90914236D01*
X95473525Y-91061791D01*
X95348041Y-91187275D01*
X95200486Y-91285868D01*
X95036534Y-91353779D01*
X94949507Y-91371089D01*
X94862481Y-91388400D01*
X94685019Y-91388400D01*
X94597993Y-91371089D01*
X94510966Y-91353779D01*
X94347014Y-91285868D01*
X94199459Y-91187275D01*
X94073975Y-91061791D01*
X93975382Y-90914236D01*
X93907471Y-90750284D01*
X93872850Y-90576230D01*
X93872850Y-90398770D01*
X93907471Y-90224716D01*
X93975382Y-90060764D01*
X94073975Y-89913209D01*
X94199459Y-89787725D01*
X94347014Y-89689132D01*
X94510966Y-89621221D01*
X94597993Y-89603910D01*
X94685019Y-89586600D01*
X94862481Y-89586600D01*
X94949507Y-89603910D01*
G37*
G36*
X84789507Y-89603910D02*
G01*
X84876534Y-89621221D01*
X85040486Y-89689132D01*
X85188041Y-89787725D01*
X85313525Y-89913209D01*
X85412118Y-90060764D01*
X85480029Y-90224716D01*
X85514650Y-90398770D01*
X85514650Y-90576230D01*
X85480029Y-90750284D01*
X85412118Y-90914236D01*
X85313525Y-91061791D01*
X85188041Y-91187275D01*
X85040486Y-91285868D01*
X84876534Y-91353779D01*
X84789507Y-91371089D01*
X84702481Y-91388400D01*
X84525019Y-91388400D01*
X84437993Y-91371089D01*
X84350966Y-91353779D01*
X84187014Y-91285868D01*
X84039459Y-91187275D01*
X83913975Y-91061791D01*
X83815382Y-90914236D01*
X83747471Y-90750284D01*
X83712850Y-90576230D01*
X83712850Y-90398770D01*
X83747471Y-90224716D01*
X83815382Y-90060764D01*
X83913975Y-89913209D01*
X84039459Y-89787725D01*
X84187014Y-89689132D01*
X84350966Y-89621221D01*
X84437993Y-89603910D01*
X84525019Y-89586600D01*
X84702481Y-89586600D01*
X84789507Y-89603910D01*
G37*
G36*
X27639507Y-89603910D02*
G01*
X27726534Y-89621221D01*
X27890486Y-89689132D01*
X28038041Y-89787725D01*
X28163525Y-89913209D01*
X28262118Y-90060764D01*
X28330029Y-90224716D01*
X28364650Y-90398770D01*
X28364650Y-90576230D01*
X28330029Y-90750284D01*
X28262118Y-90914236D01*
X28163525Y-91061791D01*
X28038041Y-91187275D01*
X27890486Y-91285868D01*
X27726534Y-91353779D01*
X27639507Y-91371089D01*
X27552481Y-91388400D01*
X27375019Y-91388400D01*
X27287993Y-91371089D01*
X27200966Y-91353779D01*
X27037014Y-91285868D01*
X26889459Y-91187275D01*
X26763975Y-91061791D01*
X26665382Y-90914236D01*
X26597471Y-90750284D01*
X26562850Y-90576230D01*
X26562850Y-90398770D01*
X26597471Y-90224716D01*
X26665382Y-90060764D01*
X26763975Y-89913209D01*
X26889459Y-89787725D01*
X27037014Y-89689132D01*
X27200966Y-89621221D01*
X27287993Y-89603910D01*
X27375019Y-89586600D01*
X27552481Y-89586600D01*
X27639507Y-89603910D01*
G37*
G36*
X46689507Y-89603910D02*
G01*
X46776534Y-89621221D01*
X46940486Y-89689132D01*
X47088041Y-89787725D01*
X47213525Y-89913209D01*
X47312118Y-90060764D01*
X47380029Y-90224716D01*
X47414650Y-90398770D01*
X47414650Y-90576230D01*
X47380029Y-90750284D01*
X47312118Y-90914236D01*
X47213525Y-91061791D01*
X47088041Y-91187275D01*
X46940486Y-91285868D01*
X46776534Y-91353779D01*
X46689507Y-91371089D01*
X46602481Y-91388400D01*
X46425019Y-91388400D01*
X46337993Y-91371089D01*
X46250966Y-91353779D01*
X46087014Y-91285868D01*
X45939459Y-91187275D01*
X45813975Y-91061791D01*
X45715382Y-90914236D01*
X45647471Y-90750284D01*
X45612850Y-90576230D01*
X45612850Y-90398770D01*
X45647471Y-90224716D01*
X45715382Y-90060764D01*
X45813975Y-89913209D01*
X45939459Y-89787725D01*
X46087014Y-89689132D01*
X46250966Y-89621221D01*
X46337993Y-89603910D01*
X46425019Y-89586600D01*
X46602481Y-89586600D01*
X46689507Y-89603910D01*
G37*
G36*
X37799507Y-89603910D02*
G01*
X37886534Y-89621221D01*
X38050486Y-89689132D01*
X38198041Y-89787725D01*
X38323525Y-89913209D01*
X38422118Y-90060764D01*
X38490029Y-90224716D01*
X38524650Y-90398770D01*
X38524650Y-90576230D01*
X38490029Y-90750284D01*
X38422118Y-90914236D01*
X38323525Y-91061791D01*
X38198041Y-91187275D01*
X38050486Y-91285868D01*
X37886534Y-91353779D01*
X37799507Y-91371089D01*
X37712481Y-91388400D01*
X37535019Y-91388400D01*
X37447993Y-91371089D01*
X37360966Y-91353779D01*
X37197014Y-91285868D01*
X37049459Y-91187275D01*
X36923975Y-91061791D01*
X36825382Y-90914236D01*
X36757471Y-90750284D01*
X36722850Y-90576230D01*
X36722850Y-90398770D01*
X36757471Y-90224716D01*
X36825382Y-90060764D01*
X36923975Y-89913209D01*
X37049459Y-89787725D01*
X37197014Y-89689132D01*
X37360966Y-89621221D01*
X37447993Y-89603910D01*
X37535019Y-89586600D01*
X37712481Y-89586600D01*
X37799507Y-89603910D01*
G37*
G36*
X48235868Y-86457065D02*
G01*
X48517950Y-86573908D01*
X48771818Y-86743536D01*
X48987714Y-86959432D01*
X49157342Y-87213300D01*
X49274185Y-87495382D01*
X49333750Y-87794838D01*
X49333750Y-88100162D01*
X49274185Y-88399618D01*
X49157342Y-88681700D01*
X48987714Y-88935568D01*
X48771818Y-89151464D01*
X48517950Y-89321092D01*
X48235868Y-89437935D01*
X47936412Y-89497500D01*
X47631088Y-89497500D01*
X47331632Y-89437935D01*
X47049550Y-89321092D01*
X46795682Y-89151464D01*
X46579786Y-88935568D01*
X46410158Y-88681700D01*
X46293315Y-88399618D01*
X46233750Y-88100162D01*
X46233750Y-87794838D01*
X46293315Y-87495382D01*
X46410158Y-87213300D01*
X46579786Y-86959432D01*
X46795682Y-86743536D01*
X47049550Y-86573908D01*
X47331632Y-86457065D01*
X47631088Y-86397500D01*
X47936412Y-86397500D01*
X48235868Y-86457065D01*
G37*
G36*
X67285868Y-86457065D02*
G01*
X67567950Y-86573908D01*
X67821818Y-86743536D01*
X68037714Y-86959432D01*
X68207342Y-87213300D01*
X68324185Y-87495382D01*
X68383750Y-87794838D01*
X68383750Y-88100162D01*
X68324185Y-88399618D01*
X68207342Y-88681700D01*
X68037714Y-88935568D01*
X67821818Y-89151464D01*
X67567950Y-89321092D01*
X67285868Y-89437935D01*
X66986412Y-89497500D01*
X66681088Y-89497500D01*
X66381632Y-89437935D01*
X66099550Y-89321092D01*
X65845682Y-89151464D01*
X65629786Y-88935568D01*
X65460158Y-88681700D01*
X65343315Y-88399618D01*
X65283750Y-88100162D01*
X65283750Y-87794838D01*
X65343315Y-87495382D01*
X65460158Y-87213300D01*
X65629786Y-86959432D01*
X65845682Y-86743536D01*
X66099550Y-86573908D01*
X66381632Y-86457065D01*
X66681088Y-86397500D01*
X66986412Y-86397500D01*
X67285868Y-86457065D01*
G37*
G36*
X29185868Y-86457065D02*
G01*
X29467950Y-86573908D01*
X29721818Y-86743536D01*
X29937714Y-86959432D01*
X30107342Y-87213300D01*
X30224185Y-87495382D01*
X30283750Y-87794838D01*
X30283750Y-88100162D01*
X30224185Y-88399618D01*
X30107342Y-88681700D01*
X29937714Y-88935568D01*
X29721818Y-89151464D01*
X29467950Y-89321092D01*
X29185868Y-89437935D01*
X28886412Y-89497500D01*
X28581088Y-89497500D01*
X28281632Y-89437935D01*
X27999550Y-89321092D01*
X27745682Y-89151464D01*
X27529786Y-88935568D01*
X27360158Y-88681700D01*
X27243315Y-88399618D01*
X27183750Y-88100162D01*
X27183750Y-87794838D01*
X27243315Y-87495382D01*
X27360158Y-87213300D01*
X27529786Y-86959432D01*
X27745682Y-86743536D01*
X27999550Y-86573908D01*
X28281632Y-86457065D01*
X28581088Y-86397500D01*
X28886412Y-86397500D01*
X29185868Y-86457065D01*
G37*
G36*
X86335868Y-86457065D02*
G01*
X86617950Y-86573908D01*
X86871818Y-86743536D01*
X87087714Y-86959432D01*
X87257342Y-87213300D01*
X87374185Y-87495382D01*
X87433750Y-87794838D01*
X87433750Y-88100162D01*
X87374185Y-88399618D01*
X87257342Y-88681700D01*
X87087714Y-88935568D01*
X86871818Y-89151464D01*
X86617950Y-89321092D01*
X86335868Y-89437935D01*
X86036412Y-89497500D01*
X85731088Y-89497500D01*
X85431632Y-89437935D01*
X85149550Y-89321092D01*
X84895682Y-89151464D01*
X84679786Y-88935568D01*
X84510158Y-88681700D01*
X84393315Y-88399618D01*
X84333750Y-88100162D01*
X84333750Y-87794838D01*
X84393315Y-87495382D01*
X84510158Y-87213300D01*
X84679786Y-86959432D01*
X84895682Y-86743536D01*
X85149550Y-86573908D01*
X85431632Y-86457065D01*
X85731088Y-86397500D01*
X86036412Y-86397500D01*
X86335868Y-86457065D01*
G37*
G36*
X54585868Y-83917065D02*
G01*
X54867950Y-84033908D01*
X55121818Y-84203536D01*
X55337714Y-84419432D01*
X55507342Y-84673300D01*
X55624185Y-84955382D01*
X55683750Y-85254838D01*
X55683750Y-85560162D01*
X55624185Y-85859618D01*
X55507342Y-86141700D01*
X55337714Y-86395568D01*
X55121818Y-86611464D01*
X54867950Y-86781092D01*
X54585868Y-86897935D01*
X54286412Y-86957500D01*
X53981088Y-86957500D01*
X53681632Y-86897935D01*
X53399550Y-86781092D01*
X53145682Y-86611464D01*
X52929786Y-86395568D01*
X52760158Y-86141700D01*
X52643315Y-85859618D01*
X52583750Y-85560162D01*
X52583750Y-85254838D01*
X52643315Y-84955382D01*
X52760158Y-84673300D01*
X52929786Y-84419432D01*
X53145682Y-84203536D01*
X53399550Y-84033908D01*
X53681632Y-83917065D01*
X53981088Y-83857500D01*
X54286412Y-83857500D01*
X54585868Y-83917065D01*
G37*
G36*
X35535868Y-83917065D02*
G01*
X35817950Y-84033908D01*
X36071818Y-84203536D01*
X36287714Y-84419432D01*
X36457342Y-84673300D01*
X36574185Y-84955382D01*
X36633750Y-85254838D01*
X36633750Y-85560162D01*
X36574185Y-85859618D01*
X36457342Y-86141700D01*
X36287714Y-86395568D01*
X36071818Y-86611464D01*
X35817950Y-86781092D01*
X35535868Y-86897935D01*
X35236412Y-86957500D01*
X34931088Y-86957500D01*
X34631632Y-86897935D01*
X34349550Y-86781092D01*
X34095682Y-86611464D01*
X33879786Y-86395568D01*
X33710158Y-86141700D01*
X33593315Y-85859618D01*
X33533750Y-85560162D01*
X33533750Y-85254838D01*
X33593315Y-84955382D01*
X33710158Y-84673300D01*
X33879786Y-84419432D01*
X34095682Y-84203536D01*
X34349550Y-84033908D01*
X34631632Y-83917065D01*
X34931088Y-83857500D01*
X35236412Y-83857500D01*
X35535868Y-83917065D01*
G37*
G36*
X73635868Y-83917065D02*
G01*
X73917950Y-84033908D01*
X74171818Y-84203536D01*
X74387714Y-84419432D01*
X74557342Y-84673300D01*
X74674185Y-84955382D01*
X74733750Y-85254838D01*
X74733750Y-85560162D01*
X74674185Y-85859618D01*
X74557342Y-86141700D01*
X74387714Y-86395568D01*
X74171818Y-86611464D01*
X73917950Y-86781092D01*
X73635868Y-86897935D01*
X73336412Y-86957500D01*
X73031088Y-86957500D01*
X72731632Y-86897935D01*
X72449550Y-86781092D01*
X72195682Y-86611464D01*
X71979786Y-86395568D01*
X71810158Y-86141700D01*
X71693315Y-85859618D01*
X71633750Y-85560162D01*
X71633750Y-85254838D01*
X71693315Y-84955382D01*
X71810158Y-84673300D01*
X71979786Y-84419432D01*
X72195682Y-84203536D01*
X72449550Y-84033908D01*
X72731632Y-83917065D01*
X73031088Y-83857500D01*
X73336412Y-83857500D01*
X73635868Y-83917065D01*
G37*
G36*
X92685868Y-83917065D02*
G01*
X92967950Y-84033908D01*
X93221818Y-84203536D01*
X93437714Y-84419432D01*
X93607342Y-84673300D01*
X93724185Y-84955382D01*
X93783750Y-85254838D01*
X93783750Y-85560162D01*
X93724185Y-85859618D01*
X93607342Y-86141700D01*
X93437714Y-86395568D01*
X93221818Y-86611464D01*
X92967950Y-86781092D01*
X92685868Y-86897935D01*
X92386412Y-86957500D01*
X92081088Y-86957500D01*
X91781632Y-86897935D01*
X91499550Y-86781092D01*
X91245682Y-86611464D01*
X91029786Y-86395568D01*
X90860158Y-86141700D01*
X90743315Y-85859618D01*
X90683750Y-85560162D01*
X90683750Y-85254838D01*
X90743315Y-84955382D01*
X90860158Y-84673300D01*
X91029786Y-84419432D01*
X91245682Y-84203536D01*
X91499550Y-84033908D01*
X91781632Y-83917065D01*
X92081088Y-83857500D01*
X92386412Y-83857500D01*
X92685868Y-83917065D01*
G37*
G36*
X109339934Y-69472146D02*
G01*
X109711900Y-69626219D01*
X110046661Y-69849899D01*
X110331351Y-70134589D01*
X110555031Y-70469350D01*
X110709104Y-70841316D01*
X110787650Y-71236193D01*
X110787650Y-71638807D01*
X110709104Y-72033684D01*
X110555031Y-72405650D01*
X110331351Y-72740411D01*
X110046661Y-73025101D01*
X109711900Y-73248781D01*
X109339934Y-73402854D01*
X108945057Y-73481400D01*
X108542443Y-73481400D01*
X108147566Y-73402854D01*
X107775600Y-73248781D01*
X107440839Y-73025101D01*
X107156149Y-72740411D01*
X106932469Y-72405650D01*
X106778396Y-72033684D01*
X106699850Y-71638807D01*
X106699850Y-71236193D01*
X106778396Y-70841316D01*
X106932469Y-70469350D01*
X107156149Y-70134589D01*
X107440839Y-69849899D01*
X107775600Y-69626219D01*
X108147566Y-69472146D01*
X108542443Y-69393600D01*
X108945057Y-69393600D01*
X109339934Y-69472146D01*
G37*
G36*
X90289934Y-69472146D02*
G01*
X90661900Y-69626219D01*
X90996661Y-69849899D01*
X91281351Y-70134589D01*
X91505031Y-70469350D01*
X91659104Y-70841316D01*
X91737650Y-71236193D01*
X91737650Y-71638807D01*
X91659104Y-72033684D01*
X91505031Y-72405650D01*
X91281351Y-72740411D01*
X90996661Y-73025101D01*
X90661900Y-73248781D01*
X90289934Y-73402854D01*
X89895057Y-73481400D01*
X89492443Y-73481400D01*
X89097566Y-73402854D01*
X88725600Y-73248781D01*
X88390839Y-73025101D01*
X88106149Y-72740411D01*
X87882469Y-72405650D01*
X87728396Y-72033684D01*
X87649850Y-71638807D01*
X87649850Y-71236193D01*
X87728396Y-70841316D01*
X87882469Y-70469350D01*
X88106149Y-70134589D01*
X88390839Y-69849899D01*
X88725600Y-69626219D01*
X89097566Y-69472146D01*
X89492443Y-69393600D01*
X89895057Y-69393600D01*
X90289934Y-69472146D01*
G37*
G36*
X71239934Y-69472146D02*
G01*
X71611900Y-69626219D01*
X71946661Y-69849899D01*
X72231351Y-70134589D01*
X72455031Y-70469350D01*
X72609104Y-70841316D01*
X72687650Y-71236193D01*
X72687650Y-71638807D01*
X72609104Y-72033684D01*
X72455031Y-72405650D01*
X72231351Y-72740411D01*
X71946661Y-73025101D01*
X71611900Y-73248781D01*
X71239934Y-73402854D01*
X70845057Y-73481400D01*
X70442443Y-73481400D01*
X70047566Y-73402854D01*
X69675600Y-73248781D01*
X69340839Y-73025101D01*
X69056149Y-72740411D01*
X68832469Y-72405650D01*
X68678396Y-72033684D01*
X68599850Y-71638807D01*
X68599850Y-71236193D01*
X68678396Y-70841316D01*
X68832469Y-70469350D01*
X69056149Y-70134589D01*
X69340839Y-69849899D01*
X69675600Y-69626219D01*
X70047566Y-69472146D01*
X70442443Y-69393600D01*
X70845057Y-69393600D01*
X71239934Y-69472146D01*
G37*
G36*
X52189934Y-69472146D02*
G01*
X52561900Y-69626219D01*
X52896661Y-69849899D01*
X53181351Y-70134589D01*
X53405031Y-70469350D01*
X53559104Y-70841316D01*
X53637650Y-71236193D01*
X53637650Y-71638807D01*
X53559104Y-72033684D01*
X53405031Y-72405650D01*
X53181351Y-72740411D01*
X52896661Y-73025101D01*
X52561900Y-73248781D01*
X52189934Y-73402854D01*
X51795057Y-73481400D01*
X51392443Y-73481400D01*
X50997566Y-73402854D01*
X50625600Y-73248781D01*
X50290839Y-73025101D01*
X50006149Y-72740411D01*
X49782469Y-72405650D01*
X49628396Y-72033684D01*
X49549850Y-71638807D01*
X49549850Y-71236193D01*
X49628396Y-70841316D01*
X49782469Y-70469350D01*
X50006149Y-70134589D01*
X50290839Y-69849899D01*
X50625600Y-69626219D01*
X50997566Y-69472146D01*
X51392443Y-69393600D01*
X51795057Y-69393600D01*
X52189934Y-69472146D01*
G37*
G36*
X33139934Y-69472146D02*
G01*
X33511900Y-69626219D01*
X33846661Y-69849899D01*
X34131351Y-70134589D01*
X34355031Y-70469350D01*
X34509104Y-70841316D01*
X34587650Y-71236193D01*
X34587650Y-71638807D01*
X34509104Y-72033684D01*
X34355031Y-72405650D01*
X34131351Y-72740411D01*
X33846661Y-73025101D01*
X33511900Y-73248781D01*
X33139934Y-73402854D01*
X32745057Y-73481400D01*
X32342443Y-73481400D01*
X31947566Y-73402854D01*
X31575600Y-73248781D01*
X31240839Y-73025101D01*
X30956149Y-72740411D01*
X30732469Y-72405650D01*
X30578396Y-72033684D01*
X30499850Y-71638807D01*
X30499850Y-71236193D01*
X30578396Y-70841316D01*
X30732469Y-70469350D01*
X30956149Y-70134589D01*
X31240839Y-69849899D01*
X31575600Y-69626219D01*
X31947566Y-69472146D01*
X32342443Y-69393600D01*
X32745057Y-69393600D01*
X33139934Y-69472146D01*
G37*
G36*
X103839507Y-70553910D02*
G01*
X103926534Y-70571221D01*
X104090486Y-70639132D01*
X104238041Y-70737725D01*
X104363525Y-70863209D01*
X104462118Y-71010764D01*
X104530029Y-71174716D01*
X104564650Y-71348770D01*
X104564650Y-71526230D01*
X104530029Y-71700284D01*
X104462118Y-71864236D01*
X104363525Y-72011791D01*
X104238041Y-72137275D01*
X104090486Y-72235868D01*
X103926534Y-72303779D01*
X103839507Y-72321089D01*
X103752481Y-72338400D01*
X103575019Y-72338400D01*
X103487993Y-72321089D01*
X103400966Y-72303779D01*
X103237014Y-72235868D01*
X103089459Y-72137275D01*
X102963975Y-72011791D01*
X102865382Y-71864236D01*
X102797471Y-71700284D01*
X102762850Y-71526230D01*
X102762850Y-71348770D01*
X102797471Y-71174716D01*
X102865382Y-71010764D01*
X102963975Y-70863209D01*
X103089459Y-70737725D01*
X103237014Y-70639132D01*
X103400966Y-70571221D01*
X103487993Y-70553910D01*
X103575019Y-70536600D01*
X103752481Y-70536600D01*
X103839507Y-70553910D01*
G37*
G36*
X46689507Y-70553910D02*
G01*
X46776534Y-70571221D01*
X46940486Y-70639132D01*
X47088041Y-70737725D01*
X47213525Y-70863209D01*
X47312118Y-71010764D01*
X47380029Y-71174716D01*
X47414650Y-71348770D01*
X47414650Y-71526230D01*
X47380029Y-71700284D01*
X47312118Y-71864236D01*
X47213525Y-72011791D01*
X47088041Y-72137275D01*
X46940486Y-72235868D01*
X46776534Y-72303779D01*
X46689507Y-72321089D01*
X46602481Y-72338400D01*
X46425019Y-72338400D01*
X46337993Y-72321089D01*
X46250966Y-72303779D01*
X46087014Y-72235868D01*
X45939459Y-72137275D01*
X45813975Y-72011791D01*
X45715382Y-71864236D01*
X45647471Y-71700284D01*
X45612850Y-71526230D01*
X45612850Y-71348770D01*
X45647471Y-71174716D01*
X45715382Y-71010764D01*
X45813975Y-70863209D01*
X45939459Y-70737725D01*
X46087014Y-70639132D01*
X46250966Y-70571221D01*
X46337993Y-70553910D01*
X46425019Y-70536600D01*
X46602481Y-70536600D01*
X46689507Y-70553910D01*
G37*
G36*
X94949507Y-70553910D02*
G01*
X95036534Y-70571221D01*
X95200486Y-70639132D01*
X95348041Y-70737725D01*
X95473525Y-70863209D01*
X95572118Y-71010764D01*
X95640029Y-71174716D01*
X95674650Y-71348770D01*
X95674650Y-71526230D01*
X95640029Y-71700284D01*
X95572118Y-71864236D01*
X95473525Y-72011791D01*
X95348041Y-72137275D01*
X95200486Y-72235868D01*
X95036534Y-72303779D01*
X94949507Y-72321089D01*
X94862481Y-72338400D01*
X94685019Y-72338400D01*
X94597993Y-72321089D01*
X94510966Y-72303779D01*
X94347014Y-72235868D01*
X94199459Y-72137275D01*
X94073975Y-72011791D01*
X93975382Y-71864236D01*
X93907471Y-71700284D01*
X93872850Y-71526230D01*
X93872850Y-71348770D01*
X93907471Y-71174716D01*
X93975382Y-71010764D01*
X94073975Y-70863209D01*
X94199459Y-70737725D01*
X94347014Y-70639132D01*
X94510966Y-70571221D01*
X94597993Y-70553910D01*
X94685019Y-70536600D01*
X94862481Y-70536600D01*
X94949507Y-70553910D01*
G37*
G36*
X84789507Y-70553910D02*
G01*
X84876534Y-70571221D01*
X85040486Y-70639132D01*
X85188041Y-70737725D01*
X85313525Y-70863209D01*
X85412118Y-71010764D01*
X85480029Y-71174716D01*
X85514650Y-71348770D01*
X85514650Y-71526230D01*
X85480029Y-71700284D01*
X85412118Y-71864236D01*
X85313525Y-72011791D01*
X85188041Y-72137275D01*
X85040486Y-72235868D01*
X84876534Y-72303779D01*
X84789507Y-72321089D01*
X84702481Y-72338400D01*
X84525019Y-72338400D01*
X84437993Y-72321089D01*
X84350966Y-72303779D01*
X84187014Y-72235868D01*
X84039459Y-72137275D01*
X83913975Y-72011791D01*
X83815382Y-71864236D01*
X83747471Y-71700284D01*
X83712850Y-71526230D01*
X83712850Y-71348770D01*
X83747471Y-71174716D01*
X83815382Y-71010764D01*
X83913975Y-70863209D01*
X84039459Y-70737725D01*
X84187014Y-70639132D01*
X84350966Y-70571221D01*
X84437993Y-70553910D01*
X84525019Y-70536600D01*
X84702481Y-70536600D01*
X84789507Y-70553910D01*
G37*
G36*
X113999507Y-70553910D02*
G01*
X114086534Y-70571221D01*
X114250486Y-70639132D01*
X114398041Y-70737725D01*
X114523525Y-70863209D01*
X114622118Y-71010764D01*
X114690029Y-71174716D01*
X114724650Y-71348770D01*
X114724650Y-71526230D01*
X114690029Y-71700284D01*
X114622118Y-71864236D01*
X114523525Y-72011791D01*
X114398041Y-72137275D01*
X114250486Y-72235868D01*
X114086534Y-72303779D01*
X113999507Y-72321089D01*
X113912481Y-72338400D01*
X113735019Y-72338400D01*
X113647993Y-72321089D01*
X113560966Y-72303779D01*
X113397014Y-72235868D01*
X113249459Y-72137275D01*
X113123975Y-72011791D01*
X113025382Y-71864236D01*
X112957471Y-71700284D01*
X112922850Y-71526230D01*
X112922850Y-71348770D01*
X112957471Y-71174716D01*
X113025382Y-71010764D01*
X113123975Y-70863209D01*
X113249459Y-70737725D01*
X113397014Y-70639132D01*
X113560966Y-70571221D01*
X113647993Y-70553910D01*
X113735019Y-70536600D01*
X113912481Y-70536600D01*
X113999507Y-70553910D01*
G37*
G36*
X75899507Y-70553910D02*
G01*
X75986534Y-70571221D01*
X76150486Y-70639132D01*
X76298041Y-70737725D01*
X76423525Y-70863209D01*
X76522118Y-71010764D01*
X76590029Y-71174716D01*
X76624650Y-71348770D01*
X76624650Y-71526230D01*
X76590029Y-71700284D01*
X76522118Y-71864236D01*
X76423525Y-72011791D01*
X76298041Y-72137275D01*
X76150486Y-72235868D01*
X75986534Y-72303779D01*
X75899507Y-72321089D01*
X75812481Y-72338400D01*
X75635019Y-72338400D01*
X75547993Y-72321089D01*
X75460966Y-72303779D01*
X75297014Y-72235868D01*
X75149459Y-72137275D01*
X75023975Y-72011791D01*
X74925382Y-71864236D01*
X74857471Y-71700284D01*
X74822850Y-71526230D01*
X74822850Y-71348770D01*
X74857471Y-71174716D01*
X74925382Y-71010764D01*
X75023975Y-70863209D01*
X75149459Y-70737725D01*
X75297014Y-70639132D01*
X75460966Y-70571221D01*
X75547993Y-70553910D01*
X75635019Y-70536600D01*
X75812481Y-70536600D01*
X75899507Y-70553910D01*
G37*
G36*
X56849507Y-70553910D02*
G01*
X56936534Y-70571221D01*
X57100486Y-70639132D01*
X57248041Y-70737725D01*
X57373525Y-70863209D01*
X57472118Y-71010764D01*
X57540029Y-71174716D01*
X57574650Y-71348770D01*
X57574650Y-71526230D01*
X57540029Y-71700284D01*
X57472118Y-71864236D01*
X57373525Y-72011791D01*
X57248041Y-72137275D01*
X57100486Y-72235868D01*
X56936534Y-72303779D01*
X56849507Y-72321089D01*
X56762481Y-72338400D01*
X56585019Y-72338400D01*
X56497993Y-72321089D01*
X56410966Y-72303779D01*
X56247014Y-72235868D01*
X56099459Y-72137275D01*
X55973975Y-72011791D01*
X55875382Y-71864236D01*
X55807471Y-71700284D01*
X55772850Y-71526230D01*
X55772850Y-71348770D01*
X55807471Y-71174716D01*
X55875382Y-71010764D01*
X55973975Y-70863209D01*
X56099459Y-70737725D01*
X56247014Y-70639132D01*
X56410966Y-70571221D01*
X56497993Y-70553910D01*
X56585019Y-70536600D01*
X56762481Y-70536600D01*
X56849507Y-70553910D01*
G37*
G36*
X65739507Y-70553910D02*
G01*
X65826534Y-70571221D01*
X65990486Y-70639132D01*
X66138041Y-70737725D01*
X66263525Y-70863209D01*
X66362118Y-71010764D01*
X66430029Y-71174716D01*
X66464650Y-71348770D01*
X66464650Y-71526230D01*
X66430029Y-71700284D01*
X66362118Y-71864236D01*
X66263525Y-72011791D01*
X66138041Y-72137275D01*
X65990486Y-72235868D01*
X65826534Y-72303779D01*
X65739507Y-72321089D01*
X65652481Y-72338400D01*
X65475019Y-72338400D01*
X65387993Y-72321089D01*
X65300966Y-72303779D01*
X65137014Y-72235868D01*
X64989459Y-72137275D01*
X64863975Y-72011791D01*
X64765382Y-71864236D01*
X64697471Y-71700284D01*
X64662850Y-71526230D01*
X64662850Y-71348770D01*
X64697471Y-71174716D01*
X64765382Y-71010764D01*
X64863975Y-70863209D01*
X64989459Y-70737725D01*
X65137014Y-70639132D01*
X65300966Y-70571221D01*
X65387993Y-70553910D01*
X65475019Y-70536600D01*
X65652481Y-70536600D01*
X65739507Y-70553910D01*
G37*
G36*
X27639507Y-70553910D02*
G01*
X27726534Y-70571221D01*
X27890486Y-70639132D01*
X28038041Y-70737725D01*
X28163525Y-70863209D01*
X28262118Y-71010764D01*
X28330029Y-71174716D01*
X28364650Y-71348770D01*
X28364650Y-71526230D01*
X28330029Y-71700284D01*
X28262118Y-71864236D01*
X28163525Y-72011791D01*
X28038041Y-72137275D01*
X27890486Y-72235868D01*
X27726534Y-72303779D01*
X27639507Y-72321089D01*
X27552481Y-72338400D01*
X27375019Y-72338400D01*
X27287993Y-72321089D01*
X27200966Y-72303779D01*
X27037014Y-72235868D01*
X26889459Y-72137275D01*
X26763975Y-72011791D01*
X26665382Y-71864236D01*
X26597471Y-71700284D01*
X26562850Y-71526230D01*
X26562850Y-71348770D01*
X26597471Y-71174716D01*
X26665382Y-71010764D01*
X26763975Y-70863209D01*
X26889459Y-70737725D01*
X27037014Y-70639132D01*
X27200966Y-70571221D01*
X27287993Y-70553910D01*
X27375019Y-70536600D01*
X27552481Y-70536600D01*
X27639507Y-70553910D01*
G37*
G36*
X37799507Y-70553910D02*
G01*
X37886534Y-70571221D01*
X38050486Y-70639132D01*
X38198041Y-70737725D01*
X38323525Y-70863209D01*
X38422118Y-71010764D01*
X38490029Y-71174716D01*
X38524650Y-71348770D01*
X38524650Y-71526230D01*
X38490029Y-71700284D01*
X38422118Y-71864236D01*
X38323525Y-72011791D01*
X38198041Y-72137275D01*
X38050486Y-72235868D01*
X37886534Y-72303779D01*
X37799507Y-72321089D01*
X37712481Y-72338400D01*
X37535019Y-72338400D01*
X37447993Y-72321089D01*
X37360966Y-72303779D01*
X37197014Y-72235868D01*
X37049459Y-72137275D01*
X36923975Y-72011791D01*
X36825382Y-71864236D01*
X36757471Y-71700284D01*
X36722850Y-71526230D01*
X36722850Y-71348770D01*
X36757471Y-71174716D01*
X36825382Y-71010764D01*
X36923975Y-70863209D01*
X37049459Y-70737725D01*
X37197014Y-70639132D01*
X37360966Y-70571221D01*
X37447993Y-70553910D01*
X37535019Y-70536600D01*
X37712481Y-70536600D01*
X37799507Y-70553910D01*
G37*
G36*
X155281250Y-70825000D02*
G01*
X151981250Y-70825000D01*
X151981250Y-68725000D01*
X155281250Y-68725000D01*
X155281250Y-70825000D01*
G37*
G36*
X29185868Y-67407065D02*
G01*
X29467950Y-67523908D01*
X29721818Y-67693536D01*
X29937714Y-67909432D01*
X30107342Y-68163300D01*
X30224185Y-68445382D01*
X30283750Y-68744838D01*
X30283750Y-69050162D01*
X30224185Y-69349618D01*
X30107342Y-69631700D01*
X29937714Y-69885568D01*
X29721818Y-70101464D01*
X29467950Y-70271092D01*
X29185868Y-70387935D01*
X28886412Y-70447500D01*
X28581088Y-70447500D01*
X28281632Y-70387935D01*
X27999550Y-70271092D01*
X27745682Y-70101464D01*
X27529786Y-69885568D01*
X27360158Y-69631700D01*
X27243315Y-69349618D01*
X27183750Y-69050162D01*
X27183750Y-68744838D01*
X27243315Y-68445382D01*
X27360158Y-68163300D01*
X27529786Y-67909432D01*
X27745682Y-67693536D01*
X27999550Y-67523908D01*
X28281632Y-67407065D01*
X28581088Y-67347500D01*
X28886412Y-67347500D01*
X29185868Y-67407065D01*
G37*
G36*
X48235868Y-67407065D02*
G01*
X48517950Y-67523908D01*
X48771818Y-67693536D01*
X48987714Y-67909432D01*
X49157342Y-68163300D01*
X49274185Y-68445382D01*
X49333750Y-68744838D01*
X49333750Y-69050162D01*
X49274185Y-69349618D01*
X49157342Y-69631700D01*
X48987714Y-69885568D01*
X48771818Y-70101464D01*
X48517950Y-70271092D01*
X48235868Y-70387935D01*
X47936412Y-70447500D01*
X47631088Y-70447500D01*
X47331632Y-70387935D01*
X47049550Y-70271092D01*
X46795682Y-70101464D01*
X46579786Y-69885568D01*
X46410158Y-69631700D01*
X46293315Y-69349618D01*
X46233750Y-69050162D01*
X46233750Y-68744838D01*
X46293315Y-68445382D01*
X46410158Y-68163300D01*
X46579786Y-67909432D01*
X46795682Y-67693536D01*
X47049550Y-67523908D01*
X47331632Y-67407065D01*
X47631088Y-67347500D01*
X47936412Y-67347500D01*
X48235868Y-67407065D01*
G37*
G36*
X105385868Y-67407065D02*
G01*
X105667950Y-67523908D01*
X105921818Y-67693536D01*
X106137714Y-67909432D01*
X106307342Y-68163300D01*
X106424185Y-68445382D01*
X106483750Y-68744838D01*
X106483750Y-69050162D01*
X106424185Y-69349618D01*
X106307342Y-69631700D01*
X106137714Y-69885568D01*
X105921818Y-70101464D01*
X105667950Y-70271092D01*
X105385868Y-70387935D01*
X105086412Y-70447500D01*
X104781088Y-70447500D01*
X104481632Y-70387935D01*
X104199550Y-70271092D01*
X103945682Y-70101464D01*
X103729786Y-69885568D01*
X103560158Y-69631700D01*
X103443315Y-69349618D01*
X103383750Y-69050162D01*
X103383750Y-68744838D01*
X103443315Y-68445382D01*
X103560158Y-68163300D01*
X103729786Y-67909432D01*
X103945682Y-67693536D01*
X104199550Y-67523908D01*
X104481632Y-67407065D01*
X104781088Y-67347500D01*
X105086412Y-67347500D01*
X105385868Y-67407065D01*
G37*
G36*
X86335868Y-67407065D02*
G01*
X86617950Y-67523908D01*
X86871818Y-67693536D01*
X87087714Y-67909432D01*
X87257342Y-68163300D01*
X87374185Y-68445382D01*
X87433750Y-68744838D01*
X87433750Y-69050162D01*
X87374185Y-69349618D01*
X87257342Y-69631700D01*
X87087714Y-69885568D01*
X86871818Y-70101464D01*
X86617950Y-70271092D01*
X86335868Y-70387935D01*
X86036412Y-70447500D01*
X85731088Y-70447500D01*
X85431632Y-70387935D01*
X85149550Y-70271092D01*
X84895682Y-70101464D01*
X84679786Y-69885568D01*
X84510158Y-69631700D01*
X84393315Y-69349618D01*
X84333750Y-69050162D01*
X84333750Y-68744838D01*
X84393315Y-68445382D01*
X84510158Y-68163300D01*
X84679786Y-67909432D01*
X84895682Y-67693536D01*
X85149550Y-67523908D01*
X85431632Y-67407065D01*
X85731088Y-67347500D01*
X86036412Y-67347500D01*
X86335868Y-67407065D01*
G37*
G36*
X67285868Y-67407065D02*
G01*
X67567950Y-67523908D01*
X67821818Y-67693536D01*
X68037714Y-67909432D01*
X68207342Y-68163300D01*
X68324185Y-68445382D01*
X68383750Y-68744838D01*
X68383750Y-69050162D01*
X68324185Y-69349618D01*
X68207342Y-69631700D01*
X68037714Y-69885568D01*
X67821818Y-70101464D01*
X67567950Y-70271092D01*
X67285868Y-70387935D01*
X66986412Y-70447500D01*
X66681088Y-70447500D01*
X66381632Y-70387935D01*
X66099550Y-70271092D01*
X65845682Y-70101464D01*
X65629786Y-69885568D01*
X65460158Y-69631700D01*
X65343315Y-69349618D01*
X65283750Y-69050162D01*
X65283750Y-68744838D01*
X65343315Y-68445382D01*
X65460158Y-68163300D01*
X65629786Y-67909432D01*
X65845682Y-67693536D01*
X66099550Y-67523908D01*
X66381632Y-67407065D01*
X66681088Y-67347500D01*
X66986412Y-67347500D01*
X67285868Y-67407065D01*
G37*
G36*
X73635868Y-64867065D02*
G01*
X73917950Y-64983908D01*
X74171818Y-65153536D01*
X74387714Y-65369432D01*
X74557342Y-65623300D01*
X74674185Y-65905382D01*
X74733750Y-66204838D01*
X74733750Y-66510162D01*
X74674185Y-66809618D01*
X74557342Y-67091700D01*
X74387714Y-67345568D01*
X74171818Y-67561464D01*
X73917950Y-67731092D01*
X73635868Y-67847935D01*
X73336412Y-67907500D01*
X73031088Y-67907500D01*
X72731632Y-67847935D01*
X72449550Y-67731092D01*
X72195682Y-67561464D01*
X71979786Y-67345568D01*
X71810158Y-67091700D01*
X71693315Y-66809618D01*
X71633750Y-66510162D01*
X71633750Y-66204838D01*
X71693315Y-65905382D01*
X71810158Y-65623300D01*
X71979786Y-65369432D01*
X72195682Y-65153536D01*
X72449550Y-64983908D01*
X72731632Y-64867065D01*
X73031088Y-64807500D01*
X73336412Y-64807500D01*
X73635868Y-64867065D01*
G37*
G36*
X92685868Y-64867065D02*
G01*
X92967950Y-64983908D01*
X93221818Y-65153536D01*
X93437714Y-65369432D01*
X93607342Y-65623300D01*
X93724185Y-65905382D01*
X93783750Y-66204838D01*
X93783750Y-66510162D01*
X93724185Y-66809618D01*
X93607342Y-67091700D01*
X93437714Y-67345568D01*
X93221818Y-67561464D01*
X92967950Y-67731092D01*
X92685868Y-67847935D01*
X92386412Y-67907500D01*
X92081088Y-67907500D01*
X91781632Y-67847935D01*
X91499550Y-67731092D01*
X91245682Y-67561464D01*
X91029786Y-67345568D01*
X90860158Y-67091700D01*
X90743315Y-66809618D01*
X90683750Y-66510162D01*
X90683750Y-66204838D01*
X90743315Y-65905382D01*
X90860158Y-65623300D01*
X91029786Y-65369432D01*
X91245682Y-65153536D01*
X91499550Y-64983908D01*
X91781632Y-64867065D01*
X92081088Y-64807500D01*
X92386412Y-64807500D01*
X92685868Y-64867065D01*
G37*
G36*
X54585868Y-64867065D02*
G01*
X54867950Y-64983908D01*
X55121818Y-65153536D01*
X55337714Y-65369432D01*
X55507342Y-65623300D01*
X55624185Y-65905382D01*
X55683750Y-66204838D01*
X55683750Y-66510162D01*
X55624185Y-66809618D01*
X55507342Y-67091700D01*
X55337714Y-67345568D01*
X55121818Y-67561464D01*
X54867950Y-67731092D01*
X54585868Y-67847935D01*
X54286412Y-67907500D01*
X53981088Y-67907500D01*
X53681632Y-67847935D01*
X53399550Y-67731092D01*
X53145682Y-67561464D01*
X52929786Y-67345568D01*
X52760158Y-67091700D01*
X52643315Y-66809618D01*
X52583750Y-66510162D01*
X52583750Y-66204838D01*
X52643315Y-65905382D01*
X52760158Y-65623300D01*
X52929786Y-65369432D01*
X53145682Y-65153536D01*
X53399550Y-64983908D01*
X53681632Y-64867065D01*
X53981088Y-64807500D01*
X54286412Y-64807500D01*
X54585868Y-64867065D01*
G37*
G36*
X35535868Y-64867065D02*
G01*
X35817950Y-64983908D01*
X36071818Y-65153536D01*
X36287714Y-65369432D01*
X36457342Y-65623300D01*
X36574185Y-65905382D01*
X36633750Y-66204838D01*
X36633750Y-66510162D01*
X36574185Y-66809618D01*
X36457342Y-67091700D01*
X36287714Y-67345568D01*
X36071818Y-67561464D01*
X35817950Y-67731092D01*
X35535868Y-67847935D01*
X35236412Y-67907500D01*
X34931088Y-67907500D01*
X34631632Y-67847935D01*
X34349550Y-67731092D01*
X34095682Y-67561464D01*
X33879786Y-67345568D01*
X33710158Y-67091700D01*
X33593315Y-66809618D01*
X33533750Y-66510162D01*
X33533750Y-66204838D01*
X33593315Y-65905382D01*
X33710158Y-65623300D01*
X33879786Y-65369432D01*
X34095682Y-65153536D01*
X34349550Y-64983908D01*
X34631632Y-64867065D01*
X34931088Y-64807500D01*
X35236412Y-64807500D01*
X35535868Y-64867065D01*
G37*
G36*
X111735868Y-64867065D02*
G01*
X112017950Y-64983908D01*
X112271818Y-65153536D01*
X112487714Y-65369432D01*
X112657342Y-65623300D01*
X112774185Y-65905382D01*
X112833750Y-66204838D01*
X112833750Y-66510162D01*
X112774185Y-66809618D01*
X112657342Y-67091700D01*
X112487714Y-67345568D01*
X112271818Y-67561464D01*
X112017950Y-67731092D01*
X111735868Y-67847935D01*
X111436412Y-67907500D01*
X111131088Y-67907500D01*
X110831632Y-67847935D01*
X110549550Y-67731092D01*
X110295682Y-67561464D01*
X110079786Y-67345568D01*
X109910158Y-67091700D01*
X109793315Y-66809618D01*
X109733750Y-66510162D01*
X109733750Y-66204838D01*
X109793315Y-65905382D01*
X109910158Y-65623300D01*
X110079786Y-65369432D01*
X110295682Y-65153536D01*
X110549550Y-64983908D01*
X110831632Y-64867065D01*
X111131088Y-64807500D01*
X111436412Y-64807500D01*
X111735868Y-64867065D01*
G37*
G36*
X162181250Y-67725000D02*
G01*
X160081250Y-67725000D01*
X160081250Y-65625000D01*
X162181250Y-65625000D01*
X162181250Y-67725000D01*
G37*
G36*
X146937524Y-65665350D02*
G01*
X147128612Y-65744502D01*
X147300586Y-65859411D01*
X147446839Y-66005664D01*
X147561748Y-66177638D01*
X147640900Y-66368726D01*
X147681250Y-66571584D01*
X147681250Y-66778416D01*
X147640900Y-66981274D01*
X147561748Y-67172362D01*
X147446839Y-67344336D01*
X147300586Y-67490589D01*
X147128612Y-67605498D01*
X146937524Y-67684650D01*
X146734666Y-67725000D01*
X146527834Y-67725000D01*
X146324976Y-67684650D01*
X146133888Y-67605498D01*
X145961914Y-67490589D01*
X145815661Y-67344336D01*
X145700752Y-67172362D01*
X145621600Y-66981274D01*
X145581250Y-66778416D01*
X145581250Y-66571584D01*
X145621600Y-66368726D01*
X145700752Y-66177638D01*
X145815661Y-66005664D01*
X145961914Y-65859411D01*
X146133888Y-65744502D01*
X146324976Y-65665350D01*
X146527834Y-65625000D01*
X146734666Y-65625000D01*
X146937524Y-65665350D01*
G37*
G36*
X161437524Y-63165350D02*
G01*
X161628612Y-63244502D01*
X161800586Y-63359411D01*
X161946839Y-63505664D01*
X162061748Y-63677638D01*
X162140900Y-63868726D01*
X162181250Y-64071584D01*
X162181250Y-64278416D01*
X162140900Y-64481274D01*
X162061748Y-64672362D01*
X161946839Y-64844336D01*
X161800586Y-64990589D01*
X161628612Y-65105498D01*
X161437524Y-65184650D01*
X161234666Y-65225000D01*
X161027834Y-65225000D01*
X160824976Y-65184650D01*
X160633888Y-65105498D01*
X160461914Y-64990589D01*
X160315661Y-64844336D01*
X160200752Y-64672362D01*
X160121600Y-64481274D01*
X160081250Y-64278416D01*
X160081250Y-64071584D01*
X160121600Y-63868726D01*
X160200752Y-63677638D01*
X160315661Y-63505664D01*
X160461914Y-63359411D01*
X160633888Y-63244502D01*
X160824976Y-63165350D01*
X161027834Y-63125000D01*
X161234666Y-63125000D01*
X161437524Y-63165350D01*
G37*
G36*
X161437524Y-60665350D02*
G01*
X161628612Y-60744502D01*
X161800586Y-60859411D01*
X161946839Y-61005664D01*
X162061748Y-61177638D01*
X162140900Y-61368726D01*
X162181250Y-61571584D01*
X162181250Y-61778416D01*
X162140900Y-61981274D01*
X162061748Y-62172362D01*
X161946839Y-62344336D01*
X161800586Y-62490589D01*
X161628612Y-62605498D01*
X161437524Y-62684650D01*
X161234666Y-62725000D01*
X161027834Y-62725000D01*
X160824976Y-62684650D01*
X160633888Y-62605498D01*
X160461914Y-62490589D01*
X160315661Y-62344336D01*
X160200752Y-62172362D01*
X160121600Y-61981274D01*
X160081250Y-61778416D01*
X160081250Y-61571584D01*
X160121600Y-61368726D01*
X160200752Y-61177638D01*
X160315661Y-61005664D01*
X160461914Y-60859411D01*
X160633888Y-60744502D01*
X160824976Y-60665350D01*
X161027834Y-60625000D01*
X161234666Y-60625000D01*
X161437524Y-60665350D01*
G37*
G36*
X146937524Y-60665350D02*
G01*
X147128612Y-60744502D01*
X147300586Y-60859411D01*
X147446839Y-61005664D01*
X147561748Y-61177638D01*
X147640900Y-61368726D01*
X147681250Y-61571584D01*
X147681250Y-61778416D01*
X147640900Y-61981274D01*
X147561748Y-62172362D01*
X147446839Y-62344336D01*
X147300586Y-62490589D01*
X147128612Y-62605498D01*
X146937524Y-62684650D01*
X146734666Y-62725000D01*
X146527834Y-62725000D01*
X146324976Y-62684650D01*
X146133888Y-62605498D01*
X145961914Y-62490589D01*
X145815661Y-62344336D01*
X145700752Y-62172362D01*
X145621600Y-61981274D01*
X145581250Y-61778416D01*
X145581250Y-61571584D01*
X145621600Y-61368726D01*
X145700752Y-61177638D01*
X145815661Y-61005664D01*
X145961914Y-60859411D01*
X146133888Y-60744502D01*
X146324976Y-60665350D01*
X146527834Y-60625000D01*
X146734666Y-60625000D01*
X146937524Y-60665350D01*
G37*
G36*
X155281250Y-59625000D02*
G01*
X151981250Y-59625000D01*
X151981250Y-57525000D01*
X155281250Y-57525000D01*
X155281250Y-59625000D01*
G37*
G36*
X33139934Y-50422146D02*
G01*
X33511900Y-50576219D01*
X33846661Y-50799899D01*
X34131351Y-51084589D01*
X34355031Y-51419350D01*
X34509104Y-51791316D01*
X34587650Y-52186193D01*
X34587650Y-52588807D01*
X34509104Y-52983684D01*
X34355031Y-53355650D01*
X34131351Y-53690411D01*
X33846661Y-53975101D01*
X33511900Y-54198781D01*
X33139934Y-54352854D01*
X32745057Y-54431400D01*
X32342443Y-54431400D01*
X31947566Y-54352854D01*
X31575600Y-54198781D01*
X31240839Y-53975101D01*
X30956149Y-53690411D01*
X30732469Y-53355650D01*
X30578396Y-52983684D01*
X30499850Y-52588807D01*
X30499850Y-52186193D01*
X30578396Y-51791316D01*
X30732469Y-51419350D01*
X30956149Y-51084589D01*
X31240839Y-50799899D01*
X31575600Y-50576219D01*
X31947566Y-50422146D01*
X32342443Y-50343600D01*
X32745057Y-50343600D01*
X33139934Y-50422146D01*
G37*
G36*
X52189934Y-50422146D02*
G01*
X52561900Y-50576219D01*
X52896661Y-50799899D01*
X53181351Y-51084589D01*
X53405031Y-51419350D01*
X53559104Y-51791316D01*
X53637650Y-52186193D01*
X53637650Y-52588807D01*
X53559104Y-52983684D01*
X53405031Y-53355650D01*
X53181351Y-53690411D01*
X52896661Y-53975101D01*
X52561900Y-54198781D01*
X52189934Y-54352854D01*
X51795057Y-54431400D01*
X51392443Y-54431400D01*
X50997566Y-54352854D01*
X50625600Y-54198781D01*
X50290839Y-53975101D01*
X50006149Y-53690411D01*
X49782469Y-53355650D01*
X49628396Y-52983684D01*
X49549850Y-52588807D01*
X49549850Y-52186193D01*
X49628396Y-51791316D01*
X49782469Y-51419350D01*
X50006149Y-51084589D01*
X50290839Y-50799899D01*
X50625600Y-50576219D01*
X50997566Y-50422146D01*
X51392443Y-50343600D01*
X51795057Y-50343600D01*
X52189934Y-50422146D01*
G37*
G36*
X71239934Y-50422146D02*
G01*
X71611900Y-50576219D01*
X71946661Y-50799899D01*
X72231351Y-51084589D01*
X72455031Y-51419350D01*
X72609104Y-51791316D01*
X72687650Y-52186193D01*
X72687650Y-52588807D01*
X72609104Y-52983684D01*
X72455031Y-53355650D01*
X72231351Y-53690411D01*
X71946661Y-53975101D01*
X71611900Y-54198781D01*
X71239934Y-54352854D01*
X70845057Y-54431400D01*
X70442443Y-54431400D01*
X70047566Y-54352854D01*
X69675600Y-54198781D01*
X69340839Y-53975101D01*
X69056149Y-53690411D01*
X68832469Y-53355650D01*
X68678396Y-52983684D01*
X68599850Y-52588807D01*
X68599850Y-52186193D01*
X68678396Y-51791316D01*
X68832469Y-51419350D01*
X69056149Y-51084589D01*
X69340839Y-50799899D01*
X69675600Y-50576219D01*
X70047566Y-50422146D01*
X70442443Y-50343600D01*
X70845057Y-50343600D01*
X71239934Y-50422146D01*
G37*
G36*
X90289934Y-50422146D02*
G01*
X90661900Y-50576219D01*
X90996661Y-50799899D01*
X91281351Y-51084589D01*
X91505031Y-51419350D01*
X91659104Y-51791316D01*
X91737650Y-52186193D01*
X91737650Y-52588807D01*
X91659104Y-52983684D01*
X91505031Y-53355650D01*
X91281351Y-53690411D01*
X90996661Y-53975101D01*
X90661900Y-54198781D01*
X90289934Y-54352854D01*
X89895057Y-54431400D01*
X89492443Y-54431400D01*
X89097566Y-54352854D01*
X88725600Y-54198781D01*
X88390839Y-53975101D01*
X88106149Y-53690411D01*
X87882469Y-53355650D01*
X87728396Y-52983684D01*
X87649850Y-52588807D01*
X87649850Y-52186193D01*
X87728396Y-51791316D01*
X87882469Y-51419350D01*
X88106149Y-51084589D01*
X88390839Y-50799899D01*
X88725600Y-50576219D01*
X89097566Y-50422146D01*
X89492443Y-50343600D01*
X89895057Y-50343600D01*
X90289934Y-50422146D01*
G37*
G36*
X109339934Y-50422146D02*
G01*
X109711900Y-50576219D01*
X110046661Y-50799899D01*
X110331351Y-51084589D01*
X110555031Y-51419350D01*
X110709104Y-51791316D01*
X110787650Y-52186193D01*
X110787650Y-52588807D01*
X110709104Y-52983684D01*
X110555031Y-53355650D01*
X110331351Y-53690411D01*
X110046661Y-53975101D01*
X109711900Y-54198781D01*
X109339934Y-54352854D01*
X108945057Y-54431400D01*
X108542443Y-54431400D01*
X108147566Y-54352854D01*
X107775600Y-54198781D01*
X107440839Y-53975101D01*
X107156149Y-53690411D01*
X106932469Y-53355650D01*
X106778396Y-52983684D01*
X106699850Y-52588807D01*
X106699850Y-52186193D01*
X106778396Y-51791316D01*
X106932469Y-51419350D01*
X107156149Y-51084589D01*
X107440839Y-50799899D01*
X107775600Y-50576219D01*
X108147566Y-50422146D01*
X108542443Y-50343600D01*
X108945057Y-50343600D01*
X109339934Y-50422146D01*
G37*
G36*
X128389934Y-50422146D02*
G01*
X128761900Y-50576219D01*
X129096661Y-50799899D01*
X129381351Y-51084589D01*
X129605031Y-51419350D01*
X129759104Y-51791316D01*
X129837650Y-52186193D01*
X129837650Y-52588807D01*
X129759104Y-52983684D01*
X129605031Y-53355650D01*
X129381351Y-53690411D01*
X129096661Y-53975101D01*
X128761900Y-54198781D01*
X128389934Y-54352854D01*
X127995057Y-54431400D01*
X127592443Y-54431400D01*
X127197566Y-54352854D01*
X126825600Y-54198781D01*
X126490839Y-53975101D01*
X126206149Y-53690411D01*
X125982469Y-53355650D01*
X125828396Y-52983684D01*
X125749850Y-52588807D01*
X125749850Y-52186193D01*
X125828396Y-51791316D01*
X125982469Y-51419350D01*
X126206149Y-51084589D01*
X126490839Y-50799899D01*
X126825600Y-50576219D01*
X127197566Y-50422146D01*
X127592443Y-50343600D01*
X127995057Y-50343600D01*
X128389934Y-50422146D01*
G37*
G36*
X75899507Y-51503911D02*
G01*
X75986534Y-51521221D01*
X76150486Y-51589132D01*
X76298041Y-51687725D01*
X76423525Y-51813209D01*
X76522118Y-51960764D01*
X76590029Y-52124716D01*
X76624650Y-52298770D01*
X76624650Y-52476230D01*
X76590029Y-52650284D01*
X76522118Y-52814236D01*
X76423525Y-52961791D01*
X76298041Y-53087275D01*
X76150486Y-53185868D01*
X75986534Y-53253779D01*
X75899507Y-53271090D01*
X75812481Y-53288400D01*
X75635019Y-53288400D01*
X75547993Y-53271089D01*
X75460966Y-53253779D01*
X75297014Y-53185868D01*
X75149459Y-53087275D01*
X75023975Y-52961791D01*
X74925382Y-52814236D01*
X74857471Y-52650284D01*
X74822850Y-52476230D01*
X74822850Y-52298770D01*
X74857471Y-52124716D01*
X74925382Y-51960764D01*
X75023975Y-51813209D01*
X75149459Y-51687725D01*
X75297014Y-51589132D01*
X75460966Y-51521221D01*
X75547993Y-51503910D01*
X75635019Y-51486600D01*
X75812481Y-51486600D01*
X75899507Y-51503911D01*
G37*
G36*
X84789507Y-51503911D02*
G01*
X84876534Y-51521221D01*
X85040486Y-51589132D01*
X85188041Y-51687725D01*
X85313525Y-51813209D01*
X85412118Y-51960764D01*
X85480029Y-52124716D01*
X85514650Y-52298770D01*
X85514650Y-52476230D01*
X85480029Y-52650284D01*
X85412118Y-52814236D01*
X85313525Y-52961791D01*
X85188041Y-53087275D01*
X85040486Y-53185868D01*
X84876534Y-53253779D01*
X84789507Y-53271090D01*
X84702481Y-53288400D01*
X84525019Y-53288400D01*
X84437993Y-53271089D01*
X84350966Y-53253779D01*
X84187014Y-53185868D01*
X84039459Y-53087275D01*
X83913975Y-52961791D01*
X83815382Y-52814236D01*
X83747471Y-52650284D01*
X83712850Y-52476230D01*
X83712850Y-52298770D01*
X83747471Y-52124716D01*
X83815382Y-51960764D01*
X83913975Y-51813209D01*
X84039459Y-51687725D01*
X84187014Y-51589132D01*
X84350966Y-51521221D01*
X84437993Y-51503910D01*
X84525019Y-51486600D01*
X84702481Y-51486600D01*
X84789507Y-51503911D01*
G37*
G36*
X94949507Y-51503911D02*
G01*
X95036534Y-51521221D01*
X95200486Y-51589132D01*
X95348041Y-51687725D01*
X95473525Y-51813209D01*
X95572118Y-51960764D01*
X95640029Y-52124716D01*
X95674650Y-52298770D01*
X95674650Y-52476230D01*
X95640029Y-52650284D01*
X95572118Y-52814236D01*
X95473525Y-52961791D01*
X95348041Y-53087275D01*
X95200486Y-53185868D01*
X95036534Y-53253779D01*
X94949507Y-53271090D01*
X94862481Y-53288400D01*
X94685019Y-53288400D01*
X94597993Y-53271089D01*
X94510966Y-53253779D01*
X94347014Y-53185868D01*
X94199459Y-53087275D01*
X94073975Y-52961791D01*
X93975382Y-52814236D01*
X93907471Y-52650284D01*
X93872850Y-52476230D01*
X93872850Y-52298770D01*
X93907471Y-52124716D01*
X93975382Y-51960764D01*
X94073975Y-51813209D01*
X94199459Y-51687725D01*
X94347014Y-51589132D01*
X94510966Y-51521221D01*
X94597993Y-51503910D01*
X94685019Y-51486600D01*
X94862481Y-51486600D01*
X94949507Y-51503911D01*
G37*
G36*
X103839507Y-51503911D02*
G01*
X103926534Y-51521221D01*
X104090486Y-51589132D01*
X104238041Y-51687725D01*
X104363525Y-51813209D01*
X104462118Y-51960764D01*
X104530029Y-52124716D01*
X104564650Y-52298770D01*
X104564650Y-52476230D01*
X104530029Y-52650284D01*
X104462118Y-52814236D01*
X104363525Y-52961791D01*
X104238041Y-53087275D01*
X104090486Y-53185868D01*
X103926534Y-53253779D01*
X103839507Y-53271090D01*
X103752481Y-53288400D01*
X103575019Y-53288400D01*
X103487993Y-53271089D01*
X103400966Y-53253779D01*
X103237014Y-53185868D01*
X103089459Y-53087275D01*
X102963975Y-52961791D01*
X102865382Y-52814236D01*
X102797471Y-52650284D01*
X102762850Y-52476230D01*
X102762850Y-52298770D01*
X102797471Y-52124716D01*
X102865382Y-51960764D01*
X102963975Y-51813209D01*
X103089459Y-51687725D01*
X103237014Y-51589132D01*
X103400966Y-51521221D01*
X103487993Y-51503910D01*
X103575019Y-51486600D01*
X103752481Y-51486600D01*
X103839507Y-51503911D01*
G37*
G36*
X113999507Y-51503911D02*
G01*
X114086534Y-51521221D01*
X114250486Y-51589132D01*
X114398041Y-51687725D01*
X114523525Y-51813209D01*
X114622118Y-51960764D01*
X114690029Y-52124716D01*
X114724650Y-52298770D01*
X114724650Y-52476230D01*
X114690029Y-52650284D01*
X114622118Y-52814236D01*
X114523525Y-52961791D01*
X114398041Y-53087275D01*
X114250486Y-53185868D01*
X114086534Y-53253779D01*
X113999507Y-53271090D01*
X113912481Y-53288400D01*
X113735019Y-53288400D01*
X113647993Y-53271089D01*
X113560966Y-53253779D01*
X113397014Y-53185868D01*
X113249459Y-53087275D01*
X113123975Y-52961791D01*
X113025382Y-52814236D01*
X112957471Y-52650284D01*
X112922850Y-52476230D01*
X112922850Y-52298770D01*
X112957471Y-52124716D01*
X113025382Y-51960764D01*
X113123975Y-51813209D01*
X113249459Y-51687725D01*
X113397014Y-51589132D01*
X113560966Y-51521221D01*
X113647993Y-51503910D01*
X113735019Y-51486600D01*
X113912481Y-51486600D01*
X113999507Y-51503911D01*
G37*
G36*
X122889507Y-51503911D02*
G01*
X122976534Y-51521221D01*
X123140486Y-51589132D01*
X123288041Y-51687725D01*
X123413525Y-51813209D01*
X123512118Y-51960764D01*
X123580029Y-52124716D01*
X123614650Y-52298770D01*
X123614650Y-52476230D01*
X123580029Y-52650284D01*
X123512118Y-52814236D01*
X123413525Y-52961791D01*
X123288041Y-53087275D01*
X123140486Y-53185868D01*
X122976534Y-53253779D01*
X122889507Y-53271090D01*
X122802481Y-53288400D01*
X122625019Y-53288400D01*
X122537993Y-53271089D01*
X122450966Y-53253779D01*
X122287014Y-53185868D01*
X122139459Y-53087275D01*
X122013975Y-52961791D01*
X121915382Y-52814236D01*
X121847471Y-52650284D01*
X121812850Y-52476230D01*
X121812850Y-52298770D01*
X121847471Y-52124716D01*
X121915382Y-51960764D01*
X122013975Y-51813209D01*
X122139459Y-51687725D01*
X122287014Y-51589132D01*
X122450966Y-51521221D01*
X122537993Y-51503910D01*
X122625019Y-51486600D01*
X122802481Y-51486600D01*
X122889507Y-51503911D01*
G37*
G36*
X133049507Y-51503911D02*
G01*
X133136534Y-51521221D01*
X133300486Y-51589132D01*
X133448041Y-51687725D01*
X133573525Y-51813209D01*
X133672118Y-51960764D01*
X133740029Y-52124716D01*
X133774650Y-52298770D01*
X133774650Y-52476230D01*
X133740029Y-52650284D01*
X133672118Y-52814236D01*
X133573525Y-52961791D01*
X133448041Y-53087275D01*
X133300486Y-53185868D01*
X133136534Y-53253779D01*
X133049507Y-53271090D01*
X132962481Y-53288400D01*
X132785019Y-53288400D01*
X132697993Y-53271089D01*
X132610966Y-53253779D01*
X132447014Y-53185868D01*
X132299459Y-53087275D01*
X132173975Y-52961791D01*
X132075382Y-52814236D01*
X132007471Y-52650284D01*
X131972850Y-52476230D01*
X131972850Y-52298770D01*
X132007471Y-52124716D01*
X132075382Y-51960764D01*
X132173975Y-51813209D01*
X132299459Y-51687725D01*
X132447014Y-51589132D01*
X132610966Y-51521221D01*
X132697993Y-51503910D01*
X132785019Y-51486600D01*
X132962481Y-51486600D01*
X133049507Y-51503911D01*
G37*
G36*
X65739507Y-51503911D02*
G01*
X65826534Y-51521221D01*
X65990486Y-51589132D01*
X66138041Y-51687725D01*
X66263525Y-51813209D01*
X66362118Y-51960764D01*
X66430029Y-52124716D01*
X66464650Y-52298770D01*
X66464650Y-52476230D01*
X66430029Y-52650284D01*
X66362118Y-52814236D01*
X66263525Y-52961791D01*
X66138041Y-53087275D01*
X65990486Y-53185868D01*
X65826534Y-53253779D01*
X65739507Y-53271090D01*
X65652481Y-53288400D01*
X65475019Y-53288400D01*
X65387993Y-53271089D01*
X65300966Y-53253779D01*
X65137014Y-53185868D01*
X64989459Y-53087275D01*
X64863975Y-52961791D01*
X64765382Y-52814236D01*
X64697471Y-52650284D01*
X64662850Y-52476230D01*
X64662850Y-52298770D01*
X64697471Y-52124716D01*
X64765382Y-51960764D01*
X64863975Y-51813209D01*
X64989459Y-51687725D01*
X65137014Y-51589132D01*
X65300966Y-51521221D01*
X65387993Y-51503910D01*
X65475019Y-51486600D01*
X65652481Y-51486600D01*
X65739507Y-51503911D01*
G37*
G36*
X56849507Y-51503911D02*
G01*
X56936534Y-51521221D01*
X57100486Y-51589132D01*
X57248041Y-51687725D01*
X57373525Y-51813209D01*
X57472118Y-51960764D01*
X57540029Y-52124716D01*
X57574650Y-52298770D01*
X57574650Y-52476230D01*
X57540029Y-52650284D01*
X57472118Y-52814236D01*
X57373525Y-52961791D01*
X57248041Y-53087275D01*
X57100486Y-53185868D01*
X56936534Y-53253779D01*
X56849507Y-53271090D01*
X56762481Y-53288400D01*
X56585019Y-53288400D01*
X56497993Y-53271089D01*
X56410966Y-53253779D01*
X56247014Y-53185868D01*
X56099459Y-53087275D01*
X55973975Y-52961791D01*
X55875382Y-52814236D01*
X55807471Y-52650284D01*
X55772850Y-52476230D01*
X55772850Y-52298770D01*
X55807471Y-52124716D01*
X55875382Y-51960764D01*
X55973975Y-51813209D01*
X56099459Y-51687725D01*
X56247014Y-51589132D01*
X56410966Y-51521221D01*
X56497993Y-51503910D01*
X56585019Y-51486600D01*
X56762481Y-51486600D01*
X56849507Y-51503911D01*
G37*
G36*
X27639507Y-51503911D02*
G01*
X27726534Y-51521221D01*
X27890486Y-51589132D01*
X28038041Y-51687725D01*
X28163525Y-51813209D01*
X28262118Y-51960764D01*
X28330029Y-52124716D01*
X28364650Y-52298770D01*
X28364650Y-52476230D01*
X28330029Y-52650284D01*
X28262118Y-52814236D01*
X28163525Y-52961791D01*
X28038041Y-53087275D01*
X27890486Y-53185868D01*
X27726534Y-53253779D01*
X27639507Y-53271090D01*
X27552481Y-53288400D01*
X27375019Y-53288400D01*
X27287993Y-53271089D01*
X27200966Y-53253779D01*
X27037014Y-53185868D01*
X26889459Y-53087275D01*
X26763975Y-52961791D01*
X26665382Y-52814236D01*
X26597471Y-52650284D01*
X26562850Y-52476230D01*
X26562850Y-52298770D01*
X26597471Y-52124716D01*
X26665382Y-51960764D01*
X26763975Y-51813209D01*
X26889459Y-51687725D01*
X27037014Y-51589132D01*
X27200966Y-51521221D01*
X27287993Y-51503910D01*
X27375019Y-51486600D01*
X27552481Y-51486600D01*
X27639507Y-51503911D01*
G37*
G36*
X37799507Y-51503911D02*
G01*
X37886534Y-51521221D01*
X38050486Y-51589132D01*
X38198041Y-51687725D01*
X38323525Y-51813209D01*
X38422118Y-51960764D01*
X38490029Y-52124716D01*
X38524650Y-52298770D01*
X38524650Y-52476230D01*
X38490029Y-52650284D01*
X38422118Y-52814236D01*
X38323525Y-52961791D01*
X38198041Y-53087275D01*
X38050486Y-53185868D01*
X37886534Y-53253779D01*
X37799507Y-53271090D01*
X37712481Y-53288400D01*
X37535019Y-53288400D01*
X37447993Y-53271089D01*
X37360966Y-53253779D01*
X37197014Y-53185868D01*
X37049459Y-53087275D01*
X36923975Y-52961791D01*
X36825382Y-52814236D01*
X36757471Y-52650284D01*
X36722850Y-52476230D01*
X36722850Y-52298770D01*
X36757471Y-52124716D01*
X36825382Y-51960764D01*
X36923975Y-51813209D01*
X37049459Y-51687725D01*
X37197014Y-51589132D01*
X37360966Y-51521221D01*
X37447993Y-51503910D01*
X37535019Y-51486600D01*
X37712481Y-51486600D01*
X37799507Y-51503911D01*
G37*
G36*
X46689507Y-51503911D02*
G01*
X46776534Y-51521221D01*
X46940486Y-51589132D01*
X47088041Y-51687725D01*
X47213525Y-51813209D01*
X47312118Y-51960764D01*
X47380029Y-52124716D01*
X47414650Y-52298770D01*
X47414650Y-52476230D01*
X47380029Y-52650284D01*
X47312118Y-52814236D01*
X47213525Y-52961791D01*
X47088041Y-53087275D01*
X46940486Y-53185868D01*
X46776534Y-53253779D01*
X46689507Y-53271090D01*
X46602481Y-53288400D01*
X46425019Y-53288400D01*
X46337993Y-53271089D01*
X46250966Y-53253779D01*
X46087014Y-53185868D01*
X45939459Y-53087275D01*
X45813975Y-52961791D01*
X45715382Y-52814236D01*
X45647471Y-52650284D01*
X45612850Y-52476230D01*
X45612850Y-52298770D01*
X45647471Y-52124716D01*
X45715382Y-51960764D01*
X45813975Y-51813209D01*
X45939459Y-51687725D01*
X46087014Y-51589132D01*
X46250966Y-51521221D01*
X46337993Y-51503910D01*
X46425019Y-51486600D01*
X46602481Y-51486600D01*
X46689507Y-51503911D01*
G37*
G36*
X124435868Y-48357065D02*
G01*
X124717950Y-48473908D01*
X124971818Y-48643536D01*
X125187714Y-48859432D01*
X125357342Y-49113300D01*
X125474185Y-49395382D01*
X125533750Y-49694838D01*
X125533750Y-50000162D01*
X125474185Y-50299618D01*
X125357342Y-50581700D01*
X125187714Y-50835568D01*
X124971818Y-51051464D01*
X124717950Y-51221092D01*
X124435868Y-51337935D01*
X124136412Y-51397500D01*
X123831088Y-51397500D01*
X123531632Y-51337935D01*
X123249550Y-51221092D01*
X122995682Y-51051464D01*
X122779786Y-50835568D01*
X122610158Y-50581700D01*
X122493315Y-50299618D01*
X122433750Y-50000162D01*
X122433750Y-49694838D01*
X122493315Y-49395382D01*
X122610158Y-49113300D01*
X122779786Y-48859432D01*
X122995682Y-48643536D01*
X123249550Y-48473908D01*
X123531632Y-48357065D01*
X123831088Y-48297500D01*
X124136412Y-48297500D01*
X124435868Y-48357065D01*
G37*
G36*
X105385868Y-48357065D02*
G01*
X105667950Y-48473908D01*
X105921818Y-48643536D01*
X106137714Y-48859432D01*
X106307342Y-49113300D01*
X106424185Y-49395382D01*
X106483750Y-49694838D01*
X106483750Y-50000162D01*
X106424185Y-50299618D01*
X106307342Y-50581700D01*
X106137714Y-50835568D01*
X105921818Y-51051464D01*
X105667950Y-51221092D01*
X105385868Y-51337935D01*
X105086412Y-51397500D01*
X104781088Y-51397500D01*
X104481632Y-51337935D01*
X104199550Y-51221092D01*
X103945682Y-51051464D01*
X103729786Y-50835568D01*
X103560158Y-50581700D01*
X103443315Y-50299618D01*
X103383750Y-50000162D01*
X103383750Y-49694838D01*
X103443315Y-49395382D01*
X103560158Y-49113300D01*
X103729786Y-48859432D01*
X103945682Y-48643536D01*
X104199550Y-48473908D01*
X104481632Y-48357065D01*
X104781088Y-48297500D01*
X105086412Y-48297500D01*
X105385868Y-48357065D01*
G37*
G36*
X86335868Y-48357065D02*
G01*
X86617950Y-48473908D01*
X86871818Y-48643536D01*
X87087714Y-48859432D01*
X87257342Y-49113300D01*
X87374185Y-49395382D01*
X87433750Y-49694838D01*
X87433750Y-50000162D01*
X87374185Y-50299618D01*
X87257342Y-50581700D01*
X87087714Y-50835568D01*
X86871818Y-51051464D01*
X86617950Y-51221092D01*
X86335868Y-51337935D01*
X86036412Y-51397500D01*
X85731088Y-51397500D01*
X85431632Y-51337935D01*
X85149550Y-51221092D01*
X84895682Y-51051464D01*
X84679786Y-50835568D01*
X84510158Y-50581700D01*
X84393315Y-50299618D01*
X84333750Y-50000162D01*
X84333750Y-49694838D01*
X84393315Y-49395382D01*
X84510158Y-49113300D01*
X84679786Y-48859432D01*
X84895682Y-48643536D01*
X85149550Y-48473908D01*
X85431632Y-48357065D01*
X85731088Y-48297500D01*
X86036412Y-48297500D01*
X86335868Y-48357065D01*
G37*
G36*
X67285868Y-48357065D02*
G01*
X67567950Y-48473908D01*
X67821818Y-48643536D01*
X68037714Y-48859432D01*
X68207342Y-49113300D01*
X68324185Y-49395382D01*
X68383750Y-49694838D01*
X68383750Y-50000162D01*
X68324185Y-50299618D01*
X68207342Y-50581700D01*
X68037714Y-50835568D01*
X67821818Y-51051464D01*
X67567950Y-51221092D01*
X67285868Y-51337935D01*
X66986412Y-51397500D01*
X66681088Y-51397500D01*
X66381632Y-51337935D01*
X66099550Y-51221092D01*
X65845682Y-51051464D01*
X65629786Y-50835568D01*
X65460158Y-50581700D01*
X65343315Y-50299618D01*
X65283750Y-50000162D01*
X65283750Y-49694838D01*
X65343315Y-49395382D01*
X65460158Y-49113300D01*
X65629786Y-48859432D01*
X65845682Y-48643536D01*
X66099550Y-48473908D01*
X66381632Y-48357065D01*
X66681088Y-48297500D01*
X66986412Y-48297500D01*
X67285868Y-48357065D01*
G37*
G36*
X48235868Y-48357065D02*
G01*
X48517950Y-48473908D01*
X48771818Y-48643536D01*
X48987714Y-48859432D01*
X49157342Y-49113300D01*
X49274185Y-49395382D01*
X49333750Y-49694838D01*
X49333750Y-50000162D01*
X49274185Y-50299618D01*
X49157342Y-50581700D01*
X48987714Y-50835568D01*
X48771818Y-51051464D01*
X48517950Y-51221092D01*
X48235868Y-51337935D01*
X47936412Y-51397500D01*
X47631088Y-51397500D01*
X47331632Y-51337935D01*
X47049550Y-51221092D01*
X46795682Y-51051464D01*
X46579786Y-50835568D01*
X46410158Y-50581700D01*
X46293315Y-50299618D01*
X46233750Y-50000162D01*
X46233750Y-49694838D01*
X46293315Y-49395382D01*
X46410158Y-49113300D01*
X46579786Y-48859432D01*
X46795682Y-48643536D01*
X47049550Y-48473908D01*
X47331632Y-48357065D01*
X47631088Y-48297500D01*
X47936412Y-48297500D01*
X48235868Y-48357065D01*
G37*
G36*
X29185868Y-48357065D02*
G01*
X29467950Y-48473908D01*
X29721818Y-48643536D01*
X29937714Y-48859432D01*
X30107342Y-49113300D01*
X30224185Y-49395382D01*
X30283750Y-49694838D01*
X30283750Y-50000162D01*
X30224185Y-50299618D01*
X30107342Y-50581700D01*
X29937714Y-50835568D01*
X29721818Y-51051464D01*
X29467950Y-51221092D01*
X29185868Y-51337935D01*
X28886412Y-51397500D01*
X28581088Y-51397500D01*
X28281632Y-51337935D01*
X27999550Y-51221092D01*
X27745682Y-51051464D01*
X27529786Y-50835568D01*
X27360158Y-50581700D01*
X27243315Y-50299618D01*
X27183750Y-50000162D01*
X27183750Y-49694838D01*
X27243315Y-49395382D01*
X27360158Y-49113300D01*
X27529786Y-48859432D01*
X27745682Y-48643536D01*
X27999550Y-48473908D01*
X28281632Y-48357065D01*
X28581088Y-48297500D01*
X28886412Y-48297500D01*
X29185868Y-48357065D01*
G37*
G36*
X35535868Y-45817065D02*
G01*
X35817950Y-45933908D01*
X36071818Y-46103536D01*
X36287714Y-46319432D01*
X36457342Y-46573300D01*
X36574185Y-46855382D01*
X36633750Y-47154838D01*
X36633750Y-47460162D01*
X36574185Y-47759618D01*
X36457342Y-48041700D01*
X36287714Y-48295568D01*
X36071818Y-48511464D01*
X35817950Y-48681092D01*
X35535868Y-48797935D01*
X35236412Y-48857500D01*
X34931088Y-48857500D01*
X34631632Y-48797935D01*
X34349550Y-48681092D01*
X34095682Y-48511464D01*
X33879786Y-48295568D01*
X33710158Y-48041700D01*
X33593315Y-47759618D01*
X33533750Y-47460162D01*
X33533750Y-47154838D01*
X33593315Y-46855382D01*
X33710158Y-46573300D01*
X33879786Y-46319432D01*
X34095682Y-46103536D01*
X34349550Y-45933908D01*
X34631632Y-45817065D01*
X34931088Y-45757500D01*
X35236412Y-45757500D01*
X35535868Y-45817065D01*
G37*
G36*
X54585868Y-45817065D02*
G01*
X54867950Y-45933908D01*
X55121818Y-46103536D01*
X55337714Y-46319432D01*
X55507342Y-46573300D01*
X55624185Y-46855382D01*
X55683750Y-47154838D01*
X55683750Y-47460162D01*
X55624185Y-47759618D01*
X55507342Y-48041700D01*
X55337714Y-48295568D01*
X55121818Y-48511464D01*
X54867950Y-48681092D01*
X54585868Y-48797935D01*
X54286412Y-48857500D01*
X53981088Y-48857500D01*
X53681632Y-48797935D01*
X53399550Y-48681092D01*
X53145682Y-48511464D01*
X52929786Y-48295568D01*
X52760158Y-48041700D01*
X52643315Y-47759618D01*
X52583750Y-47460162D01*
X52583750Y-47154838D01*
X52643315Y-46855382D01*
X52760158Y-46573300D01*
X52929786Y-46319432D01*
X53145682Y-46103536D01*
X53399550Y-45933908D01*
X53681632Y-45817065D01*
X53981088Y-45757500D01*
X54286412Y-45757500D01*
X54585868Y-45817065D01*
G37*
G36*
X130785868Y-45817065D02*
G01*
X131067950Y-45933908D01*
X131321818Y-46103536D01*
X131537714Y-46319432D01*
X131707342Y-46573300D01*
X131824185Y-46855382D01*
X131883750Y-47154838D01*
X131883750Y-47460162D01*
X131824185Y-47759618D01*
X131707342Y-48041700D01*
X131537714Y-48295568D01*
X131321818Y-48511464D01*
X131067950Y-48681092D01*
X130785868Y-48797935D01*
X130486412Y-48857500D01*
X130181088Y-48857500D01*
X129881632Y-48797935D01*
X129599550Y-48681092D01*
X129345682Y-48511464D01*
X129129786Y-48295568D01*
X128960158Y-48041700D01*
X128843315Y-47759618D01*
X128783750Y-47460162D01*
X128783750Y-47154838D01*
X128843315Y-46855382D01*
X128960158Y-46573300D01*
X129129786Y-46319432D01*
X129345682Y-46103536D01*
X129599550Y-45933908D01*
X129881632Y-45817065D01*
X130181088Y-45757500D01*
X130486412Y-45757500D01*
X130785868Y-45817065D01*
G37*
G36*
X73635868Y-45817065D02*
G01*
X73917950Y-45933908D01*
X74171818Y-46103536D01*
X74387714Y-46319432D01*
X74557342Y-46573300D01*
X74674185Y-46855382D01*
X74733750Y-47154838D01*
X74733750Y-47460162D01*
X74674185Y-47759618D01*
X74557342Y-48041700D01*
X74387714Y-48295568D01*
X74171818Y-48511464D01*
X73917950Y-48681092D01*
X73635868Y-48797935D01*
X73336412Y-48857500D01*
X73031088Y-48857500D01*
X72731632Y-48797935D01*
X72449550Y-48681092D01*
X72195682Y-48511464D01*
X71979786Y-48295568D01*
X71810158Y-48041700D01*
X71693315Y-47759618D01*
X71633750Y-47460162D01*
X71633750Y-47154838D01*
X71693315Y-46855382D01*
X71810158Y-46573300D01*
X71979786Y-46319432D01*
X72195682Y-46103536D01*
X72449550Y-45933908D01*
X72731632Y-45817065D01*
X73031088Y-45757500D01*
X73336412Y-45757500D01*
X73635868Y-45817065D01*
G37*
G36*
X92685868Y-45817065D02*
G01*
X92967950Y-45933908D01*
X93221818Y-46103536D01*
X93437714Y-46319432D01*
X93607342Y-46573300D01*
X93724185Y-46855382D01*
X93783750Y-47154838D01*
X93783750Y-47460162D01*
X93724185Y-47759618D01*
X93607342Y-48041700D01*
X93437714Y-48295568D01*
X93221818Y-48511464D01*
X92967950Y-48681092D01*
X92685868Y-48797935D01*
X92386412Y-48857500D01*
X92081088Y-48857500D01*
X91781632Y-48797935D01*
X91499550Y-48681092D01*
X91245682Y-48511464D01*
X91029786Y-48295568D01*
X90860158Y-48041700D01*
X90743315Y-47759618D01*
X90683750Y-47460162D01*
X90683750Y-47154838D01*
X90743315Y-46855382D01*
X90860158Y-46573300D01*
X91029786Y-46319432D01*
X91245682Y-46103536D01*
X91499550Y-45933908D01*
X91781632Y-45817065D01*
X92081088Y-45757500D01*
X92386412Y-45757500D01*
X92685868Y-45817065D01*
G37*
G36*
X111735868Y-45817065D02*
G01*
X112017950Y-45933908D01*
X112271818Y-46103536D01*
X112487714Y-46319432D01*
X112657342Y-46573300D01*
X112774185Y-46855382D01*
X112833750Y-47154838D01*
X112833750Y-47460162D01*
X112774185Y-47759618D01*
X112657342Y-48041700D01*
X112487714Y-48295568D01*
X112271818Y-48511464D01*
X112017950Y-48681092D01*
X111735868Y-48797935D01*
X111436412Y-48857500D01*
X111131088Y-48857500D01*
X110831632Y-48797935D01*
X110549550Y-48681092D01*
X110295682Y-48511464D01*
X110079786Y-48295568D01*
X109910158Y-48041700D01*
X109793315Y-47759618D01*
X109733750Y-47460162D01*
X109733750Y-47154838D01*
X109793315Y-46855382D01*
X109910158Y-46573300D01*
X110079786Y-46319432D01*
X110295682Y-46103536D01*
X110549550Y-45933908D01*
X110831632Y-45817065D01*
X111131088Y-45757500D01*
X111436412Y-45757500D01*
X111735868Y-45817065D01*
G37*
G36*
X71239934Y-31372146D02*
G01*
X71611900Y-31526219D01*
X71946661Y-31749899D01*
X72231351Y-32034589D01*
X72455031Y-32369350D01*
X72609104Y-32741316D01*
X72687650Y-33136193D01*
X72687650Y-33538807D01*
X72609104Y-33933684D01*
X72455031Y-34305650D01*
X72231351Y-34640411D01*
X71946661Y-34925101D01*
X71611900Y-35148781D01*
X71239934Y-35302854D01*
X70845057Y-35381400D01*
X70442443Y-35381400D01*
X70047566Y-35302854D01*
X69675600Y-35148781D01*
X69340839Y-34925101D01*
X69056149Y-34640411D01*
X68832469Y-34305650D01*
X68678396Y-33933684D01*
X68599850Y-33538807D01*
X68599850Y-33136193D01*
X68678396Y-32741316D01*
X68832469Y-32369350D01*
X69056149Y-32034589D01*
X69340839Y-31749899D01*
X69675600Y-31526219D01*
X70047566Y-31372146D01*
X70442443Y-31293600D01*
X70845057Y-31293600D01*
X71239934Y-31372146D01*
G37*
G36*
X147439934Y-31372146D02*
G01*
X147811900Y-31526219D01*
X148146661Y-31749899D01*
X148431351Y-32034589D01*
X148655031Y-32369350D01*
X148809104Y-32741316D01*
X148887650Y-33136193D01*
X148887650Y-33538807D01*
X148809104Y-33933684D01*
X148655031Y-34305650D01*
X148431351Y-34640411D01*
X148146661Y-34925101D01*
X147811900Y-35148781D01*
X147439934Y-35302854D01*
X147045057Y-35381400D01*
X146642443Y-35381400D01*
X146247566Y-35302854D01*
X145875600Y-35148781D01*
X145540839Y-34925101D01*
X145256149Y-34640411D01*
X145032469Y-34305650D01*
X144878396Y-33933684D01*
X144799850Y-33538807D01*
X144799850Y-33136193D01*
X144878396Y-32741316D01*
X145032469Y-32369350D01*
X145256149Y-32034589D01*
X145540839Y-31749899D01*
X145875600Y-31526219D01*
X146247566Y-31372146D01*
X146642443Y-31293600D01*
X147045057Y-31293600D01*
X147439934Y-31372146D01*
G37*
G36*
X128389934Y-31372146D02*
G01*
X128761900Y-31526219D01*
X129096661Y-31749899D01*
X129381351Y-32034589D01*
X129605031Y-32369350D01*
X129759104Y-32741316D01*
X129837650Y-33136193D01*
X129837650Y-33538807D01*
X129759104Y-33933684D01*
X129605031Y-34305650D01*
X129381351Y-34640411D01*
X129096661Y-34925101D01*
X128761900Y-35148781D01*
X128389934Y-35302854D01*
X127995057Y-35381400D01*
X127592443Y-35381400D01*
X127197566Y-35302854D01*
X126825600Y-35148781D01*
X126490839Y-34925101D01*
X126206149Y-34640411D01*
X125982469Y-34305650D01*
X125828396Y-33933684D01*
X125749850Y-33538807D01*
X125749850Y-33136193D01*
X125828396Y-32741316D01*
X125982469Y-32369350D01*
X126206149Y-32034589D01*
X126490839Y-31749899D01*
X126825600Y-31526219D01*
X127197566Y-31372146D01*
X127592443Y-31293600D01*
X127995057Y-31293600D01*
X128389934Y-31372146D01*
G37*
G36*
X52189934Y-31372146D02*
G01*
X52561900Y-31526219D01*
X52896661Y-31749899D01*
X53181351Y-32034589D01*
X53405031Y-32369350D01*
X53559104Y-32741316D01*
X53637650Y-33136193D01*
X53637650Y-33538807D01*
X53559104Y-33933684D01*
X53405031Y-34305650D01*
X53181351Y-34640411D01*
X52896661Y-34925101D01*
X52561900Y-35148781D01*
X52189934Y-35302854D01*
X51795057Y-35381400D01*
X51392443Y-35381400D01*
X50997566Y-35302854D01*
X50625600Y-35148781D01*
X50290839Y-34925101D01*
X50006149Y-34640411D01*
X49782469Y-34305650D01*
X49628396Y-33933684D01*
X49549850Y-33538807D01*
X49549850Y-33136193D01*
X49628396Y-32741316D01*
X49782469Y-32369350D01*
X50006149Y-32034589D01*
X50290839Y-31749899D01*
X50625600Y-31526219D01*
X50997566Y-31372146D01*
X51392443Y-31293600D01*
X51795057Y-31293600D01*
X52189934Y-31372146D01*
G37*
G36*
X90289934Y-31372146D02*
G01*
X90661900Y-31526219D01*
X90996661Y-31749899D01*
X91281351Y-32034589D01*
X91505031Y-32369350D01*
X91659104Y-32741316D01*
X91737650Y-33136193D01*
X91737650Y-33538807D01*
X91659104Y-33933684D01*
X91505031Y-34305650D01*
X91281351Y-34640411D01*
X90996661Y-34925101D01*
X90661900Y-35148781D01*
X90289934Y-35302854D01*
X89895057Y-35381400D01*
X89492443Y-35381400D01*
X89097566Y-35302854D01*
X88725600Y-35148781D01*
X88390839Y-34925101D01*
X88106149Y-34640411D01*
X87882469Y-34305650D01*
X87728396Y-33933684D01*
X87649850Y-33538807D01*
X87649850Y-33136193D01*
X87728396Y-32741316D01*
X87882469Y-32369350D01*
X88106149Y-32034589D01*
X88390839Y-31749899D01*
X88725600Y-31526219D01*
X89097566Y-31372146D01*
X89492443Y-31293600D01*
X89895057Y-31293600D01*
X90289934Y-31372146D01*
G37*
G36*
X109339934Y-31372146D02*
G01*
X109711900Y-31526219D01*
X110046661Y-31749899D01*
X110331351Y-32034589D01*
X110555031Y-32369350D01*
X110709104Y-32741316D01*
X110787650Y-33136193D01*
X110787650Y-33538807D01*
X110709104Y-33933684D01*
X110555031Y-34305650D01*
X110331351Y-34640411D01*
X110046661Y-34925101D01*
X109711900Y-35148781D01*
X109339934Y-35302854D01*
X108945057Y-35381400D01*
X108542443Y-35381400D01*
X108147566Y-35302854D01*
X107775600Y-35148781D01*
X107440839Y-34925101D01*
X107156149Y-34640411D01*
X106932469Y-34305650D01*
X106778396Y-33933684D01*
X106699850Y-33538807D01*
X106699850Y-33136193D01*
X106778396Y-32741316D01*
X106932469Y-32369350D01*
X107156149Y-32034589D01*
X107440839Y-31749899D01*
X107775600Y-31526219D01*
X108147566Y-31372146D01*
X108542443Y-31293600D01*
X108945057Y-31293600D01*
X109339934Y-31372146D01*
G37*
G36*
X33139934Y-31372146D02*
G01*
X33511900Y-31526219D01*
X33846661Y-31749899D01*
X34131351Y-32034589D01*
X34355031Y-32369350D01*
X34509104Y-32741316D01*
X34587650Y-33136193D01*
X34587650Y-33538807D01*
X34509104Y-33933684D01*
X34355031Y-34305650D01*
X34131351Y-34640411D01*
X33846661Y-34925101D01*
X33511900Y-35148781D01*
X33139934Y-35302854D01*
X32745057Y-35381400D01*
X32342443Y-35381400D01*
X31947566Y-35302854D01*
X31575600Y-35148781D01*
X31240839Y-34925101D01*
X30956149Y-34640411D01*
X30732469Y-34305650D01*
X30578396Y-33933684D01*
X30499850Y-33538807D01*
X30499850Y-33136193D01*
X30578396Y-32741316D01*
X30732469Y-32369350D01*
X30956149Y-32034589D01*
X31240839Y-31749899D01*
X31575600Y-31526219D01*
X31947566Y-31372146D01*
X32342443Y-31293600D01*
X32745057Y-31293600D01*
X33139934Y-31372146D01*
G37*
G36*
X37799507Y-32453911D02*
G01*
X37886534Y-32471221D01*
X38050486Y-32539132D01*
X38198041Y-32637725D01*
X38323525Y-32763209D01*
X38422118Y-32910764D01*
X38490029Y-33074716D01*
X38524650Y-33248770D01*
X38524650Y-33426230D01*
X38490029Y-33600284D01*
X38422118Y-33764236D01*
X38323525Y-33911791D01*
X38198041Y-34037275D01*
X38050486Y-34135868D01*
X37886534Y-34203779D01*
X37799507Y-34221090D01*
X37712481Y-34238400D01*
X37535019Y-34238400D01*
X37447993Y-34221090D01*
X37360966Y-34203779D01*
X37197014Y-34135868D01*
X37049459Y-34037275D01*
X36923975Y-33911791D01*
X36825382Y-33764236D01*
X36757471Y-33600284D01*
X36722850Y-33426230D01*
X36722850Y-33248770D01*
X36757471Y-33074716D01*
X36825382Y-32910764D01*
X36923975Y-32763209D01*
X37049459Y-32637725D01*
X37197014Y-32539132D01*
X37360966Y-32471221D01*
X37447993Y-32453911D01*
X37535019Y-32436600D01*
X37712481Y-32436600D01*
X37799507Y-32453911D01*
G37*
G36*
X152099507Y-32453911D02*
G01*
X152186534Y-32471221D01*
X152350486Y-32539132D01*
X152498041Y-32637725D01*
X152623525Y-32763209D01*
X152722118Y-32910764D01*
X152790029Y-33074716D01*
X152824650Y-33248770D01*
X152824650Y-33426230D01*
X152790029Y-33600284D01*
X152722118Y-33764236D01*
X152623525Y-33911791D01*
X152498041Y-34037275D01*
X152350486Y-34135868D01*
X152186534Y-34203779D01*
X152099507Y-34221089D01*
X152012481Y-34238400D01*
X151835019Y-34238400D01*
X151747993Y-34221090D01*
X151660966Y-34203779D01*
X151497014Y-34135868D01*
X151349459Y-34037275D01*
X151223975Y-33911791D01*
X151125382Y-33764236D01*
X151057471Y-33600284D01*
X151022850Y-33426230D01*
X151022850Y-33248770D01*
X151057471Y-33074716D01*
X151125382Y-32910764D01*
X151223975Y-32763209D01*
X151349459Y-32637725D01*
X151497014Y-32539132D01*
X151660966Y-32471221D01*
X151747993Y-32453911D01*
X151835019Y-32436600D01*
X152012481Y-32436600D01*
X152099507Y-32453911D01*
G37*
G36*
X94949507Y-32453911D02*
G01*
X95036534Y-32471221D01*
X95200486Y-32539132D01*
X95348041Y-32637725D01*
X95473525Y-32763209D01*
X95572118Y-32910764D01*
X95640029Y-33074716D01*
X95674650Y-33248770D01*
X95674650Y-33426230D01*
X95640029Y-33600284D01*
X95572118Y-33764236D01*
X95473525Y-33911791D01*
X95348041Y-34037275D01*
X95200486Y-34135868D01*
X95036534Y-34203779D01*
X94949507Y-34221090D01*
X94862481Y-34238400D01*
X94685019Y-34238400D01*
X94597993Y-34221090D01*
X94510966Y-34203779D01*
X94347014Y-34135868D01*
X94199459Y-34037275D01*
X94073975Y-33911791D01*
X93975382Y-33764236D01*
X93907471Y-33600284D01*
X93872850Y-33426230D01*
X93872850Y-33248770D01*
X93907471Y-33074716D01*
X93975382Y-32910764D01*
X94073975Y-32763209D01*
X94199459Y-32637725D01*
X94347014Y-32539132D01*
X94510966Y-32471221D01*
X94597993Y-32453911D01*
X94685019Y-32436600D01*
X94862481Y-32436600D01*
X94949507Y-32453911D01*
G37*
G36*
X141939507Y-32453911D02*
G01*
X142026534Y-32471221D01*
X142190486Y-32539132D01*
X142338041Y-32637725D01*
X142463525Y-32763209D01*
X142562118Y-32910764D01*
X142630029Y-33074716D01*
X142664650Y-33248770D01*
X142664650Y-33426230D01*
X142630029Y-33600284D01*
X142562118Y-33764236D01*
X142463525Y-33911791D01*
X142338041Y-34037275D01*
X142190486Y-34135868D01*
X142026534Y-34203779D01*
X141939507Y-34221089D01*
X141852481Y-34238400D01*
X141675019Y-34238400D01*
X141587993Y-34221090D01*
X141500966Y-34203779D01*
X141337014Y-34135868D01*
X141189459Y-34037275D01*
X141063975Y-33911791D01*
X140965382Y-33764236D01*
X140897471Y-33600284D01*
X140862850Y-33426230D01*
X140862850Y-33248770D01*
X140897471Y-33074716D01*
X140965382Y-32910764D01*
X141063975Y-32763209D01*
X141189459Y-32637725D01*
X141337014Y-32539132D01*
X141500966Y-32471221D01*
X141587993Y-32453911D01*
X141675019Y-32436600D01*
X141852481Y-32436600D01*
X141939507Y-32453911D01*
G37*
G36*
X133049507Y-32453911D02*
G01*
X133136534Y-32471221D01*
X133300486Y-32539132D01*
X133448041Y-32637725D01*
X133573525Y-32763209D01*
X133672118Y-32910764D01*
X133740029Y-33074716D01*
X133774650Y-33248770D01*
X133774650Y-33426230D01*
X133740029Y-33600284D01*
X133672118Y-33764236D01*
X133573525Y-33911791D01*
X133448041Y-34037275D01*
X133300486Y-34135868D01*
X133136534Y-34203779D01*
X133049507Y-34221089D01*
X132962481Y-34238400D01*
X132785019Y-34238400D01*
X132697993Y-34221090D01*
X132610966Y-34203779D01*
X132447014Y-34135868D01*
X132299459Y-34037275D01*
X132173975Y-33911791D01*
X132075382Y-33764236D01*
X132007471Y-33600284D01*
X131972850Y-33426230D01*
X131972850Y-33248770D01*
X132007471Y-33074716D01*
X132075382Y-32910764D01*
X132173975Y-32763209D01*
X132299459Y-32637725D01*
X132447014Y-32539132D01*
X132610966Y-32471221D01*
X132697993Y-32453911D01*
X132785019Y-32436600D01*
X132962481Y-32436600D01*
X133049507Y-32453911D01*
G37*
G36*
X122889507Y-32453911D02*
G01*
X122976534Y-32471221D01*
X123140486Y-32539132D01*
X123288041Y-32637725D01*
X123413525Y-32763209D01*
X123512118Y-32910764D01*
X123580029Y-33074716D01*
X123614650Y-33248770D01*
X123614650Y-33426230D01*
X123580029Y-33600284D01*
X123512118Y-33764236D01*
X123413525Y-33911791D01*
X123288041Y-34037275D01*
X123140486Y-34135868D01*
X122976534Y-34203779D01*
X122889507Y-34221089D01*
X122802481Y-34238400D01*
X122625019Y-34238400D01*
X122537993Y-34221090D01*
X122450966Y-34203779D01*
X122287014Y-34135868D01*
X122139459Y-34037275D01*
X122013975Y-33911791D01*
X121915382Y-33764236D01*
X121847471Y-33600284D01*
X121812850Y-33426230D01*
X121812850Y-33248770D01*
X121847471Y-33074716D01*
X121915382Y-32910764D01*
X122013975Y-32763209D01*
X122139459Y-32637725D01*
X122287014Y-32539132D01*
X122450966Y-32471221D01*
X122537993Y-32453911D01*
X122625019Y-32436600D01*
X122802481Y-32436600D01*
X122889507Y-32453911D01*
G37*
G36*
X27639507Y-32453911D02*
G01*
X27726534Y-32471221D01*
X27890486Y-32539132D01*
X28038041Y-32637725D01*
X28163525Y-32763209D01*
X28262118Y-32910764D01*
X28330029Y-33074716D01*
X28364650Y-33248770D01*
X28364650Y-33426230D01*
X28330029Y-33600284D01*
X28262118Y-33764236D01*
X28163525Y-33911791D01*
X28038041Y-34037275D01*
X27890486Y-34135868D01*
X27726534Y-34203779D01*
X27639507Y-34221090D01*
X27552481Y-34238400D01*
X27375019Y-34238400D01*
X27287993Y-34221090D01*
X27200966Y-34203779D01*
X27037014Y-34135868D01*
X26889459Y-34037275D01*
X26763975Y-33911791D01*
X26665382Y-33764236D01*
X26597471Y-33600284D01*
X26562850Y-33426230D01*
X26562850Y-33248770D01*
X26597471Y-33074716D01*
X26665382Y-32910764D01*
X26763975Y-32763209D01*
X26889459Y-32637725D01*
X27037014Y-32539132D01*
X27200966Y-32471221D01*
X27287993Y-32453911D01*
X27375019Y-32436600D01*
X27552481Y-32436600D01*
X27639507Y-32453911D01*
G37*
G36*
X113999507Y-32453911D02*
G01*
X114086534Y-32471221D01*
X114250486Y-32539132D01*
X114398041Y-32637725D01*
X114523525Y-32763209D01*
X114622118Y-32910764D01*
X114690029Y-33074716D01*
X114724650Y-33248770D01*
X114724650Y-33426230D01*
X114690029Y-33600284D01*
X114622118Y-33764236D01*
X114523525Y-33911791D01*
X114398041Y-34037275D01*
X114250486Y-34135868D01*
X114086534Y-34203779D01*
X113999507Y-34221089D01*
X113912481Y-34238400D01*
X113735019Y-34238400D01*
X113647993Y-34221090D01*
X113560966Y-34203779D01*
X113397014Y-34135868D01*
X113249459Y-34037275D01*
X113123975Y-33911791D01*
X113025382Y-33764236D01*
X112957471Y-33600284D01*
X112922850Y-33426230D01*
X112922850Y-33248770D01*
X112957471Y-33074716D01*
X113025382Y-32910764D01*
X113123975Y-32763209D01*
X113249459Y-32637725D01*
X113397014Y-32539132D01*
X113560966Y-32471221D01*
X113647993Y-32453911D01*
X113735019Y-32436600D01*
X113912481Y-32436600D01*
X113999507Y-32453911D01*
G37*
G36*
X103839507Y-32453911D02*
G01*
X103926534Y-32471221D01*
X104090486Y-32539132D01*
X104238041Y-32637725D01*
X104363525Y-32763209D01*
X104462118Y-32910764D01*
X104530029Y-33074716D01*
X104564650Y-33248770D01*
X104564650Y-33426230D01*
X104530029Y-33600284D01*
X104462118Y-33764236D01*
X104363525Y-33911791D01*
X104238041Y-34037275D01*
X104090486Y-34135868D01*
X103926534Y-34203779D01*
X103839507Y-34221089D01*
X103752481Y-34238400D01*
X103575019Y-34238400D01*
X103487993Y-34221090D01*
X103400966Y-34203779D01*
X103237014Y-34135868D01*
X103089459Y-34037275D01*
X102963975Y-33911791D01*
X102865382Y-33764236D01*
X102797471Y-33600284D01*
X102762850Y-33426230D01*
X102762850Y-33248770D01*
X102797471Y-33074716D01*
X102865382Y-32910764D01*
X102963975Y-32763209D01*
X103089459Y-32637725D01*
X103237014Y-32539132D01*
X103400966Y-32471221D01*
X103487993Y-32453911D01*
X103575019Y-32436600D01*
X103752481Y-32436600D01*
X103839507Y-32453911D01*
G37*
G36*
X84789507Y-32453911D02*
G01*
X84876534Y-32471221D01*
X85040486Y-32539132D01*
X85188041Y-32637725D01*
X85313525Y-32763209D01*
X85412118Y-32910764D01*
X85480029Y-33074716D01*
X85514650Y-33248770D01*
X85514650Y-33426230D01*
X85480029Y-33600284D01*
X85412118Y-33764236D01*
X85313525Y-33911791D01*
X85188041Y-34037275D01*
X85040486Y-34135868D01*
X84876534Y-34203779D01*
X84789507Y-34221090D01*
X84702481Y-34238400D01*
X84525019Y-34238400D01*
X84437993Y-34221090D01*
X84350966Y-34203779D01*
X84187014Y-34135868D01*
X84039459Y-34037275D01*
X83913975Y-33911791D01*
X83815382Y-33764236D01*
X83747471Y-33600284D01*
X83712850Y-33426230D01*
X83712850Y-33248770D01*
X83747471Y-33074716D01*
X83815382Y-32910764D01*
X83913975Y-32763209D01*
X84039459Y-32637725D01*
X84187014Y-32539132D01*
X84350966Y-32471221D01*
X84437993Y-32453911D01*
X84525019Y-32436600D01*
X84702481Y-32436600D01*
X84789507Y-32453911D01*
G37*
G36*
X56849507Y-32453911D02*
G01*
X56936534Y-32471221D01*
X57100486Y-32539132D01*
X57248041Y-32637725D01*
X57373525Y-32763209D01*
X57472118Y-32910764D01*
X57540029Y-33074716D01*
X57574650Y-33248770D01*
X57574650Y-33426230D01*
X57540029Y-33600284D01*
X57472118Y-33764236D01*
X57373525Y-33911791D01*
X57248041Y-34037275D01*
X57100486Y-34135868D01*
X56936534Y-34203779D01*
X56849507Y-34221090D01*
X56762481Y-34238400D01*
X56585019Y-34238400D01*
X56497993Y-34221090D01*
X56410966Y-34203779D01*
X56247014Y-34135868D01*
X56099459Y-34037275D01*
X55973975Y-33911791D01*
X55875382Y-33764236D01*
X55807471Y-33600284D01*
X55772850Y-33426230D01*
X55772850Y-33248770D01*
X55807471Y-33074716D01*
X55875382Y-32910764D01*
X55973975Y-32763209D01*
X56099459Y-32637725D01*
X56247014Y-32539132D01*
X56410966Y-32471221D01*
X56497993Y-32453911D01*
X56585019Y-32436600D01*
X56762481Y-32436600D01*
X56849507Y-32453911D01*
G37*
G36*
X75899507Y-32453911D02*
G01*
X75986534Y-32471221D01*
X76150486Y-32539132D01*
X76298041Y-32637725D01*
X76423525Y-32763209D01*
X76522118Y-32910764D01*
X76590029Y-33074716D01*
X76624650Y-33248770D01*
X76624650Y-33426230D01*
X76590029Y-33600284D01*
X76522118Y-33764236D01*
X76423525Y-33911791D01*
X76298041Y-34037275D01*
X76150486Y-34135868D01*
X75986534Y-34203779D01*
X75899507Y-34221090D01*
X75812481Y-34238400D01*
X75635019Y-34238400D01*
X75547993Y-34221090D01*
X75460966Y-34203779D01*
X75297014Y-34135868D01*
X75149459Y-34037275D01*
X75023975Y-33911791D01*
X74925382Y-33764236D01*
X74857471Y-33600284D01*
X74822850Y-33426230D01*
X74822850Y-33248770D01*
X74857471Y-33074716D01*
X74925382Y-32910764D01*
X75023975Y-32763209D01*
X75149459Y-32637725D01*
X75297014Y-32539132D01*
X75460966Y-32471221D01*
X75547993Y-32453911D01*
X75635019Y-32436600D01*
X75812481Y-32436600D01*
X75899507Y-32453911D01*
G37*
G36*
X65739507Y-32453911D02*
G01*
X65826534Y-32471221D01*
X65990486Y-32539132D01*
X66138041Y-32637725D01*
X66263525Y-32763209D01*
X66362118Y-32910764D01*
X66430029Y-33074716D01*
X66464650Y-33248770D01*
X66464650Y-33426230D01*
X66430029Y-33600284D01*
X66362118Y-33764236D01*
X66263525Y-33911791D01*
X66138041Y-34037275D01*
X65990486Y-34135868D01*
X65826534Y-34203779D01*
X65739507Y-34221090D01*
X65652481Y-34238400D01*
X65475019Y-34238400D01*
X65387993Y-34221090D01*
X65300966Y-34203779D01*
X65137014Y-34135868D01*
X64989459Y-34037275D01*
X64863975Y-33911791D01*
X64765382Y-33764236D01*
X64697471Y-33600284D01*
X64662850Y-33426230D01*
X64662850Y-33248770D01*
X64697471Y-33074716D01*
X64765382Y-32910764D01*
X64863975Y-32763209D01*
X64989459Y-32637725D01*
X65137014Y-32539132D01*
X65300966Y-32471221D01*
X65387993Y-32453911D01*
X65475019Y-32436600D01*
X65652481Y-32436600D01*
X65739507Y-32453911D01*
G37*
G36*
X46689507Y-32453911D02*
G01*
X46776534Y-32471221D01*
X46940486Y-32539132D01*
X47088041Y-32637725D01*
X47213525Y-32763209D01*
X47312118Y-32910764D01*
X47380029Y-33074716D01*
X47414650Y-33248770D01*
X47414650Y-33426230D01*
X47380029Y-33600284D01*
X47312118Y-33764236D01*
X47213525Y-33911791D01*
X47088041Y-34037275D01*
X46940486Y-34135868D01*
X46776534Y-34203779D01*
X46689507Y-34221090D01*
X46602481Y-34238400D01*
X46425019Y-34238400D01*
X46337993Y-34221090D01*
X46250966Y-34203779D01*
X46087014Y-34135868D01*
X45939459Y-34037275D01*
X45813975Y-33911791D01*
X45715382Y-33764236D01*
X45647471Y-33600284D01*
X45612850Y-33426230D01*
X45612850Y-33248770D01*
X45647471Y-33074716D01*
X45715382Y-32910764D01*
X45813975Y-32763209D01*
X45939459Y-32637725D01*
X46087014Y-32539132D01*
X46250966Y-32471221D01*
X46337993Y-32453911D01*
X46425019Y-32436600D01*
X46602481Y-32436600D01*
X46689507Y-32453911D01*
G37*
G36*
X86335868Y-29307065D02*
G01*
X86617950Y-29423908D01*
X86871818Y-29593536D01*
X87087714Y-29809432D01*
X87257342Y-30063300D01*
X87374185Y-30345382D01*
X87433750Y-30644838D01*
X87433750Y-30950162D01*
X87374185Y-31249618D01*
X87257342Y-31531700D01*
X87087714Y-31785568D01*
X86871818Y-32001464D01*
X86617950Y-32171092D01*
X86335868Y-32287935D01*
X86036412Y-32347500D01*
X85731088Y-32347500D01*
X85431632Y-32287935D01*
X85149550Y-32171092D01*
X84895682Y-32001464D01*
X84679786Y-31785568D01*
X84510158Y-31531700D01*
X84393315Y-31249618D01*
X84333750Y-30950162D01*
X84333750Y-30644838D01*
X84393315Y-30345382D01*
X84510158Y-30063300D01*
X84679786Y-29809432D01*
X84895682Y-29593536D01*
X85149550Y-29423908D01*
X85431632Y-29307065D01*
X85731088Y-29247500D01*
X86036412Y-29247500D01*
X86335868Y-29307065D01*
G37*
G36*
X143485868Y-29307065D02*
G01*
X143767950Y-29423908D01*
X144021818Y-29593536D01*
X144237714Y-29809432D01*
X144407342Y-30063300D01*
X144524185Y-30345382D01*
X144583750Y-30644838D01*
X144583750Y-30950162D01*
X144524185Y-31249618D01*
X144407342Y-31531700D01*
X144237714Y-31785568D01*
X144021818Y-32001464D01*
X143767950Y-32171092D01*
X143485868Y-32287935D01*
X143186412Y-32347500D01*
X142881088Y-32347500D01*
X142581632Y-32287935D01*
X142299550Y-32171092D01*
X142045682Y-32001464D01*
X141829786Y-31785568D01*
X141660158Y-31531700D01*
X141543315Y-31249618D01*
X141483750Y-30950162D01*
X141483750Y-30644838D01*
X141543315Y-30345382D01*
X141660158Y-30063300D01*
X141829786Y-29809432D01*
X142045682Y-29593536D01*
X142299550Y-29423908D01*
X142581632Y-29307065D01*
X142881088Y-29247500D01*
X143186412Y-29247500D01*
X143485868Y-29307065D01*
G37*
G36*
X105385868Y-29307065D02*
G01*
X105667950Y-29423908D01*
X105921818Y-29593536D01*
X106137714Y-29809432D01*
X106307342Y-30063300D01*
X106424185Y-30345382D01*
X106483750Y-30644838D01*
X106483750Y-30950162D01*
X106424185Y-31249618D01*
X106307342Y-31531700D01*
X106137714Y-31785568D01*
X105921818Y-32001464D01*
X105667950Y-32171092D01*
X105385868Y-32287935D01*
X105086412Y-32347500D01*
X104781088Y-32347500D01*
X104481632Y-32287935D01*
X104199550Y-32171092D01*
X103945682Y-32001464D01*
X103729786Y-31785568D01*
X103560158Y-31531700D01*
X103443315Y-31249618D01*
X103383750Y-30950162D01*
X103383750Y-30644838D01*
X103443315Y-30345382D01*
X103560158Y-30063300D01*
X103729786Y-29809432D01*
X103945682Y-29593536D01*
X104199550Y-29423908D01*
X104481632Y-29307065D01*
X104781088Y-29247500D01*
X105086412Y-29247500D01*
X105385868Y-29307065D01*
G37*
G36*
X124435868Y-29307065D02*
G01*
X124717950Y-29423908D01*
X124971818Y-29593536D01*
X125187714Y-29809432D01*
X125357342Y-30063300D01*
X125474185Y-30345382D01*
X125533750Y-30644838D01*
X125533750Y-30950162D01*
X125474185Y-31249618D01*
X125357342Y-31531700D01*
X125187714Y-31785568D01*
X124971818Y-32001464D01*
X124717950Y-32171092D01*
X124435868Y-32287935D01*
X124136412Y-32347500D01*
X123831088Y-32347500D01*
X123531632Y-32287935D01*
X123249550Y-32171092D01*
X122995682Y-32001464D01*
X122779786Y-31785568D01*
X122610158Y-31531700D01*
X122493315Y-31249618D01*
X122433750Y-30950162D01*
X122433750Y-30644838D01*
X122493315Y-30345382D01*
X122610158Y-30063300D01*
X122779786Y-29809432D01*
X122995682Y-29593536D01*
X123249550Y-29423908D01*
X123531632Y-29307065D01*
X123831088Y-29247500D01*
X124136412Y-29247500D01*
X124435868Y-29307065D01*
G37*
G36*
X67285868Y-29307065D02*
G01*
X67567950Y-29423908D01*
X67821818Y-29593536D01*
X68037714Y-29809432D01*
X68207342Y-30063300D01*
X68324185Y-30345382D01*
X68383750Y-30644838D01*
X68383750Y-30950162D01*
X68324185Y-31249618D01*
X68207342Y-31531700D01*
X68037714Y-31785568D01*
X67821818Y-32001464D01*
X67567950Y-32171092D01*
X67285868Y-32287935D01*
X66986412Y-32347500D01*
X66681088Y-32347500D01*
X66381632Y-32287935D01*
X66099550Y-32171092D01*
X65845682Y-32001464D01*
X65629786Y-31785568D01*
X65460158Y-31531700D01*
X65343315Y-31249618D01*
X65283750Y-30950162D01*
X65283750Y-30644838D01*
X65343315Y-30345382D01*
X65460158Y-30063300D01*
X65629786Y-29809432D01*
X65845682Y-29593536D01*
X66099550Y-29423908D01*
X66381632Y-29307065D01*
X66681088Y-29247500D01*
X66986412Y-29247500D01*
X67285868Y-29307065D01*
G37*
G36*
X48235868Y-29307065D02*
G01*
X48517950Y-29423908D01*
X48771818Y-29593536D01*
X48987714Y-29809432D01*
X49157342Y-30063300D01*
X49274185Y-30345382D01*
X49333750Y-30644838D01*
X49333750Y-30950162D01*
X49274185Y-31249618D01*
X49157342Y-31531700D01*
X48987714Y-31785568D01*
X48771818Y-32001464D01*
X48517950Y-32171092D01*
X48235868Y-32287935D01*
X47936412Y-32347500D01*
X47631088Y-32347500D01*
X47331632Y-32287935D01*
X47049550Y-32171092D01*
X46795682Y-32001464D01*
X46579786Y-31785568D01*
X46410158Y-31531700D01*
X46293315Y-31249618D01*
X46233750Y-30950162D01*
X46233750Y-30644838D01*
X46293315Y-30345382D01*
X46410158Y-30063300D01*
X46579786Y-29809432D01*
X46795682Y-29593536D01*
X47049550Y-29423908D01*
X47331632Y-29307065D01*
X47631088Y-29247500D01*
X47936412Y-29247500D01*
X48235868Y-29307065D01*
G37*
G36*
X29185868Y-29307065D02*
G01*
X29467950Y-29423908D01*
X29721818Y-29593536D01*
X29937714Y-29809432D01*
X30107342Y-30063300D01*
X30224185Y-30345382D01*
X30283750Y-30644838D01*
X30283750Y-30950162D01*
X30224185Y-31249618D01*
X30107342Y-31531700D01*
X29937714Y-31785568D01*
X29721818Y-32001464D01*
X29467950Y-32171092D01*
X29185868Y-32287935D01*
X28886412Y-32347500D01*
X28581088Y-32347500D01*
X28281632Y-32287935D01*
X27999550Y-32171092D01*
X27745682Y-32001464D01*
X27529786Y-31785568D01*
X27360158Y-31531700D01*
X27243315Y-31249618D01*
X27183750Y-30950162D01*
X27183750Y-30644838D01*
X27243315Y-30345382D01*
X27360158Y-30063300D01*
X27529786Y-29809432D01*
X27745682Y-29593536D01*
X27999550Y-29423908D01*
X28281632Y-29307065D01*
X28581088Y-29247500D01*
X28886412Y-29247500D01*
X29185868Y-29307065D01*
G37*
G36*
X111735868Y-26767065D02*
G01*
X112017950Y-26883908D01*
X112271818Y-27053536D01*
X112487714Y-27269432D01*
X112657342Y-27523300D01*
X112774185Y-27805382D01*
X112833750Y-28104838D01*
X112833750Y-28410162D01*
X112774185Y-28709618D01*
X112657342Y-28991700D01*
X112487714Y-29245568D01*
X112271818Y-29461464D01*
X112017950Y-29631092D01*
X111735868Y-29747935D01*
X111436412Y-29807500D01*
X111131088Y-29807500D01*
X110831632Y-29747935D01*
X110549550Y-29631092D01*
X110295682Y-29461464D01*
X110079786Y-29245568D01*
X109910158Y-28991700D01*
X109793315Y-28709618D01*
X109733750Y-28410162D01*
X109733750Y-28104838D01*
X109793315Y-27805382D01*
X109910158Y-27523300D01*
X110079786Y-27269432D01*
X110295682Y-27053536D01*
X110549550Y-26883908D01*
X110831632Y-26767065D01*
X111131088Y-26707500D01*
X111436412Y-26707500D01*
X111735868Y-26767065D01*
G37*
G36*
X130785868Y-26767065D02*
G01*
X131067950Y-26883908D01*
X131321818Y-27053536D01*
X131537714Y-27269432D01*
X131707342Y-27523300D01*
X131824185Y-27805382D01*
X131883750Y-28104838D01*
X131883750Y-28410162D01*
X131824185Y-28709618D01*
X131707342Y-28991700D01*
X131537714Y-29245568D01*
X131321818Y-29461464D01*
X131067950Y-29631092D01*
X130785868Y-29747935D01*
X130486412Y-29807500D01*
X130181088Y-29807500D01*
X129881632Y-29747935D01*
X129599550Y-29631092D01*
X129345682Y-29461464D01*
X129129786Y-29245568D01*
X128960158Y-28991700D01*
X128843315Y-28709618D01*
X128783750Y-28410162D01*
X128783750Y-28104838D01*
X128843315Y-27805382D01*
X128960158Y-27523300D01*
X129129786Y-27269432D01*
X129345682Y-27053536D01*
X129599550Y-26883908D01*
X129881632Y-26767065D01*
X130181088Y-26707500D01*
X130486412Y-26707500D01*
X130785868Y-26767065D01*
G37*
G36*
X92685868Y-26767065D02*
G01*
X92967950Y-26883908D01*
X93221818Y-27053536D01*
X93437714Y-27269432D01*
X93607342Y-27523300D01*
X93724185Y-27805382D01*
X93783750Y-28104838D01*
X93783750Y-28410162D01*
X93724185Y-28709618D01*
X93607342Y-28991700D01*
X93437714Y-29245568D01*
X93221818Y-29461464D01*
X92967950Y-29631092D01*
X92685868Y-29747935D01*
X92386412Y-29807500D01*
X92081088Y-29807500D01*
X91781632Y-29747935D01*
X91499550Y-29631092D01*
X91245682Y-29461464D01*
X91029786Y-29245568D01*
X90860158Y-28991700D01*
X90743315Y-28709618D01*
X90683750Y-28410162D01*
X90683750Y-28104838D01*
X90743315Y-27805382D01*
X90860158Y-27523300D01*
X91029786Y-27269432D01*
X91245682Y-27053536D01*
X91499550Y-26883908D01*
X91781632Y-26767065D01*
X92081088Y-26707500D01*
X92386412Y-26707500D01*
X92685868Y-26767065D01*
G37*
G36*
X149835868Y-26767065D02*
G01*
X150117950Y-26883908D01*
X150371818Y-27053536D01*
X150587714Y-27269432D01*
X150757342Y-27523300D01*
X150874185Y-27805382D01*
X150933750Y-28104838D01*
X150933750Y-28410162D01*
X150874185Y-28709618D01*
X150757342Y-28991700D01*
X150587714Y-29245568D01*
X150371818Y-29461464D01*
X150117950Y-29631092D01*
X149835868Y-29747935D01*
X149536412Y-29807500D01*
X149231088Y-29807500D01*
X148931632Y-29747935D01*
X148649550Y-29631092D01*
X148395682Y-29461464D01*
X148179786Y-29245568D01*
X148010158Y-28991700D01*
X147893315Y-28709618D01*
X147833750Y-28410162D01*
X147833750Y-28104838D01*
X147893315Y-27805382D01*
X148010158Y-27523300D01*
X148179786Y-27269432D01*
X148395682Y-27053536D01*
X148649550Y-26883908D01*
X148931632Y-26767065D01*
X149231088Y-26707500D01*
X149536412Y-26707500D01*
X149835868Y-26767065D01*
G37*
G36*
X35535868Y-26767065D02*
G01*
X35817950Y-26883908D01*
X36071818Y-27053536D01*
X36287714Y-27269432D01*
X36457342Y-27523300D01*
X36574185Y-27805382D01*
X36633750Y-28104838D01*
X36633750Y-28410162D01*
X36574185Y-28709618D01*
X36457342Y-28991700D01*
X36287714Y-29245568D01*
X36071818Y-29461464D01*
X35817950Y-29631092D01*
X35535868Y-29747935D01*
X35236412Y-29807500D01*
X34931088Y-29807500D01*
X34631632Y-29747935D01*
X34349550Y-29631092D01*
X34095682Y-29461464D01*
X33879786Y-29245568D01*
X33710158Y-28991700D01*
X33593315Y-28709618D01*
X33533750Y-28410162D01*
X33533750Y-28104838D01*
X33593315Y-27805382D01*
X33710158Y-27523300D01*
X33879786Y-27269432D01*
X34095682Y-27053536D01*
X34349550Y-26883908D01*
X34631632Y-26767065D01*
X34931088Y-26707500D01*
X35236412Y-26707500D01*
X35535868Y-26767065D01*
G37*
G36*
X54585868Y-26767065D02*
G01*
X54867950Y-26883908D01*
X55121818Y-27053536D01*
X55337714Y-27269432D01*
X55507342Y-27523300D01*
X55624185Y-27805382D01*
X55683750Y-28104838D01*
X55683750Y-28410162D01*
X55624185Y-28709618D01*
X55507342Y-28991700D01*
X55337714Y-29245568D01*
X55121818Y-29461464D01*
X54867950Y-29631092D01*
X54585868Y-29747935D01*
X54286412Y-29807500D01*
X53981088Y-29807500D01*
X53681632Y-29747935D01*
X53399550Y-29631092D01*
X53145682Y-29461464D01*
X52929786Y-29245568D01*
X52760158Y-28991700D01*
X52643315Y-28709618D01*
X52583750Y-28410162D01*
X52583750Y-28104838D01*
X52643315Y-27805382D01*
X52760158Y-27523300D01*
X52929786Y-27269432D01*
X53145682Y-27053536D01*
X53399550Y-26883908D01*
X53681632Y-26767065D01*
X53981088Y-26707500D01*
X54286412Y-26707500D01*
X54585868Y-26767065D01*
G37*
G36*
X73635868Y-26767065D02*
G01*
X73917950Y-26883908D01*
X74171818Y-27053536D01*
X74387714Y-27269432D01*
X74557342Y-27523300D01*
X74674185Y-27805382D01*
X74733750Y-28104838D01*
X74733750Y-28410162D01*
X74674185Y-28709618D01*
X74557342Y-28991700D01*
X74387714Y-29245568D01*
X74171818Y-29461464D01*
X73917950Y-29631092D01*
X73635868Y-29747935D01*
X73336412Y-29807500D01*
X73031088Y-29807500D01*
X72731632Y-29747935D01*
X72449550Y-29631092D01*
X72195682Y-29461464D01*
X71979786Y-29245568D01*
X71810158Y-28991700D01*
X71693315Y-28709618D01*
X71633750Y-28410162D01*
X71633750Y-28104838D01*
X71693315Y-27805382D01*
X71810158Y-27523300D01*
X71979786Y-27269432D01*
X72195682Y-27053536D01*
X72449550Y-26883908D01*
X72731632Y-26767065D01*
X73031088Y-26707500D01*
X73336412Y-26707500D01*
X73635868Y-26767065D01*
G37*
G36*
X151261365Y-17996181D02*
G01*
X151261367Y-17996182D01*
X151261370Y-17996182D01*
X151374470Y-18030490D01*
X151478704Y-18086204D01*
X151570067Y-18161183D01*
X151645046Y-18252545D01*
X151700760Y-18356779D01*
X151735068Y-18469879D01*
X151735068Y-18469880D01*
X151735069Y-18469884D01*
X151743750Y-18558026D01*
X151743750Y-19716974D01*
X151735069Y-19805116D01*
X151735068Y-19805118D01*
X151735068Y-19805121D01*
X151700760Y-19918221D01*
X151645046Y-20022455D01*
X151570067Y-20113817D01*
X151478705Y-20188796D01*
X151374471Y-20244510D01*
X151261371Y-20278818D01*
X151261368Y-20278818D01*
X151261366Y-20278819D01*
X151143750Y-20290403D01*
X151026135Y-20278819D01*
X151026133Y-20278818D01*
X151026130Y-20278818D01*
X150913030Y-20244510D01*
X150808796Y-20188796D01*
X150717434Y-20113817D01*
X150642455Y-20022455D01*
X150586741Y-19918221D01*
X150552433Y-19805121D01*
X150552433Y-19805118D01*
X150552432Y-19805116D01*
X150543751Y-19716974D01*
X150543750Y-18558027D01*
X150552431Y-18469885D01*
X150552432Y-18469883D01*
X150552432Y-18469880D01*
X150586740Y-18356780D01*
X150642454Y-18252546D01*
X150717433Y-18161183D01*
X150808795Y-18086204D01*
X150913029Y-18030490D01*
X151026129Y-17996182D01*
X151026132Y-17996182D01*
X151026134Y-17996181D01*
X151143750Y-17984597D01*
X151261365Y-17996181D01*
G37*
G36*
X142661365Y-17996181D02*
G01*
X142661367Y-17996182D01*
X142661370Y-17996182D01*
X142774470Y-18030490D01*
X142878704Y-18086204D01*
X142970067Y-18161183D01*
X143045046Y-18252545D01*
X143100760Y-18356779D01*
X143135068Y-18469879D01*
X143135068Y-18469880D01*
X143135069Y-18469884D01*
X143143750Y-18558026D01*
X143143750Y-19716974D01*
X143135069Y-19805116D01*
X143135068Y-19805118D01*
X143135068Y-19805121D01*
X143100760Y-19918221D01*
X143045046Y-20022455D01*
X142970067Y-20113817D01*
X142878705Y-20188796D01*
X142774471Y-20244510D01*
X142661371Y-20278818D01*
X142661368Y-20278818D01*
X142661366Y-20278819D01*
X142543750Y-20290403D01*
X142426135Y-20278819D01*
X142426133Y-20278818D01*
X142426130Y-20278818D01*
X142313030Y-20244510D01*
X142208796Y-20188796D01*
X142117434Y-20113817D01*
X142042455Y-20022455D01*
X141986741Y-19918221D01*
X141952433Y-19805121D01*
X141952433Y-19805118D01*
X141952432Y-19805116D01*
X141943751Y-19716974D01*
X141943750Y-18558027D01*
X141952431Y-18469885D01*
X141952432Y-18469883D01*
X141952432Y-18469880D01*
X141986740Y-18356780D01*
X142042454Y-18252546D01*
X142117433Y-18161183D01*
X142208795Y-18086204D01*
X142313029Y-18030490D01*
X142426129Y-17996182D01*
X142426132Y-17996182D01*
X142426134Y-17996181D01*
X142543750Y-17984597D01*
X142661365Y-17996181D01*
G37*
G36*
X94016115Y-17996181D02*
G01*
X94016117Y-17996182D01*
X94016120Y-17996182D01*
X94129220Y-18030490D01*
X94233454Y-18086204D01*
X94324817Y-18161183D01*
X94399796Y-18252545D01*
X94455510Y-18356779D01*
X94489818Y-18469879D01*
X94489818Y-18469880D01*
X94489819Y-18469884D01*
X94498500Y-18558026D01*
X94498500Y-19716974D01*
X94489819Y-19805116D01*
X94489818Y-19805118D01*
X94489818Y-19805121D01*
X94455510Y-19918221D01*
X94399796Y-20022455D01*
X94324817Y-20113817D01*
X94233455Y-20188796D01*
X94129221Y-20244510D01*
X94016121Y-20278818D01*
X94016118Y-20278818D01*
X94016116Y-20278819D01*
X93898500Y-20290403D01*
X93780885Y-20278819D01*
X93780883Y-20278818D01*
X93780880Y-20278818D01*
X93667780Y-20244510D01*
X93563546Y-20188796D01*
X93472184Y-20113817D01*
X93397205Y-20022455D01*
X93341491Y-19918221D01*
X93307183Y-19805121D01*
X93307183Y-19805118D01*
X93307182Y-19805116D01*
X93298501Y-19716974D01*
X93298500Y-18558027D01*
X93307181Y-18469885D01*
X93307182Y-18469883D01*
X93307182Y-18469880D01*
X93341490Y-18356780D01*
X93397204Y-18252546D01*
X93472183Y-18161183D01*
X93563545Y-18086204D01*
X93667779Y-18030490D01*
X93780879Y-17996182D01*
X93780882Y-17996182D01*
X93780884Y-17996181D01*
X93898500Y-17984597D01*
X94016115Y-17996181D01*
G37*
G36*
X85416115Y-17996181D02*
G01*
X85416117Y-17996182D01*
X85416120Y-17996182D01*
X85529220Y-18030490D01*
X85633454Y-18086204D01*
X85724817Y-18161183D01*
X85799796Y-18252545D01*
X85855510Y-18356779D01*
X85889818Y-18469879D01*
X85889818Y-18469880D01*
X85889819Y-18469884D01*
X85898500Y-18558026D01*
X85898500Y-19716974D01*
X85889819Y-19805116D01*
X85889818Y-19805118D01*
X85889818Y-19805121D01*
X85855510Y-19918221D01*
X85799796Y-20022455D01*
X85724817Y-20113817D01*
X85633455Y-20188796D01*
X85529221Y-20244510D01*
X85416121Y-20278818D01*
X85416118Y-20278818D01*
X85416116Y-20278819D01*
X85298500Y-20290403D01*
X85180885Y-20278819D01*
X85180883Y-20278818D01*
X85180880Y-20278818D01*
X85067780Y-20244510D01*
X84963546Y-20188796D01*
X84872184Y-20113817D01*
X84797205Y-20022455D01*
X84741491Y-19918221D01*
X84707183Y-19805121D01*
X84707183Y-19805118D01*
X84707182Y-19805116D01*
X84698501Y-19716974D01*
X84698500Y-18558027D01*
X84707181Y-18469885D01*
X84707182Y-18469883D01*
X84707182Y-18469880D01*
X84741490Y-18356780D01*
X84797204Y-18252546D01*
X84872183Y-18161183D01*
X84963545Y-18086204D01*
X85067779Y-18030490D01*
X85180879Y-17996182D01*
X85180882Y-17996182D01*
X85180884Y-17996181D01*
X85298500Y-17984597D01*
X85416115Y-17996181D01*
G37*
G36*
X144063133Y-18225911D02*
G01*
X144063136Y-18225912D01*
X144063135Y-18225912D01*
X144131379Y-18254179D01*
X144192799Y-18295219D01*
X144245031Y-18347451D01*
X144286071Y-18408871D01*
X144310199Y-18467122D01*
X144314339Y-18477117D01*
X144328750Y-18549566D01*
X144328750Y-18623434D01*
X144314339Y-18695883D01*
X144314338Y-18695885D01*
X144286071Y-18764129D01*
X144245031Y-18825549D01*
X144192799Y-18877781D01*
X144131379Y-18918821D01*
X144073128Y-18942949D01*
X144063133Y-18947089D01*
X143990684Y-18961500D01*
X143916816Y-18961500D01*
X143844367Y-18947089D01*
X143834372Y-18942949D01*
X143776121Y-18918821D01*
X143714701Y-18877781D01*
X143662469Y-18825549D01*
X143621429Y-18764129D01*
X143593162Y-18695885D01*
X143593161Y-18695883D01*
X143578750Y-18623434D01*
X143578750Y-18549566D01*
X143593161Y-18477117D01*
X143597301Y-18467122D01*
X143621429Y-18408871D01*
X143662469Y-18347451D01*
X143714701Y-18295219D01*
X143776121Y-18254179D01*
X143844365Y-18225912D01*
X143844364Y-18225912D01*
X143844367Y-18225911D01*
X143916816Y-18211500D01*
X143990684Y-18211500D01*
X144063133Y-18225911D01*
G37*
G36*
X149843133Y-18225911D02*
G01*
X149843136Y-18225912D01*
X149843135Y-18225912D01*
X149911379Y-18254179D01*
X149972799Y-18295219D01*
X150025031Y-18347451D01*
X150066071Y-18408871D01*
X150090199Y-18467122D01*
X150094339Y-18477117D01*
X150108750Y-18549566D01*
X150108750Y-18623434D01*
X150094339Y-18695883D01*
X150094338Y-18695885D01*
X150066071Y-18764129D01*
X150025031Y-18825549D01*
X149972799Y-18877781D01*
X149911379Y-18918821D01*
X149853128Y-18942949D01*
X149843133Y-18947089D01*
X149770684Y-18961500D01*
X149696816Y-18961500D01*
X149624367Y-18947089D01*
X149614372Y-18942949D01*
X149556121Y-18918821D01*
X149494701Y-18877781D01*
X149442469Y-18825549D01*
X149401429Y-18764129D01*
X149373162Y-18695885D01*
X149373161Y-18695883D01*
X149358750Y-18623434D01*
X149358750Y-18549566D01*
X149373161Y-18477117D01*
X149377301Y-18467122D01*
X149401429Y-18408871D01*
X149442469Y-18347451D01*
X149494701Y-18295219D01*
X149556121Y-18254179D01*
X149624365Y-18225912D01*
X149624364Y-18225912D01*
X149624367Y-18225911D01*
X149696816Y-18211500D01*
X149770684Y-18211500D01*
X149843133Y-18225911D01*
G37*
G36*
X92597883Y-18225911D02*
G01*
X92597886Y-18225912D01*
X92597885Y-18225912D01*
X92666129Y-18254179D01*
X92727549Y-18295219D01*
X92779781Y-18347451D01*
X92820821Y-18408871D01*
X92844949Y-18467122D01*
X92849089Y-18477117D01*
X92863500Y-18549566D01*
X92863500Y-18623434D01*
X92849089Y-18695883D01*
X92849088Y-18695885D01*
X92820821Y-18764129D01*
X92779781Y-18825549D01*
X92727549Y-18877781D01*
X92666129Y-18918821D01*
X92607878Y-18942949D01*
X92597883Y-18947089D01*
X92525434Y-18961500D01*
X92451566Y-18961500D01*
X92379117Y-18947089D01*
X92369122Y-18942949D01*
X92310871Y-18918821D01*
X92249451Y-18877781D01*
X92197219Y-18825549D01*
X92156179Y-18764129D01*
X92127912Y-18695885D01*
X92127911Y-18695883D01*
X92113500Y-18623434D01*
X92113500Y-18549566D01*
X92127911Y-18477117D01*
X92132051Y-18467122D01*
X92156179Y-18408871D01*
X92197219Y-18347451D01*
X92249451Y-18295219D01*
X92310871Y-18254179D01*
X92379115Y-18225912D01*
X92379114Y-18225912D01*
X92379117Y-18225911D01*
X92451566Y-18211500D01*
X92525434Y-18211500D01*
X92597883Y-18225911D01*
G37*
G36*
X86817883Y-18225911D02*
G01*
X86817886Y-18225912D01*
X86817885Y-18225912D01*
X86886129Y-18254179D01*
X86947549Y-18295219D01*
X86999781Y-18347451D01*
X87040821Y-18408871D01*
X87064949Y-18467122D01*
X87069089Y-18477117D01*
X87083500Y-18549566D01*
X87083500Y-18623434D01*
X87069089Y-18695883D01*
X87069088Y-18695885D01*
X87040821Y-18764129D01*
X86999781Y-18825549D01*
X86947549Y-18877781D01*
X86886129Y-18918821D01*
X86827878Y-18942949D01*
X86817883Y-18947089D01*
X86745434Y-18961500D01*
X86671566Y-18961500D01*
X86599117Y-18947089D01*
X86589122Y-18942949D01*
X86530871Y-18918821D01*
X86469451Y-18877781D01*
X86417219Y-18825549D01*
X86376179Y-18764129D01*
X86347912Y-18695885D01*
X86347911Y-18695883D01*
X86333500Y-18623434D01*
X86333500Y-18549566D01*
X86347911Y-18477117D01*
X86352051Y-18467122D01*
X86376179Y-18408871D01*
X86417219Y-18347451D01*
X86469451Y-18295219D01*
X86530871Y-18254179D01*
X86599115Y-18225912D01*
X86599114Y-18225912D01*
X86599117Y-18225911D01*
X86671566Y-18211500D01*
X86745434Y-18211500D01*
X86817883Y-18225911D01*
G37*
G36*
X16909476Y-13546154D02*
G01*
X17318950Y-13715764D01*
X17687467Y-13961999D01*
X18000864Y-14275396D01*
X18247099Y-14643913D01*
X18416709Y-15053387D01*
X18503175Y-15488082D01*
X18503175Y-15931294D01*
X18416709Y-16365989D01*
X18247099Y-16775463D01*
X18000864Y-17143980D01*
X17687467Y-17457377D01*
X17318950Y-17703612D01*
X16909476Y-17873222D01*
X16474781Y-17959688D01*
X16031569Y-17959688D01*
X15596874Y-17873222D01*
X15187400Y-17703612D01*
X14818883Y-17457377D01*
X14505486Y-17143980D01*
X14259251Y-16775463D01*
X14089641Y-16365989D01*
X14003175Y-15931294D01*
X14003175Y-15488082D01*
X14089641Y-15053387D01*
X14259251Y-14643913D01*
X14505486Y-14275396D01*
X14818883Y-13961999D01*
X15187400Y-13715764D01*
X15596874Y-13546154D01*
X16031569Y-13459688D01*
X16474781Y-13459688D01*
X16909476Y-13546154D01*
G37*
G36*
X168777484Y-13509315D02*
G01*
X169186958Y-13678925D01*
X169555475Y-13925160D01*
X169868872Y-14238557D01*
X170115107Y-14607074D01*
X170284717Y-15016548D01*
X170371183Y-15451243D01*
X170371183Y-15894455D01*
X170284717Y-16329150D01*
X170115107Y-16738624D01*
X169868872Y-17107141D01*
X169555475Y-17420538D01*
X169186958Y-17666773D01*
X168777484Y-17836383D01*
X168342789Y-17922849D01*
X167899577Y-17922849D01*
X167464882Y-17836383D01*
X167055408Y-17666773D01*
X166686891Y-17420538D01*
X166373494Y-17107141D01*
X166127259Y-16738624D01*
X165957649Y-16329150D01*
X165871183Y-15894455D01*
X165871183Y-15451243D01*
X165957649Y-15016548D01*
X166127259Y-14607074D01*
X166373494Y-14238557D01*
X166686891Y-13925160D01*
X167055408Y-13678925D01*
X167464882Y-13509315D01*
X167899577Y-13422849D01*
X168342789Y-13422849D01*
X168777484Y-13509315D01*
G37*
G36*
X85435723Y-13947628D02*
G01*
X85567674Y-13987655D01*
X85689280Y-14052655D01*
X85795869Y-14140130D01*
X85883345Y-14246719D01*
X85948345Y-14368325D01*
X85988372Y-14500276D01*
X85998500Y-14603110D01*
X85998500Y-15271890D01*
X85988372Y-15374724D01*
X85948345Y-15506675D01*
X85883345Y-15628281D01*
X85795870Y-15734870D01*
X85689281Y-15822345D01*
X85567675Y-15887345D01*
X85435724Y-15927372D01*
X85298500Y-15940887D01*
X85161277Y-15927372D01*
X85029326Y-15887345D01*
X84907720Y-15822345D01*
X84801131Y-15734870D01*
X84713656Y-15628281D01*
X84648655Y-15506675D01*
X84608628Y-15374724D01*
X84598500Y-15271890D01*
X84598500Y-14603111D01*
X84608628Y-14500277D01*
X84648655Y-14368326D01*
X84713655Y-14246720D01*
X84801130Y-14140131D01*
X84907719Y-14052655D01*
X85029325Y-13987655D01*
X85161276Y-13947628D01*
X85298500Y-13934113D01*
X85435723Y-13947628D01*
G37*
G36*
X94035723Y-13947628D02*
G01*
X94167674Y-13987655D01*
X94289280Y-14052655D01*
X94395869Y-14140130D01*
X94483345Y-14246719D01*
X94548345Y-14368325D01*
X94588372Y-14500276D01*
X94598500Y-14603110D01*
X94598500Y-15271890D01*
X94588372Y-15374724D01*
X94548345Y-15506675D01*
X94483345Y-15628281D01*
X94395870Y-15734870D01*
X94289281Y-15822345D01*
X94167675Y-15887345D01*
X94035724Y-15927372D01*
X93898500Y-15940887D01*
X93761277Y-15927372D01*
X93629326Y-15887345D01*
X93507720Y-15822345D01*
X93401131Y-15734870D01*
X93313656Y-15628281D01*
X93248655Y-15506675D01*
X93208628Y-15374724D01*
X93198500Y-15271890D01*
X93198500Y-14603111D01*
X93208628Y-14500277D01*
X93248655Y-14368326D01*
X93313655Y-14246720D01*
X93401130Y-14140131D01*
X93507719Y-14052655D01*
X93629325Y-13987655D01*
X93761276Y-13947628D01*
X93898500Y-13934113D01*
X94035723Y-13947628D01*
G37*
G36*
X142680973Y-13947628D02*
G01*
X142812924Y-13987655D01*
X142934530Y-14052655D01*
X143041119Y-14140130D01*
X143128595Y-14246719D01*
X143193595Y-14368325D01*
X143233622Y-14500276D01*
X143243750Y-14603110D01*
X143243750Y-15271890D01*
X143233622Y-15374724D01*
X143193595Y-15506675D01*
X143128595Y-15628281D01*
X143041120Y-15734870D01*
X142934531Y-15822345D01*
X142812925Y-15887345D01*
X142680974Y-15927372D01*
X142543750Y-15940887D01*
X142406527Y-15927372D01*
X142274576Y-15887345D01*
X142152970Y-15822345D01*
X142046381Y-15734870D01*
X141958906Y-15628281D01*
X141893905Y-15506675D01*
X141853878Y-15374724D01*
X141843750Y-15271890D01*
X141843750Y-14603111D01*
X141853878Y-14500277D01*
X141893905Y-14368326D01*
X141958905Y-14246720D01*
X142046380Y-14140131D01*
X142152969Y-14052655D01*
X142274575Y-13987655D01*
X142406526Y-13947628D01*
X142543750Y-13934113D01*
X142680973Y-13947628D01*
G37*
G36*
X151280973Y-13947628D02*
G01*
X151412924Y-13987655D01*
X151534530Y-14052655D01*
X151641119Y-14140130D01*
X151728595Y-14246719D01*
X151793595Y-14368325D01*
X151833622Y-14500276D01*
X151843750Y-14603110D01*
X151843750Y-15271890D01*
X151833622Y-15374724D01*
X151793595Y-15506675D01*
X151728595Y-15628281D01*
X151641120Y-15734870D01*
X151534531Y-15822345D01*
X151412925Y-15887345D01*
X151280974Y-15927372D01*
X151143750Y-15940887D01*
X151006527Y-15927372D01*
X150874576Y-15887345D01*
X150752970Y-15822345D01*
X150646381Y-15734870D01*
X150558906Y-15628281D01*
X150493905Y-15506675D01*
X150453878Y-15374724D01*
X150443750Y-15271890D01*
X150443750Y-14603111D01*
X150453878Y-14500277D01*
X150493905Y-14368326D01*
X150558905Y-14246720D01*
X150646380Y-14140131D01*
X150752969Y-14052655D01*
X150874575Y-13987655D01*
X151006526Y-13947628D01*
X151143750Y-13934113D01*
X151280973Y-13947628D01*
G37*
M02*
