G04 #@! TF.GenerationSoftware,KiCad,Pcbnew,(5.1.5-0-10_14)*
G04 #@! TF.CreationDate,2020-09-15T13:15:11+02:00*
G04 #@! TF.ProjectId,Trigon,54726967-6f6e-42e6-9b69-6361645f7063,rev?*
G04 #@! TF.SameCoordinates,Original*
G04 #@! TF.FileFunction,Soldermask,Top*
G04 #@! TF.FilePolarity,Negative*
%FSLAX46Y46*%
G04 Gerber Fmt 4.6, Leading zero omitted, Abs format (unit mm)*
G04 Created by KiCad (PCBNEW (5.1.5-0-10_14)) date 2020-09-15 13:15:11*
%MOMM*%
%LPD*%
G04 APERTURE LIST*
%ADD10C,0.100000*%
G04 APERTURE END LIST*
D10*
G36*
X168397063Y-126375467D02*
G01*
X168777776Y-126451195D01*
X169187432Y-126620880D01*
X169556112Y-126867225D01*
X169869649Y-127180762D01*
X170115994Y-127549442D01*
X170285679Y-127959098D01*
X170372183Y-128393987D01*
X170372183Y-128837395D01*
X170285679Y-129272284D01*
X170115994Y-129681940D01*
X169869649Y-130050620D01*
X169556112Y-130364157D01*
X169187432Y-130610502D01*
X168777776Y-130780187D01*
X168397063Y-130855915D01*
X168342888Y-130866691D01*
X167899478Y-130866691D01*
X167845303Y-130855915D01*
X167464590Y-130780187D01*
X167054934Y-130610502D01*
X166686254Y-130364157D01*
X166372717Y-130050620D01*
X166126372Y-129681940D01*
X165956687Y-129272284D01*
X165870183Y-128837395D01*
X165870183Y-128393987D01*
X165956687Y-127959098D01*
X166126372Y-127549442D01*
X166372717Y-127180762D01*
X166686254Y-126867225D01*
X167054934Y-126620880D01*
X167464590Y-126451195D01*
X167845303Y-126375467D01*
X167899478Y-126364691D01*
X168342888Y-126364691D01*
X168397063Y-126375467D01*
G37*
G36*
X16544381Y-126375467D02*
G01*
X16925094Y-126451195D01*
X17334750Y-126620880D01*
X17703430Y-126867225D01*
X18016967Y-127180762D01*
X18263312Y-127549442D01*
X18432997Y-127959098D01*
X18519501Y-128393987D01*
X18519501Y-128837395D01*
X18432997Y-129272284D01*
X18263312Y-129681940D01*
X18016967Y-130050620D01*
X17703430Y-130364157D01*
X17334750Y-130610502D01*
X16925094Y-130780187D01*
X16544381Y-130855915D01*
X16490206Y-130866691D01*
X16046796Y-130866691D01*
X15992621Y-130855915D01*
X15611908Y-130780187D01*
X15202252Y-130610502D01*
X14833572Y-130364157D01*
X14520035Y-130050620D01*
X14273690Y-129681940D01*
X14104005Y-129272284D01*
X14017501Y-128837395D01*
X14017501Y-128393987D01*
X14104005Y-127959098D01*
X14273690Y-127549442D01*
X14520035Y-127180762D01*
X14833572Y-126867225D01*
X15202252Y-126620880D01*
X15611908Y-126451195D01*
X15992621Y-126375467D01*
X16046796Y-126364691D01*
X16490206Y-126364691D01*
X16544381Y-126375467D01*
G37*
G36*
X33140224Y-106777434D02*
G01*
X33358224Y-106867733D01*
X33512373Y-106931583D01*
X33847298Y-107155373D01*
X34132127Y-107440202D01*
X34355917Y-107775127D01*
X34388312Y-107853336D01*
X34510066Y-108147276D01*
X34588650Y-108542344D01*
X34588650Y-108945156D01*
X34510066Y-109340224D01*
X34459201Y-109463022D01*
X34355917Y-109712373D01*
X34132127Y-110047298D01*
X33847298Y-110332127D01*
X33512373Y-110555917D01*
X33358224Y-110619767D01*
X33140224Y-110710066D01*
X32745156Y-110788650D01*
X32342344Y-110788650D01*
X31947276Y-110710066D01*
X31729276Y-110619767D01*
X31575127Y-110555917D01*
X31240202Y-110332127D01*
X30955373Y-110047298D01*
X30731583Y-109712373D01*
X30628299Y-109463022D01*
X30577434Y-109340224D01*
X30498850Y-108945156D01*
X30498850Y-108542344D01*
X30577434Y-108147276D01*
X30699188Y-107853336D01*
X30731583Y-107775127D01*
X30955373Y-107440202D01*
X31240202Y-107155373D01*
X31575127Y-106931583D01*
X31729276Y-106867733D01*
X31947276Y-106777434D01*
X32342344Y-106698850D01*
X32745156Y-106698850D01*
X33140224Y-106777434D01*
G37*
G36*
X71240224Y-106777434D02*
G01*
X71458224Y-106867733D01*
X71612373Y-106931583D01*
X71947298Y-107155373D01*
X72232127Y-107440202D01*
X72455917Y-107775127D01*
X72488312Y-107853336D01*
X72610066Y-108147276D01*
X72688650Y-108542344D01*
X72688650Y-108945156D01*
X72610066Y-109340224D01*
X72559201Y-109463022D01*
X72455917Y-109712373D01*
X72232127Y-110047298D01*
X71947298Y-110332127D01*
X71612373Y-110555917D01*
X71458224Y-110619767D01*
X71240224Y-110710066D01*
X70845156Y-110788650D01*
X70442344Y-110788650D01*
X70047276Y-110710066D01*
X69829276Y-110619767D01*
X69675127Y-110555917D01*
X69340202Y-110332127D01*
X69055373Y-110047298D01*
X68831583Y-109712373D01*
X68728299Y-109463022D01*
X68677434Y-109340224D01*
X68598850Y-108945156D01*
X68598850Y-108542344D01*
X68677434Y-108147276D01*
X68799188Y-107853336D01*
X68831583Y-107775127D01*
X69055373Y-107440202D01*
X69340202Y-107155373D01*
X69675127Y-106931583D01*
X69829276Y-106867733D01*
X70047276Y-106777434D01*
X70442344Y-106698850D01*
X70845156Y-106698850D01*
X71240224Y-106777434D01*
G37*
G36*
X52190224Y-106777434D02*
G01*
X52408224Y-106867733D01*
X52562373Y-106931583D01*
X52897298Y-107155373D01*
X53182127Y-107440202D01*
X53405917Y-107775127D01*
X53438312Y-107853336D01*
X53560066Y-108147276D01*
X53638650Y-108542344D01*
X53638650Y-108945156D01*
X53560066Y-109340224D01*
X53509201Y-109463022D01*
X53405917Y-109712373D01*
X53182127Y-110047298D01*
X52897298Y-110332127D01*
X52562373Y-110555917D01*
X52408224Y-110619767D01*
X52190224Y-110710066D01*
X51795156Y-110788650D01*
X51392344Y-110788650D01*
X50997276Y-110710066D01*
X50779276Y-110619767D01*
X50625127Y-110555917D01*
X50290202Y-110332127D01*
X50005373Y-110047298D01*
X49781583Y-109712373D01*
X49678299Y-109463022D01*
X49627434Y-109340224D01*
X49548850Y-108945156D01*
X49548850Y-108542344D01*
X49627434Y-108147276D01*
X49749188Y-107853336D01*
X49781583Y-107775127D01*
X50005373Y-107440202D01*
X50290202Y-107155373D01*
X50625127Y-106931583D01*
X50779276Y-106867733D01*
X50997276Y-106777434D01*
X51392344Y-106698850D01*
X51795156Y-106698850D01*
X52190224Y-106777434D01*
G37*
G36*
X27733854Y-107853335D02*
G01*
X27902376Y-107923139D01*
X28054041Y-108024478D01*
X28183022Y-108153459D01*
X28284361Y-108305124D01*
X28354165Y-108473646D01*
X28389750Y-108652547D01*
X28389750Y-108834953D01*
X28354165Y-109013854D01*
X28284361Y-109182376D01*
X28183022Y-109334041D01*
X28054041Y-109463022D01*
X27902376Y-109564361D01*
X27733854Y-109634165D01*
X27554953Y-109669750D01*
X27372547Y-109669750D01*
X27193646Y-109634165D01*
X27025124Y-109564361D01*
X26873459Y-109463022D01*
X26744478Y-109334041D01*
X26643139Y-109182376D01*
X26573335Y-109013854D01*
X26537750Y-108834953D01*
X26537750Y-108652547D01*
X26573335Y-108473646D01*
X26643139Y-108305124D01*
X26744478Y-108153459D01*
X26873459Y-108024478D01*
X27025124Y-107923139D01*
X27193646Y-107853335D01*
X27372547Y-107817750D01*
X27554953Y-107817750D01*
X27733854Y-107853335D01*
G37*
G36*
X75993854Y-107853335D02*
G01*
X76162376Y-107923139D01*
X76314041Y-108024478D01*
X76443022Y-108153459D01*
X76544361Y-108305124D01*
X76614165Y-108473646D01*
X76649750Y-108652547D01*
X76649750Y-108834953D01*
X76614165Y-109013854D01*
X76544361Y-109182376D01*
X76443022Y-109334041D01*
X76314041Y-109463022D01*
X76162376Y-109564361D01*
X75993854Y-109634165D01*
X75814953Y-109669750D01*
X75632547Y-109669750D01*
X75453646Y-109634165D01*
X75285124Y-109564361D01*
X75133459Y-109463022D01*
X75004478Y-109334041D01*
X74903139Y-109182376D01*
X74833335Y-109013854D01*
X74797750Y-108834953D01*
X74797750Y-108652547D01*
X74833335Y-108473646D01*
X74903139Y-108305124D01*
X75004478Y-108153459D01*
X75133459Y-108024478D01*
X75285124Y-107923139D01*
X75453646Y-107853335D01*
X75632547Y-107817750D01*
X75814953Y-107817750D01*
X75993854Y-107853335D01*
G37*
G36*
X65833854Y-107853335D02*
G01*
X66002376Y-107923139D01*
X66154041Y-108024478D01*
X66283022Y-108153459D01*
X66384361Y-108305124D01*
X66454165Y-108473646D01*
X66489750Y-108652547D01*
X66489750Y-108834953D01*
X66454165Y-109013854D01*
X66384361Y-109182376D01*
X66283022Y-109334041D01*
X66154041Y-109463022D01*
X66002376Y-109564361D01*
X65833854Y-109634165D01*
X65654953Y-109669750D01*
X65472547Y-109669750D01*
X65293646Y-109634165D01*
X65125124Y-109564361D01*
X64973459Y-109463022D01*
X64844478Y-109334041D01*
X64743139Y-109182376D01*
X64673335Y-109013854D01*
X64637750Y-108834953D01*
X64637750Y-108652547D01*
X64673335Y-108473646D01*
X64743139Y-108305124D01*
X64844478Y-108153459D01*
X64973459Y-108024478D01*
X65125124Y-107923139D01*
X65293646Y-107853335D01*
X65472547Y-107817750D01*
X65654953Y-107817750D01*
X65833854Y-107853335D01*
G37*
G36*
X37893854Y-107853335D02*
G01*
X38062376Y-107923139D01*
X38214041Y-108024478D01*
X38343022Y-108153459D01*
X38444361Y-108305124D01*
X38514165Y-108473646D01*
X38549750Y-108652547D01*
X38549750Y-108834953D01*
X38514165Y-109013854D01*
X38444361Y-109182376D01*
X38343022Y-109334041D01*
X38214041Y-109463022D01*
X38062376Y-109564361D01*
X37893854Y-109634165D01*
X37714953Y-109669750D01*
X37532547Y-109669750D01*
X37353646Y-109634165D01*
X37185124Y-109564361D01*
X37033459Y-109463022D01*
X36904478Y-109334041D01*
X36803139Y-109182376D01*
X36733335Y-109013854D01*
X36697750Y-108834953D01*
X36697750Y-108652547D01*
X36733335Y-108473646D01*
X36803139Y-108305124D01*
X36904478Y-108153459D01*
X37033459Y-108024478D01*
X37185124Y-107923139D01*
X37353646Y-107853335D01*
X37532547Y-107817750D01*
X37714953Y-107817750D01*
X37893854Y-107853335D01*
G37*
G36*
X56943854Y-107853335D02*
G01*
X57112376Y-107923139D01*
X57264041Y-108024478D01*
X57393022Y-108153459D01*
X57494361Y-108305124D01*
X57564165Y-108473646D01*
X57599750Y-108652547D01*
X57599750Y-108834953D01*
X57564165Y-109013854D01*
X57494361Y-109182376D01*
X57393022Y-109334041D01*
X57264041Y-109463022D01*
X57112376Y-109564361D01*
X56943854Y-109634165D01*
X56764953Y-109669750D01*
X56582547Y-109669750D01*
X56403646Y-109634165D01*
X56235124Y-109564361D01*
X56083459Y-109463022D01*
X55954478Y-109334041D01*
X55853139Y-109182376D01*
X55783335Y-109013854D01*
X55747750Y-108834953D01*
X55747750Y-108652547D01*
X55783335Y-108473646D01*
X55853139Y-108305124D01*
X55954478Y-108153459D01*
X56083459Y-108024478D01*
X56235124Y-107923139D01*
X56403646Y-107853335D01*
X56582547Y-107817750D01*
X56764953Y-107817750D01*
X56943854Y-107853335D01*
G37*
G36*
X46783854Y-107853335D02*
G01*
X46952376Y-107923139D01*
X47104041Y-108024478D01*
X47233022Y-108153459D01*
X47334361Y-108305124D01*
X47404165Y-108473646D01*
X47439750Y-108652547D01*
X47439750Y-108834953D01*
X47404165Y-109013854D01*
X47334361Y-109182376D01*
X47233022Y-109334041D01*
X47104041Y-109463022D01*
X46952376Y-109564361D01*
X46783854Y-109634165D01*
X46604953Y-109669750D01*
X46422547Y-109669750D01*
X46243646Y-109634165D01*
X46075124Y-109564361D01*
X45923459Y-109463022D01*
X45794478Y-109334041D01*
X45693139Y-109182376D01*
X45623335Y-109013854D01*
X45587750Y-108834953D01*
X45587750Y-108652547D01*
X45623335Y-108473646D01*
X45693139Y-108305124D01*
X45794478Y-108153459D01*
X45923459Y-108024478D01*
X46075124Y-107923139D01*
X46243646Y-107853335D01*
X46422547Y-107817750D01*
X46604953Y-107817750D01*
X46783854Y-107853335D01*
G37*
G36*
X90290224Y-87727434D02*
G01*
X90508224Y-87817733D01*
X90662373Y-87881583D01*
X90997298Y-88105373D01*
X91282127Y-88390202D01*
X91505917Y-88725127D01*
X91538312Y-88803336D01*
X91660066Y-89097276D01*
X91738650Y-89492344D01*
X91738650Y-89895156D01*
X91660066Y-90290224D01*
X91609201Y-90413022D01*
X91505917Y-90662373D01*
X91282127Y-90997298D01*
X90997298Y-91282127D01*
X90662373Y-91505917D01*
X90508224Y-91569767D01*
X90290224Y-91660066D01*
X89895156Y-91738650D01*
X89492344Y-91738650D01*
X89097276Y-91660066D01*
X88879276Y-91569767D01*
X88725127Y-91505917D01*
X88390202Y-91282127D01*
X88105373Y-90997298D01*
X87881583Y-90662373D01*
X87778299Y-90413022D01*
X87727434Y-90290224D01*
X87648850Y-89895156D01*
X87648850Y-89492344D01*
X87727434Y-89097276D01*
X87849188Y-88803336D01*
X87881583Y-88725127D01*
X88105373Y-88390202D01*
X88390202Y-88105373D01*
X88725127Y-87881583D01*
X88879276Y-87817733D01*
X89097276Y-87727434D01*
X89492344Y-87648850D01*
X89895156Y-87648850D01*
X90290224Y-87727434D01*
G37*
G36*
X33140224Y-87727434D02*
G01*
X33358224Y-87817733D01*
X33512373Y-87881583D01*
X33847298Y-88105373D01*
X34132127Y-88390202D01*
X34355917Y-88725127D01*
X34388312Y-88803336D01*
X34510066Y-89097276D01*
X34588650Y-89492344D01*
X34588650Y-89895156D01*
X34510066Y-90290224D01*
X34459201Y-90413022D01*
X34355917Y-90662373D01*
X34132127Y-90997298D01*
X33847298Y-91282127D01*
X33512373Y-91505917D01*
X33358224Y-91569767D01*
X33140224Y-91660066D01*
X32745156Y-91738650D01*
X32342344Y-91738650D01*
X31947276Y-91660066D01*
X31729276Y-91569767D01*
X31575127Y-91505917D01*
X31240202Y-91282127D01*
X30955373Y-90997298D01*
X30731583Y-90662373D01*
X30628299Y-90413022D01*
X30577434Y-90290224D01*
X30498850Y-89895156D01*
X30498850Y-89492344D01*
X30577434Y-89097276D01*
X30699188Y-88803336D01*
X30731583Y-88725127D01*
X30955373Y-88390202D01*
X31240202Y-88105373D01*
X31575127Y-87881583D01*
X31729276Y-87817733D01*
X31947276Y-87727434D01*
X32342344Y-87648850D01*
X32745156Y-87648850D01*
X33140224Y-87727434D01*
G37*
G36*
X52190224Y-87727434D02*
G01*
X52408224Y-87817733D01*
X52562373Y-87881583D01*
X52897298Y-88105373D01*
X53182127Y-88390202D01*
X53405917Y-88725127D01*
X53438312Y-88803336D01*
X53560066Y-89097276D01*
X53638650Y-89492344D01*
X53638650Y-89895156D01*
X53560066Y-90290224D01*
X53509201Y-90413022D01*
X53405917Y-90662373D01*
X53182127Y-90997298D01*
X52897298Y-91282127D01*
X52562373Y-91505917D01*
X52408224Y-91569767D01*
X52190224Y-91660066D01*
X51795156Y-91738650D01*
X51392344Y-91738650D01*
X50997276Y-91660066D01*
X50779276Y-91569767D01*
X50625127Y-91505917D01*
X50290202Y-91282127D01*
X50005373Y-90997298D01*
X49781583Y-90662373D01*
X49678299Y-90413022D01*
X49627434Y-90290224D01*
X49548850Y-89895156D01*
X49548850Y-89492344D01*
X49627434Y-89097276D01*
X49749188Y-88803336D01*
X49781583Y-88725127D01*
X50005373Y-88390202D01*
X50290202Y-88105373D01*
X50625127Y-87881583D01*
X50779276Y-87817733D01*
X50997276Y-87727434D01*
X51392344Y-87648850D01*
X51795156Y-87648850D01*
X52190224Y-87727434D01*
G37*
G36*
X71240224Y-87727434D02*
G01*
X71458224Y-87817733D01*
X71612373Y-87881583D01*
X71947298Y-88105373D01*
X72232127Y-88390202D01*
X72455917Y-88725127D01*
X72488312Y-88803336D01*
X72610066Y-89097276D01*
X72688650Y-89492344D01*
X72688650Y-89895156D01*
X72610066Y-90290224D01*
X72559201Y-90413022D01*
X72455917Y-90662373D01*
X72232127Y-90997298D01*
X71947298Y-91282127D01*
X71612373Y-91505917D01*
X71458224Y-91569767D01*
X71240224Y-91660066D01*
X70845156Y-91738650D01*
X70442344Y-91738650D01*
X70047276Y-91660066D01*
X69829276Y-91569767D01*
X69675127Y-91505917D01*
X69340202Y-91282127D01*
X69055373Y-90997298D01*
X68831583Y-90662373D01*
X68728299Y-90413022D01*
X68677434Y-90290224D01*
X68598850Y-89895156D01*
X68598850Y-89492344D01*
X68677434Y-89097276D01*
X68799188Y-88803336D01*
X68831583Y-88725127D01*
X69055373Y-88390202D01*
X69340202Y-88105373D01*
X69675127Y-87881583D01*
X69829276Y-87817733D01*
X70047276Y-87727434D01*
X70442344Y-87648850D01*
X70845156Y-87648850D01*
X71240224Y-87727434D01*
G37*
G36*
X56943854Y-88803335D02*
G01*
X57112376Y-88873139D01*
X57264041Y-88974478D01*
X57393022Y-89103459D01*
X57494361Y-89255124D01*
X57564165Y-89423646D01*
X57599750Y-89602547D01*
X57599750Y-89784953D01*
X57564165Y-89963854D01*
X57494361Y-90132376D01*
X57393022Y-90284041D01*
X57264041Y-90413022D01*
X57112376Y-90514361D01*
X56943854Y-90584165D01*
X56764953Y-90619750D01*
X56582547Y-90619750D01*
X56403646Y-90584165D01*
X56235124Y-90514361D01*
X56083459Y-90413022D01*
X55954478Y-90284041D01*
X55853139Y-90132376D01*
X55783335Y-89963854D01*
X55747750Y-89784953D01*
X55747750Y-89602547D01*
X55783335Y-89423646D01*
X55853139Y-89255124D01*
X55954478Y-89103459D01*
X56083459Y-88974478D01*
X56235124Y-88873139D01*
X56403646Y-88803335D01*
X56582547Y-88767750D01*
X56764953Y-88767750D01*
X56943854Y-88803335D01*
G37*
G36*
X65833854Y-88803335D02*
G01*
X66002376Y-88873139D01*
X66154041Y-88974478D01*
X66283022Y-89103459D01*
X66384361Y-89255124D01*
X66454165Y-89423646D01*
X66489750Y-89602547D01*
X66489750Y-89784953D01*
X66454165Y-89963854D01*
X66384361Y-90132376D01*
X66283022Y-90284041D01*
X66154041Y-90413022D01*
X66002376Y-90514361D01*
X65833854Y-90584165D01*
X65654953Y-90619750D01*
X65472547Y-90619750D01*
X65293646Y-90584165D01*
X65125124Y-90514361D01*
X64973459Y-90413022D01*
X64844478Y-90284041D01*
X64743139Y-90132376D01*
X64673335Y-89963854D01*
X64637750Y-89784953D01*
X64637750Y-89602547D01*
X64673335Y-89423646D01*
X64743139Y-89255124D01*
X64844478Y-89103459D01*
X64973459Y-88974478D01*
X65125124Y-88873139D01*
X65293646Y-88803335D01*
X65472547Y-88767750D01*
X65654953Y-88767750D01*
X65833854Y-88803335D01*
G37*
G36*
X75993854Y-88803335D02*
G01*
X76162376Y-88873139D01*
X76314041Y-88974478D01*
X76443022Y-89103459D01*
X76544361Y-89255124D01*
X76614165Y-89423646D01*
X76649750Y-89602547D01*
X76649750Y-89784953D01*
X76614165Y-89963854D01*
X76544361Y-90132376D01*
X76443022Y-90284041D01*
X76314041Y-90413022D01*
X76162376Y-90514361D01*
X75993854Y-90584165D01*
X75814953Y-90619750D01*
X75632547Y-90619750D01*
X75453646Y-90584165D01*
X75285124Y-90514361D01*
X75133459Y-90413022D01*
X75004478Y-90284041D01*
X74903139Y-90132376D01*
X74833335Y-89963854D01*
X74797750Y-89784953D01*
X74797750Y-89602547D01*
X74833335Y-89423646D01*
X74903139Y-89255124D01*
X75004478Y-89103459D01*
X75133459Y-88974478D01*
X75285124Y-88873139D01*
X75453646Y-88803335D01*
X75632547Y-88767750D01*
X75814953Y-88767750D01*
X75993854Y-88803335D01*
G37*
G36*
X84883854Y-88803335D02*
G01*
X85052376Y-88873139D01*
X85204041Y-88974478D01*
X85333022Y-89103459D01*
X85434361Y-89255124D01*
X85504165Y-89423646D01*
X85539750Y-89602547D01*
X85539750Y-89784953D01*
X85504165Y-89963854D01*
X85434361Y-90132376D01*
X85333022Y-90284041D01*
X85204041Y-90413022D01*
X85052376Y-90514361D01*
X84883854Y-90584165D01*
X84704953Y-90619750D01*
X84522547Y-90619750D01*
X84343646Y-90584165D01*
X84175124Y-90514361D01*
X84023459Y-90413022D01*
X83894478Y-90284041D01*
X83793139Y-90132376D01*
X83723335Y-89963854D01*
X83687750Y-89784953D01*
X83687750Y-89602547D01*
X83723335Y-89423646D01*
X83793139Y-89255124D01*
X83894478Y-89103459D01*
X84023459Y-88974478D01*
X84175124Y-88873139D01*
X84343646Y-88803335D01*
X84522547Y-88767750D01*
X84704953Y-88767750D01*
X84883854Y-88803335D01*
G37*
G36*
X95043854Y-88803335D02*
G01*
X95212376Y-88873139D01*
X95364041Y-88974478D01*
X95493022Y-89103459D01*
X95594361Y-89255124D01*
X95664165Y-89423646D01*
X95699750Y-89602547D01*
X95699750Y-89784953D01*
X95664165Y-89963854D01*
X95594361Y-90132376D01*
X95493022Y-90284041D01*
X95364041Y-90413022D01*
X95212376Y-90514361D01*
X95043854Y-90584165D01*
X94864953Y-90619750D01*
X94682547Y-90619750D01*
X94503646Y-90584165D01*
X94335124Y-90514361D01*
X94183459Y-90413022D01*
X94054478Y-90284041D01*
X93953139Y-90132376D01*
X93883335Y-89963854D01*
X93847750Y-89784953D01*
X93847750Y-89602547D01*
X93883335Y-89423646D01*
X93953139Y-89255124D01*
X94054478Y-89103459D01*
X94183459Y-88974478D01*
X94335124Y-88873139D01*
X94503646Y-88803335D01*
X94682547Y-88767750D01*
X94864953Y-88767750D01*
X95043854Y-88803335D01*
G37*
G36*
X46783854Y-88803335D02*
G01*
X46952376Y-88873139D01*
X47104041Y-88974478D01*
X47233022Y-89103459D01*
X47334361Y-89255124D01*
X47404165Y-89423646D01*
X47439750Y-89602547D01*
X47439750Y-89784953D01*
X47404165Y-89963854D01*
X47334361Y-90132376D01*
X47233022Y-90284041D01*
X47104041Y-90413022D01*
X46952376Y-90514361D01*
X46783854Y-90584165D01*
X46604953Y-90619750D01*
X46422547Y-90619750D01*
X46243646Y-90584165D01*
X46075124Y-90514361D01*
X45923459Y-90413022D01*
X45794478Y-90284041D01*
X45693139Y-90132376D01*
X45623335Y-89963854D01*
X45587750Y-89784953D01*
X45587750Y-89602547D01*
X45623335Y-89423646D01*
X45693139Y-89255124D01*
X45794478Y-89103459D01*
X45923459Y-88974478D01*
X46075124Y-88873139D01*
X46243646Y-88803335D01*
X46422547Y-88767750D01*
X46604953Y-88767750D01*
X46783854Y-88803335D01*
G37*
G36*
X37893854Y-88803335D02*
G01*
X38062376Y-88873139D01*
X38214041Y-88974478D01*
X38343022Y-89103459D01*
X38444361Y-89255124D01*
X38514165Y-89423646D01*
X38549750Y-89602547D01*
X38549750Y-89784953D01*
X38514165Y-89963854D01*
X38444361Y-90132376D01*
X38343022Y-90284041D01*
X38214041Y-90413022D01*
X38062376Y-90514361D01*
X37893854Y-90584165D01*
X37714953Y-90619750D01*
X37532547Y-90619750D01*
X37353646Y-90584165D01*
X37185124Y-90514361D01*
X37033459Y-90413022D01*
X36904478Y-90284041D01*
X36803139Y-90132376D01*
X36733335Y-89963854D01*
X36697750Y-89784953D01*
X36697750Y-89602547D01*
X36733335Y-89423646D01*
X36803139Y-89255124D01*
X36904478Y-89103459D01*
X37033459Y-88974478D01*
X37185124Y-88873139D01*
X37353646Y-88803335D01*
X37532547Y-88767750D01*
X37714953Y-88767750D01*
X37893854Y-88803335D01*
G37*
G36*
X27733854Y-88803335D02*
G01*
X27902376Y-88873139D01*
X28054041Y-88974478D01*
X28183022Y-89103459D01*
X28284361Y-89255124D01*
X28354165Y-89423646D01*
X28389750Y-89602547D01*
X28389750Y-89784953D01*
X28354165Y-89963854D01*
X28284361Y-90132376D01*
X28183022Y-90284041D01*
X28054041Y-90413022D01*
X27902376Y-90514361D01*
X27733854Y-90584165D01*
X27554953Y-90619750D01*
X27372547Y-90619750D01*
X27193646Y-90584165D01*
X27025124Y-90514361D01*
X26873459Y-90413022D01*
X26744478Y-90284041D01*
X26643139Y-90132376D01*
X26573335Y-89963854D01*
X26537750Y-89784953D01*
X26537750Y-89602547D01*
X26573335Y-89423646D01*
X26643139Y-89255124D01*
X26744478Y-89103459D01*
X26873459Y-88974478D01*
X27025124Y-88873139D01*
X27193646Y-88803335D01*
X27372547Y-88767750D01*
X27554953Y-88767750D01*
X27733854Y-88803335D01*
G37*
G36*
X33140224Y-68677434D02*
G01*
X33358224Y-68767733D01*
X33512373Y-68831583D01*
X33847298Y-69055373D01*
X34132127Y-69340202D01*
X34355917Y-69675127D01*
X34388312Y-69753336D01*
X34510066Y-70047276D01*
X34588650Y-70442344D01*
X34588650Y-70845156D01*
X34510066Y-71240224D01*
X34459201Y-71363022D01*
X34355917Y-71612373D01*
X34132127Y-71947298D01*
X33847298Y-72232127D01*
X33512373Y-72455917D01*
X33358224Y-72519767D01*
X33140224Y-72610066D01*
X32745156Y-72688650D01*
X32342344Y-72688650D01*
X31947276Y-72610066D01*
X31729276Y-72519767D01*
X31575127Y-72455917D01*
X31240202Y-72232127D01*
X30955373Y-71947298D01*
X30731583Y-71612373D01*
X30628299Y-71363022D01*
X30577434Y-71240224D01*
X30498850Y-70845156D01*
X30498850Y-70442344D01*
X30577434Y-70047276D01*
X30699188Y-69753336D01*
X30731583Y-69675127D01*
X30955373Y-69340202D01*
X31240202Y-69055373D01*
X31575127Y-68831583D01*
X31729276Y-68767733D01*
X31947276Y-68677434D01*
X32342344Y-68598850D01*
X32745156Y-68598850D01*
X33140224Y-68677434D01*
G37*
G36*
X52190224Y-68677434D02*
G01*
X52408224Y-68767733D01*
X52562373Y-68831583D01*
X52897298Y-69055373D01*
X53182127Y-69340202D01*
X53405917Y-69675127D01*
X53438312Y-69753336D01*
X53560066Y-70047276D01*
X53638650Y-70442344D01*
X53638650Y-70845156D01*
X53560066Y-71240224D01*
X53509201Y-71363022D01*
X53405917Y-71612373D01*
X53182127Y-71947298D01*
X52897298Y-72232127D01*
X52562373Y-72455917D01*
X52408224Y-72519767D01*
X52190224Y-72610066D01*
X51795156Y-72688650D01*
X51392344Y-72688650D01*
X50997276Y-72610066D01*
X50779276Y-72519767D01*
X50625127Y-72455917D01*
X50290202Y-72232127D01*
X50005373Y-71947298D01*
X49781583Y-71612373D01*
X49678299Y-71363022D01*
X49627434Y-71240224D01*
X49548850Y-70845156D01*
X49548850Y-70442344D01*
X49627434Y-70047276D01*
X49749188Y-69753336D01*
X49781583Y-69675127D01*
X50005373Y-69340202D01*
X50290202Y-69055373D01*
X50625127Y-68831583D01*
X50779276Y-68767733D01*
X50997276Y-68677434D01*
X51392344Y-68598850D01*
X51795156Y-68598850D01*
X52190224Y-68677434D01*
G37*
G36*
X71240224Y-68677434D02*
G01*
X71458224Y-68767733D01*
X71612373Y-68831583D01*
X71947298Y-69055373D01*
X72232127Y-69340202D01*
X72455917Y-69675127D01*
X72488312Y-69753336D01*
X72610066Y-70047276D01*
X72688650Y-70442344D01*
X72688650Y-70845156D01*
X72610066Y-71240224D01*
X72559201Y-71363022D01*
X72455917Y-71612373D01*
X72232127Y-71947298D01*
X71947298Y-72232127D01*
X71612373Y-72455917D01*
X71458224Y-72519767D01*
X71240224Y-72610066D01*
X70845156Y-72688650D01*
X70442344Y-72688650D01*
X70047276Y-72610066D01*
X69829276Y-72519767D01*
X69675127Y-72455917D01*
X69340202Y-72232127D01*
X69055373Y-71947298D01*
X68831583Y-71612373D01*
X68728299Y-71363022D01*
X68677434Y-71240224D01*
X68598850Y-70845156D01*
X68598850Y-70442344D01*
X68677434Y-70047276D01*
X68799188Y-69753336D01*
X68831583Y-69675127D01*
X69055373Y-69340202D01*
X69340202Y-69055373D01*
X69675127Y-68831583D01*
X69829276Y-68767733D01*
X70047276Y-68677434D01*
X70442344Y-68598850D01*
X70845156Y-68598850D01*
X71240224Y-68677434D01*
G37*
G36*
X90290224Y-68677434D02*
G01*
X90508224Y-68767733D01*
X90662373Y-68831583D01*
X90997298Y-69055373D01*
X91282127Y-69340202D01*
X91505917Y-69675127D01*
X91538312Y-69753336D01*
X91660066Y-70047276D01*
X91738650Y-70442344D01*
X91738650Y-70845156D01*
X91660066Y-71240224D01*
X91609201Y-71363022D01*
X91505917Y-71612373D01*
X91282127Y-71947298D01*
X90997298Y-72232127D01*
X90662373Y-72455917D01*
X90508224Y-72519767D01*
X90290224Y-72610066D01*
X89895156Y-72688650D01*
X89492344Y-72688650D01*
X89097276Y-72610066D01*
X88879276Y-72519767D01*
X88725127Y-72455917D01*
X88390202Y-72232127D01*
X88105373Y-71947298D01*
X87881583Y-71612373D01*
X87778299Y-71363022D01*
X87727434Y-71240224D01*
X87648850Y-70845156D01*
X87648850Y-70442344D01*
X87727434Y-70047276D01*
X87849188Y-69753336D01*
X87881583Y-69675127D01*
X88105373Y-69340202D01*
X88390202Y-69055373D01*
X88725127Y-68831583D01*
X88879276Y-68767733D01*
X89097276Y-68677434D01*
X89492344Y-68598850D01*
X89895156Y-68598850D01*
X90290224Y-68677434D01*
G37*
G36*
X109340224Y-68677434D02*
G01*
X109558224Y-68767733D01*
X109712373Y-68831583D01*
X110047298Y-69055373D01*
X110332127Y-69340202D01*
X110555917Y-69675127D01*
X110588312Y-69753336D01*
X110710066Y-70047276D01*
X110788650Y-70442344D01*
X110788650Y-70845156D01*
X110710066Y-71240224D01*
X110659201Y-71363022D01*
X110555917Y-71612373D01*
X110332127Y-71947298D01*
X110047298Y-72232127D01*
X109712373Y-72455917D01*
X109558224Y-72519767D01*
X109340224Y-72610066D01*
X108945156Y-72688650D01*
X108542344Y-72688650D01*
X108147276Y-72610066D01*
X107929276Y-72519767D01*
X107775127Y-72455917D01*
X107440202Y-72232127D01*
X107155373Y-71947298D01*
X106931583Y-71612373D01*
X106828299Y-71363022D01*
X106777434Y-71240224D01*
X106698850Y-70845156D01*
X106698850Y-70442344D01*
X106777434Y-70047276D01*
X106899188Y-69753336D01*
X106931583Y-69675127D01*
X107155373Y-69340202D01*
X107440202Y-69055373D01*
X107775127Y-68831583D01*
X107929276Y-68767733D01*
X108147276Y-68677434D01*
X108542344Y-68598850D01*
X108945156Y-68598850D01*
X109340224Y-68677434D01*
G37*
G36*
X103933854Y-69753335D02*
G01*
X104102376Y-69823139D01*
X104254041Y-69924478D01*
X104383022Y-70053459D01*
X104484361Y-70205124D01*
X104554165Y-70373646D01*
X104589750Y-70552547D01*
X104589750Y-70734953D01*
X104554165Y-70913854D01*
X104484361Y-71082376D01*
X104383022Y-71234041D01*
X104254041Y-71363022D01*
X104102376Y-71464361D01*
X103933854Y-71534165D01*
X103754953Y-71569750D01*
X103572547Y-71569750D01*
X103393646Y-71534165D01*
X103225124Y-71464361D01*
X103073459Y-71363022D01*
X102944478Y-71234041D01*
X102843139Y-71082376D01*
X102773335Y-70913854D01*
X102737750Y-70734953D01*
X102737750Y-70552547D01*
X102773335Y-70373646D01*
X102843139Y-70205124D01*
X102944478Y-70053459D01*
X103073459Y-69924478D01*
X103225124Y-69823139D01*
X103393646Y-69753335D01*
X103572547Y-69717750D01*
X103754953Y-69717750D01*
X103933854Y-69753335D01*
G37*
G36*
X114093854Y-69753335D02*
G01*
X114262376Y-69823139D01*
X114414041Y-69924478D01*
X114543022Y-70053459D01*
X114644361Y-70205124D01*
X114714165Y-70373646D01*
X114749750Y-70552547D01*
X114749750Y-70734953D01*
X114714165Y-70913854D01*
X114644361Y-71082376D01*
X114543022Y-71234041D01*
X114414041Y-71363022D01*
X114262376Y-71464361D01*
X114093854Y-71534165D01*
X113914953Y-71569750D01*
X113732547Y-71569750D01*
X113553646Y-71534165D01*
X113385124Y-71464361D01*
X113233459Y-71363022D01*
X113104478Y-71234041D01*
X113003139Y-71082376D01*
X112933335Y-70913854D01*
X112897750Y-70734953D01*
X112897750Y-70552547D01*
X112933335Y-70373646D01*
X113003139Y-70205124D01*
X113104478Y-70053459D01*
X113233459Y-69924478D01*
X113385124Y-69823139D01*
X113553646Y-69753335D01*
X113732547Y-69717750D01*
X113914953Y-69717750D01*
X114093854Y-69753335D01*
G37*
G36*
X84883854Y-69753335D02*
G01*
X85052376Y-69823139D01*
X85204041Y-69924478D01*
X85333022Y-70053459D01*
X85434361Y-70205124D01*
X85504165Y-70373646D01*
X85539750Y-70552547D01*
X85539750Y-70734953D01*
X85504165Y-70913854D01*
X85434361Y-71082376D01*
X85333022Y-71234041D01*
X85204041Y-71363022D01*
X85052376Y-71464361D01*
X84883854Y-71534165D01*
X84704953Y-71569750D01*
X84522547Y-71569750D01*
X84343646Y-71534165D01*
X84175124Y-71464361D01*
X84023459Y-71363022D01*
X83894478Y-71234041D01*
X83793139Y-71082376D01*
X83723335Y-70913854D01*
X83687750Y-70734953D01*
X83687750Y-70552547D01*
X83723335Y-70373646D01*
X83793139Y-70205124D01*
X83894478Y-70053459D01*
X84023459Y-69924478D01*
X84175124Y-69823139D01*
X84343646Y-69753335D01*
X84522547Y-69717750D01*
X84704953Y-69717750D01*
X84883854Y-69753335D01*
G37*
G36*
X95043854Y-69753335D02*
G01*
X95212376Y-69823139D01*
X95364041Y-69924478D01*
X95493022Y-70053459D01*
X95594361Y-70205124D01*
X95664165Y-70373646D01*
X95699750Y-70552547D01*
X95699750Y-70734953D01*
X95664165Y-70913854D01*
X95594361Y-71082376D01*
X95493022Y-71234041D01*
X95364041Y-71363022D01*
X95212376Y-71464361D01*
X95043854Y-71534165D01*
X94864953Y-71569750D01*
X94682547Y-71569750D01*
X94503646Y-71534165D01*
X94335124Y-71464361D01*
X94183459Y-71363022D01*
X94054478Y-71234041D01*
X93953139Y-71082376D01*
X93883335Y-70913854D01*
X93847750Y-70734953D01*
X93847750Y-70552547D01*
X93883335Y-70373646D01*
X93953139Y-70205124D01*
X94054478Y-70053459D01*
X94183459Y-69924478D01*
X94335124Y-69823139D01*
X94503646Y-69753335D01*
X94682547Y-69717750D01*
X94864953Y-69717750D01*
X95043854Y-69753335D01*
G37*
G36*
X65833854Y-69753335D02*
G01*
X66002376Y-69823139D01*
X66154041Y-69924478D01*
X66283022Y-70053459D01*
X66384361Y-70205124D01*
X66454165Y-70373646D01*
X66489750Y-70552547D01*
X66489750Y-70734953D01*
X66454165Y-70913854D01*
X66384361Y-71082376D01*
X66283022Y-71234041D01*
X66154041Y-71363022D01*
X66002376Y-71464361D01*
X65833854Y-71534165D01*
X65654953Y-71569750D01*
X65472547Y-71569750D01*
X65293646Y-71534165D01*
X65125124Y-71464361D01*
X64973459Y-71363022D01*
X64844478Y-71234041D01*
X64743139Y-71082376D01*
X64673335Y-70913854D01*
X64637750Y-70734953D01*
X64637750Y-70552547D01*
X64673335Y-70373646D01*
X64743139Y-70205124D01*
X64844478Y-70053459D01*
X64973459Y-69924478D01*
X65125124Y-69823139D01*
X65293646Y-69753335D01*
X65472547Y-69717750D01*
X65654953Y-69717750D01*
X65833854Y-69753335D01*
G37*
G36*
X75993854Y-69753335D02*
G01*
X76162376Y-69823139D01*
X76314041Y-69924478D01*
X76443022Y-70053459D01*
X76544361Y-70205124D01*
X76614165Y-70373646D01*
X76649750Y-70552547D01*
X76649750Y-70734953D01*
X76614165Y-70913854D01*
X76544361Y-71082376D01*
X76443022Y-71234041D01*
X76314041Y-71363022D01*
X76162376Y-71464361D01*
X75993854Y-71534165D01*
X75814953Y-71569750D01*
X75632547Y-71569750D01*
X75453646Y-71534165D01*
X75285124Y-71464361D01*
X75133459Y-71363022D01*
X75004478Y-71234041D01*
X74903139Y-71082376D01*
X74833335Y-70913854D01*
X74797750Y-70734953D01*
X74797750Y-70552547D01*
X74833335Y-70373646D01*
X74903139Y-70205124D01*
X75004478Y-70053459D01*
X75133459Y-69924478D01*
X75285124Y-69823139D01*
X75453646Y-69753335D01*
X75632547Y-69717750D01*
X75814953Y-69717750D01*
X75993854Y-69753335D01*
G37*
G36*
X46783854Y-69753335D02*
G01*
X46952376Y-69823139D01*
X47104041Y-69924478D01*
X47233022Y-70053459D01*
X47334361Y-70205124D01*
X47404165Y-70373646D01*
X47439750Y-70552547D01*
X47439750Y-70734953D01*
X47404165Y-70913854D01*
X47334361Y-71082376D01*
X47233022Y-71234041D01*
X47104041Y-71363022D01*
X46952376Y-71464361D01*
X46783854Y-71534165D01*
X46604953Y-71569750D01*
X46422547Y-71569750D01*
X46243646Y-71534165D01*
X46075124Y-71464361D01*
X45923459Y-71363022D01*
X45794478Y-71234041D01*
X45693139Y-71082376D01*
X45623335Y-70913854D01*
X45587750Y-70734953D01*
X45587750Y-70552547D01*
X45623335Y-70373646D01*
X45693139Y-70205124D01*
X45794478Y-70053459D01*
X45923459Y-69924478D01*
X46075124Y-69823139D01*
X46243646Y-69753335D01*
X46422547Y-69717750D01*
X46604953Y-69717750D01*
X46783854Y-69753335D01*
G37*
G36*
X56943854Y-69753335D02*
G01*
X57112376Y-69823139D01*
X57264041Y-69924478D01*
X57393022Y-70053459D01*
X57494361Y-70205124D01*
X57564165Y-70373646D01*
X57599750Y-70552547D01*
X57599750Y-70734953D01*
X57564165Y-70913854D01*
X57494361Y-71082376D01*
X57393022Y-71234041D01*
X57264041Y-71363022D01*
X57112376Y-71464361D01*
X56943854Y-71534165D01*
X56764953Y-71569750D01*
X56582547Y-71569750D01*
X56403646Y-71534165D01*
X56235124Y-71464361D01*
X56083459Y-71363022D01*
X55954478Y-71234041D01*
X55853139Y-71082376D01*
X55783335Y-70913854D01*
X55747750Y-70734953D01*
X55747750Y-70552547D01*
X55783335Y-70373646D01*
X55853139Y-70205124D01*
X55954478Y-70053459D01*
X56083459Y-69924478D01*
X56235124Y-69823139D01*
X56403646Y-69753335D01*
X56582547Y-69717750D01*
X56764953Y-69717750D01*
X56943854Y-69753335D01*
G37*
G36*
X27733854Y-69753335D02*
G01*
X27902376Y-69823139D01*
X28054041Y-69924478D01*
X28183022Y-70053459D01*
X28284361Y-70205124D01*
X28354165Y-70373646D01*
X28389750Y-70552547D01*
X28389750Y-70734953D01*
X28354165Y-70913854D01*
X28284361Y-71082376D01*
X28183022Y-71234041D01*
X28054041Y-71363022D01*
X27902376Y-71464361D01*
X27733854Y-71534165D01*
X27554953Y-71569750D01*
X27372547Y-71569750D01*
X27193646Y-71534165D01*
X27025124Y-71464361D01*
X26873459Y-71363022D01*
X26744478Y-71234041D01*
X26643139Y-71082376D01*
X26573335Y-70913854D01*
X26537750Y-70734953D01*
X26537750Y-70552547D01*
X26573335Y-70373646D01*
X26643139Y-70205124D01*
X26744478Y-70053459D01*
X26873459Y-69924478D01*
X27025124Y-69823139D01*
X27193646Y-69753335D01*
X27372547Y-69717750D01*
X27554953Y-69717750D01*
X27733854Y-69753335D01*
G37*
G36*
X37893854Y-69753335D02*
G01*
X38062376Y-69823139D01*
X38214041Y-69924478D01*
X38343022Y-70053459D01*
X38444361Y-70205124D01*
X38514165Y-70373646D01*
X38549750Y-70552547D01*
X38549750Y-70734953D01*
X38514165Y-70913854D01*
X38444361Y-71082376D01*
X38343022Y-71234041D01*
X38214041Y-71363022D01*
X38062376Y-71464361D01*
X37893854Y-71534165D01*
X37714953Y-71569750D01*
X37532547Y-71569750D01*
X37353646Y-71534165D01*
X37185124Y-71464361D01*
X37033459Y-71363022D01*
X36904478Y-71234041D01*
X36803139Y-71082376D01*
X36733335Y-70913854D01*
X36697750Y-70734953D01*
X36697750Y-70552547D01*
X36733335Y-70373646D01*
X36803139Y-70205124D01*
X36904478Y-70053459D01*
X37033459Y-69924478D01*
X37185124Y-69823139D01*
X37353646Y-69753335D01*
X37532547Y-69717750D01*
X37714953Y-69717750D01*
X37893854Y-69753335D01*
G37*
G36*
X157663500Y-67651000D02*
G01*
X154361500Y-67651000D01*
X154361500Y-65549000D01*
X157663500Y-65549000D01*
X157663500Y-67651000D01*
G37*
G36*
X164563500Y-64551000D02*
G01*
X162461500Y-64551000D01*
X162461500Y-62449000D01*
X164563500Y-62449000D01*
X164563500Y-64551000D01*
G37*
G36*
X149319064Y-62489389D02*
G01*
X149510333Y-62568615D01*
X149510335Y-62568616D01*
X149682473Y-62683635D01*
X149828865Y-62830027D01*
X149943885Y-63002167D01*
X150023111Y-63193436D01*
X150063500Y-63396484D01*
X150063500Y-63603516D01*
X150023111Y-63806564D01*
X149943885Y-63997833D01*
X149943884Y-63997835D01*
X149828865Y-64169973D01*
X149682473Y-64316365D01*
X149510335Y-64431384D01*
X149510334Y-64431385D01*
X149510333Y-64431385D01*
X149319064Y-64510611D01*
X149116016Y-64551000D01*
X148908984Y-64551000D01*
X148705936Y-64510611D01*
X148514667Y-64431385D01*
X148514666Y-64431385D01*
X148514665Y-64431384D01*
X148342527Y-64316365D01*
X148196135Y-64169973D01*
X148081116Y-63997835D01*
X148081115Y-63997833D01*
X148001889Y-63806564D01*
X147961500Y-63603516D01*
X147961500Y-63396484D01*
X148001889Y-63193436D01*
X148081115Y-63002167D01*
X148196135Y-62830027D01*
X148342527Y-62683635D01*
X148514665Y-62568616D01*
X148514667Y-62568615D01*
X148705936Y-62489389D01*
X148908984Y-62449000D01*
X149116016Y-62449000D01*
X149319064Y-62489389D01*
G37*
G36*
X163819064Y-59989389D02*
G01*
X164010333Y-60068615D01*
X164010335Y-60068616D01*
X164182473Y-60183635D01*
X164328865Y-60330027D01*
X164443885Y-60502167D01*
X164523111Y-60693436D01*
X164563500Y-60896484D01*
X164563500Y-61103516D01*
X164523111Y-61306564D01*
X164443885Y-61497833D01*
X164443884Y-61497835D01*
X164328865Y-61669973D01*
X164182473Y-61816365D01*
X164010335Y-61931384D01*
X164010334Y-61931385D01*
X164010333Y-61931385D01*
X163819064Y-62010611D01*
X163616016Y-62051000D01*
X163408984Y-62051000D01*
X163205936Y-62010611D01*
X163014667Y-61931385D01*
X163014666Y-61931385D01*
X163014665Y-61931384D01*
X162842527Y-61816365D01*
X162696135Y-61669973D01*
X162581116Y-61497835D01*
X162581115Y-61497833D01*
X162501889Y-61306564D01*
X162461500Y-61103516D01*
X162461500Y-60896484D01*
X162501889Y-60693436D01*
X162581115Y-60502167D01*
X162696135Y-60330027D01*
X162842527Y-60183635D01*
X163014665Y-60068616D01*
X163014667Y-60068615D01*
X163205936Y-59989389D01*
X163408984Y-59949000D01*
X163616016Y-59949000D01*
X163819064Y-59989389D01*
G37*
G36*
X149319064Y-57489389D02*
G01*
X149510333Y-57568615D01*
X149510335Y-57568616D01*
X149682473Y-57683635D01*
X149828865Y-57830027D01*
X149943885Y-58002167D01*
X150023111Y-58193436D01*
X150063500Y-58396484D01*
X150063500Y-58603516D01*
X150023111Y-58806564D01*
X149943885Y-58997833D01*
X149943884Y-58997835D01*
X149828865Y-59169973D01*
X149682473Y-59316365D01*
X149510335Y-59431384D01*
X149510334Y-59431385D01*
X149510333Y-59431385D01*
X149319064Y-59510611D01*
X149116016Y-59551000D01*
X148908984Y-59551000D01*
X148705936Y-59510611D01*
X148514667Y-59431385D01*
X148514666Y-59431385D01*
X148514665Y-59431384D01*
X148342527Y-59316365D01*
X148196135Y-59169973D01*
X148081116Y-58997835D01*
X148081115Y-58997833D01*
X148001889Y-58806564D01*
X147961500Y-58603516D01*
X147961500Y-58396484D01*
X148001889Y-58193436D01*
X148081115Y-58002167D01*
X148196135Y-57830027D01*
X148342527Y-57683635D01*
X148514665Y-57568616D01*
X148514667Y-57568615D01*
X148705936Y-57489389D01*
X148908984Y-57449000D01*
X149116016Y-57449000D01*
X149319064Y-57489389D01*
G37*
G36*
X163819064Y-57489389D02*
G01*
X164010333Y-57568615D01*
X164010335Y-57568616D01*
X164182473Y-57683635D01*
X164328865Y-57830027D01*
X164443885Y-58002167D01*
X164523111Y-58193436D01*
X164563500Y-58396484D01*
X164563500Y-58603516D01*
X164523111Y-58806564D01*
X164443885Y-58997833D01*
X164443884Y-58997835D01*
X164328865Y-59169973D01*
X164182473Y-59316365D01*
X164010335Y-59431384D01*
X164010334Y-59431385D01*
X164010333Y-59431385D01*
X163819064Y-59510611D01*
X163616016Y-59551000D01*
X163408984Y-59551000D01*
X163205936Y-59510611D01*
X163014667Y-59431385D01*
X163014666Y-59431385D01*
X163014665Y-59431384D01*
X162842527Y-59316365D01*
X162696135Y-59169973D01*
X162581116Y-58997835D01*
X162581115Y-58997833D01*
X162501889Y-58806564D01*
X162461500Y-58603516D01*
X162461500Y-58396484D01*
X162501889Y-58193436D01*
X162581115Y-58002167D01*
X162696135Y-57830027D01*
X162842527Y-57683635D01*
X163014665Y-57568616D01*
X163014667Y-57568615D01*
X163205936Y-57489389D01*
X163408984Y-57449000D01*
X163616016Y-57449000D01*
X163819064Y-57489389D01*
G37*
G36*
X157663500Y-56451000D02*
G01*
X154361500Y-56451000D01*
X154361500Y-54349000D01*
X157663500Y-54349000D01*
X157663500Y-56451000D01*
G37*
G36*
X33140224Y-49627434D02*
G01*
X33358224Y-49717733D01*
X33512373Y-49781583D01*
X33847298Y-50005373D01*
X34132127Y-50290202D01*
X34355917Y-50625127D01*
X34388312Y-50703336D01*
X34510066Y-50997276D01*
X34588650Y-51392344D01*
X34588650Y-51795156D01*
X34510066Y-52190224D01*
X34459201Y-52313022D01*
X34355917Y-52562373D01*
X34132127Y-52897298D01*
X33847298Y-53182127D01*
X33512373Y-53405917D01*
X33358224Y-53469767D01*
X33140224Y-53560066D01*
X32745156Y-53638650D01*
X32342344Y-53638650D01*
X31947276Y-53560066D01*
X31729276Y-53469767D01*
X31575127Y-53405917D01*
X31240202Y-53182127D01*
X30955373Y-52897298D01*
X30731583Y-52562373D01*
X30628299Y-52313022D01*
X30577434Y-52190224D01*
X30498850Y-51795156D01*
X30498850Y-51392344D01*
X30577434Y-50997276D01*
X30699188Y-50703336D01*
X30731583Y-50625127D01*
X30955373Y-50290202D01*
X31240202Y-50005373D01*
X31575127Y-49781583D01*
X31729276Y-49717733D01*
X31947276Y-49627434D01*
X32342344Y-49548850D01*
X32745156Y-49548850D01*
X33140224Y-49627434D01*
G37*
G36*
X109340224Y-49627434D02*
G01*
X109558224Y-49717733D01*
X109712373Y-49781583D01*
X110047298Y-50005373D01*
X110332127Y-50290202D01*
X110555917Y-50625127D01*
X110588312Y-50703336D01*
X110710066Y-50997276D01*
X110788650Y-51392344D01*
X110788650Y-51795156D01*
X110710066Y-52190224D01*
X110659201Y-52313022D01*
X110555917Y-52562373D01*
X110332127Y-52897298D01*
X110047298Y-53182127D01*
X109712373Y-53405917D01*
X109558224Y-53469767D01*
X109340224Y-53560066D01*
X108945156Y-53638650D01*
X108542344Y-53638650D01*
X108147276Y-53560066D01*
X107929276Y-53469767D01*
X107775127Y-53405917D01*
X107440202Y-53182127D01*
X107155373Y-52897298D01*
X106931583Y-52562373D01*
X106828299Y-52313022D01*
X106777434Y-52190224D01*
X106698850Y-51795156D01*
X106698850Y-51392344D01*
X106777434Y-50997276D01*
X106899188Y-50703336D01*
X106931583Y-50625127D01*
X107155373Y-50290202D01*
X107440202Y-50005373D01*
X107775127Y-49781583D01*
X107929276Y-49717733D01*
X108147276Y-49627434D01*
X108542344Y-49548850D01*
X108945156Y-49548850D01*
X109340224Y-49627434D01*
G37*
G36*
X52190224Y-49627434D02*
G01*
X52408224Y-49717733D01*
X52562373Y-49781583D01*
X52897298Y-50005373D01*
X53182127Y-50290202D01*
X53405917Y-50625127D01*
X53438312Y-50703336D01*
X53560066Y-50997276D01*
X53638650Y-51392344D01*
X53638650Y-51795156D01*
X53560066Y-52190224D01*
X53509201Y-52313022D01*
X53405917Y-52562373D01*
X53182127Y-52897298D01*
X52897298Y-53182127D01*
X52562373Y-53405917D01*
X52408224Y-53469767D01*
X52190224Y-53560066D01*
X51795156Y-53638650D01*
X51392344Y-53638650D01*
X50997276Y-53560066D01*
X50779276Y-53469767D01*
X50625127Y-53405917D01*
X50290202Y-53182127D01*
X50005373Y-52897298D01*
X49781583Y-52562373D01*
X49678299Y-52313022D01*
X49627434Y-52190224D01*
X49548850Y-51795156D01*
X49548850Y-51392344D01*
X49627434Y-50997276D01*
X49749188Y-50703336D01*
X49781583Y-50625127D01*
X50005373Y-50290202D01*
X50290202Y-50005373D01*
X50625127Y-49781583D01*
X50779276Y-49717733D01*
X50997276Y-49627434D01*
X51392344Y-49548850D01*
X51795156Y-49548850D01*
X52190224Y-49627434D01*
G37*
G36*
X71240224Y-49627434D02*
G01*
X71458224Y-49717733D01*
X71612373Y-49781583D01*
X71947298Y-50005373D01*
X72232127Y-50290202D01*
X72455917Y-50625127D01*
X72488312Y-50703336D01*
X72610066Y-50997276D01*
X72688650Y-51392344D01*
X72688650Y-51795156D01*
X72610066Y-52190224D01*
X72559201Y-52313022D01*
X72455917Y-52562373D01*
X72232127Y-52897298D01*
X71947298Y-53182127D01*
X71612373Y-53405917D01*
X71458224Y-53469767D01*
X71240224Y-53560066D01*
X70845156Y-53638650D01*
X70442344Y-53638650D01*
X70047276Y-53560066D01*
X69829276Y-53469767D01*
X69675127Y-53405917D01*
X69340202Y-53182127D01*
X69055373Y-52897298D01*
X68831583Y-52562373D01*
X68728299Y-52313022D01*
X68677434Y-52190224D01*
X68598850Y-51795156D01*
X68598850Y-51392344D01*
X68677434Y-50997276D01*
X68799188Y-50703336D01*
X68831583Y-50625127D01*
X69055373Y-50290202D01*
X69340202Y-50005373D01*
X69675127Y-49781583D01*
X69829276Y-49717733D01*
X70047276Y-49627434D01*
X70442344Y-49548850D01*
X70845156Y-49548850D01*
X71240224Y-49627434D01*
G37*
G36*
X90290224Y-49627434D02*
G01*
X90508224Y-49717733D01*
X90662373Y-49781583D01*
X90997298Y-50005373D01*
X91282127Y-50290202D01*
X91505917Y-50625127D01*
X91538312Y-50703336D01*
X91660066Y-50997276D01*
X91738650Y-51392344D01*
X91738650Y-51795156D01*
X91660066Y-52190224D01*
X91609201Y-52313022D01*
X91505917Y-52562373D01*
X91282127Y-52897298D01*
X90997298Y-53182127D01*
X90662373Y-53405917D01*
X90508224Y-53469767D01*
X90290224Y-53560066D01*
X89895156Y-53638650D01*
X89492344Y-53638650D01*
X89097276Y-53560066D01*
X88879276Y-53469767D01*
X88725127Y-53405917D01*
X88390202Y-53182127D01*
X88105373Y-52897298D01*
X87881583Y-52562373D01*
X87778299Y-52313022D01*
X87727434Y-52190224D01*
X87648850Y-51795156D01*
X87648850Y-51392344D01*
X87727434Y-50997276D01*
X87849188Y-50703336D01*
X87881583Y-50625127D01*
X88105373Y-50290202D01*
X88390202Y-50005373D01*
X88725127Y-49781583D01*
X88879276Y-49717733D01*
X89097276Y-49627434D01*
X89492344Y-49548850D01*
X89895156Y-49548850D01*
X90290224Y-49627434D01*
G37*
G36*
X128390224Y-49627434D02*
G01*
X128608224Y-49717733D01*
X128762373Y-49781583D01*
X129097298Y-50005373D01*
X129382127Y-50290202D01*
X129605917Y-50625127D01*
X129638312Y-50703336D01*
X129760066Y-50997276D01*
X129838650Y-51392344D01*
X129838650Y-51795156D01*
X129760066Y-52190224D01*
X129709201Y-52313022D01*
X129605917Y-52562373D01*
X129382127Y-52897298D01*
X129097298Y-53182127D01*
X128762373Y-53405917D01*
X128608224Y-53469767D01*
X128390224Y-53560066D01*
X127995156Y-53638650D01*
X127592344Y-53638650D01*
X127197276Y-53560066D01*
X126979276Y-53469767D01*
X126825127Y-53405917D01*
X126490202Y-53182127D01*
X126205373Y-52897298D01*
X125981583Y-52562373D01*
X125878299Y-52313022D01*
X125827434Y-52190224D01*
X125748850Y-51795156D01*
X125748850Y-51392344D01*
X125827434Y-50997276D01*
X125949188Y-50703336D01*
X125981583Y-50625127D01*
X126205373Y-50290202D01*
X126490202Y-50005373D01*
X126825127Y-49781583D01*
X126979276Y-49717733D01*
X127197276Y-49627434D01*
X127592344Y-49548850D01*
X127995156Y-49548850D01*
X128390224Y-49627434D01*
G37*
G36*
X114093854Y-50703335D02*
G01*
X114262376Y-50773139D01*
X114414041Y-50874478D01*
X114543022Y-51003459D01*
X114644361Y-51155124D01*
X114714165Y-51323646D01*
X114749750Y-51502547D01*
X114749750Y-51684953D01*
X114714165Y-51863854D01*
X114644361Y-52032376D01*
X114543022Y-52184041D01*
X114414041Y-52313022D01*
X114262376Y-52414361D01*
X114093854Y-52484165D01*
X113914953Y-52519750D01*
X113732547Y-52519750D01*
X113553646Y-52484165D01*
X113385124Y-52414361D01*
X113233459Y-52313022D01*
X113104478Y-52184041D01*
X113003139Y-52032376D01*
X112933335Y-51863854D01*
X112897750Y-51684953D01*
X112897750Y-51502547D01*
X112933335Y-51323646D01*
X113003139Y-51155124D01*
X113104478Y-51003459D01*
X113233459Y-50874478D01*
X113385124Y-50773139D01*
X113553646Y-50703335D01*
X113732547Y-50667750D01*
X113914953Y-50667750D01*
X114093854Y-50703335D01*
G37*
G36*
X122983854Y-50703335D02*
G01*
X123152376Y-50773139D01*
X123304041Y-50874478D01*
X123433022Y-51003459D01*
X123534361Y-51155124D01*
X123604165Y-51323646D01*
X123639750Y-51502547D01*
X123639750Y-51684953D01*
X123604165Y-51863854D01*
X123534361Y-52032376D01*
X123433022Y-52184041D01*
X123304041Y-52313022D01*
X123152376Y-52414361D01*
X122983854Y-52484165D01*
X122804953Y-52519750D01*
X122622547Y-52519750D01*
X122443646Y-52484165D01*
X122275124Y-52414361D01*
X122123459Y-52313022D01*
X121994478Y-52184041D01*
X121893139Y-52032376D01*
X121823335Y-51863854D01*
X121787750Y-51684953D01*
X121787750Y-51502547D01*
X121823335Y-51323646D01*
X121893139Y-51155124D01*
X121994478Y-51003459D01*
X122123459Y-50874478D01*
X122275124Y-50773139D01*
X122443646Y-50703335D01*
X122622547Y-50667750D01*
X122804953Y-50667750D01*
X122983854Y-50703335D01*
G37*
G36*
X133143854Y-50703335D02*
G01*
X133312376Y-50773139D01*
X133464041Y-50874478D01*
X133593022Y-51003459D01*
X133694361Y-51155124D01*
X133764165Y-51323646D01*
X133799750Y-51502547D01*
X133799750Y-51684953D01*
X133764165Y-51863854D01*
X133694361Y-52032376D01*
X133593022Y-52184041D01*
X133464041Y-52313022D01*
X133312376Y-52414361D01*
X133143854Y-52484165D01*
X132964953Y-52519750D01*
X132782547Y-52519750D01*
X132603646Y-52484165D01*
X132435124Y-52414361D01*
X132283459Y-52313022D01*
X132154478Y-52184041D01*
X132053139Y-52032376D01*
X131983335Y-51863854D01*
X131947750Y-51684953D01*
X131947750Y-51502547D01*
X131983335Y-51323646D01*
X132053139Y-51155124D01*
X132154478Y-51003459D01*
X132283459Y-50874478D01*
X132435124Y-50773139D01*
X132603646Y-50703335D01*
X132782547Y-50667750D01*
X132964953Y-50667750D01*
X133143854Y-50703335D01*
G37*
G36*
X84883854Y-50703335D02*
G01*
X85052376Y-50773139D01*
X85204041Y-50874478D01*
X85333022Y-51003459D01*
X85434361Y-51155124D01*
X85504165Y-51323646D01*
X85539750Y-51502547D01*
X85539750Y-51684953D01*
X85504165Y-51863854D01*
X85434361Y-52032376D01*
X85333022Y-52184041D01*
X85204041Y-52313022D01*
X85052376Y-52414361D01*
X84883854Y-52484165D01*
X84704953Y-52519750D01*
X84522547Y-52519750D01*
X84343646Y-52484165D01*
X84175124Y-52414361D01*
X84023459Y-52313022D01*
X83894478Y-52184041D01*
X83793139Y-52032376D01*
X83723335Y-51863854D01*
X83687750Y-51684953D01*
X83687750Y-51502547D01*
X83723335Y-51323646D01*
X83793139Y-51155124D01*
X83894478Y-51003459D01*
X84023459Y-50874478D01*
X84175124Y-50773139D01*
X84343646Y-50703335D01*
X84522547Y-50667750D01*
X84704953Y-50667750D01*
X84883854Y-50703335D01*
G37*
G36*
X95043854Y-50703335D02*
G01*
X95212376Y-50773139D01*
X95364041Y-50874478D01*
X95493022Y-51003459D01*
X95594361Y-51155124D01*
X95664165Y-51323646D01*
X95699750Y-51502547D01*
X95699750Y-51684953D01*
X95664165Y-51863854D01*
X95594361Y-52032376D01*
X95493022Y-52184041D01*
X95364041Y-52313022D01*
X95212376Y-52414361D01*
X95043854Y-52484165D01*
X94864953Y-52519750D01*
X94682547Y-52519750D01*
X94503646Y-52484165D01*
X94335124Y-52414361D01*
X94183459Y-52313022D01*
X94054478Y-52184041D01*
X93953139Y-52032376D01*
X93883335Y-51863854D01*
X93847750Y-51684953D01*
X93847750Y-51502547D01*
X93883335Y-51323646D01*
X93953139Y-51155124D01*
X94054478Y-51003459D01*
X94183459Y-50874478D01*
X94335124Y-50773139D01*
X94503646Y-50703335D01*
X94682547Y-50667750D01*
X94864953Y-50667750D01*
X95043854Y-50703335D01*
G37*
G36*
X65833854Y-50703335D02*
G01*
X66002376Y-50773139D01*
X66154041Y-50874478D01*
X66283022Y-51003459D01*
X66384361Y-51155124D01*
X66454165Y-51323646D01*
X66489750Y-51502547D01*
X66489750Y-51684953D01*
X66454165Y-51863854D01*
X66384361Y-52032376D01*
X66283022Y-52184041D01*
X66154041Y-52313022D01*
X66002376Y-52414361D01*
X65833854Y-52484165D01*
X65654953Y-52519750D01*
X65472547Y-52519750D01*
X65293646Y-52484165D01*
X65125124Y-52414361D01*
X64973459Y-52313022D01*
X64844478Y-52184041D01*
X64743139Y-52032376D01*
X64673335Y-51863854D01*
X64637750Y-51684953D01*
X64637750Y-51502547D01*
X64673335Y-51323646D01*
X64743139Y-51155124D01*
X64844478Y-51003459D01*
X64973459Y-50874478D01*
X65125124Y-50773139D01*
X65293646Y-50703335D01*
X65472547Y-50667750D01*
X65654953Y-50667750D01*
X65833854Y-50703335D01*
G37*
G36*
X75993854Y-50703335D02*
G01*
X76162376Y-50773139D01*
X76314041Y-50874478D01*
X76443022Y-51003459D01*
X76544361Y-51155124D01*
X76614165Y-51323646D01*
X76649750Y-51502547D01*
X76649750Y-51684953D01*
X76614165Y-51863854D01*
X76544361Y-52032376D01*
X76443022Y-52184041D01*
X76314041Y-52313022D01*
X76162376Y-52414361D01*
X75993854Y-52484165D01*
X75814953Y-52519750D01*
X75632547Y-52519750D01*
X75453646Y-52484165D01*
X75285124Y-52414361D01*
X75133459Y-52313022D01*
X75004478Y-52184041D01*
X74903139Y-52032376D01*
X74833335Y-51863854D01*
X74797750Y-51684953D01*
X74797750Y-51502547D01*
X74833335Y-51323646D01*
X74903139Y-51155124D01*
X75004478Y-51003459D01*
X75133459Y-50874478D01*
X75285124Y-50773139D01*
X75453646Y-50703335D01*
X75632547Y-50667750D01*
X75814953Y-50667750D01*
X75993854Y-50703335D01*
G37*
G36*
X27733854Y-50703335D02*
G01*
X27902376Y-50773139D01*
X28054041Y-50874478D01*
X28183022Y-51003459D01*
X28284361Y-51155124D01*
X28354165Y-51323646D01*
X28389750Y-51502547D01*
X28389750Y-51684953D01*
X28354165Y-51863854D01*
X28284361Y-52032376D01*
X28183022Y-52184041D01*
X28054041Y-52313022D01*
X27902376Y-52414361D01*
X27733854Y-52484165D01*
X27554953Y-52519750D01*
X27372547Y-52519750D01*
X27193646Y-52484165D01*
X27025124Y-52414361D01*
X26873459Y-52313022D01*
X26744478Y-52184041D01*
X26643139Y-52032376D01*
X26573335Y-51863854D01*
X26537750Y-51684953D01*
X26537750Y-51502547D01*
X26573335Y-51323646D01*
X26643139Y-51155124D01*
X26744478Y-51003459D01*
X26873459Y-50874478D01*
X27025124Y-50773139D01*
X27193646Y-50703335D01*
X27372547Y-50667750D01*
X27554953Y-50667750D01*
X27733854Y-50703335D01*
G37*
G36*
X46783854Y-50703335D02*
G01*
X46952376Y-50773139D01*
X47104041Y-50874478D01*
X47233022Y-51003459D01*
X47334361Y-51155124D01*
X47404165Y-51323646D01*
X47439750Y-51502547D01*
X47439750Y-51684953D01*
X47404165Y-51863854D01*
X47334361Y-52032376D01*
X47233022Y-52184041D01*
X47104041Y-52313022D01*
X46952376Y-52414361D01*
X46783854Y-52484165D01*
X46604953Y-52519750D01*
X46422547Y-52519750D01*
X46243646Y-52484165D01*
X46075124Y-52414361D01*
X45923459Y-52313022D01*
X45794478Y-52184041D01*
X45693139Y-52032376D01*
X45623335Y-51863854D01*
X45587750Y-51684953D01*
X45587750Y-51502547D01*
X45623335Y-51323646D01*
X45693139Y-51155124D01*
X45794478Y-51003459D01*
X45923459Y-50874478D01*
X46075124Y-50773139D01*
X46243646Y-50703335D01*
X46422547Y-50667750D01*
X46604953Y-50667750D01*
X46783854Y-50703335D01*
G37*
G36*
X56943854Y-50703335D02*
G01*
X57112376Y-50773139D01*
X57264041Y-50874478D01*
X57393022Y-51003459D01*
X57494361Y-51155124D01*
X57564165Y-51323646D01*
X57599750Y-51502547D01*
X57599750Y-51684953D01*
X57564165Y-51863854D01*
X57494361Y-52032376D01*
X57393022Y-52184041D01*
X57264041Y-52313022D01*
X57112376Y-52414361D01*
X56943854Y-52484165D01*
X56764953Y-52519750D01*
X56582547Y-52519750D01*
X56403646Y-52484165D01*
X56235124Y-52414361D01*
X56083459Y-52313022D01*
X55954478Y-52184041D01*
X55853139Y-52032376D01*
X55783335Y-51863854D01*
X55747750Y-51684953D01*
X55747750Y-51502547D01*
X55783335Y-51323646D01*
X55853139Y-51155124D01*
X55954478Y-51003459D01*
X56083459Y-50874478D01*
X56235124Y-50773139D01*
X56403646Y-50703335D01*
X56582547Y-50667750D01*
X56764953Y-50667750D01*
X56943854Y-50703335D01*
G37*
G36*
X37893854Y-50703335D02*
G01*
X38062376Y-50773139D01*
X38214041Y-50874478D01*
X38343022Y-51003459D01*
X38444361Y-51155124D01*
X38514165Y-51323646D01*
X38549750Y-51502547D01*
X38549750Y-51684953D01*
X38514165Y-51863854D01*
X38444361Y-52032376D01*
X38343022Y-52184041D01*
X38214041Y-52313022D01*
X38062376Y-52414361D01*
X37893854Y-52484165D01*
X37714953Y-52519750D01*
X37532547Y-52519750D01*
X37353646Y-52484165D01*
X37185124Y-52414361D01*
X37033459Y-52313022D01*
X36904478Y-52184041D01*
X36803139Y-52032376D01*
X36733335Y-51863854D01*
X36697750Y-51684953D01*
X36697750Y-51502547D01*
X36733335Y-51323646D01*
X36803139Y-51155124D01*
X36904478Y-51003459D01*
X37033459Y-50874478D01*
X37185124Y-50773139D01*
X37353646Y-50703335D01*
X37532547Y-50667750D01*
X37714953Y-50667750D01*
X37893854Y-50703335D01*
G37*
G36*
X103933854Y-50703335D02*
G01*
X104102376Y-50773139D01*
X104254041Y-50874478D01*
X104383022Y-51003459D01*
X104484361Y-51155124D01*
X104554165Y-51323646D01*
X104589750Y-51502547D01*
X104589750Y-51684953D01*
X104554165Y-51863854D01*
X104484361Y-52032376D01*
X104383022Y-52184041D01*
X104254041Y-52313022D01*
X104102376Y-52414361D01*
X103933854Y-52484165D01*
X103754953Y-52519750D01*
X103572547Y-52519750D01*
X103393646Y-52484165D01*
X103225124Y-52414361D01*
X103073459Y-52313022D01*
X102944478Y-52184041D01*
X102843139Y-52032376D01*
X102773335Y-51863854D01*
X102737750Y-51684953D01*
X102737750Y-51502547D01*
X102773335Y-51323646D01*
X102843139Y-51155124D01*
X102944478Y-51003459D01*
X103073459Y-50874478D01*
X103225124Y-50773139D01*
X103393646Y-50703335D01*
X103572547Y-50667750D01*
X103754953Y-50667750D01*
X103933854Y-50703335D01*
G37*
G36*
X128390224Y-30577434D02*
G01*
X128608224Y-30667733D01*
X128762373Y-30731583D01*
X129097298Y-30955373D01*
X129382127Y-31240202D01*
X129605917Y-31575127D01*
X129638312Y-31653336D01*
X129760066Y-31947276D01*
X129838650Y-32342344D01*
X129838650Y-32745156D01*
X129760066Y-33140224D01*
X129709201Y-33263022D01*
X129605917Y-33512373D01*
X129382127Y-33847298D01*
X129097298Y-34132127D01*
X128762373Y-34355917D01*
X128608224Y-34419767D01*
X128390224Y-34510066D01*
X127995156Y-34588650D01*
X127592344Y-34588650D01*
X127197276Y-34510066D01*
X126979276Y-34419767D01*
X126825127Y-34355917D01*
X126490202Y-34132127D01*
X126205373Y-33847298D01*
X125981583Y-33512373D01*
X125878299Y-33263022D01*
X125827434Y-33140224D01*
X125748850Y-32745156D01*
X125748850Y-32342344D01*
X125827434Y-31947276D01*
X125949188Y-31653336D01*
X125981583Y-31575127D01*
X126205373Y-31240202D01*
X126490202Y-30955373D01*
X126825127Y-30731583D01*
X126979276Y-30667733D01*
X127197276Y-30577434D01*
X127592344Y-30498850D01*
X127995156Y-30498850D01*
X128390224Y-30577434D01*
G37*
G36*
X90290224Y-30577434D02*
G01*
X90508224Y-30667733D01*
X90662373Y-30731583D01*
X90997298Y-30955373D01*
X91282127Y-31240202D01*
X91505917Y-31575127D01*
X91538312Y-31653336D01*
X91660066Y-31947276D01*
X91738650Y-32342344D01*
X91738650Y-32745156D01*
X91660066Y-33140224D01*
X91609201Y-33263022D01*
X91505917Y-33512373D01*
X91282127Y-33847298D01*
X90997298Y-34132127D01*
X90662373Y-34355917D01*
X90508224Y-34419767D01*
X90290224Y-34510066D01*
X89895156Y-34588650D01*
X89492344Y-34588650D01*
X89097276Y-34510066D01*
X88879276Y-34419767D01*
X88725127Y-34355917D01*
X88390202Y-34132127D01*
X88105373Y-33847298D01*
X87881583Y-33512373D01*
X87778299Y-33263022D01*
X87727434Y-33140224D01*
X87648850Y-32745156D01*
X87648850Y-32342344D01*
X87727434Y-31947276D01*
X87849188Y-31653336D01*
X87881583Y-31575127D01*
X88105373Y-31240202D01*
X88390202Y-30955373D01*
X88725127Y-30731583D01*
X88879276Y-30667733D01*
X89097276Y-30577434D01*
X89492344Y-30498850D01*
X89895156Y-30498850D01*
X90290224Y-30577434D01*
G37*
G36*
X109340224Y-30577434D02*
G01*
X109558224Y-30667733D01*
X109712373Y-30731583D01*
X110047298Y-30955373D01*
X110332127Y-31240202D01*
X110555917Y-31575127D01*
X110588312Y-31653336D01*
X110710066Y-31947276D01*
X110788650Y-32342344D01*
X110788650Y-32745156D01*
X110710066Y-33140224D01*
X110659201Y-33263022D01*
X110555917Y-33512373D01*
X110332127Y-33847298D01*
X110047298Y-34132127D01*
X109712373Y-34355917D01*
X109558224Y-34419767D01*
X109340224Y-34510066D01*
X108945156Y-34588650D01*
X108542344Y-34588650D01*
X108147276Y-34510066D01*
X107929276Y-34419767D01*
X107775127Y-34355917D01*
X107440202Y-34132127D01*
X107155373Y-33847298D01*
X106931583Y-33512373D01*
X106828299Y-33263022D01*
X106777434Y-33140224D01*
X106698850Y-32745156D01*
X106698850Y-32342344D01*
X106777434Y-31947276D01*
X106899188Y-31653336D01*
X106931583Y-31575127D01*
X107155373Y-31240202D01*
X107440202Y-30955373D01*
X107775127Y-30731583D01*
X107929276Y-30667733D01*
X108147276Y-30577434D01*
X108542344Y-30498850D01*
X108945156Y-30498850D01*
X109340224Y-30577434D01*
G37*
G36*
X33140224Y-30577434D02*
G01*
X33358224Y-30667733D01*
X33512373Y-30731583D01*
X33847298Y-30955373D01*
X34132127Y-31240202D01*
X34355917Y-31575127D01*
X34388312Y-31653336D01*
X34510066Y-31947276D01*
X34588650Y-32342344D01*
X34588650Y-32745156D01*
X34510066Y-33140224D01*
X34459201Y-33263022D01*
X34355917Y-33512373D01*
X34132127Y-33847298D01*
X33847298Y-34132127D01*
X33512373Y-34355917D01*
X33358224Y-34419767D01*
X33140224Y-34510066D01*
X32745156Y-34588650D01*
X32342344Y-34588650D01*
X31947276Y-34510066D01*
X31729276Y-34419767D01*
X31575127Y-34355917D01*
X31240202Y-34132127D01*
X30955373Y-33847298D01*
X30731583Y-33512373D01*
X30628299Y-33263022D01*
X30577434Y-33140224D01*
X30498850Y-32745156D01*
X30498850Y-32342344D01*
X30577434Y-31947276D01*
X30699188Y-31653336D01*
X30731583Y-31575127D01*
X30955373Y-31240202D01*
X31240202Y-30955373D01*
X31575127Y-30731583D01*
X31729276Y-30667733D01*
X31947276Y-30577434D01*
X32342344Y-30498850D01*
X32745156Y-30498850D01*
X33140224Y-30577434D01*
G37*
G36*
X147440224Y-30577434D02*
G01*
X147658224Y-30667733D01*
X147812373Y-30731583D01*
X148147298Y-30955373D01*
X148432127Y-31240202D01*
X148655917Y-31575127D01*
X148688312Y-31653336D01*
X148810066Y-31947276D01*
X148888650Y-32342344D01*
X148888650Y-32745156D01*
X148810066Y-33140224D01*
X148759201Y-33263022D01*
X148655917Y-33512373D01*
X148432127Y-33847298D01*
X148147298Y-34132127D01*
X147812373Y-34355917D01*
X147658224Y-34419767D01*
X147440224Y-34510066D01*
X147045156Y-34588650D01*
X146642344Y-34588650D01*
X146247276Y-34510066D01*
X146029276Y-34419767D01*
X145875127Y-34355917D01*
X145540202Y-34132127D01*
X145255373Y-33847298D01*
X145031583Y-33512373D01*
X144928299Y-33263022D01*
X144877434Y-33140224D01*
X144798850Y-32745156D01*
X144798850Y-32342344D01*
X144877434Y-31947276D01*
X144999188Y-31653336D01*
X145031583Y-31575127D01*
X145255373Y-31240202D01*
X145540202Y-30955373D01*
X145875127Y-30731583D01*
X146029276Y-30667733D01*
X146247276Y-30577434D01*
X146642344Y-30498850D01*
X147045156Y-30498850D01*
X147440224Y-30577434D01*
G37*
G36*
X71240224Y-30577434D02*
G01*
X71458224Y-30667733D01*
X71612373Y-30731583D01*
X71947298Y-30955373D01*
X72232127Y-31240202D01*
X72455917Y-31575127D01*
X72488312Y-31653336D01*
X72610066Y-31947276D01*
X72688650Y-32342344D01*
X72688650Y-32745156D01*
X72610066Y-33140224D01*
X72559201Y-33263022D01*
X72455917Y-33512373D01*
X72232127Y-33847298D01*
X71947298Y-34132127D01*
X71612373Y-34355917D01*
X71458224Y-34419767D01*
X71240224Y-34510066D01*
X70845156Y-34588650D01*
X70442344Y-34588650D01*
X70047276Y-34510066D01*
X69829276Y-34419767D01*
X69675127Y-34355917D01*
X69340202Y-34132127D01*
X69055373Y-33847298D01*
X68831583Y-33512373D01*
X68728299Y-33263022D01*
X68677434Y-33140224D01*
X68598850Y-32745156D01*
X68598850Y-32342344D01*
X68677434Y-31947276D01*
X68799188Y-31653336D01*
X68831583Y-31575127D01*
X69055373Y-31240202D01*
X69340202Y-30955373D01*
X69675127Y-30731583D01*
X69829276Y-30667733D01*
X70047276Y-30577434D01*
X70442344Y-30498850D01*
X70845156Y-30498850D01*
X71240224Y-30577434D01*
G37*
G36*
X52190224Y-30577434D02*
G01*
X52408224Y-30667733D01*
X52562373Y-30731583D01*
X52897298Y-30955373D01*
X53182127Y-31240202D01*
X53405917Y-31575127D01*
X53438312Y-31653336D01*
X53560066Y-31947276D01*
X53638650Y-32342344D01*
X53638650Y-32745156D01*
X53560066Y-33140224D01*
X53509201Y-33263022D01*
X53405917Y-33512373D01*
X53182127Y-33847298D01*
X52897298Y-34132127D01*
X52562373Y-34355917D01*
X52408224Y-34419767D01*
X52190224Y-34510066D01*
X51795156Y-34588650D01*
X51392344Y-34588650D01*
X50997276Y-34510066D01*
X50779276Y-34419767D01*
X50625127Y-34355917D01*
X50290202Y-34132127D01*
X50005373Y-33847298D01*
X49781583Y-33512373D01*
X49678299Y-33263022D01*
X49627434Y-33140224D01*
X49548850Y-32745156D01*
X49548850Y-32342344D01*
X49627434Y-31947276D01*
X49749188Y-31653336D01*
X49781583Y-31575127D01*
X50005373Y-31240202D01*
X50290202Y-30955373D01*
X50625127Y-30731583D01*
X50779276Y-30667733D01*
X50997276Y-30577434D01*
X51392344Y-30498850D01*
X51795156Y-30498850D01*
X52190224Y-30577434D01*
G37*
G36*
X27733854Y-31653335D02*
G01*
X27902376Y-31723139D01*
X28054041Y-31824478D01*
X28183022Y-31953459D01*
X28284361Y-32105124D01*
X28354165Y-32273646D01*
X28389750Y-32452547D01*
X28389750Y-32634953D01*
X28354165Y-32813854D01*
X28284361Y-32982376D01*
X28183022Y-33134041D01*
X28054041Y-33263022D01*
X27902376Y-33364361D01*
X27733854Y-33434165D01*
X27554953Y-33469750D01*
X27372547Y-33469750D01*
X27193646Y-33434165D01*
X27025124Y-33364361D01*
X26873459Y-33263022D01*
X26744478Y-33134041D01*
X26643139Y-32982376D01*
X26573335Y-32813854D01*
X26537750Y-32634953D01*
X26537750Y-32452547D01*
X26573335Y-32273646D01*
X26643139Y-32105124D01*
X26744478Y-31953459D01*
X26873459Y-31824478D01*
X27025124Y-31723139D01*
X27193646Y-31653335D01*
X27372547Y-31617750D01*
X27554953Y-31617750D01*
X27733854Y-31653335D01*
G37*
G36*
X37893854Y-31653335D02*
G01*
X38062376Y-31723139D01*
X38214041Y-31824478D01*
X38343022Y-31953459D01*
X38444361Y-32105124D01*
X38514165Y-32273646D01*
X38549750Y-32452547D01*
X38549750Y-32634953D01*
X38514165Y-32813854D01*
X38444361Y-32982376D01*
X38343022Y-33134041D01*
X38214041Y-33263022D01*
X38062376Y-33364361D01*
X37893854Y-33434165D01*
X37714953Y-33469750D01*
X37532547Y-33469750D01*
X37353646Y-33434165D01*
X37185124Y-33364361D01*
X37033459Y-33263022D01*
X36904478Y-33134041D01*
X36803139Y-32982376D01*
X36733335Y-32813854D01*
X36697750Y-32634953D01*
X36697750Y-32452547D01*
X36733335Y-32273646D01*
X36803139Y-32105124D01*
X36904478Y-31953459D01*
X37033459Y-31824478D01*
X37185124Y-31723139D01*
X37353646Y-31653335D01*
X37532547Y-31617750D01*
X37714953Y-31617750D01*
X37893854Y-31653335D01*
G37*
G36*
X56943854Y-31653335D02*
G01*
X57112376Y-31723139D01*
X57264041Y-31824478D01*
X57393022Y-31953459D01*
X57494361Y-32105124D01*
X57564165Y-32273646D01*
X57599750Y-32452547D01*
X57599750Y-32634953D01*
X57564165Y-32813854D01*
X57494361Y-32982376D01*
X57393022Y-33134041D01*
X57264041Y-33263022D01*
X57112376Y-33364361D01*
X56943854Y-33434165D01*
X56764953Y-33469750D01*
X56582547Y-33469750D01*
X56403646Y-33434165D01*
X56235124Y-33364361D01*
X56083459Y-33263022D01*
X55954478Y-33134041D01*
X55853139Y-32982376D01*
X55783335Y-32813854D01*
X55747750Y-32634953D01*
X55747750Y-32452547D01*
X55783335Y-32273646D01*
X55853139Y-32105124D01*
X55954478Y-31953459D01*
X56083459Y-31824478D01*
X56235124Y-31723139D01*
X56403646Y-31653335D01*
X56582547Y-31617750D01*
X56764953Y-31617750D01*
X56943854Y-31653335D01*
G37*
G36*
X46783854Y-31653335D02*
G01*
X46952376Y-31723139D01*
X47104041Y-31824478D01*
X47233022Y-31953459D01*
X47334361Y-32105124D01*
X47404165Y-32273646D01*
X47439750Y-32452547D01*
X47439750Y-32634953D01*
X47404165Y-32813854D01*
X47334361Y-32982376D01*
X47233022Y-33134041D01*
X47104041Y-33263022D01*
X46952376Y-33364361D01*
X46783854Y-33434165D01*
X46604953Y-33469750D01*
X46422547Y-33469750D01*
X46243646Y-33434165D01*
X46075124Y-33364361D01*
X45923459Y-33263022D01*
X45794478Y-33134041D01*
X45693139Y-32982376D01*
X45623335Y-32813854D01*
X45587750Y-32634953D01*
X45587750Y-32452547D01*
X45623335Y-32273646D01*
X45693139Y-32105124D01*
X45794478Y-31953459D01*
X45923459Y-31824478D01*
X46075124Y-31723139D01*
X46243646Y-31653335D01*
X46422547Y-31617750D01*
X46604953Y-31617750D01*
X46783854Y-31653335D01*
G37*
G36*
X142033854Y-31653335D02*
G01*
X142202376Y-31723139D01*
X142354041Y-31824478D01*
X142483022Y-31953459D01*
X142584361Y-32105124D01*
X142654165Y-32273646D01*
X142689750Y-32452547D01*
X142689750Y-32634953D01*
X142654165Y-32813854D01*
X142584361Y-32982376D01*
X142483022Y-33134041D01*
X142354041Y-33263022D01*
X142202376Y-33364361D01*
X142033854Y-33434165D01*
X141854953Y-33469750D01*
X141672547Y-33469750D01*
X141493646Y-33434165D01*
X141325124Y-33364361D01*
X141173459Y-33263022D01*
X141044478Y-33134041D01*
X140943139Y-32982376D01*
X140873335Y-32813854D01*
X140837750Y-32634953D01*
X140837750Y-32452547D01*
X140873335Y-32273646D01*
X140943139Y-32105124D01*
X141044478Y-31953459D01*
X141173459Y-31824478D01*
X141325124Y-31723139D01*
X141493646Y-31653335D01*
X141672547Y-31617750D01*
X141854953Y-31617750D01*
X142033854Y-31653335D01*
G37*
G36*
X152193854Y-31653335D02*
G01*
X152362376Y-31723139D01*
X152514041Y-31824478D01*
X152643022Y-31953459D01*
X152744361Y-32105124D01*
X152814165Y-32273646D01*
X152849750Y-32452547D01*
X152849750Y-32634953D01*
X152814165Y-32813854D01*
X152744361Y-32982376D01*
X152643022Y-33134041D01*
X152514041Y-33263022D01*
X152362376Y-33364361D01*
X152193854Y-33434165D01*
X152014953Y-33469750D01*
X151832547Y-33469750D01*
X151653646Y-33434165D01*
X151485124Y-33364361D01*
X151333459Y-33263022D01*
X151204478Y-33134041D01*
X151103139Y-32982376D01*
X151033335Y-32813854D01*
X150997750Y-32634953D01*
X150997750Y-32452547D01*
X151033335Y-32273646D01*
X151103139Y-32105124D01*
X151204478Y-31953459D01*
X151333459Y-31824478D01*
X151485124Y-31723139D01*
X151653646Y-31653335D01*
X151832547Y-31617750D01*
X152014953Y-31617750D01*
X152193854Y-31653335D01*
G37*
G36*
X133143854Y-31653335D02*
G01*
X133312376Y-31723139D01*
X133464041Y-31824478D01*
X133593022Y-31953459D01*
X133694361Y-32105124D01*
X133764165Y-32273646D01*
X133799750Y-32452547D01*
X133799750Y-32634953D01*
X133764165Y-32813854D01*
X133694361Y-32982376D01*
X133593022Y-33134041D01*
X133464041Y-33263022D01*
X133312376Y-33364361D01*
X133143854Y-33434165D01*
X132964953Y-33469750D01*
X132782547Y-33469750D01*
X132603646Y-33434165D01*
X132435124Y-33364361D01*
X132283459Y-33263022D01*
X132154478Y-33134041D01*
X132053139Y-32982376D01*
X131983335Y-32813854D01*
X131947750Y-32634953D01*
X131947750Y-32452547D01*
X131983335Y-32273646D01*
X132053139Y-32105124D01*
X132154478Y-31953459D01*
X132283459Y-31824478D01*
X132435124Y-31723139D01*
X132603646Y-31653335D01*
X132782547Y-31617750D01*
X132964953Y-31617750D01*
X133143854Y-31653335D01*
G37*
G36*
X122983854Y-31653335D02*
G01*
X123152376Y-31723139D01*
X123304041Y-31824478D01*
X123433022Y-31953459D01*
X123534361Y-32105124D01*
X123604165Y-32273646D01*
X123639750Y-32452547D01*
X123639750Y-32634953D01*
X123604165Y-32813854D01*
X123534361Y-32982376D01*
X123433022Y-33134041D01*
X123304041Y-33263022D01*
X123152376Y-33364361D01*
X122983854Y-33434165D01*
X122804953Y-33469750D01*
X122622547Y-33469750D01*
X122443646Y-33434165D01*
X122275124Y-33364361D01*
X122123459Y-33263022D01*
X121994478Y-33134041D01*
X121893139Y-32982376D01*
X121823335Y-32813854D01*
X121787750Y-32634953D01*
X121787750Y-32452547D01*
X121823335Y-32273646D01*
X121893139Y-32105124D01*
X121994478Y-31953459D01*
X122123459Y-31824478D01*
X122275124Y-31723139D01*
X122443646Y-31653335D01*
X122622547Y-31617750D01*
X122804953Y-31617750D01*
X122983854Y-31653335D01*
G37*
G36*
X114093854Y-31653335D02*
G01*
X114262376Y-31723139D01*
X114414041Y-31824478D01*
X114543022Y-31953459D01*
X114644361Y-32105124D01*
X114714165Y-32273646D01*
X114749750Y-32452547D01*
X114749750Y-32634953D01*
X114714165Y-32813854D01*
X114644361Y-32982376D01*
X114543022Y-33134041D01*
X114414041Y-33263022D01*
X114262376Y-33364361D01*
X114093854Y-33434165D01*
X113914953Y-33469750D01*
X113732547Y-33469750D01*
X113553646Y-33434165D01*
X113385124Y-33364361D01*
X113233459Y-33263022D01*
X113104478Y-33134041D01*
X113003139Y-32982376D01*
X112933335Y-32813854D01*
X112897750Y-32634953D01*
X112897750Y-32452547D01*
X112933335Y-32273646D01*
X113003139Y-32105124D01*
X113104478Y-31953459D01*
X113233459Y-31824478D01*
X113385124Y-31723139D01*
X113553646Y-31653335D01*
X113732547Y-31617750D01*
X113914953Y-31617750D01*
X114093854Y-31653335D01*
G37*
G36*
X65833854Y-31653335D02*
G01*
X66002376Y-31723139D01*
X66154041Y-31824478D01*
X66283022Y-31953459D01*
X66384361Y-32105124D01*
X66454165Y-32273646D01*
X66489750Y-32452547D01*
X66489750Y-32634953D01*
X66454165Y-32813854D01*
X66384361Y-32982376D01*
X66283022Y-33134041D01*
X66154041Y-33263022D01*
X66002376Y-33364361D01*
X65833854Y-33434165D01*
X65654953Y-33469750D01*
X65472547Y-33469750D01*
X65293646Y-33434165D01*
X65125124Y-33364361D01*
X64973459Y-33263022D01*
X64844478Y-33134041D01*
X64743139Y-32982376D01*
X64673335Y-32813854D01*
X64637750Y-32634953D01*
X64637750Y-32452547D01*
X64673335Y-32273646D01*
X64743139Y-32105124D01*
X64844478Y-31953459D01*
X64973459Y-31824478D01*
X65125124Y-31723139D01*
X65293646Y-31653335D01*
X65472547Y-31617750D01*
X65654953Y-31617750D01*
X65833854Y-31653335D01*
G37*
G36*
X75993854Y-31653335D02*
G01*
X76162376Y-31723139D01*
X76314041Y-31824478D01*
X76443022Y-31953459D01*
X76544361Y-32105124D01*
X76614165Y-32273646D01*
X76649750Y-32452547D01*
X76649750Y-32634953D01*
X76614165Y-32813854D01*
X76544361Y-32982376D01*
X76443022Y-33134041D01*
X76314041Y-33263022D01*
X76162376Y-33364361D01*
X75993854Y-33434165D01*
X75814953Y-33469750D01*
X75632547Y-33469750D01*
X75453646Y-33434165D01*
X75285124Y-33364361D01*
X75133459Y-33263022D01*
X75004478Y-33134041D01*
X74903139Y-32982376D01*
X74833335Y-32813854D01*
X74797750Y-32634953D01*
X74797750Y-32452547D01*
X74833335Y-32273646D01*
X74903139Y-32105124D01*
X75004478Y-31953459D01*
X75133459Y-31824478D01*
X75285124Y-31723139D01*
X75453646Y-31653335D01*
X75632547Y-31617750D01*
X75814953Y-31617750D01*
X75993854Y-31653335D01*
G37*
G36*
X84883854Y-31653335D02*
G01*
X85052376Y-31723139D01*
X85204041Y-31824478D01*
X85333022Y-31953459D01*
X85434361Y-32105124D01*
X85504165Y-32273646D01*
X85539750Y-32452547D01*
X85539750Y-32634953D01*
X85504165Y-32813854D01*
X85434361Y-32982376D01*
X85333022Y-33134041D01*
X85204041Y-33263022D01*
X85052376Y-33364361D01*
X84883854Y-33434165D01*
X84704953Y-33469750D01*
X84522547Y-33469750D01*
X84343646Y-33434165D01*
X84175124Y-33364361D01*
X84023459Y-33263022D01*
X83894478Y-33134041D01*
X83793139Y-32982376D01*
X83723335Y-32813854D01*
X83687750Y-32634953D01*
X83687750Y-32452547D01*
X83723335Y-32273646D01*
X83793139Y-32105124D01*
X83894478Y-31953459D01*
X84023459Y-31824478D01*
X84175124Y-31723139D01*
X84343646Y-31653335D01*
X84522547Y-31617750D01*
X84704953Y-31617750D01*
X84883854Y-31653335D01*
G37*
G36*
X95043854Y-31653335D02*
G01*
X95212376Y-31723139D01*
X95364041Y-31824478D01*
X95493022Y-31953459D01*
X95594361Y-32105124D01*
X95664165Y-32273646D01*
X95699750Y-32452547D01*
X95699750Y-32634953D01*
X95664165Y-32813854D01*
X95594361Y-32982376D01*
X95493022Y-33134041D01*
X95364041Y-33263022D01*
X95212376Y-33364361D01*
X95043854Y-33434165D01*
X94864953Y-33469750D01*
X94682547Y-33469750D01*
X94503646Y-33434165D01*
X94335124Y-33364361D01*
X94183459Y-33263022D01*
X94054478Y-33134041D01*
X93953139Y-32982376D01*
X93883335Y-32813854D01*
X93847750Y-32634953D01*
X93847750Y-32452547D01*
X93883335Y-32273646D01*
X93953139Y-32105124D01*
X94054478Y-31953459D01*
X94183459Y-31824478D01*
X94335124Y-31723139D01*
X94503646Y-31653335D01*
X94682547Y-31617750D01*
X94864953Y-31617750D01*
X95043854Y-31653335D01*
G37*
G36*
X103933854Y-31653335D02*
G01*
X104102376Y-31723139D01*
X104254041Y-31824478D01*
X104383022Y-31953459D01*
X104484361Y-32105124D01*
X104554165Y-32273646D01*
X104589750Y-32452547D01*
X104589750Y-32634953D01*
X104554165Y-32813854D01*
X104484361Y-32982376D01*
X104383022Y-33134041D01*
X104254041Y-33263022D01*
X104102376Y-33364361D01*
X103933854Y-33434165D01*
X103754953Y-33469750D01*
X103572547Y-33469750D01*
X103393646Y-33434165D01*
X103225124Y-33364361D01*
X103073459Y-33263022D01*
X102944478Y-33134041D01*
X102843139Y-32982376D01*
X102773335Y-32813854D01*
X102737750Y-32634953D01*
X102737750Y-32452547D01*
X102773335Y-32273646D01*
X102843139Y-32105124D01*
X102944478Y-31953459D01*
X103073459Y-31824478D01*
X103225124Y-31723139D01*
X103393646Y-31653335D01*
X103572547Y-31617750D01*
X103754953Y-31617750D01*
X103933854Y-31653335D01*
G37*
G36*
X151261567Y-17995196D02*
G01*
X151374854Y-18029562D01*
X151479261Y-18085369D01*
X151479263Y-18085370D01*
X151479262Y-18085370D01*
X151570777Y-18160473D01*
X151623691Y-18224950D01*
X151645881Y-18251988D01*
X151701688Y-18356395D01*
X151736054Y-18469682D01*
X151744750Y-18557981D01*
X151744750Y-19717019D01*
X151736054Y-19805318D01*
X151701688Y-19918605D01*
X151645881Y-20023012D01*
X151570777Y-20114527D01*
X151479262Y-20189631D01*
X151374855Y-20245438D01*
X151261568Y-20279804D01*
X151143750Y-20291407D01*
X151025933Y-20279804D01*
X150912646Y-20245438D01*
X150808239Y-20189631D01*
X150716724Y-20114527D01*
X150641620Y-20023012D01*
X150585813Y-19918605D01*
X150551447Y-19805318D01*
X150542751Y-19717019D01*
X150542750Y-18557982D01*
X150551446Y-18469683D01*
X150585812Y-18356396D01*
X150641619Y-18251989D01*
X150675668Y-18210500D01*
X150716723Y-18160473D01*
X150808237Y-18085370D01*
X150808236Y-18085370D01*
X150808238Y-18085369D01*
X150912645Y-18029562D01*
X151025932Y-17995196D01*
X151143750Y-17983593D01*
X151261567Y-17995196D01*
G37*
G36*
X142661567Y-17995196D02*
G01*
X142774854Y-18029562D01*
X142879261Y-18085369D01*
X142879263Y-18085370D01*
X142879262Y-18085370D01*
X142970777Y-18160473D01*
X143023691Y-18224950D01*
X143045881Y-18251988D01*
X143101688Y-18356395D01*
X143136054Y-18469682D01*
X143144750Y-18557981D01*
X143144750Y-19717019D01*
X143136054Y-19805318D01*
X143101688Y-19918605D01*
X143045881Y-20023012D01*
X142970777Y-20114527D01*
X142879262Y-20189631D01*
X142774855Y-20245438D01*
X142661568Y-20279804D01*
X142543750Y-20291407D01*
X142425933Y-20279804D01*
X142312646Y-20245438D01*
X142208239Y-20189631D01*
X142116724Y-20114527D01*
X142041620Y-20023012D01*
X141985813Y-19918605D01*
X141951447Y-19805318D01*
X141942751Y-19717019D01*
X141942750Y-18557982D01*
X141951446Y-18469683D01*
X141985812Y-18356396D01*
X142041619Y-18251989D01*
X142075668Y-18210500D01*
X142116723Y-18160473D01*
X142208237Y-18085370D01*
X142208236Y-18085370D01*
X142208238Y-18085369D01*
X142312645Y-18029562D01*
X142425932Y-17995196D01*
X142543750Y-17983593D01*
X142661567Y-17995196D01*
G37*
G36*
X94016317Y-17995196D02*
G01*
X94129604Y-18029562D01*
X94234011Y-18085369D01*
X94234013Y-18085370D01*
X94234012Y-18085370D01*
X94325527Y-18160473D01*
X94378441Y-18224950D01*
X94400631Y-18251988D01*
X94456438Y-18356395D01*
X94490804Y-18469682D01*
X94499500Y-18557981D01*
X94499500Y-19717019D01*
X94490804Y-19805318D01*
X94456438Y-19918605D01*
X94400631Y-20023012D01*
X94325527Y-20114527D01*
X94234012Y-20189631D01*
X94129605Y-20245438D01*
X94016318Y-20279804D01*
X93898500Y-20291407D01*
X93780683Y-20279804D01*
X93667396Y-20245438D01*
X93562989Y-20189631D01*
X93471474Y-20114527D01*
X93396370Y-20023012D01*
X93340563Y-19918605D01*
X93306197Y-19805318D01*
X93297501Y-19717019D01*
X93297500Y-18557982D01*
X93306196Y-18469683D01*
X93340562Y-18356396D01*
X93396369Y-18251989D01*
X93430418Y-18210500D01*
X93471473Y-18160473D01*
X93562987Y-18085370D01*
X93562986Y-18085370D01*
X93562988Y-18085369D01*
X93667395Y-18029562D01*
X93780682Y-17995196D01*
X93898500Y-17983593D01*
X94016317Y-17995196D01*
G37*
G36*
X85416317Y-17995196D02*
G01*
X85529604Y-18029562D01*
X85634011Y-18085369D01*
X85634013Y-18085370D01*
X85634012Y-18085370D01*
X85725527Y-18160473D01*
X85778441Y-18224950D01*
X85800631Y-18251988D01*
X85856438Y-18356395D01*
X85890804Y-18469682D01*
X85899500Y-18557981D01*
X85899500Y-19717019D01*
X85890804Y-19805318D01*
X85856438Y-19918605D01*
X85800631Y-20023012D01*
X85725527Y-20114527D01*
X85634012Y-20189631D01*
X85529605Y-20245438D01*
X85416318Y-20279804D01*
X85298500Y-20291407D01*
X85180683Y-20279804D01*
X85067396Y-20245438D01*
X84962989Y-20189631D01*
X84871474Y-20114527D01*
X84796370Y-20023012D01*
X84740563Y-19918605D01*
X84706197Y-19805318D01*
X84697501Y-19717019D01*
X84697500Y-18557982D01*
X84706196Y-18469683D01*
X84740562Y-18356396D01*
X84796369Y-18251989D01*
X84830418Y-18210500D01*
X84871473Y-18160473D01*
X84962987Y-18085370D01*
X84962986Y-18085370D01*
X84962988Y-18085369D01*
X85067395Y-18029562D01*
X85180682Y-17995196D01*
X85298500Y-17983593D01*
X85416317Y-17995196D01*
G37*
G36*
X149843422Y-18224949D02*
G01*
X149843424Y-18224950D01*
X149843425Y-18224950D01*
X149911853Y-18253293D01*
X149973436Y-18294442D01*
X150025808Y-18346814D01*
X150066957Y-18408397D01*
X150095300Y-18476825D01*
X150109750Y-18549467D01*
X150109750Y-18623533D01*
X150095300Y-18696175D01*
X150066957Y-18764603D01*
X150025808Y-18826186D01*
X149973436Y-18878558D01*
X149911853Y-18919707D01*
X149843425Y-18948050D01*
X149843424Y-18948050D01*
X149843422Y-18948051D01*
X149770784Y-18962500D01*
X149696716Y-18962500D01*
X149624078Y-18948051D01*
X149624076Y-18948050D01*
X149624075Y-18948050D01*
X149555647Y-18919707D01*
X149494064Y-18878558D01*
X149441692Y-18826186D01*
X149400543Y-18764603D01*
X149372200Y-18696175D01*
X149357750Y-18623533D01*
X149357750Y-18549467D01*
X149372200Y-18476825D01*
X149400543Y-18408397D01*
X149441692Y-18346814D01*
X149494064Y-18294442D01*
X149555647Y-18253293D01*
X149624075Y-18224950D01*
X149624076Y-18224950D01*
X149624078Y-18224949D01*
X149696716Y-18210500D01*
X149770784Y-18210500D01*
X149843422Y-18224949D01*
G37*
G36*
X144063422Y-18224949D02*
G01*
X144063424Y-18224950D01*
X144063425Y-18224950D01*
X144131853Y-18253293D01*
X144193436Y-18294442D01*
X144245808Y-18346814D01*
X144286957Y-18408397D01*
X144315300Y-18476825D01*
X144329750Y-18549467D01*
X144329750Y-18623533D01*
X144315300Y-18696175D01*
X144286957Y-18764603D01*
X144245808Y-18826186D01*
X144193436Y-18878558D01*
X144131853Y-18919707D01*
X144063425Y-18948050D01*
X144063424Y-18948050D01*
X144063422Y-18948051D01*
X143990784Y-18962500D01*
X143916716Y-18962500D01*
X143844078Y-18948051D01*
X143844076Y-18948050D01*
X143844075Y-18948050D01*
X143775647Y-18919707D01*
X143714064Y-18878558D01*
X143661692Y-18826186D01*
X143620543Y-18764603D01*
X143592200Y-18696175D01*
X143577750Y-18623533D01*
X143577750Y-18549467D01*
X143592200Y-18476825D01*
X143620543Y-18408397D01*
X143661692Y-18346814D01*
X143714064Y-18294442D01*
X143775647Y-18253293D01*
X143844075Y-18224950D01*
X143844076Y-18224950D01*
X143844078Y-18224949D01*
X143916716Y-18210500D01*
X143990784Y-18210500D01*
X144063422Y-18224949D01*
G37*
G36*
X92598172Y-18224949D02*
G01*
X92598174Y-18224950D01*
X92598175Y-18224950D01*
X92666603Y-18253293D01*
X92728186Y-18294442D01*
X92780558Y-18346814D01*
X92821707Y-18408397D01*
X92850050Y-18476825D01*
X92864500Y-18549467D01*
X92864500Y-18623533D01*
X92850050Y-18696175D01*
X92821707Y-18764603D01*
X92780558Y-18826186D01*
X92728186Y-18878558D01*
X92666603Y-18919707D01*
X92598175Y-18948050D01*
X92598174Y-18948050D01*
X92598172Y-18948051D01*
X92525534Y-18962500D01*
X92451466Y-18962500D01*
X92378828Y-18948051D01*
X92378826Y-18948050D01*
X92378825Y-18948050D01*
X92310397Y-18919707D01*
X92248814Y-18878558D01*
X92196442Y-18826186D01*
X92155293Y-18764603D01*
X92126950Y-18696175D01*
X92112500Y-18623533D01*
X92112500Y-18549467D01*
X92126950Y-18476825D01*
X92155293Y-18408397D01*
X92196442Y-18346814D01*
X92248814Y-18294442D01*
X92310397Y-18253293D01*
X92378825Y-18224950D01*
X92378826Y-18224950D01*
X92378828Y-18224949D01*
X92451466Y-18210500D01*
X92525534Y-18210500D01*
X92598172Y-18224949D01*
G37*
G36*
X86818172Y-18224949D02*
G01*
X86818174Y-18224950D01*
X86818175Y-18224950D01*
X86886603Y-18253293D01*
X86948186Y-18294442D01*
X87000558Y-18346814D01*
X87041707Y-18408397D01*
X87070050Y-18476825D01*
X87084500Y-18549467D01*
X87084500Y-18623533D01*
X87070050Y-18696175D01*
X87041707Y-18764603D01*
X87000558Y-18826186D01*
X86948186Y-18878558D01*
X86886603Y-18919707D01*
X86818175Y-18948050D01*
X86818174Y-18948050D01*
X86818172Y-18948051D01*
X86745534Y-18962500D01*
X86671466Y-18962500D01*
X86598828Y-18948051D01*
X86598826Y-18948050D01*
X86598825Y-18948050D01*
X86530397Y-18919707D01*
X86468814Y-18878558D01*
X86416442Y-18826186D01*
X86375293Y-18764603D01*
X86346950Y-18696175D01*
X86332500Y-18623533D01*
X86332500Y-18549467D01*
X86346950Y-18476825D01*
X86375293Y-18408397D01*
X86416442Y-18346814D01*
X86468814Y-18294442D01*
X86530397Y-18253293D01*
X86598825Y-18224950D01*
X86598826Y-18224950D01*
X86598828Y-18224949D01*
X86671466Y-18210500D01*
X86745534Y-18210500D01*
X86818172Y-18224949D01*
G37*
G36*
X16529055Y-13469464D02*
G01*
X16909768Y-13545192D01*
X17319424Y-13714877D01*
X17688104Y-13961222D01*
X18001641Y-14274759D01*
X18247986Y-14643439D01*
X18417671Y-15053095D01*
X18504175Y-15487984D01*
X18504175Y-15931392D01*
X18417671Y-16366281D01*
X18247986Y-16775937D01*
X18001641Y-17144617D01*
X17688104Y-17458154D01*
X17319424Y-17704499D01*
X16909768Y-17874184D01*
X16529055Y-17949912D01*
X16474880Y-17960688D01*
X16031470Y-17960688D01*
X15977295Y-17949912D01*
X15596582Y-17874184D01*
X15186926Y-17704499D01*
X14818246Y-17458154D01*
X14504709Y-17144617D01*
X14258364Y-16775937D01*
X14088679Y-16366281D01*
X14002175Y-15931392D01*
X14002175Y-15487984D01*
X14088679Y-15053095D01*
X14258364Y-14643439D01*
X14504709Y-14274759D01*
X14818246Y-13961222D01*
X15186926Y-13714877D01*
X15596582Y-13545192D01*
X15977295Y-13469464D01*
X16031470Y-13458688D01*
X16474880Y-13458688D01*
X16529055Y-13469464D01*
G37*
G36*
X168397063Y-13432625D02*
G01*
X168777776Y-13508353D01*
X169187432Y-13678038D01*
X169556112Y-13924383D01*
X169869649Y-14237920D01*
X170115994Y-14606600D01*
X170285679Y-15016256D01*
X170372183Y-15451145D01*
X170372183Y-15894553D01*
X170285679Y-16329442D01*
X170115994Y-16739098D01*
X169869649Y-17107778D01*
X169556112Y-17421315D01*
X169187432Y-17667660D01*
X168777776Y-17837345D01*
X168397063Y-17913073D01*
X168342888Y-17923849D01*
X167899478Y-17923849D01*
X167845303Y-17913073D01*
X167464590Y-17837345D01*
X167054934Y-17667660D01*
X166686254Y-17421315D01*
X166372717Y-17107778D01*
X166126372Y-16739098D01*
X165956687Y-16329442D01*
X165870183Y-15894553D01*
X165870183Y-15451145D01*
X165956687Y-15016256D01*
X166126372Y-14606600D01*
X166372717Y-14237920D01*
X166686254Y-13924383D01*
X167054934Y-13678038D01*
X167464590Y-13508353D01*
X167845303Y-13432625D01*
X167899478Y-13421849D01*
X168342888Y-13421849D01*
X168397063Y-13432625D01*
G37*
G36*
X85435920Y-13946643D02*
G01*
X85568056Y-13986727D01*
X85568058Y-13986728D01*
X85689838Y-14051820D01*
X85689840Y-14051821D01*
X85689839Y-14051821D01*
X85796580Y-14139420D01*
X85870860Y-14229930D01*
X85884180Y-14246161D01*
X85899466Y-14274760D01*
X85949273Y-14367943D01*
X85989357Y-14500079D01*
X85999500Y-14603068D01*
X85999500Y-15271932D01*
X85989357Y-15374921D01*
X85949273Y-15507057D01*
X85949272Y-15507059D01*
X85884180Y-15628839D01*
X85796580Y-15735580D01*
X85689839Y-15823180D01*
X85568059Y-15888272D01*
X85568057Y-15888273D01*
X85435921Y-15928357D01*
X85298500Y-15941891D01*
X85161080Y-15928357D01*
X85028944Y-15888273D01*
X85028942Y-15888272D01*
X84907162Y-15823180D01*
X84800421Y-15735580D01*
X84712821Y-15628839D01*
X84647728Y-15507059D01*
X84647727Y-15507058D01*
X84607643Y-15374921D01*
X84597500Y-15271932D01*
X84597500Y-14603069D01*
X84607643Y-14500080D01*
X84647727Y-14367944D01*
X84647729Y-14367941D01*
X84712820Y-14246162D01*
X84728529Y-14227020D01*
X84800420Y-14139420D01*
X84907160Y-14051821D01*
X84907159Y-14051821D01*
X84907161Y-14051820D01*
X85028941Y-13986728D01*
X85028943Y-13986727D01*
X85161079Y-13946643D01*
X85298500Y-13933109D01*
X85435920Y-13946643D01*
G37*
G36*
X94035920Y-13946643D02*
G01*
X94168056Y-13986727D01*
X94168058Y-13986728D01*
X94289838Y-14051820D01*
X94289840Y-14051821D01*
X94289839Y-14051821D01*
X94396580Y-14139420D01*
X94470860Y-14229930D01*
X94484180Y-14246161D01*
X94499466Y-14274760D01*
X94549273Y-14367943D01*
X94589357Y-14500079D01*
X94599500Y-14603068D01*
X94599500Y-15271932D01*
X94589357Y-15374921D01*
X94549273Y-15507057D01*
X94549272Y-15507059D01*
X94484180Y-15628839D01*
X94396580Y-15735580D01*
X94289839Y-15823180D01*
X94168059Y-15888272D01*
X94168057Y-15888273D01*
X94035921Y-15928357D01*
X93898500Y-15941891D01*
X93761080Y-15928357D01*
X93628944Y-15888273D01*
X93628942Y-15888272D01*
X93507162Y-15823180D01*
X93400421Y-15735580D01*
X93312821Y-15628839D01*
X93247728Y-15507059D01*
X93247727Y-15507058D01*
X93207643Y-15374921D01*
X93197500Y-15271932D01*
X93197500Y-14603069D01*
X93207643Y-14500080D01*
X93247727Y-14367944D01*
X93247729Y-14367941D01*
X93312820Y-14246162D01*
X93328529Y-14227020D01*
X93400420Y-14139420D01*
X93507160Y-14051821D01*
X93507159Y-14051821D01*
X93507161Y-14051820D01*
X93628941Y-13986728D01*
X93628943Y-13986727D01*
X93761079Y-13946643D01*
X93898500Y-13933109D01*
X94035920Y-13946643D01*
G37*
G36*
X142681170Y-13946643D02*
G01*
X142813306Y-13986727D01*
X142813308Y-13986728D01*
X142935088Y-14051820D01*
X142935090Y-14051821D01*
X142935089Y-14051821D01*
X143041830Y-14139420D01*
X143116110Y-14229930D01*
X143129430Y-14246161D01*
X143144716Y-14274760D01*
X143194523Y-14367943D01*
X143234607Y-14500079D01*
X143244750Y-14603068D01*
X143244750Y-15271932D01*
X143234607Y-15374921D01*
X143194523Y-15507057D01*
X143194522Y-15507059D01*
X143129430Y-15628839D01*
X143041830Y-15735580D01*
X142935089Y-15823180D01*
X142813309Y-15888272D01*
X142813307Y-15888273D01*
X142681171Y-15928357D01*
X142543750Y-15941891D01*
X142406330Y-15928357D01*
X142274194Y-15888273D01*
X142274192Y-15888272D01*
X142152412Y-15823180D01*
X142045671Y-15735580D01*
X141958071Y-15628839D01*
X141892978Y-15507059D01*
X141892977Y-15507058D01*
X141852893Y-15374921D01*
X141842750Y-15271932D01*
X141842750Y-14603069D01*
X141852893Y-14500080D01*
X141892977Y-14367944D01*
X141892979Y-14367941D01*
X141958070Y-14246162D01*
X141973779Y-14227020D01*
X142045670Y-14139420D01*
X142152410Y-14051821D01*
X142152409Y-14051821D01*
X142152411Y-14051820D01*
X142274191Y-13986728D01*
X142274193Y-13986727D01*
X142406329Y-13946643D01*
X142543750Y-13933109D01*
X142681170Y-13946643D01*
G37*
G36*
X151281170Y-13946643D02*
G01*
X151413306Y-13986727D01*
X151413308Y-13986728D01*
X151535088Y-14051820D01*
X151535090Y-14051821D01*
X151535089Y-14051821D01*
X151641830Y-14139420D01*
X151716110Y-14229930D01*
X151729430Y-14246161D01*
X151744716Y-14274760D01*
X151794523Y-14367943D01*
X151834607Y-14500079D01*
X151844750Y-14603068D01*
X151844750Y-15271932D01*
X151834607Y-15374921D01*
X151794523Y-15507057D01*
X151794522Y-15507059D01*
X151729430Y-15628839D01*
X151641830Y-15735580D01*
X151535089Y-15823180D01*
X151413309Y-15888272D01*
X151413307Y-15888273D01*
X151281171Y-15928357D01*
X151143750Y-15941891D01*
X151006330Y-15928357D01*
X150874194Y-15888273D01*
X150874192Y-15888272D01*
X150752412Y-15823180D01*
X150645671Y-15735580D01*
X150558071Y-15628839D01*
X150492978Y-15507059D01*
X150492977Y-15507058D01*
X150452893Y-15374921D01*
X150442750Y-15271932D01*
X150442750Y-14603069D01*
X150452893Y-14500080D01*
X150492977Y-14367944D01*
X150492979Y-14367941D01*
X150558070Y-14246162D01*
X150573779Y-14227020D01*
X150645670Y-14139420D01*
X150752410Y-14051821D01*
X150752409Y-14051821D01*
X150752411Y-14051820D01*
X150874191Y-13986728D01*
X150874193Y-13986727D01*
X151006329Y-13946643D01*
X151143750Y-13933109D01*
X151281170Y-13946643D01*
G37*
M02*
