G04 #@! TF.GenerationSoftware,KiCad,Pcbnew,(5.1.5-0-10_14)*
G04 #@! TF.CreationDate,2020-07-12T14:02:30+02:00*
G04 #@! TF.ProjectId,Trigon,54726967-6f6e-42e6-9b69-6361645f7063,rev?*
G04 #@! TF.SameCoordinates,Original*
G04 #@! TF.FileFunction,Copper,L1,Top*
G04 #@! TF.FilePolarity,Positive*
%FSLAX46Y46*%
G04 Gerber Fmt 4.6, Leading zero omitted, Abs format (unit mm)*
G04 Created by KiCad (PCBNEW (5.1.5-0-10_14)) date 2020-07-12 14:02:30*
%MOMM*%
%LPD*%
G04 APERTURE LIST*
%ADD10C,2.250000*%
%ADD11R,2.000000X2.000000*%
%ADD12C,2.000000*%
%ADD13R,3.000000X2.500000*%
%ADD14O,0.900000X1.700000*%
%ADD15O,0.900000X2.000000*%
%ADD16C,0.800000*%
%ADD17C,0.254000*%
%ADD18C,0.381000*%
G04 APERTURE END LIST*
D10*
X21590000Y100330000D03*
X15240000Y97790000D03*
X59690000Y24130000D03*
X53340000Y21590000D03*
X40640000Y24130000D03*
X34290000Y21590000D03*
X21590000Y24130000D03*
X15240000Y21590000D03*
X78740000Y43180000D03*
X72390000Y40640000D03*
X59690000Y43180000D03*
X53340000Y40640000D03*
X40640000Y43180000D03*
X34290000Y40640000D03*
X21590000Y43180000D03*
X15240000Y40640000D03*
X97790000Y62230000D03*
X91440000Y59690000D03*
X78740000Y62230000D03*
X72390000Y59690000D03*
X59690000Y62230000D03*
X53340000Y59690000D03*
X40640000Y62230000D03*
X34290000Y59690000D03*
X21590000Y62230000D03*
X15240000Y59690000D03*
X116840000Y81280000D03*
X110490000Y78740000D03*
X97790000Y81280000D03*
X91440000Y78740000D03*
X78740000Y81280000D03*
X72390000Y78740000D03*
X59690000Y81280000D03*
X53340000Y78740000D03*
X40640000Y81280000D03*
X34290000Y78740000D03*
X21590000Y81280000D03*
X15240000Y78740000D03*
X135890000Y100330000D03*
X129540000Y97790000D03*
X116840000Y100330000D03*
X110490000Y97790000D03*
X97790000Y100330000D03*
X91440000Y97790000D03*
X78740000Y100330000D03*
X72390000Y97790000D03*
X59690000Y100330000D03*
X53340000Y97790000D03*
X40640000Y100330000D03*
X34290000Y97790000D03*
D11*
X140493750Y54768750D03*
D12*
X140493750Y57268750D03*
X140493750Y59768750D03*
D13*
X132993750Y51668750D03*
X132993750Y62868750D03*
D12*
X125993750Y54768750D03*
X125993750Y59768750D03*
D14*
X80520000Y113492000D03*
X71880000Y113492000D03*
D15*
X80520000Y109322000D03*
X71880000Y109322000D03*
D16*
X118268750Y70643750D03*
X118268750Y61118750D03*
X49784000Y14224000D03*
X49784000Y28321000D03*
X15240000Y26797000D03*
X34290000Y27559000D03*
X53340000Y29048000D03*
X72390000Y29775000D03*
X91440000Y34002000D03*
X110490000Y47174029D03*
X88138000Y105537000D03*
X88138000Y66564001D03*
X139827000Y65024000D03*
X125730000Y67564000D03*
X128905000Y81407000D03*
X125730008Y74676000D03*
X143668750Y78581250D03*
X79580351Y106497302D03*
X76200000Y106362500D03*
X86233000Y95250000D03*
X86233000Y67944998D03*
X85217000Y95250000D03*
X85217000Y67691000D03*
X124552000Y86360000D03*
X128270000Y106045000D03*
D17*
X118268750Y70643750D02*
X118268750Y61118750D01*
X49784000Y14224000D02*
X49784000Y28321000D01*
X15240000Y97790000D02*
X15240000Y96199010D01*
X15240000Y96199010D02*
X15240000Y26670000D01*
X15240000Y26670000D02*
X15240000Y26797000D01*
X15240000Y26670000D02*
X15240000Y21590000D01*
X34290000Y97790000D02*
X34290000Y37591038D01*
X34290000Y37591038D02*
X34290000Y27559000D01*
X34290000Y27559000D02*
X34290000Y21590000D01*
X53340000Y28321000D02*
X53340000Y21590000D01*
X53340000Y28702000D02*
X53340000Y29048000D01*
X53340000Y97790000D02*
X53340000Y28702000D01*
X53340000Y28702000D02*
X53340000Y28321000D01*
X72390000Y97790000D02*
X72390000Y40640000D01*
X72390000Y40640000D02*
X72390000Y29775000D01*
X91440000Y97790000D02*
X91440000Y34002000D01*
X110490000Y96199010D02*
X110490000Y78740000D01*
X110490000Y97790000D02*
X110490000Y96199010D01*
X110490000Y66802000D02*
X110490000Y66451500D01*
X110490000Y78740000D02*
X110490000Y66802000D01*
X110490000Y52959000D02*
X110490000Y53086000D01*
X110538250Y59768750D02*
X125993750Y59768750D01*
X110490000Y59817000D02*
X110538250Y59768750D01*
X110490000Y52959000D02*
X110490000Y59817000D01*
X110490000Y59817000D02*
X110490000Y66802000D01*
X110490000Y50800000D02*
X110490000Y51181000D01*
X110490000Y51181000D02*
X110490000Y52959000D01*
X110490000Y51181000D02*
X110490000Y47625000D01*
X110490000Y47625000D02*
X110490000Y47444009D01*
X110490000Y47444009D02*
X110490000Y47174029D01*
D18*
X88138000Y105537000D02*
X88138000Y66564001D01*
X125730000Y66998315D02*
X127704315Y65024000D01*
X125730000Y67564000D02*
X125730000Y66998315D01*
X133858000Y65024000D02*
X139827000Y65024000D01*
X127704315Y65024000D02*
X133858000Y65024000D01*
X125730000Y78232000D02*
X128905000Y81407000D01*
X125730000Y67564000D02*
X125730000Y74676000D01*
X125730000Y74676000D02*
X125730000Y78232000D01*
X125730000Y74676000D02*
X125730008Y74676000D01*
X139827000Y65024000D02*
X142017750Y65024000D01*
X143668750Y66675000D02*
X143668750Y78581250D01*
X142017750Y65024000D02*
X143668750Y66675000D01*
D17*
X79580351Y106497302D02*
X77128552Y106497302D01*
X76334802Y106497302D02*
X76200000Y106362500D01*
X77128552Y106497302D02*
X76334802Y106497302D01*
X86233000Y95250000D02*
X86233000Y67944998D01*
X85217000Y95250000D02*
X85217000Y67691000D01*
X124552000Y102327000D02*
X128270000Y106045000D01*
X124552000Y102200000D02*
X124552000Y102327000D01*
X124552000Y86360000D02*
X124552000Y102200000D01*
M02*
