M48
; DRILL file {KiCad (5.1.5-0-10_14)} date 2020 July 12, Sunday 23:00:34
; FORMAT={-:-/ absolute / inch / decimal}
; #@! TF.CreationDate,2020-07-12T23:00:34+02:00
; #@! TF.GenerationSoftware,Kicad,Pcbnew,(5.1.5-0-10_14)
; #@! TF.FileFunction,NonPlated,1,2,NPTH
FMAT,2
INCH
T1C0.0256
T2C0.0689
T3C0.1570
%
G90
G05
T1
X2.8862Y4.3307
X3.1138Y4.3307
T2
X3.55Y3.0
X3.95Y3.0
X0.55Y0.75
X0.95Y0.75
X3.55Y3.75
X3.95Y3.75
X2.05Y2.25
X2.45Y2.25
X0.55Y3.75
X0.95Y3.75
X2.05Y0.75
X2.45Y0.75
X1.3Y3.0
X1.7Y3.0
X0.55Y1.5
X0.95Y1.5
X1.3Y3.75
X1.7Y3.75
X1.3Y2.25
X1.7Y2.25
X2.8Y3.0
X3.2Y3.0
X2.8Y1.5
X3.2Y1.5
X0.55Y2.25
X0.95Y2.25
X1.3Y0.75
X1.7Y0.75
X0.55Y3.0
X0.95Y3.0
X3.55Y2.25
X3.95Y2.25
X2.8Y3.75
X3.2Y3.75
X5.05Y3.75
X5.45Y3.75
X2.05Y1.5
X2.45Y1.5
X4.3Y3.0
X4.7Y3.0
X2.8Y2.25
X3.2Y2.25
X2.05Y3.0
X2.45Y3.0
X1.3Y1.5
X1.7Y1.5
X2.05Y3.75
X2.45Y3.75
X4.3Y3.75
X4.7Y3.75
T3
X3.0Y3.75
X5.25Y3.75
X2.25Y1.5
X4.5Y3.0
X3.0Y2.25
X2.25Y3.0
X1.5Y1.5
X2.25Y3.75
X4.5Y3.75
X3.75Y3.0
X0.75Y0.75
X3.75Y3.75
X2.25Y2.25
X0.75Y3.75
X2.25Y0.75
X1.5Y3.0
X0.75Y1.5
X1.5Y3.75
X1.5Y2.25
X3.0Y3.0
X3.0Y1.5
X0.75Y2.25
X1.5Y0.75
X0.75Y3.0
X3.75Y2.25
T0
M30
